%TF.GenerationSoftware,KiCad,Pcbnew,(5.1.6-0-10_14)*%
%TF.CreationDate,2021-03-04T16:28:04+01:00*%
%TF.ProjectId,serial_board,73657269-616c-45f6-926f-6172642e6b69,rev?*%
%TF.SameCoordinates,Original*%
%TF.FileFunction,Paste,Top*%
%TF.FilePolarity,Positive*%
%FSLAX46Y46*%
G04 Gerber Fmt 4.6, Leading zero omitted, Abs format (unit mm)*
G04 Created by KiCad (PCBNEW (5.1.6-0-10_14)) date 2021-03-04 16:28:04*
%MOMM*%
%LPD*%
G01*
G04 APERTURE LIST*
G04 APERTURE END LIST*
%TO.C,R3*%
G36*
G01*
X53155000Y11233999D02*
X53155000Y12134001D01*
G75*
G02*
X53404999Y12384000I249999J0D01*
G01*
X54055001Y12384000D01*
G75*
G02*
X54305000Y12134001I0J-249999D01*
G01*
X54305000Y11233999D01*
G75*
G02*
X54055001Y10984000I-249999J0D01*
G01*
X53404999Y10984000D01*
G75*
G02*
X53155000Y11233999I0J249999D01*
G01*
G37*
G36*
G01*
X51105000Y11233999D02*
X51105000Y12134001D01*
G75*
G02*
X51354999Y12384000I249999J0D01*
G01*
X52005001Y12384000D01*
G75*
G02*
X52255000Y12134001I0J-249999D01*
G01*
X52255000Y11233999D01*
G75*
G02*
X52005001Y10984000I-249999J0D01*
G01*
X51354999Y10984000D01*
G75*
G02*
X51105000Y11233999I0J249999D01*
G01*
G37*
%TD*%
%TO.C,D2*%
G36*
G01*
X22720000Y37010500D02*
X22720000Y35760500D01*
G75*
G02*
X22470000Y35510500I-250000J0D01*
G01*
X21545000Y35510500D01*
G75*
G02*
X21295000Y35760500I0J250000D01*
G01*
X21295000Y37010500D01*
G75*
G02*
X21545000Y37260500I250000J0D01*
G01*
X22470000Y37260500D01*
G75*
G02*
X22720000Y37010500I0J-250000D01*
G01*
G37*
G36*
G01*
X25695000Y37010500D02*
X25695000Y35760500D01*
G75*
G02*
X25445000Y35510500I-250000J0D01*
G01*
X24520000Y35510500D01*
G75*
G02*
X24270000Y35760500I0J250000D01*
G01*
X24270000Y37010500D01*
G75*
G02*
X24520000Y37260500I250000J0D01*
G01*
X25445000Y37260500D01*
G75*
G02*
X25695000Y37010500I0J-250000D01*
G01*
G37*
%TD*%
%TO.C,D1*%
G36*
G01*
X22720000Y32629000D02*
X22720000Y31379000D01*
G75*
G02*
X22470000Y31129000I-250000J0D01*
G01*
X21545000Y31129000D01*
G75*
G02*
X21295000Y31379000I0J250000D01*
G01*
X21295000Y32629000D01*
G75*
G02*
X21545000Y32879000I250000J0D01*
G01*
X22470000Y32879000D01*
G75*
G02*
X22720000Y32629000I0J-250000D01*
G01*
G37*
G36*
G01*
X25695000Y32629000D02*
X25695000Y31379000D01*
G75*
G02*
X25445000Y31129000I-250000J0D01*
G01*
X24520000Y31129000D01*
G75*
G02*
X24270000Y31379000I0J250000D01*
G01*
X24270000Y32629000D01*
G75*
G02*
X24520000Y32879000I250000J0D01*
G01*
X25445000Y32879000D01*
G75*
G02*
X25695000Y32629000I0J-250000D01*
G01*
G37*
%TD*%
M02*
