%TF.GenerationSoftware,KiCad,Pcbnew,(5.1.6-0-10_14)*%
%TF.CreationDate,2021-03-04T16:28:05+01:00*%
%TF.ProjectId,serial_board,73657269-616c-45f6-926f-6172642e6b69,rev?*%
%TF.SameCoordinates,Original*%
%TF.FileFunction,Soldermask,Bot*%
%TF.FilePolarity,Negative*%
%FSLAX46Y46*%
G04 Gerber Fmt 4.6, Leading zero omitted, Abs format (unit mm)*
G04 Created by KiCad (PCBNEW (5.1.6-0-10_14)) date 2021-03-04 16:28:05*
%MOMM*%
%LPD*%
G01*
G04 APERTURE LIST*
%ADD10C,1.700000*%
%ADD11R,1.700000X1.700000*%
%ADD12O,1.700000X1.700000*%
%ADD13O,1.800000X1.800000*%
%ADD14R,1.800000X1.800000*%
G04 APERTURE END LIST*
%TO.C,R2*%
G36*
G01*
X25635000Y36863762D02*
X25635000Y35907238D01*
G75*
G02*
X25363262Y35635500I-271738J0D01*
G01*
X24656738Y35635500D01*
G75*
G02*
X24385000Y35907238I0J271738D01*
G01*
X24385000Y36863762D01*
G75*
G02*
X24656738Y37135500I271738J0D01*
G01*
X25363262Y37135500D01*
G75*
G02*
X25635000Y36863762I0J-271738D01*
G01*
G37*
G36*
G01*
X27685000Y36863762D02*
X27685000Y35907238D01*
G75*
G02*
X27413262Y35635500I-271738J0D01*
G01*
X26706738Y35635500D01*
G75*
G02*
X26435000Y35907238I0J271738D01*
G01*
X26435000Y36863762D01*
G75*
G02*
X26706738Y37135500I271738J0D01*
G01*
X27413262Y37135500D01*
G75*
G02*
X27685000Y36863762I0J-271738D01*
G01*
G37*
%TD*%
%TO.C,R1*%
G36*
G01*
X25635000Y32482262D02*
X25635000Y31525738D01*
G75*
G02*
X25363262Y31254000I-271738J0D01*
G01*
X24656738Y31254000D01*
G75*
G02*
X24385000Y31525738I0J271738D01*
G01*
X24385000Y32482262D01*
G75*
G02*
X24656738Y32754000I271738J0D01*
G01*
X25363262Y32754000D01*
G75*
G02*
X25635000Y32482262I0J-271738D01*
G01*
G37*
G36*
G01*
X27685000Y32482262D02*
X27685000Y31525738D01*
G75*
G02*
X27413262Y31254000I-271738J0D01*
G01*
X26706738Y31254000D01*
G75*
G02*
X26435000Y31525738I0J271738D01*
G01*
X26435000Y32482262D01*
G75*
G02*
X26706738Y32754000I271738J0D01*
G01*
X27413262Y32754000D01*
G75*
G02*
X27685000Y32482262I0J-271738D01*
G01*
G37*
%TD*%
D10*
%TO.C,X1*%
X26543000Y17145000D03*
X26543000Y24765000D03*
X18923000Y24765000D03*
D11*
X18923000Y17145000D03*
%TD*%
D12*
%TO.C,U1*%
X42545000Y29591000D03*
X75565000Y14351000D03*
X45085000Y29591000D03*
X73025000Y14351000D03*
X47625000Y29591000D03*
X70485000Y14351000D03*
X50165000Y29591000D03*
X67945000Y14351000D03*
X52705000Y29591000D03*
X65405000Y14351000D03*
X55245000Y29591000D03*
X62865000Y14351000D03*
X57785000Y29591000D03*
X60325000Y14351000D03*
X60325000Y29591000D03*
X57785000Y14351000D03*
X62865000Y29591000D03*
X55245000Y14351000D03*
X65405000Y29591000D03*
X52705000Y14351000D03*
X67945000Y29591000D03*
X50165000Y14351000D03*
X70485000Y29591000D03*
X47625000Y14351000D03*
X73025000Y29591000D03*
X45085000Y14351000D03*
X75565000Y29591000D03*
D11*
X42545000Y14351000D03*
%TD*%
D13*
%TO.C,J2*%
X39370000Y40513000D03*
X39370000Y43053000D03*
X39370000Y45593000D03*
X39370000Y48133000D03*
X39370000Y50673000D03*
D14*
X39370000Y53213000D03*
%TD*%
%TO.C,C2*%
G36*
G01*
X73316000Y27581456D02*
X73316000Y26266544D01*
G75*
G02*
X73048456Y25999000I-267544J0D01*
G01*
X72058544Y25999000D01*
G75*
G02*
X71791000Y26266544I0J267544D01*
G01*
X71791000Y27581456D01*
G75*
G02*
X72058544Y27849000I267544J0D01*
G01*
X73048456Y27849000D01*
G75*
G02*
X73316000Y27581456I0J-267544D01*
G01*
G37*
G36*
G01*
X76291000Y27581456D02*
X76291000Y26266544D01*
G75*
G02*
X76023456Y25999000I-267544J0D01*
G01*
X75033544Y25999000D01*
G75*
G02*
X74766000Y26266544I0J267544D01*
G01*
X74766000Y27581456D01*
G75*
G02*
X75033544Y27849000I267544J0D01*
G01*
X76023456Y27849000D01*
G75*
G02*
X76291000Y27581456I0J-267544D01*
G01*
G37*
%TD*%
%TO.C,C1*%
G36*
G01*
X21172000Y21567544D02*
X21172000Y22882456D01*
G75*
G02*
X21439544Y23150000I267544J0D01*
G01*
X22429456Y23150000D01*
G75*
G02*
X22697000Y22882456I0J-267544D01*
G01*
X22697000Y21567544D01*
G75*
G02*
X22429456Y21300000I-267544J0D01*
G01*
X21439544Y21300000D01*
G75*
G02*
X21172000Y21567544I0J267544D01*
G01*
G37*
G36*
G01*
X18197000Y21567544D02*
X18197000Y22882456D01*
G75*
G02*
X18464544Y23150000I267544J0D01*
G01*
X19454456Y23150000D01*
G75*
G02*
X19722000Y22882456I0J-267544D01*
G01*
X19722000Y21567544D01*
G75*
G02*
X19454456Y21300000I-267544J0D01*
G01*
X18464544Y21300000D01*
G75*
G02*
X18197000Y21567544I0J267544D01*
G01*
G37*
%TD*%
D13*
%TO.C,J1*%
X17272000Y4064000D03*
X17272000Y6604000D03*
X19812000Y4064000D03*
X19812000Y6604000D03*
X22352000Y4064000D03*
X22352000Y6604000D03*
X24892000Y4064000D03*
X24892000Y6604000D03*
X27432000Y4064000D03*
X27432000Y6604000D03*
X29972000Y4064000D03*
X29972000Y6604000D03*
X32512000Y4064000D03*
X32512000Y6604000D03*
X35052000Y4064000D03*
X35052000Y6604000D03*
X37592000Y4064000D03*
X37592000Y6604000D03*
X40132000Y4064000D03*
X40132000Y6604000D03*
X42672000Y4064000D03*
X42672000Y6604000D03*
X45212000Y4064000D03*
X45212000Y6604000D03*
X47752000Y4064000D03*
X47752000Y6604000D03*
X50292000Y4064000D03*
X50292000Y6604000D03*
X52832000Y4064000D03*
X52832000Y6604000D03*
X55372000Y4064000D03*
X55372000Y6604000D03*
X57912000Y4064000D03*
X57912000Y6604000D03*
X60452000Y4064000D03*
X60452000Y6604000D03*
X62992000Y4064000D03*
X62992000Y6604000D03*
X65532000Y4064000D03*
X65532000Y6604000D03*
X68072000Y4064000D03*
X68072000Y6604000D03*
X70612000Y4064000D03*
X70612000Y6604000D03*
X73152000Y4064000D03*
X73152000Y6604000D03*
X75692000Y4064000D03*
X75692000Y6604000D03*
X78232000Y4064000D03*
D14*
X78232000Y6604000D03*
%TD*%
M02*
