%TF.GenerationSoftware,KiCad,Pcbnew,(5.1.10-1-10_14)*%
%TF.CreationDate,2021-08-30T23:31:41+02:00*%
%TF.ProjectId,serial_board,73657269-616c-45f6-926f-6172642e6b69,rev?*%
%TF.SameCoordinates,Original*%
%TF.FileFunction,Legend,Bot*%
%TF.FilePolarity,Positive*%
%FSLAX46Y46*%
G04 Gerber Fmt 4.6, Leading zero omitted, Abs format (unit mm)*
G04 Created by KiCad (PCBNEW (5.1.10-1-10_14)) date 2021-08-30 23:31:41*
%MOMM*%
%LPD*%
G01*
G04 APERTURE LIST*
%ADD10C,0.300000*%
%ADD11C,0.010000*%
G04 APERTURE END LIST*
D10*
X79055714Y50244476D02*
X78770000Y50149238D01*
X78293809Y50149238D01*
X78103333Y50244476D01*
X78008095Y50339714D01*
X77912857Y50530190D01*
X77912857Y50720666D01*
X78008095Y50911142D01*
X78103333Y51006380D01*
X78293809Y51101619D01*
X78674761Y51196857D01*
X78865238Y51292095D01*
X78960476Y51387333D01*
X79055714Y51577809D01*
X79055714Y51768285D01*
X78960476Y51958761D01*
X78865238Y52054000D01*
X78674761Y52149238D01*
X78198571Y52149238D01*
X77912857Y52054000D01*
X77055714Y51196857D02*
X76389047Y51196857D01*
X76103333Y50149238D02*
X77055714Y50149238D01*
X77055714Y52149238D01*
X76103333Y52149238D01*
X74103333Y50149238D02*
X74770000Y51101619D01*
X75246190Y50149238D02*
X75246190Y52149238D01*
X74484285Y52149238D01*
X74293809Y52054000D01*
X74198571Y51958761D01*
X74103333Y51768285D01*
X74103333Y51482571D01*
X74198571Y51292095D01*
X74293809Y51196857D01*
X74484285Y51101619D01*
X75246190Y51101619D01*
X73246190Y50149238D02*
X73246190Y52149238D01*
X72389047Y50720666D02*
X71436666Y50720666D01*
X72579523Y50149238D02*
X71912857Y52149238D01*
X71246190Y50149238D01*
X69627142Y50149238D02*
X70579523Y50149238D01*
X70579523Y52149238D01*
X66770000Y51196857D02*
X66484285Y51101619D01*
X66389047Y51006380D01*
X66293809Y50815904D01*
X66293809Y50530190D01*
X66389047Y50339714D01*
X66484285Y50244476D01*
X66674761Y50149238D01*
X67436666Y50149238D01*
X67436666Y52149238D01*
X66770000Y52149238D01*
X66579523Y52054000D01*
X66484285Y51958761D01*
X66389047Y51768285D01*
X66389047Y51577809D01*
X66484285Y51387333D01*
X66579523Y51292095D01*
X66770000Y51196857D01*
X67436666Y51196857D01*
X65055714Y52149238D02*
X64674761Y52149238D01*
X64484285Y52054000D01*
X64293809Y51863523D01*
X64198571Y51482571D01*
X64198571Y50815904D01*
X64293809Y50434952D01*
X64484285Y50244476D01*
X64674761Y50149238D01*
X65055714Y50149238D01*
X65246190Y50244476D01*
X65436666Y50434952D01*
X65531904Y50815904D01*
X65531904Y51482571D01*
X65436666Y51863523D01*
X65246190Y52054000D01*
X65055714Y52149238D01*
X63436666Y50720666D02*
X62484285Y50720666D01*
X63627142Y50149238D02*
X62960476Y52149238D01*
X62293809Y50149238D01*
X60484285Y50149238D02*
X61150952Y51101619D01*
X61627142Y50149238D02*
X61627142Y52149238D01*
X60865238Y52149238D01*
X60674761Y52054000D01*
X60579523Y51958761D01*
X60484285Y51768285D01*
X60484285Y51482571D01*
X60579523Y51292095D01*
X60674761Y51196857D01*
X60865238Y51101619D01*
X61627142Y51101619D01*
X59627142Y50149238D02*
X59627142Y52149238D01*
X59150952Y52149238D01*
X58865238Y52054000D01*
X58674761Y51863523D01*
X58579523Y51673047D01*
X58484285Y51292095D01*
X58484285Y51006380D01*
X58579523Y50625428D01*
X58674761Y50434952D01*
X58865238Y50244476D01*
X59150952Y50149238D01*
X59627142Y50149238D01*
X56389047Y52149238D02*
X55722380Y50149238D01*
X55055714Y52149238D01*
X53341428Y50149238D02*
X54484285Y50149238D01*
X53912857Y50149238D02*
X53912857Y52149238D01*
X54103333Y51863523D01*
X54293809Y51673047D01*
X54484285Y51577809D01*
X52484285Y50339714D02*
X52389047Y50244476D01*
X52484285Y50149238D01*
X52579523Y50244476D01*
X52484285Y50339714D01*
X52484285Y50149238D01*
X50484285Y50149238D02*
X51627142Y50149238D01*
X51055714Y50149238D02*
X51055714Y52149238D01*
X51246190Y51863523D01*
X51436666Y51673047D01*
X51627142Y51577809D01*
D11*
%TO.C,G\u002A\u002A\u002A*%
G36*
X73104375Y55315341D02*
G01*
X73550213Y54859483D01*
X73647772Y54760090D01*
X73738672Y54668169D01*
X73820480Y54586130D01*
X73890761Y54516385D01*
X73947081Y54461343D01*
X73987006Y54423414D01*
X74008101Y54405009D01*
X74010588Y54403625D01*
X74012612Y54419291D01*
X74014517Y54465449D01*
X74016294Y54540842D01*
X74017934Y54644213D01*
X74019429Y54774304D01*
X74020770Y54929859D01*
X74021948Y55109620D01*
X74022954Y55312329D01*
X74023780Y55536730D01*
X74024417Y55781565D01*
X74024856Y56045576D01*
X74025089Y56327507D01*
X74025125Y56499125D01*
X74025125Y58594625D01*
X73104375Y58594625D01*
X73104375Y55315341D01*
G37*
X73104375Y55315341D02*
X73550213Y54859483D01*
X73647772Y54760090D01*
X73738672Y54668169D01*
X73820480Y54586130D01*
X73890761Y54516385D01*
X73947081Y54461343D01*
X73987006Y54423414D01*
X74008101Y54405009D01*
X74010588Y54403625D01*
X74012612Y54419291D01*
X74014517Y54465449D01*
X74016294Y54540842D01*
X74017934Y54644213D01*
X74019429Y54774304D01*
X74020770Y54929859D01*
X74021948Y55109620D01*
X74022954Y55312329D01*
X74023780Y55536730D01*
X74024417Y55781565D01*
X74024856Y56045576D01*
X74025089Y56327507D01*
X74025125Y56499125D01*
X74025125Y58594625D01*
X73104375Y58594625D01*
X73104375Y55315341D01*
G36*
X54610000Y57237313D02*
G01*
X55967243Y55880000D01*
X54610000Y54522688D01*
X53252758Y53165375D01*
X53895660Y53165388D01*
X54538563Y53165400D01*
X55895875Y54510794D01*
X56069001Y54682499D01*
X56235798Y54848122D01*
X56394883Y55006280D01*
X56544872Y55155587D01*
X56684380Y55294660D01*
X56812025Y55422115D01*
X56926421Y55536567D01*
X57026186Y55636632D01*
X57109934Y55720926D01*
X57176283Y55788064D01*
X57223848Y55836663D01*
X57251245Y55865338D01*
X57257720Y55872911D01*
X57247240Y55885998D01*
X57215543Y55920020D01*
X57163999Y55973597D01*
X57093977Y56045352D01*
X57006847Y56133903D01*
X56903978Y56237873D01*
X56786739Y56355882D01*
X56656501Y56486552D01*
X56514632Y56628502D01*
X56362503Y56780354D01*
X56201483Y56940730D01*
X56032941Y57108248D01*
X55898001Y57242130D01*
X54533750Y58594625D01*
X53252758Y58594625D01*
X54610000Y57237313D01*
G37*
X54610000Y57237313D02*
X55967243Y55880000D01*
X54610000Y54522688D01*
X53252758Y53165375D01*
X53895660Y53165388D01*
X54538563Y53165400D01*
X55895875Y54510794D01*
X56069001Y54682499D01*
X56235798Y54848122D01*
X56394883Y55006280D01*
X56544872Y55155587D01*
X56684380Y55294660D01*
X56812025Y55422115D01*
X56926421Y55536567D01*
X57026186Y55636632D01*
X57109934Y55720926D01*
X57176283Y55788064D01*
X57223848Y55836663D01*
X57251245Y55865338D01*
X57257720Y55872911D01*
X57247240Y55885998D01*
X57215543Y55920020D01*
X57163999Y55973597D01*
X57093977Y56045352D01*
X57006847Y56133903D01*
X56903978Y56237873D01*
X56786739Y56355882D01*
X56656501Y56486552D01*
X56514632Y56628502D01*
X56362503Y56780354D01*
X56201483Y56940730D01*
X56032941Y57108248D01*
X55898001Y57242130D01*
X54533750Y58594625D01*
X53252758Y58594625D01*
X54610000Y57237313D01*
G36*
X57528682Y58585742D02*
G01*
X57392475Y58578154D01*
X57275877Y58565496D01*
X57237313Y58559127D01*
X56955231Y58490718D01*
X56681501Y58393094D01*
X56419529Y58267935D01*
X56172720Y58116922D01*
X55944478Y57941736D01*
X55890781Y57894417D01*
X55782498Y57796315D01*
X55859031Y57717927D01*
X55893910Y57683020D01*
X55947009Y57630916D01*
X56013525Y57566280D01*
X56088653Y57493776D01*
X56167589Y57418068D01*
X56185396Y57401057D01*
X56435228Y57162576D01*
X56518771Y57238201D01*
X56690778Y57373146D01*
X56882327Y57485888D01*
X57088354Y57574285D01*
X57303792Y57636198D01*
X57523577Y57669485D01*
X57542907Y57670970D01*
X57797006Y57674935D01*
X58038215Y57650112D01*
X58266221Y57596610D01*
X58480710Y57514541D01*
X58681368Y57404016D01*
X58867881Y57265145D01*
X58975430Y57165706D01*
X59136283Y56983255D01*
X59271597Y56783882D01*
X59379689Y56570472D01*
X59458878Y56345909D01*
X59463550Y56328903D01*
X59478690Y56270104D01*
X59489686Y56218432D01*
X59497189Y56166887D01*
X59501853Y56108469D01*
X59504328Y56036177D01*
X59505267Y55943009D01*
X59505366Y55880000D01*
X59504995Y55772291D01*
X59503450Y55689325D01*
X59500076Y55624104D01*
X59494223Y55569626D01*
X59485238Y55518890D01*
X59472469Y55464895D01*
X59463550Y55431098D01*
X59417140Y55287609D01*
X59355113Y55137810D01*
X59283347Y54994641D01*
X59212448Y54877958D01*
X59111361Y54746543D01*
X58988397Y54614730D01*
X58851725Y54489946D01*
X58709513Y54379619D01*
X58569930Y54291177D01*
X58562875Y54287304D01*
X58424505Y54221701D01*
X58272040Y54166154D01*
X58115085Y54123290D01*
X57963244Y54095739D01*
X57827560Y54086125D01*
X57724295Y54086125D01*
X57198378Y53737849D01*
X57083031Y53661203D01*
X56976263Y53589757D01*
X56880918Y53525450D01*
X56799840Y53470224D01*
X56735872Y53426018D01*
X56691858Y53394775D01*
X56670641Y53378433D01*
X56669137Y53376693D01*
X56681750Y53365887D01*
X56719595Y53348895D01*
X56777159Y53327455D01*
X56848929Y53303305D01*
X56929392Y53278182D01*
X57013034Y53253824D01*
X57094342Y53231968D01*
X57167804Y53214351D01*
X57213500Y53205133D01*
X57293851Y53194128D01*
X57396473Y53185032D01*
X57513617Y53178062D01*
X57637532Y53173430D01*
X57760466Y53171353D01*
X57874669Y53172046D01*
X57972389Y53175723D01*
X58042666Y53182143D01*
X58249681Y53217822D01*
X58443774Y53267012D01*
X58635016Y53332877D01*
X58833477Y53418580D01*
X58904188Y53452701D01*
X59164922Y53598419D01*
X59403773Y53767051D01*
X59620356Y53958213D01*
X59814286Y54171525D01*
X59985179Y54406604D01*
X60132651Y54663070D01*
X60141899Y54681438D01*
X60261543Y54952986D01*
X60349647Y55225367D01*
X60406419Y55499528D01*
X60432069Y55776419D01*
X60430789Y55991125D01*
X60401680Y56287436D01*
X60343291Y56571483D01*
X60255606Y56843301D01*
X60138611Y57102923D01*
X59992291Y57350380D01*
X59816632Y57585707D01*
X59638105Y57782448D01*
X59421298Y57979418D01*
X59185271Y58151792D01*
X58932284Y58298355D01*
X58664596Y58417893D01*
X58384467Y58509191D01*
X58209373Y58550311D01*
X58101327Y58566925D01*
X57970821Y58578852D01*
X57826268Y58586015D01*
X57676084Y58588337D01*
X57528682Y58585742D01*
G37*
X57528682Y58585742D02*
X57392475Y58578154D01*
X57275877Y58565496D01*
X57237313Y58559127D01*
X56955231Y58490718D01*
X56681501Y58393094D01*
X56419529Y58267935D01*
X56172720Y58116922D01*
X55944478Y57941736D01*
X55890781Y57894417D01*
X55782498Y57796315D01*
X55859031Y57717927D01*
X55893910Y57683020D01*
X55947009Y57630916D01*
X56013525Y57566280D01*
X56088653Y57493776D01*
X56167589Y57418068D01*
X56185396Y57401057D01*
X56435228Y57162576D01*
X56518771Y57238201D01*
X56690778Y57373146D01*
X56882327Y57485888D01*
X57088354Y57574285D01*
X57303792Y57636198D01*
X57523577Y57669485D01*
X57542907Y57670970D01*
X57797006Y57674935D01*
X58038215Y57650112D01*
X58266221Y57596610D01*
X58480710Y57514541D01*
X58681368Y57404016D01*
X58867881Y57265145D01*
X58975430Y57165706D01*
X59136283Y56983255D01*
X59271597Y56783882D01*
X59379689Y56570472D01*
X59458878Y56345909D01*
X59463550Y56328903D01*
X59478690Y56270104D01*
X59489686Y56218432D01*
X59497189Y56166887D01*
X59501853Y56108469D01*
X59504328Y56036177D01*
X59505267Y55943009D01*
X59505366Y55880000D01*
X59504995Y55772291D01*
X59503450Y55689325D01*
X59500076Y55624104D01*
X59494223Y55569626D01*
X59485238Y55518890D01*
X59472469Y55464895D01*
X59463550Y55431098D01*
X59417140Y55287609D01*
X59355113Y55137810D01*
X59283347Y54994641D01*
X59212448Y54877958D01*
X59111361Y54746543D01*
X58988397Y54614730D01*
X58851725Y54489946D01*
X58709513Y54379619D01*
X58569930Y54291177D01*
X58562875Y54287304D01*
X58424505Y54221701D01*
X58272040Y54166154D01*
X58115085Y54123290D01*
X57963244Y54095739D01*
X57827560Y54086125D01*
X57724295Y54086125D01*
X57198378Y53737849D01*
X57083031Y53661203D01*
X56976263Y53589757D01*
X56880918Y53525450D01*
X56799840Y53470224D01*
X56735872Y53426018D01*
X56691858Y53394775D01*
X56670641Y53378433D01*
X56669137Y53376693D01*
X56681750Y53365887D01*
X56719595Y53348895D01*
X56777159Y53327455D01*
X56848929Y53303305D01*
X56929392Y53278182D01*
X57013034Y53253824D01*
X57094342Y53231968D01*
X57167804Y53214351D01*
X57213500Y53205133D01*
X57293851Y53194128D01*
X57396473Y53185032D01*
X57513617Y53178062D01*
X57637532Y53173430D01*
X57760466Y53171353D01*
X57874669Y53172046D01*
X57972389Y53175723D01*
X58042666Y53182143D01*
X58249681Y53217822D01*
X58443774Y53267012D01*
X58635016Y53332877D01*
X58833477Y53418580D01*
X58904188Y53452701D01*
X59164922Y53598419D01*
X59403773Y53767051D01*
X59620356Y53958213D01*
X59814286Y54171525D01*
X59985179Y54406604D01*
X60132651Y54663070D01*
X60141899Y54681438D01*
X60261543Y54952986D01*
X60349647Y55225367D01*
X60406419Y55499528D01*
X60432069Y55776419D01*
X60430789Y55991125D01*
X60401680Y56287436D01*
X60343291Y56571483D01*
X60255606Y56843301D01*
X60138611Y57102923D01*
X59992291Y57350380D01*
X59816632Y57585707D01*
X59638105Y57782448D01*
X59421298Y57979418D01*
X59185271Y58151792D01*
X58932284Y58298355D01*
X58664596Y58417893D01*
X58384467Y58509191D01*
X58209373Y58550311D01*
X58101327Y58566925D01*
X57970821Y58578852D01*
X57826268Y58586015D01*
X57676084Y58588337D01*
X57528682Y58585742D01*
G36*
X65972532Y58567469D02*
G01*
X65956795Y58553255D01*
X65918771Y58519008D01*
X65859787Y58465920D01*
X65781168Y58395183D01*
X65684240Y58307990D01*
X65570329Y58205534D01*
X65440761Y58089006D01*
X65296862Y57959599D01*
X65139956Y57818505D01*
X64971372Y57666917D01*
X64792433Y57506027D01*
X64604466Y57337027D01*
X64408797Y57161109D01*
X64206751Y56979467D01*
X64166750Y56943506D01*
X62396688Y55352235D01*
X62392644Y56973430D01*
X62388601Y58594625D01*
X61483875Y58594625D01*
X61483875Y55880000D01*
X61483898Y55589003D01*
X61483965Y55306688D01*
X61484074Y55034683D01*
X61484221Y54774611D01*
X61484406Y54528098D01*
X61484625Y54296768D01*
X61484877Y54082248D01*
X61485158Y53886162D01*
X61485467Y53710135D01*
X61485800Y53555792D01*
X61486157Y53424759D01*
X61486533Y53318660D01*
X61486928Y53239121D01*
X61487338Y53187766D01*
X61487761Y53166221D01*
X61487844Y53165632D01*
X61499888Y53176086D01*
X61534281Y53206637D01*
X61589762Y53256154D01*
X61665071Y53323506D01*
X61758947Y53407561D01*
X61870129Y53507190D01*
X61997356Y53621261D01*
X62139366Y53748642D01*
X62294900Y53888204D01*
X62462696Y54038816D01*
X62641494Y54199345D01*
X62830031Y54368663D01*
X63027049Y54545636D01*
X63231284Y54729135D01*
X63357125Y54842220D01*
X63572558Y55035817D01*
X63786062Y55227666D01*
X63996004Y55416297D01*
X64200747Y55600242D01*
X64398656Y55778031D01*
X64588094Y55948195D01*
X64767428Y56109266D01*
X64935021Y56259776D01*
X65089237Y56398253D01*
X65228441Y56523231D01*
X65350997Y56633240D01*
X65455270Y56726812D01*
X65539625Y56802476D01*
X65602425Y56858765D01*
X65614965Y56869995D01*
X66007491Y57221438D01*
X66007871Y57910799D01*
X66008250Y58600159D01*
X65972532Y58567469D01*
G37*
X65972532Y58567469D02*
X65956795Y58553255D01*
X65918771Y58519008D01*
X65859787Y58465920D01*
X65781168Y58395183D01*
X65684240Y58307990D01*
X65570329Y58205534D01*
X65440761Y58089006D01*
X65296862Y57959599D01*
X65139956Y57818505D01*
X64971372Y57666917D01*
X64792433Y57506027D01*
X64604466Y57337027D01*
X64408797Y57161109D01*
X64206751Y56979467D01*
X64166750Y56943506D01*
X62396688Y55352235D01*
X62392644Y56973430D01*
X62388601Y58594625D01*
X61483875Y58594625D01*
X61483875Y55880000D01*
X61483898Y55589003D01*
X61483965Y55306688D01*
X61484074Y55034683D01*
X61484221Y54774611D01*
X61484406Y54528098D01*
X61484625Y54296768D01*
X61484877Y54082248D01*
X61485158Y53886162D01*
X61485467Y53710135D01*
X61485800Y53555792D01*
X61486157Y53424759D01*
X61486533Y53318660D01*
X61486928Y53239121D01*
X61487338Y53187766D01*
X61487761Y53166221D01*
X61487844Y53165632D01*
X61499888Y53176086D01*
X61534281Y53206637D01*
X61589762Y53256154D01*
X61665071Y53323506D01*
X61758947Y53407561D01*
X61870129Y53507190D01*
X61997356Y53621261D01*
X62139366Y53748642D01*
X62294900Y53888204D01*
X62462696Y54038816D01*
X62641494Y54199345D01*
X62830031Y54368663D01*
X63027049Y54545636D01*
X63231284Y54729135D01*
X63357125Y54842220D01*
X63572558Y55035817D01*
X63786062Y55227666D01*
X63996004Y55416297D01*
X64200747Y55600242D01*
X64398656Y55778031D01*
X64588094Y55948195D01*
X64767428Y56109266D01*
X64935021Y56259776D01*
X65089237Y56398253D01*
X65228441Y56523231D01*
X65350997Y56633240D01*
X65455270Y56726812D01*
X65539625Y56802476D01*
X65602425Y56858765D01*
X65614965Y56869995D01*
X66007491Y57221438D01*
X66007871Y57910799D01*
X66008250Y58600159D01*
X65972532Y58567469D01*
G36*
X64281679Y53628220D02*
G01*
X64226060Y53519140D01*
X64175408Y53419185D01*
X64131464Y53331839D01*
X64095969Y53260588D01*
X64070666Y53208917D01*
X64057294Y53180310D01*
X64055625Y53175783D01*
X64070872Y53173246D01*
X64114096Y53170933D01*
X64181528Y53168921D01*
X64269395Y53167288D01*
X64373926Y53166112D01*
X64491351Y53165472D01*
X64559786Y53165375D01*
X65063947Y53165375D01*
X65290000Y53617813D01*
X65516053Y54070250D01*
X64507733Y54070250D01*
X64281679Y53628220D01*
G37*
X64281679Y53628220D02*
X64226060Y53519140D01*
X64175408Y53419185D01*
X64131464Y53331839D01*
X64095969Y53260588D01*
X64070666Y53208917D01*
X64057294Y53180310D01*
X64055625Y53175783D01*
X64070872Y53173246D01*
X64114096Y53170933D01*
X64181528Y53168921D01*
X64269395Y53167288D01*
X64373926Y53166112D01*
X64491351Y53165472D01*
X64559786Y53165375D01*
X65063947Y53165375D01*
X65290000Y53617813D01*
X65516053Y54070250D01*
X64507733Y54070250D01*
X64281679Y53628220D01*
G36*
X65864269Y56800727D02*
G01*
X65752217Y56576823D01*
X65644160Y56360748D01*
X65540945Y56154205D01*
X65443419Y55958894D01*
X65352430Y55776517D01*
X65268823Y55608775D01*
X65193446Y55457369D01*
X65127145Y55324000D01*
X65070768Y55210369D01*
X65025162Y55118177D01*
X64991173Y55049126D01*
X64969647Y55004917D01*
X64961433Y54987251D01*
X64961376Y54987032D01*
X64976406Y54984141D01*
X65019438Y54981503D01*
X65086722Y54979207D01*
X65174511Y54977340D01*
X65279056Y54975990D01*
X65396609Y54975245D01*
X65468522Y54975125D01*
X65976543Y54975125D01*
X66369353Y55760938D01*
X66442719Y55907418D01*
X66511912Y56045012D01*
X66575628Y56171163D01*
X66632560Y56283312D01*
X66681404Y56378902D01*
X66720856Y56455376D01*
X66749609Y56510176D01*
X66766358Y56540744D01*
X66770176Y56546410D01*
X66778178Y56532460D01*
X66799509Y56491861D01*
X66833289Y56426354D01*
X66878635Y56337682D01*
X66934665Y56227588D01*
X67000497Y56097812D01*
X67075249Y55950098D01*
X67158040Y55786187D01*
X67247987Y55607822D01*
X67344208Y55416745D01*
X67445822Y55214698D01*
X67551947Y55003422D01*
X67626063Y54855722D01*
X68473937Y53165375D01*
X69484894Y53165375D01*
X68125590Y55883946D01*
X66766286Y58602516D01*
X65864269Y56800727D01*
G37*
X65864269Y56800727D02*
X65752217Y56576823D01*
X65644160Y56360748D01*
X65540945Y56154205D01*
X65443419Y55958894D01*
X65352430Y55776517D01*
X65268823Y55608775D01*
X65193446Y55457369D01*
X65127145Y55324000D01*
X65070768Y55210369D01*
X65025162Y55118177D01*
X64991173Y55049126D01*
X64969647Y55004917D01*
X64961433Y54987251D01*
X64961376Y54987032D01*
X64976406Y54984141D01*
X65019438Y54981503D01*
X65086722Y54979207D01*
X65174511Y54977340D01*
X65279056Y54975990D01*
X65396609Y54975245D01*
X65468522Y54975125D01*
X65976543Y54975125D01*
X66369353Y55760938D01*
X66442719Y55907418D01*
X66511912Y56045012D01*
X66575628Y56171163D01*
X66632560Y56283312D01*
X66681404Y56378902D01*
X66720856Y56455376D01*
X66749609Y56510176D01*
X66766358Y56540744D01*
X66770176Y56546410D01*
X66778178Y56532460D01*
X66799509Y56491861D01*
X66833289Y56426354D01*
X66878635Y56337682D01*
X66934665Y56227588D01*
X67000497Y56097812D01*
X67075249Y55950098D01*
X67158040Y55786187D01*
X67247987Y55607822D01*
X67344208Y55416745D01*
X67445822Y55214698D01*
X67551947Y55003422D01*
X67626063Y54855722D01*
X68473937Y53165375D01*
X69484894Y53165375D01*
X68125590Y55883946D01*
X66766286Y58602516D01*
X65864269Y56800727D01*
G36*
X70389750Y53165375D02*
G01*
X74011881Y53165375D01*
X73570034Y53617538D01*
X73128188Y54069700D01*
X70389750Y54070250D01*
X70389750Y53165375D01*
G37*
X70389750Y53165375D02*
X74011881Y53165375D01*
X73570034Y53617538D01*
X73128188Y54069700D01*
X70389750Y54070250D01*
X70389750Y53165375D01*
G36*
X77874709Y58594562D02*
G01*
X77614601Y58594525D01*
X77384092Y58594367D01*
X77181032Y58593981D01*
X77003270Y58593259D01*
X76848654Y58592093D01*
X76715035Y58590375D01*
X76600260Y58587999D01*
X76502180Y58584856D01*
X76418644Y58580840D01*
X76347500Y58575841D01*
X76286599Y58569753D01*
X76233789Y58562469D01*
X76186919Y58553880D01*
X76143838Y58543879D01*
X76102397Y58532358D01*
X76060443Y58519211D01*
X76015827Y58504328D01*
X76006284Y58501096D01*
X75798001Y58414185D01*
X75601691Y58300043D01*
X75420228Y58161668D01*
X75256489Y58002059D01*
X75113348Y57824214D01*
X74993680Y57631132D01*
X74900363Y57425811D01*
X74860646Y57306466D01*
X74809798Y57077642D01*
X74787643Y56844746D01*
X74793829Y56612007D01*
X74828005Y56383651D01*
X74889817Y56163907D01*
X74971905Y55970761D01*
X75087362Y55775222D01*
X75228433Y55593794D01*
X75391354Y55429771D01*
X75572364Y55286447D01*
X75767698Y55167116D01*
X75973594Y55075071D01*
X76009965Y55062173D01*
X76060153Y55045436D01*
X76107305Y55030990D01*
X76154110Y55018668D01*
X76203256Y55008300D01*
X76257431Y54999719D01*
X76319323Y54992757D01*
X76391622Y54987245D01*
X76477015Y54983014D01*
X76578190Y54979897D01*
X76697837Y54977725D01*
X76838643Y54976331D01*
X77003297Y54975545D01*
X77194487Y54975199D01*
X77400642Y54975125D01*
X78406625Y54975125D01*
X78406625Y53165375D01*
X79311500Y53165375D01*
X79311500Y55879038D01*
X76430188Y55887938D01*
X76325855Y55923422D01*
X76177720Y55989991D01*
X76040422Y56083673D01*
X75919190Y56200332D01*
X75833612Y56313026D01*
X75759236Y56455771D01*
X75713478Y56608644D01*
X75696542Y56767604D01*
X75708632Y56928607D01*
X75749955Y57087611D01*
X75789534Y57181750D01*
X75839075Y57262971D01*
X75908989Y57350190D01*
X75991425Y57435541D01*
X76078531Y57511158D01*
X76162455Y57569171D01*
X76192063Y57585054D01*
X76230511Y57603672D01*
X76264994Y57619661D01*
X76298170Y57633238D01*
X76332697Y57644618D01*
X76371232Y57654016D01*
X76416433Y57661648D01*
X76470957Y57667730D01*
X76537462Y57672478D01*
X76618606Y57676106D01*
X76717047Y57678831D01*
X76835441Y57680869D01*
X76976448Y57682434D01*
X77142723Y57683742D01*
X77336926Y57685010D01*
X77431479Y57685608D01*
X78416895Y57691874D01*
X78868062Y58143250D01*
X79319228Y58594625D01*
X77874709Y58594562D01*
G37*
X77874709Y58594562D02*
X77614601Y58594525D01*
X77384092Y58594367D01*
X77181032Y58593981D01*
X77003270Y58593259D01*
X76848654Y58592093D01*
X76715035Y58590375D01*
X76600260Y58587999D01*
X76502180Y58584856D01*
X76418644Y58580840D01*
X76347500Y58575841D01*
X76286599Y58569753D01*
X76233789Y58562469D01*
X76186919Y58553880D01*
X76143838Y58543879D01*
X76102397Y58532358D01*
X76060443Y58519211D01*
X76015827Y58504328D01*
X76006284Y58501096D01*
X75798001Y58414185D01*
X75601691Y58300043D01*
X75420228Y58161668D01*
X75256489Y58002059D01*
X75113348Y57824214D01*
X74993680Y57631132D01*
X74900363Y57425811D01*
X74860646Y57306466D01*
X74809798Y57077642D01*
X74787643Y56844746D01*
X74793829Y56612007D01*
X74828005Y56383651D01*
X74889817Y56163907D01*
X74971905Y55970761D01*
X75087362Y55775222D01*
X75228433Y55593794D01*
X75391354Y55429771D01*
X75572364Y55286447D01*
X75767698Y55167116D01*
X75973594Y55075071D01*
X76009965Y55062173D01*
X76060153Y55045436D01*
X76107305Y55030990D01*
X76154110Y55018668D01*
X76203256Y55008300D01*
X76257431Y54999719D01*
X76319323Y54992757D01*
X76391622Y54987245D01*
X76477015Y54983014D01*
X76578190Y54979897D01*
X76697837Y54977725D01*
X76838643Y54976331D01*
X77003297Y54975545D01*
X77194487Y54975199D01*
X77400642Y54975125D01*
X78406625Y54975125D01*
X78406625Y53165375D01*
X79311500Y53165375D01*
X79311500Y55879038D01*
X76430188Y55887938D01*
X76325855Y55923422D01*
X76177720Y55989991D01*
X76040422Y56083673D01*
X75919190Y56200332D01*
X75833612Y56313026D01*
X75759236Y56455771D01*
X75713478Y56608644D01*
X75696542Y56767604D01*
X75708632Y56928607D01*
X75749955Y57087611D01*
X75789534Y57181750D01*
X75839075Y57262971D01*
X75908989Y57350190D01*
X75991425Y57435541D01*
X76078531Y57511158D01*
X76162455Y57569171D01*
X76192063Y57585054D01*
X76230511Y57603672D01*
X76264994Y57619661D01*
X76298170Y57633238D01*
X76332697Y57644618D01*
X76371232Y57654016D01*
X76416433Y57661648D01*
X76470957Y57667730D01*
X76537462Y57672478D01*
X76618606Y57676106D01*
X76717047Y57678831D01*
X76835441Y57680869D01*
X76976448Y57682434D01*
X77142723Y57683742D01*
X77336926Y57685010D01*
X77431479Y57685608D01*
X78416895Y57691874D01*
X78868062Y58143250D01*
X79319228Y58594625D01*
X77874709Y58594562D01*
%TD*%
M02*
