%TF.GenerationSoftware,KiCad,Pcbnew,(5.1.6-0-10_14)*%
%TF.CreationDate,2021-03-04T16:28:05+01:00*%
%TF.ProjectId,serial_board,73657269-616c-45f6-926f-6172642e6b69,rev?*%
%TF.SameCoordinates,Original*%
%TF.FileFunction,Soldermask,Top*%
%TF.FilePolarity,Negative*%
%FSLAX46Y46*%
G04 Gerber Fmt 4.6, Leading zero omitted, Abs format (unit mm)*
G04 Created by KiCad (PCBNEW (5.1.6-0-10_14)) date 2021-03-04 16:28:05*
%MOMM*%
%LPD*%
G01*
G04 APERTURE LIST*
%ADD10C,1.700000*%
%ADD11R,1.700000X1.700000*%
%ADD12O,1.700000X1.700000*%
%ADD13O,1.800000X1.800000*%
%ADD14R,1.800000X1.800000*%
G04 APERTURE END LIST*
%TO.C,R3*%
G36*
G01*
X53105000Y11205738D02*
X53105000Y12162262D01*
G75*
G02*
X53376738Y12434000I271738J0D01*
G01*
X54083262Y12434000D01*
G75*
G02*
X54355000Y12162262I0J-271738D01*
G01*
X54355000Y11205738D01*
G75*
G02*
X54083262Y10934000I-271738J0D01*
G01*
X53376738Y10934000D01*
G75*
G02*
X53105000Y11205738I0J271738D01*
G01*
G37*
G36*
G01*
X51055000Y11205738D02*
X51055000Y12162262D01*
G75*
G02*
X51326738Y12434000I271738J0D01*
G01*
X52033262Y12434000D01*
G75*
G02*
X52305000Y12162262I0J-271738D01*
G01*
X52305000Y11205738D01*
G75*
G02*
X52033262Y10934000I-271738J0D01*
G01*
X51326738Y10934000D01*
G75*
G02*
X51055000Y11205738I0J271738D01*
G01*
G37*
%TD*%
%TO.C,D2*%
G36*
G01*
X22770000Y37042956D02*
X22770000Y35728044D01*
G75*
G02*
X22502456Y35460500I-267544J0D01*
G01*
X21512544Y35460500D01*
G75*
G02*
X21245000Y35728044I0J267544D01*
G01*
X21245000Y37042956D01*
G75*
G02*
X21512544Y37310500I267544J0D01*
G01*
X22502456Y37310500D01*
G75*
G02*
X22770000Y37042956I0J-267544D01*
G01*
G37*
G36*
G01*
X25745000Y37042956D02*
X25745000Y35728044D01*
G75*
G02*
X25477456Y35460500I-267544J0D01*
G01*
X24487544Y35460500D01*
G75*
G02*
X24220000Y35728044I0J267544D01*
G01*
X24220000Y37042956D01*
G75*
G02*
X24487544Y37310500I267544J0D01*
G01*
X25477456Y37310500D01*
G75*
G02*
X25745000Y37042956I0J-267544D01*
G01*
G37*
%TD*%
%TO.C,D1*%
G36*
G01*
X22770000Y32661456D02*
X22770000Y31346544D01*
G75*
G02*
X22502456Y31079000I-267544J0D01*
G01*
X21512544Y31079000D01*
G75*
G02*
X21245000Y31346544I0J267544D01*
G01*
X21245000Y32661456D01*
G75*
G02*
X21512544Y32929000I267544J0D01*
G01*
X22502456Y32929000D01*
G75*
G02*
X22770000Y32661456I0J-267544D01*
G01*
G37*
G36*
G01*
X25745000Y32661456D02*
X25745000Y31346544D01*
G75*
G02*
X25477456Y31079000I-267544J0D01*
G01*
X24487544Y31079000D01*
G75*
G02*
X24220000Y31346544I0J267544D01*
G01*
X24220000Y32661456D01*
G75*
G02*
X24487544Y32929000I267544J0D01*
G01*
X25477456Y32929000D01*
G75*
G02*
X25745000Y32661456I0J-267544D01*
G01*
G37*
%TD*%
D10*
%TO.C,X1*%
X26543000Y17145000D03*
X26543000Y24765000D03*
X18923000Y24765000D03*
D11*
X18923000Y17145000D03*
%TD*%
D12*
%TO.C,U1*%
X42545000Y29591000D03*
X75565000Y14351000D03*
X45085000Y29591000D03*
X73025000Y14351000D03*
X47625000Y29591000D03*
X70485000Y14351000D03*
X50165000Y29591000D03*
X67945000Y14351000D03*
X52705000Y29591000D03*
X65405000Y14351000D03*
X55245000Y29591000D03*
X62865000Y14351000D03*
X57785000Y29591000D03*
X60325000Y14351000D03*
X60325000Y29591000D03*
X57785000Y14351000D03*
X62865000Y29591000D03*
X55245000Y14351000D03*
X65405000Y29591000D03*
X52705000Y14351000D03*
X67945000Y29591000D03*
X50165000Y14351000D03*
X70485000Y29591000D03*
X47625000Y14351000D03*
X73025000Y29591000D03*
X45085000Y14351000D03*
X75565000Y29591000D03*
D11*
X42545000Y14351000D03*
%TD*%
D13*
%TO.C,J2*%
X39370000Y40513000D03*
X39370000Y43053000D03*
X39370000Y45593000D03*
X39370000Y48133000D03*
X39370000Y50673000D03*
D14*
X39370000Y53213000D03*
%TD*%
D13*
%TO.C,J1*%
X17272000Y4064000D03*
X17272000Y6604000D03*
X19812000Y4064000D03*
X19812000Y6604000D03*
X22352000Y4064000D03*
X22352000Y6604000D03*
X24892000Y4064000D03*
X24892000Y6604000D03*
X27432000Y4064000D03*
X27432000Y6604000D03*
X29972000Y4064000D03*
X29972000Y6604000D03*
X32512000Y4064000D03*
X32512000Y6604000D03*
X35052000Y4064000D03*
X35052000Y6604000D03*
X37592000Y4064000D03*
X37592000Y6604000D03*
X40132000Y4064000D03*
X40132000Y6604000D03*
X42672000Y4064000D03*
X42672000Y6604000D03*
X45212000Y4064000D03*
X45212000Y6604000D03*
X47752000Y4064000D03*
X47752000Y6604000D03*
X50292000Y4064000D03*
X50292000Y6604000D03*
X52832000Y4064000D03*
X52832000Y6604000D03*
X55372000Y4064000D03*
X55372000Y6604000D03*
X57912000Y4064000D03*
X57912000Y6604000D03*
X60452000Y4064000D03*
X60452000Y6604000D03*
X62992000Y4064000D03*
X62992000Y6604000D03*
X65532000Y4064000D03*
X65532000Y6604000D03*
X68072000Y4064000D03*
X68072000Y6604000D03*
X70612000Y4064000D03*
X70612000Y6604000D03*
X73152000Y4064000D03*
X73152000Y6604000D03*
X75692000Y4064000D03*
X75692000Y6604000D03*
X78232000Y4064000D03*
D14*
X78232000Y6604000D03*
%TD*%
M02*
