M48
; DRILL file {KiCad (5.1.6-0-10_14)} date Wednesday, January 13, 2021 at 12:46:57 AM
; FORMAT={-:-/ absolute / inch / decimal}
; #@! TF.CreationDate,2021-01-13T00:46:57+01:00
; #@! TF.GenerationSoftware,Kicad,Pcbnew,(5.1.6-0-10_14)
FMAT,2
INCH
T1C0.0118
T2C0.0157
T3C0.0236
T4C0.0315
T5C0.0335
T6C0.0394
T7C0.0433
T8C0.0866
%
G90
G05
T1
X0.7777Y-1.6667
X0.985Y-1.675
X1.48Y-1.6
X1.48Y-1.665
X1.486Y-2.4765
X1.5283Y-2.7255
X1.5531Y-2.7061
X1.5888Y-2.7147
X1.6007Y-2.6855
X1.6804Y-2.4625
X1.685Y-1.85
X1.6925Y-1.7054
X2.1279Y-2.6057
X2.1537Y-2.1813
X2.1546Y-2.5427
X2.1646Y-1.7054
X2.1646Y-1.85
X2.1792Y-2.6113
X2.19Y-2.4
X2.19Y-2.465
X2.195Y-1.67
X2.395Y-2.325
X2.4Y-2.415
X2.475Y-2.98
X2.5075Y-3.3075
X2.5424Y-3.3076
X2.5546Y-3.05
X2.5855Y-3.3159
X2.5964Y-3.2863
X2.612Y-3.259
X2.639Y-3.239
X2.795Y-3.455
X2.825Y-1.3436
X2.89Y-2.31
X2.8913Y-2.4813
X2.8937Y-2.3813
X2.9Y-3.42
X3.0824Y-2.2849
X3.0824Y-2.3813
X3.0851Y-2.1874
X3.2413Y-1.4813
X3.3154Y-1.695
X3.3354Y-3.2825
X3.3428Y-3.3972
X3.8013Y-2.9737
T2
X0.33Y-1.2264
X0.53Y-3.3675
X0.7Y-1.3436
X1.04Y-1.2264
X1.22Y-3.45
X1.41Y-1.3486
X1.745Y-1.2264
X1.745Y-3.38
X1.945Y-3.38
X2.12Y-1.3486
X2.1325Y-2.8775
X2.145Y-3.38
X2.345Y-3.38
X2.455Y-1.2314
X2.62Y-3.645
X2.62Y-3.795
X2.825Y-1.3436
X3.035Y-2.895
X3.41Y-2.895
X3.465Y-1.39
X3.4831Y-2.6673
X3.535Y-1.3436
X3.545Y-1.935
X3.545Y-2.235
X3.545Y-2.435
X3.5454Y-2.035
X3.5454Y-2.335
X3.5454Y-2.535
X3.55Y-2.135
T4
X0.965Y-3.645
X0.965Y-3.771
X1.0634Y-3.645
X1.0634Y-3.771
X1.1619Y-3.645
X1.1619Y-3.771
X0.42Y-3.375
X0.42Y-3.4734
X2.73Y-2.75
X2.73Y-3.05
X3.03Y-2.75
X3.03Y-3.05
X2.745Y-3.525
X2.745Y-3.825
X2.845Y-3.525
X2.845Y-3.825
X2.945Y-3.525
X2.945Y-3.825
X3.045Y-3.525
X3.045Y-3.825
X3.145Y-3.525
X3.145Y-3.825
X3.245Y-3.525
X3.245Y-3.825
X3.345Y-3.525
X3.345Y-3.825
X3.445Y-3.525
X3.445Y-3.825
X3.545Y-3.525
X3.545Y-3.825
X3.645Y-3.525
X3.645Y-3.825
X3.745Y-3.525
X3.745Y-3.825
X3.845Y-3.525
X3.845Y-3.825
T5
X0.1626Y-3.3816
X0.1626Y-3.5784
T6
X1.8675Y-2.8325
X1.8675Y-2.9325
X1.9675Y-2.8325
X1.9675Y-2.9325
X0.1117Y-0.135
X0.1117Y-0.235
X0.1117Y-0.335
X0.1117Y-0.435
X0.1117Y-0.535
X0.1117Y-0.635
X0.1117Y-0.735
X0.1117Y-0.835
X0.1117Y-0.935
X0.1117Y-1.035
X0.1117Y-1.135
X0.1117Y-1.235
X0.1117Y-1.335
X0.1117Y-1.435
X0.1117Y-1.535
X0.1117Y-1.635
X0.1117Y-1.735
X0.1117Y-1.835
X0.1117Y-1.935
X0.1117Y-2.035
X0.1117Y-2.135
X0.1117Y-2.235
X0.1117Y-2.335
X0.1117Y-2.435
X0.1117Y-2.535
X0.2117Y-0.135
X0.2117Y-0.235
X0.2117Y-0.335
X0.2117Y-0.435
X0.2117Y-0.535
X0.2117Y-0.635
X0.2117Y-0.735
X0.2117Y-0.835
X0.2117Y-0.935
X0.2117Y-1.035
X0.2117Y-1.135
X0.2117Y-1.235
X0.2117Y-1.335
X0.2117Y-1.435
X0.2117Y-1.535
X0.2117Y-1.635
X0.2117Y-1.735
X0.2117Y-1.835
X0.2117Y-1.935
X0.2117Y-2.035
X0.2117Y-2.135
X0.2117Y-2.235
X0.2117Y-2.335
X0.2117Y-2.435
X0.2117Y-2.535
X2.2377Y-0.135
X2.2377Y-0.235
X2.2377Y-0.335
X2.2377Y-0.435
X2.2377Y-0.535
X2.2377Y-0.635
X2.2377Y-0.735
X2.2377Y-0.835
X2.2377Y-0.935
X2.2377Y-1.035
X2.2377Y-1.135
X2.2377Y-1.235
X2.2377Y-1.335
X2.2377Y-1.435
X2.2377Y-1.535
X2.2377Y-1.635
X2.2377Y-1.735
X2.2377Y-1.835
X2.2377Y-1.935
X2.2377Y-2.035
X2.2377Y-2.135
X2.2377Y-2.235
X2.2377Y-2.335
X2.2377Y-2.435
X2.2377Y-2.535
X2.3377Y-0.135
X2.3377Y-0.235
X2.3377Y-0.335
X2.3377Y-0.435
X2.3377Y-0.535
X2.3377Y-0.635
X2.3377Y-0.735
X2.3377Y-0.835
X2.3377Y-0.935
X2.3377Y-1.035
X2.3377Y-1.135
X2.3377Y-1.235
X2.3377Y-1.335
X2.3377Y-1.435
X2.3377Y-1.535
X2.3377Y-1.635
X2.3377Y-1.735
X2.3377Y-1.835
X2.3377Y-1.935
X2.3377Y-2.035
X2.3377Y-2.135
X2.3377Y-2.235
X2.3377Y-2.335
X2.3377Y-2.435
X2.3377Y-2.535
X3.655Y-0.135
X3.655Y-0.235
X3.655Y-0.335
X3.655Y-0.435
X3.655Y-0.535
X3.655Y-0.635
X3.655Y-0.735
X3.655Y-0.835
X3.655Y-0.935
X3.655Y-1.035
X3.655Y-1.135
X3.655Y-1.235
X3.655Y-1.335
X3.655Y-1.435
X3.655Y-1.535
X3.655Y-1.635
X3.655Y-1.735
X3.655Y-1.835
X3.655Y-1.935
X3.655Y-2.035
X3.655Y-2.135
X3.655Y-2.235
X3.655Y-2.335
X3.655Y-2.435
X3.655Y-2.535
X3.755Y-0.135
X3.755Y-0.235
X3.755Y-0.335
X3.755Y-0.435
X3.755Y-0.535
X3.755Y-0.635
X3.755Y-0.735
X3.755Y-0.835
X3.755Y-0.935
X3.755Y-1.035
X3.755Y-1.135
X3.755Y-1.235
X3.755Y-1.335
X3.755Y-1.435
X3.755Y-1.535
X3.755Y-1.635
X3.755Y-1.735
X3.755Y-1.835
X3.755Y-1.935
X3.755Y-2.035
X3.755Y-2.135
X3.755Y-2.235
X3.755Y-2.335
X3.755Y-2.435
X3.755Y-2.535
X0.8204Y-0.135
X0.8204Y-0.235
X0.8204Y-0.335
X0.8204Y-0.435
X0.8204Y-0.535
X0.8204Y-0.635
X0.8204Y-0.735
X0.8204Y-0.835
X0.8204Y-0.935
X0.8204Y-1.035
X0.8204Y-1.135
X0.8204Y-1.235
X0.8204Y-1.335
X0.8204Y-1.435
X0.8204Y-1.535
X0.8204Y-1.635
X0.8204Y-1.735
X0.8204Y-1.835
X0.8204Y-1.935
X0.8204Y-2.035
X0.8204Y-2.135
X0.8204Y-2.235
X0.8204Y-2.335
X0.8204Y-2.435
X0.8204Y-2.535
X0.9204Y-0.135
X0.9204Y-0.235
X0.9204Y-0.335
X0.9204Y-0.435
X0.9204Y-0.535
X0.9204Y-0.635
X0.9204Y-0.735
X0.9204Y-0.835
X0.9204Y-0.935
X0.9204Y-1.035
X0.9204Y-1.135
X0.9204Y-1.235
X0.9204Y-1.335
X0.9204Y-1.435
X0.9204Y-1.535
X0.9204Y-1.635
X0.9204Y-1.735
X0.9204Y-1.835
X0.9204Y-1.935
X0.9204Y-2.035
X0.9204Y-2.135
X0.9204Y-2.235
X0.9204Y-2.335
X0.9204Y-2.435
X0.9204Y-2.535
X1.529Y-0.135
X1.529Y-0.235
X1.529Y-0.335
X1.529Y-0.435
X1.529Y-0.535
X1.529Y-0.635
X1.529Y-0.735
X1.529Y-0.835
X1.529Y-0.935
X1.529Y-1.035
X1.529Y-1.135
X1.529Y-1.235
X1.529Y-1.335
X1.529Y-1.435
X1.529Y-1.535
X1.529Y-1.635
X1.529Y-1.735
X1.529Y-1.835
X1.529Y-1.935
X1.529Y-2.035
X1.529Y-2.135
X1.529Y-2.235
X1.529Y-2.335
X1.529Y-2.435
X1.529Y-2.535
X1.629Y-0.135
X1.629Y-0.235
X1.629Y-0.335
X1.629Y-0.435
X1.629Y-0.535
X1.629Y-0.635
X1.629Y-0.735
X1.629Y-0.835
X1.629Y-0.935
X1.629Y-1.035
X1.629Y-1.135
X1.629Y-1.235
X1.629Y-1.335
X1.629Y-1.435
X1.629Y-1.535
X1.629Y-1.635
X1.629Y-1.735
X1.629Y-1.835
X1.629Y-1.935
X1.629Y-2.035
X1.629Y-2.135
X1.629Y-2.235
X1.629Y-2.335
X1.629Y-2.435
X1.629Y-2.535
X2.9463Y-0.135
X2.9463Y-0.235
X2.9463Y-0.335
X2.9463Y-0.435
X2.9463Y-0.535
X2.9463Y-0.635
X2.9463Y-0.735
X2.9463Y-0.835
X2.9463Y-0.935
X2.9463Y-1.035
X2.9463Y-1.135
X2.9463Y-1.235
X2.9463Y-1.335
X2.9463Y-1.435
X2.9463Y-1.535
X2.9463Y-1.635
X2.9463Y-1.735
X2.9463Y-1.835
X2.9463Y-1.935
X2.9463Y-2.035
X2.9463Y-2.135
X2.9463Y-2.235
X2.9463Y-2.335
X2.9463Y-2.435
X2.9463Y-2.535
X3.0463Y-0.135
X3.0463Y-0.235
X3.0463Y-0.335
X3.0463Y-0.435
X3.0463Y-0.535
X3.0463Y-0.635
X3.0463Y-0.735
X3.0463Y-0.835
X3.0463Y-0.935
X3.0463Y-1.035
X3.0463Y-1.135
X3.0463Y-1.235
X3.0463Y-1.335
X3.0463Y-1.435
X3.0463Y-1.535
X3.0463Y-1.635
X3.0463Y-1.735
X3.0463Y-1.835
X3.0463Y-1.935
X3.0463Y-2.035
X3.0463Y-2.135
X3.0463Y-2.235
X3.0463Y-2.335
X3.0463Y-2.435
X3.0463Y-2.535
T7
X2.1391Y-3.5978
X2.1391Y-3.775
X2.395Y-3.5978
X2.395Y-3.775
X1.6791Y-3.5978
X1.6791Y-3.775
X1.935Y-3.5978
X1.935Y-3.775
T8
X3.45Y-0.145
X3.82Y-3.35
X0.145Y-3.8
X0.39Y-0.15
X1.925Y-1.305
T3
G00X0.0425Y-3.3422
M15
G01X0.0701Y-3.3422
M16
G05
G00X0.0701Y-3.6178
M15
G01X0.0425Y-3.6178
M16
G05
T0
M30
