G04 #@! TF.GenerationSoftware,KiCad,Pcbnew,(5.1.6-0-10_14)*
G04 #@! TF.CreationDate,2021-01-13T00:46:53+01:00*
G04 #@! TF.ProjectId,backplane,6261636b-706c-4616-9e65-2e6b69636164,rev?*
G04 #@! TF.SameCoordinates,Original*
G04 #@! TF.FileFunction,Soldermask,Bot*
G04 #@! TF.FilePolarity,Negative*
%FSLAX46Y46*%
G04 Gerber Fmt 4.6, Leading zero omitted, Abs format (unit mm)*
G04 Created by KiCad (PCBNEW (5.1.6-0-10_14)) date 2021-01-13 00:46:53*
%MOMM*%
%LPD*%
G01*
G04 APERTURE LIST*
%ADD10O,1.800000X1.800000*%
%ADD11R,1.800000X1.800000*%
%ADD12C,1.700000*%
%ADD13R,1.700000X1.700000*%
%ADD14O,2.000000X1.300000*%
%ADD15C,1.550000*%
%ADD16O,1.700000X1.700000*%
%ADD17C,3.900000*%
%ADD18C,2.100000*%
G04 APERTURE END LIST*
D10*
G04 #@! TO.C,J2*
X47434500Y-74485500D03*
X47434500Y-71945500D03*
X49974500Y-74485500D03*
D11*
X49974500Y-71945500D03*
G04 #@! TD*
G04 #@! TO.C,C2*
G36*
G01*
X12804544Y-87720000D02*
X14119456Y-87720000D01*
G75*
G02*
X14387000Y-87987544I0J-267544D01*
G01*
X14387000Y-88977456D01*
G75*
G02*
X14119456Y-89245000I-267544J0D01*
G01*
X12804544Y-89245000D01*
G75*
G02*
X12537000Y-88977456I0J267544D01*
G01*
X12537000Y-87987544D01*
G75*
G02*
X12804544Y-87720000I267544J0D01*
G01*
G37*
G36*
G01*
X12804544Y-84745000D02*
X14119456Y-84745000D01*
G75*
G02*
X14387000Y-85012544I0J-267544D01*
G01*
X14387000Y-86002456D01*
G75*
G02*
X14119456Y-86270000I-267544J0D01*
G01*
X12804544Y-86270000D01*
G75*
G02*
X12537000Y-86002456I0J267544D01*
G01*
X12537000Y-85012544D01*
G75*
G02*
X12804544Y-84745000I267544J0D01*
G01*
G37*
G04 #@! TD*
G04 #@! TO.C,C5*
G36*
G01*
X56351000Y-73809456D02*
X56351000Y-72494544D01*
G75*
G02*
X56618544Y-72227000I267544J0D01*
G01*
X57608456Y-72227000D01*
G75*
G02*
X57876000Y-72494544I0J-267544D01*
G01*
X57876000Y-73809456D01*
G75*
G02*
X57608456Y-74077000I-267544J0D01*
G01*
X56618544Y-74077000D01*
G75*
G02*
X56351000Y-73809456I0J267544D01*
G01*
G37*
G36*
G01*
X53376000Y-73809456D02*
X53376000Y-72494544D01*
G75*
G02*
X53643544Y-72227000I267544J0D01*
G01*
X54633456Y-72227000D01*
G75*
G02*
X54901000Y-72494544I0J-267544D01*
G01*
X54901000Y-73809456D01*
G75*
G02*
X54633456Y-74077000I-267544J0D01*
G01*
X53643544Y-74077000D01*
G75*
G02*
X53376000Y-73809456I0J267544D01*
G01*
G37*
G04 #@! TD*
D12*
G04 #@! TO.C,X1*
X76962000Y-77470000D03*
X76962000Y-69850000D03*
X69342000Y-69850000D03*
D13*
X69342000Y-77470000D03*
G04 #@! TD*
G04 #@! TO.C,C4*
G36*
G01*
X71591000Y-73047456D02*
X71591000Y-71732544D01*
G75*
G02*
X71858544Y-71465000I267544J0D01*
G01*
X72848456Y-71465000D01*
G75*
G02*
X73116000Y-71732544I0J-267544D01*
G01*
X73116000Y-73047456D01*
G75*
G02*
X72848456Y-73315000I-267544J0D01*
G01*
X71858544Y-73315000D01*
G75*
G02*
X71591000Y-73047456I0J267544D01*
G01*
G37*
G36*
G01*
X68616000Y-73047456D02*
X68616000Y-71732544D01*
G75*
G02*
X68883544Y-71465000I267544J0D01*
G01*
X69873456Y-71465000D01*
G75*
G02*
X70141000Y-71732544I0J-267544D01*
G01*
X70141000Y-73047456D01*
G75*
G02*
X69873456Y-73315000I-267544J0D01*
G01*
X68883544Y-73315000D01*
G75*
G02*
X68616000Y-73047456I0J267544D01*
G01*
G37*
G04 #@! TD*
D14*
G04 #@! TO.C,J1*
X1429500Y-91892000D03*
X1429500Y-84892000D03*
D15*
X4129500Y-90892000D03*
X4129500Y-85892000D03*
G04 #@! TD*
G04 #@! TO.C,R14*
G36*
G01*
X89427000Y-39467262D02*
X89427000Y-38510738D01*
G75*
G02*
X89698738Y-38239000I271738J0D01*
G01*
X90405262Y-38239000D01*
G75*
G02*
X90677000Y-38510738I0J-271738D01*
G01*
X90677000Y-39467262D01*
G75*
G02*
X90405262Y-39739000I-271738J0D01*
G01*
X89698738Y-39739000D01*
G75*
G02*
X89427000Y-39467262I0J271738D01*
G01*
G37*
G36*
G01*
X87377000Y-39467262D02*
X87377000Y-38510738D01*
G75*
G02*
X87648738Y-38239000I271738J0D01*
G01*
X88355262Y-38239000D01*
G75*
G02*
X88627000Y-38510738I0J-271738D01*
G01*
X88627000Y-39467262D01*
G75*
G02*
X88355262Y-39739000I-271738J0D01*
G01*
X87648738Y-39739000D01*
G75*
G02*
X87377000Y-39467262I0J271738D01*
G01*
G37*
G04 #@! TD*
D16*
G04 #@! TO.C,U4*
X97663000Y-97155000D03*
X69723000Y-89535000D03*
X95123000Y-97155000D03*
X72263000Y-89535000D03*
X92583000Y-97155000D03*
X74803000Y-89535000D03*
X90043000Y-97155000D03*
X77343000Y-89535000D03*
X87503000Y-97155000D03*
X79883000Y-89535000D03*
X84963000Y-97155000D03*
X82423000Y-89535000D03*
X82423000Y-97155000D03*
X84963000Y-89535000D03*
X79883000Y-97155000D03*
X87503000Y-89535000D03*
X77343000Y-97155000D03*
X90043000Y-89535000D03*
X74803000Y-97155000D03*
X92583000Y-89535000D03*
X72263000Y-97155000D03*
X95123000Y-89535000D03*
X69723000Y-97155000D03*
D13*
X97663000Y-89535000D03*
G04 #@! TD*
G04 #@! TO.C,C14*
G36*
G01*
X95287000Y-93957544D02*
X95287000Y-95272456D01*
G75*
G02*
X95019456Y-95540000I-267544J0D01*
G01*
X94029544Y-95540000D01*
G75*
G02*
X93762000Y-95272456I0J267544D01*
G01*
X93762000Y-93957544D01*
G75*
G02*
X94029544Y-93690000I267544J0D01*
G01*
X95019456Y-93690000D01*
G75*
G02*
X95287000Y-93957544I0J-267544D01*
G01*
G37*
G36*
G01*
X98262000Y-93957544D02*
X98262000Y-95272456D01*
G75*
G02*
X97994456Y-95540000I-267544J0D01*
G01*
X97004544Y-95540000D01*
G75*
G02*
X96737000Y-95272456I0J267544D01*
G01*
X96737000Y-93957544D01*
G75*
G02*
X97004544Y-93690000I267544J0D01*
G01*
X97994456Y-93690000D01*
G75*
G02*
X98262000Y-93957544I0J-267544D01*
G01*
G37*
G04 #@! TD*
G04 #@! TO.C,R13*
G36*
G01*
X59084738Y-87268000D02*
X60041262Y-87268000D01*
G75*
G02*
X60313000Y-87539738I0J-271738D01*
G01*
X60313000Y-88246262D01*
G75*
G02*
X60041262Y-88518000I-271738J0D01*
G01*
X59084738Y-88518000D01*
G75*
G02*
X58813000Y-88246262I0J271738D01*
G01*
X58813000Y-87539738D01*
G75*
G02*
X59084738Y-87268000I271738J0D01*
G01*
G37*
G36*
G01*
X59084738Y-85218000D02*
X60041262Y-85218000D01*
G75*
G02*
X60313000Y-85489738I0J-271738D01*
G01*
X60313000Y-86196262D01*
G75*
G02*
X60041262Y-86468000I-271738J0D01*
G01*
X59084738Y-86468000D01*
G75*
G02*
X58813000Y-86196262I0J271738D01*
G01*
X58813000Y-85489738D01*
G75*
G02*
X59084738Y-85218000I271738J0D01*
G01*
G37*
G04 #@! TD*
G04 #@! TO.C,R12*
G36*
G01*
X54004738Y-87268000D02*
X54961262Y-87268000D01*
G75*
G02*
X55233000Y-87539738I0J-271738D01*
G01*
X55233000Y-88246262D01*
G75*
G02*
X54961262Y-88518000I-271738J0D01*
G01*
X54004738Y-88518000D01*
G75*
G02*
X53733000Y-88246262I0J271738D01*
G01*
X53733000Y-87539738D01*
G75*
G02*
X54004738Y-87268000I271738J0D01*
G01*
G37*
G36*
G01*
X54004738Y-85218000D02*
X54961262Y-85218000D01*
G75*
G02*
X55233000Y-85489738I0J-271738D01*
G01*
X55233000Y-86196262D01*
G75*
G02*
X54961262Y-86468000I-271738J0D01*
G01*
X54004738Y-86468000D01*
G75*
G02*
X53733000Y-86196262I0J271738D01*
G01*
X53733000Y-85489738D01*
G75*
G02*
X54004738Y-85218000I271738J0D01*
G01*
G37*
G04 #@! TD*
G04 #@! TO.C,R11*
G36*
G01*
X48924738Y-87268000D02*
X49881262Y-87268000D01*
G75*
G02*
X50153000Y-87539738I0J-271738D01*
G01*
X50153000Y-88246262D01*
G75*
G02*
X49881262Y-88518000I-271738J0D01*
G01*
X48924738Y-88518000D01*
G75*
G02*
X48653000Y-88246262I0J271738D01*
G01*
X48653000Y-87539738D01*
G75*
G02*
X48924738Y-87268000I271738J0D01*
G01*
G37*
G36*
G01*
X48924738Y-85218000D02*
X49881262Y-85218000D01*
G75*
G02*
X50153000Y-85489738I0J-271738D01*
G01*
X50153000Y-86196262D01*
G75*
G02*
X49881262Y-86468000I-271738J0D01*
G01*
X48924738Y-86468000D01*
G75*
G02*
X48653000Y-86196262I0J271738D01*
G01*
X48653000Y-85489738D01*
G75*
G02*
X48924738Y-85218000I271738J0D01*
G01*
G37*
G04 #@! TD*
G04 #@! TO.C,R10*
G36*
G01*
X43844738Y-87268000D02*
X44801262Y-87268000D01*
G75*
G02*
X45073000Y-87539738I0J-271738D01*
G01*
X45073000Y-88246262D01*
G75*
G02*
X44801262Y-88518000I-271738J0D01*
G01*
X43844738Y-88518000D01*
G75*
G02*
X43573000Y-88246262I0J271738D01*
G01*
X43573000Y-87539738D01*
G75*
G02*
X43844738Y-87268000I271738J0D01*
G01*
G37*
G36*
G01*
X43844738Y-85218000D02*
X44801262Y-85218000D01*
G75*
G02*
X45073000Y-85489738I0J-271738D01*
G01*
X45073000Y-86196262D01*
G75*
G02*
X44801262Y-86468000I-271738J0D01*
G01*
X43844738Y-86468000D01*
G75*
G02*
X43573000Y-86196262I0J271738D01*
G01*
X43573000Y-85489738D01*
G75*
G02*
X43844738Y-85218000I271738J0D01*
G01*
G37*
G04 #@! TD*
D17*
G04 #@! TO.C,REF\u002A\u002A*
X48895000Y-33147000D03*
G04 #@! TD*
G04 #@! TO.C,REF\u002A\u002A*
X3683000Y-96520000D03*
G04 #@! TD*
G04 #@! TO.C,REF\u002A\u002A*
X9906000Y-3810000D03*
G04 #@! TD*
G04 #@! TO.C,REF\u002A\u002A*
X87630000Y-3683000D03*
G04 #@! TD*
G04 #@! TO.C,REF\u002A\u002A*
X97028000Y-85090000D03*
G04 #@! TD*
D18*
G04 #@! TO.C,RESET1*
X54333000Y-95885000D03*
X54333000Y-91385000D03*
X60833000Y-95885000D03*
X60833000Y-91385000D03*
G04 #@! TD*
G04 #@! TO.C,NMI1*
X42649000Y-95885000D03*
X42649000Y-91385000D03*
X49149000Y-95885000D03*
X49149000Y-91385000D03*
G04 #@! TD*
D12*
G04 #@! TO.C,C13*
X10668000Y-88225000D03*
D13*
X10668000Y-85725000D03*
G04 #@! TD*
D12*
G04 #@! TO.C,SW1*
X29511000Y-95783000D03*
X27011000Y-95783000D03*
X24511000Y-95783000D03*
X29511000Y-92583000D03*
X27011000Y-92583000D03*
D13*
X24511000Y-92583000D03*
G04 #@! TD*
D10*
G04 #@! TO.C,SLOT5*
X2837000Y-64389000D03*
X5377000Y-64389000D03*
X2837000Y-61849000D03*
X5377000Y-61849000D03*
X2837000Y-59309000D03*
X5377000Y-59309000D03*
X2837000Y-56769000D03*
X5377000Y-56769000D03*
X2837000Y-54229000D03*
X5377000Y-54229000D03*
X2837000Y-51689000D03*
X5377000Y-51689000D03*
X2837000Y-49149000D03*
X5377000Y-49149000D03*
X2837000Y-46609000D03*
X5377000Y-46609000D03*
X2837000Y-44069000D03*
X5377000Y-44069000D03*
X2837000Y-41529000D03*
X5377000Y-41529000D03*
X2837000Y-38989000D03*
X5377000Y-38989000D03*
X2837000Y-36449000D03*
X5377000Y-36449000D03*
X2837000Y-33909000D03*
X5377000Y-33909000D03*
X2837000Y-31369000D03*
X5377000Y-31369000D03*
X2837000Y-28829000D03*
X5377000Y-28829000D03*
X2837000Y-26289000D03*
X5377000Y-26289000D03*
X2837000Y-23749000D03*
X5377000Y-23749000D03*
X2837000Y-21209000D03*
X5377000Y-21209000D03*
X2837000Y-18669000D03*
X5377000Y-18669000D03*
X2837000Y-16129000D03*
X5377000Y-16129000D03*
X2837000Y-13589000D03*
X5377000Y-13589000D03*
X2837000Y-11049000D03*
X5377000Y-11049000D03*
X2837000Y-8509000D03*
X5377000Y-8509000D03*
X2837000Y-5969000D03*
X5377000Y-5969000D03*
X2837000Y-3429000D03*
D11*
X5377000Y-3429000D03*
G04 #@! TD*
D10*
G04 #@! TO.C,SLOT4*
X20837000Y-64389000D03*
X23377000Y-64389000D03*
X20837000Y-61849000D03*
X23377000Y-61849000D03*
X20837000Y-59309000D03*
X23377000Y-59309000D03*
X20837000Y-56769000D03*
X23377000Y-56769000D03*
X20837000Y-54229000D03*
X23377000Y-54229000D03*
X20837000Y-51689000D03*
X23377000Y-51689000D03*
X20837000Y-49149000D03*
X23377000Y-49149000D03*
X20837000Y-46609000D03*
X23377000Y-46609000D03*
X20837000Y-44069000D03*
X23377000Y-44069000D03*
X20837000Y-41529000D03*
X23377000Y-41529000D03*
X20837000Y-38989000D03*
X23377000Y-38989000D03*
X20837000Y-36449000D03*
X23377000Y-36449000D03*
X20837000Y-33909000D03*
X23377000Y-33909000D03*
X20837000Y-31369000D03*
X23377000Y-31369000D03*
X20837000Y-28829000D03*
X23377000Y-28829000D03*
X20837000Y-26289000D03*
X23377000Y-26289000D03*
X20837000Y-23749000D03*
X23377000Y-23749000D03*
X20837000Y-21209000D03*
X23377000Y-21209000D03*
X20837000Y-18669000D03*
X23377000Y-18669000D03*
X20837000Y-16129000D03*
X23377000Y-16129000D03*
X20837000Y-13589000D03*
X23377000Y-13589000D03*
X20837000Y-11049000D03*
X23377000Y-11049000D03*
X20837000Y-8509000D03*
X23377000Y-8509000D03*
X20837000Y-5969000D03*
X23377000Y-5969000D03*
X20837000Y-3429000D03*
D11*
X23377000Y-3429000D03*
G04 #@! TD*
D10*
G04 #@! TO.C,SLOT3*
X38837000Y-64389000D03*
X41377000Y-64389000D03*
X38837000Y-61849000D03*
X41377000Y-61849000D03*
X38837000Y-59309000D03*
X41377000Y-59309000D03*
X38837000Y-56769000D03*
X41377000Y-56769000D03*
X38837000Y-54229000D03*
X41377000Y-54229000D03*
X38837000Y-51689000D03*
X41377000Y-51689000D03*
X38837000Y-49149000D03*
X41377000Y-49149000D03*
X38837000Y-46609000D03*
X41377000Y-46609000D03*
X38837000Y-44069000D03*
X41377000Y-44069000D03*
X38837000Y-41529000D03*
X41377000Y-41529000D03*
X38837000Y-38989000D03*
X41377000Y-38989000D03*
X38837000Y-36449000D03*
X41377000Y-36449000D03*
X38837000Y-33909000D03*
X41377000Y-33909000D03*
X38837000Y-31369000D03*
X41377000Y-31369000D03*
X38837000Y-28829000D03*
X41377000Y-28829000D03*
X38837000Y-26289000D03*
X41377000Y-26289000D03*
X38837000Y-23749000D03*
X41377000Y-23749000D03*
X38837000Y-21209000D03*
X41377000Y-21209000D03*
X38837000Y-18669000D03*
X41377000Y-18669000D03*
X38837000Y-16129000D03*
X41377000Y-16129000D03*
X38837000Y-13589000D03*
X41377000Y-13589000D03*
X38837000Y-11049000D03*
X41377000Y-11049000D03*
X38837000Y-8509000D03*
X41377000Y-8509000D03*
X38837000Y-5969000D03*
X41377000Y-5969000D03*
X38837000Y-3429000D03*
D11*
X41377000Y-3429000D03*
G04 #@! TD*
D10*
G04 #@! TO.C,SLOT2*
X56837000Y-64389000D03*
X59377000Y-64389000D03*
X56837000Y-61849000D03*
X59377000Y-61849000D03*
X56837000Y-59309000D03*
X59377000Y-59309000D03*
X56837000Y-56769000D03*
X59377000Y-56769000D03*
X56837000Y-54229000D03*
X59377000Y-54229000D03*
X56837000Y-51689000D03*
X59377000Y-51689000D03*
X56837000Y-49149000D03*
X59377000Y-49149000D03*
X56837000Y-46609000D03*
X59377000Y-46609000D03*
X56837000Y-44069000D03*
X59377000Y-44069000D03*
X56837000Y-41529000D03*
X59377000Y-41529000D03*
X56837000Y-38989000D03*
X59377000Y-38989000D03*
X56837000Y-36449000D03*
X59377000Y-36449000D03*
X56837000Y-33909000D03*
X59377000Y-33909000D03*
X56837000Y-31369000D03*
X59377000Y-31369000D03*
X56837000Y-28829000D03*
X59377000Y-28829000D03*
X56837000Y-26289000D03*
X59377000Y-26289000D03*
X56837000Y-23749000D03*
X59377000Y-23749000D03*
X56837000Y-21209000D03*
X59377000Y-21209000D03*
X56837000Y-18669000D03*
X59377000Y-18669000D03*
X56837000Y-16129000D03*
X59377000Y-16129000D03*
X56837000Y-13589000D03*
X59377000Y-13589000D03*
X56837000Y-11049000D03*
X59377000Y-11049000D03*
X56837000Y-8509000D03*
X59377000Y-8509000D03*
X56837000Y-5969000D03*
X59377000Y-5969000D03*
X56837000Y-3429000D03*
D11*
X59377000Y-3429000D03*
G04 #@! TD*
D10*
G04 #@! TO.C,SLOT1*
X74837000Y-64389000D03*
X77377000Y-64389000D03*
X74837000Y-61849000D03*
X77377000Y-61849000D03*
X74837000Y-59309000D03*
X77377000Y-59309000D03*
X74837000Y-56769000D03*
X77377000Y-56769000D03*
X74837000Y-54229000D03*
X77377000Y-54229000D03*
X74837000Y-51689000D03*
X77377000Y-51689000D03*
X74837000Y-49149000D03*
X77377000Y-49149000D03*
X74837000Y-46609000D03*
X77377000Y-46609000D03*
X74837000Y-44069000D03*
X77377000Y-44069000D03*
X74837000Y-41529000D03*
X77377000Y-41529000D03*
X74837000Y-38989000D03*
X77377000Y-38989000D03*
X74837000Y-36449000D03*
X77377000Y-36449000D03*
X74837000Y-33909000D03*
X77377000Y-33909000D03*
X74837000Y-31369000D03*
X77377000Y-31369000D03*
X74837000Y-28829000D03*
X77377000Y-28829000D03*
X74837000Y-26289000D03*
X77377000Y-26289000D03*
X74837000Y-23749000D03*
X77377000Y-23749000D03*
X74837000Y-21209000D03*
X77377000Y-21209000D03*
X74837000Y-18669000D03*
X77377000Y-18669000D03*
X74837000Y-16129000D03*
X77377000Y-16129000D03*
X74837000Y-13589000D03*
X77377000Y-13589000D03*
X74837000Y-11049000D03*
X77377000Y-11049000D03*
X74837000Y-8509000D03*
X77377000Y-8509000D03*
X74837000Y-5969000D03*
X77377000Y-5969000D03*
X74837000Y-3429000D03*
D11*
X77377000Y-3429000D03*
G04 #@! TD*
G04 #@! TO.C,R8*
G36*
G01*
X89427000Y-52167262D02*
X89427000Y-51210738D01*
G75*
G02*
X89698738Y-50939000I271738J0D01*
G01*
X90405262Y-50939000D01*
G75*
G02*
X90677000Y-51210738I0J-271738D01*
G01*
X90677000Y-52167262D01*
G75*
G02*
X90405262Y-52439000I-271738J0D01*
G01*
X89698738Y-52439000D01*
G75*
G02*
X89427000Y-52167262I0J271738D01*
G01*
G37*
G36*
G01*
X87377000Y-52167262D02*
X87377000Y-51210738D01*
G75*
G02*
X87648738Y-50939000I271738J0D01*
G01*
X88355262Y-50939000D01*
G75*
G02*
X88627000Y-51210738I0J-271738D01*
G01*
X88627000Y-52167262D01*
G75*
G02*
X88355262Y-52439000I-271738J0D01*
G01*
X87648738Y-52439000D01*
G75*
G02*
X87377000Y-52167262I0J271738D01*
G01*
G37*
G04 #@! TD*
G04 #@! TO.C,R7*
G36*
G01*
X89427000Y-64867262D02*
X89427000Y-63910738D01*
G75*
G02*
X89698738Y-63639000I271738J0D01*
G01*
X90405262Y-63639000D01*
G75*
G02*
X90677000Y-63910738I0J-271738D01*
G01*
X90677000Y-64867262D01*
G75*
G02*
X90405262Y-65139000I-271738J0D01*
G01*
X89698738Y-65139000D01*
G75*
G02*
X89427000Y-64867262I0J271738D01*
G01*
G37*
G36*
G01*
X87377000Y-64867262D02*
X87377000Y-63910738D01*
G75*
G02*
X87648738Y-63639000I271738J0D01*
G01*
X88355262Y-63639000D01*
G75*
G02*
X88627000Y-63910738I0J-271738D01*
G01*
X88627000Y-64867262D01*
G75*
G02*
X88355262Y-65139000I-271738J0D01*
G01*
X87648738Y-65139000D01*
G75*
G02*
X87377000Y-64867262I0J271738D01*
G01*
G37*
G04 #@! TD*
G04 #@! TO.C,R6*
G36*
G01*
X89418000Y-62327262D02*
X89418000Y-61370738D01*
G75*
G02*
X89689738Y-61099000I271738J0D01*
G01*
X90396262Y-61099000D01*
G75*
G02*
X90668000Y-61370738I0J-271738D01*
G01*
X90668000Y-62327262D01*
G75*
G02*
X90396262Y-62599000I-271738J0D01*
G01*
X89689738Y-62599000D01*
G75*
G02*
X89418000Y-62327262I0J271738D01*
G01*
G37*
G36*
G01*
X87368000Y-62327262D02*
X87368000Y-61370738D01*
G75*
G02*
X87639738Y-61099000I271738J0D01*
G01*
X88346262Y-61099000D01*
G75*
G02*
X88618000Y-61370738I0J-271738D01*
G01*
X88618000Y-62327262D01*
G75*
G02*
X88346262Y-62599000I-271738J0D01*
G01*
X87639738Y-62599000D01*
G75*
G02*
X87368000Y-62327262I0J271738D01*
G01*
G37*
G04 #@! TD*
G04 #@! TO.C,R5*
G36*
G01*
X89427000Y-59787262D02*
X89427000Y-58830738D01*
G75*
G02*
X89698738Y-58559000I271738J0D01*
G01*
X90405262Y-58559000D01*
G75*
G02*
X90677000Y-58830738I0J-271738D01*
G01*
X90677000Y-59787262D01*
G75*
G02*
X90405262Y-60059000I-271738J0D01*
G01*
X89698738Y-60059000D01*
G75*
G02*
X89427000Y-59787262I0J271738D01*
G01*
G37*
G36*
G01*
X87377000Y-59787262D02*
X87377000Y-58830738D01*
G75*
G02*
X87648738Y-58559000I271738J0D01*
G01*
X88355262Y-58559000D01*
G75*
G02*
X88627000Y-58830738I0J-271738D01*
G01*
X88627000Y-59787262D01*
G75*
G02*
X88355262Y-60059000I-271738J0D01*
G01*
X87648738Y-60059000D01*
G75*
G02*
X87377000Y-59787262I0J271738D01*
G01*
G37*
G04 #@! TD*
G04 #@! TO.C,R4*
G36*
G01*
X89418000Y-57247262D02*
X89418000Y-56290738D01*
G75*
G02*
X89689738Y-56019000I271738J0D01*
G01*
X90396262Y-56019000D01*
G75*
G02*
X90668000Y-56290738I0J-271738D01*
G01*
X90668000Y-57247262D01*
G75*
G02*
X90396262Y-57519000I-271738J0D01*
G01*
X89689738Y-57519000D01*
G75*
G02*
X89418000Y-57247262I0J271738D01*
G01*
G37*
G36*
G01*
X87368000Y-57247262D02*
X87368000Y-56290738D01*
G75*
G02*
X87639738Y-56019000I271738J0D01*
G01*
X88346262Y-56019000D01*
G75*
G02*
X88618000Y-56290738I0J-271738D01*
G01*
X88618000Y-57247262D01*
G75*
G02*
X88346262Y-57519000I-271738J0D01*
G01*
X87639738Y-57519000D01*
G75*
G02*
X87368000Y-57247262I0J271738D01*
G01*
G37*
G04 #@! TD*
G04 #@! TO.C,R3*
G36*
G01*
X89427000Y-54707262D02*
X89427000Y-53750738D01*
G75*
G02*
X89698738Y-53479000I271738J0D01*
G01*
X90405262Y-53479000D01*
G75*
G02*
X90677000Y-53750738I0J-271738D01*
G01*
X90677000Y-54707262D01*
G75*
G02*
X90405262Y-54979000I-271738J0D01*
G01*
X89698738Y-54979000D01*
G75*
G02*
X89427000Y-54707262I0J271738D01*
G01*
G37*
G36*
G01*
X87377000Y-54707262D02*
X87377000Y-53750738D01*
G75*
G02*
X87648738Y-53479000I271738J0D01*
G01*
X88355262Y-53479000D01*
G75*
G02*
X88627000Y-53750738I0J-271738D01*
G01*
X88627000Y-54707262D01*
G75*
G02*
X88355262Y-54979000I-271738J0D01*
G01*
X87648738Y-54979000D01*
G75*
G02*
X87377000Y-54707262I0J271738D01*
G01*
G37*
G04 #@! TD*
G04 #@! TO.C,R2*
G36*
G01*
X89427000Y-67280262D02*
X89427000Y-66323738D01*
G75*
G02*
X89698738Y-66052000I271738J0D01*
G01*
X90405262Y-66052000D01*
G75*
G02*
X90677000Y-66323738I0J-271738D01*
G01*
X90677000Y-67280262D01*
G75*
G02*
X90405262Y-67552000I-271738J0D01*
G01*
X89698738Y-67552000D01*
G75*
G02*
X89427000Y-67280262I0J271738D01*
G01*
G37*
G36*
G01*
X87377000Y-67280262D02*
X87377000Y-66323738D01*
G75*
G02*
X87648738Y-66052000I271738J0D01*
G01*
X88355262Y-66052000D01*
G75*
G02*
X88627000Y-66323738I0J-271738D01*
G01*
X88627000Y-67280262D01*
G75*
G02*
X88355262Y-67552000I-271738J0D01*
G01*
X87648738Y-67552000D01*
G75*
G02*
X87377000Y-67280262I0J271738D01*
G01*
G37*
G04 #@! TD*
G04 #@! TO.C,R1*
G36*
G01*
X89427000Y-49627262D02*
X89427000Y-48670738D01*
G75*
G02*
X89698738Y-48399000I271738J0D01*
G01*
X90405262Y-48399000D01*
G75*
G02*
X90677000Y-48670738I0J-271738D01*
G01*
X90677000Y-49627262D01*
G75*
G02*
X90405262Y-49899000I-271738J0D01*
G01*
X89698738Y-49899000D01*
G75*
G02*
X89427000Y-49627262I0J271738D01*
G01*
G37*
G36*
G01*
X87377000Y-49627262D02*
X87377000Y-48670738D01*
G75*
G02*
X87648738Y-48399000I271738J0D01*
G01*
X88355262Y-48399000D01*
G75*
G02*
X88627000Y-48670738I0J-271738D01*
G01*
X88627000Y-49627262D01*
G75*
G02*
X88355262Y-49899000I-271738J0D01*
G01*
X87648738Y-49899000D01*
G75*
G02*
X87377000Y-49627262I0J271738D01*
G01*
G37*
G04 #@! TD*
D10*
G04 #@! TO.C,SLOT0*
X92837000Y-64389000D03*
X95377000Y-64389000D03*
X92837000Y-61849000D03*
X95377000Y-61849000D03*
X92837000Y-59309000D03*
X95377000Y-59309000D03*
X92837000Y-56769000D03*
X95377000Y-56769000D03*
X92837000Y-54229000D03*
X95377000Y-54229000D03*
X92837000Y-51689000D03*
X95377000Y-51689000D03*
X92837000Y-49149000D03*
X95377000Y-49149000D03*
X92837000Y-46609000D03*
X95377000Y-46609000D03*
X92837000Y-44069000D03*
X95377000Y-44069000D03*
X92837000Y-41529000D03*
X95377000Y-41529000D03*
X92837000Y-38989000D03*
X95377000Y-38989000D03*
X92837000Y-36449000D03*
X95377000Y-36449000D03*
X92837000Y-33909000D03*
X95377000Y-33909000D03*
X92837000Y-31369000D03*
X95377000Y-31369000D03*
X92837000Y-28829000D03*
X95377000Y-28829000D03*
X92837000Y-26289000D03*
X95377000Y-26289000D03*
X92837000Y-23749000D03*
X95377000Y-23749000D03*
X92837000Y-21209000D03*
X95377000Y-21209000D03*
X92837000Y-18669000D03*
X95377000Y-18669000D03*
X92837000Y-16129000D03*
X95377000Y-16129000D03*
X92837000Y-13589000D03*
X95377000Y-13589000D03*
X92837000Y-11049000D03*
X95377000Y-11049000D03*
X92837000Y-8509000D03*
X95377000Y-8509000D03*
X92837000Y-5969000D03*
X95377000Y-5969000D03*
X92837000Y-3429000D03*
D11*
X95377000Y-3429000D03*
G04 #@! TD*
M02*
