M48
; DRILL file {KiCad (6.0.2-0)} date Sunday, 21 August 2022 at 14:39:25
; FORMAT={-:-/ absolute / inch / decimal}
; #@! TF.CreationDate,2022-08-21T14:39:25+02:00
; #@! TF.GenerationSoftware,Kicad,Pcbnew,(6.0.2-0)
; #@! TF.FileFunction,MixedPlating,1,2
FMAT,2
INCH
; #@! TA.AperFunction,Plated,PTH,ViaDrill
T1C0.0118
; #@! TA.AperFunction,Plated,PTH,ViaDrill
T2C0.0157
; #@! TA.AperFunction,Plated,PTH,ComponentDrill
T3C0.0315
; #@! TA.AperFunction,Plated,PTH,ComponentDrill
T4C0.0354
; #@! TA.AperFunction,Plated,PTH,ComponentDrill
T5C0.0394
%
G90
G05
T1
X1.53Y0.455
X2.85Y1.09
X2.98Y0.485
X3.02Y0.485
T2
X1.02Y1.33
X1.1157Y0.7257
X1.65Y1.775
X1.7827Y1.8673
X2.25Y1.7785
X2.3Y1.7
X2.6825Y1.7575
X2.725Y1.7575
X2.9Y1.7518
T3
X0.32Y1.53
X0.32Y1.23
X0.42Y1.53
X0.42Y1.23
X0.52Y1.53
X0.52Y1.23
X0.565Y0.8675
X0.565Y0.5675
X0.62Y1.53
X0.62Y1.23
X0.665Y0.8675
X0.665Y0.5675
X0.72Y1.53
X0.72Y1.23
X0.765Y0.8675
X0.765Y0.5675
X0.82Y1.53
X0.82Y1.23
X0.865Y0.8675
X0.865Y0.5675
X0.92Y1.53
X0.92Y1.23
X0.965Y0.8675
X0.965Y0.5675
X0.97Y0.45
X1.02Y1.53
X1.02Y1.23
X1.065Y0.8675
X1.065Y0.5675
X1.14Y1.41
X1.14Y1.2131
X1.165Y0.8675
X1.165Y0.5675
X1.1669Y0.45
X1.34Y1.515
X1.34Y1.215
X1.44Y1.515
X1.44Y1.215
X1.54Y1.515
X1.54Y1.215
X1.64Y1.515
X1.64Y1.215
X1.74Y1.515
X1.74Y1.215
X1.84Y1.515
X1.84Y1.215
X1.94Y1.515
X1.94Y1.215
X2.0Y2.1969
X2.0Y2.0
X2.04Y1.515
X2.04Y1.215
X2.16Y1.4
X2.16Y1.2031
X2.2825Y1.51
X2.2825Y1.21
X2.3825Y1.51
X2.3825Y1.21
X2.4825Y1.51
X2.4825Y1.21
X2.5825Y1.51
X2.5825Y1.21
X2.6Y1.7
X2.6825Y1.51
X2.6825Y1.21
X2.78Y1.09
X2.7825Y1.51
X2.7825Y1.21
X2.8825Y1.51
X2.8825Y1.21
X2.9769Y1.09
X2.9825Y1.51
X2.9825Y1.21
X3.0Y1.7
T4
X1.5781Y2.075
X1.6766Y2.2719
X1.775Y2.075
T5
X0.68Y0.26
X0.68Y0.16
X0.78Y0.26
X0.78Y0.16
X0.88Y0.26
X0.88Y0.16
X0.98Y0.26
X0.98Y0.16
X1.08Y0.26
X1.08Y0.16
X1.18Y0.26
X1.18Y0.16
X1.28Y0.26
X1.28Y0.16
X1.38Y0.26
X1.38Y0.16
X1.48Y0.26
X1.48Y0.16
X1.58Y0.26
X1.58Y0.16
X1.68Y0.26
X1.68Y0.16
X1.78Y0.26
X1.78Y0.16
X1.88Y0.26
X1.88Y0.16
X1.98Y0.26
X1.98Y0.16
X2.08Y0.26
X2.08Y0.16
X2.18Y0.26
X2.18Y0.16
X2.2Y1.975
X2.2Y1.875
X2.28Y0.26
X2.28Y0.16
X2.3Y1.975
X2.3Y1.875
X2.38Y0.26
X2.38Y0.16
X2.4Y1.975
X2.4Y1.875
X2.48Y0.26
X2.48Y0.16
X2.5Y1.975
X2.5Y1.875
X2.58Y0.26
X2.58Y0.16
X2.6Y1.975
X2.6Y1.875
X2.68Y0.26
X2.68Y0.16
X2.7Y1.975
X2.7Y1.875
X2.78Y0.26
X2.78Y0.16
X2.8Y1.975
X2.8Y1.875
X2.88Y0.26
X2.88Y0.16
X2.9Y1.975
X2.9Y1.875
X2.98Y0.26
X2.98Y0.16
X3.0Y1.975
X3.0Y1.875
X3.08Y0.26
X3.08Y0.16
T0
M30
