%TF.GenerationSoftware,KiCad,Pcbnew,(6.0.2-0)*%
%TF.CreationDate,2022-08-21T14:39:21+02:00*%
%TF.ProjectId,lcd_board,6c63645f-626f-4617-9264-2e6b69636164,rev?*%
%TF.SameCoordinates,Original*%
%TF.FileFunction,Copper,L1,Top*%
%TF.FilePolarity,Positive*%
%FSLAX46Y46*%
G04 Gerber Fmt 4.6, Leading zero omitted, Abs format (unit mm)*
G04 Created by KiCad (PCBNEW (6.0.2-0)) date 2022-08-21 14:39:21*
%MOMM*%
%LPD*%
G01*
G04 APERTURE LIST*
%TA.AperFunction,ComponentPad*%
%ADD10R,1.700000X1.700000*%
%TD*%
%TA.AperFunction,ComponentPad*%
%ADD11O,1.700000X1.700000*%
%TD*%
%TA.AperFunction,ComponentPad*%
%ADD12C,1.600000*%
%TD*%
%TA.AperFunction,ComponentPad*%
%ADD13O,1.600000X1.600000*%
%TD*%
%TA.AperFunction,ComponentPad*%
%ADD14C,1.620000*%
%TD*%
%TA.AperFunction,ComponentPad*%
%ADD15R,1.600000X1.600000*%
%TD*%
%TA.AperFunction,ViaPad*%
%ADD16C,0.800000*%
%TD*%
%TA.AperFunction,ViaPad*%
%ADD17C,0.600000*%
%TD*%
%TA.AperFunction,Conductor*%
%ADD18C,1.000000*%
%TD*%
%TA.AperFunction,Conductor*%
%ADD19C,0.250000*%
%TD*%
%TA.AperFunction,Conductor*%
%ADD20C,0.500000*%
%TD*%
G04 APERTURE END LIST*
D10*
%TO.P,J1,1,Pin_1*%
%TO.N,A0*%
X78232000Y6604000D03*
D11*
%TO.P,J1,2,Pin_2*%
%TO.N,D0*%
X78232000Y4064000D03*
%TO.P,J1,3,Pin_3*%
%TO.N,A1*%
X75692000Y6604000D03*
%TO.P,J1,4,Pin_4*%
%TO.N,D1*%
X75692000Y4064000D03*
%TO.P,J1,5,Pin_5*%
%TO.N,A2*%
X73152000Y6604000D03*
%TO.P,J1,6,Pin_6*%
%TO.N,D2*%
X73152000Y4064000D03*
%TO.P,J1,7,Pin_7*%
%TO.N,A3*%
X70612000Y6604000D03*
%TO.P,J1,8,Pin_8*%
%TO.N,D3*%
X70612000Y4064000D03*
%TO.P,J1,9,Pin_9*%
%TO.N,A4*%
X68072000Y6604000D03*
%TO.P,J1,10,Pin_10*%
%TO.N,D4*%
X68072000Y4064000D03*
%TO.P,J1,11,Pin_11*%
%TO.N,A5*%
X65532000Y6604000D03*
%TO.P,J1,12,Pin_12*%
%TO.N,D5*%
X65532000Y4064000D03*
%TO.P,J1,13,Pin_13*%
%TO.N,A6*%
X62992000Y6604000D03*
%TO.P,J1,14,Pin_14*%
%TO.N,D6*%
X62992000Y4064000D03*
%TO.P,J1,15,Pin_15*%
%TO.N,A7*%
X60452000Y6604000D03*
%TO.P,J1,16,Pin_16*%
%TO.N,D7*%
X60452000Y4064000D03*
%TO.P,J1,17,Pin_17*%
%TO.N,A8*%
X57912000Y6604000D03*
%TO.P,J1,18,Pin_18*%
%TO.N,EX0*%
X57912000Y4064000D03*
%TO.P,J1,19,Pin_19*%
%TO.N,A9*%
X55372000Y6604000D03*
%TO.P,J1,20,Pin_20*%
%TO.N,EX1*%
X55372000Y4064000D03*
%TO.P,J1,21,Pin_21*%
%TO.N,A10*%
X52832000Y6604000D03*
%TO.P,J1,22,Pin_22*%
%TO.N,~{SLOW}*%
X52832000Y4064000D03*
%TO.P,J1,23,Pin_23*%
%TO.N,GND*%
X50292000Y6604000D03*
%TO.P,J1,24,Pin_24*%
%TO.N,+5V*%
X50292000Y4064000D03*
%TO.P,J1,25,Pin_25*%
X47752000Y6604000D03*
%TO.P,J1,26,Pin_26*%
%TO.N,GND*%
X47752000Y4064000D03*
%TO.P,J1,27,Pin_27*%
%TO.N,A11*%
X45212000Y6604000D03*
%TO.P,J1,28,Pin_28*%
%TO.N,~{SSEL}*%
X45212000Y4064000D03*
%TO.P,J1,29,Pin_29*%
%TO.N,A12*%
X42672000Y6604000D03*
%TO.P,J1,30,Pin_30*%
%TO.N,~{INH}*%
X42672000Y4064000D03*
%TO.P,J1,31,Pin_31*%
%TO.N,A13*%
X40132000Y6604000D03*
%TO.P,J1,32,Pin_32*%
%TO.N,~{SLOT_SEL}*%
X40132000Y4064000D03*
%TO.P,J1,33,Pin_33*%
%TO.N,A14*%
X37592000Y6604000D03*
%TO.P,J1,34,Pin_34*%
%TO.N,LED1*%
X37592000Y4064000D03*
%TO.P,J1,35,Pin_35*%
%TO.N,A15*%
X35052000Y6604000D03*
%TO.P,J1,36,Pin_36*%
%TO.N,LED2*%
X35052000Y4064000D03*
%TO.P,J1,37,Pin_37*%
%TO.N,RDY*%
X32512000Y6604000D03*
%TO.P,J1,38,Pin_38*%
%TO.N,LED3*%
X32512000Y4064000D03*
%TO.P,J1,39,Pin_39*%
%TO.N,BE*%
X29972000Y6604000D03*
%TO.P,J1,40,Pin_40*%
%TO.N,LED4*%
X29972000Y4064000D03*
%TO.P,J1,41,Pin_41*%
%TO.N,CLK*%
X27432000Y6604000D03*
%TO.P,J1,42,Pin_42*%
%TO.N,CLK_12M*%
X27432000Y4064000D03*
%TO.P,J1,43,Pin_43*%
%TO.N,R~{W}*%
X24892000Y6604000D03*
%TO.P,J1,44,Pin_44*%
%TO.N,EX2*%
X24892000Y4064000D03*
%TO.P,J1,45,Pin_45*%
%TO.N,~{IRQ}*%
X22352000Y6604000D03*
%TO.P,J1,46,Pin_46*%
%TO.N,EX3*%
X22352000Y4064000D03*
%TO.P,J1,47,Pin_47*%
%TO.N,SYNC*%
X19812000Y6604000D03*
%TO.P,J1,48,Pin_48*%
%TO.N,~{SLOT_IRQ}*%
X19812000Y4064000D03*
%TO.P,J1,49,Pin_49*%
%TO.N,~{RESET}*%
X17272000Y6604000D03*
%TO.P,J1,50,Pin_50*%
%TO.N,~{NMI}*%
X17272000Y4064000D03*
%TD*%
D12*
%TO.P,C1,1*%
%TO.N,GND*%
X24638000Y11430000D03*
%TO.P,C1,2*%
%TO.N,+5V*%
X29638000Y11430000D03*
%TD*%
%TO.P,C2,1*%
%TO.N,GND*%
X28956000Y35814000D03*
%TO.P,C2,2*%
%TO.N,+5V*%
X28956000Y30814000D03*
%TD*%
%TO.P,C4,1*%
%TO.N,GND*%
X54864000Y35560000D03*
%TO.P,C4,2*%
%TO.N,+5V*%
X54864000Y30560000D03*
%TD*%
%TO.P,R1,1*%
%TO.N,+5V*%
X66040000Y43180000D03*
D13*
%TO.P,R1,2*%
%TO.N,/A*%
X76200000Y43180000D03*
%TD*%
D14*
%TO.P,RV1,1,1*%
%TO.N,+5V*%
X45085000Y52705000D03*
%TO.P,RV1,2,2*%
%TO.N,Net-(RV1-Pad2)*%
X42585000Y57705000D03*
%TO.P,RV1,3,3*%
%TO.N,GND*%
X40085000Y52705000D03*
%TD*%
D15*
%TO.P,U1,1*%
%TO.N,CLK*%
X29591000Y22034500D03*
D13*
%TO.P,U1,2*%
%TO.N,CLK_INV*%
X27051000Y22034500D03*
%TO.P,U1,3*%
%TO.N,GND*%
X24511000Y22034500D03*
%TO.P,U1,4*%
%TO.N,unconnected-(U1-Pad4)*%
X21971000Y22034500D03*
%TO.P,U1,5*%
%TO.N,GND*%
X19431000Y22034500D03*
%TO.P,U1,6*%
%TO.N,unconnected-(U1-Pad6)*%
X16891000Y22034500D03*
%TO.P,U1,7,GND*%
%TO.N,GND*%
X14351000Y22034500D03*
%TO.P,U1,8*%
%TO.N,unconnected-(U1-Pad8)*%
X14351000Y14414500D03*
%TO.P,U1,9*%
%TO.N,GND*%
X16891000Y14414500D03*
%TO.P,U1,10*%
%TO.N,unconnected-(U1-Pad10)*%
X19431000Y14414500D03*
%TO.P,U1,11*%
%TO.N,GND*%
X21971000Y14414500D03*
%TO.P,U1,12*%
%TO.N,unconnected-(U1-Pad12)*%
X24511000Y14414500D03*
%TO.P,U1,13*%
%TO.N,GND*%
X27051000Y14414500D03*
%TO.P,U1,14,VCC*%
%TO.N,+5V*%
X29591000Y14414500D03*
%TD*%
D15*
%TO.P,U2,1,Oe1*%
%TO.N,GND*%
X75755500Y38354000D03*
D13*
%TO.P,U2,2,Oe2*%
X73215500Y38354000D03*
%TO.P,U2,3,Q0*%
%TO.N,/RS*%
X70675500Y38354000D03*
%TO.P,U2,4,Q1*%
%TO.N,/E1*%
X68135500Y38354000D03*
%TO.P,U2,5,Q2*%
%TO.N,Net-(U2-Pad5)*%
X65595500Y38354000D03*
%TO.P,U2,6,Q3*%
%TO.N,unconnected-(U2-Pad6)*%
X63055500Y38354000D03*
%TO.P,U2,7,Cp*%
%TO.N,CLK_INV*%
X60515500Y38354000D03*
%TO.P,U2,8,GND*%
%TO.N,GND*%
X57975500Y38354000D03*
%TO.P,U2,9,E1*%
%TO.N,~{SLOT_SEL}*%
X57975500Y30734000D03*
%TO.P,U2,10,E2*%
X60515500Y30734000D03*
%TO.P,U2,11,D3*%
%TO.N,unconnected-(U2-Pad11)*%
X63055500Y30734000D03*
%TO.P,U2,12,D2*%
%TO.N,unconnected-(U2-Pad12)*%
X65595500Y30734000D03*
%TO.P,U2,13,D1*%
%TO.N,A0*%
X68135500Y30734000D03*
%TO.P,U2,14,D0*%
%TO.N,A1*%
X70675500Y30734000D03*
%TO.P,U2,15,Mr*%
%TO.N,GND*%
X73215500Y30734000D03*
%TO.P,U2,16,VCC*%
%TO.N,+5V*%
X75755500Y30734000D03*
%TD*%
D15*
%TO.P,U3,1,Oe1*%
%TO.N,GND*%
X51816000Y38481000D03*
D13*
%TO.P,U3,2,Oe2*%
X49276000Y38481000D03*
%TO.P,U3,3,Q0*%
%TO.N,/D_0*%
X46736000Y38481000D03*
%TO.P,U3,4,Q1*%
%TO.N,/D_1*%
X44196000Y38481000D03*
%TO.P,U3,5,Q2*%
%TO.N,/D_2*%
X41656000Y38481000D03*
%TO.P,U3,6,Q3*%
%TO.N,/D_3*%
X39116000Y38481000D03*
%TO.P,U3,7,Cp*%
%TO.N,CLK_INV*%
X36576000Y38481000D03*
%TO.P,U3,8,GND*%
%TO.N,GND*%
X34036000Y38481000D03*
%TO.P,U3,9,E1*%
%TO.N,~{SLOT_SEL}*%
X34036000Y30861000D03*
%TO.P,U3,10,E2*%
X36576000Y30861000D03*
%TO.P,U3,11,D3*%
%TO.N,D3*%
X39116000Y30861000D03*
%TO.P,U3,12,D2*%
%TO.N,D2*%
X41656000Y30861000D03*
%TO.P,U3,13,D1*%
%TO.N,D1*%
X44196000Y30861000D03*
%TO.P,U3,14,D0*%
%TO.N,D0*%
X46736000Y30861000D03*
%TO.P,U3,15,Mr*%
%TO.N,GND*%
X49276000Y30861000D03*
%TO.P,U3,16,VCC*%
%TO.N,+5V*%
X51816000Y30861000D03*
%TD*%
D15*
%TO.P,U4,1,Oe1*%
%TO.N,GND*%
X25908000Y38862000D03*
D13*
%TO.P,U4,2,Oe2*%
X23368000Y38862000D03*
%TO.P,U4,3,Q0*%
%TO.N,/D_4*%
X20828000Y38862000D03*
%TO.P,U4,4,Q1*%
%TO.N,/D_5*%
X18288000Y38862000D03*
%TO.P,U4,5,Q2*%
%TO.N,/D_6*%
X15748000Y38862000D03*
%TO.P,U4,6,Q3*%
%TO.N,/D_7*%
X13208000Y38862000D03*
%TO.P,U4,7,Cp*%
%TO.N,CLK_INV*%
X10668000Y38862000D03*
%TO.P,U4,8,GND*%
%TO.N,GND*%
X8128000Y38862000D03*
%TO.P,U4,9,E1*%
%TO.N,~{SLOT_SEL}*%
X8128000Y31242000D03*
%TO.P,U4,10,E2*%
X10668000Y31242000D03*
%TO.P,U4,11,D3*%
%TO.N,D7*%
X13208000Y31242000D03*
%TO.P,U4,12,D2*%
%TO.N,D6*%
X15748000Y31242000D03*
%TO.P,U4,13,D1*%
%TO.N,D5*%
X18288000Y31242000D03*
%TO.P,U4,14,D0*%
%TO.N,D4*%
X20828000Y31242000D03*
%TO.P,U4,15,Mr*%
%TO.N,GND*%
X23368000Y31242000D03*
%TO.P,U4,16,VCC*%
%TO.N,+5V*%
X25908000Y31242000D03*
%TD*%
D12*
%TO.P,C5,1*%
%TO.N,GND*%
X50800000Y50800000D03*
%TO.P,C5,2*%
%TO.N,+5V*%
X50800000Y55800000D03*
%TD*%
%TO.P,C3,1*%
%TO.N,GND*%
X70612000Y27686000D03*
%TO.P,C3,2*%
%TO.N,+5V*%
X75612000Y27686000D03*
%TD*%
D10*
%TO.P,J2,1,Pin_1*%
%TO.N,/D_7*%
X55880000Y47625000D03*
D11*
%TO.P,J2,2,Pin_2*%
%TO.N,/D_6*%
X55880000Y50165000D03*
%TO.P,J2,3,Pin_3*%
%TO.N,/D_5*%
X58420000Y47625000D03*
%TO.P,J2,4,Pin_4*%
%TO.N,/D_4*%
X58420000Y50165000D03*
%TO.P,J2,5,Pin_5*%
%TO.N,/D_3*%
X60960000Y47625000D03*
%TO.P,J2,6,Pin_6*%
%TO.N,/D_2*%
X60960000Y50165000D03*
%TO.P,J2,7,Pin_7*%
%TO.N,/D_1*%
X63500000Y47625000D03*
%TO.P,J2,8,Pin_8*%
%TO.N,/D_0*%
X63500000Y50165000D03*
%TO.P,J2,9,Pin_9*%
%TO.N,/E1*%
X66040000Y47625000D03*
%TO.P,J2,10,Pin_10*%
%TO.N,GND*%
X66040000Y50165000D03*
%TO.P,J2,11,Pin_11*%
%TO.N,/RS*%
X68580000Y47625000D03*
%TO.P,J2,12,Pin_12*%
%TO.N,Net-(RV1-Pad2)*%
X68580000Y50165000D03*
%TO.P,J2,13,Pin_13*%
%TO.N,GND*%
X71120000Y47625000D03*
%TO.P,J2,14,Pin_14*%
%TO.N,+5V*%
X71120000Y50165000D03*
%TO.P,J2,15,Pin_15*%
%TO.N,Net-(U2-Pad5)*%
X73660000Y47625000D03*
%TO.P,J2,16,Pin_16*%
%TO.N,unconnected-(J2-Pad16)*%
X73660000Y50165000D03*
%TO.P,J2,17,Pin_17*%
%TO.N,/A*%
X76200000Y47625000D03*
%TO.P,J2,18,Pin_18*%
%TO.N,GND*%
X76200000Y50165000D03*
%TD*%
D16*
%TO.N,+5V*%
X25908000Y33782000D03*
D17*
%TO.N,A1*%
X75692000Y12319000D03*
X72390000Y27686000D03*
%TO.N,A0*%
X76708000Y12319000D03*
D16*
%TO.N,CLK*%
X28339999Y18433999D03*
D17*
%TO.N,~{SLOT_SEL}*%
X38862000Y11556998D03*
D16*
%TO.N,/E1*%
X68135500Y44640500D03*
%TO.N,Net-(U2-Pad5)*%
X73660000Y44495011D03*
%TO.N,/RS*%
X69215000Y44640500D03*
%TO.N,/D_7*%
X45279799Y47430201D03*
%TO.N,/D_4*%
X41910000Y45085000D03*
%TO.N,/D_2*%
X57150000Y45174500D03*
%TO.N,/D_0*%
X58420000Y43180000D03*
%TD*%
D18*
%TO.N,GND*%
X48995000Y30580000D02*
X49276000Y30861000D01*
X26770000Y14133500D02*
X27051000Y14414500D01*
%TO.N,+5V*%
X75755500Y27829500D02*
X75755500Y30734000D01*
X50292000Y4064000D02*
X47752000Y6604000D01*
X29745000Y14260500D02*
X29591000Y14414500D01*
X75612000Y27686000D02*
X75755500Y27829500D01*
X52117000Y30560000D02*
X51816000Y30861000D01*
X29745000Y11620500D02*
X29745000Y14260500D01*
X54864000Y30560000D02*
X52117000Y30560000D01*
X28528000Y31242000D02*
X25908000Y31242000D01*
X28956000Y30814000D02*
X28528000Y31242000D01*
D19*
%TO.N,D7*%
X16573500Y27876500D02*
X13208000Y31242000D01*
X59276999Y5239001D02*
X57117999Y5239001D01*
X35838502Y27876500D02*
X16573500Y27876500D01*
X60452000Y4064000D02*
X59276999Y5239001D01*
X56547001Y5809999D02*
X56547001Y7168001D01*
X56547001Y7168001D02*
X35838502Y27876500D01*
X57117999Y5239001D02*
X56547001Y5809999D01*
%TO.N,D6*%
X61627001Y5428999D02*
X59887999Y5428999D01*
X37928491Y28326511D02*
X18663489Y28326511D01*
X59087001Y6229997D02*
X59087001Y7168001D01*
X59087001Y7168001D02*
X37928491Y28326511D01*
X62992000Y4064000D02*
X61627001Y5428999D01*
X18663489Y28326511D02*
X15748000Y31242000D01*
X59887999Y5428999D02*
X59087001Y6229997D01*
%TO.N,D5*%
X65532000Y4064000D02*
X64167001Y5428999D01*
X62427999Y5428999D02*
X61627001Y6229997D01*
X61627001Y7168001D02*
X40018480Y28776522D01*
X20753478Y28776522D02*
X18288000Y31242000D01*
X40018480Y28776522D02*
X20753478Y28776522D01*
X64167001Y5428999D02*
X62427999Y5428999D01*
X61627001Y6229997D02*
X61627001Y7168001D01*
%TO.N,D4*%
X44533902Y24897511D02*
X40204880Y29226533D01*
X22843467Y29226533D02*
X20828000Y31242000D01*
X66707001Y5428999D02*
X64967999Y5428999D01*
X64167001Y7168001D02*
X46437491Y24897511D01*
X46437491Y24897511D02*
X44533902Y24897511D01*
X64167001Y6229997D02*
X64167001Y7168001D01*
X68072000Y4064000D02*
X66707001Y5428999D01*
X64967999Y5428999D02*
X64167001Y6229997D01*
X40204880Y29226533D02*
X22843467Y29226533D01*
%TO.N,D3*%
X48527480Y25347522D02*
X44720302Y25347522D01*
X70612000Y4064000D02*
X69247001Y5428999D01*
X66707001Y7168001D02*
X48527480Y25347522D01*
X69247001Y5428999D02*
X67507999Y5428999D01*
X44720302Y25347522D02*
X39206824Y30861000D01*
X39206824Y30861000D02*
X39116000Y30861000D01*
X67507999Y5428999D02*
X66707001Y6229997D01*
X66707001Y6229997D02*
X66707001Y7168001D01*
%TO.N,D2*%
X69436999Y6978003D02*
X50570502Y25844500D01*
X46672500Y25844500D02*
X41656000Y30861000D01*
X50570502Y25844500D02*
X46672500Y25844500D01*
X70986003Y5428999D02*
X70047999Y5428999D01*
X73152000Y4064000D02*
X72351002Y4064000D01*
X72351002Y4064000D02*
X70986003Y5428999D01*
X69436999Y6039999D02*
X69436999Y6978003D01*
X70047999Y5428999D02*
X69436999Y6039999D01*
%TO.N,D1*%
X48635489Y26294511D02*
X44196000Y30734000D01*
X71787001Y7168001D02*
X52660491Y26294511D01*
X44196000Y30734000D02*
X44196000Y30861000D01*
X74516999Y5239001D02*
X72548499Y5239001D01*
X52660491Y26294511D02*
X48635489Y26294511D01*
X72548499Y5239001D02*
X71787001Y6000499D01*
X75692000Y4064000D02*
X74516999Y5239001D01*
X71787001Y6000499D02*
X71787001Y7168001D01*
%TO.N,A1*%
X75692000Y12319000D02*
X72390000Y15621000D01*
X72390000Y15621000D02*
X72390000Y27686000D01*
%TO.N,D0*%
X74516999Y6978003D02*
X54691512Y26803490D01*
X78232000Y4064000D02*
X76867001Y5428999D01*
X76867001Y5428999D02*
X75127999Y5428999D01*
X54691512Y26803490D02*
X50793510Y26803490D01*
X50793510Y26803490D02*
X46736000Y30861000D01*
X74516999Y6039999D02*
X74516999Y6978003D01*
X75127999Y5428999D02*
X74516999Y6039999D01*
%TO.N,A0*%
X71537004Y29464000D02*
X73152000Y27849004D01*
X73152000Y27849004D02*
X73152000Y15875000D01*
X73152000Y15875000D02*
X76708000Y12319000D01*
X69405500Y29464000D02*
X71537004Y29464000D01*
X68135500Y30734000D02*
X69405500Y29464000D01*
D20*
%TO.N,CLK*%
X28339999Y18433999D02*
X28339999Y7511999D01*
X28339999Y7511999D02*
X27432000Y6604000D01*
%TO.N,~{SLOT_SEL}*%
X10668000Y31242000D02*
X14732000Y27178000D01*
X56598499Y32111001D02*
X57975500Y30734000D01*
X12001500Y32575500D02*
X32321500Y32575500D01*
X38862000Y16065500D02*
X38862000Y11556998D01*
X32321500Y32575500D02*
X34036000Y30861000D01*
X34036000Y30861000D02*
X36576000Y30861000D01*
X27749500Y27178000D02*
X38862000Y16065500D01*
X57975500Y30734000D02*
X60515500Y30734000D01*
X36576000Y30861000D02*
X37826001Y32111001D01*
X14732000Y27178000D02*
X27749500Y27178000D01*
X8128000Y31242000D02*
X10668000Y31242000D01*
X37826001Y32111001D02*
X56598499Y32111001D01*
X10668000Y31242000D02*
X12001500Y32575500D01*
D19*
%TO.N,/E1*%
X68135500Y44640500D02*
X68135500Y38354000D01*
%TO.N,Net-(RV1-Pad2)*%
X61040000Y57705000D02*
X68580000Y50165000D01*
X42585000Y57705000D02*
X61040000Y57705000D01*
D20*
%TO.N,CLK_INV*%
X14235497Y23284501D02*
X25800999Y23284501D01*
X35179000Y37084000D02*
X12446000Y37084000D01*
X37953001Y37103999D02*
X59265499Y37103999D01*
X6877999Y35071999D02*
X6877999Y30641999D01*
X25800999Y23284501D02*
X27051000Y22034500D01*
X59265499Y37103999D02*
X60515500Y38354000D01*
X36576000Y38481000D02*
X35179000Y37084000D01*
X6877999Y30641999D02*
X14235497Y23284501D01*
X12446000Y37084000D02*
X10668000Y38862000D01*
X36576000Y38481000D02*
X37953001Y37103999D01*
X10668000Y38862000D02*
X6877999Y35071999D01*
D19*
%TO.N,Net-(U2-Pad5)*%
X71141289Y37229489D02*
X71800011Y37888211D01*
X66720011Y37229489D02*
X71141289Y37229489D01*
X65595500Y38354000D02*
X66720011Y37229489D01*
X71800011Y37888211D02*
X71800011Y42635022D01*
X71800011Y42635022D02*
X73660000Y44495011D01*
D18*
%TO.N,/A*%
X76200000Y43180000D02*
X76200000Y47625000D01*
D19*
%TO.N,/RS*%
X70675500Y38354000D02*
X70675500Y43180000D01*
X70675500Y43180000D02*
X69215000Y44640500D01*
%TO.N,/D_7*%
X21776201Y47430201D02*
X45279799Y47430201D01*
X13208000Y38862000D02*
X21776201Y47430201D01*
%TO.N,/D_6*%
X23591700Y46705700D02*
X15748000Y38862000D01*
X55880000Y50165000D02*
X52420700Y46705700D01*
X52420700Y46705700D02*
X23591700Y46705700D01*
%TO.N,/D_5*%
X25682190Y46256190D02*
X56571386Y46256190D01*
X56571386Y46256190D02*
X56663708Y46348512D01*
X57143512Y46348512D02*
X58420000Y47625000D01*
X56663708Y46348512D02*
X57143512Y46348512D01*
X18288000Y38862000D02*
X25682190Y46256190D01*
%TO.N,/D_4*%
X20828000Y38862000D02*
X27051000Y45085000D01*
X41275000Y45085000D02*
X41910000Y45085000D01*
X27051000Y45085000D02*
X41275000Y45085000D01*
%TO.N,/D_3*%
X59234001Y45899001D02*
X60960000Y47625000D01*
X56849901Y45899001D02*
X59234001Y45899001D01*
X56757569Y45806669D02*
X56849901Y45899001D01*
X46441669Y45806669D02*
X56757569Y45806669D01*
X39116000Y38481000D02*
X46441669Y45806669D01*
%TO.N,/D_2*%
X48349500Y45174500D02*
X57150000Y45174500D01*
X41656000Y38481000D02*
X48349500Y45174500D01*
%TO.N,/D_1*%
X44196000Y38481000D02*
X49985989Y44270989D01*
X49985989Y44270989D02*
X60145989Y44270989D01*
X60145989Y44270989D02*
X63500000Y47625000D01*
%TO.N,/D_0*%
X46736000Y38481000D02*
X51435000Y43180000D01*
X51435000Y43180000D02*
X58420000Y43180000D01*
%TD*%
%TA.AperFunction,Conductor*%
%TO.N,+5V*%
G36*
X78583056Y59561500D02*
G01*
X78584496Y59561276D01*
X78597858Y59559195D01*
X78597861Y59559195D01*
X78606730Y59557814D01*
X78615632Y59558978D01*
X78615634Y59558978D01*
X78619174Y59559441D01*
X78621957Y59559805D01*
X78647279Y59560548D01*
X78800829Y59549566D01*
X78838971Y59546838D01*
X78856765Y59544280D01*
X79069337Y59498038D01*
X79086586Y59492973D01*
X79139298Y59473313D01*
X79290414Y59416950D01*
X79306761Y59409484D01*
X79497692Y59305227D01*
X79512815Y59295508D01*
X79686965Y59165141D01*
X79700551Y59153368D01*
X79854368Y58999551D01*
X79866141Y58985965D01*
X79996508Y58811815D01*
X80006227Y58796692D01*
X80110484Y58605761D01*
X80117950Y58589414D01*
X80148913Y58506398D01*
X80193973Y58385586D01*
X80199038Y58368337D01*
X80245280Y58155765D01*
X80247838Y58137971D01*
X80261041Y57953372D01*
X80260297Y57935468D01*
X80260195Y57927142D01*
X80258814Y57918270D01*
X80259978Y57909368D01*
X80259978Y57909365D01*
X80262936Y57886749D01*
X80264000Y57870411D01*
X80264000Y634000D01*
X80243998Y565879D01*
X80190342Y519386D01*
X80138000Y508000D01*
X14232610Y508000D01*
X14164489Y528002D01*
X14143515Y544905D01*
X3258420Y11430000D01*
X23324502Y11430000D01*
X23344457Y11201913D01*
X23403716Y10980757D01*
X23406039Y10975776D01*
X23406039Y10975775D01*
X23498151Y10778238D01*
X23498154Y10778233D01*
X23500477Y10773251D01*
X23631802Y10585700D01*
X23793700Y10423802D01*
X23798208Y10420645D01*
X23798211Y10420643D01*
X23876389Y10365902D01*
X23981251Y10292477D01*
X23986233Y10290154D01*
X23986238Y10290151D01*
X24182765Y10198510D01*
X24188757Y10195716D01*
X24194065Y10194294D01*
X24194067Y10194293D01*
X24404598Y10137881D01*
X24404600Y10137881D01*
X24409913Y10136457D01*
X24638000Y10116502D01*
X24866087Y10136457D01*
X24871400Y10137881D01*
X24871402Y10137881D01*
X25081933Y10194293D01*
X25081935Y10194294D01*
X25087243Y10195716D01*
X25093235Y10198510D01*
X25289762Y10290151D01*
X25289767Y10290154D01*
X25294749Y10292477D01*
X25399611Y10365902D01*
X25477789Y10420643D01*
X25477792Y10420645D01*
X25482300Y10423802D01*
X25644198Y10585700D01*
X25775523Y10773251D01*
X25777846Y10778233D01*
X25777849Y10778238D01*
X25869961Y10975775D01*
X25869961Y10975776D01*
X25872284Y10980757D01*
X25931543Y11201913D01*
X25951498Y11430000D01*
X25931543Y11658087D01*
X25929068Y11667323D01*
X25873707Y11873933D01*
X25873706Y11873935D01*
X25872284Y11879243D01*
X25837571Y11953686D01*
X25777849Y12081762D01*
X25777846Y12081767D01*
X25775523Y12086749D01*
X25644198Y12274300D01*
X25482300Y12436198D01*
X25477792Y12439355D01*
X25477789Y12439357D01*
X25399611Y12494098D01*
X25294749Y12567523D01*
X25289767Y12569846D01*
X25289762Y12569849D01*
X25092225Y12661961D01*
X25092224Y12661961D01*
X25087243Y12664284D01*
X25081935Y12665706D01*
X25081933Y12665707D01*
X24871402Y12722119D01*
X24871400Y12722119D01*
X24866087Y12723543D01*
X24638000Y12743498D01*
X24409913Y12723543D01*
X24404600Y12722119D01*
X24404598Y12722119D01*
X24194067Y12665707D01*
X24194065Y12665706D01*
X24188757Y12664284D01*
X24183776Y12661961D01*
X24183775Y12661961D01*
X23986238Y12569849D01*
X23986233Y12569846D01*
X23981251Y12567523D01*
X23876389Y12494098D01*
X23798211Y12439357D01*
X23798208Y12439355D01*
X23793700Y12436198D01*
X23631802Y12274300D01*
X23500477Y12086749D01*
X23498154Y12081767D01*
X23498151Y12081762D01*
X23438429Y11953686D01*
X23403716Y11879243D01*
X23402294Y11873935D01*
X23402293Y11873933D01*
X23346932Y11667323D01*
X23344457Y11658087D01*
X23324502Y11430000D01*
X3258420Y11430000D01*
X544905Y14143515D01*
X510879Y14205827D01*
X508000Y14232610D01*
X508000Y30668650D01*
X6114800Y30668650D01*
X6115393Y30661358D01*
X6115393Y30661355D01*
X6119084Y30615981D01*
X6119499Y30605766D01*
X6119499Y30597706D01*
X6119924Y30594062D01*
X6122788Y30569492D01*
X6123221Y30565117D01*
X6128037Y30505913D01*
X6129139Y30492362D01*
X6131395Y30485398D01*
X6132586Y30479439D01*
X6133970Y30473584D01*
X6134817Y30466318D01*
X6159734Y30397672D01*
X6161151Y30393544D01*
X6183648Y30324100D01*
X6187444Y30317845D01*
X6189950Y30312371D01*
X6192669Y30306941D01*
X6195166Y30300062D01*
X6199179Y30293942D01*
X6199179Y30293941D01*
X6235185Y30239023D01*
X6237522Y30235319D01*
X6275404Y30172892D01*
X6279120Y30168684D01*
X6279121Y30168683D01*
X6282802Y30164515D01*
X6282775Y30164491D01*
X6285428Y30161499D01*
X6288131Y30158266D01*
X6292143Y30152147D01*
X6344551Y30102500D01*
X6348382Y30098871D01*
X6350824Y30096493D01*
X9901167Y26546151D01*
X13367565Y23079753D01*
X13401591Y23017441D01*
X13396526Y22946626D01*
X13367565Y22901563D01*
X13344802Y22878800D01*
X13213477Y22691249D01*
X13211154Y22686267D01*
X13211151Y22686262D01*
X13136421Y22526001D01*
X13116716Y22483743D01*
X13057457Y22262587D01*
X13037502Y22034500D01*
X13057457Y21806413D01*
X13116716Y21585257D01*
X13119039Y21580276D01*
X13119039Y21580275D01*
X13211151Y21382738D01*
X13211154Y21382733D01*
X13213477Y21377751D01*
X13344802Y21190200D01*
X13506700Y21028302D01*
X13511208Y21025145D01*
X13511211Y21025143D01*
X13552542Y20996203D01*
X13694251Y20896977D01*
X13699233Y20894654D01*
X13699238Y20894651D01*
X13896775Y20802539D01*
X13901757Y20800216D01*
X13907065Y20798794D01*
X13907067Y20798793D01*
X14117598Y20742381D01*
X14117600Y20742381D01*
X14122913Y20740957D01*
X14351000Y20721002D01*
X14579087Y20740957D01*
X14584400Y20742381D01*
X14584402Y20742381D01*
X14794933Y20798793D01*
X14794935Y20798794D01*
X14800243Y20800216D01*
X14805225Y20802539D01*
X15002762Y20894651D01*
X15002767Y20894654D01*
X15007749Y20896977D01*
X15149458Y20996203D01*
X15190789Y21025143D01*
X15190792Y21025145D01*
X15195300Y21028302D01*
X15357198Y21190200D01*
X15488523Y21377751D01*
X15490846Y21382733D01*
X15490849Y21382738D01*
X15506805Y21416957D01*
X15553722Y21470242D01*
X15621999Y21489703D01*
X15689959Y21469161D01*
X15735195Y21416957D01*
X15751151Y21382738D01*
X15751154Y21382733D01*
X15753477Y21377751D01*
X15884802Y21190200D01*
X16046700Y21028302D01*
X16051208Y21025145D01*
X16051211Y21025143D01*
X16092542Y20996203D01*
X16234251Y20896977D01*
X16239233Y20894654D01*
X16239238Y20894651D01*
X16436775Y20802539D01*
X16441757Y20800216D01*
X16447065Y20798794D01*
X16447067Y20798793D01*
X16657598Y20742381D01*
X16657600Y20742381D01*
X16662913Y20740957D01*
X16891000Y20721002D01*
X17119087Y20740957D01*
X17124400Y20742381D01*
X17124402Y20742381D01*
X17334933Y20798793D01*
X17334935Y20798794D01*
X17340243Y20800216D01*
X17345225Y20802539D01*
X17542762Y20894651D01*
X17542767Y20894654D01*
X17547749Y20896977D01*
X17689458Y20996203D01*
X17730789Y21025143D01*
X17730792Y21025145D01*
X17735300Y21028302D01*
X17897198Y21190200D01*
X18028523Y21377751D01*
X18030846Y21382733D01*
X18030849Y21382738D01*
X18046805Y21416957D01*
X18093722Y21470242D01*
X18161999Y21489703D01*
X18229959Y21469161D01*
X18275195Y21416957D01*
X18291151Y21382738D01*
X18291154Y21382733D01*
X18293477Y21377751D01*
X18424802Y21190200D01*
X18586700Y21028302D01*
X18591208Y21025145D01*
X18591211Y21025143D01*
X18632542Y20996203D01*
X18774251Y20896977D01*
X18779233Y20894654D01*
X18779238Y20894651D01*
X18976775Y20802539D01*
X18981757Y20800216D01*
X18987065Y20798794D01*
X18987067Y20798793D01*
X19197598Y20742381D01*
X19197600Y20742381D01*
X19202913Y20740957D01*
X19431000Y20721002D01*
X19659087Y20740957D01*
X19664400Y20742381D01*
X19664402Y20742381D01*
X19874933Y20798793D01*
X19874935Y20798794D01*
X19880243Y20800216D01*
X19885225Y20802539D01*
X20082762Y20894651D01*
X20082767Y20894654D01*
X20087749Y20896977D01*
X20229458Y20996203D01*
X20270789Y21025143D01*
X20270792Y21025145D01*
X20275300Y21028302D01*
X20437198Y21190200D01*
X20568523Y21377751D01*
X20570846Y21382733D01*
X20570849Y21382738D01*
X20586805Y21416957D01*
X20633722Y21470242D01*
X20701999Y21489703D01*
X20769959Y21469161D01*
X20815195Y21416957D01*
X20831151Y21382738D01*
X20831154Y21382733D01*
X20833477Y21377751D01*
X20964802Y21190200D01*
X21126700Y21028302D01*
X21131208Y21025145D01*
X21131211Y21025143D01*
X21172542Y20996203D01*
X21314251Y20896977D01*
X21319233Y20894654D01*
X21319238Y20894651D01*
X21516775Y20802539D01*
X21521757Y20800216D01*
X21527065Y20798794D01*
X21527067Y20798793D01*
X21737598Y20742381D01*
X21737600Y20742381D01*
X21742913Y20740957D01*
X21971000Y20721002D01*
X22199087Y20740957D01*
X22204400Y20742381D01*
X22204402Y20742381D01*
X22414933Y20798793D01*
X22414935Y20798794D01*
X22420243Y20800216D01*
X22425225Y20802539D01*
X22622762Y20894651D01*
X22622767Y20894654D01*
X22627749Y20896977D01*
X22769458Y20996203D01*
X22810789Y21025143D01*
X22810792Y21025145D01*
X22815300Y21028302D01*
X22977198Y21190200D01*
X23108523Y21377751D01*
X23110846Y21382733D01*
X23110849Y21382738D01*
X23126805Y21416957D01*
X23173722Y21470242D01*
X23241999Y21489703D01*
X23309959Y21469161D01*
X23355195Y21416957D01*
X23371151Y21382738D01*
X23371154Y21382733D01*
X23373477Y21377751D01*
X23504802Y21190200D01*
X23666700Y21028302D01*
X23671208Y21025145D01*
X23671211Y21025143D01*
X23712542Y20996203D01*
X23854251Y20896977D01*
X23859233Y20894654D01*
X23859238Y20894651D01*
X24056775Y20802539D01*
X24061757Y20800216D01*
X24067065Y20798794D01*
X24067067Y20798793D01*
X24277598Y20742381D01*
X24277600Y20742381D01*
X24282913Y20740957D01*
X24511000Y20721002D01*
X24739087Y20740957D01*
X24744400Y20742381D01*
X24744402Y20742381D01*
X24954933Y20798793D01*
X24954935Y20798794D01*
X24960243Y20800216D01*
X24965225Y20802539D01*
X25162762Y20894651D01*
X25162767Y20894654D01*
X25167749Y20896977D01*
X25309458Y20996203D01*
X25350789Y21025143D01*
X25350792Y21025145D01*
X25355300Y21028302D01*
X25517198Y21190200D01*
X25648523Y21377751D01*
X25650846Y21382733D01*
X25650849Y21382738D01*
X25666805Y21416957D01*
X25713722Y21470242D01*
X25781999Y21489703D01*
X25849959Y21469161D01*
X25895195Y21416957D01*
X25911151Y21382738D01*
X25911154Y21382733D01*
X25913477Y21377751D01*
X26044802Y21190200D01*
X26206700Y21028302D01*
X26211208Y21025145D01*
X26211211Y21025143D01*
X26252542Y20996203D01*
X26394251Y20896977D01*
X26399233Y20894654D01*
X26399238Y20894651D01*
X26596775Y20802539D01*
X26601757Y20800216D01*
X26607065Y20798794D01*
X26607067Y20798793D01*
X26817598Y20742381D01*
X26817600Y20742381D01*
X26822913Y20740957D01*
X27051000Y20721002D01*
X27279087Y20740957D01*
X27284400Y20742381D01*
X27284402Y20742381D01*
X27494933Y20798793D01*
X27494935Y20798794D01*
X27500243Y20800216D01*
X27505225Y20802539D01*
X27702762Y20894651D01*
X27702767Y20894654D01*
X27707749Y20896977D01*
X27849458Y20996203D01*
X27890789Y21025143D01*
X27890792Y21025145D01*
X27895300Y21028302D01*
X28057198Y21190200D01*
X28060357Y21194711D01*
X28063892Y21198924D01*
X28065026Y21197973D01*
X28115071Y21237971D01*
X28185690Y21245276D01*
X28249049Y21213242D01*
X28285030Y21152038D01*
X28288082Y21134983D01*
X28289255Y21124184D01*
X28340385Y20987795D01*
X28427739Y20871239D01*
X28544295Y20783885D01*
X28680684Y20732755D01*
X28742866Y20726000D01*
X30439134Y20726000D01*
X30501316Y20732755D01*
X30637705Y20783885D01*
X30754261Y20871239D01*
X30841615Y20987795D01*
X30892745Y21124184D01*
X30899500Y21186366D01*
X30899500Y22651129D01*
X30919502Y22719250D01*
X30973158Y22765743D01*
X31043432Y22775847D01*
X31108012Y22746353D01*
X31114595Y22740224D01*
X38066595Y15788224D01*
X38100621Y15725912D01*
X38103500Y15699129D01*
X38103500Y11859281D01*
X38095901Y11816186D01*
X38071197Y11748313D01*
X38048463Y11568358D01*
X38066163Y11387838D01*
X38123418Y11215725D01*
X38127065Y11209703D01*
X38127066Y11209701D01*
X38137978Y11191684D01*
X38217380Y11060574D01*
X38343382Y10930096D01*
X38495159Y10830776D01*
X38501763Y10828320D01*
X38501765Y10828319D01*
X38658558Y10770008D01*
X38658560Y10770008D01*
X38665168Y10767550D01*
X38748995Y10756365D01*
X38837980Y10744491D01*
X38837984Y10744491D01*
X38844961Y10743560D01*
X38851972Y10744198D01*
X38851976Y10744198D01*
X38994459Y10757166D01*
X39025600Y10760000D01*
X39032302Y10762178D01*
X39032304Y10762178D01*
X39191409Y10813874D01*
X39191412Y10813875D01*
X39198108Y10816051D01*
X39353912Y10908929D01*
X39485266Y11034016D01*
X39585643Y11185096D01*
X39650055Y11354660D01*
X39651035Y11361632D01*
X39674748Y11530359D01*
X39674748Y11530362D01*
X39675299Y11534281D01*
X39675616Y11556998D01*
X39655397Y11737253D01*
X39651546Y11748313D01*
X39627509Y11817336D01*
X39620500Y11858773D01*
X39620500Y15998431D01*
X39621933Y16017382D01*
X39624099Y16031617D01*
X39624099Y16031619D01*
X39625199Y16038849D01*
X39620915Y16091518D01*
X39620500Y16101733D01*
X39620500Y16109793D01*
X39617211Y16138007D01*
X39616778Y16142382D01*
X39611454Y16207839D01*
X39611453Y16207842D01*
X39610860Y16215137D01*
X39608604Y16222101D01*
X39607413Y16228060D01*
X39606029Y16233915D01*
X39605182Y16241181D01*
X39580265Y16309827D01*
X39578848Y16313955D01*
X39558607Y16376436D01*
X39558606Y16376438D01*
X39556351Y16383399D01*
X39552555Y16389654D01*
X39550049Y16395128D01*
X39547330Y16400558D01*
X39544833Y16407437D01*
X39504809Y16468484D01*
X39502472Y16472188D01*
X39467509Y16529807D01*
X39467505Y16529812D01*
X39464595Y16534608D01*
X39457197Y16542984D01*
X39457223Y16543007D01*
X39454574Y16545997D01*
X39451866Y16549236D01*
X39447856Y16555352D01*
X39442549Y16560379D01*
X39442546Y16560383D01*
X39391617Y16608628D01*
X39389175Y16611006D01*
X28972276Y27027905D01*
X28938250Y27090217D01*
X28943315Y27161032D01*
X28985862Y27217868D01*
X29052382Y27242679D01*
X29061371Y27243000D01*
X35523908Y27243000D01*
X35592029Y27222998D01*
X35613003Y27206095D01*
X54797677Y8021421D01*
X54831703Y7959109D01*
X54826638Y7888294D01*
X54784091Y7831458D01*
X54766762Y7820563D01*
X54645607Y7757493D01*
X54641474Y7754390D01*
X54641471Y7754388D01*
X54485229Y7637078D01*
X54466965Y7623365D01*
X54441541Y7596760D01*
X54373280Y7525329D01*
X54312629Y7461862D01*
X54205201Y7304379D01*
X54150293Y7259379D01*
X54079768Y7251208D01*
X54016021Y7282462D01*
X53995324Y7306946D01*
X53914822Y7431383D01*
X53914820Y7431386D01*
X53912014Y7435723D01*
X53761670Y7600949D01*
X53757619Y7604148D01*
X53757615Y7604152D01*
X53590414Y7736200D01*
X53590410Y7736202D01*
X53586359Y7739402D01*
X53550028Y7759458D01*
X53496144Y7789203D01*
X53390789Y7847362D01*
X53385920Y7849086D01*
X53385916Y7849088D01*
X53185087Y7920205D01*
X53185083Y7920206D01*
X53180212Y7921931D01*
X53175119Y7922838D01*
X53175116Y7922839D01*
X52965373Y7960200D01*
X52965367Y7960201D01*
X52960284Y7961106D01*
X52886452Y7962008D01*
X52742081Y7963772D01*
X52742079Y7963772D01*
X52736911Y7963835D01*
X52516091Y7930045D01*
X52303756Y7860643D01*
X52247692Y7831458D01*
X52116336Y7763078D01*
X52105607Y7757493D01*
X52101474Y7754390D01*
X52101471Y7754388D01*
X51945229Y7637078D01*
X51926965Y7623365D01*
X51901541Y7596760D01*
X51833280Y7525329D01*
X51772629Y7461862D01*
X51665201Y7304379D01*
X51610293Y7259379D01*
X51539768Y7251208D01*
X51476021Y7282462D01*
X51455324Y7306946D01*
X51374822Y7431383D01*
X51374820Y7431386D01*
X51372014Y7435723D01*
X51221670Y7600949D01*
X51217619Y7604148D01*
X51217615Y7604152D01*
X51050414Y7736200D01*
X51050410Y7736202D01*
X51046359Y7739402D01*
X51010028Y7759458D01*
X50956144Y7789203D01*
X50850789Y7847362D01*
X50845920Y7849086D01*
X50845916Y7849088D01*
X50645087Y7920205D01*
X50645083Y7920206D01*
X50640212Y7921931D01*
X50635119Y7922838D01*
X50635116Y7922839D01*
X50425373Y7960200D01*
X50425367Y7960201D01*
X50420284Y7961106D01*
X50346452Y7962008D01*
X50202081Y7963772D01*
X50202079Y7963772D01*
X50196911Y7963835D01*
X49976091Y7930045D01*
X49763756Y7860643D01*
X49707692Y7831458D01*
X49576336Y7763078D01*
X49565607Y7757493D01*
X49561474Y7754390D01*
X49561471Y7754388D01*
X49405229Y7637078D01*
X49386965Y7623365D01*
X49361541Y7596760D01*
X49293280Y7525329D01*
X49232629Y7461862D01*
X49125204Y7304382D01*
X49124898Y7303934D01*
X49069987Y7258931D01*
X48999462Y7250760D01*
X48935715Y7282014D01*
X48915018Y7306498D01*
X48834426Y7431074D01*
X48828136Y7439243D01*
X48684806Y7596760D01*
X48677273Y7603785D01*
X48510139Y7735778D01*
X48501552Y7741483D01*
X48315117Y7844401D01*
X48305705Y7848631D01*
X48104959Y7919720D01*
X48094988Y7922354D01*
X48023837Y7935028D01*
X48010540Y7933568D01*
X48006000Y7919011D01*
X48006000Y6476000D01*
X47985998Y6407879D01*
X47932342Y6361386D01*
X47880000Y6350000D01*
X47624000Y6350000D01*
X47555879Y6370002D01*
X47509386Y6423658D01*
X47498000Y6476000D01*
X47498000Y7920898D01*
X47494082Y7934242D01*
X47479806Y7936229D01*
X47441324Y7930340D01*
X47431288Y7927949D01*
X47228868Y7861788D01*
X47219359Y7857791D01*
X47030463Y7759458D01*
X47021738Y7753964D01*
X46851433Y7626095D01*
X46843726Y7619252D01*
X46696590Y7465283D01*
X46690109Y7457278D01*
X46585498Y7303926D01*
X46530587Y7258924D01*
X46460062Y7250753D01*
X46396315Y7282007D01*
X46375618Y7306491D01*
X46294822Y7431383D01*
X46294820Y7431386D01*
X46292014Y7435723D01*
X46141670Y7600949D01*
X46137619Y7604148D01*
X46137615Y7604152D01*
X45970414Y7736200D01*
X45970410Y7736202D01*
X45966359Y7739402D01*
X45930028Y7759458D01*
X45876144Y7789203D01*
X45770789Y7847362D01*
X45765920Y7849086D01*
X45765916Y7849088D01*
X45565087Y7920205D01*
X45565083Y7920206D01*
X45560212Y7921931D01*
X45555119Y7922838D01*
X45555116Y7922839D01*
X45345373Y7960200D01*
X45345367Y7960201D01*
X45340284Y7961106D01*
X45266452Y7962008D01*
X45122081Y7963772D01*
X45122079Y7963772D01*
X45116911Y7963835D01*
X44896091Y7930045D01*
X44683756Y7860643D01*
X44627692Y7831458D01*
X44496336Y7763078D01*
X44485607Y7757493D01*
X44481474Y7754390D01*
X44481471Y7754388D01*
X44325229Y7637078D01*
X44306965Y7623365D01*
X44281541Y7596760D01*
X44213280Y7525329D01*
X44152629Y7461862D01*
X44045201Y7304379D01*
X43990293Y7259379D01*
X43919768Y7251208D01*
X43856021Y7282462D01*
X43835324Y7306946D01*
X43754822Y7431383D01*
X43754820Y7431386D01*
X43752014Y7435723D01*
X43601670Y7600949D01*
X43597619Y7604148D01*
X43597615Y7604152D01*
X43430414Y7736200D01*
X43430410Y7736202D01*
X43426359Y7739402D01*
X43390028Y7759458D01*
X43336144Y7789203D01*
X43230789Y7847362D01*
X43225920Y7849086D01*
X43225916Y7849088D01*
X43025087Y7920205D01*
X43025083Y7920206D01*
X43020212Y7921931D01*
X43015119Y7922838D01*
X43015116Y7922839D01*
X42805373Y7960200D01*
X42805367Y7960201D01*
X42800284Y7961106D01*
X42726452Y7962008D01*
X42582081Y7963772D01*
X42582079Y7963772D01*
X42576911Y7963835D01*
X42356091Y7930045D01*
X42143756Y7860643D01*
X42087692Y7831458D01*
X41956336Y7763078D01*
X41945607Y7757493D01*
X41941474Y7754390D01*
X41941471Y7754388D01*
X41785229Y7637078D01*
X41766965Y7623365D01*
X41741541Y7596760D01*
X41673280Y7525329D01*
X41612629Y7461862D01*
X41505201Y7304379D01*
X41450293Y7259379D01*
X41379768Y7251208D01*
X41316021Y7282462D01*
X41295324Y7306946D01*
X41214822Y7431383D01*
X41214820Y7431386D01*
X41212014Y7435723D01*
X41061670Y7600949D01*
X41057619Y7604148D01*
X41057615Y7604152D01*
X40890414Y7736200D01*
X40890410Y7736202D01*
X40886359Y7739402D01*
X40850028Y7759458D01*
X40796144Y7789203D01*
X40690789Y7847362D01*
X40685920Y7849086D01*
X40685916Y7849088D01*
X40485087Y7920205D01*
X40485083Y7920206D01*
X40480212Y7921931D01*
X40475119Y7922838D01*
X40475116Y7922839D01*
X40265373Y7960200D01*
X40265367Y7960201D01*
X40260284Y7961106D01*
X40186452Y7962008D01*
X40042081Y7963772D01*
X40042079Y7963772D01*
X40036911Y7963835D01*
X39816091Y7930045D01*
X39603756Y7860643D01*
X39547692Y7831458D01*
X39416336Y7763078D01*
X39405607Y7757493D01*
X39401474Y7754390D01*
X39401471Y7754388D01*
X39245229Y7637078D01*
X39226965Y7623365D01*
X39201541Y7596760D01*
X39133280Y7525329D01*
X39072629Y7461862D01*
X38965201Y7304379D01*
X38910293Y7259379D01*
X38839768Y7251208D01*
X38776021Y7282462D01*
X38755324Y7306946D01*
X38674822Y7431383D01*
X38674820Y7431386D01*
X38672014Y7435723D01*
X38521670Y7600949D01*
X38517619Y7604148D01*
X38517615Y7604152D01*
X38350414Y7736200D01*
X38350410Y7736202D01*
X38346359Y7739402D01*
X38310028Y7759458D01*
X38256144Y7789203D01*
X38150789Y7847362D01*
X38145920Y7849086D01*
X38145916Y7849088D01*
X37945087Y7920205D01*
X37945083Y7920206D01*
X37940212Y7921931D01*
X37935119Y7922838D01*
X37935116Y7922839D01*
X37725373Y7960200D01*
X37725367Y7960201D01*
X37720284Y7961106D01*
X37646452Y7962008D01*
X37502081Y7963772D01*
X37502079Y7963772D01*
X37496911Y7963835D01*
X37276091Y7930045D01*
X37063756Y7860643D01*
X37007692Y7831458D01*
X36876336Y7763078D01*
X36865607Y7757493D01*
X36861474Y7754390D01*
X36861471Y7754388D01*
X36705229Y7637078D01*
X36686965Y7623365D01*
X36661541Y7596760D01*
X36593280Y7525329D01*
X36532629Y7461862D01*
X36425201Y7304379D01*
X36370293Y7259379D01*
X36299768Y7251208D01*
X36236021Y7282462D01*
X36215324Y7306946D01*
X36134822Y7431383D01*
X36134820Y7431386D01*
X36132014Y7435723D01*
X35981670Y7600949D01*
X35977619Y7604148D01*
X35977615Y7604152D01*
X35810414Y7736200D01*
X35810410Y7736202D01*
X35806359Y7739402D01*
X35770028Y7759458D01*
X35716144Y7789203D01*
X35610789Y7847362D01*
X35605920Y7849086D01*
X35605916Y7849088D01*
X35405087Y7920205D01*
X35405083Y7920206D01*
X35400212Y7921931D01*
X35395119Y7922838D01*
X35395116Y7922839D01*
X35185373Y7960200D01*
X35185367Y7960201D01*
X35180284Y7961106D01*
X35106452Y7962008D01*
X34962081Y7963772D01*
X34962079Y7963772D01*
X34956911Y7963835D01*
X34736091Y7930045D01*
X34523756Y7860643D01*
X34467692Y7831458D01*
X34336336Y7763078D01*
X34325607Y7757493D01*
X34321474Y7754390D01*
X34321471Y7754388D01*
X34165229Y7637078D01*
X34146965Y7623365D01*
X34121541Y7596760D01*
X34053280Y7525329D01*
X33992629Y7461862D01*
X33885201Y7304379D01*
X33830293Y7259379D01*
X33759768Y7251208D01*
X33696021Y7282462D01*
X33675324Y7306946D01*
X33594822Y7431383D01*
X33594820Y7431386D01*
X33592014Y7435723D01*
X33441670Y7600949D01*
X33437619Y7604148D01*
X33437615Y7604152D01*
X33270414Y7736200D01*
X33270410Y7736202D01*
X33266359Y7739402D01*
X33230028Y7759458D01*
X33176144Y7789203D01*
X33070789Y7847362D01*
X33065920Y7849086D01*
X33065916Y7849088D01*
X32865087Y7920205D01*
X32865083Y7920206D01*
X32860212Y7921931D01*
X32855119Y7922838D01*
X32855116Y7922839D01*
X32645373Y7960200D01*
X32645367Y7960201D01*
X32640284Y7961106D01*
X32566452Y7962008D01*
X32422081Y7963772D01*
X32422079Y7963772D01*
X32416911Y7963835D01*
X32196091Y7930045D01*
X31983756Y7860643D01*
X31927692Y7831458D01*
X31796336Y7763078D01*
X31785607Y7757493D01*
X31781474Y7754390D01*
X31781471Y7754388D01*
X31625229Y7637078D01*
X31606965Y7623365D01*
X31581541Y7596760D01*
X31513280Y7525329D01*
X31452629Y7461862D01*
X31345201Y7304379D01*
X31290293Y7259379D01*
X31219768Y7251208D01*
X31156021Y7282462D01*
X31135324Y7306946D01*
X31054822Y7431383D01*
X31054820Y7431386D01*
X31052014Y7435723D01*
X30901670Y7600949D01*
X30897619Y7604148D01*
X30897615Y7604152D01*
X30730414Y7736200D01*
X30730410Y7736202D01*
X30726359Y7739402D01*
X30690028Y7759458D01*
X30636144Y7789203D01*
X30530789Y7847362D01*
X30525920Y7849086D01*
X30525916Y7849088D01*
X30325087Y7920205D01*
X30325083Y7920206D01*
X30320212Y7921931D01*
X30315119Y7922838D01*
X30315116Y7922839D01*
X30105373Y7960200D01*
X30105367Y7960201D01*
X30100284Y7961106D01*
X30026452Y7962008D01*
X29882081Y7963772D01*
X29882079Y7963772D01*
X29876911Y7963835D01*
X29656091Y7930045D01*
X29443756Y7860643D01*
X29282677Y7776790D01*
X29213020Y7763078D01*
X29147005Y7789203D01*
X29105593Y7846871D01*
X29098499Y7888554D01*
X29098499Y10056211D01*
X29118501Y10124332D01*
X29172157Y10170825D01*
X29242431Y10180929D01*
X29257110Y10177918D01*
X29404688Y10138375D01*
X29415481Y10136472D01*
X29632525Y10117483D01*
X29643475Y10117483D01*
X29860519Y10136472D01*
X29871312Y10138375D01*
X30081761Y10194764D01*
X30092053Y10198510D01*
X30289511Y10290586D01*
X30299006Y10296069D01*
X30351048Y10332509D01*
X30359424Y10342988D01*
X30352356Y10356434D01*
X29367885Y11340905D01*
X29333859Y11403217D01*
X29335694Y11428868D01*
X30002408Y11428868D01*
X30002539Y11427035D01*
X30006790Y11420420D01*
X30712287Y10714923D01*
X30724062Y10708493D01*
X30736077Y10717789D01*
X30771931Y10768994D01*
X30777414Y10778489D01*
X30869490Y10975947D01*
X30873236Y10986239D01*
X30929625Y11196688D01*
X30931528Y11207481D01*
X30950517Y11424525D01*
X30950517Y11435475D01*
X30931528Y11652519D01*
X30929625Y11663312D01*
X30873236Y11873761D01*
X30869490Y11884053D01*
X30777414Y12081511D01*
X30771931Y12091006D01*
X30735491Y12143048D01*
X30725012Y12151424D01*
X30711566Y12144356D01*
X30010022Y11442812D01*
X30002408Y11428868D01*
X29335694Y11428868D01*
X29338924Y11474032D01*
X29367885Y11519095D01*
X30353077Y12504287D01*
X30359507Y12516062D01*
X30350211Y12528077D01*
X30299006Y12563931D01*
X30289511Y12569414D01*
X30092053Y12661490D01*
X30081761Y12665236D01*
X29871312Y12721625D01*
X29860519Y12723528D01*
X29643475Y12742517D01*
X29632525Y12742517D01*
X29415481Y12723528D01*
X29404688Y12721625D01*
X29257110Y12682082D01*
X29186134Y12683772D01*
X29127338Y12723566D01*
X29099390Y12788830D01*
X29098499Y12803789D01*
X29098499Y13028117D01*
X29118501Y13096238D01*
X29172157Y13142731D01*
X29242431Y13152835D01*
X29257110Y13149824D01*
X29319503Y13133106D01*
X29333599Y13133442D01*
X29337000Y13141384D01*
X29337000Y13146533D01*
X29845000Y13146533D01*
X29848973Y13133002D01*
X29857522Y13131773D01*
X30034761Y13179264D01*
X30045053Y13183010D01*
X30242511Y13275086D01*
X30252007Y13280569D01*
X30430467Y13405528D01*
X30438875Y13412584D01*
X30592916Y13566625D01*
X30599972Y13575033D01*
X30724931Y13753493D01*
X30730414Y13762989D01*
X30822490Y13960447D01*
X30826236Y13970739D01*
X30872394Y14143003D01*
X30872058Y14157099D01*
X30864116Y14160500D01*
X29863115Y14160500D01*
X29847876Y14156025D01*
X29846671Y14154635D01*
X29845000Y14146952D01*
X29845000Y13146533D01*
X29337000Y13146533D01*
X29337000Y14686615D01*
X29845000Y14686615D01*
X29849475Y14671376D01*
X29850865Y14670171D01*
X29858548Y14668500D01*
X30858967Y14668500D01*
X30872498Y14672473D01*
X30873727Y14681022D01*
X30826236Y14858261D01*
X30822490Y14868553D01*
X30730414Y15066011D01*
X30724931Y15075507D01*
X30599972Y15253967D01*
X30592916Y15262375D01*
X30438875Y15416416D01*
X30430467Y15423472D01*
X30252007Y15548431D01*
X30242511Y15553914D01*
X30045053Y15645990D01*
X30034761Y15649736D01*
X29862497Y15695894D01*
X29848401Y15695558D01*
X29845000Y15687616D01*
X29845000Y14686615D01*
X29337000Y14686615D01*
X29337000Y15682467D01*
X29333027Y15695998D01*
X29324478Y15697227D01*
X29257110Y15679176D01*
X29186133Y15680866D01*
X29127337Y15720661D01*
X29099390Y15785925D01*
X29098499Y15800883D01*
X29098499Y17897000D01*
X29115380Y17960000D01*
X29171222Y18056720D01*
X29171223Y18056721D01*
X29174526Y18062443D01*
X29233541Y18244071D01*
X29253503Y18433999D01*
X29233541Y18623927D01*
X29174526Y18805555D01*
X29079039Y18970943D01*
X28951252Y19112865D01*
X28796751Y19225117D01*
X28790723Y19227801D01*
X28790721Y19227802D01*
X28628318Y19300108D01*
X28628317Y19300108D01*
X28622287Y19302793D01*
X28528886Y19322646D01*
X28441943Y19341127D01*
X28441938Y19341127D01*
X28435486Y19342499D01*
X28244512Y19342499D01*
X28238060Y19341127D01*
X28238055Y19341127D01*
X28151112Y19322646D01*
X28057711Y19302793D01*
X28051681Y19300108D01*
X28051680Y19300108D01*
X27889277Y19227802D01*
X27889275Y19227801D01*
X27883247Y19225117D01*
X27728746Y19112865D01*
X27600959Y18970943D01*
X27505472Y18805555D01*
X27446457Y18623927D01*
X27426495Y18433999D01*
X27446457Y18244071D01*
X27505472Y18062443D01*
X27508775Y18056721D01*
X27508776Y18056720D01*
X27564618Y17960000D01*
X27581499Y17897000D01*
X27581499Y15791218D01*
X27561497Y15723097D01*
X27507841Y15676604D01*
X27437567Y15666500D01*
X27422897Y15669509D01*
X27279087Y15708043D01*
X27051000Y15727998D01*
X26822913Y15708043D01*
X26817600Y15706619D01*
X26817598Y15706619D01*
X26607067Y15650207D01*
X26607065Y15650206D01*
X26601757Y15648784D01*
X26596776Y15646461D01*
X26596775Y15646461D01*
X26399238Y15554349D01*
X26399233Y15554346D01*
X26394251Y15552023D01*
X26339239Y15513503D01*
X26211211Y15423857D01*
X26211208Y15423855D01*
X26206700Y15420698D01*
X26044802Y15258800D01*
X26041645Y15254292D01*
X26041643Y15254289D01*
X26003828Y15200283D01*
X25913477Y15071249D01*
X25911154Y15066267D01*
X25911151Y15066262D01*
X25895195Y15032043D01*
X25848278Y14978758D01*
X25780001Y14959297D01*
X25712041Y14979839D01*
X25666805Y15032043D01*
X25650849Y15066262D01*
X25650846Y15066267D01*
X25648523Y15071249D01*
X25558172Y15200283D01*
X25520357Y15254289D01*
X25520355Y15254292D01*
X25517198Y15258800D01*
X25355300Y15420698D01*
X25350792Y15423855D01*
X25350789Y15423857D01*
X25222761Y15513503D01*
X25167749Y15552023D01*
X25162767Y15554346D01*
X25162762Y15554349D01*
X24965225Y15646461D01*
X24965224Y15646461D01*
X24960243Y15648784D01*
X24954935Y15650206D01*
X24954933Y15650207D01*
X24744402Y15706619D01*
X24744400Y15706619D01*
X24739087Y15708043D01*
X24511000Y15727998D01*
X24282913Y15708043D01*
X24277600Y15706619D01*
X24277598Y15706619D01*
X24067067Y15650207D01*
X24067065Y15650206D01*
X24061757Y15648784D01*
X24056776Y15646461D01*
X24056775Y15646461D01*
X23859238Y15554349D01*
X23859233Y15554346D01*
X23854251Y15552023D01*
X23799239Y15513503D01*
X23671211Y15423857D01*
X23671208Y15423855D01*
X23666700Y15420698D01*
X23504802Y15258800D01*
X23501645Y15254292D01*
X23501643Y15254289D01*
X23463828Y15200283D01*
X23373477Y15071249D01*
X23371154Y15066267D01*
X23371151Y15066262D01*
X23355195Y15032043D01*
X23308278Y14978758D01*
X23240001Y14959297D01*
X23172041Y14979839D01*
X23126805Y15032043D01*
X23110849Y15066262D01*
X23110846Y15066267D01*
X23108523Y15071249D01*
X23018172Y15200283D01*
X22980357Y15254289D01*
X22980355Y15254292D01*
X22977198Y15258800D01*
X22815300Y15420698D01*
X22810792Y15423855D01*
X22810789Y15423857D01*
X22682761Y15513503D01*
X22627749Y15552023D01*
X22622767Y15554346D01*
X22622762Y15554349D01*
X22425225Y15646461D01*
X22425224Y15646461D01*
X22420243Y15648784D01*
X22414935Y15650206D01*
X22414933Y15650207D01*
X22204402Y15706619D01*
X22204400Y15706619D01*
X22199087Y15708043D01*
X21971000Y15727998D01*
X21742913Y15708043D01*
X21737600Y15706619D01*
X21737598Y15706619D01*
X21527067Y15650207D01*
X21527065Y15650206D01*
X21521757Y15648784D01*
X21516776Y15646461D01*
X21516775Y15646461D01*
X21319238Y15554349D01*
X21319233Y15554346D01*
X21314251Y15552023D01*
X21259239Y15513503D01*
X21131211Y15423857D01*
X21131208Y15423855D01*
X21126700Y15420698D01*
X20964802Y15258800D01*
X20961645Y15254292D01*
X20961643Y15254289D01*
X20923828Y15200283D01*
X20833477Y15071249D01*
X20831154Y15066267D01*
X20831151Y15066262D01*
X20815195Y15032043D01*
X20768278Y14978758D01*
X20700001Y14959297D01*
X20632041Y14979839D01*
X20586805Y15032043D01*
X20570849Y15066262D01*
X20570846Y15066267D01*
X20568523Y15071249D01*
X20478172Y15200283D01*
X20440357Y15254289D01*
X20440355Y15254292D01*
X20437198Y15258800D01*
X20275300Y15420698D01*
X20270792Y15423855D01*
X20270789Y15423857D01*
X20142761Y15513503D01*
X20087749Y15552023D01*
X20082767Y15554346D01*
X20082762Y15554349D01*
X19885225Y15646461D01*
X19885224Y15646461D01*
X19880243Y15648784D01*
X19874935Y15650206D01*
X19874933Y15650207D01*
X19664402Y15706619D01*
X19664400Y15706619D01*
X19659087Y15708043D01*
X19431000Y15727998D01*
X19202913Y15708043D01*
X19197600Y15706619D01*
X19197598Y15706619D01*
X18987067Y15650207D01*
X18987065Y15650206D01*
X18981757Y15648784D01*
X18976776Y15646461D01*
X18976775Y15646461D01*
X18779238Y15554349D01*
X18779233Y15554346D01*
X18774251Y15552023D01*
X18719239Y15513503D01*
X18591211Y15423857D01*
X18591208Y15423855D01*
X18586700Y15420698D01*
X18424802Y15258800D01*
X18421645Y15254292D01*
X18421643Y15254289D01*
X18383828Y15200283D01*
X18293477Y15071249D01*
X18291154Y15066267D01*
X18291151Y15066262D01*
X18275195Y15032043D01*
X18228278Y14978758D01*
X18160001Y14959297D01*
X18092041Y14979839D01*
X18046805Y15032043D01*
X18030849Y15066262D01*
X18030846Y15066267D01*
X18028523Y15071249D01*
X17938172Y15200283D01*
X17900357Y15254289D01*
X17900355Y15254292D01*
X17897198Y15258800D01*
X17735300Y15420698D01*
X17730792Y15423855D01*
X17730789Y15423857D01*
X17602761Y15513503D01*
X17547749Y15552023D01*
X17542767Y15554346D01*
X17542762Y15554349D01*
X17345225Y15646461D01*
X17345224Y15646461D01*
X17340243Y15648784D01*
X17334935Y15650206D01*
X17334933Y15650207D01*
X17124402Y15706619D01*
X17124400Y15706619D01*
X17119087Y15708043D01*
X16891000Y15727998D01*
X16662913Y15708043D01*
X16657600Y15706619D01*
X16657598Y15706619D01*
X16447067Y15650207D01*
X16447065Y15650206D01*
X16441757Y15648784D01*
X16436776Y15646461D01*
X16436775Y15646461D01*
X16239238Y15554349D01*
X16239233Y15554346D01*
X16234251Y15552023D01*
X16179239Y15513503D01*
X16051211Y15423857D01*
X16051208Y15423855D01*
X16046700Y15420698D01*
X15884802Y15258800D01*
X15881645Y15254292D01*
X15881643Y15254289D01*
X15843828Y15200283D01*
X15753477Y15071249D01*
X15751154Y15066267D01*
X15751151Y15066262D01*
X15735195Y15032043D01*
X15688278Y14978758D01*
X15620001Y14959297D01*
X15552041Y14979839D01*
X15506805Y15032043D01*
X15490849Y15066262D01*
X15490846Y15066267D01*
X15488523Y15071249D01*
X15398172Y15200283D01*
X15360357Y15254289D01*
X15360355Y15254292D01*
X15357198Y15258800D01*
X15195300Y15420698D01*
X15190792Y15423855D01*
X15190789Y15423857D01*
X15062761Y15513503D01*
X15007749Y15552023D01*
X15002767Y15554346D01*
X15002762Y15554349D01*
X14805225Y15646461D01*
X14805224Y15646461D01*
X14800243Y15648784D01*
X14794935Y15650206D01*
X14794933Y15650207D01*
X14584402Y15706619D01*
X14584400Y15706619D01*
X14579087Y15708043D01*
X14351000Y15727998D01*
X14122913Y15708043D01*
X14117600Y15706619D01*
X14117598Y15706619D01*
X13907067Y15650207D01*
X13907065Y15650206D01*
X13901757Y15648784D01*
X13896776Y15646461D01*
X13896775Y15646461D01*
X13699238Y15554349D01*
X13699233Y15554346D01*
X13694251Y15552023D01*
X13639239Y15513503D01*
X13511211Y15423857D01*
X13511208Y15423855D01*
X13506700Y15420698D01*
X13344802Y15258800D01*
X13341645Y15254292D01*
X13341643Y15254289D01*
X13303828Y15200283D01*
X13213477Y15071249D01*
X13211154Y15066267D01*
X13211151Y15066262D01*
X13211034Y15066011D01*
X13116716Y14863743D01*
X13057457Y14642587D01*
X13037502Y14414500D01*
X13057457Y14186413D01*
X13058881Y14181100D01*
X13058881Y14181098D01*
X13068952Y14143515D01*
X13116716Y13965257D01*
X13119039Y13960276D01*
X13119039Y13960275D01*
X13211151Y13762738D01*
X13211154Y13762733D01*
X13213477Y13757751D01*
X13344802Y13570200D01*
X13506700Y13408302D01*
X13511208Y13405145D01*
X13511211Y13405143D01*
X13589389Y13350402D01*
X13694251Y13276977D01*
X13699233Y13274654D01*
X13699238Y13274651D01*
X13861828Y13198835D01*
X13901757Y13180216D01*
X13907065Y13178794D01*
X13907067Y13178793D01*
X14117598Y13122381D01*
X14117600Y13122381D01*
X14122913Y13120957D01*
X14351000Y13101002D01*
X14579087Y13120957D01*
X14584400Y13122381D01*
X14584402Y13122381D01*
X14794933Y13178793D01*
X14794935Y13178794D01*
X14800243Y13180216D01*
X14840172Y13198835D01*
X15002762Y13274651D01*
X15002767Y13274654D01*
X15007749Y13276977D01*
X15112611Y13350402D01*
X15190789Y13405143D01*
X15190792Y13405145D01*
X15195300Y13408302D01*
X15357198Y13570200D01*
X15488523Y13757751D01*
X15490846Y13762733D01*
X15490849Y13762738D01*
X15506805Y13796957D01*
X15553722Y13850242D01*
X15621999Y13869703D01*
X15689959Y13849161D01*
X15735195Y13796957D01*
X15751151Y13762738D01*
X15751154Y13762733D01*
X15753477Y13757751D01*
X15884802Y13570200D01*
X16046700Y13408302D01*
X16051208Y13405145D01*
X16051211Y13405143D01*
X16129389Y13350402D01*
X16234251Y13276977D01*
X16239233Y13274654D01*
X16239238Y13274651D01*
X16401828Y13198835D01*
X16441757Y13180216D01*
X16447065Y13178794D01*
X16447067Y13178793D01*
X16657598Y13122381D01*
X16657600Y13122381D01*
X16662913Y13120957D01*
X16891000Y13101002D01*
X17119087Y13120957D01*
X17124400Y13122381D01*
X17124402Y13122381D01*
X17334933Y13178793D01*
X17334935Y13178794D01*
X17340243Y13180216D01*
X17380172Y13198835D01*
X17542762Y13274651D01*
X17542767Y13274654D01*
X17547749Y13276977D01*
X17652611Y13350402D01*
X17730789Y13405143D01*
X17730792Y13405145D01*
X17735300Y13408302D01*
X17897198Y13570200D01*
X18028523Y13757751D01*
X18030846Y13762733D01*
X18030849Y13762738D01*
X18046805Y13796957D01*
X18093722Y13850242D01*
X18161999Y13869703D01*
X18229959Y13849161D01*
X18275195Y13796957D01*
X18291151Y13762738D01*
X18291154Y13762733D01*
X18293477Y13757751D01*
X18424802Y13570200D01*
X18586700Y13408302D01*
X18591208Y13405145D01*
X18591211Y13405143D01*
X18669389Y13350402D01*
X18774251Y13276977D01*
X18779233Y13274654D01*
X18779238Y13274651D01*
X18941828Y13198835D01*
X18981757Y13180216D01*
X18987065Y13178794D01*
X18987067Y13178793D01*
X19197598Y13122381D01*
X19197600Y13122381D01*
X19202913Y13120957D01*
X19431000Y13101002D01*
X19659087Y13120957D01*
X19664400Y13122381D01*
X19664402Y13122381D01*
X19874933Y13178793D01*
X19874935Y13178794D01*
X19880243Y13180216D01*
X19920172Y13198835D01*
X20082762Y13274651D01*
X20082767Y13274654D01*
X20087749Y13276977D01*
X20192611Y13350402D01*
X20270789Y13405143D01*
X20270792Y13405145D01*
X20275300Y13408302D01*
X20437198Y13570200D01*
X20568523Y13757751D01*
X20570846Y13762733D01*
X20570849Y13762738D01*
X20586805Y13796957D01*
X20633722Y13850242D01*
X20701999Y13869703D01*
X20769959Y13849161D01*
X20815195Y13796957D01*
X20831151Y13762738D01*
X20831154Y13762733D01*
X20833477Y13757751D01*
X20964802Y13570200D01*
X21126700Y13408302D01*
X21131208Y13405145D01*
X21131211Y13405143D01*
X21209389Y13350402D01*
X21314251Y13276977D01*
X21319233Y13274654D01*
X21319238Y13274651D01*
X21481828Y13198835D01*
X21521757Y13180216D01*
X21527065Y13178794D01*
X21527067Y13178793D01*
X21737598Y13122381D01*
X21737600Y13122381D01*
X21742913Y13120957D01*
X21971000Y13101002D01*
X22199087Y13120957D01*
X22204400Y13122381D01*
X22204402Y13122381D01*
X22414933Y13178793D01*
X22414935Y13178794D01*
X22420243Y13180216D01*
X22460172Y13198835D01*
X22622762Y13274651D01*
X22622767Y13274654D01*
X22627749Y13276977D01*
X22732611Y13350402D01*
X22810789Y13405143D01*
X22810792Y13405145D01*
X22815300Y13408302D01*
X22977198Y13570200D01*
X23108523Y13757751D01*
X23110846Y13762733D01*
X23110849Y13762738D01*
X23126805Y13796957D01*
X23173722Y13850242D01*
X23241999Y13869703D01*
X23309959Y13849161D01*
X23355195Y13796957D01*
X23371151Y13762738D01*
X23371154Y13762733D01*
X23373477Y13757751D01*
X23504802Y13570200D01*
X23666700Y13408302D01*
X23671208Y13405145D01*
X23671211Y13405143D01*
X23749389Y13350402D01*
X23854251Y13276977D01*
X23859233Y13274654D01*
X23859238Y13274651D01*
X24021828Y13198835D01*
X24061757Y13180216D01*
X24067065Y13178794D01*
X24067067Y13178793D01*
X24277598Y13122381D01*
X24277600Y13122381D01*
X24282913Y13120957D01*
X24511000Y13101002D01*
X24739087Y13120957D01*
X24744400Y13122381D01*
X24744402Y13122381D01*
X24954933Y13178793D01*
X24954935Y13178794D01*
X24960243Y13180216D01*
X25000172Y13198835D01*
X25162762Y13274651D01*
X25162767Y13274654D01*
X25167749Y13276977D01*
X25272611Y13350402D01*
X25350789Y13405143D01*
X25350792Y13405145D01*
X25355300Y13408302D01*
X25517198Y13570200D01*
X25632494Y13734859D01*
X25687951Y13779187D01*
X25758571Y13786496D01*
X25821931Y13754465D01*
X25847164Y13721352D01*
X25861854Y13693490D01*
X25898223Y13624511D01*
X25923982Y13575654D01*
X25927858Y13570868D01*
X25927859Y13570866D01*
X25931554Y13566303D01*
X26048447Y13421953D01*
X26200396Y13295354D01*
X26374041Y13200678D01*
X26430420Y13183010D01*
X26556886Y13143378D01*
X26556889Y13143377D01*
X26562768Y13141535D01*
X26568891Y13140870D01*
X26568895Y13140869D01*
X26753263Y13120841D01*
X26753267Y13120841D01*
X26759388Y13120176D01*
X26768717Y13120992D01*
X26790129Y13122865D01*
X26820790Y13121526D01*
X26822913Y13120957D01*
X26828378Y13120479D01*
X26828383Y13120478D01*
X27045525Y13101481D01*
X27051000Y13101002D01*
X27279087Y13120957D01*
X27422889Y13159489D01*
X27493864Y13157799D01*
X27552660Y13118005D01*
X27580608Y13052741D01*
X27581499Y13037782D01*
X27581499Y8088396D01*
X27561497Y8020275D01*
X27507841Y7973782D01*
X27453960Y7962405D01*
X27342081Y7963772D01*
X27342079Y7963772D01*
X27336911Y7963835D01*
X27116091Y7930045D01*
X26903756Y7860643D01*
X26847692Y7831458D01*
X26716336Y7763078D01*
X26705607Y7757493D01*
X26701474Y7754390D01*
X26701471Y7754388D01*
X26545229Y7637078D01*
X26526965Y7623365D01*
X26501541Y7596760D01*
X26433280Y7525329D01*
X26372629Y7461862D01*
X26265201Y7304379D01*
X26210293Y7259379D01*
X26139768Y7251208D01*
X26076021Y7282462D01*
X26055324Y7306946D01*
X25974822Y7431383D01*
X25974820Y7431386D01*
X25972014Y7435723D01*
X25821670Y7600949D01*
X25817619Y7604148D01*
X25817615Y7604152D01*
X25650414Y7736200D01*
X25650410Y7736202D01*
X25646359Y7739402D01*
X25610028Y7759458D01*
X25556144Y7789203D01*
X25450789Y7847362D01*
X25445920Y7849086D01*
X25445916Y7849088D01*
X25245087Y7920205D01*
X25245083Y7920206D01*
X25240212Y7921931D01*
X25235119Y7922838D01*
X25235116Y7922839D01*
X25025373Y7960200D01*
X25025367Y7960201D01*
X25020284Y7961106D01*
X24946452Y7962008D01*
X24802081Y7963772D01*
X24802079Y7963772D01*
X24796911Y7963835D01*
X24576091Y7930045D01*
X24363756Y7860643D01*
X24307692Y7831458D01*
X24176336Y7763078D01*
X24165607Y7757493D01*
X24161474Y7754390D01*
X24161471Y7754388D01*
X24005229Y7637078D01*
X23986965Y7623365D01*
X23961541Y7596760D01*
X23893280Y7525329D01*
X23832629Y7461862D01*
X23725201Y7304379D01*
X23670293Y7259379D01*
X23599768Y7251208D01*
X23536021Y7282462D01*
X23515324Y7306946D01*
X23434822Y7431383D01*
X23434820Y7431386D01*
X23432014Y7435723D01*
X23281670Y7600949D01*
X23277619Y7604148D01*
X23277615Y7604152D01*
X23110414Y7736200D01*
X23110410Y7736202D01*
X23106359Y7739402D01*
X23070028Y7759458D01*
X23016144Y7789203D01*
X22910789Y7847362D01*
X22905920Y7849086D01*
X22905916Y7849088D01*
X22705087Y7920205D01*
X22705083Y7920206D01*
X22700212Y7921931D01*
X22695119Y7922838D01*
X22695116Y7922839D01*
X22485373Y7960200D01*
X22485367Y7960201D01*
X22480284Y7961106D01*
X22406452Y7962008D01*
X22262081Y7963772D01*
X22262079Y7963772D01*
X22256911Y7963835D01*
X22036091Y7930045D01*
X21823756Y7860643D01*
X21767692Y7831458D01*
X21636336Y7763078D01*
X21625607Y7757493D01*
X21621474Y7754390D01*
X21621471Y7754388D01*
X21465229Y7637078D01*
X21446965Y7623365D01*
X21421541Y7596760D01*
X21353280Y7525329D01*
X21292629Y7461862D01*
X21185201Y7304379D01*
X21130293Y7259379D01*
X21059768Y7251208D01*
X20996021Y7282462D01*
X20975324Y7306946D01*
X20894822Y7431383D01*
X20894820Y7431386D01*
X20892014Y7435723D01*
X20741670Y7600949D01*
X20737619Y7604148D01*
X20737615Y7604152D01*
X20570414Y7736200D01*
X20570410Y7736202D01*
X20566359Y7739402D01*
X20530028Y7759458D01*
X20476144Y7789203D01*
X20370789Y7847362D01*
X20365920Y7849086D01*
X20365916Y7849088D01*
X20165087Y7920205D01*
X20165083Y7920206D01*
X20160212Y7921931D01*
X20155119Y7922838D01*
X20155116Y7922839D01*
X19945373Y7960200D01*
X19945367Y7960201D01*
X19940284Y7961106D01*
X19866452Y7962008D01*
X19722081Y7963772D01*
X19722079Y7963772D01*
X19716911Y7963835D01*
X19496091Y7930045D01*
X19283756Y7860643D01*
X19227692Y7831458D01*
X19096336Y7763078D01*
X19085607Y7757493D01*
X19081474Y7754390D01*
X19081471Y7754388D01*
X18925229Y7637078D01*
X18906965Y7623365D01*
X18881541Y7596760D01*
X18813280Y7525329D01*
X18752629Y7461862D01*
X18645201Y7304379D01*
X18590293Y7259379D01*
X18519768Y7251208D01*
X18456021Y7282462D01*
X18435324Y7306946D01*
X18354822Y7431383D01*
X18354820Y7431386D01*
X18352014Y7435723D01*
X18201670Y7600949D01*
X18197619Y7604148D01*
X18197615Y7604152D01*
X18030414Y7736200D01*
X18030410Y7736202D01*
X18026359Y7739402D01*
X17990028Y7759458D01*
X17936144Y7789203D01*
X17830789Y7847362D01*
X17825920Y7849086D01*
X17825916Y7849088D01*
X17625087Y7920205D01*
X17625083Y7920206D01*
X17620212Y7921931D01*
X17615119Y7922838D01*
X17615116Y7922839D01*
X17405373Y7960200D01*
X17405367Y7960201D01*
X17400284Y7961106D01*
X17326452Y7962008D01*
X17182081Y7963772D01*
X17182079Y7963772D01*
X17176911Y7963835D01*
X16956091Y7930045D01*
X16743756Y7860643D01*
X16687692Y7831458D01*
X16556336Y7763078D01*
X16545607Y7757493D01*
X16541474Y7754390D01*
X16541471Y7754388D01*
X16385229Y7637078D01*
X16366965Y7623365D01*
X16341541Y7596760D01*
X16273280Y7525329D01*
X16212629Y7461862D01*
X16086743Y7277320D01*
X15992688Y7074695D01*
X15932989Y6859430D01*
X15909251Y6637305D01*
X15922110Y6414285D01*
X15923247Y6409239D01*
X15923248Y6409233D01*
X15934031Y6361386D01*
X15971222Y6196361D01*
X16055266Y5989384D01*
X16106942Y5905056D01*
X16169291Y5803312D01*
X16171987Y5798912D01*
X16318250Y5630062D01*
X16490126Y5487368D01*
X16560595Y5446189D01*
X16563445Y5444524D01*
X16612169Y5392886D01*
X16625240Y5323103D01*
X16598509Y5257331D01*
X16558055Y5223973D01*
X16545607Y5217493D01*
X16541474Y5214390D01*
X16541471Y5214388D01*
X16417567Y5121358D01*
X16366965Y5083365D01*
X16212629Y4921862D01*
X16086743Y4737320D01*
X15992688Y4534695D01*
X15932989Y4319430D01*
X15909251Y4097305D01*
X15909548Y4092152D01*
X15909548Y4092149D01*
X15915011Y3997410D01*
X15922110Y3874285D01*
X15923247Y3869239D01*
X15923248Y3869233D01*
X15943119Y3781061D01*
X15971222Y3656361D01*
X16055266Y3449384D01*
X16106019Y3366562D01*
X16169291Y3263312D01*
X16171987Y3258912D01*
X16318250Y3090062D01*
X16490126Y2947368D01*
X16683000Y2834662D01*
X16891692Y2754970D01*
X16896760Y2753939D01*
X16896763Y2753938D01*
X16991862Y2734590D01*
X17110597Y2710433D01*
X17115772Y2710243D01*
X17115774Y2710243D01*
X17328673Y2702436D01*
X17328677Y2702436D01*
X17333837Y2702247D01*
X17338957Y2702903D01*
X17338959Y2702903D01*
X17550288Y2729975D01*
X17550289Y2729975D01*
X17555416Y2730632D01*
X17560366Y2732117D01*
X17764429Y2793339D01*
X17764434Y2793341D01*
X17769384Y2794826D01*
X17969994Y2893104D01*
X18151860Y3022827D01*
X18310096Y3180511D01*
X18369594Y3263311D01*
X18440453Y3361923D01*
X18441776Y3360972D01*
X18488645Y3404143D01*
X18558580Y3416375D01*
X18624026Y3388856D01*
X18651875Y3357006D01*
X18711987Y3258912D01*
X18858250Y3090062D01*
X19030126Y2947368D01*
X19223000Y2834662D01*
X19431692Y2754970D01*
X19436760Y2753939D01*
X19436763Y2753938D01*
X19531862Y2734590D01*
X19650597Y2710433D01*
X19655772Y2710243D01*
X19655774Y2710243D01*
X19868673Y2702436D01*
X19868677Y2702436D01*
X19873837Y2702247D01*
X19878957Y2702903D01*
X19878959Y2702903D01*
X20090288Y2729975D01*
X20090289Y2729975D01*
X20095416Y2730632D01*
X20100366Y2732117D01*
X20304429Y2793339D01*
X20304434Y2793341D01*
X20309384Y2794826D01*
X20509994Y2893104D01*
X20691860Y3022827D01*
X20850096Y3180511D01*
X20909594Y3263311D01*
X20980453Y3361923D01*
X20981776Y3360972D01*
X21028645Y3404143D01*
X21098580Y3416375D01*
X21164026Y3388856D01*
X21191875Y3357006D01*
X21251987Y3258912D01*
X21398250Y3090062D01*
X21570126Y2947368D01*
X21763000Y2834662D01*
X21971692Y2754970D01*
X21976760Y2753939D01*
X21976763Y2753938D01*
X22071862Y2734590D01*
X22190597Y2710433D01*
X22195772Y2710243D01*
X22195774Y2710243D01*
X22408673Y2702436D01*
X22408677Y2702436D01*
X22413837Y2702247D01*
X22418957Y2702903D01*
X22418959Y2702903D01*
X22630288Y2729975D01*
X22630289Y2729975D01*
X22635416Y2730632D01*
X22640366Y2732117D01*
X22844429Y2793339D01*
X22844434Y2793341D01*
X22849384Y2794826D01*
X23049994Y2893104D01*
X23231860Y3022827D01*
X23390096Y3180511D01*
X23449594Y3263311D01*
X23520453Y3361923D01*
X23521776Y3360972D01*
X23568645Y3404143D01*
X23638580Y3416375D01*
X23704026Y3388856D01*
X23731875Y3357006D01*
X23791987Y3258912D01*
X23938250Y3090062D01*
X24110126Y2947368D01*
X24303000Y2834662D01*
X24511692Y2754970D01*
X24516760Y2753939D01*
X24516763Y2753938D01*
X24611862Y2734590D01*
X24730597Y2710433D01*
X24735772Y2710243D01*
X24735774Y2710243D01*
X24948673Y2702436D01*
X24948677Y2702436D01*
X24953837Y2702247D01*
X24958957Y2702903D01*
X24958959Y2702903D01*
X25170288Y2729975D01*
X25170289Y2729975D01*
X25175416Y2730632D01*
X25180366Y2732117D01*
X25384429Y2793339D01*
X25384434Y2793341D01*
X25389384Y2794826D01*
X25589994Y2893104D01*
X25771860Y3022827D01*
X25930096Y3180511D01*
X25989594Y3263311D01*
X26060453Y3361923D01*
X26061776Y3360972D01*
X26108645Y3404143D01*
X26178580Y3416375D01*
X26244026Y3388856D01*
X26271875Y3357006D01*
X26331987Y3258912D01*
X26478250Y3090062D01*
X26650126Y2947368D01*
X26843000Y2834662D01*
X27051692Y2754970D01*
X27056760Y2753939D01*
X27056763Y2753938D01*
X27151862Y2734590D01*
X27270597Y2710433D01*
X27275772Y2710243D01*
X27275774Y2710243D01*
X27488673Y2702436D01*
X27488677Y2702436D01*
X27493837Y2702247D01*
X27498957Y2702903D01*
X27498959Y2702903D01*
X27710288Y2729975D01*
X27710289Y2729975D01*
X27715416Y2730632D01*
X27720366Y2732117D01*
X27924429Y2793339D01*
X27924434Y2793341D01*
X27929384Y2794826D01*
X28129994Y2893104D01*
X28311860Y3022827D01*
X28470096Y3180511D01*
X28529594Y3263311D01*
X28600453Y3361923D01*
X28601776Y3360972D01*
X28648645Y3404143D01*
X28718580Y3416375D01*
X28784026Y3388856D01*
X28811875Y3357006D01*
X28871987Y3258912D01*
X29018250Y3090062D01*
X29190126Y2947368D01*
X29383000Y2834662D01*
X29591692Y2754970D01*
X29596760Y2753939D01*
X29596763Y2753938D01*
X29691862Y2734590D01*
X29810597Y2710433D01*
X29815772Y2710243D01*
X29815774Y2710243D01*
X30028673Y2702436D01*
X30028677Y2702436D01*
X30033837Y2702247D01*
X30038957Y2702903D01*
X30038959Y2702903D01*
X30250288Y2729975D01*
X30250289Y2729975D01*
X30255416Y2730632D01*
X30260366Y2732117D01*
X30464429Y2793339D01*
X30464434Y2793341D01*
X30469384Y2794826D01*
X30669994Y2893104D01*
X30851860Y3022827D01*
X31010096Y3180511D01*
X31069594Y3263311D01*
X31140453Y3361923D01*
X31141776Y3360972D01*
X31188645Y3404143D01*
X31258580Y3416375D01*
X31324026Y3388856D01*
X31351875Y3357006D01*
X31411987Y3258912D01*
X31558250Y3090062D01*
X31730126Y2947368D01*
X31923000Y2834662D01*
X32131692Y2754970D01*
X32136760Y2753939D01*
X32136763Y2753938D01*
X32231862Y2734590D01*
X32350597Y2710433D01*
X32355772Y2710243D01*
X32355774Y2710243D01*
X32568673Y2702436D01*
X32568677Y2702436D01*
X32573837Y2702247D01*
X32578957Y2702903D01*
X32578959Y2702903D01*
X32790288Y2729975D01*
X32790289Y2729975D01*
X32795416Y2730632D01*
X32800366Y2732117D01*
X33004429Y2793339D01*
X33004434Y2793341D01*
X33009384Y2794826D01*
X33209994Y2893104D01*
X33391860Y3022827D01*
X33550096Y3180511D01*
X33609594Y3263311D01*
X33680453Y3361923D01*
X33681776Y3360972D01*
X33728645Y3404143D01*
X33798580Y3416375D01*
X33864026Y3388856D01*
X33891875Y3357006D01*
X33951987Y3258912D01*
X34098250Y3090062D01*
X34270126Y2947368D01*
X34463000Y2834662D01*
X34671692Y2754970D01*
X34676760Y2753939D01*
X34676763Y2753938D01*
X34771862Y2734590D01*
X34890597Y2710433D01*
X34895772Y2710243D01*
X34895774Y2710243D01*
X35108673Y2702436D01*
X35108677Y2702436D01*
X35113837Y2702247D01*
X35118957Y2702903D01*
X35118959Y2702903D01*
X35330288Y2729975D01*
X35330289Y2729975D01*
X35335416Y2730632D01*
X35340366Y2732117D01*
X35544429Y2793339D01*
X35544434Y2793341D01*
X35549384Y2794826D01*
X35749994Y2893104D01*
X35931860Y3022827D01*
X36090096Y3180511D01*
X36149594Y3263311D01*
X36220453Y3361923D01*
X36221776Y3360972D01*
X36268645Y3404143D01*
X36338580Y3416375D01*
X36404026Y3388856D01*
X36431875Y3357006D01*
X36491987Y3258912D01*
X36638250Y3090062D01*
X36810126Y2947368D01*
X37003000Y2834662D01*
X37211692Y2754970D01*
X37216760Y2753939D01*
X37216763Y2753938D01*
X37311862Y2734590D01*
X37430597Y2710433D01*
X37435772Y2710243D01*
X37435774Y2710243D01*
X37648673Y2702436D01*
X37648677Y2702436D01*
X37653837Y2702247D01*
X37658957Y2702903D01*
X37658959Y2702903D01*
X37870288Y2729975D01*
X37870289Y2729975D01*
X37875416Y2730632D01*
X37880366Y2732117D01*
X38084429Y2793339D01*
X38084434Y2793341D01*
X38089384Y2794826D01*
X38289994Y2893104D01*
X38471860Y3022827D01*
X38630096Y3180511D01*
X38689594Y3263311D01*
X38760453Y3361923D01*
X38761776Y3360972D01*
X38808645Y3404143D01*
X38878580Y3416375D01*
X38944026Y3388856D01*
X38971875Y3357006D01*
X39031987Y3258912D01*
X39178250Y3090062D01*
X39350126Y2947368D01*
X39543000Y2834662D01*
X39751692Y2754970D01*
X39756760Y2753939D01*
X39756763Y2753938D01*
X39851862Y2734590D01*
X39970597Y2710433D01*
X39975772Y2710243D01*
X39975774Y2710243D01*
X40188673Y2702436D01*
X40188677Y2702436D01*
X40193837Y2702247D01*
X40198957Y2702903D01*
X40198959Y2702903D01*
X40410288Y2729975D01*
X40410289Y2729975D01*
X40415416Y2730632D01*
X40420366Y2732117D01*
X40624429Y2793339D01*
X40624434Y2793341D01*
X40629384Y2794826D01*
X40829994Y2893104D01*
X41011860Y3022827D01*
X41170096Y3180511D01*
X41229594Y3263311D01*
X41300453Y3361923D01*
X41301776Y3360972D01*
X41348645Y3404143D01*
X41418580Y3416375D01*
X41484026Y3388856D01*
X41511875Y3357006D01*
X41571987Y3258912D01*
X41718250Y3090062D01*
X41890126Y2947368D01*
X42083000Y2834662D01*
X42291692Y2754970D01*
X42296760Y2753939D01*
X42296763Y2753938D01*
X42391862Y2734590D01*
X42510597Y2710433D01*
X42515772Y2710243D01*
X42515774Y2710243D01*
X42728673Y2702436D01*
X42728677Y2702436D01*
X42733837Y2702247D01*
X42738957Y2702903D01*
X42738959Y2702903D01*
X42950288Y2729975D01*
X42950289Y2729975D01*
X42955416Y2730632D01*
X42960366Y2732117D01*
X43164429Y2793339D01*
X43164434Y2793341D01*
X43169384Y2794826D01*
X43369994Y2893104D01*
X43551860Y3022827D01*
X43710096Y3180511D01*
X43769594Y3263311D01*
X43840453Y3361923D01*
X43841776Y3360972D01*
X43888645Y3404143D01*
X43958580Y3416375D01*
X44024026Y3388856D01*
X44051875Y3357006D01*
X44111987Y3258912D01*
X44258250Y3090062D01*
X44430126Y2947368D01*
X44623000Y2834662D01*
X44831692Y2754970D01*
X44836760Y2753939D01*
X44836763Y2753938D01*
X44931862Y2734590D01*
X45050597Y2710433D01*
X45055772Y2710243D01*
X45055774Y2710243D01*
X45268673Y2702436D01*
X45268677Y2702436D01*
X45273837Y2702247D01*
X45278957Y2702903D01*
X45278959Y2702903D01*
X45490288Y2729975D01*
X45490289Y2729975D01*
X45495416Y2730632D01*
X45500366Y2732117D01*
X45704429Y2793339D01*
X45704434Y2793341D01*
X45709384Y2794826D01*
X45909994Y2893104D01*
X46091860Y3022827D01*
X46250096Y3180511D01*
X46309594Y3263311D01*
X46380453Y3361923D01*
X46381776Y3360972D01*
X46428645Y3404143D01*
X46498580Y3416375D01*
X46564026Y3388856D01*
X46591875Y3357006D01*
X46651987Y3258912D01*
X46798250Y3090062D01*
X46970126Y2947368D01*
X47163000Y2834662D01*
X47371692Y2754970D01*
X47376760Y2753939D01*
X47376763Y2753938D01*
X47471862Y2734590D01*
X47590597Y2710433D01*
X47595772Y2710243D01*
X47595774Y2710243D01*
X47808673Y2702436D01*
X47808677Y2702436D01*
X47813837Y2702247D01*
X47818957Y2702903D01*
X47818959Y2702903D01*
X48030288Y2729975D01*
X48030289Y2729975D01*
X48035416Y2730632D01*
X48040366Y2732117D01*
X48244429Y2793339D01*
X48244434Y2793341D01*
X48249384Y2794826D01*
X48449994Y2893104D01*
X48631860Y3022827D01*
X48790096Y3180511D01*
X48849594Y3263311D01*
X48920453Y3361923D01*
X48921640Y3361070D01*
X48968960Y3404638D01*
X49038897Y3416855D01*
X49104338Y3389322D01*
X49132166Y3357489D01*
X49189694Y3263612D01*
X49195777Y3255301D01*
X49335213Y3094333D01*
X49342580Y3087117D01*
X49506434Y2951084D01*
X49514881Y2945169D01*
X49698756Y2837721D01*
X49708042Y2833271D01*
X49907001Y2757297D01*
X49916899Y2754421D01*
X50020250Y2733394D01*
X50034299Y2734590D01*
X50038000Y2744935D01*
X50038000Y4192000D01*
X50058002Y4260121D01*
X50111658Y4306614D01*
X50164000Y4318000D01*
X50420000Y4318000D01*
X50488121Y4297998D01*
X50534614Y4244342D01*
X50546000Y4192000D01*
X50546000Y2745483D01*
X50550064Y2731641D01*
X50563478Y2729607D01*
X50570184Y2730466D01*
X50580262Y2732608D01*
X50784255Y2793809D01*
X50793842Y2797567D01*
X50985095Y2891261D01*
X50993945Y2896536D01*
X51167328Y3020208D01*
X51175200Y3026861D01*
X51326052Y3177188D01*
X51332730Y3185035D01*
X51460022Y3362181D01*
X51461279Y3361278D01*
X51508373Y3404638D01*
X51578311Y3416855D01*
X51643751Y3389322D01*
X51671579Y3357489D01*
X51731987Y3258912D01*
X51878250Y3090062D01*
X52050126Y2947368D01*
X52243000Y2834662D01*
X52451692Y2754970D01*
X52456760Y2753939D01*
X52456763Y2753938D01*
X52551862Y2734590D01*
X52670597Y2710433D01*
X52675772Y2710243D01*
X52675774Y2710243D01*
X52888673Y2702436D01*
X52888677Y2702436D01*
X52893837Y2702247D01*
X52898957Y2702903D01*
X52898959Y2702903D01*
X53110288Y2729975D01*
X53110289Y2729975D01*
X53115416Y2730632D01*
X53120366Y2732117D01*
X53324429Y2793339D01*
X53324434Y2793341D01*
X53329384Y2794826D01*
X53529994Y2893104D01*
X53711860Y3022827D01*
X53870096Y3180511D01*
X53929594Y3263311D01*
X54000453Y3361923D01*
X54001776Y3360972D01*
X54048645Y3404143D01*
X54118580Y3416375D01*
X54184026Y3388856D01*
X54211875Y3357006D01*
X54271987Y3258912D01*
X54418250Y3090062D01*
X54590126Y2947368D01*
X54783000Y2834662D01*
X54991692Y2754970D01*
X54996760Y2753939D01*
X54996763Y2753938D01*
X55091862Y2734590D01*
X55210597Y2710433D01*
X55215772Y2710243D01*
X55215774Y2710243D01*
X55428673Y2702436D01*
X55428677Y2702436D01*
X55433837Y2702247D01*
X55438957Y2702903D01*
X55438959Y2702903D01*
X55650288Y2729975D01*
X55650289Y2729975D01*
X55655416Y2730632D01*
X55660366Y2732117D01*
X55864429Y2793339D01*
X55864434Y2793341D01*
X55869384Y2794826D01*
X56069994Y2893104D01*
X56251860Y3022827D01*
X56410096Y3180511D01*
X56469594Y3263311D01*
X56540453Y3361923D01*
X56541776Y3360972D01*
X56588645Y3404143D01*
X56658580Y3416375D01*
X56724026Y3388856D01*
X56751875Y3357006D01*
X56811987Y3258912D01*
X56958250Y3090062D01*
X57130126Y2947368D01*
X57323000Y2834662D01*
X57531692Y2754970D01*
X57536760Y2753939D01*
X57536763Y2753938D01*
X57631862Y2734590D01*
X57750597Y2710433D01*
X57755772Y2710243D01*
X57755774Y2710243D01*
X57968673Y2702436D01*
X57968677Y2702436D01*
X57973837Y2702247D01*
X57978957Y2702903D01*
X57978959Y2702903D01*
X58190288Y2729975D01*
X58190289Y2729975D01*
X58195416Y2730632D01*
X58200366Y2732117D01*
X58404429Y2793339D01*
X58404434Y2793341D01*
X58409384Y2794826D01*
X58609994Y2893104D01*
X58791860Y3022827D01*
X58950096Y3180511D01*
X59009594Y3263311D01*
X59080453Y3361923D01*
X59081776Y3360972D01*
X59128645Y3404143D01*
X59198580Y3416375D01*
X59264026Y3388856D01*
X59291875Y3357006D01*
X59351987Y3258912D01*
X59498250Y3090062D01*
X59670126Y2947368D01*
X59863000Y2834662D01*
X60071692Y2754970D01*
X60076760Y2753939D01*
X60076763Y2753938D01*
X60171862Y2734590D01*
X60290597Y2710433D01*
X60295772Y2710243D01*
X60295774Y2710243D01*
X60508673Y2702436D01*
X60508677Y2702436D01*
X60513837Y2702247D01*
X60518957Y2702903D01*
X60518959Y2702903D01*
X60730288Y2729975D01*
X60730289Y2729975D01*
X60735416Y2730632D01*
X60740366Y2732117D01*
X60944429Y2793339D01*
X60944434Y2793341D01*
X60949384Y2794826D01*
X61149994Y2893104D01*
X61331860Y3022827D01*
X61490096Y3180511D01*
X61549594Y3263311D01*
X61620453Y3361923D01*
X61621776Y3360972D01*
X61668645Y3404143D01*
X61738580Y3416375D01*
X61804026Y3388856D01*
X61831875Y3357006D01*
X61891987Y3258912D01*
X62038250Y3090062D01*
X62210126Y2947368D01*
X62403000Y2834662D01*
X62611692Y2754970D01*
X62616760Y2753939D01*
X62616763Y2753938D01*
X62711862Y2734590D01*
X62830597Y2710433D01*
X62835772Y2710243D01*
X62835774Y2710243D01*
X63048673Y2702436D01*
X63048677Y2702436D01*
X63053837Y2702247D01*
X63058957Y2702903D01*
X63058959Y2702903D01*
X63270288Y2729975D01*
X63270289Y2729975D01*
X63275416Y2730632D01*
X63280366Y2732117D01*
X63484429Y2793339D01*
X63484434Y2793341D01*
X63489384Y2794826D01*
X63689994Y2893104D01*
X63871860Y3022827D01*
X64030096Y3180511D01*
X64089594Y3263311D01*
X64160453Y3361923D01*
X64161776Y3360972D01*
X64208645Y3404143D01*
X64278580Y3416375D01*
X64344026Y3388856D01*
X64371875Y3357006D01*
X64431987Y3258912D01*
X64578250Y3090062D01*
X64750126Y2947368D01*
X64943000Y2834662D01*
X65151692Y2754970D01*
X65156760Y2753939D01*
X65156763Y2753938D01*
X65251862Y2734590D01*
X65370597Y2710433D01*
X65375772Y2710243D01*
X65375774Y2710243D01*
X65588673Y2702436D01*
X65588677Y2702436D01*
X65593837Y2702247D01*
X65598957Y2702903D01*
X65598959Y2702903D01*
X65810288Y2729975D01*
X65810289Y2729975D01*
X65815416Y2730632D01*
X65820366Y2732117D01*
X66024429Y2793339D01*
X66024434Y2793341D01*
X66029384Y2794826D01*
X66229994Y2893104D01*
X66411860Y3022827D01*
X66570096Y3180511D01*
X66629594Y3263311D01*
X66700453Y3361923D01*
X66701776Y3360972D01*
X66748645Y3404143D01*
X66818580Y3416375D01*
X66884026Y3388856D01*
X66911875Y3357006D01*
X66971987Y3258912D01*
X67118250Y3090062D01*
X67290126Y2947368D01*
X67483000Y2834662D01*
X67691692Y2754970D01*
X67696760Y2753939D01*
X67696763Y2753938D01*
X67791862Y2734590D01*
X67910597Y2710433D01*
X67915772Y2710243D01*
X67915774Y2710243D01*
X68128673Y2702436D01*
X68128677Y2702436D01*
X68133837Y2702247D01*
X68138957Y2702903D01*
X68138959Y2702903D01*
X68350288Y2729975D01*
X68350289Y2729975D01*
X68355416Y2730632D01*
X68360366Y2732117D01*
X68564429Y2793339D01*
X68564434Y2793341D01*
X68569384Y2794826D01*
X68769994Y2893104D01*
X68951860Y3022827D01*
X69110096Y3180511D01*
X69169594Y3263311D01*
X69240453Y3361923D01*
X69241776Y3360972D01*
X69288645Y3404143D01*
X69358580Y3416375D01*
X69424026Y3388856D01*
X69451875Y3357006D01*
X69511987Y3258912D01*
X69658250Y3090062D01*
X69830126Y2947368D01*
X70023000Y2834662D01*
X70231692Y2754970D01*
X70236760Y2753939D01*
X70236763Y2753938D01*
X70331862Y2734590D01*
X70450597Y2710433D01*
X70455772Y2710243D01*
X70455774Y2710243D01*
X70668673Y2702436D01*
X70668677Y2702436D01*
X70673837Y2702247D01*
X70678957Y2702903D01*
X70678959Y2702903D01*
X70890288Y2729975D01*
X70890289Y2729975D01*
X70895416Y2730632D01*
X70900366Y2732117D01*
X71104429Y2793339D01*
X71104434Y2793341D01*
X71109384Y2794826D01*
X71309994Y2893104D01*
X71491860Y3022827D01*
X71650096Y3180511D01*
X71709594Y3263311D01*
X71780453Y3361923D01*
X71781776Y3360972D01*
X71828645Y3404143D01*
X71898580Y3416375D01*
X71964026Y3388856D01*
X71991875Y3357006D01*
X72051987Y3258912D01*
X72198250Y3090062D01*
X72370126Y2947368D01*
X72563000Y2834662D01*
X72771692Y2754970D01*
X72776760Y2753939D01*
X72776763Y2753938D01*
X72871862Y2734590D01*
X72990597Y2710433D01*
X72995772Y2710243D01*
X72995774Y2710243D01*
X73208673Y2702436D01*
X73208677Y2702436D01*
X73213837Y2702247D01*
X73218957Y2702903D01*
X73218959Y2702903D01*
X73430288Y2729975D01*
X73430289Y2729975D01*
X73435416Y2730632D01*
X73440366Y2732117D01*
X73644429Y2793339D01*
X73644434Y2793341D01*
X73649384Y2794826D01*
X73849994Y2893104D01*
X74031860Y3022827D01*
X74190096Y3180511D01*
X74249594Y3263311D01*
X74320453Y3361923D01*
X74321776Y3360972D01*
X74368645Y3404143D01*
X74438580Y3416375D01*
X74504026Y3388856D01*
X74531875Y3357006D01*
X74591987Y3258912D01*
X74738250Y3090062D01*
X74910126Y2947368D01*
X75103000Y2834662D01*
X75311692Y2754970D01*
X75316760Y2753939D01*
X75316763Y2753938D01*
X75411862Y2734590D01*
X75530597Y2710433D01*
X75535772Y2710243D01*
X75535774Y2710243D01*
X75748673Y2702436D01*
X75748677Y2702436D01*
X75753837Y2702247D01*
X75758957Y2702903D01*
X75758959Y2702903D01*
X75970288Y2729975D01*
X75970289Y2729975D01*
X75975416Y2730632D01*
X75980366Y2732117D01*
X76184429Y2793339D01*
X76184434Y2793341D01*
X76189384Y2794826D01*
X76389994Y2893104D01*
X76571860Y3022827D01*
X76730096Y3180511D01*
X76789594Y3263311D01*
X76860453Y3361923D01*
X76861776Y3360972D01*
X76908645Y3404143D01*
X76978580Y3416375D01*
X77044026Y3388856D01*
X77071875Y3357006D01*
X77131987Y3258912D01*
X77278250Y3090062D01*
X77450126Y2947368D01*
X77643000Y2834662D01*
X77851692Y2754970D01*
X77856760Y2753939D01*
X77856763Y2753938D01*
X77951862Y2734590D01*
X78070597Y2710433D01*
X78075772Y2710243D01*
X78075774Y2710243D01*
X78288673Y2702436D01*
X78288677Y2702436D01*
X78293837Y2702247D01*
X78298957Y2702903D01*
X78298959Y2702903D01*
X78510288Y2729975D01*
X78510289Y2729975D01*
X78515416Y2730632D01*
X78520366Y2732117D01*
X78724429Y2793339D01*
X78724434Y2793341D01*
X78729384Y2794826D01*
X78929994Y2893104D01*
X79111860Y3022827D01*
X79270096Y3180511D01*
X79329594Y3263311D01*
X79397435Y3357723D01*
X79400453Y3361923D01*
X79413995Y3389322D01*
X79497136Y3557547D01*
X79497137Y3557549D01*
X79499430Y3562189D01*
X79564370Y3775931D01*
X79593529Y3997410D01*
X79595156Y4064000D01*
X79576852Y4286639D01*
X79522431Y4503298D01*
X79433354Y4708160D01*
X79353249Y4831983D01*
X79314822Y4891383D01*
X79314820Y4891386D01*
X79312014Y4895723D01*
X79308532Y4899550D01*
X79164798Y5057512D01*
X79133746Y5121358D01*
X79142141Y5191857D01*
X79187317Y5246625D01*
X79213761Y5260294D01*
X79320297Y5300233D01*
X79328705Y5303385D01*
X79445261Y5390739D01*
X79532615Y5507295D01*
X79583745Y5643684D01*
X79590500Y5705866D01*
X79590500Y7502134D01*
X79583745Y7564316D01*
X79532615Y7700705D01*
X79445261Y7817261D01*
X79328705Y7904615D01*
X79192316Y7955745D01*
X79130134Y7962500D01*
X77333866Y7962500D01*
X77271684Y7955745D01*
X77135295Y7904615D01*
X77018739Y7817261D01*
X76931385Y7700705D01*
X76928233Y7692297D01*
X76886919Y7582093D01*
X76844277Y7525329D01*
X76777716Y7500629D01*
X76708367Y7515837D01*
X76675743Y7541524D01*
X76625151Y7597125D01*
X76625142Y7597134D01*
X76621670Y7600949D01*
X76617619Y7604148D01*
X76617615Y7604152D01*
X76450414Y7736200D01*
X76450410Y7736202D01*
X76446359Y7739402D01*
X76410028Y7759458D01*
X76356144Y7789203D01*
X76250789Y7847362D01*
X76245920Y7849086D01*
X76245916Y7849088D01*
X76045087Y7920205D01*
X76045083Y7920206D01*
X76040212Y7921931D01*
X76035119Y7922838D01*
X76035116Y7922839D01*
X75825373Y7960200D01*
X75825367Y7960201D01*
X75820284Y7961106D01*
X75746452Y7962008D01*
X75602081Y7963772D01*
X75602079Y7963772D01*
X75596911Y7963835D01*
X75376091Y7930045D01*
X75163756Y7860643D01*
X75107692Y7831458D01*
X74976336Y7763078D01*
X74965607Y7757493D01*
X74961474Y7754390D01*
X74961471Y7754388D01*
X74941512Y7739402D01*
X74878844Y7692349D01*
X74863306Y7680683D01*
X74796821Y7655777D01*
X74727426Y7670769D01*
X74698558Y7692348D01*
X55195164Y27195743D01*
X55187624Y27204029D01*
X55183512Y27210508D01*
X55133860Y27257134D01*
X55131019Y27259888D01*
X55111282Y27279625D01*
X55108085Y27282105D01*
X55099063Y27289810D01*
X55072612Y27314649D01*
X55066833Y27320076D01*
X55059887Y27323895D01*
X55059884Y27323897D01*
X55049078Y27329838D01*
X55032559Y27340689D01*
X55032095Y27341049D01*
X55016553Y27353104D01*
X55009284Y27356249D01*
X55009280Y27356252D01*
X54975975Y27370664D01*
X54965325Y27375881D01*
X54926572Y27397185D01*
X54906949Y27402223D01*
X54888246Y27408627D01*
X54876932Y27413523D01*
X54876931Y27413523D01*
X54869657Y27416671D01*
X54861834Y27417910D01*
X54861824Y27417913D01*
X54825988Y27423589D01*
X54814368Y27425995D01*
X54779223Y27435018D01*
X54779222Y27435018D01*
X54771542Y27436990D01*
X54751288Y27436990D01*
X54731577Y27438541D01*
X54719398Y27440470D01*
X54711569Y27441710D01*
X54703677Y27440964D01*
X54667551Y27437549D01*
X54655693Y27436990D01*
X51108104Y27436990D01*
X51039983Y27456992D01*
X51019009Y27473895D01*
X49158494Y29334411D01*
X49124468Y29396723D01*
X49129533Y29467539D01*
X49134323Y29473938D01*
X54142493Y29473938D01*
X54151789Y29461923D01*
X54202994Y29426069D01*
X54212489Y29420586D01*
X54409947Y29328510D01*
X54420239Y29324764D01*
X54630688Y29268375D01*
X54641481Y29266472D01*
X54858525Y29247483D01*
X54869475Y29247483D01*
X55086519Y29266472D01*
X55097312Y29268375D01*
X55307761Y29324764D01*
X55318053Y29328510D01*
X55515511Y29420586D01*
X55525006Y29426069D01*
X55577048Y29462509D01*
X55585424Y29472988D01*
X55578356Y29486434D01*
X54876812Y30187978D01*
X54862868Y30195592D01*
X54861035Y30195461D01*
X54854420Y30191210D01*
X54148923Y29485713D01*
X54142493Y29473938D01*
X49134323Y29473938D01*
X49172080Y29524374D01*
X49238600Y29549185D01*
X49258572Y29549026D01*
X49270515Y29547981D01*
X49270525Y29547981D01*
X49276000Y29547502D01*
X49504087Y29567457D01*
X49509400Y29568881D01*
X49509402Y29568881D01*
X49719933Y29625293D01*
X49719935Y29625294D01*
X49725243Y29626716D01*
X49731235Y29629510D01*
X49927762Y29721151D01*
X49927767Y29721154D01*
X49932749Y29723477D01*
X50037611Y29796902D01*
X50115789Y29851643D01*
X50115792Y29851645D01*
X50120300Y29854802D01*
X50282198Y30016700D01*
X50307834Y30053311D01*
X50377039Y30152147D01*
X50413523Y30204251D01*
X50415846Y30209233D01*
X50415849Y30209238D01*
X50432081Y30244049D01*
X50478998Y30297334D01*
X50547275Y30316795D01*
X50615235Y30296253D01*
X50660471Y30244049D01*
X50676586Y30209489D01*
X50682069Y30199993D01*
X50807028Y30021533D01*
X50814084Y30013125D01*
X50968125Y29859084D01*
X50976533Y29852028D01*
X51154993Y29727069D01*
X51164489Y29721586D01*
X51361947Y29629510D01*
X51372239Y29625764D01*
X51544503Y29579606D01*
X51558599Y29579942D01*
X51562000Y29587884D01*
X51562000Y29593033D01*
X52070000Y29593033D01*
X52073973Y29579502D01*
X52082522Y29578273D01*
X52259761Y29625764D01*
X52270053Y29629510D01*
X52467511Y29721586D01*
X52477007Y29727069D01*
X52655467Y29852028D01*
X52663875Y29859084D01*
X52817916Y30013125D01*
X52824972Y30021533D01*
X52949931Y30199993D01*
X52955414Y30209489D01*
X53047490Y30406947D01*
X53051236Y30417239D01*
X53097394Y30589503D01*
X53097058Y30603599D01*
X53089116Y30607000D01*
X52088115Y30607000D01*
X52072876Y30602525D01*
X52071671Y30601135D01*
X52070000Y30593452D01*
X52070000Y29593033D01*
X51562000Y29593033D01*
X51562000Y30989000D01*
X51582002Y31057121D01*
X51635658Y31103614D01*
X51688000Y31115000D01*
X53083967Y31115000D01*
X53097498Y31118973D01*
X53098727Y31127522D01*
X53080944Y31193891D01*
X53082634Y31264867D01*
X53122429Y31323663D01*
X53187693Y31351610D01*
X53202651Y31352501D01*
X53592551Y31352501D01*
X53660672Y31332499D01*
X53707165Y31278843D01*
X53717269Y31208569D01*
X53706746Y31173251D01*
X53632510Y31014053D01*
X53628764Y31003761D01*
X53572375Y30793312D01*
X53570472Y30782519D01*
X53551483Y30565475D01*
X53551483Y30554525D01*
X53570472Y30337481D01*
X53572375Y30326688D01*
X53628764Y30116239D01*
X53632510Y30105947D01*
X53724586Y29908489D01*
X53730069Y29898994D01*
X53766509Y29846952D01*
X53776988Y29838576D01*
X53790434Y29845644D01*
X54774905Y30830115D01*
X54837217Y30864141D01*
X54908032Y30859076D01*
X54953095Y30830115D01*
X55938287Y29844923D01*
X55950062Y29838493D01*
X55962077Y29847789D01*
X55997931Y29898994D01*
X56003414Y29908489D01*
X56095490Y30105947D01*
X56099236Y30116239D01*
X56155625Y30326688D01*
X56157528Y30337481D01*
X56176517Y30554525D01*
X56176517Y30565475D01*
X56157528Y30782519D01*
X56155625Y30793312D01*
X56099236Y31003761D01*
X56095490Y31014053D01*
X56021254Y31173251D01*
X56010593Y31243442D01*
X56039573Y31308255D01*
X56098992Y31347112D01*
X56135449Y31352501D01*
X56232128Y31352501D01*
X56300249Y31332499D01*
X56321223Y31315596D01*
X56639829Y30996990D01*
X56673855Y30934678D01*
X56676255Y30896913D01*
X56662002Y30734000D01*
X56681957Y30505913D01*
X56683381Y30500600D01*
X56683381Y30500598D01*
X56738136Y30296253D01*
X56741216Y30284757D01*
X56743539Y30279776D01*
X56743539Y30279775D01*
X56835651Y30082238D01*
X56835654Y30082233D01*
X56837977Y30077251D01*
X56889293Y30003965D01*
X56956146Y29908489D01*
X56969302Y29889700D01*
X57131200Y29727802D01*
X57135708Y29724645D01*
X57135711Y29724643D01*
X57213889Y29669902D01*
X57318751Y29596477D01*
X57323733Y29594154D01*
X57323738Y29594151D01*
X57520265Y29502510D01*
X57526257Y29499716D01*
X57531565Y29498294D01*
X57531567Y29498293D01*
X57742098Y29441881D01*
X57742100Y29441881D01*
X57747413Y29440457D01*
X57975500Y29420502D01*
X58203587Y29440457D01*
X58208900Y29441881D01*
X58208902Y29441881D01*
X58419433Y29498293D01*
X58419435Y29498294D01*
X58424743Y29499716D01*
X58430735Y29502510D01*
X58627262Y29594151D01*
X58627267Y29594154D01*
X58632249Y29596477D01*
X58737111Y29669902D01*
X58815289Y29724643D01*
X58815292Y29724645D01*
X58819800Y29727802D01*
X58981698Y29889700D01*
X59004155Y29921771D01*
X59059610Y29966099D01*
X59107367Y29975500D01*
X59383633Y29975500D01*
X59451754Y29955498D01*
X59486845Y29921772D01*
X59509302Y29889700D01*
X59671200Y29727802D01*
X59675708Y29724645D01*
X59675711Y29724643D01*
X59753889Y29669902D01*
X59858751Y29596477D01*
X59863733Y29594154D01*
X59863738Y29594151D01*
X60060265Y29502510D01*
X60066257Y29499716D01*
X60071565Y29498294D01*
X60071567Y29498293D01*
X60282098Y29441881D01*
X60282100Y29441881D01*
X60287413Y29440457D01*
X60515500Y29420502D01*
X60743587Y29440457D01*
X60748900Y29441881D01*
X60748902Y29441881D01*
X60959433Y29498293D01*
X60959435Y29498294D01*
X60964743Y29499716D01*
X60970735Y29502510D01*
X61167262Y29594151D01*
X61167267Y29594154D01*
X61172249Y29596477D01*
X61277111Y29669902D01*
X61355289Y29724643D01*
X61355292Y29724645D01*
X61359800Y29727802D01*
X61521698Y29889700D01*
X61534855Y29908489D01*
X61601707Y30003965D01*
X61653023Y30077251D01*
X61655346Y30082233D01*
X61655349Y30082238D01*
X61671305Y30116457D01*
X61718222Y30169742D01*
X61786499Y30189203D01*
X61854459Y30168661D01*
X61899695Y30116457D01*
X61915651Y30082238D01*
X61915654Y30082233D01*
X61917977Y30077251D01*
X61969293Y30003965D01*
X62036146Y29908489D01*
X62049302Y29889700D01*
X62211200Y29727802D01*
X62215708Y29724645D01*
X62215711Y29724643D01*
X62293889Y29669902D01*
X62398751Y29596477D01*
X62403733Y29594154D01*
X62403738Y29594151D01*
X62600265Y29502510D01*
X62606257Y29499716D01*
X62611565Y29498294D01*
X62611567Y29498293D01*
X62822098Y29441881D01*
X62822100Y29441881D01*
X62827413Y29440457D01*
X63055500Y29420502D01*
X63283587Y29440457D01*
X63288900Y29441881D01*
X63288902Y29441881D01*
X63499433Y29498293D01*
X63499435Y29498294D01*
X63504743Y29499716D01*
X63510735Y29502510D01*
X63707262Y29594151D01*
X63707267Y29594154D01*
X63712249Y29596477D01*
X63817111Y29669902D01*
X63895289Y29724643D01*
X63895292Y29724645D01*
X63899800Y29727802D01*
X64061698Y29889700D01*
X64074855Y29908489D01*
X64141707Y30003965D01*
X64193023Y30077251D01*
X64195346Y30082233D01*
X64195349Y30082238D01*
X64211305Y30116457D01*
X64258222Y30169742D01*
X64326499Y30189203D01*
X64394459Y30168661D01*
X64439695Y30116457D01*
X64455651Y30082238D01*
X64455654Y30082233D01*
X64457977Y30077251D01*
X64509293Y30003965D01*
X64576146Y29908489D01*
X64589302Y29889700D01*
X64751200Y29727802D01*
X64755708Y29724645D01*
X64755711Y29724643D01*
X64833889Y29669902D01*
X64938751Y29596477D01*
X64943733Y29594154D01*
X64943738Y29594151D01*
X65140265Y29502510D01*
X65146257Y29499716D01*
X65151565Y29498294D01*
X65151567Y29498293D01*
X65362098Y29441881D01*
X65362100Y29441881D01*
X65367413Y29440457D01*
X65595500Y29420502D01*
X65823587Y29440457D01*
X65828900Y29441881D01*
X65828902Y29441881D01*
X66039433Y29498293D01*
X66039435Y29498294D01*
X66044743Y29499716D01*
X66050735Y29502510D01*
X66247262Y29594151D01*
X66247267Y29594154D01*
X66252249Y29596477D01*
X66357111Y29669902D01*
X66435289Y29724643D01*
X66435292Y29724645D01*
X66439800Y29727802D01*
X66601698Y29889700D01*
X66614855Y29908489D01*
X66681707Y30003965D01*
X66733023Y30077251D01*
X66735346Y30082233D01*
X66735349Y30082238D01*
X66751305Y30116457D01*
X66798222Y30169742D01*
X66866499Y30189203D01*
X66934459Y30168661D01*
X66979695Y30116457D01*
X66995651Y30082238D01*
X66995654Y30082233D01*
X66997977Y30077251D01*
X67049293Y30003965D01*
X67116146Y29908489D01*
X67129302Y29889700D01*
X67291200Y29727802D01*
X67295708Y29724645D01*
X67295711Y29724643D01*
X67373889Y29669902D01*
X67478751Y29596477D01*
X67483733Y29594154D01*
X67483738Y29594151D01*
X67680265Y29502510D01*
X67686257Y29499716D01*
X67691565Y29498294D01*
X67691567Y29498293D01*
X67902098Y29441881D01*
X67902100Y29441881D01*
X67907413Y29440457D01*
X68135500Y29420502D01*
X68363587Y29440457D01*
X68368898Y29441880D01*
X68368909Y29441882D01*
X68427041Y29457459D01*
X68498017Y29455770D01*
X68548748Y29424848D01*
X68901843Y29071753D01*
X68909387Y29063463D01*
X68913500Y29056982D01*
X68919277Y29051557D01*
X68963167Y29010342D01*
X68966009Y29007587D01*
X68985730Y28987866D01*
X68988925Y28985388D01*
X68997947Y28977682D01*
X69030179Y28947414D01*
X69037128Y28943594D01*
X69047932Y28937654D01*
X69064456Y28926801D01*
X69080459Y28914387D01*
X69121043Y28896824D01*
X69131673Y28891617D01*
X69170440Y28870305D01*
X69178117Y28868334D01*
X69178122Y28868332D01*
X69190058Y28865268D01*
X69208766Y28858863D01*
X69227355Y28850819D01*
X69235183Y28849579D01*
X69235190Y28849577D01*
X69271024Y28843901D01*
X69282644Y28841495D01*
X69317789Y28832472D01*
X69325470Y28830500D01*
X69345724Y28830500D01*
X69365434Y28828949D01*
X69385443Y28825780D01*
X69393335Y28826526D01*
X69429461Y28829941D01*
X69441319Y28830500D01*
X69601812Y28830500D01*
X69669933Y28810498D01*
X69716426Y28756842D01*
X69726530Y28686568D01*
X69697036Y28621988D01*
X69690907Y28615405D01*
X69605802Y28530300D01*
X69602645Y28525792D01*
X69602643Y28525789D01*
X69547902Y28447611D01*
X69474477Y28342749D01*
X69472154Y28337767D01*
X69472151Y28337762D01*
X69381343Y28143022D01*
X69377716Y28135243D01*
X69376294Y28129935D01*
X69376293Y28129933D01*
X69322165Y27927927D01*
X69318457Y27914087D01*
X69298502Y27686000D01*
X69318457Y27457913D01*
X69319881Y27452600D01*
X69319881Y27452598D01*
X69364590Y27285745D01*
X69377716Y27236757D01*
X69380039Y27231776D01*
X69380039Y27231775D01*
X69472151Y27034238D01*
X69472154Y27034233D01*
X69474477Y27029251D01*
X69605802Y26841700D01*
X69767700Y26679802D01*
X69772208Y26676645D01*
X69772211Y26676643D01*
X69806777Y26652440D01*
X69955251Y26548477D01*
X69960233Y26546154D01*
X69960238Y26546151D01*
X70148438Y26458393D01*
X70162757Y26451716D01*
X70168065Y26450294D01*
X70168067Y26450293D01*
X70378598Y26393881D01*
X70378600Y26393881D01*
X70383913Y26392457D01*
X70612000Y26372502D01*
X70840087Y26392457D01*
X70845400Y26393881D01*
X70845402Y26393881D01*
X71055933Y26450293D01*
X71055935Y26450294D01*
X71061243Y26451716D01*
X71075562Y26458393D01*
X71263762Y26546151D01*
X71263767Y26546154D01*
X71268749Y26548477D01*
X71417223Y26652440D01*
X71451789Y26676643D01*
X71451792Y26676645D01*
X71456300Y26679802D01*
X71541405Y26764907D01*
X71603717Y26798933D01*
X71674532Y26793868D01*
X71731368Y26751321D01*
X71756179Y26684801D01*
X71756500Y26675812D01*
X71756500Y15699767D01*
X71755973Y15688584D01*
X71754298Y15681091D01*
X71754547Y15673165D01*
X71754547Y15673164D01*
X71756438Y15613014D01*
X71756500Y15609055D01*
X71756500Y15581144D01*
X71756997Y15577210D01*
X71756997Y15577209D01*
X71757005Y15577144D01*
X71757938Y15565307D01*
X71759327Y15521111D01*
X71764978Y15501661D01*
X71768987Y15482300D01*
X71771526Y15462203D01*
X71774445Y15454832D01*
X71774445Y15454830D01*
X71787804Y15421088D01*
X71791649Y15409858D01*
X71803982Y15367407D01*
X71808015Y15360588D01*
X71808017Y15360583D01*
X71814293Y15349972D01*
X71822988Y15332224D01*
X71830448Y15313383D01*
X71835110Y15306967D01*
X71835110Y15306966D01*
X71856436Y15277613D01*
X71862952Y15267693D01*
X71871070Y15253967D01*
X71885458Y15229638D01*
X71899779Y15215317D01*
X71912619Y15200284D01*
X71924528Y15183893D01*
X71930634Y15178842D01*
X71958605Y15155702D01*
X71967384Y15147712D01*
X74856750Y12258346D01*
X74890776Y12196034D01*
X74893054Y12181547D01*
X74896163Y12149840D01*
X74953418Y11977727D01*
X74957065Y11971705D01*
X74957066Y11971703D01*
X75038606Y11837064D01*
X75047380Y11822576D01*
X75173382Y11692098D01*
X75325159Y11592778D01*
X75331763Y11590322D01*
X75331765Y11590321D01*
X75488558Y11532010D01*
X75488560Y11532010D01*
X75495168Y11529552D01*
X75573538Y11519095D01*
X75667980Y11506493D01*
X75667984Y11506493D01*
X75674961Y11505562D01*
X75681972Y11506200D01*
X75681976Y11506200D01*
X75824459Y11519168D01*
X75855600Y11522002D01*
X75862302Y11524180D01*
X75862304Y11524180D01*
X76021409Y11575876D01*
X76021412Y11575877D01*
X76028108Y11578053D01*
X76048688Y11590321D01*
X76136072Y11642412D01*
X76204827Y11660112D01*
X76269581Y11639616D01*
X76335263Y11596635D01*
X76335271Y11596631D01*
X76341159Y11592778D01*
X76347763Y11590322D01*
X76504558Y11532010D01*
X76504560Y11532010D01*
X76511168Y11529552D01*
X76589538Y11519095D01*
X76683980Y11506493D01*
X76683984Y11506493D01*
X76690961Y11505562D01*
X76697972Y11506200D01*
X76697976Y11506200D01*
X76840459Y11519168D01*
X76871600Y11522002D01*
X76878302Y11524180D01*
X76878304Y11524180D01*
X77037409Y11575876D01*
X77037412Y11575877D01*
X77044108Y11578053D01*
X77169026Y11652519D01*
X77193860Y11667323D01*
X77193862Y11667324D01*
X77199912Y11670931D01*
X77331266Y11796018D01*
X77431643Y11947098D01*
X77486309Y12091006D01*
X77493555Y12110080D01*
X77493556Y12110082D01*
X77496055Y12116662D01*
X77499763Y12143048D01*
X77520748Y12292361D01*
X77520748Y12292364D01*
X77521299Y12296283D01*
X77521616Y12319000D01*
X77501397Y12499255D01*
X77491360Y12528077D01*
X77444064Y12663894D01*
X77444062Y12663897D01*
X77441745Y12670552D01*
X77408633Y12723543D01*
X77349359Y12818402D01*
X77345626Y12824376D01*
X77340664Y12829373D01*
X77222778Y12948085D01*
X77222774Y12948088D01*
X77217815Y12953082D01*
X77064666Y13050273D01*
X77035463Y13060672D01*
X76900425Y13108757D01*
X76900420Y13108758D01*
X76893790Y13111119D01*
X76886802Y13111952D01*
X76886799Y13111953D01*
X76844008Y13117055D01*
X76778734Y13144982D01*
X76769831Y13153074D01*
X73822405Y16100500D01*
X73788379Y16162812D01*
X73785500Y16189595D01*
X73785500Y26599938D01*
X74890493Y26599938D01*
X74899789Y26587923D01*
X74950994Y26552069D01*
X74960489Y26546586D01*
X75157947Y26454510D01*
X75168239Y26450764D01*
X75378688Y26394375D01*
X75389481Y26392472D01*
X75606525Y26373483D01*
X75617475Y26373483D01*
X75834519Y26392472D01*
X75845312Y26394375D01*
X76055761Y26450764D01*
X76066053Y26454510D01*
X76263511Y26546586D01*
X76273006Y26552069D01*
X76325048Y26588509D01*
X76333424Y26598988D01*
X76326356Y26612434D01*
X75624812Y27313978D01*
X75610868Y27321592D01*
X75609035Y27321461D01*
X75602420Y27317210D01*
X74896923Y26611713D01*
X74890493Y26599938D01*
X73785500Y26599938D01*
X73785500Y27680525D01*
X74299483Y27680525D01*
X74318472Y27463481D01*
X74320375Y27452688D01*
X74376764Y27242239D01*
X74380510Y27231947D01*
X74472586Y27034489D01*
X74478069Y27024994D01*
X74514509Y26972952D01*
X74524988Y26964576D01*
X74538434Y26971644D01*
X75239978Y27673188D01*
X75246356Y27684868D01*
X75976408Y27684868D01*
X75976539Y27683035D01*
X75980790Y27676420D01*
X76686287Y26970923D01*
X76698062Y26964493D01*
X76710077Y26973789D01*
X76745931Y27024994D01*
X76751414Y27034489D01*
X76843490Y27231947D01*
X76847236Y27242239D01*
X76903625Y27452688D01*
X76905528Y27463481D01*
X76924517Y27680525D01*
X76924517Y27691475D01*
X76905528Y27908519D01*
X76903625Y27919312D01*
X76847236Y28129761D01*
X76843490Y28140053D01*
X76751414Y28337511D01*
X76745931Y28347006D01*
X76709491Y28399048D01*
X76699012Y28407424D01*
X76685566Y28400356D01*
X75984022Y27698812D01*
X75976408Y27684868D01*
X75246356Y27684868D01*
X75247592Y27687132D01*
X75247461Y27688965D01*
X75243210Y27695580D01*
X74537713Y28401077D01*
X74525938Y28407507D01*
X74513923Y28398211D01*
X74478069Y28347006D01*
X74472586Y28337511D01*
X74380510Y28140053D01*
X74376764Y28129761D01*
X74320375Y27919312D01*
X74318472Y27908519D01*
X74299483Y27691475D01*
X74299483Y27680525D01*
X73785500Y27680525D01*
X73785500Y27770237D01*
X73786027Y27781420D01*
X73787702Y27788913D01*
X73785562Y27856990D01*
X73785500Y27860949D01*
X73785500Y27888860D01*
X73784995Y27892860D01*
X73784062Y27904703D01*
X73783940Y27908607D01*
X73782673Y27948894D01*
X73777022Y27968346D01*
X73773014Y27987698D01*
X73771467Y27999941D01*
X73770474Y28007801D01*
X73766251Y28018467D01*
X73754200Y28048907D01*
X73750355Y28060134D01*
X73741886Y28089283D01*
X73738018Y28102597D01*
X73733984Y28109419D01*
X73733981Y28109425D01*
X73727706Y28120036D01*
X73719010Y28137786D01*
X73714472Y28149248D01*
X73714469Y28149253D01*
X73711552Y28156621D01*
X73685573Y28192379D01*
X73679057Y28202297D01*
X73660575Y28233547D01*
X73656542Y28240367D01*
X73642218Y28254691D01*
X73629376Y28269726D01*
X73627610Y28272157D01*
X73617472Y28286111D01*
X73583406Y28314293D01*
X73574627Y28322282D01*
X73123897Y28773012D01*
X74890576Y28773012D01*
X74897644Y28759566D01*
X75599188Y28058022D01*
X75613132Y28050408D01*
X75614965Y28050539D01*
X75621580Y28054790D01*
X76327077Y28760287D01*
X76333507Y28772062D01*
X76324211Y28784077D01*
X76273006Y28819931D01*
X76263511Y28825414D01*
X76066053Y28917490D01*
X76055761Y28921236D01*
X75845312Y28977625D01*
X75834519Y28979528D01*
X75617475Y28998517D01*
X75606525Y28998517D01*
X75389481Y28979528D01*
X75378688Y28977625D01*
X75168239Y28921236D01*
X75157947Y28917490D01*
X74960489Y28825414D01*
X74950994Y28819931D01*
X74898952Y28783491D01*
X74890576Y28773012D01*
X73123897Y28773012D01*
X72580012Y29316897D01*
X72545986Y29379209D01*
X72551051Y29450024D01*
X72593598Y29506860D01*
X72660118Y29531671D01*
X72722357Y29520187D01*
X72750937Y29506860D01*
X72766257Y29499716D01*
X72771565Y29498294D01*
X72771567Y29498293D01*
X72982098Y29441881D01*
X72982100Y29441881D01*
X72987413Y29440457D01*
X73215500Y29420502D01*
X73443587Y29440457D01*
X73448900Y29441881D01*
X73448902Y29441881D01*
X73659433Y29498293D01*
X73659435Y29498294D01*
X73664743Y29499716D01*
X73670735Y29502510D01*
X73867262Y29594151D01*
X73867267Y29594154D01*
X73872249Y29596477D01*
X73977111Y29669902D01*
X74055289Y29724643D01*
X74055292Y29724645D01*
X74059800Y29727802D01*
X74221698Y29889700D01*
X74234855Y29908489D01*
X74301707Y30003965D01*
X74353023Y30077251D01*
X74355346Y30082233D01*
X74355349Y30082238D01*
X74371581Y30117049D01*
X74418498Y30170334D01*
X74486775Y30189795D01*
X74554735Y30169253D01*
X74599971Y30117049D01*
X74616086Y30082489D01*
X74621569Y30072993D01*
X74746528Y29894533D01*
X74753584Y29886125D01*
X74907625Y29732084D01*
X74916033Y29725028D01*
X75094493Y29600069D01*
X75103989Y29594586D01*
X75301447Y29502510D01*
X75311739Y29498764D01*
X75484003Y29452606D01*
X75498099Y29452942D01*
X75501500Y29460884D01*
X75501500Y29466033D01*
X76009500Y29466033D01*
X76013473Y29452502D01*
X76022022Y29451273D01*
X76199261Y29498764D01*
X76209553Y29502510D01*
X76407011Y29594586D01*
X76416507Y29600069D01*
X76594967Y29725028D01*
X76603375Y29732084D01*
X76757416Y29886125D01*
X76764472Y29894533D01*
X76889431Y30072993D01*
X76894914Y30082489D01*
X76986990Y30279947D01*
X76990736Y30290239D01*
X77036894Y30462503D01*
X77036558Y30476599D01*
X77028616Y30480000D01*
X76027615Y30480000D01*
X76012376Y30475525D01*
X76011171Y30474135D01*
X76009500Y30466452D01*
X76009500Y29466033D01*
X75501500Y29466033D01*
X75501500Y31006115D01*
X76009500Y31006115D01*
X76013975Y30990876D01*
X76015365Y30989671D01*
X76023048Y30988000D01*
X77023467Y30988000D01*
X77036998Y30991973D01*
X77038227Y31000522D01*
X76990736Y31177761D01*
X76986990Y31188053D01*
X76894914Y31385511D01*
X76889431Y31395007D01*
X76764472Y31573467D01*
X76757416Y31581875D01*
X76603375Y31735916D01*
X76594967Y31742972D01*
X76416507Y31867931D01*
X76407011Y31873414D01*
X76209553Y31965490D01*
X76199261Y31969236D01*
X76026997Y32015394D01*
X76012901Y32015058D01*
X76009500Y32007116D01*
X76009500Y31006115D01*
X75501500Y31006115D01*
X75501500Y32001967D01*
X75497527Y32015498D01*
X75488978Y32016727D01*
X75311739Y31969236D01*
X75301447Y31965490D01*
X75103989Y31873414D01*
X75094493Y31867931D01*
X74916033Y31742972D01*
X74907625Y31735916D01*
X74753584Y31581875D01*
X74746528Y31573467D01*
X74621569Y31395007D01*
X74616086Y31385511D01*
X74599971Y31350951D01*
X74553054Y31297666D01*
X74484777Y31278205D01*
X74416817Y31298747D01*
X74371581Y31350951D01*
X74355349Y31385762D01*
X74355346Y31385767D01*
X74353023Y31390749D01*
X74244154Y31546230D01*
X74224857Y31573789D01*
X74224855Y31573792D01*
X74221698Y31578300D01*
X74059800Y31740198D01*
X74055292Y31743355D01*
X74055289Y31743357D01*
X73883991Y31863301D01*
X73872249Y31871523D01*
X73867267Y31873846D01*
X73867262Y31873849D01*
X73669725Y31965961D01*
X73669724Y31965961D01*
X73664743Y31968284D01*
X73659435Y31969706D01*
X73659433Y31969707D01*
X73448902Y32026119D01*
X73448900Y32026119D01*
X73443587Y32027543D01*
X73215500Y32047498D01*
X72987413Y32027543D01*
X72982100Y32026119D01*
X72982098Y32026119D01*
X72771567Y31969707D01*
X72771565Y31969706D01*
X72766257Y31968284D01*
X72761276Y31965961D01*
X72761275Y31965961D01*
X72563738Y31873849D01*
X72563733Y31873846D01*
X72558751Y31871523D01*
X72547009Y31863301D01*
X72375711Y31743357D01*
X72375708Y31743355D01*
X72371200Y31740198D01*
X72209302Y31578300D01*
X72206145Y31573792D01*
X72206143Y31573789D01*
X72186846Y31546230D01*
X72077977Y31390749D01*
X72075654Y31385767D01*
X72075651Y31385762D01*
X72059695Y31351543D01*
X72012778Y31298258D01*
X71944501Y31278797D01*
X71876541Y31299339D01*
X71831305Y31351543D01*
X71815349Y31385762D01*
X71815346Y31385767D01*
X71813023Y31390749D01*
X71704154Y31546230D01*
X71684857Y31573789D01*
X71684855Y31573792D01*
X71681698Y31578300D01*
X71519800Y31740198D01*
X71515292Y31743355D01*
X71515289Y31743357D01*
X71343991Y31863301D01*
X71332249Y31871523D01*
X71327267Y31873846D01*
X71327262Y31873849D01*
X71129725Y31965961D01*
X71129724Y31965961D01*
X71124743Y31968284D01*
X71119435Y31969706D01*
X71119433Y31969707D01*
X70908902Y32026119D01*
X70908900Y32026119D01*
X70903587Y32027543D01*
X70675500Y32047498D01*
X70447413Y32027543D01*
X70442100Y32026119D01*
X70442098Y32026119D01*
X70231567Y31969707D01*
X70231565Y31969706D01*
X70226257Y31968284D01*
X70221276Y31965961D01*
X70221275Y31965961D01*
X70023738Y31873849D01*
X70023733Y31873846D01*
X70018751Y31871523D01*
X70007009Y31863301D01*
X69835711Y31743357D01*
X69835708Y31743355D01*
X69831200Y31740198D01*
X69669302Y31578300D01*
X69666145Y31573792D01*
X69666143Y31573789D01*
X69646846Y31546230D01*
X69537977Y31390749D01*
X69535654Y31385767D01*
X69535651Y31385762D01*
X69519695Y31351543D01*
X69472778Y31298258D01*
X69404501Y31278797D01*
X69336541Y31299339D01*
X69291305Y31351543D01*
X69275349Y31385762D01*
X69275346Y31385767D01*
X69273023Y31390749D01*
X69164154Y31546230D01*
X69144857Y31573789D01*
X69144855Y31573792D01*
X69141698Y31578300D01*
X68979800Y31740198D01*
X68975292Y31743355D01*
X68975289Y31743357D01*
X68803991Y31863301D01*
X68792249Y31871523D01*
X68787267Y31873846D01*
X68787262Y31873849D01*
X68589725Y31965961D01*
X68589724Y31965961D01*
X68584743Y31968284D01*
X68579435Y31969706D01*
X68579433Y31969707D01*
X68368902Y32026119D01*
X68368900Y32026119D01*
X68363587Y32027543D01*
X68135500Y32047498D01*
X67907413Y32027543D01*
X67902100Y32026119D01*
X67902098Y32026119D01*
X67691567Y31969707D01*
X67691565Y31969706D01*
X67686257Y31968284D01*
X67681276Y31965961D01*
X67681275Y31965961D01*
X67483738Y31873849D01*
X67483733Y31873846D01*
X67478751Y31871523D01*
X67467009Y31863301D01*
X67295711Y31743357D01*
X67295708Y31743355D01*
X67291200Y31740198D01*
X67129302Y31578300D01*
X67126145Y31573792D01*
X67126143Y31573789D01*
X67106846Y31546230D01*
X66997977Y31390749D01*
X66995654Y31385767D01*
X66995651Y31385762D01*
X66979695Y31351543D01*
X66932778Y31298258D01*
X66864501Y31278797D01*
X66796541Y31299339D01*
X66751305Y31351543D01*
X66735349Y31385762D01*
X66735346Y31385767D01*
X66733023Y31390749D01*
X66624154Y31546230D01*
X66604857Y31573789D01*
X66604855Y31573792D01*
X66601698Y31578300D01*
X66439800Y31740198D01*
X66435292Y31743355D01*
X66435289Y31743357D01*
X66263991Y31863301D01*
X66252249Y31871523D01*
X66247267Y31873846D01*
X66247262Y31873849D01*
X66049725Y31965961D01*
X66049724Y31965961D01*
X66044743Y31968284D01*
X66039435Y31969706D01*
X66039433Y31969707D01*
X65828902Y32026119D01*
X65828900Y32026119D01*
X65823587Y32027543D01*
X65595500Y32047498D01*
X65367413Y32027543D01*
X65362100Y32026119D01*
X65362098Y32026119D01*
X65151567Y31969707D01*
X65151565Y31969706D01*
X65146257Y31968284D01*
X65141276Y31965961D01*
X65141275Y31965961D01*
X64943738Y31873849D01*
X64943733Y31873846D01*
X64938751Y31871523D01*
X64927009Y31863301D01*
X64755711Y31743357D01*
X64755708Y31743355D01*
X64751200Y31740198D01*
X64589302Y31578300D01*
X64586145Y31573792D01*
X64586143Y31573789D01*
X64566846Y31546230D01*
X64457977Y31390749D01*
X64455654Y31385767D01*
X64455651Y31385762D01*
X64439695Y31351543D01*
X64392778Y31298258D01*
X64324501Y31278797D01*
X64256541Y31299339D01*
X64211305Y31351543D01*
X64195349Y31385762D01*
X64195346Y31385767D01*
X64193023Y31390749D01*
X64084154Y31546230D01*
X64064857Y31573789D01*
X64064855Y31573792D01*
X64061698Y31578300D01*
X63899800Y31740198D01*
X63895292Y31743355D01*
X63895289Y31743357D01*
X63723991Y31863301D01*
X63712249Y31871523D01*
X63707267Y31873846D01*
X63707262Y31873849D01*
X63509725Y31965961D01*
X63509724Y31965961D01*
X63504743Y31968284D01*
X63499435Y31969706D01*
X63499433Y31969707D01*
X63288902Y32026119D01*
X63288900Y32026119D01*
X63283587Y32027543D01*
X63055500Y32047498D01*
X62827413Y32027543D01*
X62822100Y32026119D01*
X62822098Y32026119D01*
X62611567Y31969707D01*
X62611565Y31969706D01*
X62606257Y31968284D01*
X62601276Y31965961D01*
X62601275Y31965961D01*
X62403738Y31873849D01*
X62403733Y31873846D01*
X62398751Y31871523D01*
X62387009Y31863301D01*
X62215711Y31743357D01*
X62215708Y31743355D01*
X62211200Y31740198D01*
X62049302Y31578300D01*
X62046145Y31573792D01*
X62046143Y31573789D01*
X62026846Y31546230D01*
X61917977Y31390749D01*
X61915654Y31385767D01*
X61915651Y31385762D01*
X61899695Y31351543D01*
X61852778Y31298258D01*
X61784501Y31278797D01*
X61716541Y31299339D01*
X61671305Y31351543D01*
X61655349Y31385762D01*
X61655346Y31385767D01*
X61653023Y31390749D01*
X61544154Y31546230D01*
X61524857Y31573789D01*
X61524855Y31573792D01*
X61521698Y31578300D01*
X61359800Y31740198D01*
X61355292Y31743355D01*
X61355289Y31743357D01*
X61183991Y31863301D01*
X61172249Y31871523D01*
X61167267Y31873846D01*
X61167262Y31873849D01*
X60969725Y31965961D01*
X60969724Y31965961D01*
X60964743Y31968284D01*
X60959435Y31969706D01*
X60959433Y31969707D01*
X60748902Y32026119D01*
X60748900Y32026119D01*
X60743587Y32027543D01*
X60515500Y32047498D01*
X60287413Y32027543D01*
X60282100Y32026119D01*
X60282098Y32026119D01*
X60071567Y31969707D01*
X60071565Y31969706D01*
X60066257Y31968284D01*
X60061276Y31965961D01*
X60061275Y31965961D01*
X59863738Y31873849D01*
X59863733Y31873846D01*
X59858751Y31871523D01*
X59847009Y31863301D01*
X59675711Y31743357D01*
X59675708Y31743355D01*
X59671200Y31740198D01*
X59509302Y31578300D01*
X59486845Y31546229D01*
X59431390Y31501901D01*
X59383633Y31492500D01*
X59107367Y31492500D01*
X59039246Y31512502D01*
X59004155Y31546228D01*
X58981698Y31578300D01*
X58819800Y31740198D01*
X58815292Y31743355D01*
X58815289Y31743357D01*
X58643991Y31863301D01*
X58632249Y31871523D01*
X58627267Y31873846D01*
X58627262Y31873849D01*
X58429725Y31965961D01*
X58429724Y31965961D01*
X58424743Y31968284D01*
X58419435Y31969706D01*
X58419433Y31969707D01*
X58208902Y32026119D01*
X58208900Y32026119D01*
X58203587Y32027543D01*
X57975500Y32047498D01*
X57970025Y32047019D01*
X57812587Y32033245D01*
X57742982Y32047234D01*
X57712510Y32069671D01*
X57182269Y32599912D01*
X57169883Y32614324D01*
X57161350Y32625919D01*
X57161345Y32625924D01*
X57157007Y32631819D01*
X57151429Y32636558D01*
X57151426Y32636561D01*
X57116731Y32666036D01*
X57109215Y32672966D01*
X57103520Y32678661D01*
X57097379Y32683519D01*
X57081248Y32696282D01*
X57077844Y32699073D01*
X57027796Y32741592D01*
X57027794Y32741593D01*
X57022214Y32746334D01*
X57015698Y32749662D01*
X57010649Y32753029D01*
X57005520Y32756196D01*
X56999783Y32760735D01*
X56933624Y32791656D01*
X56929724Y32793562D01*
X56864691Y32826770D01*
X56857583Y32828509D01*
X56851940Y32830608D01*
X56846177Y32832525D01*
X56839549Y32835623D01*
X56768082Y32850488D01*
X56763798Y32851458D01*
X56729457Y32859861D01*
X56692889Y32868809D01*
X56687287Y32869157D01*
X56687284Y32869157D01*
X56681735Y32869501D01*
X56681737Y32869537D01*
X56677744Y32869776D01*
X56673552Y32870150D01*
X56666384Y32871641D01*
X56602619Y32869916D01*
X56588978Y32869547D01*
X56585571Y32869501D01*
X37893064Y32869501D01*
X37874115Y32870934D01*
X37873908Y32870965D01*
X37852652Y32874199D01*
X37845360Y32873606D01*
X37845357Y32873606D01*
X37799992Y32869916D01*
X37789778Y32869501D01*
X37781708Y32869501D01*
X37778088Y32869079D01*
X37778070Y32869078D01*
X37753462Y32866209D01*
X37749101Y32865777D01*
X37723982Y32863734D01*
X37683662Y32860455D01*
X37683659Y32860454D01*
X37676364Y32859861D01*
X37669400Y32857605D01*
X37663441Y32856414D01*
X37657586Y32855030D01*
X37650320Y32854183D01*
X37581674Y32829266D01*
X37577546Y32827849D01*
X37515065Y32807608D01*
X37515063Y32807607D01*
X37508102Y32805352D01*
X37501847Y32801556D01*
X37496373Y32799050D01*
X37490943Y32796331D01*
X37484064Y32793834D01*
X37423017Y32753810D01*
X37419328Y32751483D01*
X37410844Y32746334D01*
X37361694Y32716510D01*
X37361689Y32716506D01*
X37356893Y32713596D01*
X37348517Y32706198D01*
X37348494Y32706224D01*
X37345504Y32703575D01*
X37342265Y32700867D01*
X37336149Y32696857D01*
X37331122Y32691550D01*
X37331118Y32691547D01*
X37282873Y32640618D01*
X37280495Y32638176D01*
X36838990Y32196671D01*
X36776678Y32162645D01*
X36738913Y32160245D01*
X36581475Y32174019D01*
X36576000Y32174498D01*
X36347913Y32154543D01*
X36342600Y32153119D01*
X36342598Y32153119D01*
X36132067Y32096707D01*
X36132065Y32096706D01*
X36126757Y32095284D01*
X36121776Y32092961D01*
X36121775Y32092961D01*
X35924238Y32000849D01*
X35924233Y32000846D01*
X35919251Y31998523D01*
X35872748Y31965961D01*
X35736211Y31870357D01*
X35736208Y31870355D01*
X35731700Y31867198D01*
X35569802Y31705300D01*
X35547345Y31673229D01*
X35491890Y31628901D01*
X35444133Y31619500D01*
X35167867Y31619500D01*
X35099746Y31639502D01*
X35064655Y31673228D01*
X35042198Y31705300D01*
X34880300Y31867198D01*
X34875792Y31870355D01*
X34875789Y31870357D01*
X34739252Y31965961D01*
X34692749Y31998523D01*
X34687767Y32000846D01*
X34687762Y32000849D01*
X34490225Y32092961D01*
X34490224Y32092961D01*
X34485243Y32095284D01*
X34479935Y32096706D01*
X34479933Y32096707D01*
X34269402Y32153119D01*
X34269400Y32153119D01*
X34264087Y32154543D01*
X34036000Y32174498D01*
X34030525Y32174019D01*
X33873087Y32160245D01*
X33803482Y32174234D01*
X33773010Y32196671D01*
X32905270Y33064411D01*
X32892884Y33078823D01*
X32884351Y33090418D01*
X32884346Y33090423D01*
X32880008Y33096318D01*
X32874430Y33101057D01*
X32874427Y33101060D01*
X32839732Y33130535D01*
X32832216Y33137465D01*
X32826521Y33143160D01*
X32810236Y33156044D01*
X32804249Y33160781D01*
X32800845Y33163572D01*
X32750797Y33206091D01*
X32750795Y33206092D01*
X32745215Y33210833D01*
X32738699Y33214161D01*
X32733650Y33217528D01*
X32728521Y33220695D01*
X32722784Y33225234D01*
X32656625Y33256155D01*
X32652725Y33258061D01*
X32587692Y33291269D01*
X32580584Y33293008D01*
X32574941Y33295107D01*
X32569178Y33297024D01*
X32562550Y33300122D01*
X32491083Y33314987D01*
X32486799Y33315957D01*
X32415890Y33333308D01*
X32410288Y33333656D01*
X32410285Y33333656D01*
X32404736Y33334000D01*
X32404738Y33334036D01*
X32400745Y33334275D01*
X32396553Y33334649D01*
X32389385Y33336140D01*
X32325620Y33334415D01*
X32311979Y33334046D01*
X32308572Y33334000D01*
X12068570Y33334000D01*
X12049620Y33335433D01*
X12035385Y33337599D01*
X12035381Y33337599D01*
X12028151Y33338699D01*
X12020859Y33338106D01*
X12020856Y33338106D01*
X11975482Y33334415D01*
X11965267Y33334000D01*
X11957207Y33334000D01*
X11953573Y33333576D01*
X11953567Y33333576D01*
X11940542Y33332057D01*
X11928980Y33330709D01*
X11924632Y33330279D01*
X11851864Y33324360D01*
X11844903Y33322105D01*
X11838963Y33320918D01*
X11833088Y33319529D01*
X11825819Y33318682D01*
X11757170Y33293764D01*
X11753042Y33292347D01*
X11690564Y33272107D01*
X11690562Y33272106D01*
X11683601Y33269851D01*
X11677346Y33266055D01*
X11671872Y33263549D01*
X11666442Y33260830D01*
X11659563Y33258333D01*
X11653443Y33254320D01*
X11653442Y33254320D01*
X11598524Y33218314D01*
X11594820Y33215977D01*
X11532393Y33178095D01*
X11524016Y33170697D01*
X11523992Y33170724D01*
X11521000Y33168071D01*
X11517767Y33165368D01*
X11511648Y33161356D01*
X11482451Y33130535D01*
X11458372Y33105117D01*
X11455994Y33102675D01*
X10930990Y32577671D01*
X10868678Y32543645D01*
X10830913Y32541245D01*
X10673475Y32555019D01*
X10668000Y32555498D01*
X10439913Y32535543D01*
X10434600Y32534119D01*
X10434598Y32534119D01*
X10224067Y32477707D01*
X10224065Y32477706D01*
X10218757Y32476284D01*
X10213776Y32473961D01*
X10213775Y32473961D01*
X10016238Y32381849D01*
X10016233Y32381846D01*
X10011251Y32379523D01*
X9906389Y32306098D01*
X9828211Y32251357D01*
X9828208Y32251355D01*
X9823700Y32248198D01*
X9661802Y32086300D01*
X9639345Y32054229D01*
X9583890Y32009901D01*
X9536133Y32000500D01*
X9259867Y32000500D01*
X9191746Y32020502D01*
X9156655Y32054228D01*
X9134198Y32086300D01*
X8972300Y32248198D01*
X8967792Y32251355D01*
X8967789Y32251357D01*
X8889611Y32306098D01*
X8784749Y32379523D01*
X8779767Y32381846D01*
X8779762Y32381849D01*
X8582225Y32473961D01*
X8582224Y32473961D01*
X8577243Y32476284D01*
X8571935Y32477706D01*
X8571933Y32477707D01*
X8361402Y32534119D01*
X8361400Y32534119D01*
X8356087Y32535543D01*
X8128000Y32555498D01*
X7899913Y32535543D01*
X7894600Y32534119D01*
X7894598Y32534119D01*
X7795110Y32507461D01*
X7724134Y32509151D01*
X7665338Y32548945D01*
X7637390Y32614209D01*
X7636499Y32629168D01*
X7636499Y34705628D01*
X7656501Y34773749D01*
X7673404Y34794723D01*
X10405010Y37526329D01*
X10467322Y37560355D01*
X10505087Y37562755D01*
X10662525Y37548981D01*
X10668000Y37548502D01*
X10673475Y37548981D01*
X10830913Y37562755D01*
X10900518Y37548766D01*
X10930990Y37526329D01*
X11862230Y36595089D01*
X11874616Y36580677D01*
X11883149Y36569082D01*
X11883154Y36569077D01*
X11887492Y36563182D01*
X11893070Y36558443D01*
X11893073Y36558440D01*
X11927768Y36528965D01*
X11935284Y36522035D01*
X11940980Y36516339D01*
X11943841Y36514076D01*
X11943846Y36514071D01*
X11963266Y36498707D01*
X11966667Y36495918D01*
X12022285Y36448667D01*
X12028798Y36445341D01*
X12033837Y36441980D01*
X12038979Y36438804D01*
X12044716Y36434266D01*
X12110875Y36403345D01*
X12114769Y36401442D01*
X12179808Y36368231D01*
X12186917Y36366492D01*
X12192551Y36364396D01*
X12198321Y36362477D01*
X12204950Y36359378D01*
X12212113Y36357888D01*
X12212116Y36357887D01*
X12253780Y36349221D01*
X12276435Y36344509D01*
X12280701Y36343543D01*
X12351610Y36326192D01*
X12357212Y36325844D01*
X12357215Y36325844D01*
X12362764Y36325500D01*
X12362762Y36325465D01*
X12366734Y36325225D01*
X12370955Y36324848D01*
X12378115Y36323359D01*
X12455542Y36325454D01*
X12458950Y36325500D01*
X27574191Y36325500D01*
X27642312Y36305498D01*
X27688805Y36251842D01*
X27698909Y36181568D01*
X27695899Y36166895D01*
X27662457Y36042087D01*
X27642502Y35814000D01*
X27662457Y35585913D01*
X27663881Y35580600D01*
X27663881Y35580598D01*
X27710889Y35405165D01*
X27721716Y35364757D01*
X27724039Y35359776D01*
X27724039Y35359775D01*
X27816151Y35162238D01*
X27816154Y35162233D01*
X27818477Y35157251D01*
X27949802Y34969700D01*
X28111700Y34807802D01*
X28116208Y34804645D01*
X28116211Y34804643D01*
X28183084Y34757818D01*
X28299251Y34676477D01*
X28304233Y34674154D01*
X28304238Y34674151D01*
X28501775Y34582039D01*
X28506757Y34579716D01*
X28512065Y34578294D01*
X28512067Y34578293D01*
X28722598Y34521881D01*
X28722600Y34521881D01*
X28727913Y34520457D01*
X28956000Y34500502D01*
X29184087Y34520457D01*
X29189400Y34521881D01*
X29189402Y34521881D01*
X29399933Y34578293D01*
X29399935Y34578294D01*
X29405243Y34579716D01*
X29410225Y34582039D01*
X29607762Y34674151D01*
X29607767Y34674154D01*
X29612749Y34676477D01*
X29728916Y34757818D01*
X29795789Y34804643D01*
X29795792Y34804645D01*
X29800300Y34807802D01*
X29962198Y34969700D01*
X30093523Y35157251D01*
X30095846Y35162233D01*
X30095849Y35162238D01*
X30187961Y35359775D01*
X30187961Y35359776D01*
X30190284Y35364757D01*
X30201112Y35405165D01*
X30248119Y35580598D01*
X30248119Y35580600D01*
X30249543Y35585913D01*
X30269498Y35814000D01*
X30249543Y36042087D01*
X30216102Y36166889D01*
X30217792Y36237865D01*
X30257586Y36296661D01*
X30322850Y36324609D01*
X30337809Y36325500D01*
X35111930Y36325500D01*
X35130880Y36324067D01*
X35145115Y36321901D01*
X35145119Y36321901D01*
X35152349Y36320801D01*
X35159641Y36321394D01*
X35159644Y36321394D01*
X35205018Y36325085D01*
X35215233Y36325500D01*
X35223293Y36325500D01*
X35240680Y36327527D01*
X35251507Y36328789D01*
X35255882Y36329222D01*
X35321339Y36334546D01*
X35321342Y36334547D01*
X35328637Y36335140D01*
X35335601Y36337396D01*
X35341560Y36338587D01*
X35347415Y36339971D01*
X35354681Y36340818D01*
X35423327Y36365735D01*
X35427455Y36367152D01*
X35489936Y36387393D01*
X35489938Y36387394D01*
X35496899Y36389649D01*
X35503154Y36393445D01*
X35508628Y36395951D01*
X35514058Y36398670D01*
X35520937Y36401167D01*
X35544473Y36416598D01*
X35581976Y36441186D01*
X35585680Y36443523D01*
X35648107Y36481405D01*
X35656484Y36488803D01*
X35656508Y36488776D01*
X35659500Y36491429D01*
X35662733Y36494132D01*
X35668852Y36498144D01*
X35722128Y36554383D01*
X35724506Y36556825D01*
X36313010Y37145329D01*
X36375322Y37179355D01*
X36413087Y37181755D01*
X36570525Y37167981D01*
X36576000Y37167502D01*
X36581475Y37167981D01*
X36738913Y37181755D01*
X36808518Y37167766D01*
X36838990Y37145329D01*
X37369231Y36615088D01*
X37381617Y36600676D01*
X37390150Y36589081D01*
X37390155Y36589076D01*
X37394493Y36583181D01*
X37400071Y36578442D01*
X37400074Y36578439D01*
X37434769Y36548964D01*
X37442285Y36542034D01*
X37447980Y36536339D01*
X37450862Y36534059D01*
X37470252Y36518718D01*
X37473656Y36515927D01*
X37523704Y36473408D01*
X37529286Y36468666D01*
X37535802Y36465338D01*
X37540839Y36461979D01*
X37545978Y36458805D01*
X37551717Y36454265D01*
X37558350Y36451165D01*
X37617838Y36423363D01*
X37621792Y36421430D01*
X37686809Y36388230D01*
X37693925Y36386489D01*
X37699555Y36384395D01*
X37705322Y36382476D01*
X37711951Y36379378D01*
X37719111Y36377889D01*
X37719113Y36377888D01*
X37783397Y36364517D01*
X37787681Y36363547D01*
X37858611Y36346191D01*
X37864213Y36345843D01*
X37864216Y36345843D01*
X37869765Y36345499D01*
X37869763Y36345463D01*
X37873753Y36345224D01*
X37877951Y36344849D01*
X37885116Y36343359D01*
X37962505Y36345453D01*
X37965913Y36345499D01*
X53588734Y36345499D01*
X53656855Y36325497D01*
X53703348Y36271841D01*
X53713452Y36201567D01*
X53702930Y36166251D01*
X53629716Y36009243D01*
X53570457Y35788087D01*
X53550502Y35560000D01*
X53570457Y35331913D01*
X53571881Y35326600D01*
X53571881Y35326598D01*
X53617798Y35155237D01*
X53629716Y35110757D01*
X53632039Y35105776D01*
X53632039Y35105775D01*
X53724151Y34908238D01*
X53724154Y34908233D01*
X53726477Y34903251D01*
X53729634Y34898743D01*
X53828311Y34757818D01*
X53857802Y34715700D01*
X54019700Y34553802D01*
X54024208Y34550645D01*
X54024211Y34550643D01*
X54095136Y34500981D01*
X54207251Y34422477D01*
X54212233Y34420154D01*
X54212238Y34420151D01*
X54409775Y34328039D01*
X54414757Y34325716D01*
X54420065Y34324294D01*
X54420067Y34324293D01*
X54630598Y34267881D01*
X54630600Y34267881D01*
X54635913Y34266457D01*
X54864000Y34246502D01*
X55092087Y34266457D01*
X55097400Y34267881D01*
X55097402Y34267881D01*
X55307933Y34324293D01*
X55307935Y34324294D01*
X55313243Y34325716D01*
X55318225Y34328039D01*
X55515762Y34420151D01*
X55515767Y34420154D01*
X55520749Y34422477D01*
X55632864Y34500981D01*
X55703789Y34550643D01*
X55703792Y34550645D01*
X55708300Y34553802D01*
X55870198Y34715700D01*
X55899690Y34757818D01*
X55998366Y34898743D01*
X56001523Y34903251D01*
X56003846Y34908233D01*
X56003849Y34908238D01*
X56095961Y35105775D01*
X56095961Y35105776D01*
X56098284Y35110757D01*
X56110203Y35155237D01*
X56156119Y35326598D01*
X56156119Y35326600D01*
X56157543Y35331913D01*
X56177498Y35560000D01*
X56157543Y35788087D01*
X56098284Y36009243D01*
X56025071Y36166250D01*
X56014410Y36236441D01*
X56043390Y36301253D01*
X56102810Y36340110D01*
X56139266Y36345499D01*
X59198429Y36345499D01*
X59217379Y36344066D01*
X59231614Y36341900D01*
X59231618Y36341900D01*
X59238848Y36340800D01*
X59246140Y36341393D01*
X59246143Y36341393D01*
X59291517Y36345084D01*
X59301732Y36345499D01*
X59309792Y36345499D01*
X59327179Y36347526D01*
X59338006Y36348788D01*
X59342381Y36349221D01*
X59407838Y36354545D01*
X59407841Y36354546D01*
X59415136Y36355139D01*
X59422100Y36357395D01*
X59428059Y36358586D01*
X59433914Y36359970D01*
X59441180Y36360817D01*
X59509826Y36385734D01*
X59513954Y36387151D01*
X59576435Y36407392D01*
X59576437Y36407393D01*
X59583398Y36409648D01*
X59589653Y36413444D01*
X59595127Y36415950D01*
X59600557Y36418669D01*
X59607436Y36421166D01*
X59627417Y36434266D01*
X59668475Y36461185D01*
X59672179Y36463522D01*
X59734606Y36501404D01*
X59742983Y36508802D01*
X59743007Y36508775D01*
X59745999Y36511428D01*
X59749232Y36514131D01*
X59755351Y36518143D01*
X59808627Y36574382D01*
X59811005Y36576824D01*
X60252510Y37018329D01*
X60314822Y37052355D01*
X60352587Y37054755D01*
X60510025Y37040981D01*
X60515500Y37040502D01*
X60743587Y37060457D01*
X60748900Y37061881D01*
X60748902Y37061881D01*
X60959433Y37118293D01*
X60959435Y37118294D01*
X60964743Y37119716D01*
X61019671Y37145329D01*
X61167262Y37214151D01*
X61167267Y37214154D01*
X61172249Y37216477D01*
X61313958Y37315703D01*
X61355289Y37344643D01*
X61355292Y37344645D01*
X61359800Y37347802D01*
X61521698Y37509700D01*
X61549053Y37548766D01*
X61579598Y37592389D01*
X61653023Y37697251D01*
X61655346Y37702233D01*
X61655349Y37702238D01*
X61671305Y37736457D01*
X61718222Y37789742D01*
X61786499Y37809203D01*
X61854459Y37788661D01*
X61899695Y37736457D01*
X61915651Y37702238D01*
X61915654Y37702233D01*
X61917977Y37697251D01*
X61991402Y37592389D01*
X62021948Y37548766D01*
X62049302Y37509700D01*
X62211200Y37347802D01*
X62215708Y37344645D01*
X62215711Y37344643D01*
X62257042Y37315703D01*
X62398751Y37216477D01*
X62403733Y37214154D01*
X62403738Y37214151D01*
X62551329Y37145329D01*
X62606257Y37119716D01*
X62611565Y37118294D01*
X62611567Y37118293D01*
X62822098Y37061881D01*
X62822100Y37061881D01*
X62827413Y37060457D01*
X63055500Y37040502D01*
X63283587Y37060457D01*
X63288900Y37061881D01*
X63288902Y37061881D01*
X63499433Y37118293D01*
X63499435Y37118294D01*
X63504743Y37119716D01*
X63559671Y37145329D01*
X63707262Y37214151D01*
X63707267Y37214154D01*
X63712249Y37216477D01*
X63853958Y37315703D01*
X63895289Y37344643D01*
X63895292Y37344645D01*
X63899800Y37347802D01*
X64061698Y37509700D01*
X64089053Y37548766D01*
X64119598Y37592389D01*
X64193023Y37697251D01*
X64195346Y37702233D01*
X64195349Y37702238D01*
X64211305Y37736457D01*
X64258222Y37789742D01*
X64326499Y37809203D01*
X64394459Y37788661D01*
X64439695Y37736457D01*
X64455651Y37702238D01*
X64455654Y37702233D01*
X64457977Y37697251D01*
X64531402Y37592389D01*
X64561948Y37548766D01*
X64589302Y37509700D01*
X64751200Y37347802D01*
X64755708Y37344645D01*
X64755711Y37344643D01*
X64797042Y37315703D01*
X64938751Y37216477D01*
X64943733Y37214154D01*
X64943738Y37214151D01*
X65091329Y37145329D01*
X65146257Y37119716D01*
X65151565Y37118294D01*
X65151567Y37118293D01*
X65362098Y37061881D01*
X65362100Y37061881D01*
X65367413Y37060457D01*
X65595500Y37040502D01*
X65823587Y37060457D01*
X65828898Y37061880D01*
X65828909Y37061882D01*
X65887041Y37077459D01*
X65958017Y37075770D01*
X66008748Y37044848D01*
X66216354Y36837242D01*
X66223898Y36828952D01*
X66228011Y36822471D01*
X66233788Y36817046D01*
X66277678Y36775831D01*
X66280520Y36773076D01*
X66300242Y36753354D01*
X66303384Y36750917D01*
X66303444Y36750870D01*
X66312456Y36743172D01*
X66325889Y36730558D01*
X66344690Y36712903D01*
X66351633Y36709086D01*
X66362442Y36703144D01*
X66378964Y36692291D01*
X66394970Y36679875D01*
X66402248Y36676725D01*
X66402249Y36676725D01*
X66435548Y36662315D01*
X66446198Y36657098D01*
X66484951Y36635794D01*
X66492626Y36633823D01*
X66492627Y36633823D01*
X66504573Y36630756D01*
X66523278Y36624352D01*
X66541866Y36616308D01*
X66549689Y36615069D01*
X66549699Y36615066D01*
X66585535Y36609390D01*
X66597155Y36606984D01*
X66628970Y36598816D01*
X66639981Y36595989D01*
X66660235Y36595989D01*
X66679945Y36594438D01*
X66699954Y36591269D01*
X66707846Y36592015D01*
X66726591Y36593787D01*
X66743973Y36595430D01*
X66755830Y36595989D01*
X71062522Y36595989D01*
X71073705Y36595462D01*
X71081198Y36593787D01*
X71089124Y36594036D01*
X71089125Y36594036D01*
X71149275Y36595927D01*
X71153234Y36595989D01*
X71181145Y36595989D01*
X71185080Y36596486D01*
X71185145Y36596494D01*
X71196982Y36597427D01*
X71229240Y36598441D01*
X71233259Y36598567D01*
X71241178Y36598816D01*
X71260632Y36604468D01*
X71279989Y36608476D01*
X71292219Y36610021D01*
X71292220Y36610021D01*
X71300086Y36611015D01*
X71307457Y36613934D01*
X71307459Y36613934D01*
X71341201Y36627293D01*
X71352431Y36631138D01*
X71387272Y36641260D01*
X71387273Y36641260D01*
X71394882Y36643471D01*
X71401701Y36647504D01*
X71401706Y36647506D01*
X71412317Y36653782D01*
X71430065Y36662477D01*
X71448906Y36669937D01*
X71484676Y36695925D01*
X71494596Y36702441D01*
X71525824Y36720909D01*
X71525827Y36720911D01*
X71532651Y36724947D01*
X71546972Y36739268D01*
X71562006Y36752109D01*
X71563720Y36753354D01*
X71578396Y36764017D01*
X71606587Y36798094D01*
X71614577Y36806873D01*
X72174258Y37366554D01*
X72236570Y37400580D01*
X72307385Y37395515D01*
X72352448Y37366554D01*
X72371200Y37347802D01*
X72375708Y37344645D01*
X72375711Y37344643D01*
X72417042Y37315703D01*
X72558751Y37216477D01*
X72563733Y37214154D01*
X72563738Y37214151D01*
X72711329Y37145329D01*
X72766257Y37119716D01*
X72771565Y37118294D01*
X72771567Y37118293D01*
X72982098Y37061881D01*
X72982100Y37061881D01*
X72987413Y37060457D01*
X73215500Y37040502D01*
X73443587Y37060457D01*
X73448900Y37061881D01*
X73448902Y37061881D01*
X73659433Y37118293D01*
X73659435Y37118294D01*
X73664743Y37119716D01*
X73719671Y37145329D01*
X73867262Y37214151D01*
X73867267Y37214154D01*
X73872249Y37216477D01*
X74013958Y37315703D01*
X74055289Y37344643D01*
X74055292Y37344645D01*
X74059800Y37347802D01*
X74221698Y37509700D01*
X74224857Y37514211D01*
X74228392Y37518424D01*
X74229526Y37517473D01*
X74279571Y37557471D01*
X74350190Y37564776D01*
X74413549Y37532742D01*
X74449530Y37471538D01*
X74452582Y37454483D01*
X74453755Y37443684D01*
X74504885Y37307295D01*
X74592239Y37190739D01*
X74708795Y37103385D01*
X74845184Y37052255D01*
X74907366Y37045500D01*
X76603634Y37045500D01*
X76665816Y37052255D01*
X76802205Y37103385D01*
X76918761Y37190739D01*
X77006115Y37307295D01*
X77057245Y37443684D01*
X77064000Y37505866D01*
X77064000Y39202134D01*
X77057245Y39264316D01*
X77006115Y39400705D01*
X76918761Y39517261D01*
X76802205Y39604615D01*
X76665816Y39655745D01*
X76603634Y39662500D01*
X74907366Y39662500D01*
X74845184Y39655745D01*
X74708795Y39604615D01*
X74592239Y39517261D01*
X74504885Y39400705D01*
X74453755Y39264316D01*
X74452583Y39253526D01*
X74451697Y39251394D01*
X74451075Y39248778D01*
X74450652Y39248879D01*
X74425345Y39187965D01*
X74366983Y39147537D01*
X74296029Y39145078D01*
X74235010Y39181371D01*
X74228011Y39190031D01*
X74224854Y39193793D01*
X74221698Y39198300D01*
X74059800Y39360198D01*
X74055292Y39363355D01*
X74055289Y39363357D01*
X73883991Y39483301D01*
X73872249Y39491523D01*
X73867267Y39493846D01*
X73867262Y39493849D01*
X73669725Y39585961D01*
X73669724Y39585961D01*
X73664743Y39588284D01*
X73659435Y39589706D01*
X73659433Y39589707D01*
X73448902Y39646119D01*
X73448900Y39646119D01*
X73443587Y39647543D01*
X73215500Y39667498D01*
X72987413Y39647543D01*
X72982100Y39646119D01*
X72982098Y39646119D01*
X72771567Y39589707D01*
X72771565Y39589706D01*
X72766257Y39588284D01*
X72625487Y39522642D01*
X72612761Y39516708D01*
X72542569Y39506047D01*
X72477756Y39535027D01*
X72438900Y39594447D01*
X72433511Y39630903D01*
X72433511Y42320428D01*
X72453513Y42388549D01*
X72470416Y42409523D01*
X73610499Y43549606D01*
X73672811Y43583632D01*
X73699594Y43586511D01*
X73755487Y43586511D01*
X73761939Y43587883D01*
X73761944Y43587883D01*
X73869258Y43610694D01*
X73942288Y43626217D01*
X73959888Y43634053D01*
X74110722Y43701208D01*
X74110724Y43701209D01*
X74116752Y43703893D01*
X74123121Y43708520D01*
X74210537Y43772032D01*
X74271253Y43816145D01*
X74296480Y43844162D01*
X74394621Y43953159D01*
X74394622Y43953160D01*
X74399040Y43958067D01*
X74494527Y44123455D01*
X74553542Y44305083D01*
X74555731Y44325905D01*
X74572814Y44488446D01*
X74573504Y44495011D01*
X74553542Y44684939D01*
X74494527Y44866567D01*
X74474281Y44901635D01*
X74457314Y44931021D01*
X74399040Y45031955D01*
X74338213Y45099511D01*
X74275675Y45168966D01*
X74275674Y45168967D01*
X74271253Y45173877D01*
X74125831Y45279533D01*
X74122094Y45282248D01*
X74122093Y45282249D01*
X74116752Y45286129D01*
X74110724Y45288813D01*
X74110722Y45288814D01*
X73948319Y45361120D01*
X73948318Y45361120D01*
X73942288Y45363805D01*
X73848888Y45383658D01*
X73761944Y45402139D01*
X73761939Y45402139D01*
X73755487Y45403511D01*
X73564513Y45403511D01*
X73558061Y45402139D01*
X73558056Y45402139D01*
X73471112Y45383658D01*
X73377712Y45363805D01*
X73371682Y45361120D01*
X73371681Y45361120D01*
X73209278Y45288814D01*
X73209276Y45288813D01*
X73203248Y45286129D01*
X73197907Y45282249D01*
X73197906Y45282248D01*
X73194169Y45279533D01*
X73048747Y45173877D01*
X73044326Y45168967D01*
X73044325Y45168966D01*
X72981788Y45099511D01*
X72920960Y45031955D01*
X72862686Y44931021D01*
X72845720Y44901635D01*
X72825473Y44866567D01*
X72766458Y44684939D01*
X72749228Y44520998D01*
X72749093Y44519718D01*
X72722080Y44454061D01*
X72712878Y44443793D01*
X71511486Y43242402D01*
X71449174Y43208376D01*
X71378358Y43213441D01*
X71321523Y43255988D01*
X71301402Y43296318D01*
X71300530Y43299317D01*
X71296512Y43318705D01*
X71294967Y43330936D01*
X71293974Y43338797D01*
X71291057Y43346164D01*
X71291056Y43346169D01*
X71277698Y43379908D01*
X71273854Y43391135D01*
X71270521Y43402607D01*
X71261518Y43433593D01*
X71251207Y43451028D01*
X71242512Y43468776D01*
X71235052Y43487617D01*
X71209064Y43523387D01*
X71202548Y43533307D01*
X71184080Y43564535D01*
X71184078Y43564538D01*
X71180042Y43571362D01*
X71165721Y43585683D01*
X71152880Y43600717D01*
X71145631Y43610694D01*
X71140972Y43617107D01*
X71106895Y43645298D01*
X71098116Y43653288D01*
X70162122Y44589282D01*
X70128096Y44651594D01*
X70125907Y44665207D01*
X70109232Y44823865D01*
X70109232Y44823867D01*
X70108542Y44830428D01*
X70049527Y45012056D01*
X69954040Y45177444D01*
X69873459Y45266939D01*
X69830675Y45314455D01*
X69830674Y45314456D01*
X69826253Y45319366D01*
X69671752Y45431618D01*
X69665724Y45434302D01*
X69665722Y45434303D01*
X69503319Y45506609D01*
X69503318Y45506609D01*
X69497288Y45509294D01*
X69403887Y45529147D01*
X69316944Y45547628D01*
X69316939Y45547628D01*
X69310487Y45549000D01*
X69119513Y45549000D01*
X69113061Y45547628D01*
X69113056Y45547628D01*
X69026113Y45529147D01*
X68932712Y45509294D01*
X68926682Y45506609D01*
X68926681Y45506609D01*
X68764278Y45434303D01*
X68764276Y45434302D01*
X68758248Y45431618D01*
X68749310Y45425124D01*
X68682442Y45401266D01*
X68613291Y45417347D01*
X68601190Y45425124D01*
X68592252Y45431618D01*
X68586224Y45434302D01*
X68586222Y45434303D01*
X68423819Y45506609D01*
X68423818Y45506609D01*
X68417788Y45509294D01*
X68324387Y45529147D01*
X68237444Y45547628D01*
X68237439Y45547628D01*
X68230987Y45549000D01*
X68040013Y45549000D01*
X68033561Y45547628D01*
X68033556Y45547628D01*
X67946613Y45529147D01*
X67853212Y45509294D01*
X67847182Y45506609D01*
X67847181Y45506609D01*
X67684778Y45434303D01*
X67684776Y45434302D01*
X67678748Y45431618D01*
X67524247Y45319366D01*
X67519826Y45314456D01*
X67519825Y45314455D01*
X67477042Y45266939D01*
X67396460Y45177444D01*
X67300973Y45012056D01*
X67241958Y44830428D01*
X67241268Y44823867D01*
X67241268Y44823865D01*
X67226667Y44684939D01*
X67221996Y44640500D01*
X67222686Y44633935D01*
X67236333Y44504095D01*
X67241958Y44450572D01*
X67300973Y44268944D01*
X67304276Y44263222D01*
X67304277Y44263221D01*
X67329871Y44218891D01*
X67396460Y44103556D01*
X67469637Y44022285D01*
X67500353Y43958279D01*
X67502000Y43937976D01*
X67502000Y43708072D01*
X67481998Y43639951D01*
X67428342Y43593458D01*
X67358068Y43583354D01*
X67293488Y43612848D01*
X67261805Y43654822D01*
X67179414Y43831511D01*
X67173931Y43841006D01*
X67137491Y43893048D01*
X67127012Y43901424D01*
X67113566Y43894356D01*
X66412022Y43192812D01*
X66404408Y43178868D01*
X66404539Y43177035D01*
X66408790Y43170420D01*
X67114287Y42464923D01*
X67126062Y42458493D01*
X67138077Y42467789D01*
X67173931Y42518994D01*
X67179414Y42528489D01*
X67261805Y42705178D01*
X67308722Y42758463D01*
X67377000Y42777924D01*
X67444960Y42757382D01*
X67491025Y42703359D01*
X67502000Y42651928D01*
X67502000Y39573394D01*
X67481998Y39505273D01*
X67448271Y39470181D01*
X67295711Y39363357D01*
X67295708Y39363355D01*
X67291200Y39360198D01*
X67129302Y39198300D01*
X67126145Y39193792D01*
X67126143Y39193789D01*
X67093757Y39147537D01*
X66997977Y39010749D01*
X66995654Y39005767D01*
X66995651Y39005762D01*
X66979695Y38971543D01*
X66932778Y38918258D01*
X66864501Y38898797D01*
X66796541Y38919339D01*
X66751305Y38971543D01*
X66735349Y39005762D01*
X66735346Y39005767D01*
X66733023Y39010749D01*
X66637243Y39147537D01*
X66604857Y39193789D01*
X66604855Y39193792D01*
X66601698Y39198300D01*
X66439800Y39360198D01*
X66435292Y39363355D01*
X66435289Y39363357D01*
X66263991Y39483301D01*
X66252249Y39491523D01*
X66247267Y39493846D01*
X66247262Y39493849D01*
X66049725Y39585961D01*
X66049724Y39585961D01*
X66044743Y39588284D01*
X66039435Y39589706D01*
X66039433Y39589707D01*
X65828902Y39646119D01*
X65828900Y39646119D01*
X65823587Y39647543D01*
X65595500Y39667498D01*
X65367413Y39647543D01*
X65362100Y39646119D01*
X65362098Y39646119D01*
X65151567Y39589707D01*
X65151565Y39589706D01*
X65146257Y39588284D01*
X65141276Y39585961D01*
X65141275Y39585961D01*
X64943738Y39493849D01*
X64943733Y39493846D01*
X64938751Y39491523D01*
X64927009Y39483301D01*
X64755711Y39363357D01*
X64755708Y39363355D01*
X64751200Y39360198D01*
X64589302Y39198300D01*
X64586145Y39193792D01*
X64586143Y39193789D01*
X64553757Y39147537D01*
X64457977Y39010749D01*
X64455654Y39005767D01*
X64455651Y39005762D01*
X64439695Y38971543D01*
X64392778Y38918258D01*
X64324501Y38898797D01*
X64256541Y38919339D01*
X64211305Y38971543D01*
X64195349Y39005762D01*
X64195346Y39005767D01*
X64193023Y39010749D01*
X64097243Y39147537D01*
X64064857Y39193789D01*
X64064855Y39193792D01*
X64061698Y39198300D01*
X63899800Y39360198D01*
X63895292Y39363355D01*
X63895289Y39363357D01*
X63723991Y39483301D01*
X63712249Y39491523D01*
X63707267Y39493846D01*
X63707262Y39493849D01*
X63509725Y39585961D01*
X63509724Y39585961D01*
X63504743Y39588284D01*
X63499435Y39589706D01*
X63499433Y39589707D01*
X63288902Y39646119D01*
X63288900Y39646119D01*
X63283587Y39647543D01*
X63055500Y39667498D01*
X62827413Y39647543D01*
X62822100Y39646119D01*
X62822098Y39646119D01*
X62611567Y39589707D01*
X62611565Y39589706D01*
X62606257Y39588284D01*
X62601276Y39585961D01*
X62601275Y39585961D01*
X62403738Y39493849D01*
X62403733Y39493846D01*
X62398751Y39491523D01*
X62387009Y39483301D01*
X62215711Y39363357D01*
X62215708Y39363355D01*
X62211200Y39360198D01*
X62049302Y39198300D01*
X62046145Y39193792D01*
X62046143Y39193789D01*
X62013757Y39147537D01*
X61917977Y39010749D01*
X61915654Y39005767D01*
X61915651Y39005762D01*
X61899695Y38971543D01*
X61852778Y38918258D01*
X61784501Y38898797D01*
X61716541Y38919339D01*
X61671305Y38971543D01*
X61655349Y39005762D01*
X61655346Y39005767D01*
X61653023Y39010749D01*
X61557243Y39147537D01*
X61524857Y39193789D01*
X61524855Y39193792D01*
X61521698Y39198300D01*
X61359800Y39360198D01*
X61355292Y39363355D01*
X61355289Y39363357D01*
X61183991Y39483301D01*
X61172249Y39491523D01*
X61167267Y39493846D01*
X61167262Y39493849D01*
X60969725Y39585961D01*
X60969724Y39585961D01*
X60964743Y39588284D01*
X60959435Y39589706D01*
X60959433Y39589707D01*
X60748902Y39646119D01*
X60748900Y39646119D01*
X60743587Y39647543D01*
X60515500Y39667498D01*
X60287413Y39647543D01*
X60282100Y39646119D01*
X60282098Y39646119D01*
X60071567Y39589707D01*
X60071565Y39589706D01*
X60066257Y39588284D01*
X60061276Y39585961D01*
X60061275Y39585961D01*
X59863738Y39493849D01*
X59863733Y39493846D01*
X59858751Y39491523D01*
X59847009Y39483301D01*
X59675711Y39363357D01*
X59675708Y39363355D01*
X59671200Y39360198D01*
X59509302Y39198300D01*
X59506145Y39193792D01*
X59506143Y39193789D01*
X59473757Y39147537D01*
X59377977Y39010749D01*
X59375654Y39005767D01*
X59375651Y39005762D01*
X59359695Y38971543D01*
X59312778Y38918258D01*
X59244501Y38898797D01*
X59176541Y38919339D01*
X59131305Y38971543D01*
X59115349Y39005762D01*
X59115346Y39005767D01*
X59113023Y39010749D01*
X59017243Y39147537D01*
X58984857Y39193789D01*
X58984855Y39193792D01*
X58981698Y39198300D01*
X58819800Y39360198D01*
X58815292Y39363355D01*
X58815289Y39363357D01*
X58643991Y39483301D01*
X58632249Y39491523D01*
X58627267Y39493846D01*
X58627262Y39493849D01*
X58429725Y39585961D01*
X58429724Y39585961D01*
X58424743Y39588284D01*
X58419435Y39589706D01*
X58419433Y39589707D01*
X58208902Y39646119D01*
X58208900Y39646119D01*
X58203587Y39647543D01*
X57975500Y39667498D01*
X57747413Y39647543D01*
X57742100Y39646119D01*
X57742098Y39646119D01*
X57531567Y39589707D01*
X57531565Y39589706D01*
X57526257Y39588284D01*
X57521276Y39585961D01*
X57521275Y39585961D01*
X57323738Y39493849D01*
X57323733Y39493846D01*
X57318751Y39491523D01*
X57307009Y39483301D01*
X57135711Y39363357D01*
X57135708Y39363355D01*
X57131200Y39360198D01*
X56969302Y39198300D01*
X56966145Y39193792D01*
X56966143Y39193789D01*
X56933757Y39147537D01*
X56837977Y39010749D01*
X56835654Y39005767D01*
X56835651Y39005762D01*
X56759665Y38842808D01*
X56741216Y38803243D01*
X56681957Y38582087D01*
X56662002Y38354000D01*
X56681957Y38125913D01*
X56683381Y38120600D01*
X56683381Y38120598D01*
X56710039Y38021110D01*
X56708349Y37950134D01*
X56668555Y37891338D01*
X56603291Y37863390D01*
X56588332Y37862499D01*
X53250500Y37862499D01*
X53182379Y37882501D01*
X53135886Y37936157D01*
X53124500Y37988499D01*
X53124500Y39329134D01*
X53117745Y39391316D01*
X53066615Y39527705D01*
X52979261Y39644261D01*
X52862705Y39731615D01*
X52726316Y39782745D01*
X52664134Y39789500D01*
X50967866Y39789500D01*
X50905684Y39782745D01*
X50769295Y39731615D01*
X50652739Y39644261D01*
X50565385Y39527705D01*
X50514255Y39391316D01*
X50513083Y39380526D01*
X50512197Y39378394D01*
X50511575Y39375778D01*
X50511152Y39375879D01*
X50485845Y39314965D01*
X50427483Y39274537D01*
X50356529Y39272078D01*
X50295510Y39308371D01*
X50288511Y39317031D01*
X50285354Y39320793D01*
X50282198Y39325300D01*
X50120300Y39487198D01*
X50115792Y39490355D01*
X50115789Y39490357D01*
X50037611Y39545098D01*
X49932749Y39618523D01*
X49927767Y39620846D01*
X49927762Y39620849D01*
X49730225Y39712961D01*
X49730224Y39712961D01*
X49725243Y39715284D01*
X49719935Y39716706D01*
X49719933Y39716707D01*
X49509402Y39773119D01*
X49509400Y39773119D01*
X49504087Y39774543D01*
X49276000Y39794498D01*
X49270525Y39794019D01*
X49270514Y39794019D01*
X49258570Y39792974D01*
X49188965Y39806962D01*
X49137973Y39856361D01*
X49121782Y39925487D01*
X49145534Y39992393D01*
X49158493Y40007589D01*
X51244842Y42093938D01*
X65318493Y42093938D01*
X65327789Y42081923D01*
X65378994Y42046069D01*
X65388489Y42040586D01*
X65585947Y41948510D01*
X65596239Y41944764D01*
X65806688Y41888375D01*
X65817481Y41886472D01*
X66034525Y41867483D01*
X66045475Y41867483D01*
X66262519Y41886472D01*
X66273312Y41888375D01*
X66483761Y41944764D01*
X66494053Y41948510D01*
X66691511Y42040586D01*
X66701006Y42046069D01*
X66753048Y42082509D01*
X66761424Y42092988D01*
X66754356Y42106434D01*
X66052812Y42807978D01*
X66038868Y42815592D01*
X66037035Y42815461D01*
X66030420Y42811210D01*
X65324923Y42105713D01*
X65318493Y42093938D01*
X51244842Y42093938D01*
X51660499Y42509595D01*
X51722811Y42543621D01*
X51749594Y42546500D01*
X57711800Y42546500D01*
X57779921Y42526498D01*
X57799147Y42510157D01*
X57799420Y42510460D01*
X57804332Y42506037D01*
X57808747Y42501134D01*
X57963248Y42388882D01*
X57969276Y42386198D01*
X57969278Y42386197D01*
X58072565Y42340211D01*
X58137712Y42311206D01*
X58231113Y42291353D01*
X58318056Y42272872D01*
X58318061Y42272872D01*
X58324513Y42271500D01*
X58515487Y42271500D01*
X58521939Y42272872D01*
X58521944Y42272872D01*
X58608887Y42291353D01*
X58702288Y42311206D01*
X58767435Y42340211D01*
X58870722Y42386197D01*
X58870724Y42386198D01*
X58876752Y42388882D01*
X59031253Y42501134D01*
X59055884Y42528489D01*
X59154621Y42638148D01*
X59154622Y42638149D01*
X59159040Y42643056D01*
X59254527Y42808444D01*
X59313542Y42990072D01*
X59332929Y43174525D01*
X64727483Y43174525D01*
X64746472Y42957481D01*
X64748375Y42946688D01*
X64804764Y42736239D01*
X64808510Y42725947D01*
X64900586Y42528489D01*
X64906069Y42518994D01*
X64942509Y42466952D01*
X64952988Y42458576D01*
X64966434Y42465644D01*
X65667978Y43167188D01*
X65675592Y43181132D01*
X65675461Y43182965D01*
X65671210Y43189580D01*
X64965713Y43895077D01*
X64953938Y43901507D01*
X64941923Y43892211D01*
X64906069Y43841006D01*
X64900586Y43831511D01*
X64808510Y43634053D01*
X64804764Y43623761D01*
X64748375Y43413312D01*
X64746472Y43402519D01*
X64727483Y43185475D01*
X64727483Y43174525D01*
X59332929Y43174525D01*
X59333504Y43180000D01*
X59326945Y43242402D01*
X59314232Y43363365D01*
X59314232Y43363367D01*
X59313542Y43369928D01*
X59284418Y43459563D01*
X59280197Y43472553D01*
X59278169Y43543520D01*
X59314832Y43604318D01*
X59378544Y43635644D01*
X59400030Y43637489D01*
X60067222Y43637489D01*
X60078405Y43636962D01*
X60085898Y43635287D01*
X60093824Y43635536D01*
X60093825Y43635536D01*
X60153975Y43637427D01*
X60157934Y43637489D01*
X60185845Y43637489D01*
X60189780Y43637986D01*
X60189845Y43637994D01*
X60201682Y43638927D01*
X60234268Y43639951D01*
X60237959Y43640067D01*
X60245878Y43640316D01*
X60265332Y43645968D01*
X60284689Y43649976D01*
X60296919Y43651521D01*
X60296920Y43651521D01*
X60304786Y43652515D01*
X60312157Y43655434D01*
X60312159Y43655434D01*
X60345901Y43668793D01*
X60357131Y43672638D01*
X60391972Y43682760D01*
X60391973Y43682760D01*
X60399582Y43684971D01*
X60406401Y43689004D01*
X60406406Y43689006D01*
X60417017Y43695282D01*
X60434765Y43703977D01*
X60453606Y43711437D01*
X60465836Y43720322D01*
X60489376Y43737425D01*
X60499296Y43743941D01*
X60530524Y43762409D01*
X60530527Y43762411D01*
X60537351Y43766447D01*
X60551672Y43780768D01*
X60566706Y43793609D01*
X60576683Y43800858D01*
X60583096Y43805517D01*
X60611287Y43839594D01*
X60619277Y43848373D01*
X61037916Y44267012D01*
X65318576Y44267012D01*
X65325644Y44253566D01*
X66027188Y43552022D01*
X66041132Y43544408D01*
X66042965Y43544539D01*
X66049580Y43548790D01*
X66755077Y44254287D01*
X66761507Y44266062D01*
X66752211Y44278077D01*
X66701006Y44313931D01*
X66691511Y44319414D01*
X66494053Y44411490D01*
X66483761Y44415236D01*
X66273312Y44471625D01*
X66262519Y44473528D01*
X66045475Y44492517D01*
X66034525Y44492517D01*
X65817481Y44473528D01*
X65806688Y44471625D01*
X65596239Y44415236D01*
X65585947Y44411490D01*
X65388489Y44319414D01*
X65378994Y44313931D01*
X65326952Y44277491D01*
X65318576Y44267012D01*
X61037916Y44267012D01*
X63044549Y46273645D01*
X63106861Y46307671D01*
X63158762Y46308021D01*
X63338597Y46271433D01*
X63343772Y46271243D01*
X63343774Y46271243D01*
X63556673Y46263436D01*
X63556677Y46263436D01*
X63561837Y46263247D01*
X63566957Y46263903D01*
X63566959Y46263903D01*
X63778288Y46290975D01*
X63778289Y46290975D01*
X63783416Y46291632D01*
X63822434Y46303338D01*
X63992429Y46354339D01*
X63992434Y46354341D01*
X63997384Y46355826D01*
X64197994Y46454104D01*
X64379860Y46583827D01*
X64384238Y46588189D01*
X64508500Y46712018D01*
X64538096Y46741511D01*
X64668453Y46922923D01*
X64669776Y46921972D01*
X64716645Y46965143D01*
X64786580Y46977375D01*
X64852026Y46949856D01*
X64879875Y46918006D01*
X64939987Y46819912D01*
X65086250Y46651062D01*
X65258126Y46508368D01*
X65451000Y46395662D01*
X65659692Y46315970D01*
X65664760Y46314939D01*
X65664763Y46314938D01*
X65772017Y46293117D01*
X65878597Y46271433D01*
X65883772Y46271243D01*
X65883774Y46271243D01*
X66096673Y46263436D01*
X66096677Y46263436D01*
X66101837Y46263247D01*
X66106957Y46263903D01*
X66106959Y46263903D01*
X66318288Y46290975D01*
X66318289Y46290975D01*
X66323416Y46291632D01*
X66362434Y46303338D01*
X66532429Y46354339D01*
X66532434Y46354341D01*
X66537384Y46355826D01*
X66737994Y46454104D01*
X66919860Y46583827D01*
X66924238Y46588189D01*
X67048500Y46712018D01*
X67078096Y46741511D01*
X67208453Y46922923D01*
X67209776Y46921972D01*
X67256645Y46965143D01*
X67326580Y46977375D01*
X67392026Y46949856D01*
X67419875Y46918006D01*
X67479987Y46819912D01*
X67626250Y46651062D01*
X67798126Y46508368D01*
X67991000Y46395662D01*
X68199692Y46315970D01*
X68204760Y46314939D01*
X68204763Y46314938D01*
X68312017Y46293117D01*
X68418597Y46271433D01*
X68423772Y46271243D01*
X68423774Y46271243D01*
X68636673Y46263436D01*
X68636677Y46263436D01*
X68641837Y46263247D01*
X68646957Y46263903D01*
X68646959Y46263903D01*
X68858288Y46290975D01*
X68858289Y46290975D01*
X68863416Y46291632D01*
X68902434Y46303338D01*
X69072429Y46354339D01*
X69072434Y46354341D01*
X69077384Y46355826D01*
X69277994Y46454104D01*
X69459860Y46583827D01*
X69464238Y46588189D01*
X69588500Y46712018D01*
X69618096Y46741511D01*
X69748453Y46922923D01*
X69749776Y46921972D01*
X69796645Y46965143D01*
X69866580Y46977375D01*
X69932026Y46949856D01*
X69959875Y46918006D01*
X70019987Y46819912D01*
X70166250Y46651062D01*
X70338126Y46508368D01*
X70531000Y46395662D01*
X70739692Y46315970D01*
X70744760Y46314939D01*
X70744763Y46314938D01*
X70852017Y46293117D01*
X70958597Y46271433D01*
X70963772Y46271243D01*
X70963774Y46271243D01*
X71176673Y46263436D01*
X71176677Y46263436D01*
X71181837Y46263247D01*
X71186957Y46263903D01*
X71186959Y46263903D01*
X71398288Y46290975D01*
X71398289Y46290975D01*
X71403416Y46291632D01*
X71442434Y46303338D01*
X71612429Y46354339D01*
X71612434Y46354341D01*
X71617384Y46355826D01*
X71817994Y46454104D01*
X71999860Y46583827D01*
X72004238Y46588189D01*
X72128500Y46712018D01*
X72158096Y46741511D01*
X72288453Y46922923D01*
X72289776Y46921972D01*
X72336645Y46965143D01*
X72406580Y46977375D01*
X72472026Y46949856D01*
X72499875Y46918006D01*
X72559987Y46819912D01*
X72706250Y46651062D01*
X72878126Y46508368D01*
X73071000Y46395662D01*
X73279692Y46315970D01*
X73284760Y46314939D01*
X73284763Y46314938D01*
X73392017Y46293117D01*
X73498597Y46271433D01*
X73503772Y46271243D01*
X73503774Y46271243D01*
X73716673Y46263436D01*
X73716677Y46263436D01*
X73721837Y46263247D01*
X73726957Y46263903D01*
X73726959Y46263903D01*
X73938288Y46290975D01*
X73938289Y46290975D01*
X73943416Y46291632D01*
X73982434Y46303338D01*
X74152429Y46354339D01*
X74152434Y46354341D01*
X74157384Y46355826D01*
X74357994Y46454104D01*
X74539860Y46583827D01*
X74544238Y46588189D01*
X74668500Y46712018D01*
X74698096Y46741511D01*
X74828453Y46922923D01*
X74829776Y46921972D01*
X74876645Y46965143D01*
X74946580Y46977375D01*
X75012026Y46949856D01*
X75039875Y46918006D01*
X75099987Y46819912D01*
X75152062Y46759796D01*
X75160737Y46749781D01*
X75190220Y46685196D01*
X75191500Y46667283D01*
X75191500Y44060740D01*
X75168713Y43988469D01*
X75062477Y43836749D01*
X75060154Y43831767D01*
X75060151Y43831762D01*
X74969793Y43637986D01*
X74965716Y43629243D01*
X74964294Y43623935D01*
X74964293Y43623933D01*
X74907881Y43413402D01*
X74906457Y43408087D01*
X74886502Y43180000D01*
X74906457Y42951913D01*
X74907881Y42946600D01*
X74907881Y42946598D01*
X74953078Y42777924D01*
X74965716Y42730757D01*
X74968039Y42725776D01*
X74968039Y42725775D01*
X75060151Y42528238D01*
X75060154Y42528233D01*
X75062477Y42523251D01*
X75101312Y42467789D01*
X75167952Y42372618D01*
X75193802Y42335700D01*
X75355700Y42173802D01*
X75360208Y42170645D01*
X75360211Y42170643D01*
X75438389Y42115902D01*
X75543251Y42042477D01*
X75548233Y42040154D01*
X75548238Y42040151D01*
X75744765Y41948510D01*
X75750757Y41945716D01*
X75756065Y41944294D01*
X75756067Y41944293D01*
X75966598Y41887881D01*
X75966600Y41887881D01*
X75971913Y41886457D01*
X76200000Y41866502D01*
X76428087Y41886457D01*
X76433400Y41887881D01*
X76433402Y41887881D01*
X76643933Y41944293D01*
X76643935Y41944294D01*
X76649243Y41945716D01*
X76655235Y41948510D01*
X76851762Y42040151D01*
X76851767Y42040154D01*
X76856749Y42042477D01*
X76961611Y42115902D01*
X77039789Y42170643D01*
X77039792Y42170645D01*
X77044300Y42173802D01*
X77206198Y42335700D01*
X77232049Y42372618D01*
X77298688Y42467789D01*
X77337523Y42523251D01*
X77339846Y42528233D01*
X77339849Y42528238D01*
X77431961Y42725775D01*
X77431961Y42725776D01*
X77434284Y42730757D01*
X77446923Y42777924D01*
X77492119Y42946598D01*
X77492119Y42946600D01*
X77493543Y42951913D01*
X77513498Y43180000D01*
X77493543Y43408087D01*
X77492119Y43413402D01*
X77435707Y43623933D01*
X77435706Y43623935D01*
X77434284Y43629243D01*
X77430207Y43637986D01*
X77339849Y43831762D01*
X77339846Y43831767D01*
X77337523Y43836749D01*
X77231287Y43988469D01*
X77208500Y44060740D01*
X77208500Y46661030D01*
X77228502Y46729151D01*
X77236460Y46739880D01*
X77238096Y46741511D01*
X77368453Y46922923D01*
X77389320Y46965143D01*
X77465136Y47118547D01*
X77465137Y47118549D01*
X77467430Y47123189D01*
X77532370Y47336931D01*
X77561529Y47558410D01*
X77562877Y47613567D01*
X77563074Y47621635D01*
X77563074Y47621639D01*
X77563156Y47625000D01*
X77544852Y47847639D01*
X77490431Y48064298D01*
X77401354Y48269160D01*
X77280014Y48456723D01*
X77129670Y48621949D01*
X77125619Y48625148D01*
X77125615Y48625152D01*
X76958414Y48757200D01*
X76958410Y48757202D01*
X76954359Y48760402D01*
X76913053Y48783204D01*
X76863084Y48833636D01*
X76848312Y48903079D01*
X76873428Y48969484D01*
X76900780Y48996091D01*
X76944603Y49027350D01*
X77079860Y49123827D01*
X77238096Y49281511D01*
X77368453Y49462923D01*
X77380107Y49486502D01*
X77465136Y49658547D01*
X77465137Y49658549D01*
X77467430Y49663189D01*
X77532370Y49876931D01*
X77561529Y50098410D01*
X77561611Y50101760D01*
X77563074Y50161635D01*
X77563074Y50161639D01*
X77563156Y50165000D01*
X77544852Y50387639D01*
X77490431Y50604298D01*
X77401354Y50809160D01*
X77280014Y50996723D01*
X77129670Y51161949D01*
X77125619Y51165148D01*
X77125615Y51165152D01*
X76958414Y51297200D01*
X76958410Y51297202D01*
X76954359Y51300402D01*
X76918028Y51320458D01*
X76902136Y51329231D01*
X76758789Y51408362D01*
X76753920Y51410086D01*
X76753916Y51410088D01*
X76553087Y51481205D01*
X76553083Y51481206D01*
X76548212Y51482931D01*
X76543119Y51483838D01*
X76543116Y51483839D01*
X76333373Y51521200D01*
X76333367Y51521201D01*
X76328284Y51522106D01*
X76254452Y51523008D01*
X76110081Y51524772D01*
X76110079Y51524772D01*
X76104911Y51524835D01*
X75884091Y51491045D01*
X75671756Y51421643D01*
X75473607Y51318493D01*
X75469474Y51315390D01*
X75469471Y51315388D01*
X75374302Y51243933D01*
X75294965Y51184365D01*
X75140629Y51022862D01*
X75033201Y50865379D01*
X74978293Y50820379D01*
X74907768Y50812208D01*
X74844021Y50843462D01*
X74823324Y50867946D01*
X74742822Y50992383D01*
X74742820Y50992386D01*
X74740014Y50996723D01*
X74589670Y51161949D01*
X74585619Y51165148D01*
X74585615Y51165152D01*
X74418414Y51297200D01*
X74418410Y51297202D01*
X74414359Y51300402D01*
X74378028Y51320458D01*
X74362136Y51329231D01*
X74218789Y51408362D01*
X74213920Y51410086D01*
X74213916Y51410088D01*
X74013087Y51481205D01*
X74013083Y51481206D01*
X74008212Y51482931D01*
X74003119Y51483838D01*
X74003116Y51483839D01*
X73793373Y51521200D01*
X73793367Y51521201D01*
X73788284Y51522106D01*
X73714452Y51523008D01*
X73570081Y51524772D01*
X73570079Y51524772D01*
X73564911Y51524835D01*
X73344091Y51491045D01*
X73131756Y51421643D01*
X72933607Y51318493D01*
X72929474Y51315390D01*
X72929471Y51315388D01*
X72834302Y51243933D01*
X72754965Y51184365D01*
X72600629Y51022862D01*
X72493204Y50865382D01*
X72492898Y50864934D01*
X72437987Y50819931D01*
X72367462Y50811760D01*
X72303715Y50843014D01*
X72283018Y50867498D01*
X72202426Y50992074D01*
X72196136Y51000243D01*
X72052806Y51157760D01*
X72045273Y51164785D01*
X71878139Y51296778D01*
X71869552Y51302483D01*
X71683117Y51405401D01*
X71673705Y51409631D01*
X71472959Y51480720D01*
X71462988Y51483354D01*
X71391837Y51496028D01*
X71378540Y51494568D01*
X71374000Y51480011D01*
X71374000Y50037000D01*
X71353998Y49968879D01*
X71300342Y49922386D01*
X71248000Y49911000D01*
X70992000Y49911000D01*
X70923879Y49931002D01*
X70877386Y49984658D01*
X70866000Y50037000D01*
X70866000Y51481898D01*
X70862082Y51495242D01*
X70847806Y51497229D01*
X70809324Y51491340D01*
X70799288Y51488949D01*
X70596868Y51422788D01*
X70587359Y51418791D01*
X70398463Y51320458D01*
X70389738Y51314964D01*
X70219433Y51187095D01*
X70211726Y51180252D01*
X70064590Y51026283D01*
X70058109Y51018278D01*
X69953498Y50864926D01*
X69898587Y50819924D01*
X69828062Y50811753D01*
X69764315Y50843007D01*
X69743618Y50867491D01*
X69662822Y50992383D01*
X69662820Y50992386D01*
X69660014Y50996723D01*
X69509670Y51161949D01*
X69505619Y51165148D01*
X69505615Y51165152D01*
X69338414Y51297200D01*
X69338410Y51297202D01*
X69334359Y51300402D01*
X69298028Y51320458D01*
X69282136Y51329231D01*
X69138789Y51408362D01*
X69133920Y51410086D01*
X69133916Y51410088D01*
X68933087Y51481205D01*
X68933083Y51481206D01*
X68928212Y51482931D01*
X68923119Y51483838D01*
X68923116Y51483839D01*
X68713373Y51521200D01*
X68713367Y51521201D01*
X68708284Y51522106D01*
X68634452Y51523008D01*
X68490081Y51524772D01*
X68490079Y51524772D01*
X68484911Y51524835D01*
X68264091Y51491045D01*
X68251532Y51486940D01*
X68180568Y51484790D01*
X68123294Y51517611D01*
X61543652Y58097253D01*
X61536112Y58105539D01*
X61532000Y58112018D01*
X61482348Y58158644D01*
X61479507Y58161398D01*
X61459770Y58181135D01*
X61456573Y58183615D01*
X61447551Y58191320D01*
X61421100Y58216159D01*
X61415321Y58221586D01*
X61408375Y58225405D01*
X61408372Y58225407D01*
X61397566Y58231348D01*
X61381047Y58242199D01*
X61380583Y58242559D01*
X61365041Y58254614D01*
X61357772Y58257759D01*
X61357768Y58257762D01*
X61324463Y58272174D01*
X61313813Y58277391D01*
X61275060Y58298695D01*
X61255437Y58303733D01*
X61236734Y58310137D01*
X61225420Y58315033D01*
X61225419Y58315033D01*
X61218145Y58318181D01*
X61210322Y58319420D01*
X61210312Y58319423D01*
X61174476Y58325099D01*
X61162856Y58327505D01*
X61127711Y58336528D01*
X61127710Y58336528D01*
X61120030Y58338500D01*
X61099776Y58338500D01*
X61080065Y58340051D01*
X61067886Y58341980D01*
X61060057Y58343220D01*
X61052165Y58342474D01*
X61016039Y58339059D01*
X61004181Y58338500D01*
X43816601Y58338500D01*
X43748480Y58358502D01*
X43713388Y58392229D01*
X43602046Y58551242D01*
X43602044Y58551245D01*
X43598887Y58555753D01*
X43435753Y58718887D01*
X43431245Y58722044D01*
X43431242Y58722046D01*
X43303038Y58811815D01*
X43246768Y58851216D01*
X43241786Y58853539D01*
X43241781Y58853542D01*
X43135442Y58903128D01*
X43037676Y58948717D01*
X42814830Y59008429D01*
X42585000Y59028536D01*
X42355170Y59008429D01*
X42132324Y58948717D01*
X42034558Y58903128D01*
X41928219Y58853542D01*
X41928214Y58853539D01*
X41923232Y58851216D01*
X41866962Y58811815D01*
X41738758Y58722046D01*
X41738755Y58722044D01*
X41734247Y58718887D01*
X41571113Y58555753D01*
X41438784Y58366768D01*
X41436461Y58361786D01*
X41436458Y58361781D01*
X41397109Y58277396D01*
X41341283Y58157676D01*
X41281571Y57934830D01*
X41261464Y57705000D01*
X41281571Y57475170D01*
X41341283Y57252324D01*
X41343608Y57247339D01*
X41436458Y57048219D01*
X41436461Y57048214D01*
X41438784Y57043232D01*
X41512728Y56937630D01*
X41557586Y56873566D01*
X41571113Y56854247D01*
X41734247Y56691113D01*
X41738755Y56687956D01*
X41738758Y56687954D01*
X41817630Y56632728D01*
X41923232Y56558784D01*
X41928214Y56556461D01*
X41928219Y56556458D01*
X42003173Y56521507D01*
X42132324Y56461283D01*
X42355170Y56401571D01*
X42585000Y56381464D01*
X42814830Y56401571D01*
X43037676Y56461283D01*
X43166827Y56521507D01*
X43241781Y56556458D01*
X43241786Y56556461D01*
X43246768Y56558784D01*
X43352370Y56632728D01*
X43431242Y56687954D01*
X43431245Y56687956D01*
X43435753Y56691113D01*
X43598887Y56854247D01*
X43612415Y56873566D01*
X43713388Y57017771D01*
X43768845Y57062099D01*
X43816601Y57071500D01*
X49964021Y57071500D01*
X50032142Y57051498D01*
X50078635Y56997842D01*
X50088739Y56927568D01*
X50079135Y56905384D01*
X50077455Y56889146D01*
X50085644Y56873566D01*
X50787188Y56172022D01*
X50801132Y56164408D01*
X50802965Y56164539D01*
X50809580Y56168790D01*
X51515077Y56874287D01*
X51522691Y56888231D01*
X51521635Y56903007D01*
X51509308Y56934521D01*
X51523299Y57004126D01*
X51572699Y57055117D01*
X51634829Y57071500D01*
X60725406Y57071500D01*
X60793527Y57051498D01*
X60814501Y57034595D01*
X66110086Y51739010D01*
X66144112Y51676698D01*
X66139047Y51605883D01*
X66096500Y51549047D01*
X66029980Y51524236D01*
X66019459Y51523924D01*
X65971962Y51524505D01*
X65950080Y51524772D01*
X65950078Y51524772D01*
X65944911Y51524835D01*
X65724091Y51491045D01*
X65511756Y51421643D01*
X65313607Y51318493D01*
X65309474Y51315390D01*
X65309471Y51315388D01*
X65214302Y51243933D01*
X65134965Y51184365D01*
X64980629Y51022862D01*
X64873201Y50865379D01*
X64818293Y50820379D01*
X64747768Y50812208D01*
X64684021Y50843462D01*
X64663324Y50867946D01*
X64582822Y50992383D01*
X64582820Y50992386D01*
X64580014Y50996723D01*
X64429670Y51161949D01*
X64425619Y51165148D01*
X64425615Y51165152D01*
X64258414Y51297200D01*
X64258410Y51297202D01*
X64254359Y51300402D01*
X64218028Y51320458D01*
X64202136Y51329231D01*
X64058789Y51408362D01*
X64053920Y51410086D01*
X64053916Y51410088D01*
X63853087Y51481205D01*
X63853083Y51481206D01*
X63848212Y51482931D01*
X63843119Y51483838D01*
X63843116Y51483839D01*
X63633373Y51521200D01*
X63633367Y51521201D01*
X63628284Y51522106D01*
X63554452Y51523008D01*
X63410081Y51524772D01*
X63410079Y51524772D01*
X63404911Y51524835D01*
X63184091Y51491045D01*
X62971756Y51421643D01*
X62773607Y51318493D01*
X62769474Y51315390D01*
X62769471Y51315388D01*
X62674302Y51243933D01*
X62594965Y51184365D01*
X62440629Y51022862D01*
X62333201Y50865379D01*
X62278293Y50820379D01*
X62207768Y50812208D01*
X62144021Y50843462D01*
X62123324Y50867946D01*
X62042822Y50992383D01*
X62042820Y50992386D01*
X62040014Y50996723D01*
X61889670Y51161949D01*
X61885619Y51165148D01*
X61885615Y51165152D01*
X61718414Y51297200D01*
X61718410Y51297202D01*
X61714359Y51300402D01*
X61678028Y51320458D01*
X61662136Y51329231D01*
X61518789Y51408362D01*
X61513920Y51410086D01*
X61513916Y51410088D01*
X61313087Y51481205D01*
X61313083Y51481206D01*
X61308212Y51482931D01*
X61303119Y51483838D01*
X61303116Y51483839D01*
X61093373Y51521200D01*
X61093367Y51521201D01*
X61088284Y51522106D01*
X61014452Y51523008D01*
X60870081Y51524772D01*
X60870079Y51524772D01*
X60864911Y51524835D01*
X60644091Y51491045D01*
X60431756Y51421643D01*
X60233607Y51318493D01*
X60229474Y51315390D01*
X60229471Y51315388D01*
X60134302Y51243933D01*
X60054965Y51184365D01*
X59900629Y51022862D01*
X59793201Y50865379D01*
X59738293Y50820379D01*
X59667768Y50812208D01*
X59604021Y50843462D01*
X59583324Y50867946D01*
X59502822Y50992383D01*
X59502820Y50992386D01*
X59500014Y50996723D01*
X59349670Y51161949D01*
X59345619Y51165148D01*
X59345615Y51165152D01*
X59178414Y51297200D01*
X59178410Y51297202D01*
X59174359Y51300402D01*
X59138028Y51320458D01*
X59122136Y51329231D01*
X58978789Y51408362D01*
X58973920Y51410086D01*
X58973916Y51410088D01*
X58773087Y51481205D01*
X58773083Y51481206D01*
X58768212Y51482931D01*
X58763119Y51483838D01*
X58763116Y51483839D01*
X58553373Y51521200D01*
X58553367Y51521201D01*
X58548284Y51522106D01*
X58474452Y51523008D01*
X58330081Y51524772D01*
X58330079Y51524772D01*
X58324911Y51524835D01*
X58104091Y51491045D01*
X57891756Y51421643D01*
X57693607Y51318493D01*
X57689474Y51315390D01*
X57689471Y51315388D01*
X57594302Y51243933D01*
X57514965Y51184365D01*
X57360629Y51022862D01*
X57253201Y50865379D01*
X57198293Y50820379D01*
X57127768Y50812208D01*
X57064021Y50843462D01*
X57043324Y50867946D01*
X56962822Y50992383D01*
X56962820Y50992386D01*
X56960014Y50996723D01*
X56809670Y51161949D01*
X56805619Y51165148D01*
X56805615Y51165152D01*
X56638414Y51297200D01*
X56638410Y51297202D01*
X56634359Y51300402D01*
X56598028Y51320458D01*
X56582136Y51329231D01*
X56438789Y51408362D01*
X56433920Y51410086D01*
X56433916Y51410088D01*
X56233087Y51481205D01*
X56233083Y51481206D01*
X56228212Y51482931D01*
X56223119Y51483838D01*
X56223116Y51483839D01*
X56013373Y51521200D01*
X56013367Y51521201D01*
X56008284Y51522106D01*
X55934452Y51523008D01*
X55790081Y51524772D01*
X55790079Y51524772D01*
X55784911Y51524835D01*
X55564091Y51491045D01*
X55351756Y51421643D01*
X55153607Y51318493D01*
X55149474Y51315390D01*
X55149471Y51315388D01*
X55054302Y51243933D01*
X54974965Y51184365D01*
X54820629Y51022862D01*
X54694743Y50838320D01*
X54600688Y50635695D01*
X54540989Y50420430D01*
X54517251Y50198305D01*
X54517548Y50193152D01*
X54517548Y50193149D01*
X54523011Y50098410D01*
X54530110Y49975285D01*
X54531247Y49970239D01*
X54531248Y49970233D01*
X54563453Y49827332D01*
X54558917Y49756480D01*
X54529631Y49710536D01*
X52195200Y47376105D01*
X52132888Y47342079D01*
X52106105Y47339200D01*
X46316319Y47339200D01*
X46248198Y47359202D01*
X46201705Y47412858D01*
X46191009Y47452029D01*
X46174031Y47613567D01*
X46174030Y47613570D01*
X46173341Y47620129D01*
X46114326Y47801757D01*
X46018839Y47967145D01*
X46002681Y47985091D01*
X45895474Y48104156D01*
X45895473Y48104157D01*
X45891052Y48109067D01*
X45736551Y48221319D01*
X45730523Y48224003D01*
X45730521Y48224004D01*
X45568118Y48296310D01*
X45568117Y48296310D01*
X45562087Y48298995D01*
X45437947Y48325382D01*
X45381743Y48337329D01*
X45381738Y48337329D01*
X45375286Y48338701D01*
X45184312Y48338701D01*
X45177860Y48337329D01*
X45177855Y48337329D01*
X45121651Y48325382D01*
X44997511Y48298995D01*
X44991481Y48296310D01*
X44991480Y48296310D01*
X44829077Y48224004D01*
X44829075Y48224003D01*
X44823047Y48221319D01*
X44668546Y48109067D01*
X44664131Y48104164D01*
X44659219Y48099741D01*
X44658094Y48100990D01*
X44604785Y48068150D01*
X44571599Y48063701D01*
X21854968Y48063701D01*
X21843785Y48064228D01*
X21836292Y48065903D01*
X21828366Y48065654D01*
X21828365Y48065654D01*
X21768215Y48063763D01*
X21764256Y48063701D01*
X21736345Y48063701D01*
X21732411Y48063204D01*
X21732410Y48063204D01*
X21732345Y48063196D01*
X21720508Y48062263D01*
X21688250Y48061249D01*
X21684231Y48061123D01*
X21676312Y48060874D01*
X21656858Y48055222D01*
X21637501Y48051214D01*
X21625271Y48049669D01*
X21625270Y48049669D01*
X21617404Y48048675D01*
X21610033Y48045756D01*
X21610031Y48045756D01*
X21576289Y48032397D01*
X21565059Y48028552D01*
X21530218Y48018430D01*
X21530217Y48018430D01*
X21522608Y48016219D01*
X21515789Y48012186D01*
X21515784Y48012184D01*
X21505173Y48005908D01*
X21487425Y47997213D01*
X21468584Y47989753D01*
X21462168Y47985091D01*
X21462167Y47985091D01*
X21432814Y47963765D01*
X21422894Y47957249D01*
X21391666Y47938781D01*
X21391663Y47938779D01*
X21384839Y47934743D01*
X21370518Y47920422D01*
X21355485Y47907582D01*
X21339094Y47895673D01*
X21334043Y47889567D01*
X21310903Y47861596D01*
X21302913Y47852817D01*
X13621248Y40171152D01*
X13558936Y40137126D01*
X13499541Y40138541D01*
X13441409Y40154118D01*
X13441398Y40154120D01*
X13436087Y40155543D01*
X13208000Y40175498D01*
X12979913Y40155543D01*
X12974600Y40154119D01*
X12974598Y40154119D01*
X12764067Y40097707D01*
X12764065Y40097706D01*
X12758757Y40096284D01*
X12753776Y40093961D01*
X12753775Y40093961D01*
X12556238Y40001849D01*
X12556233Y40001846D01*
X12551251Y39999523D01*
X12446389Y39926098D01*
X12368211Y39871357D01*
X12368208Y39871355D01*
X12363700Y39868198D01*
X12201802Y39706300D01*
X12198645Y39701792D01*
X12198643Y39701789D01*
X12160995Y39648022D01*
X12070477Y39518749D01*
X12068154Y39513767D01*
X12068151Y39513762D01*
X12052195Y39479543D01*
X12005278Y39426258D01*
X11937001Y39406797D01*
X11869041Y39427339D01*
X11823805Y39479543D01*
X11807849Y39513762D01*
X11807846Y39513767D01*
X11805523Y39518749D01*
X11715005Y39648022D01*
X11677357Y39701789D01*
X11677355Y39701792D01*
X11674198Y39706300D01*
X11512300Y39868198D01*
X11507792Y39871355D01*
X11507789Y39871357D01*
X11429611Y39926098D01*
X11324749Y39999523D01*
X11319767Y40001846D01*
X11319762Y40001849D01*
X11122225Y40093961D01*
X11122224Y40093961D01*
X11117243Y40096284D01*
X11111935Y40097706D01*
X11111933Y40097707D01*
X10901402Y40154119D01*
X10901400Y40154119D01*
X10896087Y40155543D01*
X10668000Y40175498D01*
X10439913Y40155543D01*
X10434600Y40154119D01*
X10434598Y40154119D01*
X10224067Y40097707D01*
X10224065Y40097706D01*
X10218757Y40096284D01*
X10213776Y40093961D01*
X10213775Y40093961D01*
X10016238Y40001849D01*
X10016233Y40001846D01*
X10011251Y39999523D01*
X9906389Y39926098D01*
X9828211Y39871357D01*
X9828208Y39871355D01*
X9823700Y39868198D01*
X9661802Y39706300D01*
X9658645Y39701792D01*
X9658643Y39701789D01*
X9620995Y39648022D01*
X9530477Y39518749D01*
X9528154Y39513767D01*
X9528151Y39513762D01*
X9512195Y39479543D01*
X9465278Y39426258D01*
X9397001Y39406797D01*
X9329041Y39427339D01*
X9283805Y39479543D01*
X9267849Y39513762D01*
X9267846Y39513767D01*
X9265523Y39518749D01*
X9175005Y39648022D01*
X9137357Y39701789D01*
X9137355Y39701792D01*
X9134198Y39706300D01*
X8972300Y39868198D01*
X8967792Y39871355D01*
X8967789Y39871357D01*
X8889611Y39926098D01*
X8784749Y39999523D01*
X8779767Y40001846D01*
X8779762Y40001849D01*
X8582225Y40093961D01*
X8582224Y40093961D01*
X8577243Y40096284D01*
X8571935Y40097706D01*
X8571933Y40097707D01*
X8361402Y40154119D01*
X8361400Y40154119D01*
X8356087Y40155543D01*
X8128000Y40175498D01*
X7899913Y40155543D01*
X7894600Y40154119D01*
X7894598Y40154119D01*
X7684067Y40097707D01*
X7684065Y40097706D01*
X7678757Y40096284D01*
X7673776Y40093961D01*
X7673775Y40093961D01*
X7476238Y40001849D01*
X7476233Y40001846D01*
X7471251Y39999523D01*
X7366389Y39926098D01*
X7288211Y39871357D01*
X7288208Y39871355D01*
X7283700Y39868198D01*
X7121802Y39706300D01*
X7118645Y39701792D01*
X7118643Y39701789D01*
X7080995Y39648022D01*
X6990477Y39518749D01*
X6988154Y39513767D01*
X6988151Y39513762D01*
X6900465Y39325717D01*
X6893716Y39311243D01*
X6892294Y39305935D01*
X6892293Y39305933D01*
X6858000Y39177950D01*
X6834457Y39090087D01*
X6814502Y38862000D01*
X6834457Y38633913D01*
X6893716Y38412757D01*
X6896039Y38407776D01*
X6896039Y38407775D01*
X6988151Y38210238D01*
X6988154Y38210233D01*
X6990477Y38205251D01*
X7018626Y38165050D01*
X7108238Y38037072D01*
X7121802Y38017700D01*
X7283700Y37855802D01*
X7288208Y37852645D01*
X7288211Y37852643D01*
X7294999Y37847890D01*
X7471251Y37724477D01*
X7476233Y37722154D01*
X7476238Y37722151D01*
X7673775Y37630039D01*
X7678757Y37627716D01*
X7684065Y37626294D01*
X7684067Y37626293D01*
X7894598Y37569881D01*
X7894600Y37569881D01*
X7899913Y37568457D01*
X7973209Y37562044D01*
X8000267Y37559677D01*
X8066385Y37533813D01*
X8108024Y37476310D01*
X8111965Y37405423D01*
X8078380Y37345061D01*
X6389088Y35655769D01*
X6374676Y35643383D01*
X6363081Y35634850D01*
X6363076Y35634845D01*
X6357181Y35630507D01*
X6352442Y35624929D01*
X6352439Y35624926D01*
X6322964Y35590231D01*
X6316034Y35582715D01*
X6310339Y35577020D01*
X6308059Y35574138D01*
X6292718Y35554748D01*
X6289927Y35551344D01*
X6247408Y35501296D01*
X6242666Y35495714D01*
X6239338Y35489198D01*
X6235971Y35484149D01*
X6232804Y35479020D01*
X6228265Y35473283D01*
X6197344Y35407124D01*
X6195441Y35403230D01*
X6162230Y35338191D01*
X6160491Y35331083D01*
X6158392Y35325440D01*
X6156475Y35319677D01*
X6153377Y35313049D01*
X6151887Y35305887D01*
X6151887Y35305886D01*
X6138513Y35241587D01*
X6137543Y35237303D01*
X6120191Y35166389D01*
X6119499Y35155235D01*
X6119463Y35155237D01*
X6119224Y35151244D01*
X6118850Y35147052D01*
X6117359Y35139884D01*
X6117557Y35132567D01*
X6119453Y35062478D01*
X6119499Y35059071D01*
X6119499Y30709069D01*
X6118066Y30690119D01*
X6116109Y30677253D01*
X6114800Y30668650D01*
X508000Y30668650D01*
X508000Y50800000D01*
X49486502Y50800000D01*
X49506457Y50571913D01*
X49507881Y50566600D01*
X49507881Y50566598D01*
X49554489Y50392658D01*
X49565716Y50350757D01*
X49568039Y50345776D01*
X49568039Y50345775D01*
X49660151Y50148238D01*
X49660154Y50148233D01*
X49662477Y50143251D01*
X49735902Y50038389D01*
X49776470Y49980453D01*
X49793802Y49955700D01*
X49955700Y49793802D01*
X49960208Y49790645D01*
X49960211Y49790643D01*
X50007743Y49757361D01*
X50143251Y49662477D01*
X50148233Y49660154D01*
X50148238Y49660151D01*
X50345775Y49568039D01*
X50350757Y49565716D01*
X50356065Y49564294D01*
X50356067Y49564293D01*
X50566598Y49507881D01*
X50566600Y49507881D01*
X50571913Y49506457D01*
X50800000Y49486502D01*
X51028087Y49506457D01*
X51033400Y49507881D01*
X51033402Y49507881D01*
X51243933Y49564293D01*
X51243935Y49564294D01*
X51249243Y49565716D01*
X51254225Y49568039D01*
X51451762Y49660151D01*
X51451767Y49660154D01*
X51456749Y49662477D01*
X51592257Y49757361D01*
X51639789Y49790643D01*
X51639792Y49790645D01*
X51644300Y49793802D01*
X51806198Y49955700D01*
X51823531Y49980453D01*
X51864098Y50038389D01*
X51937523Y50143251D01*
X51939846Y50148233D01*
X51939849Y50148238D01*
X52031961Y50345775D01*
X52031961Y50345776D01*
X52034284Y50350757D01*
X52045512Y50392658D01*
X52092119Y50566598D01*
X52092119Y50566600D01*
X52093543Y50571913D01*
X52113498Y50800000D01*
X52093543Y51028087D01*
X52034284Y51249243D01*
X52012118Y51296778D01*
X51939849Y51451762D01*
X51939846Y51451767D01*
X51937523Y51456749D01*
X51806198Y51644300D01*
X51644300Y51806198D01*
X51639792Y51809355D01*
X51639789Y51809357D01*
X51561611Y51864098D01*
X51456749Y51937523D01*
X51451767Y51939846D01*
X51451762Y51939849D01*
X51254225Y52031961D01*
X51254224Y52031961D01*
X51249243Y52034284D01*
X51243935Y52035706D01*
X51243933Y52035707D01*
X51033402Y52092119D01*
X51033400Y52092119D01*
X51028087Y52093543D01*
X50800000Y52113498D01*
X50571913Y52093543D01*
X50566600Y52092119D01*
X50566598Y52092119D01*
X50356067Y52035707D01*
X50356065Y52035706D01*
X50350757Y52034284D01*
X50345776Y52031961D01*
X50345775Y52031961D01*
X50148238Y51939849D01*
X50148233Y51939846D01*
X50143251Y51937523D01*
X50038389Y51864098D01*
X49960211Y51809357D01*
X49960208Y51809355D01*
X49955700Y51806198D01*
X49793802Y51644300D01*
X49662477Y51456749D01*
X49660154Y51451767D01*
X49660151Y51451762D01*
X49587882Y51296778D01*
X49565716Y51249243D01*
X49506457Y51028087D01*
X49486502Y50800000D01*
X508000Y50800000D01*
X508000Y52705000D01*
X38761464Y52705000D01*
X38781571Y52475170D01*
X38841283Y52252324D01*
X38843608Y52247339D01*
X38936458Y52048219D01*
X38936461Y52048214D01*
X38938784Y52043232D01*
X39071113Y51854247D01*
X39234247Y51691113D01*
X39238755Y51687956D01*
X39238758Y51687954D01*
X39295537Y51648197D01*
X39423232Y51558784D01*
X39428214Y51556461D01*
X39428219Y51556458D01*
X39501753Y51522169D01*
X39632324Y51461283D01*
X39855170Y51401571D01*
X40085000Y51381464D01*
X40314830Y51401571D01*
X40537676Y51461283D01*
X40668247Y51522169D01*
X40741781Y51556458D01*
X40741786Y51556461D01*
X40746768Y51558784D01*
X40822421Y51611757D01*
X44356312Y51611757D01*
X44365608Y51599742D01*
X44418974Y51562375D01*
X44428469Y51556892D01*
X44627513Y51464077D01*
X44637805Y51460331D01*
X44849942Y51403489D01*
X44860737Y51401586D01*
X45079525Y51382444D01*
X45090475Y51382444D01*
X45309263Y51401586D01*
X45320058Y51403489D01*
X45532195Y51460331D01*
X45542487Y51464077D01*
X45741531Y51556892D01*
X45751026Y51562375D01*
X45805230Y51600329D01*
X45813605Y51610806D01*
X45806537Y51624253D01*
X45097812Y52332978D01*
X45083868Y52340592D01*
X45082035Y52340461D01*
X45075420Y52336210D01*
X44362742Y51623532D01*
X44356312Y51611757D01*
X40822421Y51611757D01*
X40874463Y51648197D01*
X40931242Y51687954D01*
X40931245Y51687956D01*
X40935753Y51691113D01*
X41098887Y51854247D01*
X41231216Y52043232D01*
X41233539Y52048214D01*
X41233542Y52048219D01*
X41326392Y52247339D01*
X41328717Y52252324D01*
X41388429Y52475170D01*
X41408057Y52699525D01*
X43762444Y52699525D01*
X43781586Y52480737D01*
X43783489Y52469942D01*
X43840331Y52257805D01*
X43844077Y52247513D01*
X43936895Y52048464D01*
X43942373Y52038978D01*
X43980328Y51984771D01*
X43990806Y51976396D01*
X44004254Y51983464D01*
X44712978Y52692188D01*
X44719356Y52703868D01*
X45449408Y52703868D01*
X45449539Y52702035D01*
X45453790Y52695420D01*
X46166468Y51982742D01*
X46178242Y51976312D01*
X46190258Y51985609D01*
X46227627Y52038978D01*
X46233105Y52048464D01*
X46325923Y52247513D01*
X46329669Y52257805D01*
X46386511Y52469942D01*
X46388414Y52480737D01*
X46407556Y52699525D01*
X46407556Y52710475D01*
X46388414Y52929263D01*
X46386511Y52940058D01*
X46329669Y53152195D01*
X46325923Y53162487D01*
X46233105Y53361536D01*
X46227627Y53371022D01*
X46189672Y53425229D01*
X46179194Y53433604D01*
X46165746Y53426536D01*
X45457022Y52717812D01*
X45449408Y52703868D01*
X44719356Y52703868D01*
X44720592Y52706132D01*
X44720461Y52707965D01*
X44716210Y52714580D01*
X44003532Y53427258D01*
X43991758Y53433688D01*
X43979742Y53424391D01*
X43942373Y53371022D01*
X43936895Y53361536D01*
X43844077Y53162487D01*
X43840331Y53152195D01*
X43783489Y52940058D01*
X43781586Y52929263D01*
X43762444Y52710475D01*
X43762444Y52699525D01*
X41408057Y52699525D01*
X41408536Y52705000D01*
X41388429Y52934830D01*
X41328717Y53157676D01*
X41233656Y53361536D01*
X41233542Y53361781D01*
X41233539Y53361786D01*
X41231216Y53366768D01*
X41098887Y53555753D01*
X40935753Y53718887D01*
X40931245Y53722044D01*
X40931242Y53722046D01*
X40840269Y53785746D01*
X40821063Y53799194D01*
X44356396Y53799194D01*
X44363464Y53785746D01*
X45072188Y53077022D01*
X45086132Y53069408D01*
X45087965Y53069539D01*
X45094580Y53073790D01*
X45807258Y53786468D01*
X45813688Y53798243D01*
X45804392Y53810258D01*
X45751026Y53847625D01*
X45741531Y53853108D01*
X45542487Y53945923D01*
X45532195Y53949669D01*
X45320058Y54006511D01*
X45309263Y54008414D01*
X45090475Y54027556D01*
X45079525Y54027556D01*
X44860737Y54008414D01*
X44849942Y54006511D01*
X44637805Y53949669D01*
X44627513Y53945923D01*
X44428464Y53853105D01*
X44418978Y53847627D01*
X44364771Y53809672D01*
X44356396Y53799194D01*
X40821063Y53799194D01*
X40746768Y53851216D01*
X40741786Y53853539D01*
X40741781Y53853542D01*
X40635442Y53903128D01*
X40537676Y53948717D01*
X40314830Y54008429D01*
X40085000Y54028536D01*
X39855170Y54008429D01*
X39632324Y53948717D01*
X39534558Y53903128D01*
X39428219Y53853542D01*
X39428214Y53853539D01*
X39423232Y53851216D01*
X39329731Y53785746D01*
X39238758Y53722046D01*
X39238755Y53722044D01*
X39234247Y53718887D01*
X39071113Y53555753D01*
X38938784Y53366768D01*
X38936461Y53361786D01*
X38936458Y53361781D01*
X38936344Y53361536D01*
X38841283Y53157676D01*
X38781571Y52934830D01*
X38761464Y52705000D01*
X508000Y52705000D01*
X508000Y54713938D01*
X50078493Y54713938D01*
X50087789Y54701923D01*
X50138994Y54666069D01*
X50148489Y54660586D01*
X50345947Y54568510D01*
X50356239Y54564764D01*
X50566688Y54508375D01*
X50577481Y54506472D01*
X50794525Y54487483D01*
X50805475Y54487483D01*
X51022519Y54506472D01*
X51033312Y54508375D01*
X51243761Y54564764D01*
X51254053Y54568510D01*
X51451511Y54660586D01*
X51461006Y54666069D01*
X51513048Y54702509D01*
X51521424Y54712988D01*
X51514356Y54726434D01*
X50812812Y55427978D01*
X50798868Y55435592D01*
X50797035Y55435461D01*
X50790420Y55431210D01*
X50084923Y54725713D01*
X50078493Y54713938D01*
X508000Y54713938D01*
X508000Y55794525D01*
X49487483Y55794525D01*
X49506472Y55577481D01*
X49508375Y55566688D01*
X49564764Y55356239D01*
X49568510Y55345947D01*
X49660586Y55148489D01*
X49666069Y55138994D01*
X49702509Y55086952D01*
X49712988Y55078576D01*
X49726434Y55085644D01*
X50427978Y55787188D01*
X50434356Y55798868D01*
X51164408Y55798868D01*
X51164539Y55797035D01*
X51168790Y55790420D01*
X51874287Y55084923D01*
X51886062Y55078493D01*
X51898077Y55087789D01*
X51933931Y55138994D01*
X51939414Y55148489D01*
X52031490Y55345947D01*
X52035236Y55356239D01*
X52091625Y55566688D01*
X52093528Y55577481D01*
X52112517Y55794525D01*
X52112517Y55805475D01*
X52093528Y56022519D01*
X52091625Y56033312D01*
X52035236Y56243761D01*
X52031490Y56254053D01*
X51939414Y56451511D01*
X51933931Y56461006D01*
X51897491Y56513048D01*
X51887012Y56521424D01*
X51873566Y56514356D01*
X51172022Y55812812D01*
X51164408Y55798868D01*
X50434356Y55798868D01*
X50435592Y55801132D01*
X50435461Y55802965D01*
X50431210Y55809580D01*
X49725713Y56515077D01*
X49713938Y56521507D01*
X49701923Y56512211D01*
X49666069Y56461006D01*
X49660586Y56451511D01*
X49568510Y56254053D01*
X49564764Y56243761D01*
X49508375Y56033312D01*
X49506472Y56022519D01*
X49487483Y55805475D01*
X49487483Y55794525D01*
X508000Y55794525D01*
X508000Y57862672D01*
X509500Y57882057D01*
X511805Y57896858D01*
X511805Y57896861D01*
X513186Y57905730D01*
X511195Y57920957D01*
X510452Y57946281D01*
X524162Y58137971D01*
X526720Y58155765D01*
X572962Y58368337D01*
X578027Y58385586D01*
X623087Y58506398D01*
X654050Y58589414D01*
X661516Y58605761D01*
X765773Y58796692D01*
X775492Y58811815D01*
X905859Y58985965D01*
X917632Y58999551D01*
X1071449Y59153368D01*
X1085035Y59165141D01*
X1259185Y59295508D01*
X1274308Y59305227D01*
X1465239Y59409484D01*
X1481586Y59416950D01*
X1632702Y59473313D01*
X1685414Y59492973D01*
X1702663Y59498038D01*
X1915235Y59544280D01*
X1933029Y59546838D01*
X1955066Y59548414D01*
X2117631Y59560041D01*
X2135532Y59559297D01*
X2143858Y59559195D01*
X2152730Y59557814D01*
X2161632Y59558978D01*
X2161635Y59558978D01*
X2184251Y59561936D01*
X2200589Y59563000D01*
X78563672Y59563000D01*
X78583056Y59561500D01*
G37*
%TD.AperFunction*%
%TA.AperFunction,Conductor*%
G36*
X27887613Y31796998D02*
G01*
X27934106Y31743342D01*
X27944210Y31673068D01*
X27922705Y31618729D01*
X27822069Y31475006D01*
X27816586Y31465511D01*
X27724510Y31268053D01*
X27720764Y31257761D01*
X27664375Y31047312D01*
X27662472Y31036519D01*
X27643483Y30819475D01*
X27643483Y30808525D01*
X27662472Y30591481D01*
X27664375Y30580688D01*
X27720764Y30370239D01*
X27724510Y30359947D01*
X27816586Y30162489D01*
X27822069Y30152993D01*
X27888371Y30058304D01*
X27911059Y29991030D01*
X27893774Y29922169D01*
X27842004Y29873585D01*
X27785158Y29860033D01*
X26607703Y29860033D01*
X26539582Y29880035D01*
X26493089Y29933691D01*
X26482985Y30003965D01*
X26512479Y30068545D01*
X26554454Y30100228D01*
X26559507Y30102584D01*
X26569007Y30108069D01*
X26747467Y30233028D01*
X26755875Y30240084D01*
X26909916Y30394125D01*
X26916972Y30402533D01*
X27041931Y30580993D01*
X27047414Y30590489D01*
X27139490Y30787947D01*
X27143236Y30798239D01*
X27189394Y30970503D01*
X27189058Y30984599D01*
X27181116Y30988000D01*
X25780000Y30988000D01*
X25711879Y31008002D01*
X25665386Y31061658D01*
X25654000Y31114000D01*
X25654000Y31370000D01*
X25674002Y31438121D01*
X25727658Y31484614D01*
X25780000Y31496000D01*
X27175967Y31496000D01*
X27189498Y31499973D01*
X27190727Y31508522D01*
X27150570Y31658389D01*
X27152260Y31729365D01*
X27192054Y31788161D01*
X27257318Y31816109D01*
X27272277Y31817000D01*
X27819492Y31817000D01*
X27887613Y31796998D01*
G37*
%TD.AperFunction*%
%TD*%
M02*
