%TF.GenerationSoftware,KiCad,Pcbnew,(6.0.2-0)*%
%TF.CreationDate,2022-08-21T14:39:22+02:00*%
%TF.ProjectId,lcd_board,6c63645f-626f-4617-9264-2e6b69636164,rev?*%
%TF.SameCoordinates,Original*%
%TF.FileFunction,Legend,Bot*%
%TF.FilePolarity,Positive*%
%FSLAX46Y46*%
G04 Gerber Fmt 4.6, Leading zero omitted, Abs format (unit mm)*
G04 Created by KiCad (PCBNEW (6.0.2-0)) date 2022-08-21 14:39:22*
%MOMM*%
%LPD*%
G01*
G04 APERTURE LIST*
%ADD10C,0.300000*%
%ADD11C,0.010000*%
G04 APERTURE END LIST*
D10*
X34764285Y51228571D02*
X34764285Y49895238D01*
X35240476Y51990476D02*
X35716666Y50561904D01*
X34478571Y50561904D01*
X33335714Y51895238D02*
X33145238Y51895238D01*
X32954761Y51800000D01*
X32859523Y51704761D01*
X32764285Y51514285D01*
X32669047Y51133333D01*
X32669047Y50657142D01*
X32764285Y50276190D01*
X32859523Y50085714D01*
X32954761Y49990476D01*
X33145238Y49895238D01*
X33335714Y49895238D01*
X33526190Y49990476D01*
X33621428Y50085714D01*
X33716666Y50276190D01*
X33811904Y50657142D01*
X33811904Y51133333D01*
X33716666Y51514285D01*
X33621428Y51704761D01*
X33526190Y51800000D01*
X33335714Y51895238D01*
X31430952Y51895238D02*
X31240476Y51895238D01*
X31050000Y51800000D01*
X30954761Y51704761D01*
X30859523Y51514285D01*
X30764285Y51133333D01*
X30764285Y50657142D01*
X30859523Y50276190D01*
X30954761Y50085714D01*
X31050000Y49990476D01*
X31240476Y49895238D01*
X31430952Y49895238D01*
X31621428Y49990476D01*
X31716666Y50085714D01*
X31811904Y50276190D01*
X31907142Y50657142D01*
X31907142Y51133333D01*
X31811904Y51514285D01*
X31716666Y51704761D01*
X31621428Y51800000D01*
X31430952Y51895238D01*
X29050000Y51228571D02*
X29050000Y49895238D01*
X29526190Y51990476D02*
X30002380Y50561904D01*
X28764285Y50561904D01*
X25526190Y49895238D02*
X26478571Y49895238D01*
X26478571Y51895238D01*
X23716666Y50085714D02*
X23811904Y49990476D01*
X24097619Y49895238D01*
X24288095Y49895238D01*
X24573809Y49990476D01*
X24764285Y50180952D01*
X24859523Y50371428D01*
X24954761Y50752380D01*
X24954761Y51038095D01*
X24859523Y51419047D01*
X24764285Y51609523D01*
X24573809Y51800000D01*
X24288095Y51895238D01*
X24097619Y51895238D01*
X23811904Y51800000D01*
X23716666Y51704761D01*
X22859523Y49895238D02*
X22859523Y51895238D01*
X22383333Y51895238D01*
X22097619Y51800000D01*
X21907142Y51609523D01*
X21811904Y51419047D01*
X21716666Y51038095D01*
X21716666Y50752380D01*
X21811904Y50371428D01*
X21907142Y50180952D01*
X22097619Y49990476D01*
X22383333Y49895238D01*
X22859523Y49895238D01*
X18669047Y50942857D02*
X18383333Y50847619D01*
X18288095Y50752380D01*
X18192857Y50561904D01*
X18192857Y50276190D01*
X18288095Y50085714D01*
X18383333Y49990476D01*
X18573809Y49895238D01*
X19335714Y49895238D01*
X19335714Y51895238D01*
X18669047Y51895238D01*
X18478571Y51800000D01*
X18383333Y51704761D01*
X18288095Y51514285D01*
X18288095Y51323809D01*
X18383333Y51133333D01*
X18478571Y51038095D01*
X18669047Y50942857D01*
X19335714Y50942857D01*
X16954761Y51895238D02*
X16573809Y51895238D01*
X16383333Y51800000D01*
X16192857Y51609523D01*
X16097619Y51228571D01*
X16097619Y50561904D01*
X16192857Y50180952D01*
X16383333Y49990476D01*
X16573809Y49895238D01*
X16954761Y49895238D01*
X17145238Y49990476D01*
X17335714Y50180952D01*
X17430952Y50561904D01*
X17430952Y51228571D01*
X17335714Y51609523D01*
X17145238Y51800000D01*
X16954761Y51895238D01*
X15335714Y50466666D02*
X14383333Y50466666D01*
X15526190Y49895238D02*
X14859523Y51895238D01*
X14192857Y49895238D01*
X12383333Y49895238D02*
X13050000Y50847619D01*
X13526190Y49895238D02*
X13526190Y51895238D01*
X12764285Y51895238D01*
X12573809Y51800000D01*
X12478571Y51704761D01*
X12383333Y51514285D01*
X12383333Y51228571D01*
X12478571Y51038095D01*
X12573809Y50942857D01*
X12764285Y50847619D01*
X13526190Y50847619D01*
X11526190Y49895238D02*
X11526190Y51895238D01*
X11050000Y51895238D01*
X10764285Y51800000D01*
X10573809Y51609523D01*
X10478571Y51419047D01*
X10383333Y51038095D01*
X10383333Y50752380D01*
X10478571Y50371428D01*
X10573809Y50180952D01*
X10764285Y49990476D01*
X11050000Y49895238D01*
X11526190Y49895238D01*
X8288095Y51895238D02*
X7621428Y49895238D01*
X6954761Y51895238D01*
X5240476Y49895238D02*
X6383333Y49895238D01*
X5811904Y49895238D02*
X5811904Y51895238D01*
X6002380Y51609523D01*
X6192857Y51419047D01*
X6383333Y51323809D01*
X4383333Y50085714D02*
X4288095Y49990476D01*
X4383333Y49895238D01*
X4478571Y49990476D01*
X4383333Y50085714D01*
X4383333Y49895238D01*
X3050000Y51895238D02*
X2859523Y51895238D01*
X2669047Y51800000D01*
X2573809Y51704761D01*
X2478571Y51514285D01*
X2383333Y51133333D01*
X2383333Y50657142D01*
X2478571Y50276190D01*
X2573809Y50085714D01*
X2669047Y49990476D01*
X2859523Y49895238D01*
X3050000Y49895238D01*
X3240476Y49990476D01*
X3335714Y50085714D01*
X3430952Y50276190D01*
X3526190Y50657142D01*
X3526190Y51133333D01*
X3430952Y51514285D01*
X3335714Y51704761D01*
X3240476Y51800000D01*
X3050000Y51895238D01*
D11*
%TO.C,G\u002A\u002A\u002A*%
X20212679Y53628220D02*
X20157060Y53519140D01*
X20157060Y53519140D02*
X20106408Y53419185D01*
X20106408Y53419185D02*
X20062464Y53331839D01*
X20062464Y53331839D02*
X20026969Y53260588D01*
X20026969Y53260588D02*
X20001666Y53208917D01*
X20001666Y53208917D02*
X19988294Y53180310D01*
X19988294Y53180310D02*
X19986625Y53175783D01*
X19986625Y53175783D02*
X20001872Y53173246D01*
X20001872Y53173246D02*
X20045096Y53170933D01*
X20045096Y53170933D02*
X20112528Y53168921D01*
X20112528Y53168921D02*
X20200395Y53167288D01*
X20200395Y53167288D02*
X20304926Y53166112D01*
X20304926Y53166112D02*
X20422351Y53165472D01*
X20422351Y53165472D02*
X20490786Y53165375D01*
X20490786Y53165375D02*
X20994947Y53165375D01*
X20994947Y53165375D02*
X21221000Y53617813D01*
X21221000Y53617813D02*
X21447053Y54070250D01*
X21447053Y54070250D02*
X20438733Y54070250D01*
X20438733Y54070250D02*
X20212679Y53628220D01*
X20212679Y53628220D02*
X20212679Y53628220D01*
G36*
X21221000Y53617813D02*
G01*
X20994947Y53165375D01*
X20490786Y53165375D01*
X20422351Y53165472D01*
X20304926Y53166112D01*
X20200395Y53167288D01*
X20112528Y53168921D01*
X20045096Y53170933D01*
X20001872Y53173246D01*
X19986625Y53175783D01*
X19988294Y53180310D01*
X20001666Y53208917D01*
X20026969Y53260588D01*
X20062464Y53331839D01*
X20106408Y53419185D01*
X20157060Y53519140D01*
X20212679Y53628220D01*
X20438733Y54070250D01*
X21447053Y54070250D01*
X21221000Y53617813D01*
G37*
X21221000Y53617813D02*
X20994947Y53165375D01*
X20490786Y53165375D01*
X20422351Y53165472D01*
X20304926Y53166112D01*
X20200395Y53167288D01*
X20112528Y53168921D01*
X20045096Y53170933D01*
X20001872Y53173246D01*
X19986625Y53175783D01*
X19988294Y53180310D01*
X20001666Y53208917D01*
X20026969Y53260588D01*
X20062464Y53331839D01*
X20106408Y53419185D01*
X20157060Y53519140D01*
X20212679Y53628220D01*
X20438733Y54070250D01*
X21447053Y54070250D01*
X21221000Y53617813D01*
X21795269Y56800727D02*
X21683217Y56576823D01*
X21683217Y56576823D02*
X21575160Y56360748D01*
X21575160Y56360748D02*
X21471945Y56154205D01*
X21471945Y56154205D02*
X21374419Y55958894D01*
X21374419Y55958894D02*
X21283430Y55776517D01*
X21283430Y55776517D02*
X21199823Y55608775D01*
X21199823Y55608775D02*
X21124446Y55457369D01*
X21124446Y55457369D02*
X21058145Y55324000D01*
X21058145Y55324000D02*
X21001768Y55210369D01*
X21001768Y55210369D02*
X20956162Y55118177D01*
X20956162Y55118177D02*
X20922173Y55049126D01*
X20922173Y55049126D02*
X20900647Y55004917D01*
X20900647Y55004917D02*
X20892433Y54987251D01*
X20892433Y54987251D02*
X20892376Y54987032D01*
X20892376Y54987032D02*
X20907406Y54984141D01*
X20907406Y54984141D02*
X20950438Y54981503D01*
X20950438Y54981503D02*
X21017722Y54979207D01*
X21017722Y54979207D02*
X21105511Y54977340D01*
X21105511Y54977340D02*
X21210056Y54975990D01*
X21210056Y54975990D02*
X21327609Y54975245D01*
X21327609Y54975245D02*
X21399522Y54975125D01*
X21399522Y54975125D02*
X21907543Y54975125D01*
X21907543Y54975125D02*
X22300353Y55760938D01*
X22300353Y55760938D02*
X22373719Y55907418D01*
X22373719Y55907418D02*
X22442912Y56045012D01*
X22442912Y56045012D02*
X22506628Y56171163D01*
X22506628Y56171163D02*
X22563560Y56283312D01*
X22563560Y56283312D02*
X22612404Y56378902D01*
X22612404Y56378902D02*
X22651856Y56455376D01*
X22651856Y56455376D02*
X22680609Y56510176D01*
X22680609Y56510176D02*
X22697358Y56540744D01*
X22697358Y56540744D02*
X22701176Y56546410D01*
X22701176Y56546410D02*
X22709178Y56532460D01*
X22709178Y56532460D02*
X22730509Y56491861D01*
X22730509Y56491861D02*
X22764289Y56426354D01*
X22764289Y56426354D02*
X22809635Y56337682D01*
X22809635Y56337682D02*
X22865665Y56227588D01*
X22865665Y56227588D02*
X22931497Y56097812D01*
X22931497Y56097812D02*
X23006249Y55950098D01*
X23006249Y55950098D02*
X23089040Y55786187D01*
X23089040Y55786187D02*
X23178987Y55607822D01*
X23178987Y55607822D02*
X23275208Y55416745D01*
X23275208Y55416745D02*
X23376822Y55214698D01*
X23376822Y55214698D02*
X23482947Y55003422D01*
X23482947Y55003422D02*
X23557063Y54855722D01*
X23557063Y54855722D02*
X24404937Y53165375D01*
X24404937Y53165375D02*
X25415894Y53165375D01*
X25415894Y53165375D02*
X24056590Y55883946D01*
X24056590Y55883946D02*
X22697286Y58602516D01*
X22697286Y58602516D02*
X21795269Y56800727D01*
X21795269Y56800727D02*
X21795269Y56800727D01*
G36*
X24056590Y55883946D02*
G01*
X25415894Y53165375D01*
X24404937Y53165375D01*
X23557063Y54855722D01*
X23482947Y55003422D01*
X23376822Y55214698D01*
X23275208Y55416745D01*
X23178987Y55607822D01*
X23089040Y55786187D01*
X23006249Y55950098D01*
X22931497Y56097812D01*
X22865665Y56227588D01*
X22809635Y56337682D01*
X22764289Y56426354D01*
X22730509Y56491861D01*
X22709178Y56532460D01*
X22701176Y56546410D01*
X22697358Y56540744D01*
X22680609Y56510176D01*
X22651856Y56455376D01*
X22612404Y56378902D01*
X22563560Y56283312D01*
X22506628Y56171163D01*
X22442912Y56045012D01*
X22373719Y55907418D01*
X22300353Y55760938D01*
X21907543Y54975125D01*
X21399522Y54975125D01*
X21327609Y54975245D01*
X21210056Y54975990D01*
X21105511Y54977340D01*
X21017722Y54979207D01*
X20950438Y54981503D01*
X20907406Y54984141D01*
X20892376Y54987032D01*
X20892433Y54987251D01*
X20900647Y55004917D01*
X20922173Y55049126D01*
X20956162Y55118177D01*
X21001768Y55210369D01*
X21058145Y55324000D01*
X21124446Y55457369D01*
X21199823Y55608775D01*
X21283430Y55776517D01*
X21374419Y55958894D01*
X21471945Y56154205D01*
X21575160Y56360748D01*
X21683217Y56576823D01*
X21795269Y56800727D01*
X22697286Y58602516D01*
X24056590Y55883946D01*
G37*
X24056590Y55883946D02*
X25415894Y53165375D01*
X24404937Y53165375D01*
X23557063Y54855722D01*
X23482947Y55003422D01*
X23376822Y55214698D01*
X23275208Y55416745D01*
X23178987Y55607822D01*
X23089040Y55786187D01*
X23006249Y55950098D01*
X22931497Y56097812D01*
X22865665Y56227588D01*
X22809635Y56337682D01*
X22764289Y56426354D01*
X22730509Y56491861D01*
X22709178Y56532460D01*
X22701176Y56546410D01*
X22697358Y56540744D01*
X22680609Y56510176D01*
X22651856Y56455376D01*
X22612404Y56378902D01*
X22563560Y56283312D01*
X22506628Y56171163D01*
X22442912Y56045012D01*
X22373719Y55907418D01*
X22300353Y55760938D01*
X21907543Y54975125D01*
X21399522Y54975125D01*
X21327609Y54975245D01*
X21210056Y54975990D01*
X21105511Y54977340D01*
X21017722Y54979207D01*
X20950438Y54981503D01*
X20907406Y54984141D01*
X20892376Y54987032D01*
X20892433Y54987251D01*
X20900647Y55004917D01*
X20922173Y55049126D01*
X20956162Y55118177D01*
X21001768Y55210369D01*
X21058145Y55324000D01*
X21124446Y55457369D01*
X21199823Y55608775D01*
X21283430Y55776517D01*
X21374419Y55958894D01*
X21471945Y56154205D01*
X21575160Y56360748D01*
X21683217Y56576823D01*
X21795269Y56800727D01*
X22697286Y58602516D01*
X24056590Y55883946D01*
X26320750Y53165375D02*
X29942881Y53165375D01*
X29942881Y53165375D02*
X29501034Y53617538D01*
X29501034Y53617538D02*
X29059188Y54069700D01*
X29059188Y54069700D02*
X26320750Y54070250D01*
X26320750Y54070250D02*
X26320750Y53165375D01*
X26320750Y53165375D02*
X26320750Y53165375D01*
G36*
X29059188Y54069700D02*
G01*
X29501034Y53617538D01*
X29942881Y53165375D01*
X26320750Y53165375D01*
X26320750Y54070250D01*
X29059188Y54069700D01*
G37*
X29059188Y54069700D02*
X29501034Y53617538D01*
X29942881Y53165375D01*
X26320750Y53165375D01*
X26320750Y54070250D01*
X29059188Y54069700D01*
X13459682Y58585742D02*
X13323475Y58578154D01*
X13323475Y58578154D02*
X13206877Y58565496D01*
X13206877Y58565496D02*
X13168313Y58559127D01*
X13168313Y58559127D02*
X12886231Y58490718D01*
X12886231Y58490718D02*
X12612501Y58393094D01*
X12612501Y58393094D02*
X12350529Y58267935D01*
X12350529Y58267935D02*
X12103720Y58116922D01*
X12103720Y58116922D02*
X11875478Y57941736D01*
X11875478Y57941736D02*
X11821781Y57894417D01*
X11821781Y57894417D02*
X11713498Y57796315D01*
X11713498Y57796315D02*
X11790031Y57717927D01*
X11790031Y57717927D02*
X11824910Y57683020D01*
X11824910Y57683020D02*
X11878009Y57630916D01*
X11878009Y57630916D02*
X11944525Y57566280D01*
X11944525Y57566280D02*
X12019653Y57493776D01*
X12019653Y57493776D02*
X12098589Y57418068D01*
X12098589Y57418068D02*
X12116396Y57401057D01*
X12116396Y57401057D02*
X12366228Y57162576D01*
X12366228Y57162576D02*
X12449771Y57238201D01*
X12449771Y57238201D02*
X12621778Y57373146D01*
X12621778Y57373146D02*
X12813327Y57485888D01*
X12813327Y57485888D02*
X13019354Y57574285D01*
X13019354Y57574285D02*
X13234792Y57636198D01*
X13234792Y57636198D02*
X13454577Y57669485D01*
X13454577Y57669485D02*
X13473907Y57670970D01*
X13473907Y57670970D02*
X13728006Y57674935D01*
X13728006Y57674935D02*
X13969215Y57650112D01*
X13969215Y57650112D02*
X14197221Y57596610D01*
X14197221Y57596610D02*
X14411710Y57514541D01*
X14411710Y57514541D02*
X14612368Y57404016D01*
X14612368Y57404016D02*
X14798881Y57265145D01*
X14798881Y57265145D02*
X14906430Y57165706D01*
X14906430Y57165706D02*
X15067283Y56983255D01*
X15067283Y56983255D02*
X15202597Y56783882D01*
X15202597Y56783882D02*
X15310689Y56570472D01*
X15310689Y56570472D02*
X15389878Y56345909D01*
X15389878Y56345909D02*
X15394550Y56328903D01*
X15394550Y56328903D02*
X15409690Y56270104D01*
X15409690Y56270104D02*
X15420686Y56218432D01*
X15420686Y56218432D02*
X15428189Y56166887D01*
X15428189Y56166887D02*
X15432853Y56108469D01*
X15432853Y56108469D02*
X15435328Y56036177D01*
X15435328Y56036177D02*
X15436267Y55943009D01*
X15436267Y55943009D02*
X15436366Y55880000D01*
X15436366Y55880000D02*
X15435995Y55772291D01*
X15435995Y55772291D02*
X15434450Y55689325D01*
X15434450Y55689325D02*
X15431076Y55624104D01*
X15431076Y55624104D02*
X15425223Y55569626D01*
X15425223Y55569626D02*
X15416238Y55518890D01*
X15416238Y55518890D02*
X15403469Y55464895D01*
X15403469Y55464895D02*
X15394550Y55431098D01*
X15394550Y55431098D02*
X15348140Y55287609D01*
X15348140Y55287609D02*
X15286113Y55137810D01*
X15286113Y55137810D02*
X15214347Y54994641D01*
X15214347Y54994641D02*
X15143448Y54877958D01*
X15143448Y54877958D02*
X15042361Y54746543D01*
X15042361Y54746543D02*
X14919397Y54614730D01*
X14919397Y54614730D02*
X14782725Y54489946D01*
X14782725Y54489946D02*
X14640513Y54379619D01*
X14640513Y54379619D02*
X14500930Y54291177D01*
X14500930Y54291177D02*
X14493875Y54287304D01*
X14493875Y54287304D02*
X14355505Y54221701D01*
X14355505Y54221701D02*
X14203040Y54166154D01*
X14203040Y54166154D02*
X14046085Y54123290D01*
X14046085Y54123290D02*
X13894244Y54095739D01*
X13894244Y54095739D02*
X13758560Y54086125D01*
X13758560Y54086125D02*
X13655295Y54086125D01*
X13655295Y54086125D02*
X13129378Y53737849D01*
X13129378Y53737849D02*
X13014031Y53661203D01*
X13014031Y53661203D02*
X12907263Y53589757D01*
X12907263Y53589757D02*
X12811918Y53525450D01*
X12811918Y53525450D02*
X12730840Y53470224D01*
X12730840Y53470224D02*
X12666872Y53426018D01*
X12666872Y53426018D02*
X12622858Y53394775D01*
X12622858Y53394775D02*
X12601641Y53378433D01*
X12601641Y53378433D02*
X12600137Y53376693D01*
X12600137Y53376693D02*
X12612750Y53365887D01*
X12612750Y53365887D02*
X12650595Y53348895D01*
X12650595Y53348895D02*
X12708159Y53327455D01*
X12708159Y53327455D02*
X12779929Y53303305D01*
X12779929Y53303305D02*
X12860392Y53278182D01*
X12860392Y53278182D02*
X12944034Y53253824D01*
X12944034Y53253824D02*
X13025342Y53231968D01*
X13025342Y53231968D02*
X13098804Y53214351D01*
X13098804Y53214351D02*
X13144500Y53205133D01*
X13144500Y53205133D02*
X13224851Y53194128D01*
X13224851Y53194128D02*
X13327473Y53185032D01*
X13327473Y53185032D02*
X13444617Y53178062D01*
X13444617Y53178062D02*
X13568532Y53173430D01*
X13568532Y53173430D02*
X13691466Y53171353D01*
X13691466Y53171353D02*
X13805669Y53172046D01*
X13805669Y53172046D02*
X13903389Y53175723D01*
X13903389Y53175723D02*
X13973666Y53182143D01*
X13973666Y53182143D02*
X14180681Y53217822D01*
X14180681Y53217822D02*
X14374774Y53267012D01*
X14374774Y53267012D02*
X14566016Y53332877D01*
X14566016Y53332877D02*
X14764477Y53418580D01*
X14764477Y53418580D02*
X14835188Y53452701D01*
X14835188Y53452701D02*
X15095922Y53598419D01*
X15095922Y53598419D02*
X15334773Y53767051D01*
X15334773Y53767051D02*
X15551356Y53958213D01*
X15551356Y53958213D02*
X15745286Y54171525D01*
X15745286Y54171525D02*
X15916179Y54406604D01*
X15916179Y54406604D02*
X16063651Y54663070D01*
X16063651Y54663070D02*
X16072899Y54681438D01*
X16072899Y54681438D02*
X16192543Y54952986D01*
X16192543Y54952986D02*
X16280647Y55225367D01*
X16280647Y55225367D02*
X16337419Y55499528D01*
X16337419Y55499528D02*
X16363069Y55776419D01*
X16363069Y55776419D02*
X16361789Y55991125D01*
X16361789Y55991125D02*
X16332680Y56287436D01*
X16332680Y56287436D02*
X16274291Y56571483D01*
X16274291Y56571483D02*
X16186606Y56843301D01*
X16186606Y56843301D02*
X16069611Y57102923D01*
X16069611Y57102923D02*
X15923291Y57350380D01*
X15923291Y57350380D02*
X15747632Y57585707D01*
X15747632Y57585707D02*
X15569105Y57782448D01*
X15569105Y57782448D02*
X15352298Y57979418D01*
X15352298Y57979418D02*
X15116271Y58151792D01*
X15116271Y58151792D02*
X14863284Y58298355D01*
X14863284Y58298355D02*
X14595596Y58417893D01*
X14595596Y58417893D02*
X14315467Y58509191D01*
X14315467Y58509191D02*
X14140373Y58550311D01*
X14140373Y58550311D02*
X14032327Y58566925D01*
X14032327Y58566925D02*
X13901821Y58578852D01*
X13901821Y58578852D02*
X13757268Y58586015D01*
X13757268Y58586015D02*
X13607084Y58588337D01*
X13607084Y58588337D02*
X13459682Y58585742D01*
X13459682Y58585742D02*
X13459682Y58585742D01*
G36*
X13757268Y58586015D02*
G01*
X13901821Y58578852D01*
X14032327Y58566925D01*
X14140373Y58550311D01*
X14315467Y58509191D01*
X14595596Y58417893D01*
X14863284Y58298355D01*
X15116271Y58151792D01*
X15352298Y57979418D01*
X15569105Y57782448D01*
X15747632Y57585707D01*
X15923291Y57350380D01*
X16069611Y57102923D01*
X16186606Y56843301D01*
X16274291Y56571483D01*
X16332680Y56287436D01*
X16361789Y55991125D01*
X16363069Y55776419D01*
X16337419Y55499528D01*
X16280647Y55225367D01*
X16192543Y54952986D01*
X16072899Y54681438D01*
X16063651Y54663070D01*
X15916179Y54406604D01*
X15745286Y54171525D01*
X15551356Y53958213D01*
X15334773Y53767051D01*
X15095922Y53598419D01*
X14835188Y53452701D01*
X14764477Y53418580D01*
X14566016Y53332877D01*
X14374774Y53267012D01*
X14180681Y53217822D01*
X13973666Y53182143D01*
X13903389Y53175723D01*
X13805669Y53172046D01*
X13691466Y53171353D01*
X13568532Y53173430D01*
X13444617Y53178062D01*
X13327473Y53185032D01*
X13224851Y53194128D01*
X13144500Y53205133D01*
X13098804Y53214351D01*
X13025342Y53231968D01*
X12944034Y53253824D01*
X12860392Y53278182D01*
X12779929Y53303305D01*
X12708159Y53327455D01*
X12650595Y53348895D01*
X12612750Y53365887D01*
X12600137Y53376693D01*
X12601641Y53378433D01*
X12622858Y53394775D01*
X12666872Y53426018D01*
X12730840Y53470224D01*
X12811918Y53525450D01*
X12907263Y53589757D01*
X13014031Y53661203D01*
X13129378Y53737849D01*
X13655295Y54086125D01*
X13758560Y54086125D01*
X13894244Y54095739D01*
X14046085Y54123290D01*
X14203040Y54166154D01*
X14355505Y54221701D01*
X14493875Y54287304D01*
X14500930Y54291177D01*
X14640513Y54379619D01*
X14782725Y54489946D01*
X14919397Y54614730D01*
X15042361Y54746543D01*
X15143448Y54877958D01*
X15214347Y54994641D01*
X15286113Y55137810D01*
X15348140Y55287609D01*
X15394550Y55431098D01*
X15403469Y55464895D01*
X15416238Y55518890D01*
X15425223Y55569626D01*
X15431076Y55624104D01*
X15434450Y55689325D01*
X15435995Y55772291D01*
X15436366Y55880000D01*
X15436267Y55943009D01*
X15435328Y56036177D01*
X15432853Y56108469D01*
X15428189Y56166887D01*
X15420686Y56218432D01*
X15409690Y56270104D01*
X15394550Y56328903D01*
X15389878Y56345909D01*
X15310689Y56570472D01*
X15202597Y56783882D01*
X15067283Y56983255D01*
X14906430Y57165706D01*
X14798881Y57265145D01*
X14612368Y57404016D01*
X14411710Y57514541D01*
X14197221Y57596610D01*
X13969215Y57650112D01*
X13728006Y57674935D01*
X13473907Y57670970D01*
X13454577Y57669485D01*
X13234792Y57636198D01*
X13019354Y57574285D01*
X12813327Y57485888D01*
X12621778Y57373146D01*
X12449771Y57238201D01*
X12366228Y57162576D01*
X12116396Y57401057D01*
X12098589Y57418068D01*
X12019653Y57493776D01*
X11944525Y57566280D01*
X11878009Y57630916D01*
X11824910Y57683020D01*
X11790031Y57717927D01*
X11713498Y57796315D01*
X11821781Y57894417D01*
X11875478Y57941736D01*
X12103720Y58116922D01*
X12350529Y58267935D01*
X12612501Y58393094D01*
X12886231Y58490718D01*
X13168313Y58559127D01*
X13206877Y58565496D01*
X13323475Y58578154D01*
X13459682Y58585742D01*
X13607084Y58588337D01*
X13757268Y58586015D01*
G37*
X13757268Y58586015D02*
X13901821Y58578852D01*
X14032327Y58566925D01*
X14140373Y58550311D01*
X14315467Y58509191D01*
X14595596Y58417893D01*
X14863284Y58298355D01*
X15116271Y58151792D01*
X15352298Y57979418D01*
X15569105Y57782448D01*
X15747632Y57585707D01*
X15923291Y57350380D01*
X16069611Y57102923D01*
X16186606Y56843301D01*
X16274291Y56571483D01*
X16332680Y56287436D01*
X16361789Y55991125D01*
X16363069Y55776419D01*
X16337419Y55499528D01*
X16280647Y55225367D01*
X16192543Y54952986D01*
X16072899Y54681438D01*
X16063651Y54663070D01*
X15916179Y54406604D01*
X15745286Y54171525D01*
X15551356Y53958213D01*
X15334773Y53767051D01*
X15095922Y53598419D01*
X14835188Y53452701D01*
X14764477Y53418580D01*
X14566016Y53332877D01*
X14374774Y53267012D01*
X14180681Y53217822D01*
X13973666Y53182143D01*
X13903389Y53175723D01*
X13805669Y53172046D01*
X13691466Y53171353D01*
X13568532Y53173430D01*
X13444617Y53178062D01*
X13327473Y53185032D01*
X13224851Y53194128D01*
X13144500Y53205133D01*
X13098804Y53214351D01*
X13025342Y53231968D01*
X12944034Y53253824D01*
X12860392Y53278182D01*
X12779929Y53303305D01*
X12708159Y53327455D01*
X12650595Y53348895D01*
X12612750Y53365887D01*
X12600137Y53376693D01*
X12601641Y53378433D01*
X12622858Y53394775D01*
X12666872Y53426018D01*
X12730840Y53470224D01*
X12811918Y53525450D01*
X12907263Y53589757D01*
X13014031Y53661203D01*
X13129378Y53737849D01*
X13655295Y54086125D01*
X13758560Y54086125D01*
X13894244Y54095739D01*
X14046085Y54123290D01*
X14203040Y54166154D01*
X14355505Y54221701D01*
X14493875Y54287304D01*
X14500930Y54291177D01*
X14640513Y54379619D01*
X14782725Y54489946D01*
X14919397Y54614730D01*
X15042361Y54746543D01*
X15143448Y54877958D01*
X15214347Y54994641D01*
X15286113Y55137810D01*
X15348140Y55287609D01*
X15394550Y55431098D01*
X15403469Y55464895D01*
X15416238Y55518890D01*
X15425223Y55569626D01*
X15431076Y55624104D01*
X15434450Y55689325D01*
X15435995Y55772291D01*
X15436366Y55880000D01*
X15436267Y55943009D01*
X15435328Y56036177D01*
X15432853Y56108469D01*
X15428189Y56166887D01*
X15420686Y56218432D01*
X15409690Y56270104D01*
X15394550Y56328903D01*
X15389878Y56345909D01*
X15310689Y56570472D01*
X15202597Y56783882D01*
X15067283Y56983255D01*
X14906430Y57165706D01*
X14798881Y57265145D01*
X14612368Y57404016D01*
X14411710Y57514541D01*
X14197221Y57596610D01*
X13969215Y57650112D01*
X13728006Y57674935D01*
X13473907Y57670970D01*
X13454577Y57669485D01*
X13234792Y57636198D01*
X13019354Y57574285D01*
X12813327Y57485888D01*
X12621778Y57373146D01*
X12449771Y57238201D01*
X12366228Y57162576D01*
X12116396Y57401057D01*
X12098589Y57418068D01*
X12019653Y57493776D01*
X11944525Y57566280D01*
X11878009Y57630916D01*
X11824910Y57683020D01*
X11790031Y57717927D01*
X11713498Y57796315D01*
X11821781Y57894417D01*
X11875478Y57941736D01*
X12103720Y58116922D01*
X12350529Y58267935D01*
X12612501Y58393094D01*
X12886231Y58490718D01*
X13168313Y58559127D01*
X13206877Y58565496D01*
X13323475Y58578154D01*
X13459682Y58585742D01*
X13607084Y58588337D01*
X13757268Y58586015D01*
X29035375Y55315341D02*
X29481213Y54859483D01*
X29481213Y54859483D02*
X29578772Y54760090D01*
X29578772Y54760090D02*
X29669672Y54668169D01*
X29669672Y54668169D02*
X29751480Y54586130D01*
X29751480Y54586130D02*
X29821761Y54516385D01*
X29821761Y54516385D02*
X29878081Y54461343D01*
X29878081Y54461343D02*
X29918006Y54423414D01*
X29918006Y54423414D02*
X29939101Y54405009D01*
X29939101Y54405009D02*
X29941588Y54403625D01*
X29941588Y54403625D02*
X29943612Y54419291D01*
X29943612Y54419291D02*
X29945517Y54465449D01*
X29945517Y54465449D02*
X29947294Y54540842D01*
X29947294Y54540842D02*
X29948934Y54644213D01*
X29948934Y54644213D02*
X29950429Y54774304D01*
X29950429Y54774304D02*
X29951770Y54929859D01*
X29951770Y54929859D02*
X29952948Y55109620D01*
X29952948Y55109620D02*
X29953954Y55312329D01*
X29953954Y55312329D02*
X29954780Y55536730D01*
X29954780Y55536730D02*
X29955417Y55781565D01*
X29955417Y55781565D02*
X29955856Y56045576D01*
X29955856Y56045576D02*
X29956089Y56327507D01*
X29956089Y56327507D02*
X29956125Y56499125D01*
X29956125Y56499125D02*
X29956125Y58594625D01*
X29956125Y58594625D02*
X29035375Y58594625D01*
X29035375Y58594625D02*
X29035375Y55315341D01*
X29035375Y55315341D02*
X29035375Y55315341D01*
G36*
X29956125Y56499125D02*
G01*
X29956089Y56327507D01*
X29955856Y56045576D01*
X29955417Y55781565D01*
X29954780Y55536730D01*
X29953954Y55312329D01*
X29952948Y55109620D01*
X29951770Y54929859D01*
X29950429Y54774304D01*
X29948934Y54644213D01*
X29947294Y54540842D01*
X29945517Y54465449D01*
X29943612Y54419291D01*
X29941588Y54403625D01*
X29939101Y54405009D01*
X29918006Y54423414D01*
X29878081Y54461343D01*
X29821761Y54516385D01*
X29751480Y54586130D01*
X29669672Y54668169D01*
X29578772Y54760090D01*
X29481213Y54859483D01*
X29035375Y55315341D01*
X29035375Y58594625D01*
X29956125Y58594625D01*
X29956125Y56499125D01*
G37*
X29956125Y56499125D02*
X29956089Y56327507D01*
X29955856Y56045576D01*
X29955417Y55781565D01*
X29954780Y55536730D01*
X29953954Y55312329D01*
X29952948Y55109620D01*
X29951770Y54929859D01*
X29950429Y54774304D01*
X29948934Y54644213D01*
X29947294Y54540842D01*
X29945517Y54465449D01*
X29943612Y54419291D01*
X29941588Y54403625D01*
X29939101Y54405009D01*
X29918006Y54423414D01*
X29878081Y54461343D01*
X29821761Y54516385D01*
X29751480Y54586130D01*
X29669672Y54668169D01*
X29578772Y54760090D01*
X29481213Y54859483D01*
X29035375Y55315341D01*
X29035375Y58594625D01*
X29956125Y58594625D01*
X29956125Y56499125D01*
X10541000Y57237313D02*
X11898243Y55880000D01*
X11898243Y55880000D02*
X10541000Y54522688D01*
X10541000Y54522688D02*
X9183758Y53165375D01*
X9183758Y53165375D02*
X9826660Y53165388D01*
X9826660Y53165388D02*
X10469563Y53165400D01*
X10469563Y53165400D02*
X11826875Y54510794D01*
X11826875Y54510794D02*
X12000001Y54682499D01*
X12000001Y54682499D02*
X12166798Y54848122D01*
X12166798Y54848122D02*
X12325883Y55006280D01*
X12325883Y55006280D02*
X12475872Y55155587D01*
X12475872Y55155587D02*
X12615380Y55294660D01*
X12615380Y55294660D02*
X12743025Y55422115D01*
X12743025Y55422115D02*
X12857421Y55536567D01*
X12857421Y55536567D02*
X12957186Y55636632D01*
X12957186Y55636632D02*
X13040934Y55720926D01*
X13040934Y55720926D02*
X13107283Y55788064D01*
X13107283Y55788064D02*
X13154848Y55836663D01*
X13154848Y55836663D02*
X13182245Y55865338D01*
X13182245Y55865338D02*
X13188720Y55872911D01*
X13188720Y55872911D02*
X13178240Y55885998D01*
X13178240Y55885998D02*
X13146543Y55920020D01*
X13146543Y55920020D02*
X13094999Y55973597D01*
X13094999Y55973597D02*
X13024977Y56045352D01*
X13024977Y56045352D02*
X12937847Y56133903D01*
X12937847Y56133903D02*
X12834978Y56237873D01*
X12834978Y56237873D02*
X12717739Y56355882D01*
X12717739Y56355882D02*
X12587501Y56486552D01*
X12587501Y56486552D02*
X12445632Y56628502D01*
X12445632Y56628502D02*
X12293503Y56780354D01*
X12293503Y56780354D02*
X12132483Y56940730D01*
X12132483Y56940730D02*
X11963941Y57108248D01*
X11963941Y57108248D02*
X11829001Y57242130D01*
X11829001Y57242130D02*
X10464750Y58594625D01*
X10464750Y58594625D02*
X9183758Y58594625D01*
X9183758Y58594625D02*
X10541000Y57237313D01*
X10541000Y57237313D02*
X10541000Y57237313D01*
G36*
X11829001Y57242130D02*
G01*
X11963941Y57108248D01*
X12132483Y56940730D01*
X12293503Y56780354D01*
X12445632Y56628502D01*
X12587501Y56486552D01*
X12717739Y56355882D01*
X12834978Y56237873D01*
X12937847Y56133903D01*
X13024977Y56045352D01*
X13094999Y55973597D01*
X13146543Y55920020D01*
X13178240Y55885998D01*
X13188720Y55872911D01*
X13182245Y55865338D01*
X13154848Y55836663D01*
X13107283Y55788064D01*
X13040934Y55720926D01*
X12957186Y55636632D01*
X12857421Y55536567D01*
X12743025Y55422115D01*
X12615380Y55294660D01*
X12475872Y55155587D01*
X12325883Y55006280D01*
X12166798Y54848122D01*
X12000001Y54682499D01*
X11826875Y54510794D01*
X10469563Y53165400D01*
X9826660Y53165388D01*
X9183758Y53165375D01*
X10541000Y54522688D01*
X11898243Y55880000D01*
X10541000Y57237313D01*
X9183758Y58594625D01*
X10464750Y58594625D01*
X11829001Y57242130D01*
G37*
X11829001Y57242130D02*
X11963941Y57108248D01*
X12132483Y56940730D01*
X12293503Y56780354D01*
X12445632Y56628502D01*
X12587501Y56486552D01*
X12717739Y56355882D01*
X12834978Y56237873D01*
X12937847Y56133903D01*
X13024977Y56045352D01*
X13094999Y55973597D01*
X13146543Y55920020D01*
X13178240Y55885998D01*
X13188720Y55872911D01*
X13182245Y55865338D01*
X13154848Y55836663D01*
X13107283Y55788064D01*
X13040934Y55720926D01*
X12957186Y55636632D01*
X12857421Y55536567D01*
X12743025Y55422115D01*
X12615380Y55294660D01*
X12475872Y55155587D01*
X12325883Y55006280D01*
X12166798Y54848122D01*
X12000001Y54682499D01*
X11826875Y54510794D01*
X10469563Y53165400D01*
X9826660Y53165388D01*
X9183758Y53165375D01*
X10541000Y54522688D01*
X11898243Y55880000D01*
X10541000Y57237313D01*
X9183758Y58594625D01*
X10464750Y58594625D01*
X11829001Y57242130D01*
X21903532Y58567469D02*
X21887795Y58553255D01*
X21887795Y58553255D02*
X21849771Y58519008D01*
X21849771Y58519008D02*
X21790787Y58465920D01*
X21790787Y58465920D02*
X21712168Y58395183D01*
X21712168Y58395183D02*
X21615240Y58307990D01*
X21615240Y58307990D02*
X21501329Y58205534D01*
X21501329Y58205534D02*
X21371761Y58089006D01*
X21371761Y58089006D02*
X21227862Y57959599D01*
X21227862Y57959599D02*
X21070956Y57818505D01*
X21070956Y57818505D02*
X20902372Y57666917D01*
X20902372Y57666917D02*
X20723433Y57506027D01*
X20723433Y57506027D02*
X20535466Y57337027D01*
X20535466Y57337027D02*
X20339797Y57161109D01*
X20339797Y57161109D02*
X20137751Y56979467D01*
X20137751Y56979467D02*
X20097750Y56943506D01*
X20097750Y56943506D02*
X18327688Y55352235D01*
X18327688Y55352235D02*
X18323644Y56973430D01*
X18323644Y56973430D02*
X18319601Y58594625D01*
X18319601Y58594625D02*
X17414875Y58594625D01*
X17414875Y58594625D02*
X17414875Y55880000D01*
X17414875Y55880000D02*
X17414898Y55589003D01*
X17414898Y55589003D02*
X17414965Y55306688D01*
X17414965Y55306688D02*
X17415074Y55034683D01*
X17415074Y55034683D02*
X17415221Y54774611D01*
X17415221Y54774611D02*
X17415406Y54528098D01*
X17415406Y54528098D02*
X17415625Y54296768D01*
X17415625Y54296768D02*
X17415877Y54082248D01*
X17415877Y54082248D02*
X17416158Y53886162D01*
X17416158Y53886162D02*
X17416467Y53710135D01*
X17416467Y53710135D02*
X17416800Y53555792D01*
X17416800Y53555792D02*
X17417157Y53424759D01*
X17417157Y53424759D02*
X17417533Y53318660D01*
X17417533Y53318660D02*
X17417928Y53239121D01*
X17417928Y53239121D02*
X17418338Y53187766D01*
X17418338Y53187766D02*
X17418761Y53166221D01*
X17418761Y53166221D02*
X17418844Y53165632D01*
X17418844Y53165632D02*
X17430888Y53176086D01*
X17430888Y53176086D02*
X17465281Y53206637D01*
X17465281Y53206637D02*
X17520762Y53256154D01*
X17520762Y53256154D02*
X17596071Y53323506D01*
X17596071Y53323506D02*
X17689947Y53407561D01*
X17689947Y53407561D02*
X17801129Y53507190D01*
X17801129Y53507190D02*
X17928356Y53621261D01*
X17928356Y53621261D02*
X18070366Y53748642D01*
X18070366Y53748642D02*
X18225900Y53888204D01*
X18225900Y53888204D02*
X18393696Y54038816D01*
X18393696Y54038816D02*
X18572494Y54199345D01*
X18572494Y54199345D02*
X18761031Y54368663D01*
X18761031Y54368663D02*
X18958049Y54545636D01*
X18958049Y54545636D02*
X19162284Y54729135D01*
X19162284Y54729135D02*
X19288125Y54842220D01*
X19288125Y54842220D02*
X19503558Y55035817D01*
X19503558Y55035817D02*
X19717062Y55227666D01*
X19717062Y55227666D02*
X19927004Y55416297D01*
X19927004Y55416297D02*
X20131747Y55600242D01*
X20131747Y55600242D02*
X20329656Y55778031D01*
X20329656Y55778031D02*
X20519094Y55948195D01*
X20519094Y55948195D02*
X20698428Y56109266D01*
X20698428Y56109266D02*
X20866021Y56259776D01*
X20866021Y56259776D02*
X21020237Y56398253D01*
X21020237Y56398253D02*
X21159441Y56523231D01*
X21159441Y56523231D02*
X21281997Y56633240D01*
X21281997Y56633240D02*
X21386270Y56726812D01*
X21386270Y56726812D02*
X21470625Y56802476D01*
X21470625Y56802476D02*
X21533425Y56858765D01*
X21533425Y56858765D02*
X21545965Y56869995D01*
X21545965Y56869995D02*
X21938491Y57221438D01*
X21938491Y57221438D02*
X21938871Y57910799D01*
X21938871Y57910799D02*
X21939250Y58600159D01*
X21939250Y58600159D02*
X21903532Y58567469D01*
X21903532Y58567469D02*
X21903532Y58567469D01*
G36*
X21938871Y57910799D02*
G01*
X21938491Y57221438D01*
X21545965Y56869995D01*
X21533425Y56858765D01*
X21470625Y56802476D01*
X21386270Y56726812D01*
X21281997Y56633240D01*
X21159441Y56523231D01*
X21020237Y56398253D01*
X20866021Y56259776D01*
X20698428Y56109266D01*
X20519094Y55948195D01*
X20329656Y55778031D01*
X20131747Y55600242D01*
X19927004Y55416297D01*
X19717062Y55227666D01*
X19503558Y55035817D01*
X19288125Y54842220D01*
X19162284Y54729135D01*
X18958049Y54545636D01*
X18761031Y54368663D01*
X18572494Y54199345D01*
X18393696Y54038816D01*
X18225900Y53888204D01*
X18070366Y53748642D01*
X17928356Y53621261D01*
X17801129Y53507190D01*
X17689947Y53407561D01*
X17596071Y53323506D01*
X17520762Y53256154D01*
X17465281Y53206637D01*
X17430888Y53176086D01*
X17418844Y53165632D01*
X17418761Y53166221D01*
X17418338Y53187766D01*
X17417928Y53239121D01*
X17417533Y53318660D01*
X17417157Y53424759D01*
X17416800Y53555792D01*
X17416467Y53710135D01*
X17416158Y53886162D01*
X17415877Y54082248D01*
X17415625Y54296768D01*
X17415406Y54528098D01*
X17415221Y54774611D01*
X17415074Y55034683D01*
X17414965Y55306688D01*
X17414898Y55589003D01*
X17414875Y55880000D01*
X17414875Y58594625D01*
X18319601Y58594625D01*
X18323644Y56973430D01*
X18327688Y55352235D01*
X20097750Y56943506D01*
X20137751Y56979467D01*
X20339797Y57161109D01*
X20535466Y57337027D01*
X20723433Y57506027D01*
X20902372Y57666917D01*
X21070956Y57818505D01*
X21227862Y57959599D01*
X21371761Y58089006D01*
X21501329Y58205534D01*
X21615240Y58307990D01*
X21712168Y58395183D01*
X21790787Y58465920D01*
X21849771Y58519008D01*
X21887795Y58553255D01*
X21903532Y58567469D01*
X21939250Y58600159D01*
X21938871Y57910799D01*
G37*
X21938871Y57910799D02*
X21938491Y57221438D01*
X21545965Y56869995D01*
X21533425Y56858765D01*
X21470625Y56802476D01*
X21386270Y56726812D01*
X21281997Y56633240D01*
X21159441Y56523231D01*
X21020237Y56398253D01*
X20866021Y56259776D01*
X20698428Y56109266D01*
X20519094Y55948195D01*
X20329656Y55778031D01*
X20131747Y55600242D01*
X19927004Y55416297D01*
X19717062Y55227666D01*
X19503558Y55035817D01*
X19288125Y54842220D01*
X19162284Y54729135D01*
X18958049Y54545636D01*
X18761031Y54368663D01*
X18572494Y54199345D01*
X18393696Y54038816D01*
X18225900Y53888204D01*
X18070366Y53748642D01*
X17928356Y53621261D01*
X17801129Y53507190D01*
X17689947Y53407561D01*
X17596071Y53323506D01*
X17520762Y53256154D01*
X17465281Y53206637D01*
X17430888Y53176086D01*
X17418844Y53165632D01*
X17418761Y53166221D01*
X17418338Y53187766D01*
X17417928Y53239121D01*
X17417533Y53318660D01*
X17417157Y53424759D01*
X17416800Y53555792D01*
X17416467Y53710135D01*
X17416158Y53886162D01*
X17415877Y54082248D01*
X17415625Y54296768D01*
X17415406Y54528098D01*
X17415221Y54774611D01*
X17415074Y55034683D01*
X17414965Y55306688D01*
X17414898Y55589003D01*
X17414875Y55880000D01*
X17414875Y58594625D01*
X18319601Y58594625D01*
X18323644Y56973430D01*
X18327688Y55352235D01*
X20097750Y56943506D01*
X20137751Y56979467D01*
X20339797Y57161109D01*
X20535466Y57337027D01*
X20723433Y57506027D01*
X20902372Y57666917D01*
X21070956Y57818505D01*
X21227862Y57959599D01*
X21371761Y58089006D01*
X21501329Y58205534D01*
X21615240Y58307990D01*
X21712168Y58395183D01*
X21790787Y58465920D01*
X21849771Y58519008D01*
X21887795Y58553255D01*
X21903532Y58567469D01*
X21939250Y58600159D01*
X21938871Y57910799D01*
X33805709Y58594562D02*
X33545601Y58594525D01*
X33545601Y58594525D02*
X33315092Y58594367D01*
X33315092Y58594367D02*
X33112032Y58593981D01*
X33112032Y58593981D02*
X32934270Y58593259D01*
X32934270Y58593259D02*
X32779654Y58592093D01*
X32779654Y58592093D02*
X32646035Y58590375D01*
X32646035Y58590375D02*
X32531260Y58587999D01*
X32531260Y58587999D02*
X32433180Y58584856D01*
X32433180Y58584856D02*
X32349644Y58580840D01*
X32349644Y58580840D02*
X32278500Y58575841D01*
X32278500Y58575841D02*
X32217599Y58569753D01*
X32217599Y58569753D02*
X32164789Y58562469D01*
X32164789Y58562469D02*
X32117919Y58553880D01*
X32117919Y58553880D02*
X32074838Y58543879D01*
X32074838Y58543879D02*
X32033397Y58532358D01*
X32033397Y58532358D02*
X31991443Y58519211D01*
X31991443Y58519211D02*
X31946827Y58504328D01*
X31946827Y58504328D02*
X31937284Y58501096D01*
X31937284Y58501096D02*
X31729001Y58414185D01*
X31729001Y58414185D02*
X31532691Y58300043D01*
X31532691Y58300043D02*
X31351228Y58161668D01*
X31351228Y58161668D02*
X31187489Y58002059D01*
X31187489Y58002059D02*
X31044348Y57824214D01*
X31044348Y57824214D02*
X30924680Y57631132D01*
X30924680Y57631132D02*
X30831363Y57425811D01*
X30831363Y57425811D02*
X30791646Y57306466D01*
X30791646Y57306466D02*
X30740798Y57077642D01*
X30740798Y57077642D02*
X30718643Y56844746D01*
X30718643Y56844746D02*
X30724829Y56612007D01*
X30724829Y56612007D02*
X30759005Y56383651D01*
X30759005Y56383651D02*
X30820817Y56163907D01*
X30820817Y56163907D02*
X30902905Y55970761D01*
X30902905Y55970761D02*
X31018362Y55775222D01*
X31018362Y55775222D02*
X31159433Y55593794D01*
X31159433Y55593794D02*
X31322354Y55429771D01*
X31322354Y55429771D02*
X31503364Y55286447D01*
X31503364Y55286447D02*
X31698698Y55167116D01*
X31698698Y55167116D02*
X31904594Y55075071D01*
X31904594Y55075071D02*
X31940965Y55062173D01*
X31940965Y55062173D02*
X31991153Y55045436D01*
X31991153Y55045436D02*
X32038305Y55030990D01*
X32038305Y55030990D02*
X32085110Y55018668D01*
X32085110Y55018668D02*
X32134256Y55008300D01*
X32134256Y55008300D02*
X32188431Y54999719D01*
X32188431Y54999719D02*
X32250323Y54992757D01*
X32250323Y54992757D02*
X32322622Y54987245D01*
X32322622Y54987245D02*
X32408015Y54983014D01*
X32408015Y54983014D02*
X32509190Y54979897D01*
X32509190Y54979897D02*
X32628837Y54977725D01*
X32628837Y54977725D02*
X32769643Y54976331D01*
X32769643Y54976331D02*
X32934297Y54975545D01*
X32934297Y54975545D02*
X33125487Y54975199D01*
X33125487Y54975199D02*
X33331642Y54975125D01*
X33331642Y54975125D02*
X34337625Y54975125D01*
X34337625Y54975125D02*
X34337625Y53165375D01*
X34337625Y53165375D02*
X35242500Y53165375D01*
X35242500Y53165375D02*
X35242500Y55879038D01*
X35242500Y55879038D02*
X32361188Y55887938D01*
X32361188Y55887938D02*
X32256855Y55923422D01*
X32256855Y55923422D02*
X32108720Y55989991D01*
X32108720Y55989991D02*
X31971422Y56083673D01*
X31971422Y56083673D02*
X31850190Y56200332D01*
X31850190Y56200332D02*
X31764612Y56313026D01*
X31764612Y56313026D02*
X31690236Y56455771D01*
X31690236Y56455771D02*
X31644478Y56608644D01*
X31644478Y56608644D02*
X31627542Y56767604D01*
X31627542Y56767604D02*
X31639632Y56928607D01*
X31639632Y56928607D02*
X31680955Y57087611D01*
X31680955Y57087611D02*
X31720534Y57181750D01*
X31720534Y57181750D02*
X31770075Y57262971D01*
X31770075Y57262971D02*
X31839989Y57350190D01*
X31839989Y57350190D02*
X31922425Y57435541D01*
X31922425Y57435541D02*
X32009531Y57511158D01*
X32009531Y57511158D02*
X32093455Y57569171D01*
X32093455Y57569171D02*
X32123063Y57585054D01*
X32123063Y57585054D02*
X32161511Y57603672D01*
X32161511Y57603672D02*
X32195994Y57619661D01*
X32195994Y57619661D02*
X32229170Y57633238D01*
X32229170Y57633238D02*
X32263697Y57644618D01*
X32263697Y57644618D02*
X32302232Y57654016D01*
X32302232Y57654016D02*
X32347433Y57661648D01*
X32347433Y57661648D02*
X32401957Y57667730D01*
X32401957Y57667730D02*
X32468462Y57672478D01*
X32468462Y57672478D02*
X32549606Y57676106D01*
X32549606Y57676106D02*
X32648047Y57678831D01*
X32648047Y57678831D02*
X32766441Y57680869D01*
X32766441Y57680869D02*
X32907448Y57682434D01*
X32907448Y57682434D02*
X33073723Y57683742D01*
X33073723Y57683742D02*
X33267926Y57685010D01*
X33267926Y57685010D02*
X33362479Y57685608D01*
X33362479Y57685608D02*
X34347895Y57691874D01*
X34347895Y57691874D02*
X34799062Y58143250D01*
X34799062Y58143250D02*
X35250228Y58594625D01*
X35250228Y58594625D02*
X33805709Y58594562D01*
X33805709Y58594562D02*
X33805709Y58594562D01*
G36*
X34799062Y58143250D02*
G01*
X34347895Y57691874D01*
X33362479Y57685608D01*
X33267926Y57685010D01*
X33073723Y57683742D01*
X32907448Y57682434D01*
X32766441Y57680869D01*
X32648047Y57678831D01*
X32549606Y57676106D01*
X32468462Y57672478D01*
X32401957Y57667730D01*
X32347433Y57661648D01*
X32302232Y57654016D01*
X32263697Y57644618D01*
X32229170Y57633238D01*
X32195994Y57619661D01*
X32161511Y57603672D01*
X32123063Y57585054D01*
X32093455Y57569171D01*
X32009531Y57511158D01*
X31922425Y57435541D01*
X31839989Y57350190D01*
X31770075Y57262971D01*
X31720534Y57181750D01*
X31680955Y57087611D01*
X31639632Y56928607D01*
X31627542Y56767604D01*
X31644478Y56608644D01*
X31690236Y56455771D01*
X31764612Y56313026D01*
X31850190Y56200332D01*
X31971422Y56083673D01*
X32108720Y55989991D01*
X32256855Y55923422D01*
X32361188Y55887938D01*
X35242500Y55879038D01*
X35242500Y53165375D01*
X34337625Y53165375D01*
X34337625Y54975125D01*
X33331642Y54975125D01*
X33125487Y54975199D01*
X32934297Y54975545D01*
X32769643Y54976331D01*
X32628837Y54977725D01*
X32509190Y54979897D01*
X32408015Y54983014D01*
X32322622Y54987245D01*
X32250323Y54992757D01*
X32188431Y54999719D01*
X32134256Y55008300D01*
X32085110Y55018668D01*
X32038305Y55030990D01*
X31991153Y55045436D01*
X31940965Y55062173D01*
X31904594Y55075071D01*
X31698698Y55167116D01*
X31503364Y55286447D01*
X31322354Y55429771D01*
X31159433Y55593794D01*
X31018362Y55775222D01*
X30902905Y55970761D01*
X30820817Y56163907D01*
X30759005Y56383651D01*
X30724829Y56612007D01*
X30718643Y56844746D01*
X30740798Y57077642D01*
X30791646Y57306466D01*
X30831363Y57425811D01*
X30924680Y57631132D01*
X31044348Y57824214D01*
X31187489Y58002059D01*
X31351228Y58161668D01*
X31532691Y58300043D01*
X31729001Y58414185D01*
X31937284Y58501096D01*
X31946827Y58504328D01*
X31991443Y58519211D01*
X32033397Y58532358D01*
X32074838Y58543879D01*
X32117919Y58553880D01*
X32164789Y58562469D01*
X32217599Y58569753D01*
X32278500Y58575841D01*
X32349644Y58580840D01*
X32433180Y58584856D01*
X32531260Y58587999D01*
X32646035Y58590375D01*
X32779654Y58592093D01*
X32934270Y58593259D01*
X33112032Y58593981D01*
X33315092Y58594367D01*
X33545601Y58594525D01*
X33805709Y58594562D01*
X35250228Y58594625D01*
X34799062Y58143250D01*
G37*
X34799062Y58143250D02*
X34347895Y57691874D01*
X33362479Y57685608D01*
X33267926Y57685010D01*
X33073723Y57683742D01*
X32907448Y57682434D01*
X32766441Y57680869D01*
X32648047Y57678831D01*
X32549606Y57676106D01*
X32468462Y57672478D01*
X32401957Y57667730D01*
X32347433Y57661648D01*
X32302232Y57654016D01*
X32263697Y57644618D01*
X32229170Y57633238D01*
X32195994Y57619661D01*
X32161511Y57603672D01*
X32123063Y57585054D01*
X32093455Y57569171D01*
X32009531Y57511158D01*
X31922425Y57435541D01*
X31839989Y57350190D01*
X31770075Y57262971D01*
X31720534Y57181750D01*
X31680955Y57087611D01*
X31639632Y56928607D01*
X31627542Y56767604D01*
X31644478Y56608644D01*
X31690236Y56455771D01*
X31764612Y56313026D01*
X31850190Y56200332D01*
X31971422Y56083673D01*
X32108720Y55989991D01*
X32256855Y55923422D01*
X32361188Y55887938D01*
X35242500Y55879038D01*
X35242500Y53165375D01*
X34337625Y53165375D01*
X34337625Y54975125D01*
X33331642Y54975125D01*
X33125487Y54975199D01*
X32934297Y54975545D01*
X32769643Y54976331D01*
X32628837Y54977725D01*
X32509190Y54979897D01*
X32408015Y54983014D01*
X32322622Y54987245D01*
X32250323Y54992757D01*
X32188431Y54999719D01*
X32134256Y55008300D01*
X32085110Y55018668D01*
X32038305Y55030990D01*
X31991153Y55045436D01*
X31940965Y55062173D01*
X31904594Y55075071D01*
X31698698Y55167116D01*
X31503364Y55286447D01*
X31322354Y55429771D01*
X31159433Y55593794D01*
X31018362Y55775222D01*
X30902905Y55970761D01*
X30820817Y56163907D01*
X30759005Y56383651D01*
X30724829Y56612007D01*
X30718643Y56844746D01*
X30740798Y57077642D01*
X30791646Y57306466D01*
X30831363Y57425811D01*
X30924680Y57631132D01*
X31044348Y57824214D01*
X31187489Y58002059D01*
X31351228Y58161668D01*
X31532691Y58300043D01*
X31729001Y58414185D01*
X31937284Y58501096D01*
X31946827Y58504328D01*
X31991443Y58519211D01*
X32033397Y58532358D01*
X32074838Y58543879D01*
X32117919Y58553880D01*
X32164789Y58562469D01*
X32217599Y58569753D01*
X32278500Y58575841D01*
X32349644Y58580840D01*
X32433180Y58584856D01*
X32531260Y58587999D01*
X32646035Y58590375D01*
X32779654Y58592093D01*
X32934270Y58593259D01*
X33112032Y58593981D01*
X33315092Y58594367D01*
X33545601Y58594525D01*
X33805709Y58594562D01*
X35250228Y58594625D01*
X34799062Y58143250D01*
%TD*%
M02*
