%TF.GenerationSoftware,KiCad,Pcbnew,(6.0.2-0)*%
%TF.CreationDate,2022-08-21T14:39:22+02:00*%
%TF.ProjectId,lcd_board,6c63645f-626f-4617-9264-2e6b69636164,rev?*%
%TF.SameCoordinates,Original*%
%TF.FileFunction,Soldermask,Top*%
%TF.FilePolarity,Negative*%
%FSLAX46Y46*%
G04 Gerber Fmt 4.6, Leading zero omitted, Abs format (unit mm)*
G04 Created by KiCad (PCBNEW (6.0.2-0)) date 2022-08-21 14:39:22*
%MOMM*%
%LPD*%
G01*
G04 APERTURE LIST*
%ADD10R,1.700000X1.700000*%
%ADD11O,1.700000X1.700000*%
%ADD12C,1.600000*%
%ADD13O,1.600000X1.600000*%
%ADD14C,1.620000*%
%ADD15R,1.600000X1.600000*%
G04 APERTURE END LIST*
D10*
%TO.C,J1*%
X78232000Y6604000D03*
D11*
X78232000Y4064000D03*
X75692000Y6604000D03*
X75692000Y4064000D03*
X73152000Y6604000D03*
X73152000Y4064000D03*
X70612000Y6604000D03*
X70612000Y4064000D03*
X68072000Y6604000D03*
X68072000Y4064000D03*
X65532000Y6604000D03*
X65532000Y4064000D03*
X62992000Y6604000D03*
X62992000Y4064000D03*
X60452000Y6604000D03*
X60452000Y4064000D03*
X57912000Y6604000D03*
X57912000Y4064000D03*
X55372000Y6604000D03*
X55372000Y4064000D03*
X52832000Y6604000D03*
X52832000Y4064000D03*
X50292000Y6604000D03*
X50292000Y4064000D03*
X47752000Y6604000D03*
X47752000Y4064000D03*
X45212000Y6604000D03*
X45212000Y4064000D03*
X42672000Y6604000D03*
X42672000Y4064000D03*
X40132000Y6604000D03*
X40132000Y4064000D03*
X37592000Y6604000D03*
X37592000Y4064000D03*
X35052000Y6604000D03*
X35052000Y4064000D03*
X32512000Y6604000D03*
X32512000Y4064000D03*
X29972000Y6604000D03*
X29972000Y4064000D03*
X27432000Y6604000D03*
X27432000Y4064000D03*
X24892000Y6604000D03*
X24892000Y4064000D03*
X22352000Y6604000D03*
X22352000Y4064000D03*
X19812000Y6604000D03*
X19812000Y4064000D03*
X17272000Y6604000D03*
X17272000Y4064000D03*
%TD*%
D12*
%TO.C,C1*%
X24638000Y11430000D03*
X29638000Y11430000D03*
%TD*%
%TO.C,C2*%
X28956000Y35814000D03*
X28956000Y30814000D03*
%TD*%
%TO.C,C4*%
X54864000Y35560000D03*
X54864000Y30560000D03*
%TD*%
%TO.C,R1*%
X66040000Y43180000D03*
D13*
X76200000Y43180000D03*
%TD*%
D14*
%TO.C,RV1*%
X45085000Y52705000D03*
X42585000Y57705000D03*
X40085000Y52705000D03*
%TD*%
D15*
%TO.C,U1*%
X29591000Y22034500D03*
D13*
X27051000Y22034500D03*
X24511000Y22034500D03*
X21971000Y22034500D03*
X19431000Y22034500D03*
X16891000Y22034500D03*
X14351000Y22034500D03*
X14351000Y14414500D03*
X16891000Y14414500D03*
X19431000Y14414500D03*
X21971000Y14414500D03*
X24511000Y14414500D03*
X27051000Y14414500D03*
X29591000Y14414500D03*
%TD*%
D15*
%TO.C,U2*%
X75755500Y38354000D03*
D13*
X73215500Y38354000D03*
X70675500Y38354000D03*
X68135500Y38354000D03*
X65595500Y38354000D03*
X63055500Y38354000D03*
X60515500Y38354000D03*
X57975500Y38354000D03*
X57975500Y30734000D03*
X60515500Y30734000D03*
X63055500Y30734000D03*
X65595500Y30734000D03*
X68135500Y30734000D03*
X70675500Y30734000D03*
X73215500Y30734000D03*
X75755500Y30734000D03*
%TD*%
D15*
%TO.C,U3*%
X51816000Y38481000D03*
D13*
X49276000Y38481000D03*
X46736000Y38481000D03*
X44196000Y38481000D03*
X41656000Y38481000D03*
X39116000Y38481000D03*
X36576000Y38481000D03*
X34036000Y38481000D03*
X34036000Y30861000D03*
X36576000Y30861000D03*
X39116000Y30861000D03*
X41656000Y30861000D03*
X44196000Y30861000D03*
X46736000Y30861000D03*
X49276000Y30861000D03*
X51816000Y30861000D03*
%TD*%
D15*
%TO.C,U4*%
X25908000Y38862000D03*
D13*
X23368000Y38862000D03*
X20828000Y38862000D03*
X18288000Y38862000D03*
X15748000Y38862000D03*
X13208000Y38862000D03*
X10668000Y38862000D03*
X8128000Y38862000D03*
X8128000Y31242000D03*
X10668000Y31242000D03*
X13208000Y31242000D03*
X15748000Y31242000D03*
X18288000Y31242000D03*
X20828000Y31242000D03*
X23368000Y31242000D03*
X25908000Y31242000D03*
%TD*%
D12*
%TO.C,C5*%
X50800000Y50800000D03*
X50800000Y55800000D03*
%TD*%
%TO.C,C3*%
X70612000Y27686000D03*
X75612000Y27686000D03*
%TD*%
D10*
%TO.C,J2*%
X55880000Y47625000D03*
D11*
X55880000Y50165000D03*
X58420000Y47625000D03*
X58420000Y50165000D03*
X60960000Y47625000D03*
X60960000Y50165000D03*
X63500000Y47625000D03*
X63500000Y50165000D03*
X66040000Y47625000D03*
X66040000Y50165000D03*
X68580000Y47625000D03*
X68580000Y50165000D03*
X71120000Y47625000D03*
X71120000Y50165000D03*
X73660000Y47625000D03*
X73660000Y50165000D03*
X76200000Y47625000D03*
X76200000Y50165000D03*
%TD*%
M02*
