G04 #@! TF.GenerationSoftware,KiCad,Pcbnew,(5.1.6-0-10_14)*
G04 #@! TF.CreationDate,2021-01-14T01:17:20+01:00*
G04 #@! TF.ProjectId,proc_board,70726f63-5f62-46f6-9172-642e6b696361,rev?*
G04 #@! TF.SameCoordinates,Original*
G04 #@! TF.FileFunction,Copper,L1,Top*
G04 #@! TF.FilePolarity,Positive*
%FSLAX46Y46*%
G04 Gerber Fmt 4.6, Leading zero omitted, Abs format (unit mm)*
G04 Created by KiCad (PCBNEW (5.1.6-0-10_14)) date 2021-01-14 01:17:20*
%MOMM*%
%LPD*%
G01*
G04 APERTURE LIST*
G04 #@! TA.AperFunction,ComponentPad*
%ADD10O,1.700000X1.700000*%
G04 #@! TD*
G04 #@! TA.AperFunction,ComponentPad*
%ADD11R,1.700000X1.700000*%
G04 #@! TD*
G04 #@! TA.AperFunction,ComponentPad*
%ADD12O,1.600000X1.600000*%
G04 #@! TD*
G04 #@! TA.AperFunction,ComponentPad*
%ADD13R,1.600000X1.600000*%
G04 #@! TD*
G04 #@! TA.AperFunction,ComponentPad*
%ADD14O,1.440000X2.000000*%
G04 #@! TD*
G04 #@! TA.AperFunction,ComponentPad*
%ADD15R,1.440000X2.000000*%
G04 #@! TD*
G04 #@! TA.AperFunction,ViaPad*
%ADD16C,0.600000*%
G04 #@! TD*
G04 #@! TA.AperFunction,ViaPad*
%ADD17C,0.800000*%
G04 #@! TD*
G04 #@! TA.AperFunction,Conductor*
%ADD18C,0.250000*%
G04 #@! TD*
G04 #@! TA.AperFunction,Conductor*
%ADD19C,1.000000*%
G04 #@! TD*
G04 #@! TA.AperFunction,Conductor*
%ADD20C,0.254000*%
G04 #@! TD*
G04 APERTURE END LIST*
D10*
G04 #@! TO.P,REF\u002A\u002A,14*
G04 #@! TO.N,D3*
X78105000Y49085500D03*
G04 #@! TO.P,REF\u002A\u002A,13*
G04 #@! TO.N,D4*
X75565000Y49085500D03*
G04 #@! TO.P,REF\u002A\u002A,12*
G04 #@! TO.N,D5*
X73025000Y49085500D03*
G04 #@! TO.P,REF\u002A\u002A,11*
G04 #@! TO.N,D6*
X70485000Y49085500D03*
G04 #@! TO.P,REF\u002A\u002A,10*
G04 #@! TO.N,D7*
X67945000Y49085500D03*
G04 #@! TO.P,REF\u002A\u002A,9*
G04 #@! TO.N,~RAM_CS~*
X65405000Y49085500D03*
G04 #@! TO.P,REF\u002A\u002A,8*
G04 #@! TO.N,A10*
X62865000Y49085500D03*
G04 #@! TO.P,REF\u002A\u002A,7*
G04 #@! TO.N,GND*
X60325000Y49085500D03*
G04 #@! TO.P,REF\u002A\u002A,6*
G04 #@! TO.N,A11*
X57785000Y49085500D03*
G04 #@! TO.P,REF\u002A\u002A,5*
G04 #@! TO.N,A9*
X55245000Y49085500D03*
G04 #@! TO.P,REF\u002A\u002A,4*
G04 #@! TO.N,A8*
X52705000Y49085500D03*
G04 #@! TO.P,REF\u002A\u002A,3*
G04 #@! TO.N,A13*
X50165000Y49085500D03*
G04 #@! TO.P,REF\u002A\u002A,2*
G04 #@! TO.N,~RAMW~*
X47625000Y49085500D03*
D11*
G04 #@! TO.P,REF\u002A\u002A,1*
G04 #@! TO.N,+5V*
X45085000Y49085500D03*
G04 #@! TD*
D12*
G04 #@! TO.P,U1,20*
G04 #@! TO.N,+5V*
X2286000Y30162500D03*
G04 #@! TO.P,U1,10*
G04 #@! TO.N,GND*
X25146000Y22542500D03*
G04 #@! TO.P,U1,19*
G04 #@! TO.N,~IRQ~*
X4826000Y30162500D03*
G04 #@! TO.P,U1,9*
G04 #@! TO.N,A15*
X22606000Y22542500D03*
G04 #@! TO.P,U1,18*
G04 #@! TO.N,~RAM_CS~*
X7366000Y30162500D03*
G04 #@! TO.P,U1,8*
G04 #@! TO.N,~SSEL~*
X20066000Y22542500D03*
G04 #@! TO.P,U1,17*
G04 #@! TO.N,~ROM_CS~*
X9906000Y30162500D03*
G04 #@! TO.P,U1,7*
G04 #@! TO.N,~INH~*
X17526000Y22542500D03*
G04 #@! TO.P,U1,16*
G04 #@! TO.N,~RAMW~*
X12446000Y30162500D03*
G04 #@! TO.P,U1,6*
G04 #@! TO.N,Net-(U1-Pad6)*
X14986000Y22542500D03*
G04 #@! TO.P,U1,15*
G04 #@! TO.N,Net-(U1-Pad15)*
X14986000Y30162500D03*
G04 #@! TO.P,U1,5*
G04 #@! TO.N,~IRQ3~*
X12446000Y22542500D03*
G04 #@! TO.P,U1,14*
G04 #@! TO.N,Net-(U1-Pad14)*
X17526000Y30162500D03*
G04 #@! TO.P,U1,4*
G04 #@! TO.N,~IRQ2~*
X9906000Y22542500D03*
G04 #@! TO.P,U1,13*
G04 #@! TO.N,Net-(U1-Pad13)*
X20066000Y30162500D03*
G04 #@! TO.P,U1,3*
G04 #@! TO.N,~IRQ1~*
X7366000Y22542500D03*
G04 #@! TO.P,U1,12*
G04 #@! TO.N,Net-(U1-Pad12)*
X22606000Y30162500D03*
G04 #@! TO.P,U1,2*
G04 #@! TO.N,~IRQ0~*
X4826000Y22542500D03*
G04 #@! TO.P,U1,11*
G04 #@! TO.N,Net-(U1-Pad11)*
X25146000Y30162500D03*
D13*
G04 #@! TO.P,U1,1*
G04 #@! TO.N,CLK*
X2286000Y22542500D03*
G04 #@! TD*
G04 #@! TO.P,C4,2*
G04 #@! TO.N,+5V*
G04 #@! TA.AperFunction,SMDPad,CuDef*
G36*
G01*
X3035000Y33708500D02*
X3035000Y32458500D01*
G75*
G02*
X2785000Y32208500I-250000J0D01*
G01*
X1860000Y32208500D01*
G75*
G02*
X1610000Y32458500I0J250000D01*
G01*
X1610000Y33708500D01*
G75*
G02*
X1860000Y33958500I250000J0D01*
G01*
X2785000Y33958500D01*
G75*
G02*
X3035000Y33708500I0J-250000D01*
G01*
G37*
G04 #@! TD.AperFunction*
G04 #@! TO.P,C4,1*
G04 #@! TO.N,GND*
G04 #@! TA.AperFunction,SMDPad,CuDef*
G36*
G01*
X6010000Y33708500D02*
X6010000Y32458500D01*
G75*
G02*
X5760000Y32208500I-250000J0D01*
G01*
X4835000Y32208500D01*
G75*
G02*
X4585000Y32458500I0J250000D01*
G01*
X4585000Y33708500D01*
G75*
G02*
X4835000Y33958500I250000J0D01*
G01*
X5760000Y33958500D01*
G75*
G02*
X6010000Y33708500I0J-250000D01*
G01*
G37*
G04 #@! TD.AperFunction*
G04 #@! TD*
D14*
G04 #@! TO.P,U4,15*
G04 #@! TO.N,D3*
X35433000Y56388000D03*
G04 #@! TO.P,U4,14*
G04 #@! TO.N,GND*
X35433000Y41148000D03*
G04 #@! TO.P,U4,16*
G04 #@! TO.N,D4*
X32893000Y56388000D03*
G04 #@! TO.P,U4,13*
G04 #@! TO.N,D2*
X32893000Y41148000D03*
G04 #@! TO.P,U4,17*
G04 #@! TO.N,D5*
X30353000Y56388000D03*
G04 #@! TO.P,U4,12*
G04 #@! TO.N,D1*
X30353000Y41148000D03*
G04 #@! TO.P,U4,18*
G04 #@! TO.N,D6*
X27813000Y56388000D03*
G04 #@! TO.P,U4,11*
G04 #@! TO.N,D0*
X27813000Y41148000D03*
G04 #@! TO.P,U4,19*
G04 #@! TO.N,D7*
X25273000Y56388000D03*
G04 #@! TO.P,U4,10*
G04 #@! TO.N,A0*
X25273000Y41148000D03*
G04 #@! TO.P,U4,20*
G04 #@! TO.N,GND*
X22733000Y56388000D03*
G04 #@! TO.P,U4,9*
G04 #@! TO.N,A1*
X22733000Y41148000D03*
G04 #@! TO.P,U4,21*
G04 #@! TO.N,A10*
X20193000Y56388000D03*
G04 #@! TO.P,U4,8*
G04 #@! TO.N,A2*
X20193000Y41148000D03*
G04 #@! TO.P,U4,22*
G04 #@! TO.N,~ROM_CS~*
X17653000Y56388000D03*
G04 #@! TO.P,U4,7*
G04 #@! TO.N,A3*
X17653000Y41148000D03*
G04 #@! TO.P,U4,23*
G04 #@! TO.N,A11*
X15113000Y56388000D03*
G04 #@! TO.P,U4,6*
G04 #@! TO.N,A4*
X15113000Y41148000D03*
G04 #@! TO.P,U4,24*
G04 #@! TO.N,A9*
X12573000Y56388000D03*
G04 #@! TO.P,U4,5*
G04 #@! TO.N,A5*
X12573000Y41148000D03*
G04 #@! TO.P,U4,25*
G04 #@! TO.N,A8*
X10033000Y56388000D03*
G04 #@! TO.P,U4,4*
G04 #@! TO.N,A6*
X10033000Y41148000D03*
G04 #@! TO.P,U4,26*
G04 #@! TO.N,A13*
X7493000Y56388000D03*
G04 #@! TO.P,U4,3*
G04 #@! TO.N,A7*
X7493000Y41148000D03*
G04 #@! TO.P,U4,27*
G04 #@! TO.N,+5V*
X4953000Y56388000D03*
G04 #@! TO.P,U4,2*
G04 #@! TO.N,A12*
X4953000Y41148000D03*
G04 #@! TO.P,U4,28*
G04 #@! TO.N,+5V*
X2413000Y56388000D03*
D15*
G04 #@! TO.P,U4,1*
G04 #@! TO.N,A14*
X2413000Y41148000D03*
G04 #@! TD*
D12*
G04 #@! TO.P,U3,28*
G04 #@! TO.N,+5V*
X45059001Y41453001D03*
G04 #@! TO.P,U3,14*
G04 #@! TO.N,GND*
X78079001Y33833001D03*
G04 #@! TO.P,U3,27*
G04 #@! TO.N,~RAMW~*
X47599001Y41453001D03*
G04 #@! TO.P,U3,13*
G04 #@! TO.N,D2*
X75539001Y33833001D03*
G04 #@! TO.P,U3,26*
G04 #@! TO.N,A13*
X50139001Y41453001D03*
G04 #@! TO.P,U3,12*
G04 #@! TO.N,D1*
X72999001Y33833001D03*
G04 #@! TO.P,U3,25*
G04 #@! TO.N,A8*
X52679001Y41453001D03*
G04 #@! TO.P,U3,11*
G04 #@! TO.N,D0*
X70459001Y33833001D03*
G04 #@! TO.P,U3,24*
G04 #@! TO.N,A9*
X55219001Y41453001D03*
G04 #@! TO.P,U3,10*
G04 #@! TO.N,A0*
X67919001Y33833001D03*
G04 #@! TO.P,U3,23*
G04 #@! TO.N,A11*
X57759001Y41453001D03*
G04 #@! TO.P,U3,9*
G04 #@! TO.N,A1*
X65379001Y33833001D03*
G04 #@! TO.P,U3,22*
G04 #@! TO.N,GND*
X60299001Y41453001D03*
G04 #@! TO.P,U3,8*
G04 #@! TO.N,A2*
X62839001Y33833001D03*
G04 #@! TO.P,U3,21*
G04 #@! TO.N,A10*
X62839001Y41453001D03*
G04 #@! TO.P,U3,7*
G04 #@! TO.N,A3*
X60299001Y33833001D03*
G04 #@! TO.P,U3,20*
G04 #@! TO.N,~RAM_CS~*
X65379001Y41453001D03*
G04 #@! TO.P,U3,6*
G04 #@! TO.N,A4*
X57759001Y33833001D03*
G04 #@! TO.P,U3,19*
G04 #@! TO.N,D7*
X67919001Y41453001D03*
G04 #@! TO.P,U3,5*
G04 #@! TO.N,A5*
X55219001Y33833001D03*
G04 #@! TO.P,U3,18*
G04 #@! TO.N,D6*
X70459001Y41453001D03*
G04 #@! TO.P,U3,4*
G04 #@! TO.N,A6*
X52679001Y33833001D03*
G04 #@! TO.P,U3,17*
G04 #@! TO.N,D5*
X72999001Y41453001D03*
G04 #@! TO.P,U3,3*
G04 #@! TO.N,A7*
X50139001Y33833001D03*
G04 #@! TO.P,U3,16*
G04 #@! TO.N,D4*
X75539001Y41453001D03*
G04 #@! TO.P,U3,2*
G04 #@! TO.N,A12*
X47599001Y33833001D03*
G04 #@! TO.P,U3,15*
G04 #@! TO.N,D3*
X78079001Y41453001D03*
D13*
G04 #@! TO.P,U3,1*
G04 #@! TO.N,A14*
X45059001Y33833001D03*
G04 #@! TD*
G04 #@! TO.P,C1,2*
G04 #@! TO.N,+5V*
G04 #@! TA.AperFunction,SMDPad,CuDef*
G36*
G01*
X45834000Y44821000D02*
X45834000Y43571000D01*
G75*
G02*
X45584000Y43321000I-250000J0D01*
G01*
X44659000Y43321000D01*
G75*
G02*
X44409000Y43571000I0J250000D01*
G01*
X44409000Y44821000D01*
G75*
G02*
X44659000Y45071000I250000J0D01*
G01*
X45584000Y45071000D01*
G75*
G02*
X45834000Y44821000I0J-250000D01*
G01*
G37*
G04 #@! TD.AperFunction*
G04 #@! TO.P,C1,1*
G04 #@! TO.N,GND*
G04 #@! TA.AperFunction,SMDPad,CuDef*
G36*
G01*
X48809000Y44821000D02*
X48809000Y43571000D01*
G75*
G02*
X48559000Y43321000I-250000J0D01*
G01*
X47634000Y43321000D01*
G75*
G02*
X47384000Y43571000I0J250000D01*
G01*
X47384000Y44821000D01*
G75*
G02*
X47634000Y45071000I250000J0D01*
G01*
X48559000Y45071000D01*
G75*
G02*
X48809000Y44821000I0J-250000D01*
G01*
G37*
G04 #@! TD.AperFunction*
G04 #@! TD*
D12*
G04 #@! TO.P,U2,40*
G04 #@! TO.N,~RESET~*
X77978000Y14859000D03*
G04 #@! TO.P,U2,20*
G04 #@! TO.N,A11*
X29718000Y30099000D03*
G04 #@! TO.P,U2,39*
G04 #@! TO.N,Net-(U2-Pad39)*
X75438000Y14859000D03*
G04 #@! TO.P,U2,19*
G04 #@! TO.N,A10*
X32258000Y30099000D03*
G04 #@! TO.P,U2,38*
G04 #@! TO.N,Net-(U2-Pad38)*
X72898000Y14859000D03*
G04 #@! TO.P,U2,18*
G04 #@! TO.N,A9*
X34798000Y30099000D03*
G04 #@! TO.P,U2,37*
G04 #@! TO.N,CLK*
X70358000Y14859000D03*
G04 #@! TO.P,U2,17*
G04 #@! TO.N,A8*
X37338000Y30099000D03*
G04 #@! TO.P,U2,36*
G04 #@! TO.N,BE*
X67818000Y14859000D03*
G04 #@! TO.P,U2,16*
G04 #@! TO.N,A7*
X39878000Y30099000D03*
G04 #@! TO.P,U2,35*
G04 #@! TO.N,Net-(U2-Pad35)*
X65278000Y14859000D03*
G04 #@! TO.P,U2,15*
G04 #@! TO.N,A6*
X42418000Y30099000D03*
G04 #@! TO.P,U2,34*
G04 #@! TO.N,R~W~*
X62738000Y14859000D03*
G04 #@! TO.P,U2,14*
G04 #@! TO.N,A5*
X44958000Y30099000D03*
G04 #@! TO.P,U2,33*
G04 #@! TO.N,D0*
X60198000Y14859000D03*
G04 #@! TO.P,U2,13*
G04 #@! TO.N,A4*
X47498000Y30099000D03*
G04 #@! TO.P,U2,32*
G04 #@! TO.N,D1*
X57658000Y14859000D03*
G04 #@! TO.P,U2,12*
G04 #@! TO.N,A3*
X50038000Y30099000D03*
G04 #@! TO.P,U2,31*
G04 #@! TO.N,D2*
X55118000Y14859000D03*
G04 #@! TO.P,U2,11*
G04 #@! TO.N,A2*
X52578000Y30099000D03*
G04 #@! TO.P,U2,30*
G04 #@! TO.N,D3*
X52578000Y14859000D03*
G04 #@! TO.P,U2,10*
G04 #@! TO.N,A1*
X55118000Y30099000D03*
G04 #@! TO.P,U2,29*
G04 #@! TO.N,D4*
X50038000Y14859000D03*
G04 #@! TO.P,U2,9*
G04 #@! TO.N,A0*
X57658000Y30099000D03*
G04 #@! TO.P,U2,28*
G04 #@! TO.N,D5*
X47498000Y14859000D03*
G04 #@! TO.P,U2,8*
G04 #@! TO.N,+5V*
X60198000Y30099000D03*
G04 #@! TO.P,U2,27*
G04 #@! TO.N,D6*
X44958000Y14859000D03*
G04 #@! TO.P,U2,7*
G04 #@! TO.N,SYNC*
X62738000Y30099000D03*
G04 #@! TO.P,U2,26*
G04 #@! TO.N,D7*
X42418000Y14859000D03*
G04 #@! TO.P,U2,6*
G04 #@! TO.N,~NMI~*
X65278000Y30099000D03*
G04 #@! TO.P,U2,25*
G04 #@! TO.N,A15*
X39878000Y14859000D03*
G04 #@! TO.P,U2,5*
G04 #@! TO.N,Net-(U2-Pad5)*
X67818000Y30099000D03*
G04 #@! TO.P,U2,24*
G04 #@! TO.N,A14*
X37338000Y14859000D03*
G04 #@! TO.P,U2,4*
G04 #@! TO.N,~IRQ~*
X70358000Y30099000D03*
G04 #@! TO.P,U2,23*
G04 #@! TO.N,A13*
X34798000Y14859000D03*
G04 #@! TO.P,U2,3*
G04 #@! TO.N,Net-(U2-Pad3)*
X72898000Y30099000D03*
G04 #@! TO.P,U2,22*
G04 #@! TO.N,A12*
X32258000Y14859000D03*
G04 #@! TO.P,U2,2*
G04 #@! TO.N,RDY*
X75438000Y30099000D03*
G04 #@! TO.P,U2,21*
G04 #@! TO.N,GND*
X29718000Y14859000D03*
D13*
G04 #@! TO.P,U2,1*
G04 #@! TO.N,Net-(U2-Pad1)*
X77978000Y30099000D03*
G04 #@! TD*
D10*
G04 #@! TO.P,J1,50*
G04 #@! TO.N,~NMI~*
X17272000Y4064000D03*
G04 #@! TO.P,J1,49*
G04 #@! TO.N,~RESET~*
X17272000Y6604000D03*
G04 #@! TO.P,J1,48*
G04 #@! TO.N,~IRQ0~*
X19812000Y4064000D03*
G04 #@! TO.P,J1,47*
G04 #@! TO.N,SYNC*
X19812000Y6604000D03*
G04 #@! TO.P,J1,46*
G04 #@! TO.N,~IRQ1~*
X22352000Y4064000D03*
G04 #@! TO.P,J1,45*
G04 #@! TO.N,~IRQ~*
X22352000Y6604000D03*
G04 #@! TO.P,J1,44*
G04 #@! TO.N,~IRQ2~*
X24892000Y4064000D03*
G04 #@! TO.P,J1,43*
G04 #@! TO.N,R~W~*
X24892000Y6604000D03*
G04 #@! TO.P,J1,42*
G04 #@! TO.N,~IRQ3~*
X27432000Y4064000D03*
G04 #@! TO.P,J1,41*
G04 #@! TO.N,CLK*
X27432000Y6604000D03*
G04 #@! TO.P,J1,40*
G04 #@! TO.N,LED4*
X29972000Y4064000D03*
G04 #@! TO.P,J1,39*
G04 #@! TO.N,BE*
X29972000Y6604000D03*
G04 #@! TO.P,J1,38*
G04 #@! TO.N,LED3*
X32512000Y4064000D03*
G04 #@! TO.P,J1,37*
G04 #@! TO.N,RDY*
X32512000Y6604000D03*
G04 #@! TO.P,J1,36*
G04 #@! TO.N,LED2*
X35052000Y4064000D03*
G04 #@! TO.P,J1,35*
G04 #@! TO.N,A15*
X35052000Y6604000D03*
G04 #@! TO.P,J1,34*
G04 #@! TO.N,LED1*
X37592000Y4064000D03*
G04 #@! TO.P,J1,33*
G04 #@! TO.N,A14*
X37592000Y6604000D03*
G04 #@! TO.P,J1,32*
G04 #@! TO.N,Net-(J1-Pad32)*
X40132000Y4064000D03*
G04 #@! TO.P,J1,31*
G04 #@! TO.N,A13*
X40132000Y6604000D03*
G04 #@! TO.P,J1,30*
G04 #@! TO.N,~INH~*
X42672000Y4064000D03*
G04 #@! TO.P,J1,29*
G04 #@! TO.N,A12*
X42672000Y6604000D03*
G04 #@! TO.P,J1,28*
G04 #@! TO.N,~SSEL~*
X45212000Y4064000D03*
G04 #@! TO.P,J1,27*
G04 #@! TO.N,A11*
X45212000Y6604000D03*
G04 #@! TO.P,J1,26*
G04 #@! TO.N,GND*
X47752000Y4064000D03*
G04 #@! TO.P,J1,25*
G04 #@! TO.N,+5V*
X47752000Y6604000D03*
G04 #@! TO.P,J1,24*
X50292000Y4064000D03*
G04 #@! TO.P,J1,23*
G04 #@! TO.N,GND*
X50292000Y6604000D03*
G04 #@! TO.P,J1,22*
G04 #@! TO.N,~ROM_CS~*
X52832000Y4064000D03*
G04 #@! TO.P,J1,21*
G04 #@! TO.N,A10*
X52832000Y6604000D03*
G04 #@! TO.P,J1,20*
G04 #@! TO.N,EX1*
X55372000Y4064000D03*
G04 #@! TO.P,J1,19*
G04 #@! TO.N,A9*
X55372000Y6604000D03*
G04 #@! TO.P,J1,18*
G04 #@! TO.N,EX0*
X57912000Y4064000D03*
G04 #@! TO.P,J1,17*
G04 #@! TO.N,A8*
X57912000Y6604000D03*
G04 #@! TO.P,J1,16*
G04 #@! TO.N,D7*
X60452000Y4064000D03*
G04 #@! TO.P,J1,15*
G04 #@! TO.N,A7*
X60452000Y6604000D03*
G04 #@! TO.P,J1,14*
G04 #@! TO.N,D6*
X62992000Y4064000D03*
G04 #@! TO.P,J1,13*
G04 #@! TO.N,A6*
X62992000Y6604000D03*
G04 #@! TO.P,J1,12*
G04 #@! TO.N,D5*
X65532000Y4064000D03*
G04 #@! TO.P,J1,11*
G04 #@! TO.N,A5*
X65532000Y6604000D03*
G04 #@! TO.P,J1,10*
G04 #@! TO.N,D4*
X68072000Y4064000D03*
G04 #@! TO.P,J1,9*
G04 #@! TO.N,A4*
X68072000Y6604000D03*
G04 #@! TO.P,J1,8*
G04 #@! TO.N,D3*
X70612000Y4064000D03*
G04 #@! TO.P,J1,7*
G04 #@! TO.N,A3*
X70612000Y6604000D03*
G04 #@! TO.P,J1,6*
G04 #@! TO.N,D2*
X73152000Y4064000D03*
G04 #@! TO.P,J1,5*
G04 #@! TO.N,A2*
X73152000Y6604000D03*
G04 #@! TO.P,J1,4*
G04 #@! TO.N,D1*
X75692000Y4064000D03*
G04 #@! TO.P,J1,3*
G04 #@! TO.N,A1*
X75692000Y6604000D03*
G04 #@! TO.P,J1,2*
G04 #@! TO.N,D0*
X78232000Y4064000D03*
D11*
G04 #@! TO.P,J1,1*
G04 #@! TO.N,A0*
X78232000Y6604000D03*
G04 #@! TD*
D16*
G04 #@! TO.N,RDY*
X30673052Y24704050D03*
X31559500Y9398000D03*
G04 #@! TO.N,A15*
X35281413Y9515010D03*
X24255968Y17323484D03*
G04 #@! TO.N,A14*
X32766000Y32258000D03*
X31115000Y30734000D03*
X35993599Y9985503D03*
G04 #@! TO.N,A13*
X28519995Y28724406D03*
X37211009Y10668000D03*
G04 #@! TO.N,A12*
X37927542Y10298016D03*
G04 #@! TO.N,A11*
X61849000Y36195000D03*
X59499500Y39560500D03*
X43434000Y8509000D03*
D17*
G04 #@! TO.N,GND*
X5270500Y33083500D03*
X48133000Y44196000D03*
G04 #@! TO.N,+5V*
X62103000Y22987000D03*
D16*
G04 #@! TO.N,A10*
X66603677Y35205715D03*
X62611000Y39370000D03*
G04 #@! TO.N,A9*
X36703000Y34036000D03*
X37592000Y31875968D03*
G04 #@! TO.N,A8*
X52705000Y36703000D03*
X54102000Y35246979D03*
G04 #@! TO.N,D7*
X67691000Y35179000D03*
X31231271Y29142021D03*
G04 #@! TO.N,D6*
X52197000Y8255000D03*
X66040000Y32004000D03*
X33626133Y27430968D03*
G04 #@! TO.N,D5*
X53447012Y8461966D03*
X69850000Y32385000D03*
X36449000Y26924000D03*
G04 #@! TO.N,D4*
X55334746Y8949021D03*
X72263000Y32004000D03*
X40596181Y25060867D03*
G04 #@! TO.N,D3*
X57874803Y9399032D03*
X74867002Y31496000D03*
X44130565Y23836061D03*
G04 #@! TO.N,D2*
X60700424Y9849043D03*
X68899944Y28646046D03*
X40453434Y31816434D03*
X39373794Y35810197D03*
X42175584Y28627324D03*
X44778137Y25514946D03*
G04 #@! TO.N,D1*
X63083943Y9754044D03*
X65990503Y28373265D03*
X44196000Y28829000D03*
X45976821Y26530948D03*
X40386000Y35687000D03*
X41373905Y32182941D03*
G04 #@! TO.N,D0*
X65921393Y9754044D03*
X64008000Y30988000D03*
X47484970Y27802251D03*
X46228000Y29210000D03*
X42944272Y32747728D03*
X41275000Y35433000D03*
G04 #@! TO.N,CLK*
X28511500Y17843500D03*
X27131033Y8906533D03*
X16954500Y9017000D03*
G04 #@! TO.N,BE*
X29082998Y17208500D03*
G04 #@! TO.N,SYNC*
X27993500Y27485502D03*
G04 #@! TO.N,R~W~*
X27622500Y17272000D03*
G04 #@! TO.N,~INH~*
X24130000Y15049500D03*
X28261864Y13789311D03*
G04 #@! TO.N,~NMI~*
X27949990Y26609051D03*
G04 #@! TO.N,~RESET~*
X25014251Y18012871D03*
G04 #@! TO.N,~IRQ0~*
X18034000Y9080500D03*
G04 #@! TO.N,~IRQ1~*
X18986500Y9334500D03*
G04 #@! TO.N,~IRQ~*
X29280498Y26159497D03*
X19939000Y9334502D03*
G04 #@! TO.N,~IRQ2~*
X20828000Y9398000D03*
G04 #@! TO.N,~IRQ3~*
X21746199Y9363699D03*
G04 #@! TO.N,~SSEL~*
X28445874Y15126817D03*
X23748481Y16705037D03*
G04 #@! TO.N,~ROM_CS~*
X19304000Y48133000D03*
X16824054Y43098020D03*
X13555168Y34974655D03*
X22809183Y9316716D03*
X30383610Y9492110D03*
X50482500Y8128000D03*
G04 #@! TO.N,~RAM_CS~*
X14478000Y42545000D03*
X12763500Y35179000D03*
G04 #@! TO.N,~RAMW~*
X18796000Y43180000D03*
X14605000Y34861500D03*
G04 #@! TD*
D18*
G04 #@! TO.N,RDY*
X30988000Y24389102D02*
X30988000Y10287000D01*
X30673052Y24704050D02*
X30988000Y24389102D01*
X31559500Y9715500D02*
X31559500Y9398000D01*
X30988000Y10287000D02*
X31559500Y9715500D01*
G04 #@! TO.N,A15*
X35306000Y9398000D02*
X35306000Y9398000D01*
X22606000Y22542500D02*
X22606000Y18973452D01*
X22606000Y18973452D02*
X24255968Y17323484D01*
X35663445Y9132978D02*
X35281413Y9515010D01*
X39878000Y10667999D02*
X38342979Y9132978D01*
X38342979Y9132978D02*
X35663445Y9132978D01*
X39878000Y14859000D02*
X39878000Y10667999D01*
G04 #@! TO.N,A14*
X32766000Y32258000D02*
X32766000Y32258000D01*
X35306000Y34798000D02*
X32766000Y32258000D01*
X38984645Y36439001D02*
X38105644Y35560000D01*
X43800001Y33833001D02*
X41194001Y36439001D01*
X41194001Y36439001D02*
X38984645Y36439001D01*
X45059001Y33833001D02*
X43800001Y33833001D01*
X35306000Y34798000D02*
X35306000Y35560000D01*
X38105644Y35560000D02*
X35306000Y35560000D01*
X5715000Y37846000D02*
X2413000Y41148000D01*
X15911002Y37846000D02*
X5715000Y37846000D01*
X18197002Y35560000D02*
X15911002Y37846000D01*
X35306000Y35560000D02*
X18197002Y35560000D01*
X31115000Y30734000D02*
X30690736Y30734000D01*
X29144996Y29024407D02*
X29144996Y28894004D01*
X30690736Y30734000D02*
X30182736Y31242000D01*
X28592999Y29576404D02*
X29144996Y29024407D01*
X30182736Y31242000D02*
X29210000Y31242000D01*
X29210000Y31242000D02*
X28592999Y30624999D01*
X28592999Y30624999D02*
X28592999Y29576404D01*
X29144996Y28894004D02*
X37338000Y20701000D01*
X37338000Y20701000D02*
X37338000Y14859000D01*
X38852002Y13344998D02*
X38852002Y10278412D01*
X37338000Y14859000D02*
X38852002Y13344998D01*
X36396113Y9582989D02*
X35993599Y9985503D01*
X38156579Y9582989D02*
X36396113Y9582989D01*
X38852002Y10278412D02*
X38156579Y9582989D01*
G04 #@! TO.N,A13*
X34798000Y14859000D02*
X34798000Y22446401D01*
X34798000Y22446401D02*
X28519995Y28724406D01*
X37211009Y12445991D02*
X37211009Y10668000D01*
X34798000Y14859000D02*
X37211009Y12445991D01*
X11112500Y52768500D02*
X7493000Y56388000D01*
X28892500Y51435000D02*
X27559000Y52768500D01*
X27559000Y52768500D02*
X11112500Y52768500D01*
X47815500Y51435000D02*
X28892500Y51435000D01*
X50165000Y49085500D02*
X47815500Y51435000D01*
X50139001Y49059501D02*
X50165000Y49085500D01*
X50139001Y41453001D02*
X50139001Y49059501D01*
G04 #@! TO.N,A12*
X37291998Y31250966D02*
X37164998Y31377966D01*
X41544454Y31576202D02*
X41159676Y31191424D01*
X41159676Y31191424D02*
X40152967Y31191424D01*
X29023600Y31692011D02*
X27755011Y30423422D01*
X32258000Y24146006D02*
X32258000Y14859000D01*
X41669781Y31576202D02*
X41544454Y31576202D01*
X27755011Y30423422D02*
X27755011Y28605491D01*
X45897000Y32131000D02*
X43252548Y32131000D01*
X43244274Y32122726D02*
X42216305Y32122726D01*
X47599001Y33833001D02*
X45897000Y32131000D01*
X28293503Y28110503D02*
X32258000Y24146006D01*
X43252548Y32131000D02*
X43244274Y32122726D01*
X30683181Y31377966D02*
X30369136Y31692011D01*
X37164998Y31377966D02*
X30683181Y31377966D01*
X27755011Y28605491D02*
X28249999Y28110503D01*
X28249999Y28110503D02*
X28293503Y28110503D01*
X40152967Y31191424D02*
X40093425Y31250966D01*
X30369136Y31692011D02*
X29023600Y31692011D01*
X42216305Y32122726D02*
X41669781Y31576202D01*
X40093425Y31250966D02*
X37291998Y31250966D01*
X45673112Y35758890D02*
X42510523Y35758890D01*
X18383402Y36010011D02*
X16097402Y38296011D01*
X42510523Y35758890D02*
X41380401Y36889012D01*
X47599001Y33833001D02*
X45673112Y35758890D01*
X37919244Y36010011D02*
X18383402Y36010011D01*
X7804989Y38296011D02*
X4953000Y41148000D01*
X16097402Y38296011D02*
X7804989Y38296011D01*
X41380401Y36889012D02*
X38798245Y36889012D01*
X38798245Y36889012D02*
X37919244Y36010011D01*
X32258000Y14605000D02*
X36830000Y10033000D01*
X37662526Y10033000D02*
X37927542Y10298016D01*
X32258000Y14859000D02*
X32258000Y14605000D01*
X36830000Y10033000D02*
X37662526Y10033000D01*
G04 #@! TO.N,A11*
X59499500Y38544500D02*
X59499500Y39560500D01*
X61849000Y36195000D02*
X59499500Y38544500D01*
X29718000Y28957410D02*
X41003001Y17672409D01*
X29718000Y30099000D02*
X29718000Y28957410D01*
X41003001Y17672409D02*
X41003001Y10939999D01*
X41003001Y10939999D02*
X43434000Y8509000D01*
X54085467Y52785033D02*
X57785000Y49085500D01*
X28118200Y54118533D02*
X29451700Y52785033D01*
X29451700Y52785033D02*
X54085467Y52785033D01*
X17382467Y54118533D02*
X28118200Y54118533D01*
X15113000Y56388000D02*
X17382467Y54118533D01*
X57785000Y41479000D02*
X57759001Y41453001D01*
X57785000Y49085500D02*
X57785000Y41479000D01*
D19*
G04 #@! TO.N,GND*
X50292000Y6604000D02*
X47752000Y4064000D01*
G04 #@! TO.N,+5V*
X45121500Y41515500D02*
X45059001Y41453001D01*
X45121500Y44196000D02*
X45121500Y41515500D01*
X62103000Y28194000D02*
X60198000Y30099000D01*
X62103000Y22987000D02*
X62103000Y22987000D01*
X62103000Y22987000D02*
X62103000Y28194000D01*
X45059001Y44258499D02*
X45121500Y44196000D01*
X2322500Y30199000D02*
X2286000Y30162500D01*
X2322500Y33083500D02*
X2322500Y30199000D01*
X45121500Y49049000D02*
X45085000Y49085500D01*
X45121500Y44196000D02*
X45121500Y49049000D01*
D18*
G04 #@! TO.N,A10*
X62611000Y39370000D02*
X66603677Y35377323D01*
X66603677Y35377323D02*
X66603677Y35205715D01*
X35998989Y25721600D02*
X35998989Y26358011D01*
X46083001Y14659001D02*
X46083001Y15637589D01*
X50645502Y10096500D02*
X46083001Y14659001D01*
X52822002Y8645998D02*
X51371500Y10096500D01*
X52832000Y6604000D02*
X52822002Y6613998D01*
X35998989Y26358011D02*
X32258000Y30099000D01*
X52822002Y6613998D02*
X52822002Y8645998D01*
X46083001Y15637589D02*
X35998989Y25721600D01*
X51371500Y10096500D02*
X50645502Y10096500D01*
X29638099Y53235044D02*
X58715456Y53235044D01*
X28304600Y54568544D02*
X29638099Y53235044D01*
X22012456Y54568544D02*
X28304600Y54568544D01*
X58715456Y53235044D02*
X62865000Y49085500D01*
X20193000Y56388000D02*
X22012456Y54568544D01*
X62839001Y49059501D02*
X62865000Y49085500D01*
X62839001Y41453001D02*
X62839001Y49059501D01*
G04 #@! TO.N,A9*
X37592000Y31875968D02*
X37592000Y33147000D01*
X37592000Y33147000D02*
X36703000Y34036000D01*
X48623001Y15637589D02*
X34798000Y29462590D01*
X54522001Y8765645D02*
X48623001Y14664645D01*
X34798000Y29462590D02*
X34798000Y30099000D01*
X48623001Y14664645D02*
X48623001Y15637589D01*
X54522001Y7453999D02*
X54522001Y8765645D01*
X55372000Y6604000D02*
X54522001Y7453999D01*
X51995478Y52335022D02*
X55245000Y49085500D01*
X29265300Y52335022D02*
X51995478Y52335022D01*
X27931800Y53668522D02*
X29265300Y52335022D01*
X15292478Y53668522D02*
X27931800Y53668522D01*
X12573000Y56388000D02*
X15292478Y53668522D01*
X55219001Y49059501D02*
X55245000Y49085500D01*
X55219001Y41453001D02*
X55219001Y49059501D01*
G04 #@! TO.N,A8*
X41532566Y26066829D02*
X41532566Y25268024D01*
X57912000Y7806081D02*
X57912000Y6604000D01*
X51163001Y14555080D02*
X57912000Y7806081D01*
X37747565Y30099000D02*
X41511387Y26335178D01*
X51163001Y15637589D02*
X51163001Y14555080D01*
X41511387Y26088008D02*
X41532566Y26066829D01*
X41532566Y25268024D02*
X51163001Y15637589D01*
X41511387Y26335178D02*
X41511387Y26088008D01*
X37338000Y30099000D02*
X37747565Y30099000D01*
X52705000Y36703000D02*
X52705000Y36703000D01*
X52705000Y36703000D02*
X54102000Y35306000D01*
X54102000Y35306000D02*
X54102000Y35246979D01*
X49905489Y51885011D02*
X52705000Y49085500D01*
X29078899Y51885011D02*
X49905489Y51885011D01*
X27745400Y53218511D02*
X29078899Y51885011D01*
X13202489Y53218511D02*
X27745400Y53218511D01*
X10033000Y56388000D02*
X13202489Y53218511D01*
X52705000Y41479000D02*
X52679001Y41453001D01*
X52705000Y49085500D02*
X52705000Y41479000D01*
G04 #@! TO.N,D7*
X67919001Y41453001D02*
X67919001Y35407001D01*
X67919001Y35407001D02*
X67691000Y35179000D01*
X31231271Y28717757D02*
X31231271Y29142021D01*
X42418000Y17531028D02*
X31231271Y28717757D01*
X42418000Y14859000D02*
X42418000Y17531028D01*
X50998702Y9196478D02*
X51562000Y8633180D01*
X42418000Y14859000D02*
X48080522Y9196478D01*
X52267999Y5428999D02*
X59087001Y5428999D01*
X51562000Y8633180D02*
X51562000Y6134998D01*
X51562000Y6134998D02*
X52267999Y5428999D01*
X48080522Y9196478D02*
X50998702Y9196478D01*
X59087001Y5428999D02*
X60452000Y4064000D01*
X29824500Y53685055D02*
X63345445Y53685055D01*
X63345445Y53685055D02*
X67945000Y49085500D01*
X28491000Y55018555D02*
X29824500Y53685055D01*
X26642445Y55018555D02*
X28491000Y55018555D01*
X25273000Y56388000D02*
X26642445Y55018555D01*
X67919001Y49059501D02*
X67945000Y49085500D01*
X67919001Y41453001D02*
X67919001Y49059501D01*
G04 #@! TO.N,A7*
X46083400Y31680989D02*
X46591400Y32188989D01*
X41730854Y31126191D02*
X41911346Y31126191D01*
X39878000Y30099000D02*
X40703663Y30099000D01*
X40703663Y30099000D02*
X41730854Y31126191D01*
X41911346Y31126191D02*
X42457870Y31672715D01*
X46591400Y32188989D02*
X47551757Y32188989D01*
X47551757Y32188989D02*
X49195769Y33833001D01*
X49195769Y33833001D02*
X50139001Y33833001D01*
X43438948Y31680989D02*
X46083400Y31680989D01*
X43430674Y31672715D02*
X43438948Y31680989D01*
X42457870Y31672715D02*
X43430674Y31672715D01*
X60452000Y7806081D02*
X53992999Y14265082D01*
X53992999Y14265082D02*
X53992999Y15375080D01*
X53992999Y15375080D02*
X39878000Y29490079D01*
X39878000Y29490079D02*
X39878000Y30099000D01*
X60452000Y6604000D02*
X60452000Y7806081D01*
X47763101Y36208901D02*
X50139001Y33833001D01*
X7493000Y41148000D02*
X9894978Y38746022D01*
X42696923Y36208901D02*
X47763101Y36208901D01*
X18569802Y36460022D02*
X37732844Y36460022D01*
X37732844Y36460022D02*
X38611844Y37339023D01*
X41566801Y37339023D02*
X42696923Y36208901D01*
X16283802Y38746022D02*
X18569802Y36460022D01*
X9894978Y38746022D02*
X16283802Y38746022D01*
X38611844Y37339023D02*
X41566801Y37339023D01*
G04 #@! TO.N,D6*
X66040000Y32004000D02*
X66040000Y32004000D01*
X44958000Y16099101D02*
X33626133Y27430968D01*
X44958000Y14859000D02*
X44958000Y16099101D01*
X67882002Y32131000D02*
X66167000Y32131000D01*
X69334000Y40328000D02*
X69334000Y33582998D01*
X66167000Y32131000D02*
X66040000Y32004000D01*
X69334000Y33582998D02*
X67882002Y32131000D01*
X70459001Y41453001D02*
X69334000Y40328000D01*
X29902989Y54298011D02*
X29781500Y54419500D01*
X29781500Y54419500D02*
X27813000Y56388000D01*
X51185101Y9646489D02*
X52197000Y8634590D01*
X52197000Y8634590D02*
X52197000Y8255000D01*
X50170511Y9646489D02*
X51185101Y9646489D01*
X44958000Y14859000D02*
X50170511Y9646489D01*
X30065934Y54135066D02*
X65435434Y54135066D01*
X65435434Y54135066D02*
X70485000Y49085500D01*
X29781500Y54419500D02*
X30065934Y54135066D01*
X70485000Y41479000D02*
X70459001Y41453001D01*
X70485000Y49085500D02*
X70485000Y41479000D01*
G04 #@! TO.N,A6*
X52679001Y33833001D02*
X51804003Y33833001D01*
X60427089Y10474045D02*
X60996469Y10474045D01*
X42418000Y30099000D02*
X43217999Y29299001D01*
X43217999Y28379098D02*
X56243001Y15354096D01*
X60996469Y10474045D02*
X62992000Y8478514D01*
X43217999Y29299001D02*
X43217999Y28379098D01*
X56243001Y15354096D02*
X56243001Y14658133D01*
X62992000Y8478514D02*
X62992000Y6604000D01*
X56243001Y14658133D02*
X60427089Y10474045D01*
X48649200Y32650022D02*
X47738157Y31738978D01*
X46777800Y31738978D02*
X46269800Y31230978D01*
X47738157Y31738978D02*
X46777800Y31738978D01*
X51804003Y33833001D02*
X50621024Y32650022D01*
X43549978Y31230978D02*
X42418000Y30099000D01*
X50621024Y32650022D02*
X48649200Y32650022D01*
X46269800Y31230978D02*
X43549978Y31230978D01*
X48978092Y36658912D02*
X51804003Y33833001D01*
X42883323Y36658912D02*
X48978092Y36658912D01*
X37546444Y36910033D02*
X38425445Y37789034D01*
X16470202Y39196033D02*
X18756202Y36910033D01*
X38425445Y37789034D02*
X41753201Y37789034D01*
X11984967Y39196033D02*
X16470202Y39196033D01*
X41753201Y37789034D02*
X42883323Y36658912D01*
X10033000Y41148000D02*
X11984967Y39196033D01*
X18756202Y36910033D02*
X37546444Y36910033D01*
G04 #@! TO.N,D5*
X71874000Y33582998D02*
X70676002Y32385000D01*
X71874000Y40328000D02*
X71874000Y33582998D01*
X70676002Y32385000D02*
X69850000Y32385000D01*
X72999001Y41453001D02*
X71874000Y40328000D01*
X69850000Y32385000D02*
X69850000Y32385000D01*
X36449000Y25908000D02*
X47498000Y14859000D01*
X36449000Y26924000D02*
X36449000Y25908000D01*
X53447012Y8909988D02*
X53447012Y8461966D01*
X47498000Y14859000D02*
X53447012Y8909988D01*
X67525423Y54585077D02*
X73025000Y49085500D01*
X32155923Y54585077D02*
X67525423Y54585077D01*
X30353000Y56388000D02*
X32155923Y54585077D01*
X72999001Y49059501D02*
X73025000Y49085500D01*
X72999001Y41453001D02*
X72999001Y49059501D01*
G04 #@! TO.N,A5*
X63062086Y10379046D02*
X59072999Y14368133D01*
X59072999Y15292308D02*
X44958000Y29407307D01*
X65532000Y6604000D02*
X65532000Y8230991D01*
X44958000Y29407307D02*
X44958000Y30099000D01*
X65532000Y8230991D02*
X63383945Y10379046D01*
X59072999Y14368133D02*
X59072999Y15292308D01*
X63383945Y10379046D02*
X63062086Y10379046D01*
X55219001Y33833001D02*
X54574008Y33833001D01*
X52941019Y32200012D02*
X48835601Y32200011D01*
X47924557Y31288967D02*
X46964200Y31288967D01*
X54574008Y33833001D02*
X52941019Y32200012D01*
X45774233Y30099000D02*
X44958000Y30099000D01*
X48835601Y32200011D02*
X47924557Y31288967D01*
X46964200Y31288967D02*
X45774233Y30099000D01*
X18538278Y37764368D02*
X18245323Y38057323D01*
X16467323Y39835323D02*
X18245323Y38057323D01*
X16454990Y39822990D02*
X16467323Y39835323D01*
X13898010Y39822990D02*
X16454990Y39822990D01*
X12573000Y41148000D02*
X13898010Y39822990D01*
X43069723Y37108923D02*
X41939601Y38239045D01*
X47094313Y37368434D02*
X46834802Y37108923D01*
X46834802Y37108923D02*
X43069723Y37108923D01*
X37360044Y37360044D02*
X18942602Y37360044D01*
X41939601Y38239045D02*
X38239044Y38239045D01*
X55219001Y35458999D02*
X53309566Y37368434D01*
X53309566Y37368434D02*
X47094313Y37368434D01*
X18942602Y37360044D02*
X18245323Y38057323D01*
X55219001Y33833001D02*
X55219001Y35458999D01*
X38239044Y38239045D02*
X37360044Y37360044D01*
G04 #@! TO.N,D4*
X74414000Y33582998D02*
X72835002Y32004000D01*
X74414000Y40328000D02*
X74414000Y33582998D01*
X75539001Y41453001D02*
X74414000Y40328000D01*
X72835002Y32004000D02*
X72263000Y32004000D01*
X72263000Y32004000D02*
X72263000Y32004000D01*
X50038000Y14859000D02*
X40596181Y24300819D01*
X40596181Y24300819D02*
X40596181Y25060867D01*
X32893000Y56388000D02*
X33845500Y55435500D01*
X33845500Y55435500D02*
X34018001Y55262999D01*
X50038000Y14859000D02*
X55334746Y9562254D01*
X55334746Y9562254D02*
X55334746Y8949021D01*
X69615412Y55035088D02*
X75565000Y49085500D01*
X34245912Y55035088D02*
X69615412Y55035088D01*
X33845500Y55435500D02*
X34245912Y55035088D01*
X75539001Y49059501D02*
X75565000Y49085500D01*
X75539001Y41453001D02*
X75539001Y49059501D01*
G04 #@! TO.N,A4*
X65621391Y10379046D02*
X66221395Y10379046D01*
X61323001Y16273999D02*
X61323001Y14677436D01*
X61323001Y14677436D02*
X65621391Y10379046D01*
X66221395Y10379046D02*
X68072000Y8528441D01*
X68072000Y8528441D02*
X68072000Y6604000D01*
X47498000Y30099000D02*
X61323001Y16273999D01*
X56634000Y32708000D02*
X57759001Y33833001D01*
X54085417Y32708000D02*
X56634000Y32708000D01*
X49022001Y31750001D02*
X53127418Y31750001D01*
X53127418Y31750001D02*
X54085417Y32708000D01*
X47498000Y30226000D02*
X49022001Y31750001D01*
X47498000Y30099000D02*
X47498000Y30226000D01*
X43256123Y37558934D02*
X46648402Y37558934D01*
X15113000Y41148000D02*
X15791057Y41148000D01*
X46907913Y37818445D02*
X53773557Y37818445D01*
X46648402Y37558934D02*
X46907913Y37818445D01*
X15791057Y41148000D02*
X19093057Y37846000D01*
X37089642Y37846000D02*
X38047651Y38804009D01*
X53773557Y37818445D02*
X57759001Y33833001D01*
X38047651Y38804009D02*
X42011048Y38804009D01*
X42011048Y38804009D02*
X43256123Y37558934D01*
X19093057Y37846000D02*
X37089642Y37846000D01*
G04 #@! TO.N,D3*
X52578000Y14859000D02*
X57874803Y9562197D01*
X57874803Y9562197D02*
X57874803Y9399032D01*
X76954000Y40328000D02*
X76954000Y33582998D01*
X76954000Y33582998D02*
X74867002Y31496000D01*
X78079001Y41453001D02*
X76954000Y40328000D01*
X74867002Y31496000D02*
X74867002Y31496000D01*
X44130565Y23306435D02*
X44130565Y23836061D01*
X52578000Y14859000D02*
X44130565Y23306435D01*
X70802500Y56388000D02*
X78105000Y49085500D01*
X35433000Y56388000D02*
X70802500Y56388000D01*
X78105000Y41479000D02*
X78079001Y41453001D01*
X78105000Y49085500D02*
X78105000Y41479000D01*
G04 #@! TO.N,A3*
X70612000Y6604000D02*
X70612000Y7806081D01*
X63863001Y16273999D02*
X50038000Y30099000D01*
X70612000Y7806081D02*
X63863001Y14555080D01*
X63863001Y14555080D02*
X63863001Y16273999D01*
X60299001Y33833001D02*
X59424003Y33833001D01*
X51238990Y31299990D02*
X50038000Y30099000D01*
X53791401Y31299990D02*
X51238990Y31299990D01*
X59424003Y33833001D02*
X57848991Y32257989D01*
X57848991Y32257989D02*
X54749400Y32257989D01*
X54749400Y32257989D02*
X53791401Y31299990D01*
X46462002Y38008945D02*
X46721513Y38268456D01*
X36903242Y38296011D02*
X37861251Y39254020D01*
X42197448Y39254020D02*
X43442523Y38008945D01*
X17653000Y41148000D02*
X20504989Y38296011D01*
X37861251Y39254020D02*
X42197448Y39254020D01*
X43442523Y38008945D02*
X46462002Y38008945D01*
X46721513Y38268456D02*
X54988548Y38268456D01*
X54988548Y38268456D02*
X59424003Y33833001D01*
X20504989Y38296011D02*
X36903242Y38296011D01*
G04 #@! TO.N,D2*
X60127957Y9849043D02*
X60700424Y9849043D01*
X55118000Y14859000D02*
X60127957Y9849043D01*
X69199943Y28946045D02*
X68899944Y28646046D01*
X69860998Y31267000D02*
X69199943Y30605945D01*
X72973000Y31267000D02*
X69860998Y31267000D01*
X75539001Y33833001D02*
X72973000Y31267000D01*
X69199943Y30605945D02*
X69199943Y28946045D01*
X40386000Y31877000D02*
X40386000Y31877000D01*
X39373794Y32896074D02*
X39373794Y35810197D01*
X40453434Y31816434D02*
X39373794Y32896074D01*
X44778137Y26024771D02*
X44778137Y25514946D01*
X55118000Y15175083D02*
X45078136Y25214947D01*
X45078136Y25214947D02*
X44778137Y25514946D01*
X55118000Y14859000D02*
X55118000Y15175083D01*
X42175584Y28627324D02*
X44778137Y26024771D01*
G04 #@! TO.N,A2*
X52578000Y30099000D02*
X52578000Y29207178D01*
X66692999Y13063001D02*
X73152000Y6604000D01*
X52578000Y29207178D02*
X66692999Y15092179D01*
X66692999Y15092179D02*
X66692999Y13063001D01*
X58035390Y31807978D02*
X54935800Y31807978D01*
X62839001Y33833001D02*
X61714000Y32708000D01*
X61714000Y32708000D02*
X58935412Y32708000D01*
X54935800Y31807978D02*
X53226822Y30099000D01*
X58935412Y32708000D02*
X58035390Y31807978D01*
X53226822Y30099000D02*
X52578000Y30099000D01*
X43628923Y38458956D02*
X42383848Y39704031D01*
X62839001Y33833001D02*
X61903472Y33833001D01*
X61903472Y33833001D02*
X57018006Y38718467D01*
X46275602Y38458956D02*
X43628923Y38458956D01*
X22594978Y38746022D02*
X20193000Y41148000D01*
X42383848Y39704031D02*
X37674851Y39704031D01*
X37674851Y39704031D02*
X36716842Y38746022D01*
X36716842Y38746022D02*
X22594978Y38746022D01*
X46535113Y38718467D02*
X46275602Y38458956D01*
X57018006Y38718467D02*
X46535113Y38718467D01*
G04 #@! TO.N,D1*
X62762956Y9754044D02*
X63083943Y9754044D01*
X57658000Y14859000D02*
X62762956Y9754044D01*
X66040000Y28575000D02*
X66040000Y28575000D01*
X67284976Y31230978D02*
X66403001Y30349003D01*
X66403001Y28785763D02*
X65990503Y28373265D01*
X68254802Y31230978D02*
X67284976Y31230978D01*
X70904980Y31738980D02*
X68762804Y31738980D01*
X66403001Y30349003D02*
X66403001Y28785763D01*
X68762804Y31738980D02*
X68254802Y31230978D01*
X72999001Y33833001D02*
X70904980Y31738980D01*
X57658000Y14859000D02*
X45986052Y26530948D01*
X44196000Y28311769D02*
X45976821Y26530948D01*
X44196000Y28829000D02*
X44196000Y28311769D01*
X45986052Y26530948D02*
X45976821Y26530948D01*
X40386000Y33170846D02*
X41373905Y32182941D01*
X40386000Y35687000D02*
X40386000Y33170846D01*
G04 #@! TO.N,A1*
X69232999Y13063001D02*
X69232999Y15093590D01*
X75692000Y6604000D02*
X69232999Y13063001D01*
X68266600Y16059989D02*
X66361600Y16059989D01*
X69232999Y15093590D02*
X68266600Y16059989D01*
X55118000Y27303589D02*
X55118000Y30099000D01*
X66361600Y16059989D02*
X55118000Y27303589D01*
X59121813Y32257989D02*
X58221791Y31357967D01*
X63803989Y32257989D02*
X59121813Y32257989D01*
X65379001Y33833001D02*
X63803989Y32257989D01*
X58221791Y31357967D02*
X56376967Y31357967D01*
X56376967Y31357967D02*
X55118000Y30099000D01*
X37488452Y40154042D02*
X42570248Y40154042D01*
X61252895Y35119988D02*
X64092014Y35119988D01*
X43815323Y38908967D02*
X46089202Y38908967D01*
X22733000Y41148000D02*
X24511000Y39370000D01*
X46089202Y38908967D02*
X46348713Y39168478D01*
X57204405Y39168478D02*
X61252895Y35119988D01*
X64092014Y35119988D02*
X65379001Y33833001D01*
X42570248Y40154042D02*
X43815323Y38908967D01*
X46348713Y39168478D02*
X57204405Y39168478D01*
X24511000Y39370000D02*
X36704410Y39370000D01*
X36704410Y39370000D02*
X37488452Y40154042D01*
G04 #@! TO.N,D0*
X65302956Y9754044D02*
X65921393Y9754044D01*
X60198000Y14859000D02*
X65302956Y9754044D01*
X64008000Y30988000D02*
X64008000Y30988000D01*
X64307999Y31287999D02*
X64008000Y30988000D01*
X70220414Y33833001D02*
X68068402Y31680989D01*
X68068402Y31680989D02*
X67098577Y31680989D01*
X66705587Y31287999D02*
X64307999Y31287999D01*
X70459001Y33833001D02*
X70220414Y33833001D01*
X67098577Y31680989D02*
X66705587Y31287999D01*
X42926000Y32766000D02*
X42926000Y32766000D01*
X47484970Y27572030D02*
X47484970Y27802251D01*
X60198000Y14859000D02*
X47484970Y27572030D01*
X46228000Y29059221D02*
X47484970Y27802251D01*
X46228000Y29210000D02*
X46228000Y29059221D01*
X41275000Y35433000D02*
X41275000Y34417000D01*
X41275000Y34417000D02*
X42944272Y32747728D01*
G04 #@! TO.N,A0*
X65599600Y32708011D02*
X64699567Y31807978D01*
X64699567Y31807978D02*
X59366978Y31807978D01*
X66794011Y32708011D02*
X65599600Y32708011D01*
X67919001Y33833001D02*
X66794011Y32708011D01*
X59366978Y31807978D02*
X57658000Y30099000D01*
X71483001Y15384999D02*
X71483001Y13352999D01*
X70358000Y16510000D02*
X71483001Y15384999D01*
X71483001Y13352999D02*
X78232000Y6604000D01*
X66548000Y16510000D02*
X70358000Y16510000D01*
X57658000Y25400000D02*
X66548000Y16510000D01*
X57658000Y30099000D02*
X57658000Y25400000D01*
X65305414Y35569999D02*
X61548997Y35569999D01*
X26598010Y39822990D02*
X25273000Y41148000D01*
X36520990Y39822990D02*
X26598010Y39822990D01*
X45902802Y39358978D02*
X44001722Y39358978D01*
X67919001Y33833001D02*
X67042412Y33833001D01*
X57500507Y39618489D02*
X46162313Y39618489D01*
X61548997Y35569999D02*
X57500507Y39618489D01*
X37362350Y40664350D02*
X36520990Y39822990D01*
X46162313Y39618489D02*
X45902802Y39358978D01*
X67042412Y33833001D02*
X65305414Y35569999D01*
X42696350Y40664350D02*
X37362350Y40664350D01*
X44001722Y39358978D02*
X42696350Y40664350D01*
G04 #@! TO.N,CLK*
X28130500Y18224500D02*
X28511500Y17843500D01*
X28130500Y21526500D02*
X28130500Y18224500D01*
X27131033Y15477846D02*
X28247502Y16594315D01*
X27432000Y6604000D02*
X27131033Y6904967D01*
X27131033Y6904967D02*
X27131033Y8906533D01*
X28247502Y17579502D02*
X28511500Y17843500D01*
X28247502Y16594315D02*
X28247502Y17579502D01*
X27131033Y8906533D02*
X27131033Y15477846D01*
X15811500Y9017000D02*
X2286000Y22542500D01*
X16954500Y9017000D02*
X15811500Y9017000D01*
G04 #@! TO.N,BE*
X29082998Y16784236D02*
X29082998Y17208500D01*
X27581044Y10137956D02*
X27581044Y15282282D01*
X29972000Y7747000D02*
X27581044Y10137956D01*
X29972000Y6604000D02*
X29972000Y7747000D01*
X27581044Y15282282D02*
X29082998Y16784236D01*
G04 #@! TO.N,SYNC*
X27993500Y27485502D02*
X28575000Y26904002D01*
X25781000Y10096498D02*
X23463503Y7779001D01*
X28575000Y26904002D02*
X28575000Y26035000D01*
X25781000Y17018000D02*
X25781000Y10096498D01*
X23463503Y7779001D02*
X21343327Y7779001D01*
X27178000Y18415000D02*
X25781000Y17018000D01*
X21343327Y7779001D02*
X20168326Y6604000D01*
X28575000Y26035000D02*
X27178000Y24638000D01*
X27178000Y24638000D02*
X27178000Y18415000D01*
X20168326Y6604000D02*
X19812000Y6604000D01*
G04 #@! TO.N,R~W~*
X26681022Y9536022D02*
X26681022Y16330522D01*
X26681022Y16330522D02*
X27622500Y17272000D01*
X24892000Y7747000D02*
X26681022Y9536022D01*
X24892000Y6604000D02*
X24892000Y7747000D01*
G04 #@! TO.N,~INH~*
X17526000Y21653500D02*
X17526000Y22542500D01*
X24130000Y15049500D02*
X17526000Y21653500D01*
X28261864Y10093546D02*
X28261864Y13789311D01*
X30572465Y7782945D02*
X28261864Y10093546D01*
X42672000Y4064000D02*
X41332411Y5403589D01*
X39593409Y5403589D02*
X38792411Y6204587D01*
X38792411Y7142591D02*
X38152057Y7782945D01*
X38792411Y6204587D02*
X38792411Y7142591D01*
X41332411Y5403589D02*
X39593409Y5403589D01*
X38152057Y7782945D02*
X30572465Y7782945D01*
G04 #@! TO.N,~NMI~*
X19726902Y8195987D02*
X21123902Y8195987D01*
X17272000Y4064000D02*
X18636999Y5428999D01*
X18636999Y5428999D02*
X18636999Y7106084D01*
X26687501Y18687911D02*
X26687501Y25346562D01*
X18636999Y7106084D02*
X19726902Y8195987D01*
X25330989Y17331399D02*
X26687501Y18687911D01*
X26687501Y25346562D02*
X27949990Y26609051D01*
X25330989Y10282898D02*
X25330989Y17331399D01*
X21156927Y8229012D02*
X23277103Y8229012D01*
X23277103Y8229012D02*
X25330989Y10282898D01*
X21123902Y8195987D02*
X21156927Y8229012D01*
G04 #@! TO.N,~RESET~*
X20970527Y8679023D02*
X23090703Y8679023D01*
X23090703Y8679023D02*
X24880978Y10469298D01*
X17272000Y6604000D02*
X19313998Y8645998D01*
X20937502Y8645998D02*
X20970527Y8679023D01*
X19313998Y8645998D02*
X20937502Y8645998D01*
X24880978Y10469298D02*
X24880978Y17879598D01*
X24880978Y17879598D02*
X25014251Y18012871D01*
G04 #@! TO.N,~IRQ0~*
X4826000Y22542500D02*
X18034000Y9334500D01*
X18034000Y9334500D02*
X18034000Y9080500D01*
G04 #@! TO.N,~IRQ1~*
X7366000Y20955000D02*
X18986500Y9334500D01*
X7366000Y22542500D02*
X7366000Y20955000D01*
G04 #@! TO.N,~IRQ~*
X29280498Y25735233D02*
X29280498Y26159497D01*
X22352000Y6604000D02*
X22988411Y6604000D01*
X27640001Y24094736D02*
X29280498Y25735233D01*
X22988411Y6604000D02*
X26231011Y9846600D01*
X26231011Y9846600D02*
X26231011Y16768100D01*
X27640001Y18177090D02*
X27640001Y24094736D01*
X26231011Y16768100D02*
X27640001Y18177090D01*
X8491001Y26497499D02*
X8491001Y20782501D01*
X8491001Y20782501D02*
X19939000Y9334502D01*
X4826000Y30162500D02*
X8491001Y26497499D01*
G04 #@! TO.N,~IRQ2~*
X20828000Y11620500D02*
X20828000Y9398000D01*
X9906000Y22542500D02*
X20828000Y11620500D01*
G04 #@! TO.N,~IRQ3~*
X21746199Y13242301D02*
X21746199Y9363699D01*
X12446000Y22542500D02*
X21746199Y13242301D01*
G04 #@! TO.N,Net-(J1-Pad32)*
X40132000Y4064000D02*
X39331002Y4064000D01*
G04 #@! TO.N,~SSEL~*
X20066000Y20387518D02*
X23748481Y16705037D01*
X20066000Y22542500D02*
X20066000Y20387518D01*
X30758865Y8232956D02*
X28921193Y10070628D01*
X28445874Y14500362D02*
X28445874Y15126817D01*
X28921193Y10070628D02*
X28921193Y14025043D01*
X41307001Y7168001D02*
X40242046Y8232956D01*
X28921193Y14025043D02*
X28445874Y14500362D01*
X43847001Y5428999D02*
X42107999Y5428999D01*
X40242046Y8232956D02*
X30758865Y8232956D01*
X42107999Y5428999D02*
X41307001Y6229997D01*
X45212000Y4064000D02*
X43847001Y5428999D01*
X41307001Y6229997D02*
X41307001Y7168001D01*
G04 #@! TO.N,~ROM_CS~*
X19304000Y45577966D02*
X16824054Y43098020D01*
X19304000Y48133000D02*
X19304000Y45577966D01*
X13555168Y33811668D02*
X13555168Y34974655D01*
X9906000Y30162500D02*
X13555168Y33811668D01*
X22809183Y13054315D02*
X22809183Y9316716D01*
X13860999Y26207501D02*
X13860999Y22002499D01*
X13860999Y22002499D02*
X22809183Y13054315D01*
X9906000Y30162500D02*
X13860999Y26207501D01*
X42872497Y7828001D02*
X50182501Y7828001D01*
X31192753Y8682967D02*
X42017531Y8682967D01*
X42017531Y8682967D02*
X42872497Y7828001D01*
X30383610Y9492110D02*
X31192753Y8682967D01*
X50182501Y7828001D02*
X50482500Y8128000D01*
G04 #@! TO.N,~RAM_CS~*
X12382500Y35179000D02*
X12763500Y35179000D01*
X7366000Y30162500D02*
X12382500Y35179000D01*
X14549990Y42473010D02*
X14478000Y42545000D01*
X41524102Y42473010D02*
X14549990Y42473010D01*
X46156414Y40249001D02*
X45716402Y39808989D01*
X65379001Y41453001D02*
X64175001Y40249001D01*
X44188123Y39808989D02*
X41524102Y42473010D01*
X64175001Y40249001D02*
X46156414Y40249001D01*
X45716402Y39808989D02*
X44188123Y39808989D01*
X65405000Y41479000D02*
X65379001Y41453001D01*
X65405000Y49085500D02*
X65405000Y41479000D01*
G04 #@! TO.N,~RAMW~*
X18796000Y43180000D02*
X18796000Y43180000D01*
X14605000Y32321500D02*
X12446000Y30162500D01*
X14605000Y34861500D02*
X14605000Y32321500D01*
X19050000Y42926000D02*
X18796000Y43180000D01*
X42100500Y42799000D02*
X41973500Y42926000D01*
X41973500Y42926000D02*
X19050000Y42926000D01*
X44588000Y40259000D02*
X42100500Y42746500D01*
X45530002Y40259000D02*
X44588000Y40259000D01*
X42100500Y42746500D02*
X42100500Y42799000D01*
X46724003Y41453001D02*
X45530002Y40259000D01*
X47599001Y41453001D02*
X46724003Y41453001D01*
X46799002Y48259502D02*
X47625000Y49085500D01*
X46799002Y42253000D02*
X46799002Y48259502D01*
X47599001Y41453001D02*
X46799002Y42253000D01*
G04 #@! TD*
D20*
G04 #@! TO.N,+5V*
G36*
X2125353Y59386000D02*
G01*
X78646647Y59386000D01*
X78740956Y59395289D01*
X78903542Y59379347D01*
X79183018Y59294969D01*
X79440780Y59157915D01*
X79667015Y58973401D01*
X79853103Y58748460D01*
X79991956Y58491658D01*
X80078282Y58212781D01*
X80096365Y58040731D01*
X80087000Y57945646D01*
X80087001Y685000D01*
X14218381Y685000D01*
X685000Y14218380D01*
X685000Y23342500D01*
X847928Y23342500D01*
X847928Y21742500D01*
X860188Y21618018D01*
X896498Y21498320D01*
X955463Y21388006D01*
X1034815Y21291315D01*
X1131506Y21211963D01*
X1241820Y21152998D01*
X1361518Y21116688D01*
X1486000Y21104428D01*
X2649271Y21104428D01*
X15247701Y8505997D01*
X15271499Y8476999D01*
X15387224Y8382026D01*
X15519253Y8311454D01*
X15662514Y8267997D01*
X15763974Y8258004D01*
X15811500Y8253323D01*
X15848833Y8257000D01*
X16408965Y8257000D01*
X16511611Y8188414D01*
X16681771Y8117932D01*
X16862411Y8082000D01*
X17046589Y8082000D01*
X17227229Y8117932D01*
X17397389Y8188414D01*
X17541767Y8284884D01*
X17591111Y8251914D01*
X17761271Y8181432D01*
X17772414Y8179215D01*
X17638408Y8045209D01*
X17418260Y8089000D01*
X17125740Y8089000D01*
X16838842Y8031932D01*
X16568589Y7919990D01*
X16325368Y7757475D01*
X16118525Y7550632D01*
X15956010Y7307411D01*
X15844068Y7037158D01*
X15787000Y6750260D01*
X15787000Y6457740D01*
X15844068Y6170842D01*
X15956010Y5900589D01*
X16118525Y5657368D01*
X16325368Y5450525D01*
X16499760Y5334000D01*
X16325368Y5217475D01*
X16118525Y5010632D01*
X15956010Y4767411D01*
X15844068Y4497158D01*
X15787000Y4210260D01*
X15787000Y3917740D01*
X15844068Y3630842D01*
X15956010Y3360589D01*
X16118525Y3117368D01*
X16325368Y2910525D01*
X16568589Y2748010D01*
X16838842Y2636068D01*
X17125740Y2579000D01*
X17418260Y2579000D01*
X17705158Y2636068D01*
X17975411Y2748010D01*
X18218632Y2910525D01*
X18425475Y3117368D01*
X18542000Y3291760D01*
X18658525Y3117368D01*
X18865368Y2910525D01*
X19108589Y2748010D01*
X19378842Y2636068D01*
X19665740Y2579000D01*
X19958260Y2579000D01*
X20245158Y2636068D01*
X20515411Y2748010D01*
X20758632Y2910525D01*
X20965475Y3117368D01*
X21082000Y3291760D01*
X21198525Y3117368D01*
X21405368Y2910525D01*
X21648589Y2748010D01*
X21918842Y2636068D01*
X22205740Y2579000D01*
X22498260Y2579000D01*
X22785158Y2636068D01*
X23055411Y2748010D01*
X23298632Y2910525D01*
X23505475Y3117368D01*
X23622000Y3291760D01*
X23738525Y3117368D01*
X23945368Y2910525D01*
X24188589Y2748010D01*
X24458842Y2636068D01*
X24745740Y2579000D01*
X25038260Y2579000D01*
X25325158Y2636068D01*
X25595411Y2748010D01*
X25838632Y2910525D01*
X26045475Y3117368D01*
X26162000Y3291760D01*
X26278525Y3117368D01*
X26485368Y2910525D01*
X26728589Y2748010D01*
X26998842Y2636068D01*
X27285740Y2579000D01*
X27578260Y2579000D01*
X27865158Y2636068D01*
X28135411Y2748010D01*
X28378632Y2910525D01*
X28585475Y3117368D01*
X28702000Y3291760D01*
X28818525Y3117368D01*
X29025368Y2910525D01*
X29268589Y2748010D01*
X29538842Y2636068D01*
X29825740Y2579000D01*
X30118260Y2579000D01*
X30405158Y2636068D01*
X30675411Y2748010D01*
X30918632Y2910525D01*
X31125475Y3117368D01*
X31242000Y3291760D01*
X31358525Y3117368D01*
X31565368Y2910525D01*
X31808589Y2748010D01*
X32078842Y2636068D01*
X32365740Y2579000D01*
X32658260Y2579000D01*
X32945158Y2636068D01*
X33215411Y2748010D01*
X33458632Y2910525D01*
X33665475Y3117368D01*
X33782000Y3291760D01*
X33898525Y3117368D01*
X34105368Y2910525D01*
X34348589Y2748010D01*
X34618842Y2636068D01*
X34905740Y2579000D01*
X35198260Y2579000D01*
X35485158Y2636068D01*
X35755411Y2748010D01*
X35998632Y2910525D01*
X36205475Y3117368D01*
X36322000Y3291760D01*
X36438525Y3117368D01*
X36645368Y2910525D01*
X36888589Y2748010D01*
X37158842Y2636068D01*
X37445740Y2579000D01*
X37738260Y2579000D01*
X38025158Y2636068D01*
X38295411Y2748010D01*
X38538632Y2910525D01*
X38745475Y3117368D01*
X38862000Y3291760D01*
X38978525Y3117368D01*
X39185368Y2910525D01*
X39428589Y2748010D01*
X39698842Y2636068D01*
X39985740Y2579000D01*
X40278260Y2579000D01*
X40565158Y2636068D01*
X40835411Y2748010D01*
X41078632Y2910525D01*
X41285475Y3117368D01*
X41402000Y3291760D01*
X41518525Y3117368D01*
X41725368Y2910525D01*
X41968589Y2748010D01*
X42238842Y2636068D01*
X42525740Y2579000D01*
X42818260Y2579000D01*
X43105158Y2636068D01*
X43375411Y2748010D01*
X43618632Y2910525D01*
X43825475Y3117368D01*
X43942000Y3291760D01*
X44058525Y3117368D01*
X44265368Y2910525D01*
X44508589Y2748010D01*
X44778842Y2636068D01*
X45065740Y2579000D01*
X45358260Y2579000D01*
X45645158Y2636068D01*
X45915411Y2748010D01*
X46158632Y2910525D01*
X46365475Y3117368D01*
X46482000Y3291760D01*
X46598525Y3117368D01*
X46805368Y2910525D01*
X47048589Y2748010D01*
X47318842Y2636068D01*
X47605740Y2579000D01*
X47898260Y2579000D01*
X48185158Y2636068D01*
X48455411Y2748010D01*
X48698632Y2910525D01*
X48905475Y3117368D01*
X49027195Y3299534D01*
X49096822Y3182645D01*
X49291731Y2966412D01*
X49525080Y2792359D01*
X49787901Y2667175D01*
X49935110Y2622524D01*
X50165000Y2743845D01*
X50165000Y3937000D01*
X50145000Y3937000D01*
X50145000Y4191000D01*
X50165000Y4191000D01*
X50165000Y4211000D01*
X50419000Y4211000D01*
X50419000Y4191000D01*
X50439000Y4191000D01*
X50439000Y3937000D01*
X50419000Y3937000D01*
X50419000Y2743845D01*
X50648890Y2622524D01*
X50796099Y2667175D01*
X51058920Y2792359D01*
X51292269Y2966412D01*
X51487178Y3182645D01*
X51556805Y3299534D01*
X51678525Y3117368D01*
X51885368Y2910525D01*
X52128589Y2748010D01*
X52398842Y2636068D01*
X52685740Y2579000D01*
X52978260Y2579000D01*
X53265158Y2636068D01*
X53535411Y2748010D01*
X53778632Y2910525D01*
X53985475Y3117368D01*
X54102000Y3291760D01*
X54218525Y3117368D01*
X54425368Y2910525D01*
X54668589Y2748010D01*
X54938842Y2636068D01*
X55225740Y2579000D01*
X55518260Y2579000D01*
X55805158Y2636068D01*
X56075411Y2748010D01*
X56318632Y2910525D01*
X56525475Y3117368D01*
X56642000Y3291760D01*
X56758525Y3117368D01*
X56965368Y2910525D01*
X57208589Y2748010D01*
X57478842Y2636068D01*
X57765740Y2579000D01*
X58058260Y2579000D01*
X58345158Y2636068D01*
X58615411Y2748010D01*
X58858632Y2910525D01*
X59065475Y3117368D01*
X59182000Y3291760D01*
X59298525Y3117368D01*
X59505368Y2910525D01*
X59748589Y2748010D01*
X60018842Y2636068D01*
X60305740Y2579000D01*
X60598260Y2579000D01*
X60885158Y2636068D01*
X61155411Y2748010D01*
X61398632Y2910525D01*
X61605475Y3117368D01*
X61722000Y3291760D01*
X61838525Y3117368D01*
X62045368Y2910525D01*
X62288589Y2748010D01*
X62558842Y2636068D01*
X62845740Y2579000D01*
X63138260Y2579000D01*
X63425158Y2636068D01*
X63695411Y2748010D01*
X63938632Y2910525D01*
X64145475Y3117368D01*
X64262000Y3291760D01*
X64378525Y3117368D01*
X64585368Y2910525D01*
X64828589Y2748010D01*
X65098842Y2636068D01*
X65385740Y2579000D01*
X65678260Y2579000D01*
X65965158Y2636068D01*
X66235411Y2748010D01*
X66478632Y2910525D01*
X66685475Y3117368D01*
X66802000Y3291760D01*
X66918525Y3117368D01*
X67125368Y2910525D01*
X67368589Y2748010D01*
X67638842Y2636068D01*
X67925740Y2579000D01*
X68218260Y2579000D01*
X68505158Y2636068D01*
X68775411Y2748010D01*
X69018632Y2910525D01*
X69225475Y3117368D01*
X69342000Y3291760D01*
X69458525Y3117368D01*
X69665368Y2910525D01*
X69908589Y2748010D01*
X70178842Y2636068D01*
X70465740Y2579000D01*
X70758260Y2579000D01*
X71045158Y2636068D01*
X71315411Y2748010D01*
X71558632Y2910525D01*
X71765475Y3117368D01*
X71882000Y3291760D01*
X71998525Y3117368D01*
X72205368Y2910525D01*
X72448589Y2748010D01*
X72718842Y2636068D01*
X73005740Y2579000D01*
X73298260Y2579000D01*
X73585158Y2636068D01*
X73855411Y2748010D01*
X74098632Y2910525D01*
X74305475Y3117368D01*
X74422000Y3291760D01*
X74538525Y3117368D01*
X74745368Y2910525D01*
X74988589Y2748010D01*
X75258842Y2636068D01*
X75545740Y2579000D01*
X75838260Y2579000D01*
X76125158Y2636068D01*
X76395411Y2748010D01*
X76638632Y2910525D01*
X76845475Y3117368D01*
X76962000Y3291760D01*
X77078525Y3117368D01*
X77285368Y2910525D01*
X77528589Y2748010D01*
X77798842Y2636068D01*
X78085740Y2579000D01*
X78378260Y2579000D01*
X78665158Y2636068D01*
X78935411Y2748010D01*
X79178632Y2910525D01*
X79385475Y3117368D01*
X79547990Y3360589D01*
X79659932Y3630842D01*
X79717000Y3917740D01*
X79717000Y4210260D01*
X79659932Y4497158D01*
X79547990Y4767411D01*
X79385475Y5010632D01*
X79253620Y5142487D01*
X79326180Y5164498D01*
X79436494Y5223463D01*
X79533185Y5302815D01*
X79612537Y5399506D01*
X79671502Y5509820D01*
X79707812Y5629518D01*
X79720072Y5754000D01*
X79720072Y7454000D01*
X79707812Y7578482D01*
X79671502Y7698180D01*
X79612537Y7808494D01*
X79533185Y7905185D01*
X79436494Y7984537D01*
X79326180Y8043502D01*
X79206482Y8079812D01*
X79082000Y8092072D01*
X77818730Y8092072D01*
X72397874Y13512927D01*
X72479426Y13479147D01*
X72756665Y13424000D01*
X73039335Y13424000D01*
X73316574Y13479147D01*
X73577727Y13587320D01*
X73812759Y13744363D01*
X74012637Y13944241D01*
X74168000Y14176759D01*
X74323363Y13944241D01*
X74523241Y13744363D01*
X74758273Y13587320D01*
X75019426Y13479147D01*
X75296665Y13424000D01*
X75579335Y13424000D01*
X75856574Y13479147D01*
X76117727Y13587320D01*
X76352759Y13744363D01*
X76552637Y13944241D01*
X76708000Y14176759D01*
X76863363Y13944241D01*
X77063241Y13744363D01*
X77298273Y13587320D01*
X77559426Y13479147D01*
X77836665Y13424000D01*
X78119335Y13424000D01*
X78396574Y13479147D01*
X78657727Y13587320D01*
X78892759Y13744363D01*
X79092637Y13944241D01*
X79249680Y14179273D01*
X79357853Y14440426D01*
X79413000Y14717665D01*
X79413000Y15000335D01*
X79357853Y15277574D01*
X79249680Y15538727D01*
X79092637Y15773759D01*
X78892759Y15973637D01*
X78657727Y16130680D01*
X78396574Y16238853D01*
X78119335Y16294000D01*
X77836665Y16294000D01*
X77559426Y16238853D01*
X77298273Y16130680D01*
X77063241Y15973637D01*
X76863363Y15773759D01*
X76708000Y15541241D01*
X76552637Y15773759D01*
X76352759Y15973637D01*
X76117727Y16130680D01*
X75856574Y16238853D01*
X75579335Y16294000D01*
X75296665Y16294000D01*
X75019426Y16238853D01*
X74758273Y16130680D01*
X74523241Y15973637D01*
X74323363Y15773759D01*
X74168000Y15541241D01*
X74012637Y15773759D01*
X73812759Y15973637D01*
X73577727Y16130680D01*
X73316574Y16238853D01*
X73039335Y16294000D01*
X72756665Y16294000D01*
X72479426Y16238853D01*
X72218273Y16130680D01*
X71983241Y15973637D01*
X71976203Y15966599D01*
X70921804Y17020998D01*
X70898001Y17050001D01*
X70782276Y17144974D01*
X70650247Y17215546D01*
X70506986Y17259003D01*
X70395333Y17270000D01*
X70395322Y17270000D01*
X70358000Y17273676D01*
X70320678Y17270000D01*
X66862802Y17270000D01*
X58418000Y25714801D01*
X58418000Y28880957D01*
X58572759Y28984363D01*
X58772637Y29184241D01*
X58929680Y29419273D01*
X58934067Y29429865D01*
X59045615Y29243869D01*
X59234586Y29035481D01*
X59460580Y28867963D01*
X59714913Y28747754D01*
X59848961Y28707096D01*
X60071000Y28829085D01*
X60071000Y29972000D01*
X60051000Y29972000D01*
X60051000Y30226000D01*
X60071000Y30226000D01*
X60071000Y30246000D01*
X60325000Y30246000D01*
X60325000Y30226000D01*
X60345000Y30226000D01*
X60345000Y29972000D01*
X60325000Y29972000D01*
X60325000Y28829085D01*
X60547039Y28707096D01*
X60681087Y28747754D01*
X60935420Y28867963D01*
X61161414Y29035481D01*
X61350385Y29243869D01*
X61461933Y29429865D01*
X61466320Y29419273D01*
X61623363Y29184241D01*
X61823241Y28984363D01*
X62058273Y28827320D01*
X62319426Y28719147D01*
X62596665Y28664000D01*
X62879335Y28664000D01*
X63156574Y28719147D01*
X63417727Y28827320D01*
X63652759Y28984363D01*
X63852637Y29184241D01*
X64008000Y29416759D01*
X64163363Y29184241D01*
X64363241Y28984363D01*
X64598273Y28827320D01*
X64859426Y28719147D01*
X65101768Y28670941D01*
X65091435Y28645994D01*
X65055503Y28465354D01*
X65055503Y28281176D01*
X65091435Y28100536D01*
X65161917Y27930376D01*
X65264241Y27777237D01*
X65394475Y27647003D01*
X65547614Y27544679D01*
X65717774Y27474197D01*
X65898414Y27438265D01*
X66082592Y27438265D01*
X66263232Y27474197D01*
X66433392Y27544679D01*
X66586531Y27647003D01*
X66716765Y27777237D01*
X66819089Y27930376D01*
X66889571Y28100536D01*
X66913656Y28221617D01*
X66913998Y28221959D01*
X66943002Y28245762D01*
X67037975Y28361487D01*
X67108547Y28493516D01*
X67152004Y28636777D01*
X67163001Y28748430D01*
X67163001Y28748439D01*
X67166677Y28785762D01*
X67163618Y28816822D01*
X67399426Y28719147D01*
X67676665Y28664000D01*
X67959335Y28664000D01*
X67964944Y28665116D01*
X67964944Y28553957D01*
X68000876Y28373317D01*
X68071358Y28203157D01*
X68173682Y28050018D01*
X68303916Y27919784D01*
X68457055Y27817460D01*
X68627215Y27746978D01*
X68807855Y27711046D01*
X68992033Y27711046D01*
X69172673Y27746978D01*
X69342833Y27817460D01*
X69495972Y27919784D01*
X69626206Y28050018D01*
X69728530Y28203157D01*
X69799012Y28373317D01*
X69826502Y28511515D01*
X69834917Y28521769D01*
X69905489Y28653798D01*
X69926887Y28724341D01*
X69939426Y28719147D01*
X70216665Y28664000D01*
X70499335Y28664000D01*
X70776574Y28719147D01*
X71037727Y28827320D01*
X71272759Y28984363D01*
X71472637Y29184241D01*
X71628000Y29416759D01*
X71783363Y29184241D01*
X71983241Y28984363D01*
X72218273Y28827320D01*
X72479426Y28719147D01*
X72756665Y28664000D01*
X73039335Y28664000D01*
X73316574Y28719147D01*
X73577727Y28827320D01*
X73812759Y28984363D01*
X74012637Y29184241D01*
X74168000Y29416759D01*
X74323363Y29184241D01*
X74523241Y28984363D01*
X74758273Y28827320D01*
X75019426Y28719147D01*
X75296665Y28664000D01*
X75579335Y28664000D01*
X75856574Y28719147D01*
X76117727Y28827320D01*
X76352759Y28984363D01*
X76551357Y29182961D01*
X76552188Y29174518D01*
X76588498Y29054820D01*
X76647463Y28944506D01*
X76726815Y28847815D01*
X76823506Y28768463D01*
X76933820Y28709498D01*
X77053518Y28673188D01*
X77178000Y28660928D01*
X78778000Y28660928D01*
X78902482Y28673188D01*
X79022180Y28709498D01*
X79132494Y28768463D01*
X79229185Y28847815D01*
X79308537Y28944506D01*
X79367502Y29054820D01*
X79403812Y29174518D01*
X79416072Y29299000D01*
X79416072Y30899000D01*
X79403812Y31023482D01*
X79367502Y31143180D01*
X79308537Y31253494D01*
X79229185Y31350185D01*
X79132494Y31429537D01*
X79022180Y31488502D01*
X78902482Y31524812D01*
X78778000Y31537072D01*
X77178000Y31537072D01*
X77053518Y31524812D01*
X76933820Y31488502D01*
X76823506Y31429537D01*
X76726815Y31350185D01*
X76647463Y31253494D01*
X76588498Y31143180D01*
X76552188Y31023482D01*
X76551357Y31015039D01*
X76352759Y31213637D01*
X76117727Y31370680D01*
X75904715Y31458912D01*
X77164205Y32718401D01*
X77164242Y32718364D01*
X77399274Y32561321D01*
X77660427Y32453148D01*
X77937666Y32398001D01*
X78220336Y32398001D01*
X78497575Y32453148D01*
X78758728Y32561321D01*
X78993760Y32718364D01*
X79193638Y32918242D01*
X79350681Y33153274D01*
X79458854Y33414427D01*
X79514001Y33691666D01*
X79514001Y33974336D01*
X79458854Y34251575D01*
X79350681Y34512728D01*
X79193638Y34747760D01*
X78993760Y34947638D01*
X78758728Y35104681D01*
X78497575Y35212854D01*
X78220336Y35268001D01*
X77937666Y35268001D01*
X77714000Y35223510D01*
X77714000Y40013199D01*
X77755114Y40054313D01*
X77937666Y40018001D01*
X78220336Y40018001D01*
X78497575Y40073148D01*
X78758728Y40181321D01*
X78993760Y40338364D01*
X79193638Y40538242D01*
X79350681Y40773274D01*
X79458854Y41034427D01*
X79514001Y41311666D01*
X79514001Y41594336D01*
X79458854Y41871575D01*
X79350681Y42132728D01*
X79193638Y42367760D01*
X78993760Y42567638D01*
X78865000Y42653672D01*
X78865000Y47807322D01*
X79051632Y47932025D01*
X79258475Y48138868D01*
X79420990Y48382089D01*
X79532932Y48652342D01*
X79590000Y48939240D01*
X79590000Y49231760D01*
X79532932Y49518658D01*
X79420990Y49788911D01*
X79258475Y50032132D01*
X79051632Y50238975D01*
X78808411Y50401490D01*
X78538158Y50513432D01*
X78251260Y50570500D01*
X77958740Y50570500D01*
X77738592Y50526710D01*
X71366304Y56898997D01*
X71342501Y56928001D01*
X71226776Y57022974D01*
X71094747Y57093546D01*
X70951486Y57137003D01*
X70839833Y57148000D01*
X70839822Y57148000D01*
X70802500Y57151676D01*
X70765178Y57148000D01*
X36703365Y57148000D01*
X36690914Y57189045D01*
X36565092Y57424440D01*
X36395764Y57630765D01*
X36189439Y57800092D01*
X35954044Y57925914D01*
X35698625Y58003394D01*
X35433000Y58029556D01*
X35167374Y58003394D01*
X34911955Y57925914D01*
X34676560Y57800092D01*
X34470235Y57630764D01*
X34300908Y57424439D01*
X34175086Y57189044D01*
X34163000Y57149202D01*
X34150914Y57189045D01*
X34025092Y57424440D01*
X33855764Y57630765D01*
X33649439Y57800092D01*
X33414044Y57925914D01*
X33158625Y58003394D01*
X32893000Y58029556D01*
X32627374Y58003394D01*
X32371955Y57925914D01*
X32136560Y57800092D01*
X31930235Y57630764D01*
X31760908Y57424439D01*
X31635086Y57189044D01*
X31623000Y57149202D01*
X31610914Y57189045D01*
X31485092Y57424440D01*
X31315764Y57630765D01*
X31109439Y57800092D01*
X30874044Y57925914D01*
X30618625Y58003394D01*
X30353000Y58029556D01*
X30087374Y58003394D01*
X29831955Y57925914D01*
X29596560Y57800092D01*
X29390235Y57630764D01*
X29220908Y57424439D01*
X29095086Y57189044D01*
X29083000Y57149202D01*
X29070914Y57189045D01*
X28945092Y57424440D01*
X28775764Y57630765D01*
X28569439Y57800092D01*
X28334044Y57925914D01*
X28078625Y58003394D01*
X27813000Y58029556D01*
X27547374Y58003394D01*
X27291955Y57925914D01*
X27056560Y57800092D01*
X26850235Y57630764D01*
X26680908Y57424439D01*
X26555086Y57189044D01*
X26543000Y57149202D01*
X26530914Y57189045D01*
X26405092Y57424440D01*
X26235764Y57630765D01*
X26029439Y57800092D01*
X25794044Y57925914D01*
X25538625Y58003394D01*
X25273000Y58029556D01*
X25007374Y58003394D01*
X24751955Y57925914D01*
X24516560Y57800092D01*
X24310235Y57630764D01*
X24140908Y57424439D01*
X24015086Y57189044D01*
X24003000Y57149202D01*
X23990914Y57189045D01*
X23865092Y57424440D01*
X23695764Y57630765D01*
X23489439Y57800092D01*
X23254044Y57925914D01*
X22998625Y58003394D01*
X22733000Y58029556D01*
X22467374Y58003394D01*
X22211955Y57925914D01*
X21976560Y57800092D01*
X21770235Y57630764D01*
X21600908Y57424439D01*
X21475086Y57189044D01*
X21463000Y57149202D01*
X21450914Y57189045D01*
X21325092Y57424440D01*
X21155764Y57630765D01*
X20949439Y57800092D01*
X20714044Y57925914D01*
X20458625Y58003394D01*
X20193000Y58029556D01*
X19927374Y58003394D01*
X19671955Y57925914D01*
X19436560Y57800092D01*
X19230235Y57630764D01*
X19060908Y57424439D01*
X18935086Y57189044D01*
X18923000Y57149202D01*
X18910914Y57189045D01*
X18785092Y57424440D01*
X18615764Y57630765D01*
X18409439Y57800092D01*
X18174044Y57925914D01*
X17918625Y58003394D01*
X17653000Y58029556D01*
X17387374Y58003394D01*
X17131955Y57925914D01*
X16896560Y57800092D01*
X16690235Y57630764D01*
X16520908Y57424439D01*
X16395086Y57189044D01*
X16383000Y57149202D01*
X16370914Y57189045D01*
X16245092Y57424440D01*
X16075764Y57630765D01*
X15869439Y57800092D01*
X15634044Y57925914D01*
X15378625Y58003394D01*
X15113000Y58029556D01*
X14847374Y58003394D01*
X14591955Y57925914D01*
X14356560Y57800092D01*
X14150235Y57630764D01*
X13980908Y57424439D01*
X13855086Y57189044D01*
X13843000Y57149202D01*
X13830914Y57189045D01*
X13705092Y57424440D01*
X13535764Y57630765D01*
X13329439Y57800092D01*
X13094044Y57925914D01*
X12838625Y58003394D01*
X12573000Y58029556D01*
X12307374Y58003394D01*
X12051955Y57925914D01*
X11816560Y57800092D01*
X11610235Y57630764D01*
X11440908Y57424439D01*
X11315086Y57189044D01*
X11303000Y57149202D01*
X11290914Y57189045D01*
X11165092Y57424440D01*
X10995764Y57630765D01*
X10789439Y57800092D01*
X10554044Y57925914D01*
X10298625Y58003394D01*
X10033000Y58029556D01*
X9767374Y58003394D01*
X9511955Y57925914D01*
X9276560Y57800092D01*
X9070235Y57630764D01*
X8900908Y57424439D01*
X8775086Y57189044D01*
X8763000Y57149202D01*
X8750914Y57189045D01*
X8625092Y57424440D01*
X8455764Y57630765D01*
X8249439Y57800092D01*
X8014044Y57925914D01*
X7758625Y58003394D01*
X7493000Y58029556D01*
X7227374Y58003394D01*
X6971955Y57925914D01*
X6736560Y57800092D01*
X6530235Y57630764D01*
X6360908Y57424439D01*
X6235086Y57189044D01*
X6221495Y57144241D01*
X6156256Y57303869D01*
X6009084Y57526395D01*
X5821327Y57715933D01*
X5600201Y57865199D01*
X5354203Y57968458D01*
X5289472Y57980559D01*
X5080000Y57857489D01*
X5080000Y56515000D01*
X5100000Y56515000D01*
X5100000Y56261000D01*
X5080000Y56261000D01*
X5080000Y54918511D01*
X5289472Y54795441D01*
X5354203Y54807542D01*
X5600201Y54910801D01*
X5821327Y55060067D01*
X6009084Y55249605D01*
X6156256Y55472131D01*
X6221495Y55631759D01*
X6235086Y55586955D01*
X6360908Y55351560D01*
X6530236Y55145235D01*
X6736561Y54975908D01*
X6971956Y54850086D01*
X7227375Y54772606D01*
X7493000Y54746444D01*
X7758626Y54772606D01*
X7969596Y54836603D01*
X10548700Y52257498D01*
X10572499Y52228499D01*
X10601497Y52204701D01*
X10688223Y52133526D01*
X10789322Y52079487D01*
X10820253Y52062954D01*
X10963514Y52019497D01*
X11075167Y52008500D01*
X11075177Y52008500D01*
X11112500Y52004824D01*
X11149822Y52008500D01*
X27244199Y52008500D01*
X28328700Y50923998D01*
X28352499Y50894999D01*
X28468224Y50800026D01*
X28600253Y50729454D01*
X28743514Y50685997D01*
X28855167Y50675000D01*
X28855175Y50675000D01*
X28892500Y50671324D01*
X28929825Y50675000D01*
X47500699Y50675000D01*
X47605199Y50570500D01*
X47478740Y50570500D01*
X47191842Y50513432D01*
X46921589Y50401490D01*
X46678368Y50238975D01*
X46546513Y50107120D01*
X46524502Y50179680D01*
X46465537Y50289994D01*
X46386185Y50386685D01*
X46289494Y50466037D01*
X46179180Y50525002D01*
X46059482Y50561312D01*
X45935000Y50573572D01*
X45370750Y50570500D01*
X45212000Y50411750D01*
X45212000Y49212500D01*
X45232000Y49212500D01*
X45232000Y48958500D01*
X45212000Y48958500D01*
X45212000Y47759250D01*
X45370750Y47600500D01*
X45935000Y47597428D01*
X46039003Y47607671D01*
X46039003Y45672386D01*
X45958482Y45696812D01*
X45834000Y45709072D01*
X45407250Y45706000D01*
X45248500Y45547250D01*
X45248500Y44323000D01*
X45268500Y44323000D01*
X45268500Y44069000D01*
X45248500Y44069000D01*
X45248500Y42844750D01*
X45304971Y42788279D01*
X45186001Y42722916D01*
X45186001Y41580001D01*
X45206001Y41580001D01*
X45206001Y41326001D01*
X45186001Y41326001D01*
X45186001Y41306001D01*
X44932001Y41306001D01*
X44932001Y41326001D01*
X44912001Y41326001D01*
X44912001Y41580001D01*
X44932001Y41580001D01*
X44932001Y42722916D01*
X44893706Y42743956D01*
X44994500Y42844750D01*
X44994500Y44069000D01*
X43932750Y44069000D01*
X43774000Y43910250D01*
X43770928Y43321000D01*
X43783188Y43196518D01*
X43819498Y43076820D01*
X43878463Y42966506D01*
X43957815Y42869815D01*
X44054506Y42790463D01*
X44164820Y42731498D01*
X44284518Y42695188D01*
X44334712Y42690244D01*
X44321581Y42684038D01*
X44095587Y42516520D01*
X43906616Y42308132D01*
X43796792Y42125010D01*
X42777902Y43143899D01*
X42763536Y43170776D01*
X42735474Y43223276D01*
X42677430Y43294002D01*
X42640501Y43339001D01*
X42611497Y43362804D01*
X42537304Y43436997D01*
X42513501Y43466001D01*
X42397776Y43560974D01*
X42265747Y43631546D01*
X42122486Y43675003D01*
X42010833Y43686000D01*
X42010822Y43686000D01*
X41973500Y43689676D01*
X41936178Y43686000D01*
X19582417Y43686000D01*
X19522262Y43776028D01*
X19392028Y43906262D01*
X19238889Y44008586D01*
X19068729Y44079068D01*
X18911232Y44110396D01*
X19815003Y45014167D01*
X19844001Y45037965D01*
X19871112Y45071000D01*
X43770928Y45071000D01*
X43774000Y44481750D01*
X43932750Y44323000D01*
X44994500Y44323000D01*
X44994500Y45547250D01*
X44835750Y45706000D01*
X44409000Y45709072D01*
X44284518Y45696812D01*
X44164820Y45660502D01*
X44054506Y45601537D01*
X43957815Y45522185D01*
X43878463Y45425494D01*
X43819498Y45315180D01*
X43783188Y45195482D01*
X43770928Y45071000D01*
X19871112Y45071000D01*
X19938974Y45153690D01*
X20009546Y45285719D01*
X20053003Y45428980D01*
X20064000Y45540633D01*
X20064000Y45540642D01*
X20067676Y45577965D01*
X20064000Y45615288D01*
X20064000Y47587465D01*
X20132586Y47690111D01*
X20203068Y47860271D01*
X20239000Y48040911D01*
X20239000Y48225089D01*
X20236930Y48235500D01*
X43596928Y48235500D01*
X43609188Y48111018D01*
X43645498Y47991320D01*
X43704463Y47881006D01*
X43783815Y47784315D01*
X43880506Y47704963D01*
X43990820Y47645998D01*
X44110518Y47609688D01*
X44235000Y47597428D01*
X44799250Y47600500D01*
X44958000Y47759250D01*
X44958000Y48958500D01*
X43758750Y48958500D01*
X43600000Y48799750D01*
X43596928Y48235500D01*
X20236930Y48235500D01*
X20203068Y48405729D01*
X20132586Y48575889D01*
X20030262Y48729028D01*
X19900028Y48859262D01*
X19746889Y48961586D01*
X19576729Y49032068D01*
X19396089Y49068000D01*
X19211911Y49068000D01*
X19031271Y49032068D01*
X18861111Y48961586D01*
X18707972Y48859262D01*
X18577738Y48729028D01*
X18475414Y48575889D01*
X18404932Y48405729D01*
X18369000Y48225089D01*
X18369000Y48040911D01*
X18404932Y47860271D01*
X18475414Y47690111D01*
X18544000Y47587464D01*
X18544001Y45892769D01*
X16672406Y44021173D01*
X16551325Y43997088D01*
X16381165Y43926606D01*
X16228026Y43824282D01*
X16097792Y43694048D01*
X15995468Y43540909D01*
X15924986Y43370749D01*
X15897588Y43233010D01*
X15112280Y43233010D01*
X15074028Y43271262D01*
X14920889Y43373586D01*
X14750729Y43444068D01*
X14570089Y43480000D01*
X14385911Y43480000D01*
X14205271Y43444068D01*
X14035111Y43373586D01*
X13881972Y43271262D01*
X13751738Y43141028D01*
X13649414Y42987889D01*
X13578932Y42817729D01*
X13543000Y42637089D01*
X13543000Y42452911D01*
X13561631Y42359246D01*
X13535764Y42390765D01*
X13329439Y42560092D01*
X13094044Y42685914D01*
X12838625Y42763394D01*
X12573000Y42789556D01*
X12307374Y42763394D01*
X12051955Y42685914D01*
X11816560Y42560092D01*
X11610235Y42390764D01*
X11440908Y42184439D01*
X11315086Y41949044D01*
X11303000Y41909202D01*
X11290914Y41949045D01*
X11165092Y42184440D01*
X10995764Y42390765D01*
X10789439Y42560092D01*
X10554044Y42685914D01*
X10298625Y42763394D01*
X10033000Y42789556D01*
X9767374Y42763394D01*
X9511955Y42685914D01*
X9276560Y42560092D01*
X9070235Y42390764D01*
X8900908Y42184439D01*
X8775086Y41949044D01*
X8763000Y41909202D01*
X8750914Y41949045D01*
X8625092Y42184440D01*
X8455764Y42390765D01*
X8249439Y42560092D01*
X8014044Y42685914D01*
X7758625Y42763394D01*
X7493000Y42789556D01*
X7227374Y42763394D01*
X6971955Y42685914D01*
X6736560Y42560092D01*
X6530235Y42390764D01*
X6360908Y42184439D01*
X6235086Y41949044D01*
X6223000Y41909202D01*
X6210914Y41949045D01*
X6085092Y42184440D01*
X5915764Y42390765D01*
X5709439Y42560092D01*
X5474044Y42685914D01*
X5218625Y42763394D01*
X4953000Y42789556D01*
X4687374Y42763394D01*
X4431955Y42685914D01*
X4196560Y42560092D01*
X3990235Y42390764D01*
X3820908Y42184439D01*
X3771072Y42091203D01*
X3771072Y42148000D01*
X3758812Y42272482D01*
X3722502Y42392180D01*
X3663537Y42502494D01*
X3584185Y42599185D01*
X3487494Y42678537D01*
X3377180Y42737502D01*
X3257482Y42773812D01*
X3133000Y42786072D01*
X1693000Y42786072D01*
X1568518Y42773812D01*
X1448820Y42737502D01*
X1338506Y42678537D01*
X1241815Y42599185D01*
X1162463Y42502494D01*
X1103498Y42392180D01*
X1067188Y42272482D01*
X1054928Y42148000D01*
X1054928Y40148000D01*
X1067188Y40023518D01*
X1103498Y39903820D01*
X1162463Y39793506D01*
X1241815Y39696815D01*
X1338506Y39617463D01*
X1448820Y39558498D01*
X1568518Y39522188D01*
X1693000Y39509928D01*
X2976271Y39509928D01*
X5151200Y37334998D01*
X5174999Y37305999D01*
X5290724Y37211026D01*
X5422753Y37140454D01*
X5566014Y37096997D01*
X5677667Y37086000D01*
X5677676Y37086000D01*
X5714999Y37082324D01*
X5752322Y37086000D01*
X15596201Y37086000D01*
X17633203Y35048997D01*
X17657001Y35019999D01*
X17772726Y34925026D01*
X17904755Y34854454D01*
X18048016Y34810997D01*
X18159669Y34800000D01*
X18159678Y34800000D01*
X18197001Y34796324D01*
X18234324Y34800000D01*
X34233197Y34800000D01*
X32614351Y33181153D01*
X32493271Y33157068D01*
X32323111Y33086586D01*
X32169972Y32984262D01*
X32039738Y32854028D01*
X31937414Y32700889D01*
X31866932Y32530729D01*
X31831000Y32350089D01*
X31831000Y32165911D01*
X31836559Y32137966D01*
X30997982Y32137966D01*
X30932940Y32203008D01*
X30909137Y32232012D01*
X30793412Y32326985D01*
X30661383Y32397557D01*
X30518122Y32441014D01*
X30406469Y32452011D01*
X30406458Y32452011D01*
X30369136Y32455687D01*
X30331814Y32452011D01*
X29060925Y32452011D01*
X29023600Y32455687D01*
X28986275Y32452011D01*
X28986267Y32452011D01*
X28874614Y32441014D01*
X28731353Y32397557D01*
X28599324Y32326985D01*
X28483599Y32232012D01*
X28459801Y32203014D01*
X27244014Y30987226D01*
X27215010Y30963423D01*
X27172400Y30911502D01*
X27120037Y30847698D01*
X27053380Y30722993D01*
X27049465Y30715668D01*
X27006008Y30572407D01*
X26995011Y30460754D01*
X26995011Y30460744D01*
X26991335Y30423422D01*
X26995011Y30386099D01*
X26995012Y28642823D01*
X26991335Y28605491D01*
X26995012Y28568158D01*
X27006009Y28456505D01*
X27012519Y28435043D01*
X27049465Y28313245D01*
X27120037Y28181215D01*
X27191212Y28094489D01*
X27215011Y28065490D01*
X27241820Y28043489D01*
X27164914Y27928391D01*
X27094432Y27758231D01*
X27058500Y27577591D01*
X27058500Y27393413D01*
X27094432Y27212773D01*
X27145879Y27088569D01*
X27121404Y27051940D01*
X27050922Y26881780D01*
X27026837Y26760700D01*
X26176499Y25910361D01*
X26147501Y25886563D01*
X26123703Y25857565D01*
X26123702Y25857564D01*
X26052527Y25770838D01*
X25981955Y25638808D01*
X25961876Y25572614D01*
X25938499Y25495548D01*
X25930033Y25409596D01*
X25923825Y25346562D01*
X25927502Y25309230D01*
X25927502Y23746176D01*
X25825727Y23814180D01*
X25564574Y23922353D01*
X25287335Y23977500D01*
X25004665Y23977500D01*
X24727426Y23922353D01*
X24466273Y23814180D01*
X24231241Y23657137D01*
X24031363Y23457259D01*
X23876000Y23224741D01*
X23720637Y23457259D01*
X23520759Y23657137D01*
X23285727Y23814180D01*
X23024574Y23922353D01*
X22747335Y23977500D01*
X22464665Y23977500D01*
X22187426Y23922353D01*
X21926273Y23814180D01*
X21691241Y23657137D01*
X21491363Y23457259D01*
X21336000Y23224741D01*
X21180637Y23457259D01*
X20980759Y23657137D01*
X20745727Y23814180D01*
X20484574Y23922353D01*
X20207335Y23977500D01*
X19924665Y23977500D01*
X19647426Y23922353D01*
X19386273Y23814180D01*
X19151241Y23657137D01*
X18951363Y23457259D01*
X18796000Y23224741D01*
X18640637Y23457259D01*
X18440759Y23657137D01*
X18205727Y23814180D01*
X17944574Y23922353D01*
X17667335Y23977500D01*
X17384665Y23977500D01*
X17107426Y23922353D01*
X16846273Y23814180D01*
X16611241Y23657137D01*
X16411363Y23457259D01*
X16256000Y23224741D01*
X16100637Y23457259D01*
X15900759Y23657137D01*
X15665727Y23814180D01*
X15404574Y23922353D01*
X15127335Y23977500D01*
X14844665Y23977500D01*
X14620999Y23933009D01*
X14620999Y26170179D01*
X14624675Y26207502D01*
X14620999Y26244825D01*
X14620999Y26244834D01*
X14610002Y26356487D01*
X14566545Y26499748D01*
X14495973Y26631777D01*
X14401000Y26747502D01*
X14372003Y26771299D01*
X12415801Y28727500D01*
X12587335Y28727500D01*
X12864574Y28782647D01*
X13125727Y28890820D01*
X13360759Y29047863D01*
X13560637Y29247741D01*
X13716000Y29480259D01*
X13871363Y29247741D01*
X14071241Y29047863D01*
X14306273Y28890820D01*
X14567426Y28782647D01*
X14844665Y28727500D01*
X15127335Y28727500D01*
X15404574Y28782647D01*
X15665727Y28890820D01*
X15900759Y29047863D01*
X16100637Y29247741D01*
X16256000Y29480259D01*
X16411363Y29247741D01*
X16611241Y29047863D01*
X16846273Y28890820D01*
X17107426Y28782647D01*
X17384665Y28727500D01*
X17667335Y28727500D01*
X17944574Y28782647D01*
X18205727Y28890820D01*
X18440759Y29047863D01*
X18640637Y29247741D01*
X18796000Y29480259D01*
X18951363Y29247741D01*
X19151241Y29047863D01*
X19386273Y28890820D01*
X19647426Y28782647D01*
X19924665Y28727500D01*
X20207335Y28727500D01*
X20484574Y28782647D01*
X20745727Y28890820D01*
X20980759Y29047863D01*
X21180637Y29247741D01*
X21336000Y29480259D01*
X21491363Y29247741D01*
X21691241Y29047863D01*
X21926273Y28890820D01*
X22187426Y28782647D01*
X22464665Y28727500D01*
X22747335Y28727500D01*
X23024574Y28782647D01*
X23285727Y28890820D01*
X23520759Y29047863D01*
X23720637Y29247741D01*
X23876000Y29480259D01*
X24031363Y29247741D01*
X24231241Y29047863D01*
X24466273Y28890820D01*
X24727426Y28782647D01*
X25004665Y28727500D01*
X25287335Y28727500D01*
X25564574Y28782647D01*
X25825727Y28890820D01*
X26060759Y29047863D01*
X26260637Y29247741D01*
X26417680Y29482773D01*
X26525853Y29743926D01*
X26581000Y30021165D01*
X26581000Y30303835D01*
X26525853Y30581074D01*
X26417680Y30842227D01*
X26260637Y31077259D01*
X26060759Y31277137D01*
X25825727Y31434180D01*
X25564574Y31542353D01*
X25287335Y31597500D01*
X25004665Y31597500D01*
X24727426Y31542353D01*
X24466273Y31434180D01*
X24231241Y31277137D01*
X24031363Y31077259D01*
X23876000Y30844741D01*
X23720637Y31077259D01*
X23520759Y31277137D01*
X23285727Y31434180D01*
X23024574Y31542353D01*
X22747335Y31597500D01*
X22464665Y31597500D01*
X22187426Y31542353D01*
X21926273Y31434180D01*
X21691241Y31277137D01*
X21491363Y31077259D01*
X21336000Y30844741D01*
X21180637Y31077259D01*
X20980759Y31277137D01*
X20745727Y31434180D01*
X20484574Y31542353D01*
X20207335Y31597500D01*
X19924665Y31597500D01*
X19647426Y31542353D01*
X19386273Y31434180D01*
X19151241Y31277137D01*
X18951363Y31077259D01*
X18796000Y30844741D01*
X18640637Y31077259D01*
X18440759Y31277137D01*
X18205727Y31434180D01*
X17944574Y31542353D01*
X17667335Y31597500D01*
X17384665Y31597500D01*
X17107426Y31542353D01*
X16846273Y31434180D01*
X16611241Y31277137D01*
X16411363Y31077259D01*
X16256000Y30844741D01*
X16100637Y31077259D01*
X15900759Y31277137D01*
X15665727Y31434180D01*
X15404574Y31542353D01*
X15127335Y31597500D01*
X14955802Y31597500D01*
X15116003Y31757701D01*
X15145001Y31781499D01*
X15181849Y31826398D01*
X15239974Y31897223D01*
X15310546Y32029253D01*
X15317151Y32051027D01*
X15354003Y32172514D01*
X15365000Y32284167D01*
X15365000Y32284176D01*
X15368676Y32321499D01*
X15365000Y32358822D01*
X15365000Y34315965D01*
X15433586Y34418611D01*
X15504068Y34588771D01*
X15540000Y34769411D01*
X15540000Y34953589D01*
X15504068Y35134229D01*
X15433586Y35304389D01*
X15331262Y35457528D01*
X15201028Y35587762D01*
X15047889Y35690086D01*
X14877729Y35760568D01*
X14697089Y35796500D01*
X14512911Y35796500D01*
X14332271Y35760568D01*
X14162111Y35690086D01*
X14162061Y35690052D01*
X14151196Y35700917D01*
X13998057Y35803241D01*
X13827897Y35873723D01*
X13647257Y35909655D01*
X13463079Y35909655D01*
X13373044Y35891746D01*
X13359528Y35905262D01*
X13206389Y36007586D01*
X13036229Y36078068D01*
X12855589Y36114000D01*
X12671411Y36114000D01*
X12490771Y36078068D01*
X12320611Y36007586D01*
X12174894Y35910221D01*
X12090253Y35884546D01*
X11958224Y35813974D01*
X11842499Y35719001D01*
X11818701Y35690003D01*
X7689887Y31561188D01*
X7507335Y31597500D01*
X7224665Y31597500D01*
X6947426Y31542353D01*
X6686273Y31434180D01*
X6451241Y31277137D01*
X6251363Y31077259D01*
X6096000Y30844741D01*
X5940637Y31077259D01*
X5740759Y31277137D01*
X5505727Y31434180D01*
X5244574Y31542353D01*
X5103433Y31570428D01*
X5760000Y31570428D01*
X5933254Y31587492D01*
X6099850Y31638028D01*
X6253386Y31720095D01*
X6387962Y31830538D01*
X6498405Y31965114D01*
X6580472Y32118650D01*
X6631008Y32285246D01*
X6648072Y32458500D01*
X6648072Y33708500D01*
X6631008Y33881754D01*
X6580472Y34048350D01*
X6498405Y34201886D01*
X6387962Y34336462D01*
X6253386Y34446905D01*
X6099850Y34528972D01*
X5933254Y34579508D01*
X5760000Y34596572D01*
X4835000Y34596572D01*
X4661746Y34579508D01*
X4495150Y34528972D01*
X4341614Y34446905D01*
X4207038Y34336462D01*
X4096595Y34201886D01*
X4014528Y34048350D01*
X3963992Y33881754D01*
X3946928Y33708500D01*
X3946928Y32458500D01*
X3963992Y32285246D01*
X4014528Y32118650D01*
X4096595Y31965114D01*
X4207038Y31830538D01*
X4341614Y31720095D01*
X4495150Y31638028D01*
X4650897Y31590783D01*
X4407426Y31542353D01*
X4146273Y31434180D01*
X3911241Y31277137D01*
X3711363Y31077259D01*
X3554320Y30842227D01*
X3549933Y30831635D01*
X3438385Y31017631D01*
X3249414Y31226019D01*
X3023420Y31393537D01*
X2769087Y31513746D01*
X2635039Y31554404D01*
X2413000Y31432415D01*
X2413000Y30289500D01*
X2433000Y30289500D01*
X2433000Y30035500D01*
X2413000Y30035500D01*
X2413000Y28892585D01*
X2635039Y28770596D01*
X2769087Y28811254D01*
X3023420Y28931463D01*
X3249414Y29098981D01*
X3438385Y29307369D01*
X3549933Y29493365D01*
X3554320Y29482773D01*
X3711363Y29247741D01*
X3911241Y29047863D01*
X4146273Y28890820D01*
X4407426Y28782647D01*
X4684665Y28727500D01*
X4967335Y28727500D01*
X5149887Y28763812D01*
X7731001Y26182697D01*
X7731001Y23933009D01*
X7507335Y23977500D01*
X7224665Y23977500D01*
X6947426Y23922353D01*
X6686273Y23814180D01*
X6451241Y23657137D01*
X6251363Y23457259D01*
X6096000Y23224741D01*
X5940637Y23457259D01*
X5740759Y23657137D01*
X5505727Y23814180D01*
X5244574Y23922353D01*
X4967335Y23977500D01*
X4684665Y23977500D01*
X4407426Y23922353D01*
X4146273Y23814180D01*
X3911241Y23657137D01*
X3712643Y23458539D01*
X3711812Y23466982D01*
X3675502Y23586680D01*
X3616537Y23696994D01*
X3537185Y23793685D01*
X3440494Y23873037D01*
X3330180Y23932002D01*
X3210482Y23968312D01*
X3086000Y23980572D01*
X1486000Y23980572D01*
X1361518Y23968312D01*
X1241820Y23932002D01*
X1131506Y23873037D01*
X1034815Y23793685D01*
X955463Y23696994D01*
X896498Y23586680D01*
X860188Y23466982D01*
X847928Y23342500D01*
X685000Y23342500D01*
X685000Y29813460D01*
X894091Y29813460D01*
X988930Y29548619D01*
X1133615Y29307369D01*
X1322586Y29098981D01*
X1548580Y28931463D01*
X1802913Y28811254D01*
X1936961Y28770596D01*
X2159000Y28892585D01*
X2159000Y30035500D01*
X1015376Y30035500D01*
X894091Y29813460D01*
X685000Y29813460D01*
X685000Y30511540D01*
X894091Y30511540D01*
X1015376Y30289500D01*
X2159000Y30289500D01*
X2159000Y31432415D01*
X1936961Y31554404D01*
X1802913Y31513746D01*
X1548580Y31393537D01*
X1322586Y31226019D01*
X1133615Y31017631D01*
X988930Y30776381D01*
X894091Y30511540D01*
X685000Y30511540D01*
X685000Y32208500D01*
X971928Y32208500D01*
X984188Y32084018D01*
X1020498Y31964320D01*
X1079463Y31854006D01*
X1158815Y31757315D01*
X1255506Y31677963D01*
X1365820Y31618998D01*
X1485518Y31582688D01*
X1610000Y31570428D01*
X2036750Y31573500D01*
X2195500Y31732250D01*
X2195500Y32956500D01*
X2449500Y32956500D01*
X2449500Y31732250D01*
X2608250Y31573500D01*
X3035000Y31570428D01*
X3159482Y31582688D01*
X3279180Y31618998D01*
X3389494Y31677963D01*
X3486185Y31757315D01*
X3565537Y31854006D01*
X3624502Y31964320D01*
X3660812Y32084018D01*
X3673072Y32208500D01*
X3670000Y32797750D01*
X3511250Y32956500D01*
X2449500Y32956500D01*
X2195500Y32956500D01*
X1133750Y32956500D01*
X975000Y32797750D01*
X971928Y32208500D01*
X685000Y32208500D01*
X685000Y33958500D01*
X971928Y33958500D01*
X975000Y33369250D01*
X1133750Y33210500D01*
X2195500Y33210500D01*
X2195500Y34434750D01*
X2449500Y34434750D01*
X2449500Y33210500D01*
X3511250Y33210500D01*
X3670000Y33369250D01*
X3673072Y33958500D01*
X3660812Y34082982D01*
X3624502Y34202680D01*
X3565537Y34312994D01*
X3486185Y34409685D01*
X3389494Y34489037D01*
X3279180Y34548002D01*
X3159482Y34584312D01*
X3035000Y34596572D01*
X2608250Y34593500D01*
X2449500Y34434750D01*
X2195500Y34434750D01*
X2036750Y34593500D01*
X1610000Y34596572D01*
X1485518Y34584312D01*
X1365820Y34548002D01*
X1255506Y34489037D01*
X1158815Y34409685D01*
X1079463Y34312994D01*
X1020498Y34202680D01*
X984188Y34082982D01*
X971928Y33958500D01*
X685000Y33958500D01*
X685000Y49935500D01*
X43596928Y49935500D01*
X43600000Y49371250D01*
X43758750Y49212500D01*
X44958000Y49212500D01*
X44958000Y50411750D01*
X44799250Y50570500D01*
X44235000Y50573572D01*
X44110518Y50561312D01*
X43990820Y50525002D01*
X43880506Y50466037D01*
X43783815Y50386685D01*
X43704463Y50289994D01*
X43645498Y50179680D01*
X43609188Y50059982D01*
X43596928Y49935500D01*
X685000Y49935500D01*
X685000Y56261000D01*
X1058000Y56261000D01*
X1058000Y55981000D01*
X1108812Y55719093D01*
X1209744Y55472131D01*
X1356916Y55249605D01*
X1544673Y55060067D01*
X1765799Y54910801D01*
X2011797Y54807542D01*
X2076528Y54795441D01*
X2286000Y54918511D01*
X2286000Y56261000D01*
X2540000Y56261000D01*
X2540000Y54918511D01*
X2749472Y54795441D01*
X2814203Y54807542D01*
X3060201Y54910801D01*
X3281327Y55060067D01*
X3469084Y55249605D01*
X3616256Y55472131D01*
X3683000Y55635441D01*
X3749744Y55472131D01*
X3896916Y55249605D01*
X4084673Y55060067D01*
X4305799Y54910801D01*
X4551797Y54807542D01*
X4616528Y54795441D01*
X4826000Y54918511D01*
X4826000Y56261000D01*
X2540000Y56261000D01*
X2286000Y56261000D01*
X1058000Y56261000D01*
X685000Y56261000D01*
X685000Y56795000D01*
X1058000Y56795000D01*
X1058000Y56515000D01*
X2286000Y56515000D01*
X2286000Y57857489D01*
X2540000Y57857489D01*
X2540000Y56515000D01*
X4826000Y56515000D01*
X4826000Y57857489D01*
X4616528Y57980559D01*
X4551797Y57968458D01*
X4305799Y57865199D01*
X4084673Y57715933D01*
X3896916Y57526395D01*
X3749744Y57303869D01*
X3683000Y57140559D01*
X3616256Y57303869D01*
X3469084Y57526395D01*
X3281327Y57715933D01*
X3060201Y57865199D01*
X2814203Y57968458D01*
X2749472Y57980559D01*
X2540000Y57857489D01*
X2286000Y57857489D01*
X2076528Y57980559D01*
X2011797Y57968458D01*
X1765799Y57865199D01*
X1544673Y57715933D01*
X1356916Y57526395D01*
X1209744Y57303869D01*
X1108812Y57056907D01*
X1058000Y56795000D01*
X685000Y56795000D01*
X685000Y57945647D01*
X675711Y58039956D01*
X691653Y58202542D01*
X776031Y58482018D01*
X913085Y58739780D01*
X1097599Y58966015D01*
X1322540Y59152103D01*
X1579342Y59290956D01*
X1858219Y59377282D01*
X2030268Y59395365D01*
X2125353Y59386000D01*
G37*
X2125353Y59386000D02*
X78646647Y59386000D01*
X78740956Y59395289D01*
X78903542Y59379347D01*
X79183018Y59294969D01*
X79440780Y59157915D01*
X79667015Y58973401D01*
X79853103Y58748460D01*
X79991956Y58491658D01*
X80078282Y58212781D01*
X80096365Y58040731D01*
X80087000Y57945646D01*
X80087001Y685000D01*
X14218381Y685000D01*
X685000Y14218380D01*
X685000Y23342500D01*
X847928Y23342500D01*
X847928Y21742500D01*
X860188Y21618018D01*
X896498Y21498320D01*
X955463Y21388006D01*
X1034815Y21291315D01*
X1131506Y21211963D01*
X1241820Y21152998D01*
X1361518Y21116688D01*
X1486000Y21104428D01*
X2649271Y21104428D01*
X15247701Y8505997D01*
X15271499Y8476999D01*
X15387224Y8382026D01*
X15519253Y8311454D01*
X15662514Y8267997D01*
X15763974Y8258004D01*
X15811500Y8253323D01*
X15848833Y8257000D01*
X16408965Y8257000D01*
X16511611Y8188414D01*
X16681771Y8117932D01*
X16862411Y8082000D01*
X17046589Y8082000D01*
X17227229Y8117932D01*
X17397389Y8188414D01*
X17541767Y8284884D01*
X17591111Y8251914D01*
X17761271Y8181432D01*
X17772414Y8179215D01*
X17638408Y8045209D01*
X17418260Y8089000D01*
X17125740Y8089000D01*
X16838842Y8031932D01*
X16568589Y7919990D01*
X16325368Y7757475D01*
X16118525Y7550632D01*
X15956010Y7307411D01*
X15844068Y7037158D01*
X15787000Y6750260D01*
X15787000Y6457740D01*
X15844068Y6170842D01*
X15956010Y5900589D01*
X16118525Y5657368D01*
X16325368Y5450525D01*
X16499760Y5334000D01*
X16325368Y5217475D01*
X16118525Y5010632D01*
X15956010Y4767411D01*
X15844068Y4497158D01*
X15787000Y4210260D01*
X15787000Y3917740D01*
X15844068Y3630842D01*
X15956010Y3360589D01*
X16118525Y3117368D01*
X16325368Y2910525D01*
X16568589Y2748010D01*
X16838842Y2636068D01*
X17125740Y2579000D01*
X17418260Y2579000D01*
X17705158Y2636068D01*
X17975411Y2748010D01*
X18218632Y2910525D01*
X18425475Y3117368D01*
X18542000Y3291760D01*
X18658525Y3117368D01*
X18865368Y2910525D01*
X19108589Y2748010D01*
X19378842Y2636068D01*
X19665740Y2579000D01*
X19958260Y2579000D01*
X20245158Y2636068D01*
X20515411Y2748010D01*
X20758632Y2910525D01*
X20965475Y3117368D01*
X21082000Y3291760D01*
X21198525Y3117368D01*
X21405368Y2910525D01*
X21648589Y2748010D01*
X21918842Y2636068D01*
X22205740Y2579000D01*
X22498260Y2579000D01*
X22785158Y2636068D01*
X23055411Y2748010D01*
X23298632Y2910525D01*
X23505475Y3117368D01*
X23622000Y3291760D01*
X23738525Y3117368D01*
X23945368Y2910525D01*
X24188589Y2748010D01*
X24458842Y2636068D01*
X24745740Y2579000D01*
X25038260Y2579000D01*
X25325158Y2636068D01*
X25595411Y2748010D01*
X25838632Y2910525D01*
X26045475Y3117368D01*
X26162000Y3291760D01*
X26278525Y3117368D01*
X26485368Y2910525D01*
X26728589Y2748010D01*
X26998842Y2636068D01*
X27285740Y2579000D01*
X27578260Y2579000D01*
X27865158Y2636068D01*
X28135411Y2748010D01*
X28378632Y2910525D01*
X28585475Y3117368D01*
X28702000Y3291760D01*
X28818525Y3117368D01*
X29025368Y2910525D01*
X29268589Y2748010D01*
X29538842Y2636068D01*
X29825740Y2579000D01*
X30118260Y2579000D01*
X30405158Y2636068D01*
X30675411Y2748010D01*
X30918632Y2910525D01*
X31125475Y3117368D01*
X31242000Y3291760D01*
X31358525Y3117368D01*
X31565368Y2910525D01*
X31808589Y2748010D01*
X32078842Y2636068D01*
X32365740Y2579000D01*
X32658260Y2579000D01*
X32945158Y2636068D01*
X33215411Y2748010D01*
X33458632Y2910525D01*
X33665475Y3117368D01*
X33782000Y3291760D01*
X33898525Y3117368D01*
X34105368Y2910525D01*
X34348589Y2748010D01*
X34618842Y2636068D01*
X34905740Y2579000D01*
X35198260Y2579000D01*
X35485158Y2636068D01*
X35755411Y2748010D01*
X35998632Y2910525D01*
X36205475Y3117368D01*
X36322000Y3291760D01*
X36438525Y3117368D01*
X36645368Y2910525D01*
X36888589Y2748010D01*
X37158842Y2636068D01*
X37445740Y2579000D01*
X37738260Y2579000D01*
X38025158Y2636068D01*
X38295411Y2748010D01*
X38538632Y2910525D01*
X38745475Y3117368D01*
X38862000Y3291760D01*
X38978525Y3117368D01*
X39185368Y2910525D01*
X39428589Y2748010D01*
X39698842Y2636068D01*
X39985740Y2579000D01*
X40278260Y2579000D01*
X40565158Y2636068D01*
X40835411Y2748010D01*
X41078632Y2910525D01*
X41285475Y3117368D01*
X41402000Y3291760D01*
X41518525Y3117368D01*
X41725368Y2910525D01*
X41968589Y2748010D01*
X42238842Y2636068D01*
X42525740Y2579000D01*
X42818260Y2579000D01*
X43105158Y2636068D01*
X43375411Y2748010D01*
X43618632Y2910525D01*
X43825475Y3117368D01*
X43942000Y3291760D01*
X44058525Y3117368D01*
X44265368Y2910525D01*
X44508589Y2748010D01*
X44778842Y2636068D01*
X45065740Y2579000D01*
X45358260Y2579000D01*
X45645158Y2636068D01*
X45915411Y2748010D01*
X46158632Y2910525D01*
X46365475Y3117368D01*
X46482000Y3291760D01*
X46598525Y3117368D01*
X46805368Y2910525D01*
X47048589Y2748010D01*
X47318842Y2636068D01*
X47605740Y2579000D01*
X47898260Y2579000D01*
X48185158Y2636068D01*
X48455411Y2748010D01*
X48698632Y2910525D01*
X48905475Y3117368D01*
X49027195Y3299534D01*
X49096822Y3182645D01*
X49291731Y2966412D01*
X49525080Y2792359D01*
X49787901Y2667175D01*
X49935110Y2622524D01*
X50165000Y2743845D01*
X50165000Y3937000D01*
X50145000Y3937000D01*
X50145000Y4191000D01*
X50165000Y4191000D01*
X50165000Y4211000D01*
X50419000Y4211000D01*
X50419000Y4191000D01*
X50439000Y4191000D01*
X50439000Y3937000D01*
X50419000Y3937000D01*
X50419000Y2743845D01*
X50648890Y2622524D01*
X50796099Y2667175D01*
X51058920Y2792359D01*
X51292269Y2966412D01*
X51487178Y3182645D01*
X51556805Y3299534D01*
X51678525Y3117368D01*
X51885368Y2910525D01*
X52128589Y2748010D01*
X52398842Y2636068D01*
X52685740Y2579000D01*
X52978260Y2579000D01*
X53265158Y2636068D01*
X53535411Y2748010D01*
X53778632Y2910525D01*
X53985475Y3117368D01*
X54102000Y3291760D01*
X54218525Y3117368D01*
X54425368Y2910525D01*
X54668589Y2748010D01*
X54938842Y2636068D01*
X55225740Y2579000D01*
X55518260Y2579000D01*
X55805158Y2636068D01*
X56075411Y2748010D01*
X56318632Y2910525D01*
X56525475Y3117368D01*
X56642000Y3291760D01*
X56758525Y3117368D01*
X56965368Y2910525D01*
X57208589Y2748010D01*
X57478842Y2636068D01*
X57765740Y2579000D01*
X58058260Y2579000D01*
X58345158Y2636068D01*
X58615411Y2748010D01*
X58858632Y2910525D01*
X59065475Y3117368D01*
X59182000Y3291760D01*
X59298525Y3117368D01*
X59505368Y2910525D01*
X59748589Y2748010D01*
X60018842Y2636068D01*
X60305740Y2579000D01*
X60598260Y2579000D01*
X60885158Y2636068D01*
X61155411Y2748010D01*
X61398632Y2910525D01*
X61605475Y3117368D01*
X61722000Y3291760D01*
X61838525Y3117368D01*
X62045368Y2910525D01*
X62288589Y2748010D01*
X62558842Y2636068D01*
X62845740Y2579000D01*
X63138260Y2579000D01*
X63425158Y2636068D01*
X63695411Y2748010D01*
X63938632Y2910525D01*
X64145475Y3117368D01*
X64262000Y3291760D01*
X64378525Y3117368D01*
X64585368Y2910525D01*
X64828589Y2748010D01*
X65098842Y2636068D01*
X65385740Y2579000D01*
X65678260Y2579000D01*
X65965158Y2636068D01*
X66235411Y2748010D01*
X66478632Y2910525D01*
X66685475Y3117368D01*
X66802000Y3291760D01*
X66918525Y3117368D01*
X67125368Y2910525D01*
X67368589Y2748010D01*
X67638842Y2636068D01*
X67925740Y2579000D01*
X68218260Y2579000D01*
X68505158Y2636068D01*
X68775411Y2748010D01*
X69018632Y2910525D01*
X69225475Y3117368D01*
X69342000Y3291760D01*
X69458525Y3117368D01*
X69665368Y2910525D01*
X69908589Y2748010D01*
X70178842Y2636068D01*
X70465740Y2579000D01*
X70758260Y2579000D01*
X71045158Y2636068D01*
X71315411Y2748010D01*
X71558632Y2910525D01*
X71765475Y3117368D01*
X71882000Y3291760D01*
X71998525Y3117368D01*
X72205368Y2910525D01*
X72448589Y2748010D01*
X72718842Y2636068D01*
X73005740Y2579000D01*
X73298260Y2579000D01*
X73585158Y2636068D01*
X73855411Y2748010D01*
X74098632Y2910525D01*
X74305475Y3117368D01*
X74422000Y3291760D01*
X74538525Y3117368D01*
X74745368Y2910525D01*
X74988589Y2748010D01*
X75258842Y2636068D01*
X75545740Y2579000D01*
X75838260Y2579000D01*
X76125158Y2636068D01*
X76395411Y2748010D01*
X76638632Y2910525D01*
X76845475Y3117368D01*
X76962000Y3291760D01*
X77078525Y3117368D01*
X77285368Y2910525D01*
X77528589Y2748010D01*
X77798842Y2636068D01*
X78085740Y2579000D01*
X78378260Y2579000D01*
X78665158Y2636068D01*
X78935411Y2748010D01*
X79178632Y2910525D01*
X79385475Y3117368D01*
X79547990Y3360589D01*
X79659932Y3630842D01*
X79717000Y3917740D01*
X79717000Y4210260D01*
X79659932Y4497158D01*
X79547990Y4767411D01*
X79385475Y5010632D01*
X79253620Y5142487D01*
X79326180Y5164498D01*
X79436494Y5223463D01*
X79533185Y5302815D01*
X79612537Y5399506D01*
X79671502Y5509820D01*
X79707812Y5629518D01*
X79720072Y5754000D01*
X79720072Y7454000D01*
X79707812Y7578482D01*
X79671502Y7698180D01*
X79612537Y7808494D01*
X79533185Y7905185D01*
X79436494Y7984537D01*
X79326180Y8043502D01*
X79206482Y8079812D01*
X79082000Y8092072D01*
X77818730Y8092072D01*
X72397874Y13512927D01*
X72479426Y13479147D01*
X72756665Y13424000D01*
X73039335Y13424000D01*
X73316574Y13479147D01*
X73577727Y13587320D01*
X73812759Y13744363D01*
X74012637Y13944241D01*
X74168000Y14176759D01*
X74323363Y13944241D01*
X74523241Y13744363D01*
X74758273Y13587320D01*
X75019426Y13479147D01*
X75296665Y13424000D01*
X75579335Y13424000D01*
X75856574Y13479147D01*
X76117727Y13587320D01*
X76352759Y13744363D01*
X76552637Y13944241D01*
X76708000Y14176759D01*
X76863363Y13944241D01*
X77063241Y13744363D01*
X77298273Y13587320D01*
X77559426Y13479147D01*
X77836665Y13424000D01*
X78119335Y13424000D01*
X78396574Y13479147D01*
X78657727Y13587320D01*
X78892759Y13744363D01*
X79092637Y13944241D01*
X79249680Y14179273D01*
X79357853Y14440426D01*
X79413000Y14717665D01*
X79413000Y15000335D01*
X79357853Y15277574D01*
X79249680Y15538727D01*
X79092637Y15773759D01*
X78892759Y15973637D01*
X78657727Y16130680D01*
X78396574Y16238853D01*
X78119335Y16294000D01*
X77836665Y16294000D01*
X77559426Y16238853D01*
X77298273Y16130680D01*
X77063241Y15973637D01*
X76863363Y15773759D01*
X76708000Y15541241D01*
X76552637Y15773759D01*
X76352759Y15973637D01*
X76117727Y16130680D01*
X75856574Y16238853D01*
X75579335Y16294000D01*
X75296665Y16294000D01*
X75019426Y16238853D01*
X74758273Y16130680D01*
X74523241Y15973637D01*
X74323363Y15773759D01*
X74168000Y15541241D01*
X74012637Y15773759D01*
X73812759Y15973637D01*
X73577727Y16130680D01*
X73316574Y16238853D01*
X73039335Y16294000D01*
X72756665Y16294000D01*
X72479426Y16238853D01*
X72218273Y16130680D01*
X71983241Y15973637D01*
X71976203Y15966599D01*
X70921804Y17020998D01*
X70898001Y17050001D01*
X70782276Y17144974D01*
X70650247Y17215546D01*
X70506986Y17259003D01*
X70395333Y17270000D01*
X70395322Y17270000D01*
X70358000Y17273676D01*
X70320678Y17270000D01*
X66862802Y17270000D01*
X58418000Y25714801D01*
X58418000Y28880957D01*
X58572759Y28984363D01*
X58772637Y29184241D01*
X58929680Y29419273D01*
X58934067Y29429865D01*
X59045615Y29243869D01*
X59234586Y29035481D01*
X59460580Y28867963D01*
X59714913Y28747754D01*
X59848961Y28707096D01*
X60071000Y28829085D01*
X60071000Y29972000D01*
X60051000Y29972000D01*
X60051000Y30226000D01*
X60071000Y30226000D01*
X60071000Y30246000D01*
X60325000Y30246000D01*
X60325000Y30226000D01*
X60345000Y30226000D01*
X60345000Y29972000D01*
X60325000Y29972000D01*
X60325000Y28829085D01*
X60547039Y28707096D01*
X60681087Y28747754D01*
X60935420Y28867963D01*
X61161414Y29035481D01*
X61350385Y29243869D01*
X61461933Y29429865D01*
X61466320Y29419273D01*
X61623363Y29184241D01*
X61823241Y28984363D01*
X62058273Y28827320D01*
X62319426Y28719147D01*
X62596665Y28664000D01*
X62879335Y28664000D01*
X63156574Y28719147D01*
X63417727Y28827320D01*
X63652759Y28984363D01*
X63852637Y29184241D01*
X64008000Y29416759D01*
X64163363Y29184241D01*
X64363241Y28984363D01*
X64598273Y28827320D01*
X64859426Y28719147D01*
X65101768Y28670941D01*
X65091435Y28645994D01*
X65055503Y28465354D01*
X65055503Y28281176D01*
X65091435Y28100536D01*
X65161917Y27930376D01*
X65264241Y27777237D01*
X65394475Y27647003D01*
X65547614Y27544679D01*
X65717774Y27474197D01*
X65898414Y27438265D01*
X66082592Y27438265D01*
X66263232Y27474197D01*
X66433392Y27544679D01*
X66586531Y27647003D01*
X66716765Y27777237D01*
X66819089Y27930376D01*
X66889571Y28100536D01*
X66913656Y28221617D01*
X66913998Y28221959D01*
X66943002Y28245762D01*
X67037975Y28361487D01*
X67108547Y28493516D01*
X67152004Y28636777D01*
X67163001Y28748430D01*
X67163001Y28748439D01*
X67166677Y28785762D01*
X67163618Y28816822D01*
X67399426Y28719147D01*
X67676665Y28664000D01*
X67959335Y28664000D01*
X67964944Y28665116D01*
X67964944Y28553957D01*
X68000876Y28373317D01*
X68071358Y28203157D01*
X68173682Y28050018D01*
X68303916Y27919784D01*
X68457055Y27817460D01*
X68627215Y27746978D01*
X68807855Y27711046D01*
X68992033Y27711046D01*
X69172673Y27746978D01*
X69342833Y27817460D01*
X69495972Y27919784D01*
X69626206Y28050018D01*
X69728530Y28203157D01*
X69799012Y28373317D01*
X69826502Y28511515D01*
X69834917Y28521769D01*
X69905489Y28653798D01*
X69926887Y28724341D01*
X69939426Y28719147D01*
X70216665Y28664000D01*
X70499335Y28664000D01*
X70776574Y28719147D01*
X71037727Y28827320D01*
X71272759Y28984363D01*
X71472637Y29184241D01*
X71628000Y29416759D01*
X71783363Y29184241D01*
X71983241Y28984363D01*
X72218273Y28827320D01*
X72479426Y28719147D01*
X72756665Y28664000D01*
X73039335Y28664000D01*
X73316574Y28719147D01*
X73577727Y28827320D01*
X73812759Y28984363D01*
X74012637Y29184241D01*
X74168000Y29416759D01*
X74323363Y29184241D01*
X74523241Y28984363D01*
X74758273Y28827320D01*
X75019426Y28719147D01*
X75296665Y28664000D01*
X75579335Y28664000D01*
X75856574Y28719147D01*
X76117727Y28827320D01*
X76352759Y28984363D01*
X76551357Y29182961D01*
X76552188Y29174518D01*
X76588498Y29054820D01*
X76647463Y28944506D01*
X76726815Y28847815D01*
X76823506Y28768463D01*
X76933820Y28709498D01*
X77053518Y28673188D01*
X77178000Y28660928D01*
X78778000Y28660928D01*
X78902482Y28673188D01*
X79022180Y28709498D01*
X79132494Y28768463D01*
X79229185Y28847815D01*
X79308537Y28944506D01*
X79367502Y29054820D01*
X79403812Y29174518D01*
X79416072Y29299000D01*
X79416072Y30899000D01*
X79403812Y31023482D01*
X79367502Y31143180D01*
X79308537Y31253494D01*
X79229185Y31350185D01*
X79132494Y31429537D01*
X79022180Y31488502D01*
X78902482Y31524812D01*
X78778000Y31537072D01*
X77178000Y31537072D01*
X77053518Y31524812D01*
X76933820Y31488502D01*
X76823506Y31429537D01*
X76726815Y31350185D01*
X76647463Y31253494D01*
X76588498Y31143180D01*
X76552188Y31023482D01*
X76551357Y31015039D01*
X76352759Y31213637D01*
X76117727Y31370680D01*
X75904715Y31458912D01*
X77164205Y32718401D01*
X77164242Y32718364D01*
X77399274Y32561321D01*
X77660427Y32453148D01*
X77937666Y32398001D01*
X78220336Y32398001D01*
X78497575Y32453148D01*
X78758728Y32561321D01*
X78993760Y32718364D01*
X79193638Y32918242D01*
X79350681Y33153274D01*
X79458854Y33414427D01*
X79514001Y33691666D01*
X79514001Y33974336D01*
X79458854Y34251575D01*
X79350681Y34512728D01*
X79193638Y34747760D01*
X78993760Y34947638D01*
X78758728Y35104681D01*
X78497575Y35212854D01*
X78220336Y35268001D01*
X77937666Y35268001D01*
X77714000Y35223510D01*
X77714000Y40013199D01*
X77755114Y40054313D01*
X77937666Y40018001D01*
X78220336Y40018001D01*
X78497575Y40073148D01*
X78758728Y40181321D01*
X78993760Y40338364D01*
X79193638Y40538242D01*
X79350681Y40773274D01*
X79458854Y41034427D01*
X79514001Y41311666D01*
X79514001Y41594336D01*
X79458854Y41871575D01*
X79350681Y42132728D01*
X79193638Y42367760D01*
X78993760Y42567638D01*
X78865000Y42653672D01*
X78865000Y47807322D01*
X79051632Y47932025D01*
X79258475Y48138868D01*
X79420990Y48382089D01*
X79532932Y48652342D01*
X79590000Y48939240D01*
X79590000Y49231760D01*
X79532932Y49518658D01*
X79420990Y49788911D01*
X79258475Y50032132D01*
X79051632Y50238975D01*
X78808411Y50401490D01*
X78538158Y50513432D01*
X78251260Y50570500D01*
X77958740Y50570500D01*
X77738592Y50526710D01*
X71366304Y56898997D01*
X71342501Y56928001D01*
X71226776Y57022974D01*
X71094747Y57093546D01*
X70951486Y57137003D01*
X70839833Y57148000D01*
X70839822Y57148000D01*
X70802500Y57151676D01*
X70765178Y57148000D01*
X36703365Y57148000D01*
X36690914Y57189045D01*
X36565092Y57424440D01*
X36395764Y57630765D01*
X36189439Y57800092D01*
X35954044Y57925914D01*
X35698625Y58003394D01*
X35433000Y58029556D01*
X35167374Y58003394D01*
X34911955Y57925914D01*
X34676560Y57800092D01*
X34470235Y57630764D01*
X34300908Y57424439D01*
X34175086Y57189044D01*
X34163000Y57149202D01*
X34150914Y57189045D01*
X34025092Y57424440D01*
X33855764Y57630765D01*
X33649439Y57800092D01*
X33414044Y57925914D01*
X33158625Y58003394D01*
X32893000Y58029556D01*
X32627374Y58003394D01*
X32371955Y57925914D01*
X32136560Y57800092D01*
X31930235Y57630764D01*
X31760908Y57424439D01*
X31635086Y57189044D01*
X31623000Y57149202D01*
X31610914Y57189045D01*
X31485092Y57424440D01*
X31315764Y57630765D01*
X31109439Y57800092D01*
X30874044Y57925914D01*
X30618625Y58003394D01*
X30353000Y58029556D01*
X30087374Y58003394D01*
X29831955Y57925914D01*
X29596560Y57800092D01*
X29390235Y57630764D01*
X29220908Y57424439D01*
X29095086Y57189044D01*
X29083000Y57149202D01*
X29070914Y57189045D01*
X28945092Y57424440D01*
X28775764Y57630765D01*
X28569439Y57800092D01*
X28334044Y57925914D01*
X28078625Y58003394D01*
X27813000Y58029556D01*
X27547374Y58003394D01*
X27291955Y57925914D01*
X27056560Y57800092D01*
X26850235Y57630764D01*
X26680908Y57424439D01*
X26555086Y57189044D01*
X26543000Y57149202D01*
X26530914Y57189045D01*
X26405092Y57424440D01*
X26235764Y57630765D01*
X26029439Y57800092D01*
X25794044Y57925914D01*
X25538625Y58003394D01*
X25273000Y58029556D01*
X25007374Y58003394D01*
X24751955Y57925914D01*
X24516560Y57800092D01*
X24310235Y57630764D01*
X24140908Y57424439D01*
X24015086Y57189044D01*
X24003000Y57149202D01*
X23990914Y57189045D01*
X23865092Y57424440D01*
X23695764Y57630765D01*
X23489439Y57800092D01*
X23254044Y57925914D01*
X22998625Y58003394D01*
X22733000Y58029556D01*
X22467374Y58003394D01*
X22211955Y57925914D01*
X21976560Y57800092D01*
X21770235Y57630764D01*
X21600908Y57424439D01*
X21475086Y57189044D01*
X21463000Y57149202D01*
X21450914Y57189045D01*
X21325092Y57424440D01*
X21155764Y57630765D01*
X20949439Y57800092D01*
X20714044Y57925914D01*
X20458625Y58003394D01*
X20193000Y58029556D01*
X19927374Y58003394D01*
X19671955Y57925914D01*
X19436560Y57800092D01*
X19230235Y57630764D01*
X19060908Y57424439D01*
X18935086Y57189044D01*
X18923000Y57149202D01*
X18910914Y57189045D01*
X18785092Y57424440D01*
X18615764Y57630765D01*
X18409439Y57800092D01*
X18174044Y57925914D01*
X17918625Y58003394D01*
X17653000Y58029556D01*
X17387374Y58003394D01*
X17131955Y57925914D01*
X16896560Y57800092D01*
X16690235Y57630764D01*
X16520908Y57424439D01*
X16395086Y57189044D01*
X16383000Y57149202D01*
X16370914Y57189045D01*
X16245092Y57424440D01*
X16075764Y57630765D01*
X15869439Y57800092D01*
X15634044Y57925914D01*
X15378625Y58003394D01*
X15113000Y58029556D01*
X14847374Y58003394D01*
X14591955Y57925914D01*
X14356560Y57800092D01*
X14150235Y57630764D01*
X13980908Y57424439D01*
X13855086Y57189044D01*
X13843000Y57149202D01*
X13830914Y57189045D01*
X13705092Y57424440D01*
X13535764Y57630765D01*
X13329439Y57800092D01*
X13094044Y57925914D01*
X12838625Y58003394D01*
X12573000Y58029556D01*
X12307374Y58003394D01*
X12051955Y57925914D01*
X11816560Y57800092D01*
X11610235Y57630764D01*
X11440908Y57424439D01*
X11315086Y57189044D01*
X11303000Y57149202D01*
X11290914Y57189045D01*
X11165092Y57424440D01*
X10995764Y57630765D01*
X10789439Y57800092D01*
X10554044Y57925914D01*
X10298625Y58003394D01*
X10033000Y58029556D01*
X9767374Y58003394D01*
X9511955Y57925914D01*
X9276560Y57800092D01*
X9070235Y57630764D01*
X8900908Y57424439D01*
X8775086Y57189044D01*
X8763000Y57149202D01*
X8750914Y57189045D01*
X8625092Y57424440D01*
X8455764Y57630765D01*
X8249439Y57800092D01*
X8014044Y57925914D01*
X7758625Y58003394D01*
X7493000Y58029556D01*
X7227374Y58003394D01*
X6971955Y57925914D01*
X6736560Y57800092D01*
X6530235Y57630764D01*
X6360908Y57424439D01*
X6235086Y57189044D01*
X6221495Y57144241D01*
X6156256Y57303869D01*
X6009084Y57526395D01*
X5821327Y57715933D01*
X5600201Y57865199D01*
X5354203Y57968458D01*
X5289472Y57980559D01*
X5080000Y57857489D01*
X5080000Y56515000D01*
X5100000Y56515000D01*
X5100000Y56261000D01*
X5080000Y56261000D01*
X5080000Y54918511D01*
X5289472Y54795441D01*
X5354203Y54807542D01*
X5600201Y54910801D01*
X5821327Y55060067D01*
X6009084Y55249605D01*
X6156256Y55472131D01*
X6221495Y55631759D01*
X6235086Y55586955D01*
X6360908Y55351560D01*
X6530236Y55145235D01*
X6736561Y54975908D01*
X6971956Y54850086D01*
X7227375Y54772606D01*
X7493000Y54746444D01*
X7758626Y54772606D01*
X7969596Y54836603D01*
X10548700Y52257498D01*
X10572499Y52228499D01*
X10601497Y52204701D01*
X10688223Y52133526D01*
X10789322Y52079487D01*
X10820253Y52062954D01*
X10963514Y52019497D01*
X11075167Y52008500D01*
X11075177Y52008500D01*
X11112500Y52004824D01*
X11149822Y52008500D01*
X27244199Y52008500D01*
X28328700Y50923998D01*
X28352499Y50894999D01*
X28468224Y50800026D01*
X28600253Y50729454D01*
X28743514Y50685997D01*
X28855167Y50675000D01*
X28855175Y50675000D01*
X28892500Y50671324D01*
X28929825Y50675000D01*
X47500699Y50675000D01*
X47605199Y50570500D01*
X47478740Y50570500D01*
X47191842Y50513432D01*
X46921589Y50401490D01*
X46678368Y50238975D01*
X46546513Y50107120D01*
X46524502Y50179680D01*
X46465537Y50289994D01*
X46386185Y50386685D01*
X46289494Y50466037D01*
X46179180Y50525002D01*
X46059482Y50561312D01*
X45935000Y50573572D01*
X45370750Y50570500D01*
X45212000Y50411750D01*
X45212000Y49212500D01*
X45232000Y49212500D01*
X45232000Y48958500D01*
X45212000Y48958500D01*
X45212000Y47759250D01*
X45370750Y47600500D01*
X45935000Y47597428D01*
X46039003Y47607671D01*
X46039003Y45672386D01*
X45958482Y45696812D01*
X45834000Y45709072D01*
X45407250Y45706000D01*
X45248500Y45547250D01*
X45248500Y44323000D01*
X45268500Y44323000D01*
X45268500Y44069000D01*
X45248500Y44069000D01*
X45248500Y42844750D01*
X45304971Y42788279D01*
X45186001Y42722916D01*
X45186001Y41580001D01*
X45206001Y41580001D01*
X45206001Y41326001D01*
X45186001Y41326001D01*
X45186001Y41306001D01*
X44932001Y41306001D01*
X44932001Y41326001D01*
X44912001Y41326001D01*
X44912001Y41580001D01*
X44932001Y41580001D01*
X44932001Y42722916D01*
X44893706Y42743956D01*
X44994500Y42844750D01*
X44994500Y44069000D01*
X43932750Y44069000D01*
X43774000Y43910250D01*
X43770928Y43321000D01*
X43783188Y43196518D01*
X43819498Y43076820D01*
X43878463Y42966506D01*
X43957815Y42869815D01*
X44054506Y42790463D01*
X44164820Y42731498D01*
X44284518Y42695188D01*
X44334712Y42690244D01*
X44321581Y42684038D01*
X44095587Y42516520D01*
X43906616Y42308132D01*
X43796792Y42125010D01*
X42777902Y43143899D01*
X42763536Y43170776D01*
X42735474Y43223276D01*
X42677430Y43294002D01*
X42640501Y43339001D01*
X42611497Y43362804D01*
X42537304Y43436997D01*
X42513501Y43466001D01*
X42397776Y43560974D01*
X42265747Y43631546D01*
X42122486Y43675003D01*
X42010833Y43686000D01*
X42010822Y43686000D01*
X41973500Y43689676D01*
X41936178Y43686000D01*
X19582417Y43686000D01*
X19522262Y43776028D01*
X19392028Y43906262D01*
X19238889Y44008586D01*
X19068729Y44079068D01*
X18911232Y44110396D01*
X19815003Y45014167D01*
X19844001Y45037965D01*
X19871112Y45071000D01*
X43770928Y45071000D01*
X43774000Y44481750D01*
X43932750Y44323000D01*
X44994500Y44323000D01*
X44994500Y45547250D01*
X44835750Y45706000D01*
X44409000Y45709072D01*
X44284518Y45696812D01*
X44164820Y45660502D01*
X44054506Y45601537D01*
X43957815Y45522185D01*
X43878463Y45425494D01*
X43819498Y45315180D01*
X43783188Y45195482D01*
X43770928Y45071000D01*
X19871112Y45071000D01*
X19938974Y45153690D01*
X20009546Y45285719D01*
X20053003Y45428980D01*
X20064000Y45540633D01*
X20064000Y45540642D01*
X20067676Y45577965D01*
X20064000Y45615288D01*
X20064000Y47587465D01*
X20132586Y47690111D01*
X20203068Y47860271D01*
X20239000Y48040911D01*
X20239000Y48225089D01*
X20236930Y48235500D01*
X43596928Y48235500D01*
X43609188Y48111018D01*
X43645498Y47991320D01*
X43704463Y47881006D01*
X43783815Y47784315D01*
X43880506Y47704963D01*
X43990820Y47645998D01*
X44110518Y47609688D01*
X44235000Y47597428D01*
X44799250Y47600500D01*
X44958000Y47759250D01*
X44958000Y48958500D01*
X43758750Y48958500D01*
X43600000Y48799750D01*
X43596928Y48235500D01*
X20236930Y48235500D01*
X20203068Y48405729D01*
X20132586Y48575889D01*
X20030262Y48729028D01*
X19900028Y48859262D01*
X19746889Y48961586D01*
X19576729Y49032068D01*
X19396089Y49068000D01*
X19211911Y49068000D01*
X19031271Y49032068D01*
X18861111Y48961586D01*
X18707972Y48859262D01*
X18577738Y48729028D01*
X18475414Y48575889D01*
X18404932Y48405729D01*
X18369000Y48225089D01*
X18369000Y48040911D01*
X18404932Y47860271D01*
X18475414Y47690111D01*
X18544000Y47587464D01*
X18544001Y45892769D01*
X16672406Y44021173D01*
X16551325Y43997088D01*
X16381165Y43926606D01*
X16228026Y43824282D01*
X16097792Y43694048D01*
X15995468Y43540909D01*
X15924986Y43370749D01*
X15897588Y43233010D01*
X15112280Y43233010D01*
X15074028Y43271262D01*
X14920889Y43373586D01*
X14750729Y43444068D01*
X14570089Y43480000D01*
X14385911Y43480000D01*
X14205271Y43444068D01*
X14035111Y43373586D01*
X13881972Y43271262D01*
X13751738Y43141028D01*
X13649414Y42987889D01*
X13578932Y42817729D01*
X13543000Y42637089D01*
X13543000Y42452911D01*
X13561631Y42359246D01*
X13535764Y42390765D01*
X13329439Y42560092D01*
X13094044Y42685914D01*
X12838625Y42763394D01*
X12573000Y42789556D01*
X12307374Y42763394D01*
X12051955Y42685914D01*
X11816560Y42560092D01*
X11610235Y42390764D01*
X11440908Y42184439D01*
X11315086Y41949044D01*
X11303000Y41909202D01*
X11290914Y41949045D01*
X11165092Y42184440D01*
X10995764Y42390765D01*
X10789439Y42560092D01*
X10554044Y42685914D01*
X10298625Y42763394D01*
X10033000Y42789556D01*
X9767374Y42763394D01*
X9511955Y42685914D01*
X9276560Y42560092D01*
X9070235Y42390764D01*
X8900908Y42184439D01*
X8775086Y41949044D01*
X8763000Y41909202D01*
X8750914Y41949045D01*
X8625092Y42184440D01*
X8455764Y42390765D01*
X8249439Y42560092D01*
X8014044Y42685914D01*
X7758625Y42763394D01*
X7493000Y42789556D01*
X7227374Y42763394D01*
X6971955Y42685914D01*
X6736560Y42560092D01*
X6530235Y42390764D01*
X6360908Y42184439D01*
X6235086Y41949044D01*
X6223000Y41909202D01*
X6210914Y41949045D01*
X6085092Y42184440D01*
X5915764Y42390765D01*
X5709439Y42560092D01*
X5474044Y42685914D01*
X5218625Y42763394D01*
X4953000Y42789556D01*
X4687374Y42763394D01*
X4431955Y42685914D01*
X4196560Y42560092D01*
X3990235Y42390764D01*
X3820908Y42184439D01*
X3771072Y42091203D01*
X3771072Y42148000D01*
X3758812Y42272482D01*
X3722502Y42392180D01*
X3663537Y42502494D01*
X3584185Y42599185D01*
X3487494Y42678537D01*
X3377180Y42737502D01*
X3257482Y42773812D01*
X3133000Y42786072D01*
X1693000Y42786072D01*
X1568518Y42773812D01*
X1448820Y42737502D01*
X1338506Y42678537D01*
X1241815Y42599185D01*
X1162463Y42502494D01*
X1103498Y42392180D01*
X1067188Y42272482D01*
X1054928Y42148000D01*
X1054928Y40148000D01*
X1067188Y40023518D01*
X1103498Y39903820D01*
X1162463Y39793506D01*
X1241815Y39696815D01*
X1338506Y39617463D01*
X1448820Y39558498D01*
X1568518Y39522188D01*
X1693000Y39509928D01*
X2976271Y39509928D01*
X5151200Y37334998D01*
X5174999Y37305999D01*
X5290724Y37211026D01*
X5422753Y37140454D01*
X5566014Y37096997D01*
X5677667Y37086000D01*
X5677676Y37086000D01*
X5714999Y37082324D01*
X5752322Y37086000D01*
X15596201Y37086000D01*
X17633203Y35048997D01*
X17657001Y35019999D01*
X17772726Y34925026D01*
X17904755Y34854454D01*
X18048016Y34810997D01*
X18159669Y34800000D01*
X18159678Y34800000D01*
X18197001Y34796324D01*
X18234324Y34800000D01*
X34233197Y34800000D01*
X32614351Y33181153D01*
X32493271Y33157068D01*
X32323111Y33086586D01*
X32169972Y32984262D01*
X32039738Y32854028D01*
X31937414Y32700889D01*
X31866932Y32530729D01*
X31831000Y32350089D01*
X31831000Y32165911D01*
X31836559Y32137966D01*
X30997982Y32137966D01*
X30932940Y32203008D01*
X30909137Y32232012D01*
X30793412Y32326985D01*
X30661383Y32397557D01*
X30518122Y32441014D01*
X30406469Y32452011D01*
X30406458Y32452011D01*
X30369136Y32455687D01*
X30331814Y32452011D01*
X29060925Y32452011D01*
X29023600Y32455687D01*
X28986275Y32452011D01*
X28986267Y32452011D01*
X28874614Y32441014D01*
X28731353Y32397557D01*
X28599324Y32326985D01*
X28483599Y32232012D01*
X28459801Y32203014D01*
X27244014Y30987226D01*
X27215010Y30963423D01*
X27172400Y30911502D01*
X27120037Y30847698D01*
X27053380Y30722993D01*
X27049465Y30715668D01*
X27006008Y30572407D01*
X26995011Y30460754D01*
X26995011Y30460744D01*
X26991335Y30423422D01*
X26995011Y30386099D01*
X26995012Y28642823D01*
X26991335Y28605491D01*
X26995012Y28568158D01*
X27006009Y28456505D01*
X27012519Y28435043D01*
X27049465Y28313245D01*
X27120037Y28181215D01*
X27191212Y28094489D01*
X27215011Y28065490D01*
X27241820Y28043489D01*
X27164914Y27928391D01*
X27094432Y27758231D01*
X27058500Y27577591D01*
X27058500Y27393413D01*
X27094432Y27212773D01*
X27145879Y27088569D01*
X27121404Y27051940D01*
X27050922Y26881780D01*
X27026837Y26760700D01*
X26176499Y25910361D01*
X26147501Y25886563D01*
X26123703Y25857565D01*
X26123702Y25857564D01*
X26052527Y25770838D01*
X25981955Y25638808D01*
X25961876Y25572614D01*
X25938499Y25495548D01*
X25930033Y25409596D01*
X25923825Y25346562D01*
X25927502Y25309230D01*
X25927502Y23746176D01*
X25825727Y23814180D01*
X25564574Y23922353D01*
X25287335Y23977500D01*
X25004665Y23977500D01*
X24727426Y23922353D01*
X24466273Y23814180D01*
X24231241Y23657137D01*
X24031363Y23457259D01*
X23876000Y23224741D01*
X23720637Y23457259D01*
X23520759Y23657137D01*
X23285727Y23814180D01*
X23024574Y23922353D01*
X22747335Y23977500D01*
X22464665Y23977500D01*
X22187426Y23922353D01*
X21926273Y23814180D01*
X21691241Y23657137D01*
X21491363Y23457259D01*
X21336000Y23224741D01*
X21180637Y23457259D01*
X20980759Y23657137D01*
X20745727Y23814180D01*
X20484574Y23922353D01*
X20207335Y23977500D01*
X19924665Y23977500D01*
X19647426Y23922353D01*
X19386273Y23814180D01*
X19151241Y23657137D01*
X18951363Y23457259D01*
X18796000Y23224741D01*
X18640637Y23457259D01*
X18440759Y23657137D01*
X18205727Y23814180D01*
X17944574Y23922353D01*
X17667335Y23977500D01*
X17384665Y23977500D01*
X17107426Y23922353D01*
X16846273Y23814180D01*
X16611241Y23657137D01*
X16411363Y23457259D01*
X16256000Y23224741D01*
X16100637Y23457259D01*
X15900759Y23657137D01*
X15665727Y23814180D01*
X15404574Y23922353D01*
X15127335Y23977500D01*
X14844665Y23977500D01*
X14620999Y23933009D01*
X14620999Y26170179D01*
X14624675Y26207502D01*
X14620999Y26244825D01*
X14620999Y26244834D01*
X14610002Y26356487D01*
X14566545Y26499748D01*
X14495973Y26631777D01*
X14401000Y26747502D01*
X14372003Y26771299D01*
X12415801Y28727500D01*
X12587335Y28727500D01*
X12864574Y28782647D01*
X13125727Y28890820D01*
X13360759Y29047863D01*
X13560637Y29247741D01*
X13716000Y29480259D01*
X13871363Y29247741D01*
X14071241Y29047863D01*
X14306273Y28890820D01*
X14567426Y28782647D01*
X14844665Y28727500D01*
X15127335Y28727500D01*
X15404574Y28782647D01*
X15665727Y28890820D01*
X15900759Y29047863D01*
X16100637Y29247741D01*
X16256000Y29480259D01*
X16411363Y29247741D01*
X16611241Y29047863D01*
X16846273Y28890820D01*
X17107426Y28782647D01*
X17384665Y28727500D01*
X17667335Y28727500D01*
X17944574Y28782647D01*
X18205727Y28890820D01*
X18440759Y29047863D01*
X18640637Y29247741D01*
X18796000Y29480259D01*
X18951363Y29247741D01*
X19151241Y29047863D01*
X19386273Y28890820D01*
X19647426Y28782647D01*
X19924665Y28727500D01*
X20207335Y28727500D01*
X20484574Y28782647D01*
X20745727Y28890820D01*
X20980759Y29047863D01*
X21180637Y29247741D01*
X21336000Y29480259D01*
X21491363Y29247741D01*
X21691241Y29047863D01*
X21926273Y28890820D01*
X22187426Y28782647D01*
X22464665Y28727500D01*
X22747335Y28727500D01*
X23024574Y28782647D01*
X23285727Y28890820D01*
X23520759Y29047863D01*
X23720637Y29247741D01*
X23876000Y29480259D01*
X24031363Y29247741D01*
X24231241Y29047863D01*
X24466273Y28890820D01*
X24727426Y28782647D01*
X25004665Y28727500D01*
X25287335Y28727500D01*
X25564574Y28782647D01*
X25825727Y28890820D01*
X26060759Y29047863D01*
X26260637Y29247741D01*
X26417680Y29482773D01*
X26525853Y29743926D01*
X26581000Y30021165D01*
X26581000Y30303835D01*
X26525853Y30581074D01*
X26417680Y30842227D01*
X26260637Y31077259D01*
X26060759Y31277137D01*
X25825727Y31434180D01*
X25564574Y31542353D01*
X25287335Y31597500D01*
X25004665Y31597500D01*
X24727426Y31542353D01*
X24466273Y31434180D01*
X24231241Y31277137D01*
X24031363Y31077259D01*
X23876000Y30844741D01*
X23720637Y31077259D01*
X23520759Y31277137D01*
X23285727Y31434180D01*
X23024574Y31542353D01*
X22747335Y31597500D01*
X22464665Y31597500D01*
X22187426Y31542353D01*
X21926273Y31434180D01*
X21691241Y31277137D01*
X21491363Y31077259D01*
X21336000Y30844741D01*
X21180637Y31077259D01*
X20980759Y31277137D01*
X20745727Y31434180D01*
X20484574Y31542353D01*
X20207335Y31597500D01*
X19924665Y31597500D01*
X19647426Y31542353D01*
X19386273Y31434180D01*
X19151241Y31277137D01*
X18951363Y31077259D01*
X18796000Y30844741D01*
X18640637Y31077259D01*
X18440759Y31277137D01*
X18205727Y31434180D01*
X17944574Y31542353D01*
X17667335Y31597500D01*
X17384665Y31597500D01*
X17107426Y31542353D01*
X16846273Y31434180D01*
X16611241Y31277137D01*
X16411363Y31077259D01*
X16256000Y30844741D01*
X16100637Y31077259D01*
X15900759Y31277137D01*
X15665727Y31434180D01*
X15404574Y31542353D01*
X15127335Y31597500D01*
X14955802Y31597500D01*
X15116003Y31757701D01*
X15145001Y31781499D01*
X15181849Y31826398D01*
X15239974Y31897223D01*
X15310546Y32029253D01*
X15317151Y32051027D01*
X15354003Y32172514D01*
X15365000Y32284167D01*
X15365000Y32284176D01*
X15368676Y32321499D01*
X15365000Y32358822D01*
X15365000Y34315965D01*
X15433586Y34418611D01*
X15504068Y34588771D01*
X15540000Y34769411D01*
X15540000Y34953589D01*
X15504068Y35134229D01*
X15433586Y35304389D01*
X15331262Y35457528D01*
X15201028Y35587762D01*
X15047889Y35690086D01*
X14877729Y35760568D01*
X14697089Y35796500D01*
X14512911Y35796500D01*
X14332271Y35760568D01*
X14162111Y35690086D01*
X14162061Y35690052D01*
X14151196Y35700917D01*
X13998057Y35803241D01*
X13827897Y35873723D01*
X13647257Y35909655D01*
X13463079Y35909655D01*
X13373044Y35891746D01*
X13359528Y35905262D01*
X13206389Y36007586D01*
X13036229Y36078068D01*
X12855589Y36114000D01*
X12671411Y36114000D01*
X12490771Y36078068D01*
X12320611Y36007586D01*
X12174894Y35910221D01*
X12090253Y35884546D01*
X11958224Y35813974D01*
X11842499Y35719001D01*
X11818701Y35690003D01*
X7689887Y31561188D01*
X7507335Y31597500D01*
X7224665Y31597500D01*
X6947426Y31542353D01*
X6686273Y31434180D01*
X6451241Y31277137D01*
X6251363Y31077259D01*
X6096000Y30844741D01*
X5940637Y31077259D01*
X5740759Y31277137D01*
X5505727Y31434180D01*
X5244574Y31542353D01*
X5103433Y31570428D01*
X5760000Y31570428D01*
X5933254Y31587492D01*
X6099850Y31638028D01*
X6253386Y31720095D01*
X6387962Y31830538D01*
X6498405Y31965114D01*
X6580472Y32118650D01*
X6631008Y32285246D01*
X6648072Y32458500D01*
X6648072Y33708500D01*
X6631008Y33881754D01*
X6580472Y34048350D01*
X6498405Y34201886D01*
X6387962Y34336462D01*
X6253386Y34446905D01*
X6099850Y34528972D01*
X5933254Y34579508D01*
X5760000Y34596572D01*
X4835000Y34596572D01*
X4661746Y34579508D01*
X4495150Y34528972D01*
X4341614Y34446905D01*
X4207038Y34336462D01*
X4096595Y34201886D01*
X4014528Y34048350D01*
X3963992Y33881754D01*
X3946928Y33708500D01*
X3946928Y32458500D01*
X3963992Y32285246D01*
X4014528Y32118650D01*
X4096595Y31965114D01*
X4207038Y31830538D01*
X4341614Y31720095D01*
X4495150Y31638028D01*
X4650897Y31590783D01*
X4407426Y31542353D01*
X4146273Y31434180D01*
X3911241Y31277137D01*
X3711363Y31077259D01*
X3554320Y30842227D01*
X3549933Y30831635D01*
X3438385Y31017631D01*
X3249414Y31226019D01*
X3023420Y31393537D01*
X2769087Y31513746D01*
X2635039Y31554404D01*
X2413000Y31432415D01*
X2413000Y30289500D01*
X2433000Y30289500D01*
X2433000Y30035500D01*
X2413000Y30035500D01*
X2413000Y28892585D01*
X2635039Y28770596D01*
X2769087Y28811254D01*
X3023420Y28931463D01*
X3249414Y29098981D01*
X3438385Y29307369D01*
X3549933Y29493365D01*
X3554320Y29482773D01*
X3711363Y29247741D01*
X3911241Y29047863D01*
X4146273Y28890820D01*
X4407426Y28782647D01*
X4684665Y28727500D01*
X4967335Y28727500D01*
X5149887Y28763812D01*
X7731001Y26182697D01*
X7731001Y23933009D01*
X7507335Y23977500D01*
X7224665Y23977500D01*
X6947426Y23922353D01*
X6686273Y23814180D01*
X6451241Y23657137D01*
X6251363Y23457259D01*
X6096000Y23224741D01*
X5940637Y23457259D01*
X5740759Y23657137D01*
X5505727Y23814180D01*
X5244574Y23922353D01*
X4967335Y23977500D01*
X4684665Y23977500D01*
X4407426Y23922353D01*
X4146273Y23814180D01*
X3911241Y23657137D01*
X3712643Y23458539D01*
X3711812Y23466982D01*
X3675502Y23586680D01*
X3616537Y23696994D01*
X3537185Y23793685D01*
X3440494Y23873037D01*
X3330180Y23932002D01*
X3210482Y23968312D01*
X3086000Y23980572D01*
X1486000Y23980572D01*
X1361518Y23968312D01*
X1241820Y23932002D01*
X1131506Y23873037D01*
X1034815Y23793685D01*
X955463Y23696994D01*
X896498Y23586680D01*
X860188Y23466982D01*
X847928Y23342500D01*
X685000Y23342500D01*
X685000Y29813460D01*
X894091Y29813460D01*
X988930Y29548619D01*
X1133615Y29307369D01*
X1322586Y29098981D01*
X1548580Y28931463D01*
X1802913Y28811254D01*
X1936961Y28770596D01*
X2159000Y28892585D01*
X2159000Y30035500D01*
X1015376Y30035500D01*
X894091Y29813460D01*
X685000Y29813460D01*
X685000Y30511540D01*
X894091Y30511540D01*
X1015376Y30289500D01*
X2159000Y30289500D01*
X2159000Y31432415D01*
X1936961Y31554404D01*
X1802913Y31513746D01*
X1548580Y31393537D01*
X1322586Y31226019D01*
X1133615Y31017631D01*
X988930Y30776381D01*
X894091Y30511540D01*
X685000Y30511540D01*
X685000Y32208500D01*
X971928Y32208500D01*
X984188Y32084018D01*
X1020498Y31964320D01*
X1079463Y31854006D01*
X1158815Y31757315D01*
X1255506Y31677963D01*
X1365820Y31618998D01*
X1485518Y31582688D01*
X1610000Y31570428D01*
X2036750Y31573500D01*
X2195500Y31732250D01*
X2195500Y32956500D01*
X2449500Y32956500D01*
X2449500Y31732250D01*
X2608250Y31573500D01*
X3035000Y31570428D01*
X3159482Y31582688D01*
X3279180Y31618998D01*
X3389494Y31677963D01*
X3486185Y31757315D01*
X3565537Y31854006D01*
X3624502Y31964320D01*
X3660812Y32084018D01*
X3673072Y32208500D01*
X3670000Y32797750D01*
X3511250Y32956500D01*
X2449500Y32956500D01*
X2195500Y32956500D01*
X1133750Y32956500D01*
X975000Y32797750D01*
X971928Y32208500D01*
X685000Y32208500D01*
X685000Y33958500D01*
X971928Y33958500D01*
X975000Y33369250D01*
X1133750Y33210500D01*
X2195500Y33210500D01*
X2195500Y34434750D01*
X2449500Y34434750D01*
X2449500Y33210500D01*
X3511250Y33210500D01*
X3670000Y33369250D01*
X3673072Y33958500D01*
X3660812Y34082982D01*
X3624502Y34202680D01*
X3565537Y34312994D01*
X3486185Y34409685D01*
X3389494Y34489037D01*
X3279180Y34548002D01*
X3159482Y34584312D01*
X3035000Y34596572D01*
X2608250Y34593500D01*
X2449500Y34434750D01*
X2195500Y34434750D01*
X2036750Y34593500D01*
X1610000Y34596572D01*
X1485518Y34584312D01*
X1365820Y34548002D01*
X1255506Y34489037D01*
X1158815Y34409685D01*
X1079463Y34312994D01*
X1020498Y34202680D01*
X984188Y34082982D01*
X971928Y33958500D01*
X685000Y33958500D01*
X685000Y49935500D01*
X43596928Y49935500D01*
X43600000Y49371250D01*
X43758750Y49212500D01*
X44958000Y49212500D01*
X44958000Y50411750D01*
X44799250Y50570500D01*
X44235000Y50573572D01*
X44110518Y50561312D01*
X43990820Y50525002D01*
X43880506Y50466037D01*
X43783815Y50386685D01*
X43704463Y50289994D01*
X43645498Y50179680D01*
X43609188Y50059982D01*
X43596928Y49935500D01*
X685000Y49935500D01*
X685000Y56261000D01*
X1058000Y56261000D01*
X1058000Y55981000D01*
X1108812Y55719093D01*
X1209744Y55472131D01*
X1356916Y55249605D01*
X1544673Y55060067D01*
X1765799Y54910801D01*
X2011797Y54807542D01*
X2076528Y54795441D01*
X2286000Y54918511D01*
X2286000Y56261000D01*
X2540000Y56261000D01*
X2540000Y54918511D01*
X2749472Y54795441D01*
X2814203Y54807542D01*
X3060201Y54910801D01*
X3281327Y55060067D01*
X3469084Y55249605D01*
X3616256Y55472131D01*
X3683000Y55635441D01*
X3749744Y55472131D01*
X3896916Y55249605D01*
X4084673Y55060067D01*
X4305799Y54910801D01*
X4551797Y54807542D01*
X4616528Y54795441D01*
X4826000Y54918511D01*
X4826000Y56261000D01*
X2540000Y56261000D01*
X2286000Y56261000D01*
X1058000Y56261000D01*
X685000Y56261000D01*
X685000Y56795000D01*
X1058000Y56795000D01*
X1058000Y56515000D01*
X2286000Y56515000D01*
X2286000Y57857489D01*
X2540000Y57857489D01*
X2540000Y56515000D01*
X4826000Y56515000D01*
X4826000Y57857489D01*
X4616528Y57980559D01*
X4551797Y57968458D01*
X4305799Y57865199D01*
X4084673Y57715933D01*
X3896916Y57526395D01*
X3749744Y57303869D01*
X3683000Y57140559D01*
X3616256Y57303869D01*
X3469084Y57526395D01*
X3281327Y57715933D01*
X3060201Y57865199D01*
X2814203Y57968458D01*
X2749472Y57980559D01*
X2540000Y57857489D01*
X2286000Y57857489D01*
X2076528Y57980559D01*
X2011797Y57968458D01*
X1765799Y57865199D01*
X1544673Y57715933D01*
X1356916Y57526395D01*
X1209744Y57303869D01*
X1108812Y57056907D01*
X1058000Y56795000D01*
X685000Y56795000D01*
X685000Y57945647D01*
X675711Y58039956D01*
X691653Y58202542D01*
X776031Y58482018D01*
X913085Y58739780D01*
X1097599Y58966015D01*
X1322540Y59152103D01*
X1579342Y59290956D01*
X1858219Y59377282D01*
X2030268Y59395365D01*
X2125353Y59386000D01*
G36*
X47879000Y6731000D02*
G01*
X47899000Y6731000D01*
X47899000Y6477000D01*
X47879000Y6477000D01*
X47879000Y6457000D01*
X47625000Y6457000D01*
X47625000Y6477000D01*
X47605000Y6477000D01*
X47605000Y6731000D01*
X47625000Y6731000D01*
X47625000Y6751000D01*
X47879000Y6751000D01*
X47879000Y6731000D01*
G37*
X47879000Y6731000D02*
X47899000Y6731000D01*
X47899000Y6477000D01*
X47879000Y6477000D01*
X47879000Y6457000D01*
X47625000Y6457000D01*
X47625000Y6477000D01*
X47605000Y6477000D01*
X47605000Y6731000D01*
X47625000Y6731000D01*
X47625000Y6751000D01*
X47879000Y6751000D01*
X47879000Y6731000D01*
G04 #@! TD*
M02*
