M48
; DRILL file {KiCad (5.1.6-0-10_14)} date Wednesday, January 13, 2021 at 12:47:23 AM
; FORMAT={-:-/ absolute / inch / decimal}
; #@! TF.CreationDate,2021-01-13T00:47:23+01:00
; #@! TF.GenerationSoftware,Kicad,Pcbnew,(5.1.6-0-10_14)
FMAT,2
INCH
T1C0.0118
T2C0.0157
T3C0.0315
T4C0.0394
%
G90
G05
T1
X0.46Y1.26
X0.46Y1.19
X0.505Y1.405
X0.54Y1.4
X0.57Y1.675
X0.575Y0.47
X0.625Y0.425
X0.6512Y0.4023
X0.6624Y1.6968
X0.6812Y0.412
X0.719Y0.4454
X0.7538Y0.4454
X0.76Y1.895
X0.78Y0.71
X0.79Y0.96
X0.7997Y0.7601
X0.8Y0.9244
X0.955Y0.57
X0.98Y0.92
X0.98Y0.88
X0.9804Y0.699
X0.985Y0.84
X1.0Y1.125
X1.0Y1.08
X1.048Y0.6397
X1.0578Y1.0706
X1.07Y0.675
X1.07Y0.92
X1.07Y0.88
X1.0776Y0.8376
X1.1011Y0.6569
X1.1226Y1.1306
X1.18Y0.41
X1.2076Y0.9726
X1.22Y0.405
X1.225Y1.21
X1.2296Y1.1473
X1.29Y1.27
X1.3239Y1.08
X1.389Y0.3746
X1.4185Y0.3946
X1.435Y1.06
X1.445Y1.34
X1.465Y0.43
X1.48Y1.255
X1.5001Y0.4123
X1.5501Y1.4099
X1.59Y1.405
X1.5927Y1.2526
X1.5983Y0.9866
X1.625Y1.395
X1.6289Y1.267
X1.655Y0.385
X1.6605Y1.1271
X1.6907Y1.2893
X1.7374Y0.9384
X1.74Y1.135
X1.7629Y1.0045
X1.8101Y1.0445
X1.82Y1.15
X1.8695Y1.0946
X1.92Y1.205
X1.947Y1.4568
X1.985Y0.375
X2.055Y0.325
X2.075Y1.445
X2.1042Y0.3331
X2.1259Y1.3521
X2.13Y1.39
X2.1785Y0.3523
X2.2785Y0.37
X2.32Y1.56
X2.3898Y0.3878
X2.435Y1.425
X2.465Y1.55
X2.4836Y0.384
X2.52Y1.22
X2.5953Y0.384
X2.5981Y1.1171
X2.6Y1.26
X2.6222Y1.3861
X2.665Y1.385
X2.7126Y1.1278
X2.75Y1.275
X2.845Y1.26
X2.9475Y1.24
T2
X0.735Y1.35
X1.895Y1.74
X2.445Y0.905
T3
X0.555Y1.235
X0.555Y1.135
X0.555Y1.035
X0.555Y0.935
X0.555Y0.835
X0.555Y0.735
X0.555Y0.635
X0.855Y1.235
X0.855Y1.135
X0.855Y1.035
X0.855Y0.935
X0.855Y0.835
X0.855Y0.735
X0.855Y0.635
X1.774Y1.632
X1.774Y1.332
X1.874Y1.632
X1.874Y1.332
X1.974Y1.632
X1.974Y1.332
X2.074Y1.632
X2.074Y1.332
X2.174Y1.632
X2.174Y1.332
X2.274Y1.632
X2.274Y1.332
X2.374Y1.632
X2.374Y1.332
X2.474Y1.632
X2.474Y1.332
X2.574Y1.632
X2.574Y1.332
X2.674Y1.632
X2.674Y1.332
X2.774Y1.632
X2.774Y1.332
X2.874Y1.632
X2.874Y1.332
X2.974Y1.632
X2.974Y1.332
X3.074Y1.632
X3.074Y1.332
X0.11Y1.32
X0.11Y1.22
X0.11Y1.12
X0.11Y1.02
X0.11Y0.92
X0.11Y0.82
X0.11Y0.72
X0.41Y1.32
X0.41Y1.22
X0.41Y1.12
X0.41Y1.02
X0.41Y0.92
X0.41Y0.82
X0.41Y0.72
X1.17Y1.185
X1.17Y0.585
X1.27Y1.185
X1.27Y0.585
X1.37Y1.185
X1.37Y0.585
X1.47Y1.185
X1.47Y0.585
X1.57Y1.185
X1.57Y0.585
X1.67Y1.185
X1.67Y0.585
X1.77Y1.185
X1.77Y0.585
X1.87Y1.185
X1.87Y0.585
X1.97Y1.185
X1.97Y0.585
X2.07Y1.185
X2.07Y0.585
X2.17Y1.185
X2.17Y0.585
X2.27Y1.185
X2.27Y0.585
X2.37Y1.185
X2.37Y0.585
X2.47Y1.185
X2.47Y0.585
X2.57Y1.185
X2.57Y0.585
X2.67Y1.185
X2.67Y0.585
X2.77Y1.185
X2.77Y0.585
X2.87Y1.185
X2.87Y0.585
X2.97Y1.185
X2.97Y0.585
X3.07Y1.185
X3.07Y0.585
T4
X0.095Y2.22
X0.095Y1.62
X0.195Y2.22
X0.195Y1.62
X0.295Y2.22
X0.295Y1.62
X0.395Y2.22
X0.395Y1.62
X0.495Y2.22
X0.495Y1.62
X0.595Y2.22
X0.595Y1.62
X0.695Y2.22
X0.695Y1.62
X0.795Y2.22
X0.795Y1.62
X0.895Y2.22
X0.895Y1.62
X0.995Y2.22
X0.995Y1.62
X1.095Y2.22
X1.095Y1.62
X1.195Y2.22
X1.195Y1.62
X1.295Y2.22
X1.295Y1.62
X1.395Y2.22
X1.395Y1.62
X1.774Y1.94
X1.874Y1.94
X1.974Y1.94
X2.074Y1.94
X2.174Y1.94
X2.274Y1.94
X2.374Y1.94
X2.474Y1.94
X2.574Y1.94
X2.674Y1.94
X2.774Y1.94
X2.874Y1.94
X2.974Y1.94
X3.074Y1.94
X0.68Y0.26
X0.68Y0.16
X0.78Y0.26
X0.78Y0.16
X0.88Y0.26
X0.88Y0.16
X0.98Y0.26
X0.98Y0.16
X1.08Y0.26
X1.08Y0.16
X1.18Y0.26
X1.18Y0.16
X1.28Y0.26
X1.28Y0.16
X1.38Y0.26
X1.38Y0.16
X1.48Y0.26
X1.48Y0.16
X1.58Y0.26
X1.58Y0.16
X1.68Y0.26
X1.68Y0.16
X1.78Y0.26
X1.78Y0.16
X1.88Y0.26
X1.88Y0.16
X1.98Y0.26
X1.98Y0.16
X2.08Y0.26
X2.08Y0.16
X2.18Y0.26
X2.18Y0.16
X2.28Y0.26
X2.28Y0.16
X2.38Y0.26
X2.38Y0.16
X2.48Y0.26
X2.48Y0.16
X2.58Y0.26
X2.58Y0.16
X2.68Y0.26
X2.68Y0.16
X2.78Y0.26
X2.78Y0.16
X2.88Y0.26
X2.88Y0.16
X2.98Y0.26
X2.98Y0.16
X3.08Y0.26
X3.08Y0.16
T0
M30
