%TF.GenerationSoftware,KiCad,Pcbnew,(5.1.6-0-10_14)*%
%TF.CreationDate,2021-01-13T00:48:19+01:00*%
%TF.ProjectId,serial_board,73657269-616c-45f6-926f-6172642e6b69,rev?*%
%TF.SameCoordinates,Original*%
%TF.FileFunction,Paste,Bot*%
%TF.FilePolarity,Positive*%
%FSLAX46Y46*%
G04 Gerber Fmt 4.6, Leading zero omitted, Abs format (unit mm)*
G04 Created by KiCad (PCBNEW (5.1.6-0-10_14)) date 2021-01-13 00:48:19*
%MOMM*%
%LPD*%
G01*
G04 APERTURE LIST*
G04 APERTURE END LIST*
%TO.C,R2*%
G36*
G01*
X35745000Y36581501D02*
X35745000Y35681499D01*
G75*
G02*
X35495001Y35431500I-249999J0D01*
G01*
X34844999Y35431500D01*
G75*
G02*
X34595000Y35681499I0J249999D01*
G01*
X34595000Y36581501D01*
G75*
G02*
X34844999Y36831500I249999J0D01*
G01*
X35495001Y36831500D01*
G75*
G02*
X35745000Y36581501I0J-249999D01*
G01*
G37*
G36*
G01*
X37795000Y36581501D02*
X37795000Y35681499D01*
G75*
G02*
X37545001Y35431500I-249999J0D01*
G01*
X36894999Y35431500D01*
G75*
G02*
X36645000Y35681499I0J249999D01*
G01*
X36645000Y36581501D01*
G75*
G02*
X36894999Y36831500I249999J0D01*
G01*
X37545001Y36831500D01*
G75*
G02*
X37795000Y36581501I0J-249999D01*
G01*
G37*
%TD*%
%TO.C,R1*%
G36*
G01*
X35745000Y32200001D02*
X35745000Y31299999D01*
G75*
G02*
X35495001Y31050000I-249999J0D01*
G01*
X34844999Y31050000D01*
G75*
G02*
X34595000Y31299999I0J249999D01*
G01*
X34595000Y32200001D01*
G75*
G02*
X34844999Y32450000I249999J0D01*
G01*
X35495001Y32450000D01*
G75*
G02*
X35745000Y32200001I0J-249999D01*
G01*
G37*
G36*
G01*
X37795000Y32200001D02*
X37795000Y31299999D01*
G75*
G02*
X37545001Y31050000I-249999J0D01*
G01*
X36894999Y31050000D01*
G75*
G02*
X36645000Y31299999I0J249999D01*
G01*
X36645000Y32200001D01*
G75*
G02*
X36894999Y32450000I249999J0D01*
G01*
X37545001Y32450000D01*
G75*
G02*
X37795000Y32200001I0J-249999D01*
G01*
G37*
%TD*%
%TO.C,C2*%
G36*
G01*
X73266000Y27549000D02*
X73266000Y26299000D01*
G75*
G02*
X73016000Y26049000I-250000J0D01*
G01*
X72091000Y26049000D01*
G75*
G02*
X71841000Y26299000I0J250000D01*
G01*
X71841000Y27549000D01*
G75*
G02*
X72091000Y27799000I250000J0D01*
G01*
X73016000Y27799000D01*
G75*
G02*
X73266000Y27549000I0J-250000D01*
G01*
G37*
G36*
G01*
X76241000Y27549000D02*
X76241000Y26299000D01*
G75*
G02*
X75991000Y26049000I-250000J0D01*
G01*
X75066000Y26049000D01*
G75*
G02*
X74816000Y26299000I0J250000D01*
G01*
X74816000Y27549000D01*
G75*
G02*
X75066000Y27799000I250000J0D01*
G01*
X75991000Y27799000D01*
G75*
G02*
X76241000Y27549000I0J-250000D01*
G01*
G37*
%TD*%
%TO.C,C1*%
G36*
G01*
X21222000Y21600000D02*
X21222000Y22850000D01*
G75*
G02*
X21472000Y23100000I250000J0D01*
G01*
X22397000Y23100000D01*
G75*
G02*
X22647000Y22850000I0J-250000D01*
G01*
X22647000Y21600000D01*
G75*
G02*
X22397000Y21350000I-250000J0D01*
G01*
X21472000Y21350000D01*
G75*
G02*
X21222000Y21600000I0J250000D01*
G01*
G37*
G36*
G01*
X18247000Y21600000D02*
X18247000Y22850000D01*
G75*
G02*
X18497000Y23100000I250000J0D01*
G01*
X19422000Y23100000D01*
G75*
G02*
X19672000Y22850000I0J-250000D01*
G01*
X19672000Y21600000D01*
G75*
G02*
X19422000Y21350000I-250000J0D01*
G01*
X18497000Y21350000D01*
G75*
G02*
X18247000Y21600000I0J250000D01*
G01*
G37*
%TD*%
M02*
