%TF.GenerationSoftware,KiCad,Pcbnew,(5.1.6-0-10_14)*%
%TF.CreationDate,2021-01-15T21:42:06+01:00*%
%TF.ProjectId,serial_board,73657269-616c-45f6-926f-6172642e6b69,rev?*%
%TF.SameCoordinates,Original*%
%TF.FileFunction,Copper,L2,Bot*%
%TF.FilePolarity,Positive*%
%FSLAX46Y46*%
G04 Gerber Fmt 4.6, Leading zero omitted, Abs format (unit mm)*
G04 Created by KiCad (PCBNEW (5.1.6-0-10_14)) date 2021-01-15 21:42:06*
%MOMM*%
%LPD*%
G01*
G04 APERTURE LIST*
%TA.AperFunction,ComponentPad*%
%ADD10C,1.600000*%
%TD*%
%TA.AperFunction,ComponentPad*%
%ADD11R,1.600000X1.600000*%
%TD*%
%TA.AperFunction,ComponentPad*%
%ADD12O,1.600000X1.600000*%
%TD*%
%TA.AperFunction,ComponentPad*%
%ADD13O,1.700000X1.700000*%
%TD*%
%TA.AperFunction,ComponentPad*%
%ADD14R,1.700000X1.700000*%
%TD*%
%TA.AperFunction,ViaPad*%
%ADD15C,0.600000*%
%TD*%
%TA.AperFunction,ViaPad*%
%ADD16C,0.800000*%
%TD*%
%TA.AperFunction,Conductor*%
%ADD17C,1.000000*%
%TD*%
%TA.AperFunction,Conductor*%
%ADD18C,0.250000*%
%TD*%
%TA.AperFunction,Conductor*%
%ADD19C,0.254000*%
%TD*%
G04 APERTURE END LIST*
%TO.P,R2,2*%
%TO.N,Net-(D2-Pad1)*%
%TA.AperFunction,SMDPad,CuDef*%
G36*
G01*
X35745000Y36581501D02*
X35745000Y35681499D01*
G75*
G02*
X35495001Y35431500I-249999J0D01*
G01*
X34844999Y35431500D01*
G75*
G02*
X34595000Y35681499I0J249999D01*
G01*
X34595000Y36581501D01*
G75*
G02*
X34844999Y36831500I249999J0D01*
G01*
X35495001Y36831500D01*
G75*
G02*
X35745000Y36581501I0J-249999D01*
G01*
G37*
%TD.AperFunction*%
%TO.P,R2,1*%
%TO.N,GND*%
%TA.AperFunction,SMDPad,CuDef*%
G36*
G01*
X37795000Y36581501D02*
X37795000Y35681499D01*
G75*
G02*
X37545001Y35431500I-249999J0D01*
G01*
X36894999Y35431500D01*
G75*
G02*
X36645000Y35681499I0J249999D01*
G01*
X36645000Y36581501D01*
G75*
G02*
X36894999Y36831500I249999J0D01*
G01*
X37545001Y36831500D01*
G75*
G02*
X37795000Y36581501I0J-249999D01*
G01*
G37*
%TD.AperFunction*%
%TD*%
%TO.P,R1,2*%
%TO.N,Net-(D1-Pad1)*%
%TA.AperFunction,SMDPad,CuDef*%
G36*
G01*
X35745000Y32200001D02*
X35745000Y31299999D01*
G75*
G02*
X35495001Y31050000I-249999J0D01*
G01*
X34844999Y31050000D01*
G75*
G02*
X34595000Y31299999I0J249999D01*
G01*
X34595000Y32200001D01*
G75*
G02*
X34844999Y32450000I249999J0D01*
G01*
X35495001Y32450000D01*
G75*
G02*
X35745000Y32200001I0J-249999D01*
G01*
G37*
%TD.AperFunction*%
%TO.P,R1,1*%
%TO.N,GND*%
%TA.AperFunction,SMDPad,CuDef*%
G36*
G01*
X37795000Y32200001D02*
X37795000Y31299999D01*
G75*
G02*
X37545001Y31050000I-249999J0D01*
G01*
X36894999Y31050000D01*
G75*
G02*
X36645000Y31299999I0J249999D01*
G01*
X36645000Y32200001D01*
G75*
G02*
X36894999Y32450000I249999J0D01*
G01*
X37545001Y32450000D01*
G75*
G02*
X37795000Y32200001I0J-249999D01*
G01*
G37*
%TD.AperFunction*%
%TD*%
D10*
%TO.P,X1,4*%
%TO.N,GND*%
X26543000Y17145000D03*
%TO.P,X1,5*%
%TO.N,Net-(U1-Pad6)*%
X26543000Y24765000D03*
%TO.P,X1,8*%
%TO.N,+5V*%
X18923000Y24765000D03*
D11*
%TO.P,X1,1*%
%TO.N,Net-(X1-Pad1)*%
X18923000Y17145000D03*
%TD*%
D12*
%TO.P,U1,28*%
%TO.N,R~W~*%
X42545000Y29591000D03*
%TO.P,U1,14*%
%TO.N,A1*%
X75565000Y14351000D03*
%TO.P,U1,27*%
%TO.N,CLK*%
X45085000Y29591000D03*
%TO.P,U1,13*%
%TO.N,A0*%
X73025000Y14351000D03*
%TO.P,U1,26*%
%TO.N,~SLOT_IRQ~*%
X47625000Y29591000D03*
%TO.P,U1,12*%
%TO.N,Net-(J2-Pad3)*%
X70485000Y14351000D03*
%TO.P,U1,25*%
%TO.N,D7*%
X50165000Y29591000D03*
%TO.P,U1,11*%
%TO.N,Net-(D2-Pad2)*%
X67945000Y14351000D03*
%TO.P,U1,24*%
%TO.N,D6*%
X52705000Y29591000D03*
%TO.P,U1,10*%
%TO.N,Net-(D1-Pad2)*%
X65405000Y14351000D03*
%TO.P,U1,23*%
%TO.N,D5*%
X55245000Y29591000D03*
%TO.P,U1,9*%
%TO.N,Net-(J2-Pad5)*%
X62865000Y14351000D03*
%TO.P,U1,22*%
%TO.N,D4*%
X57785000Y29591000D03*
%TO.P,U1,8*%
%TO.N,Net-(U1-Pad8)*%
X60325000Y14351000D03*
%TO.P,U1,21*%
%TO.N,D3*%
X60325000Y29591000D03*
%TO.P,U1,7*%
%TO.N,Net-(U1-Pad7)*%
X57785000Y14351000D03*
%TO.P,U1,20*%
%TO.N,D2*%
X62865000Y29591000D03*
%TO.P,U1,6*%
%TO.N,Net-(U1-Pad6)*%
X55245000Y14351000D03*
%TO.P,U1,19*%
%TO.N,D1*%
X65405000Y29591000D03*
%TO.P,U1,5*%
%TO.N,Net-(U1-Pad5)*%
X52705000Y14351000D03*
%TO.P,U1,18*%
%TO.N,D0*%
X67945000Y29591000D03*
%TO.P,U1,4*%
%TO.N,~RESET~*%
X50165000Y14351000D03*
%TO.P,U1,17*%
%TO.N,GND*%
X70485000Y29591000D03*
%TO.P,U1,3*%
%TO.N,~SLOT_SEL~*%
X47625000Y14351000D03*
%TO.P,U1,16*%
%TO.N,GND*%
X73025000Y29591000D03*
%TO.P,U1,2*%
%TO.N,Net-(U1-Pad2)*%
X45085000Y14351000D03*
%TO.P,U1,15*%
%TO.N,+5V*%
X75565000Y29591000D03*
D11*
%TO.P,U1,1*%
%TO.N,GND*%
X42545000Y14351000D03*
%TD*%
D13*
%TO.P,J2,6*%
%TO.N,GND*%
X39370000Y40513000D03*
%TO.P,J2,5*%
%TO.N,Net-(J2-Pad5)*%
X39370000Y43053000D03*
%TO.P,J2,4*%
%TO.N,+5V*%
X39370000Y45593000D03*
%TO.P,J2,3*%
%TO.N,Net-(J2-Pad3)*%
X39370000Y48133000D03*
%TO.P,J2,2*%
%TO.N,Net-(D1-Pad2)*%
X39370000Y50673000D03*
D14*
%TO.P,J2,1*%
%TO.N,Net-(D2-Pad2)*%
X39370000Y53213000D03*
%TD*%
%TO.P,C2,2*%
%TO.N,GND*%
%TA.AperFunction,SMDPad,CuDef*%
G36*
G01*
X73266000Y27549000D02*
X73266000Y26299000D01*
G75*
G02*
X73016000Y26049000I-250000J0D01*
G01*
X72091000Y26049000D01*
G75*
G02*
X71841000Y26299000I0J250000D01*
G01*
X71841000Y27549000D01*
G75*
G02*
X72091000Y27799000I250000J0D01*
G01*
X73016000Y27799000D01*
G75*
G02*
X73266000Y27549000I0J-250000D01*
G01*
G37*
%TD.AperFunction*%
%TO.P,C2,1*%
%TO.N,+5V*%
%TA.AperFunction,SMDPad,CuDef*%
G36*
G01*
X76241000Y27549000D02*
X76241000Y26299000D01*
G75*
G02*
X75991000Y26049000I-250000J0D01*
G01*
X75066000Y26049000D01*
G75*
G02*
X74816000Y26299000I0J250000D01*
G01*
X74816000Y27549000D01*
G75*
G02*
X75066000Y27799000I250000J0D01*
G01*
X75991000Y27799000D01*
G75*
G02*
X76241000Y27549000I0J-250000D01*
G01*
G37*
%TD.AperFunction*%
%TD*%
%TO.P,C1,2*%
%TO.N,GND*%
%TA.AperFunction,SMDPad,CuDef*%
G36*
G01*
X21222000Y21600000D02*
X21222000Y22850000D01*
G75*
G02*
X21472000Y23100000I250000J0D01*
G01*
X22397000Y23100000D01*
G75*
G02*
X22647000Y22850000I0J-250000D01*
G01*
X22647000Y21600000D01*
G75*
G02*
X22397000Y21350000I-250000J0D01*
G01*
X21472000Y21350000D01*
G75*
G02*
X21222000Y21600000I0J250000D01*
G01*
G37*
%TD.AperFunction*%
%TO.P,C1,1*%
%TO.N,+5V*%
%TA.AperFunction,SMDPad,CuDef*%
G36*
G01*
X18247000Y21600000D02*
X18247000Y22850000D01*
G75*
G02*
X18497000Y23100000I250000J0D01*
G01*
X19422000Y23100000D01*
G75*
G02*
X19672000Y22850000I0J-250000D01*
G01*
X19672000Y21600000D01*
G75*
G02*
X19422000Y21350000I-250000J0D01*
G01*
X18497000Y21350000D01*
G75*
G02*
X18247000Y21600000I0J250000D01*
G01*
G37*
%TD.AperFunction*%
%TD*%
D13*
%TO.P,J1,50*%
%TO.N,~NMI~*%
X17272000Y4064000D03*
%TO.P,J1,49*%
%TO.N,~RESET~*%
X17272000Y6604000D03*
%TO.P,J1,48*%
%TO.N,~SLOT_IRQ~*%
X19812000Y4064000D03*
%TO.P,J1,47*%
%TO.N,SYNC*%
X19812000Y6604000D03*
%TO.P,J1,46*%
%TO.N,EX3*%
X22352000Y4064000D03*
%TO.P,J1,45*%
%TO.N,~IRQ~*%
X22352000Y6604000D03*
%TO.P,J1,44*%
%TO.N,EX2*%
X24892000Y4064000D03*
%TO.P,J1,43*%
%TO.N,R~W~*%
X24892000Y6604000D03*
%TO.P,J1,42*%
%TO.N,CLK_12M*%
X27432000Y4064000D03*
%TO.P,J1,41*%
%TO.N,CLK*%
X27432000Y6604000D03*
%TO.P,J1,40*%
%TO.N,LED4*%
X29972000Y4064000D03*
%TO.P,J1,39*%
%TO.N,BE*%
X29972000Y6604000D03*
%TO.P,J1,38*%
%TO.N,LED3*%
X32512000Y4064000D03*
%TO.P,J1,37*%
%TO.N,RDY*%
X32512000Y6604000D03*
%TO.P,J1,36*%
%TO.N,LED2*%
X35052000Y4064000D03*
%TO.P,J1,35*%
%TO.N,A15*%
X35052000Y6604000D03*
%TO.P,J1,34*%
%TO.N,LED1*%
X37592000Y4064000D03*
%TO.P,J1,33*%
%TO.N,A14*%
X37592000Y6604000D03*
%TO.P,J1,32*%
%TO.N,~SLOT_SEL~*%
X40132000Y4064000D03*
%TO.P,J1,31*%
%TO.N,A13*%
X40132000Y6604000D03*
%TO.P,J1,30*%
%TO.N,~INH~*%
X42672000Y4064000D03*
%TO.P,J1,29*%
%TO.N,A12*%
X42672000Y6604000D03*
%TO.P,J1,28*%
%TO.N,~SSEL~*%
X45212000Y4064000D03*
%TO.P,J1,27*%
%TO.N,A11*%
X45212000Y6604000D03*
%TO.P,J1,26*%
%TO.N,GND*%
X47752000Y4064000D03*
%TO.P,J1,25*%
%TO.N,+5V*%
X47752000Y6604000D03*
%TO.P,J1,24*%
X50292000Y4064000D03*
%TO.P,J1,23*%
%TO.N,GND*%
X50292000Y6604000D03*
%TO.P,J1,22*%
%TO.N,~SLOW~*%
X52832000Y4064000D03*
%TO.P,J1,21*%
%TO.N,A10*%
X52832000Y6604000D03*
%TO.P,J1,20*%
%TO.N,EX1*%
X55372000Y4064000D03*
%TO.P,J1,19*%
%TO.N,A9*%
X55372000Y6604000D03*
%TO.P,J1,18*%
%TO.N,EX0*%
X57912000Y4064000D03*
%TO.P,J1,17*%
%TO.N,A8*%
X57912000Y6604000D03*
%TO.P,J1,16*%
%TO.N,D7*%
X60452000Y4064000D03*
%TO.P,J1,15*%
%TO.N,A7*%
X60452000Y6604000D03*
%TO.P,J1,14*%
%TO.N,D6*%
X62992000Y4064000D03*
%TO.P,J1,13*%
%TO.N,A6*%
X62992000Y6604000D03*
%TO.P,J1,12*%
%TO.N,D5*%
X65532000Y4064000D03*
%TO.P,J1,11*%
%TO.N,A5*%
X65532000Y6604000D03*
%TO.P,J1,10*%
%TO.N,D4*%
X68072000Y4064000D03*
%TO.P,J1,9*%
%TO.N,A4*%
X68072000Y6604000D03*
%TO.P,J1,8*%
%TO.N,D3*%
X70612000Y4064000D03*
%TO.P,J1,7*%
%TO.N,A3*%
X70612000Y6604000D03*
%TO.P,J1,6*%
%TO.N,D2*%
X73152000Y4064000D03*
%TO.P,J1,5*%
%TO.N,A2*%
X73152000Y6604000D03*
%TO.P,J1,4*%
%TO.N,D1*%
X75692000Y4064000D03*
%TO.P,J1,3*%
%TO.N,A1*%
X75692000Y6604000D03*
%TO.P,J1,2*%
%TO.N,D0*%
X78232000Y4064000D03*
D14*
%TO.P,J1,1*%
%TO.N,A0*%
X78232000Y6604000D03*
%TD*%
D15*
%TO.N,A0*%
X75438000Y8128000D03*
%TO.N,~RESET~*%
X43942000Y7874000D03*
%TO.N,~SLOT_IRQ~*%
X41656000Y28067000D03*
%TO.N,Net-(J2-Pad3)*%
X46355000Y48133000D03*
%TO.N,Net-(U1-Pad6)*%
X41529000Y19177000D03*
X36322000Y21209000D03*
D16*
%TO.N,Net-(D1-Pad1)*%
X35179000Y31750000D03*
%TO.N,Net-(D2-Pad1)*%
X35179000Y36131500D03*
%TD*%
D17*
%TO.N,GND*%
X50292000Y6604000D02*
X47752000Y4064000D01*
%TO.N,+5V*%
X75528500Y29554500D02*
X75565000Y29591000D01*
X75528500Y26924000D02*
X75528500Y29554500D01*
X18959500Y24728500D02*
X18923000Y24765000D01*
X18959500Y22225000D02*
X18959500Y24728500D01*
D18*
%TO.N,A0*%
X76708000Y8128000D02*
X75438000Y8128000D01*
X78232000Y6604000D02*
X76708000Y8128000D01*
%TO.N,~RESET~*%
X43942000Y8128000D02*
X43942000Y8128000D01*
X17272000Y6604000D02*
X18542000Y7874000D01*
X18542000Y7874000D02*
X43942000Y7874000D01*
%TO.N,~SLOT_IRQ~*%
X46101000Y28067000D02*
X47625000Y29591000D01*
X41656000Y28067000D02*
X46101000Y28067000D01*
%TO.N,Net-(J2-Pad3)*%
X46355000Y48133000D02*
X39370000Y48133000D01*
%TO.N,Net-(U1-Pad6)*%
X41529000Y19177000D02*
X38354000Y19177000D01*
X38354000Y19177000D02*
X36322000Y21209000D01*
X36322000Y21209000D02*
X36322000Y21209000D01*
%TD*%
D19*
%TO.N,GND*%
G36*
X2125353Y59386000D02*
G01*
X78646647Y59386000D01*
X78740956Y59395289D01*
X78903542Y59379347D01*
X79183018Y59294969D01*
X79440780Y59157915D01*
X79667015Y58973401D01*
X79853103Y58748460D01*
X79991956Y58491658D01*
X80078282Y58212781D01*
X80096365Y58040731D01*
X80087000Y57945646D01*
X80087001Y685000D01*
X14218381Y685000D01*
X8153121Y6750260D01*
X15787000Y6750260D01*
X15787000Y6457740D01*
X15844068Y6170842D01*
X15956010Y5900589D01*
X16118525Y5657368D01*
X16325368Y5450525D01*
X16499760Y5334000D01*
X16325368Y5217475D01*
X16118525Y5010632D01*
X15956010Y4767411D01*
X15844068Y4497158D01*
X15787000Y4210260D01*
X15787000Y3917740D01*
X15844068Y3630842D01*
X15956010Y3360589D01*
X16118525Y3117368D01*
X16325368Y2910525D01*
X16568589Y2748010D01*
X16838842Y2636068D01*
X17125740Y2579000D01*
X17418260Y2579000D01*
X17705158Y2636068D01*
X17975411Y2748010D01*
X18218632Y2910525D01*
X18425475Y3117368D01*
X18542000Y3291760D01*
X18658525Y3117368D01*
X18865368Y2910525D01*
X19108589Y2748010D01*
X19378842Y2636068D01*
X19665740Y2579000D01*
X19958260Y2579000D01*
X20245158Y2636068D01*
X20515411Y2748010D01*
X20758632Y2910525D01*
X20965475Y3117368D01*
X21082000Y3291760D01*
X21198525Y3117368D01*
X21405368Y2910525D01*
X21648589Y2748010D01*
X21918842Y2636068D01*
X22205740Y2579000D01*
X22498260Y2579000D01*
X22785158Y2636068D01*
X23055411Y2748010D01*
X23298632Y2910525D01*
X23505475Y3117368D01*
X23622000Y3291760D01*
X23738525Y3117368D01*
X23945368Y2910525D01*
X24188589Y2748010D01*
X24458842Y2636068D01*
X24745740Y2579000D01*
X25038260Y2579000D01*
X25325158Y2636068D01*
X25595411Y2748010D01*
X25838632Y2910525D01*
X26045475Y3117368D01*
X26162000Y3291760D01*
X26278525Y3117368D01*
X26485368Y2910525D01*
X26728589Y2748010D01*
X26998842Y2636068D01*
X27285740Y2579000D01*
X27578260Y2579000D01*
X27865158Y2636068D01*
X28135411Y2748010D01*
X28378632Y2910525D01*
X28585475Y3117368D01*
X28702000Y3291760D01*
X28818525Y3117368D01*
X29025368Y2910525D01*
X29268589Y2748010D01*
X29538842Y2636068D01*
X29825740Y2579000D01*
X30118260Y2579000D01*
X30405158Y2636068D01*
X30675411Y2748010D01*
X30918632Y2910525D01*
X31125475Y3117368D01*
X31242000Y3291760D01*
X31358525Y3117368D01*
X31565368Y2910525D01*
X31808589Y2748010D01*
X32078842Y2636068D01*
X32365740Y2579000D01*
X32658260Y2579000D01*
X32945158Y2636068D01*
X33215411Y2748010D01*
X33458632Y2910525D01*
X33665475Y3117368D01*
X33782000Y3291760D01*
X33898525Y3117368D01*
X34105368Y2910525D01*
X34348589Y2748010D01*
X34618842Y2636068D01*
X34905740Y2579000D01*
X35198260Y2579000D01*
X35485158Y2636068D01*
X35755411Y2748010D01*
X35998632Y2910525D01*
X36205475Y3117368D01*
X36322000Y3291760D01*
X36438525Y3117368D01*
X36645368Y2910525D01*
X36888589Y2748010D01*
X37158842Y2636068D01*
X37445740Y2579000D01*
X37738260Y2579000D01*
X38025158Y2636068D01*
X38295411Y2748010D01*
X38538632Y2910525D01*
X38745475Y3117368D01*
X38862000Y3291760D01*
X38978525Y3117368D01*
X39185368Y2910525D01*
X39428589Y2748010D01*
X39698842Y2636068D01*
X39985740Y2579000D01*
X40278260Y2579000D01*
X40565158Y2636068D01*
X40835411Y2748010D01*
X41078632Y2910525D01*
X41285475Y3117368D01*
X41402000Y3291760D01*
X41518525Y3117368D01*
X41725368Y2910525D01*
X41968589Y2748010D01*
X42238842Y2636068D01*
X42525740Y2579000D01*
X42818260Y2579000D01*
X43105158Y2636068D01*
X43375411Y2748010D01*
X43618632Y2910525D01*
X43825475Y3117368D01*
X43942000Y3291760D01*
X44058525Y3117368D01*
X44265368Y2910525D01*
X44508589Y2748010D01*
X44778842Y2636068D01*
X45065740Y2579000D01*
X45358260Y2579000D01*
X45645158Y2636068D01*
X45915411Y2748010D01*
X46158632Y2910525D01*
X46365475Y3117368D01*
X46487195Y3299534D01*
X46556822Y3182645D01*
X46751731Y2966412D01*
X46985080Y2792359D01*
X47247901Y2667175D01*
X47395110Y2622524D01*
X47625000Y2743845D01*
X47625000Y3937000D01*
X47605000Y3937000D01*
X47605000Y4191000D01*
X47625000Y4191000D01*
X47625000Y4211000D01*
X47879000Y4211000D01*
X47879000Y4191000D01*
X47899000Y4191000D01*
X47899000Y3937000D01*
X47879000Y3937000D01*
X47879000Y2743845D01*
X48108890Y2622524D01*
X48256099Y2667175D01*
X48518920Y2792359D01*
X48752269Y2966412D01*
X48947178Y3182645D01*
X49016805Y3299534D01*
X49138525Y3117368D01*
X49345368Y2910525D01*
X49588589Y2748010D01*
X49858842Y2636068D01*
X50145740Y2579000D01*
X50438260Y2579000D01*
X50725158Y2636068D01*
X50995411Y2748010D01*
X51238632Y2910525D01*
X51445475Y3117368D01*
X51562000Y3291760D01*
X51678525Y3117368D01*
X51885368Y2910525D01*
X52128589Y2748010D01*
X52398842Y2636068D01*
X52685740Y2579000D01*
X52978260Y2579000D01*
X53265158Y2636068D01*
X53535411Y2748010D01*
X53778632Y2910525D01*
X53985475Y3117368D01*
X54102000Y3291760D01*
X54218525Y3117368D01*
X54425368Y2910525D01*
X54668589Y2748010D01*
X54938842Y2636068D01*
X55225740Y2579000D01*
X55518260Y2579000D01*
X55805158Y2636068D01*
X56075411Y2748010D01*
X56318632Y2910525D01*
X56525475Y3117368D01*
X56642000Y3291760D01*
X56758525Y3117368D01*
X56965368Y2910525D01*
X57208589Y2748010D01*
X57478842Y2636068D01*
X57765740Y2579000D01*
X58058260Y2579000D01*
X58345158Y2636068D01*
X58615411Y2748010D01*
X58858632Y2910525D01*
X59065475Y3117368D01*
X59182000Y3291760D01*
X59298525Y3117368D01*
X59505368Y2910525D01*
X59748589Y2748010D01*
X60018842Y2636068D01*
X60305740Y2579000D01*
X60598260Y2579000D01*
X60885158Y2636068D01*
X61155411Y2748010D01*
X61398632Y2910525D01*
X61605475Y3117368D01*
X61722000Y3291760D01*
X61838525Y3117368D01*
X62045368Y2910525D01*
X62288589Y2748010D01*
X62558842Y2636068D01*
X62845740Y2579000D01*
X63138260Y2579000D01*
X63425158Y2636068D01*
X63695411Y2748010D01*
X63938632Y2910525D01*
X64145475Y3117368D01*
X64262000Y3291760D01*
X64378525Y3117368D01*
X64585368Y2910525D01*
X64828589Y2748010D01*
X65098842Y2636068D01*
X65385740Y2579000D01*
X65678260Y2579000D01*
X65965158Y2636068D01*
X66235411Y2748010D01*
X66478632Y2910525D01*
X66685475Y3117368D01*
X66802000Y3291760D01*
X66918525Y3117368D01*
X67125368Y2910525D01*
X67368589Y2748010D01*
X67638842Y2636068D01*
X67925740Y2579000D01*
X68218260Y2579000D01*
X68505158Y2636068D01*
X68775411Y2748010D01*
X69018632Y2910525D01*
X69225475Y3117368D01*
X69342000Y3291760D01*
X69458525Y3117368D01*
X69665368Y2910525D01*
X69908589Y2748010D01*
X70178842Y2636068D01*
X70465740Y2579000D01*
X70758260Y2579000D01*
X71045158Y2636068D01*
X71315411Y2748010D01*
X71558632Y2910525D01*
X71765475Y3117368D01*
X71882000Y3291760D01*
X71998525Y3117368D01*
X72205368Y2910525D01*
X72448589Y2748010D01*
X72718842Y2636068D01*
X73005740Y2579000D01*
X73298260Y2579000D01*
X73585158Y2636068D01*
X73855411Y2748010D01*
X74098632Y2910525D01*
X74305475Y3117368D01*
X74422000Y3291760D01*
X74538525Y3117368D01*
X74745368Y2910525D01*
X74988589Y2748010D01*
X75258842Y2636068D01*
X75545740Y2579000D01*
X75838260Y2579000D01*
X76125158Y2636068D01*
X76395411Y2748010D01*
X76638632Y2910525D01*
X76845475Y3117368D01*
X76962000Y3291760D01*
X77078525Y3117368D01*
X77285368Y2910525D01*
X77528589Y2748010D01*
X77798842Y2636068D01*
X78085740Y2579000D01*
X78378260Y2579000D01*
X78665158Y2636068D01*
X78935411Y2748010D01*
X79178632Y2910525D01*
X79385475Y3117368D01*
X79547990Y3360589D01*
X79659932Y3630842D01*
X79717000Y3917740D01*
X79717000Y4210260D01*
X79659932Y4497158D01*
X79547990Y4767411D01*
X79385475Y5010632D01*
X79253620Y5142487D01*
X79326180Y5164498D01*
X79436494Y5223463D01*
X79533185Y5302815D01*
X79612537Y5399506D01*
X79671502Y5509820D01*
X79707812Y5629518D01*
X79720072Y5754000D01*
X79720072Y7454000D01*
X79707812Y7578482D01*
X79671502Y7698180D01*
X79612537Y7808494D01*
X79533185Y7905185D01*
X79436494Y7984537D01*
X79326180Y8043502D01*
X79206482Y8079812D01*
X79082000Y8092072D01*
X77818730Y8092072D01*
X77271803Y8638998D01*
X77248001Y8668001D01*
X77132276Y8762974D01*
X77000247Y8833546D01*
X76856986Y8877003D01*
X76745333Y8888000D01*
X76745322Y8888000D01*
X76708000Y8891676D01*
X76670678Y8888000D01*
X75983535Y8888000D01*
X75880889Y8956586D01*
X75710729Y9027068D01*
X75530089Y9063000D01*
X75345911Y9063000D01*
X75165271Y9027068D01*
X74995111Y8956586D01*
X74841972Y8854262D01*
X74711738Y8724028D01*
X74609414Y8570889D01*
X74538932Y8400729D01*
X74503000Y8220089D01*
X74503000Y8035911D01*
X74538932Y7855271D01*
X74609414Y7685111D01*
X74634885Y7646992D01*
X74538525Y7550632D01*
X74422000Y7376240D01*
X74305475Y7550632D01*
X74098632Y7757475D01*
X73855411Y7919990D01*
X73585158Y8031932D01*
X73298260Y8089000D01*
X73005740Y8089000D01*
X72718842Y8031932D01*
X72448589Y7919990D01*
X72205368Y7757475D01*
X71998525Y7550632D01*
X71882000Y7376240D01*
X71765475Y7550632D01*
X71558632Y7757475D01*
X71315411Y7919990D01*
X71045158Y8031932D01*
X70758260Y8089000D01*
X70465740Y8089000D01*
X70178842Y8031932D01*
X69908589Y7919990D01*
X69665368Y7757475D01*
X69458525Y7550632D01*
X69342000Y7376240D01*
X69225475Y7550632D01*
X69018632Y7757475D01*
X68775411Y7919990D01*
X68505158Y8031932D01*
X68218260Y8089000D01*
X67925740Y8089000D01*
X67638842Y8031932D01*
X67368589Y7919990D01*
X67125368Y7757475D01*
X66918525Y7550632D01*
X66802000Y7376240D01*
X66685475Y7550632D01*
X66478632Y7757475D01*
X66235411Y7919990D01*
X65965158Y8031932D01*
X65678260Y8089000D01*
X65385740Y8089000D01*
X65098842Y8031932D01*
X64828589Y7919990D01*
X64585368Y7757475D01*
X64378525Y7550632D01*
X64262000Y7376240D01*
X64145475Y7550632D01*
X63938632Y7757475D01*
X63695411Y7919990D01*
X63425158Y8031932D01*
X63138260Y8089000D01*
X62845740Y8089000D01*
X62558842Y8031932D01*
X62288589Y7919990D01*
X62045368Y7757475D01*
X61838525Y7550632D01*
X61722000Y7376240D01*
X61605475Y7550632D01*
X61398632Y7757475D01*
X61155411Y7919990D01*
X60885158Y8031932D01*
X60598260Y8089000D01*
X60305740Y8089000D01*
X60018842Y8031932D01*
X59748589Y7919990D01*
X59505368Y7757475D01*
X59298525Y7550632D01*
X59182000Y7376240D01*
X59065475Y7550632D01*
X58858632Y7757475D01*
X58615411Y7919990D01*
X58345158Y8031932D01*
X58058260Y8089000D01*
X57765740Y8089000D01*
X57478842Y8031932D01*
X57208589Y7919990D01*
X56965368Y7757475D01*
X56758525Y7550632D01*
X56642000Y7376240D01*
X56525475Y7550632D01*
X56318632Y7757475D01*
X56075411Y7919990D01*
X55805158Y8031932D01*
X55518260Y8089000D01*
X55225740Y8089000D01*
X54938842Y8031932D01*
X54668589Y7919990D01*
X54425368Y7757475D01*
X54218525Y7550632D01*
X54102000Y7376240D01*
X53985475Y7550632D01*
X53778632Y7757475D01*
X53535411Y7919990D01*
X53265158Y8031932D01*
X52978260Y8089000D01*
X52685740Y8089000D01*
X52398842Y8031932D01*
X52128589Y7919990D01*
X51885368Y7757475D01*
X51678525Y7550632D01*
X51556805Y7368466D01*
X51487178Y7485355D01*
X51292269Y7701588D01*
X51058920Y7875641D01*
X50796099Y8000825D01*
X50648890Y8045476D01*
X50419000Y7924155D01*
X50419000Y6731000D01*
X50439000Y6731000D01*
X50439000Y6477000D01*
X50419000Y6477000D01*
X50419000Y6457000D01*
X50165000Y6457000D01*
X50165000Y6477000D01*
X50145000Y6477000D01*
X50145000Y6731000D01*
X50165000Y6731000D01*
X50165000Y7924155D01*
X49935110Y8045476D01*
X49787901Y8000825D01*
X49525080Y7875641D01*
X49291731Y7701588D01*
X49096822Y7485355D01*
X49027195Y7368466D01*
X48905475Y7550632D01*
X48698632Y7757475D01*
X48455411Y7919990D01*
X48185158Y8031932D01*
X47898260Y8089000D01*
X47605740Y8089000D01*
X47318842Y8031932D01*
X47048589Y7919990D01*
X46805368Y7757475D01*
X46598525Y7550632D01*
X46482000Y7376240D01*
X46365475Y7550632D01*
X46158632Y7757475D01*
X45915411Y7919990D01*
X45645158Y8031932D01*
X45358260Y8089000D01*
X45065740Y8089000D01*
X44860665Y8048208D01*
X44841068Y8146729D01*
X44770586Y8316889D01*
X44668262Y8470028D01*
X44538028Y8600262D01*
X44537065Y8600906D01*
X44482001Y8668001D01*
X44366276Y8762974D01*
X44234247Y8833546D01*
X44090986Y8877003D01*
X43979333Y8888000D01*
X43904667Y8888000D01*
X43793014Y8877003D01*
X43649753Y8833546D01*
X43517724Y8762974D01*
X43401999Y8668001D01*
X43374095Y8634000D01*
X18579322Y8634000D01*
X18541999Y8637676D01*
X18504676Y8634000D01*
X18504667Y8634000D01*
X18393014Y8623003D01*
X18249753Y8579546D01*
X18117724Y8508974D01*
X18001999Y8414001D01*
X17978201Y8385003D01*
X17638408Y8045210D01*
X17418260Y8089000D01*
X17125740Y8089000D01*
X16838842Y8031932D01*
X16568589Y7919990D01*
X16325368Y7757475D01*
X16118525Y7550632D01*
X15956010Y7307411D01*
X15844068Y7037158D01*
X15787000Y6750260D01*
X8153121Y6750260D01*
X1352381Y13551000D01*
X41106928Y13551000D01*
X41119188Y13426518D01*
X41155498Y13306820D01*
X41214463Y13196506D01*
X41293815Y13099815D01*
X41390506Y13020463D01*
X41500820Y12961498D01*
X41620518Y12925188D01*
X41745000Y12912928D01*
X42259250Y12916000D01*
X42418000Y13074750D01*
X42418000Y14224000D01*
X41268750Y14224000D01*
X41110000Y14065250D01*
X41106928Y13551000D01*
X1352381Y13551000D01*
X685000Y14218380D01*
X685000Y15151000D01*
X41106928Y15151000D01*
X41110000Y14636750D01*
X41268750Y14478000D01*
X42418000Y14478000D01*
X42418000Y15627250D01*
X42672000Y15627250D01*
X42672000Y14478000D01*
X42692000Y14478000D01*
X42692000Y14224000D01*
X42672000Y14224000D01*
X42672000Y13074750D01*
X42830750Y12916000D01*
X43345000Y12912928D01*
X43469482Y12925188D01*
X43589180Y12961498D01*
X43699494Y13020463D01*
X43796185Y13099815D01*
X43875537Y13196506D01*
X43934502Y13306820D01*
X43970812Y13426518D01*
X43971643Y13434961D01*
X44170241Y13236363D01*
X44405273Y13079320D01*
X44666426Y12971147D01*
X44943665Y12916000D01*
X45226335Y12916000D01*
X45503574Y12971147D01*
X45764727Y13079320D01*
X45999759Y13236363D01*
X46199637Y13436241D01*
X46355000Y13668759D01*
X46510363Y13436241D01*
X46710241Y13236363D01*
X46945273Y13079320D01*
X47206426Y12971147D01*
X47483665Y12916000D01*
X47766335Y12916000D01*
X48043574Y12971147D01*
X48304727Y13079320D01*
X48539759Y13236363D01*
X48739637Y13436241D01*
X48895000Y13668759D01*
X49050363Y13436241D01*
X49250241Y13236363D01*
X49485273Y13079320D01*
X49746426Y12971147D01*
X50023665Y12916000D01*
X50306335Y12916000D01*
X50583574Y12971147D01*
X50844727Y13079320D01*
X51079759Y13236363D01*
X51279637Y13436241D01*
X51435000Y13668759D01*
X51590363Y13436241D01*
X51790241Y13236363D01*
X52025273Y13079320D01*
X52286426Y12971147D01*
X52563665Y12916000D01*
X52846335Y12916000D01*
X53123574Y12971147D01*
X53384727Y13079320D01*
X53619759Y13236363D01*
X53819637Y13436241D01*
X53975000Y13668759D01*
X54130363Y13436241D01*
X54330241Y13236363D01*
X54565273Y13079320D01*
X54826426Y12971147D01*
X55103665Y12916000D01*
X55386335Y12916000D01*
X55663574Y12971147D01*
X55924727Y13079320D01*
X56159759Y13236363D01*
X56359637Y13436241D01*
X56515000Y13668759D01*
X56670363Y13436241D01*
X56870241Y13236363D01*
X57105273Y13079320D01*
X57366426Y12971147D01*
X57643665Y12916000D01*
X57926335Y12916000D01*
X58203574Y12971147D01*
X58464727Y13079320D01*
X58699759Y13236363D01*
X58899637Y13436241D01*
X59055000Y13668759D01*
X59210363Y13436241D01*
X59410241Y13236363D01*
X59645273Y13079320D01*
X59906426Y12971147D01*
X60183665Y12916000D01*
X60466335Y12916000D01*
X60743574Y12971147D01*
X61004727Y13079320D01*
X61239759Y13236363D01*
X61439637Y13436241D01*
X61595000Y13668759D01*
X61750363Y13436241D01*
X61950241Y13236363D01*
X62185273Y13079320D01*
X62446426Y12971147D01*
X62723665Y12916000D01*
X63006335Y12916000D01*
X63283574Y12971147D01*
X63544727Y13079320D01*
X63779759Y13236363D01*
X63979637Y13436241D01*
X64135000Y13668759D01*
X64290363Y13436241D01*
X64490241Y13236363D01*
X64725273Y13079320D01*
X64986426Y12971147D01*
X65263665Y12916000D01*
X65546335Y12916000D01*
X65823574Y12971147D01*
X66084727Y13079320D01*
X66319759Y13236363D01*
X66519637Y13436241D01*
X66675000Y13668759D01*
X66830363Y13436241D01*
X67030241Y13236363D01*
X67265273Y13079320D01*
X67526426Y12971147D01*
X67803665Y12916000D01*
X68086335Y12916000D01*
X68363574Y12971147D01*
X68624727Y13079320D01*
X68859759Y13236363D01*
X69059637Y13436241D01*
X69215000Y13668759D01*
X69370363Y13436241D01*
X69570241Y13236363D01*
X69805273Y13079320D01*
X70066426Y12971147D01*
X70343665Y12916000D01*
X70626335Y12916000D01*
X70903574Y12971147D01*
X71164727Y13079320D01*
X71399759Y13236363D01*
X71599637Y13436241D01*
X71755000Y13668759D01*
X71910363Y13436241D01*
X72110241Y13236363D01*
X72345273Y13079320D01*
X72606426Y12971147D01*
X72883665Y12916000D01*
X73166335Y12916000D01*
X73443574Y12971147D01*
X73704727Y13079320D01*
X73939759Y13236363D01*
X74139637Y13436241D01*
X74295000Y13668759D01*
X74450363Y13436241D01*
X74650241Y13236363D01*
X74885273Y13079320D01*
X75146426Y12971147D01*
X75423665Y12916000D01*
X75706335Y12916000D01*
X75983574Y12971147D01*
X76244727Y13079320D01*
X76479759Y13236363D01*
X76679637Y13436241D01*
X76836680Y13671273D01*
X76944853Y13932426D01*
X77000000Y14209665D01*
X77000000Y14492335D01*
X76944853Y14769574D01*
X76836680Y15030727D01*
X76679637Y15265759D01*
X76479759Y15465637D01*
X76244727Y15622680D01*
X75983574Y15730853D01*
X75706335Y15786000D01*
X75423665Y15786000D01*
X75146426Y15730853D01*
X74885273Y15622680D01*
X74650241Y15465637D01*
X74450363Y15265759D01*
X74295000Y15033241D01*
X74139637Y15265759D01*
X73939759Y15465637D01*
X73704727Y15622680D01*
X73443574Y15730853D01*
X73166335Y15786000D01*
X72883665Y15786000D01*
X72606426Y15730853D01*
X72345273Y15622680D01*
X72110241Y15465637D01*
X71910363Y15265759D01*
X71755000Y15033241D01*
X71599637Y15265759D01*
X71399759Y15465637D01*
X71164727Y15622680D01*
X70903574Y15730853D01*
X70626335Y15786000D01*
X70343665Y15786000D01*
X70066426Y15730853D01*
X69805273Y15622680D01*
X69570241Y15465637D01*
X69370363Y15265759D01*
X69215000Y15033241D01*
X69059637Y15265759D01*
X68859759Y15465637D01*
X68624727Y15622680D01*
X68363574Y15730853D01*
X68086335Y15786000D01*
X67803665Y15786000D01*
X67526426Y15730853D01*
X67265273Y15622680D01*
X67030241Y15465637D01*
X66830363Y15265759D01*
X66675000Y15033241D01*
X66519637Y15265759D01*
X66319759Y15465637D01*
X66084727Y15622680D01*
X65823574Y15730853D01*
X65546335Y15786000D01*
X65263665Y15786000D01*
X64986426Y15730853D01*
X64725273Y15622680D01*
X64490241Y15465637D01*
X64290363Y15265759D01*
X64135000Y15033241D01*
X63979637Y15265759D01*
X63779759Y15465637D01*
X63544727Y15622680D01*
X63283574Y15730853D01*
X63006335Y15786000D01*
X62723665Y15786000D01*
X62446426Y15730853D01*
X62185273Y15622680D01*
X61950241Y15465637D01*
X61750363Y15265759D01*
X61595000Y15033241D01*
X61439637Y15265759D01*
X61239759Y15465637D01*
X61004727Y15622680D01*
X60743574Y15730853D01*
X60466335Y15786000D01*
X60183665Y15786000D01*
X59906426Y15730853D01*
X59645273Y15622680D01*
X59410241Y15465637D01*
X59210363Y15265759D01*
X59055000Y15033241D01*
X58899637Y15265759D01*
X58699759Y15465637D01*
X58464727Y15622680D01*
X58203574Y15730853D01*
X57926335Y15786000D01*
X57643665Y15786000D01*
X57366426Y15730853D01*
X57105273Y15622680D01*
X56870241Y15465637D01*
X56670363Y15265759D01*
X56515000Y15033241D01*
X56359637Y15265759D01*
X56159759Y15465637D01*
X55924727Y15622680D01*
X55663574Y15730853D01*
X55386335Y15786000D01*
X55103665Y15786000D01*
X54826426Y15730853D01*
X54565273Y15622680D01*
X54330241Y15465637D01*
X54130363Y15265759D01*
X53975000Y15033241D01*
X53819637Y15265759D01*
X53619759Y15465637D01*
X53384727Y15622680D01*
X53123574Y15730853D01*
X52846335Y15786000D01*
X52563665Y15786000D01*
X52286426Y15730853D01*
X52025273Y15622680D01*
X51790241Y15465637D01*
X51590363Y15265759D01*
X51435000Y15033241D01*
X51279637Y15265759D01*
X51079759Y15465637D01*
X50844727Y15622680D01*
X50583574Y15730853D01*
X50306335Y15786000D01*
X50023665Y15786000D01*
X49746426Y15730853D01*
X49485273Y15622680D01*
X49250241Y15465637D01*
X49050363Y15265759D01*
X48895000Y15033241D01*
X48739637Y15265759D01*
X48539759Y15465637D01*
X48304727Y15622680D01*
X48043574Y15730853D01*
X47766335Y15786000D01*
X47483665Y15786000D01*
X47206426Y15730853D01*
X46945273Y15622680D01*
X46710241Y15465637D01*
X46510363Y15265759D01*
X46355000Y15033241D01*
X46199637Y15265759D01*
X45999759Y15465637D01*
X45764727Y15622680D01*
X45503574Y15730853D01*
X45226335Y15786000D01*
X44943665Y15786000D01*
X44666426Y15730853D01*
X44405273Y15622680D01*
X44170241Y15465637D01*
X43971643Y15267039D01*
X43970812Y15275482D01*
X43934502Y15395180D01*
X43875537Y15505494D01*
X43796185Y15602185D01*
X43699494Y15681537D01*
X43589180Y15740502D01*
X43469482Y15776812D01*
X43345000Y15789072D01*
X42830750Y15786000D01*
X42672000Y15627250D01*
X42418000Y15627250D01*
X42259250Y15786000D01*
X41745000Y15789072D01*
X41620518Y15776812D01*
X41500820Y15740502D01*
X41390506Y15681537D01*
X41293815Y15602185D01*
X41214463Y15505494D01*
X41155498Y15395180D01*
X41119188Y15275482D01*
X41106928Y15151000D01*
X685000Y15151000D01*
X685000Y17945000D01*
X17484928Y17945000D01*
X17484928Y16345000D01*
X17497188Y16220518D01*
X17533498Y16100820D01*
X17592463Y15990506D01*
X17671815Y15893815D01*
X17768506Y15814463D01*
X17878820Y15755498D01*
X17998518Y15719188D01*
X18123000Y15706928D01*
X19723000Y15706928D01*
X19847482Y15719188D01*
X19967180Y15755498D01*
X20077494Y15814463D01*
X20174185Y15893815D01*
X20253537Y15990506D01*
X20312502Y16100820D01*
X20328117Y16152298D01*
X25729903Y16152298D01*
X25801486Y15908329D01*
X26056996Y15787429D01*
X26331184Y15718700D01*
X26613512Y15704783D01*
X26893130Y15746213D01*
X27159292Y15841397D01*
X27284514Y15908329D01*
X27356097Y16152298D01*
X26543000Y16965395D01*
X25729903Y16152298D01*
X20328117Y16152298D01*
X20348812Y16220518D01*
X20361072Y16345000D01*
X20361072Y17074488D01*
X25102783Y17074488D01*
X25144213Y16794870D01*
X25239397Y16528708D01*
X25306329Y16403486D01*
X25550298Y16331903D01*
X26363395Y17145000D01*
X26722605Y17145000D01*
X27535702Y16331903D01*
X27779671Y16403486D01*
X27900571Y16658996D01*
X27969300Y16933184D01*
X27983217Y17215512D01*
X27941787Y17495130D01*
X27846603Y17761292D01*
X27779671Y17886514D01*
X27535702Y17958097D01*
X26722605Y17145000D01*
X26363395Y17145000D01*
X25550298Y17958097D01*
X25306329Y17886514D01*
X25185429Y17631004D01*
X25116700Y17356816D01*
X25102783Y17074488D01*
X20361072Y17074488D01*
X20361072Y17945000D01*
X20348812Y18069482D01*
X20328118Y18137702D01*
X25729903Y18137702D01*
X26543000Y17324605D01*
X27356097Y18137702D01*
X27284514Y18381671D01*
X27029004Y18502571D01*
X26754816Y18571300D01*
X26472488Y18585217D01*
X26192870Y18543787D01*
X25926708Y18448603D01*
X25801486Y18381671D01*
X25729903Y18137702D01*
X20328118Y18137702D01*
X20312502Y18189180D01*
X20253537Y18299494D01*
X20174185Y18396185D01*
X20077494Y18475537D01*
X19967180Y18534502D01*
X19847482Y18570812D01*
X19723000Y18583072D01*
X18123000Y18583072D01*
X17998518Y18570812D01*
X17878820Y18534502D01*
X17768506Y18475537D01*
X17671815Y18396185D01*
X17592463Y18299494D01*
X17533498Y18189180D01*
X17497188Y18069482D01*
X17484928Y17945000D01*
X685000Y17945000D01*
X685000Y24906335D01*
X17488000Y24906335D01*
X17488000Y24623665D01*
X17543147Y24346426D01*
X17651320Y24085273D01*
X17808363Y23850241D01*
X17824501Y23834103D01*
X17824500Y23423693D01*
X17758595Y23343386D01*
X17676528Y23189850D01*
X17625992Y23023254D01*
X17608928Y22850000D01*
X17608928Y21600000D01*
X17625992Y21426746D01*
X17676528Y21260150D01*
X17758595Y21106614D01*
X17869038Y20972038D01*
X18003614Y20861595D01*
X18157150Y20779528D01*
X18323746Y20728992D01*
X18497000Y20711928D01*
X19422000Y20711928D01*
X19595254Y20728992D01*
X19761850Y20779528D01*
X19915386Y20861595D01*
X20049962Y20972038D01*
X20160405Y21106614D01*
X20242472Y21260150D01*
X20269727Y21350000D01*
X20583928Y21350000D01*
X20596188Y21225518D01*
X20632498Y21105820D01*
X20691463Y20995506D01*
X20770815Y20898815D01*
X20867506Y20819463D01*
X20977820Y20760498D01*
X21097518Y20724188D01*
X21222000Y20711928D01*
X21648750Y20715000D01*
X21807500Y20873750D01*
X21807500Y22098000D01*
X22061500Y22098000D01*
X22061500Y20873750D01*
X22220250Y20715000D01*
X22647000Y20711928D01*
X22771482Y20724188D01*
X22891180Y20760498D01*
X23001494Y20819463D01*
X23098185Y20898815D01*
X23177537Y20995506D01*
X23236502Y21105820D01*
X23272812Y21225518D01*
X23280254Y21301089D01*
X35387000Y21301089D01*
X35387000Y21116911D01*
X35422932Y20936271D01*
X35493414Y20766111D01*
X35595738Y20612972D01*
X35725972Y20482738D01*
X35879111Y20380414D01*
X36049271Y20309932D01*
X36170352Y20285847D01*
X37790201Y18665997D01*
X37813999Y18636999D01*
X37842997Y18613201D01*
X37929723Y18542026D01*
X38003538Y18502571D01*
X38061753Y18471454D01*
X38205014Y18427997D01*
X38316667Y18417000D01*
X38316677Y18417000D01*
X38354000Y18413324D01*
X38391323Y18417000D01*
X40983465Y18417000D01*
X41086111Y18348414D01*
X41256271Y18277932D01*
X41436911Y18242000D01*
X41621089Y18242000D01*
X41801729Y18277932D01*
X41971889Y18348414D01*
X42125028Y18450738D01*
X42255262Y18580972D01*
X42357586Y18734111D01*
X42428068Y18904271D01*
X42464000Y19084911D01*
X42464000Y19269089D01*
X42428068Y19449729D01*
X42357586Y19619889D01*
X42255262Y19773028D01*
X42125028Y19903262D01*
X41971889Y20005586D01*
X41801729Y20076068D01*
X41621089Y20112000D01*
X41436911Y20112000D01*
X41256271Y20076068D01*
X41086111Y20005586D01*
X40983465Y19937000D01*
X38668802Y19937000D01*
X37245153Y21360648D01*
X37221068Y21481729D01*
X37150586Y21651889D01*
X37048262Y21805028D01*
X36918028Y21935262D01*
X36764889Y22037586D01*
X36594729Y22108068D01*
X36414089Y22144000D01*
X36229911Y22144000D01*
X36049271Y22108068D01*
X35879111Y22037586D01*
X35725972Y21935262D01*
X35595738Y21805028D01*
X35493414Y21651889D01*
X35422932Y21481729D01*
X35387000Y21301089D01*
X23280254Y21301089D01*
X23285072Y21350000D01*
X23282000Y21939250D01*
X23123250Y22098000D01*
X22061500Y22098000D01*
X21807500Y22098000D01*
X20745750Y22098000D01*
X20587000Y21939250D01*
X20583928Y21350000D01*
X20269727Y21350000D01*
X20293008Y21426746D01*
X20310072Y21600000D01*
X20310072Y22850000D01*
X20293008Y23023254D01*
X20269728Y23100000D01*
X20583928Y23100000D01*
X20587000Y22510750D01*
X20745750Y22352000D01*
X21807500Y22352000D01*
X21807500Y23576250D01*
X22061500Y23576250D01*
X22061500Y22352000D01*
X23123250Y22352000D01*
X23282000Y22510750D01*
X23285072Y23100000D01*
X23272812Y23224482D01*
X23236502Y23344180D01*
X23177537Y23454494D01*
X23098185Y23551185D01*
X23001494Y23630537D01*
X22891180Y23689502D01*
X22771482Y23725812D01*
X22647000Y23738072D01*
X22220250Y23735000D01*
X22061500Y23576250D01*
X21807500Y23576250D01*
X21648750Y23735000D01*
X21222000Y23738072D01*
X21097518Y23725812D01*
X20977820Y23689502D01*
X20867506Y23630537D01*
X20770815Y23551185D01*
X20691463Y23454494D01*
X20632498Y23344180D01*
X20596188Y23224482D01*
X20583928Y23100000D01*
X20269728Y23100000D01*
X20242472Y23189850D01*
X20160405Y23343386D01*
X20094500Y23423692D01*
X20094500Y23935343D01*
X20194680Y24085273D01*
X20302853Y24346426D01*
X20358000Y24623665D01*
X20358000Y24906335D01*
X25108000Y24906335D01*
X25108000Y24623665D01*
X25163147Y24346426D01*
X25271320Y24085273D01*
X25428363Y23850241D01*
X25628241Y23650363D01*
X25863273Y23493320D01*
X26124426Y23385147D01*
X26401665Y23330000D01*
X26684335Y23330000D01*
X26961574Y23385147D01*
X27222727Y23493320D01*
X27457759Y23650363D01*
X27657637Y23850241D01*
X27814680Y24085273D01*
X27922853Y24346426D01*
X27978000Y24623665D01*
X27978000Y24906335D01*
X27922853Y25183574D01*
X27814680Y25444727D01*
X27657637Y25679759D01*
X27457759Y25879637D01*
X27222727Y26036680D01*
X27192984Y26049000D01*
X71202928Y26049000D01*
X71215188Y25924518D01*
X71251498Y25804820D01*
X71310463Y25694506D01*
X71389815Y25597815D01*
X71486506Y25518463D01*
X71596820Y25459498D01*
X71716518Y25423188D01*
X71841000Y25410928D01*
X72267750Y25414000D01*
X72426500Y25572750D01*
X72426500Y26797000D01*
X72680500Y26797000D01*
X72680500Y25572750D01*
X72839250Y25414000D01*
X73266000Y25410928D01*
X73390482Y25423188D01*
X73510180Y25459498D01*
X73620494Y25518463D01*
X73717185Y25597815D01*
X73796537Y25694506D01*
X73855502Y25804820D01*
X73891812Y25924518D01*
X73904072Y26049000D01*
X73901000Y26638250D01*
X73742250Y26797000D01*
X72680500Y26797000D01*
X72426500Y26797000D01*
X71364750Y26797000D01*
X71206000Y26638250D01*
X71202928Y26049000D01*
X27192984Y26049000D01*
X26961574Y26144853D01*
X26684335Y26200000D01*
X26401665Y26200000D01*
X26124426Y26144853D01*
X25863273Y26036680D01*
X25628241Y25879637D01*
X25428363Y25679759D01*
X25271320Y25444727D01*
X25163147Y25183574D01*
X25108000Y24906335D01*
X20358000Y24906335D01*
X20302853Y25183574D01*
X20194680Y25444727D01*
X20037637Y25679759D01*
X19837759Y25879637D01*
X19602727Y26036680D01*
X19341574Y26144853D01*
X19064335Y26200000D01*
X18781665Y26200000D01*
X18504426Y26144853D01*
X18243273Y26036680D01*
X18008241Y25879637D01*
X17808363Y25679759D01*
X17651320Y25444727D01*
X17543147Y25183574D01*
X17488000Y24906335D01*
X685000Y24906335D01*
X685000Y28159089D01*
X40721000Y28159089D01*
X40721000Y27974911D01*
X40756932Y27794271D01*
X40827414Y27624111D01*
X40929738Y27470972D01*
X41059972Y27340738D01*
X41213111Y27238414D01*
X41383271Y27167932D01*
X41563911Y27132000D01*
X41748089Y27132000D01*
X41928729Y27167932D01*
X42098889Y27238414D01*
X42201535Y27307000D01*
X46063678Y27307000D01*
X46101000Y27303324D01*
X46138322Y27307000D01*
X46138333Y27307000D01*
X46249986Y27317997D01*
X46393247Y27361454D01*
X46525276Y27432026D01*
X46641001Y27526999D01*
X46664803Y27556002D01*
X47301114Y28192312D01*
X47483665Y28156000D01*
X47766335Y28156000D01*
X48043574Y28211147D01*
X48304727Y28319320D01*
X48539759Y28476363D01*
X48739637Y28676241D01*
X48895000Y28908759D01*
X49050363Y28676241D01*
X49250241Y28476363D01*
X49485273Y28319320D01*
X49746426Y28211147D01*
X50023665Y28156000D01*
X50306335Y28156000D01*
X50583574Y28211147D01*
X50844727Y28319320D01*
X51079759Y28476363D01*
X51279637Y28676241D01*
X51435000Y28908759D01*
X51590363Y28676241D01*
X51790241Y28476363D01*
X52025273Y28319320D01*
X52286426Y28211147D01*
X52563665Y28156000D01*
X52846335Y28156000D01*
X53123574Y28211147D01*
X53384727Y28319320D01*
X53619759Y28476363D01*
X53819637Y28676241D01*
X53975000Y28908759D01*
X54130363Y28676241D01*
X54330241Y28476363D01*
X54565273Y28319320D01*
X54826426Y28211147D01*
X55103665Y28156000D01*
X55386335Y28156000D01*
X55663574Y28211147D01*
X55924727Y28319320D01*
X56159759Y28476363D01*
X56359637Y28676241D01*
X56515000Y28908759D01*
X56670363Y28676241D01*
X56870241Y28476363D01*
X57105273Y28319320D01*
X57366426Y28211147D01*
X57643665Y28156000D01*
X57926335Y28156000D01*
X58203574Y28211147D01*
X58464727Y28319320D01*
X58699759Y28476363D01*
X58899637Y28676241D01*
X59055000Y28908759D01*
X59210363Y28676241D01*
X59410241Y28476363D01*
X59645273Y28319320D01*
X59906426Y28211147D01*
X60183665Y28156000D01*
X60466335Y28156000D01*
X60743574Y28211147D01*
X61004727Y28319320D01*
X61239759Y28476363D01*
X61439637Y28676241D01*
X61595000Y28908759D01*
X61750363Y28676241D01*
X61950241Y28476363D01*
X62185273Y28319320D01*
X62446426Y28211147D01*
X62723665Y28156000D01*
X63006335Y28156000D01*
X63283574Y28211147D01*
X63544727Y28319320D01*
X63779759Y28476363D01*
X63979637Y28676241D01*
X64135000Y28908759D01*
X64290363Y28676241D01*
X64490241Y28476363D01*
X64725273Y28319320D01*
X64986426Y28211147D01*
X65263665Y28156000D01*
X65546335Y28156000D01*
X65823574Y28211147D01*
X66084727Y28319320D01*
X66319759Y28476363D01*
X66519637Y28676241D01*
X66675000Y28908759D01*
X66830363Y28676241D01*
X67030241Y28476363D01*
X67265273Y28319320D01*
X67526426Y28211147D01*
X67803665Y28156000D01*
X68086335Y28156000D01*
X68363574Y28211147D01*
X68624727Y28319320D01*
X68859759Y28476363D01*
X69059637Y28676241D01*
X69216680Y28911273D01*
X69221067Y28921865D01*
X69332615Y28735869D01*
X69521586Y28527481D01*
X69747580Y28359963D01*
X70001913Y28239754D01*
X70135961Y28199096D01*
X70358000Y28321085D01*
X70358000Y29464000D01*
X70612000Y29464000D01*
X70612000Y28321085D01*
X70834039Y28199096D01*
X70968087Y28239754D01*
X71222420Y28359963D01*
X71448414Y28527481D01*
X71637385Y28735869D01*
X71755000Y28931982D01*
X71872615Y28735869D01*
X72061586Y28527481D01*
X72186914Y28434582D01*
X71841000Y28437072D01*
X71716518Y28424812D01*
X71596820Y28388502D01*
X71486506Y28329537D01*
X71389815Y28250185D01*
X71310463Y28153494D01*
X71251498Y28043180D01*
X71215188Y27923482D01*
X71202928Y27799000D01*
X71206000Y27209750D01*
X71364750Y27051000D01*
X72426500Y27051000D01*
X72426500Y27071000D01*
X72680500Y27071000D01*
X72680500Y27051000D01*
X73742250Y27051000D01*
X73901000Y27209750D01*
X73904072Y27799000D01*
X73891812Y27923482D01*
X73855502Y28043180D01*
X73796537Y28153494D01*
X73717185Y28250185D01*
X73648835Y28306278D01*
X73762420Y28359963D01*
X73988414Y28527481D01*
X74177385Y28735869D01*
X74288933Y28921865D01*
X74293320Y28911273D01*
X74393501Y28761342D01*
X74393500Y28122693D01*
X74327595Y28042386D01*
X74245528Y27888850D01*
X74194992Y27722254D01*
X74177928Y27549000D01*
X74177928Y26299000D01*
X74194992Y26125746D01*
X74245528Y25959150D01*
X74327595Y25805614D01*
X74438038Y25671038D01*
X74572614Y25560595D01*
X74726150Y25478528D01*
X74892746Y25427992D01*
X75066000Y25410928D01*
X75991000Y25410928D01*
X76164254Y25427992D01*
X76330850Y25478528D01*
X76484386Y25560595D01*
X76618962Y25671038D01*
X76729405Y25805614D01*
X76811472Y25959150D01*
X76862008Y26125746D01*
X76879072Y26299000D01*
X76879072Y27549000D01*
X76862008Y27722254D01*
X76811472Y27888850D01*
X76729405Y28042386D01*
X76663500Y28122692D01*
X76663500Y28660104D01*
X76679637Y28676241D01*
X76836680Y28911273D01*
X76944853Y29172426D01*
X77000000Y29449665D01*
X77000000Y29732335D01*
X76944853Y30009574D01*
X76836680Y30270727D01*
X76679637Y30505759D01*
X76479759Y30705637D01*
X76244727Y30862680D01*
X75983574Y30970853D01*
X75706335Y31026000D01*
X75423665Y31026000D01*
X75146426Y30970853D01*
X74885273Y30862680D01*
X74650241Y30705637D01*
X74450363Y30505759D01*
X74293320Y30270727D01*
X74288933Y30260135D01*
X74177385Y30446131D01*
X73988414Y30654519D01*
X73762420Y30822037D01*
X73508087Y30942246D01*
X73374039Y30982904D01*
X73152000Y30860915D01*
X73152000Y29718000D01*
X73172000Y29718000D01*
X73172000Y29464000D01*
X73152000Y29464000D01*
X73152000Y29444000D01*
X72898000Y29444000D01*
X72898000Y29464000D01*
X70612000Y29464000D01*
X70358000Y29464000D01*
X70338000Y29464000D01*
X70338000Y29718000D01*
X70358000Y29718000D01*
X70358000Y30860915D01*
X70612000Y30860915D01*
X70612000Y29718000D01*
X72898000Y29718000D01*
X72898000Y30860915D01*
X72675961Y30982904D01*
X72541913Y30942246D01*
X72287580Y30822037D01*
X72061586Y30654519D01*
X71872615Y30446131D01*
X71755000Y30250018D01*
X71637385Y30446131D01*
X71448414Y30654519D01*
X71222420Y30822037D01*
X70968087Y30942246D01*
X70834039Y30982904D01*
X70612000Y30860915D01*
X70358000Y30860915D01*
X70135961Y30982904D01*
X70001913Y30942246D01*
X69747580Y30822037D01*
X69521586Y30654519D01*
X69332615Y30446131D01*
X69221067Y30260135D01*
X69216680Y30270727D01*
X69059637Y30505759D01*
X68859759Y30705637D01*
X68624727Y30862680D01*
X68363574Y30970853D01*
X68086335Y31026000D01*
X67803665Y31026000D01*
X67526426Y30970853D01*
X67265273Y30862680D01*
X67030241Y30705637D01*
X66830363Y30505759D01*
X66675000Y30273241D01*
X66519637Y30505759D01*
X66319759Y30705637D01*
X66084727Y30862680D01*
X65823574Y30970853D01*
X65546335Y31026000D01*
X65263665Y31026000D01*
X64986426Y30970853D01*
X64725273Y30862680D01*
X64490241Y30705637D01*
X64290363Y30505759D01*
X64135000Y30273241D01*
X63979637Y30505759D01*
X63779759Y30705637D01*
X63544727Y30862680D01*
X63283574Y30970853D01*
X63006335Y31026000D01*
X62723665Y31026000D01*
X62446426Y30970853D01*
X62185273Y30862680D01*
X61950241Y30705637D01*
X61750363Y30505759D01*
X61595000Y30273241D01*
X61439637Y30505759D01*
X61239759Y30705637D01*
X61004727Y30862680D01*
X60743574Y30970853D01*
X60466335Y31026000D01*
X60183665Y31026000D01*
X59906426Y30970853D01*
X59645273Y30862680D01*
X59410241Y30705637D01*
X59210363Y30505759D01*
X59055000Y30273241D01*
X58899637Y30505759D01*
X58699759Y30705637D01*
X58464727Y30862680D01*
X58203574Y30970853D01*
X57926335Y31026000D01*
X57643665Y31026000D01*
X57366426Y30970853D01*
X57105273Y30862680D01*
X56870241Y30705637D01*
X56670363Y30505759D01*
X56515000Y30273241D01*
X56359637Y30505759D01*
X56159759Y30705637D01*
X55924727Y30862680D01*
X55663574Y30970853D01*
X55386335Y31026000D01*
X55103665Y31026000D01*
X54826426Y30970853D01*
X54565273Y30862680D01*
X54330241Y30705637D01*
X54130363Y30505759D01*
X53975000Y30273241D01*
X53819637Y30505759D01*
X53619759Y30705637D01*
X53384727Y30862680D01*
X53123574Y30970853D01*
X52846335Y31026000D01*
X52563665Y31026000D01*
X52286426Y30970853D01*
X52025273Y30862680D01*
X51790241Y30705637D01*
X51590363Y30505759D01*
X51435000Y30273241D01*
X51279637Y30505759D01*
X51079759Y30705637D01*
X50844727Y30862680D01*
X50583574Y30970853D01*
X50306335Y31026000D01*
X50023665Y31026000D01*
X49746426Y30970853D01*
X49485273Y30862680D01*
X49250241Y30705637D01*
X49050363Y30505759D01*
X48895000Y30273241D01*
X48739637Y30505759D01*
X48539759Y30705637D01*
X48304727Y30862680D01*
X48043574Y30970853D01*
X47766335Y31026000D01*
X47483665Y31026000D01*
X47206426Y30970853D01*
X46945273Y30862680D01*
X46710241Y30705637D01*
X46510363Y30505759D01*
X46355000Y30273241D01*
X46199637Y30505759D01*
X45999759Y30705637D01*
X45764727Y30862680D01*
X45503574Y30970853D01*
X45226335Y31026000D01*
X44943665Y31026000D01*
X44666426Y30970853D01*
X44405273Y30862680D01*
X44170241Y30705637D01*
X43970363Y30505759D01*
X43815000Y30273241D01*
X43659637Y30505759D01*
X43459759Y30705637D01*
X43224727Y30862680D01*
X42963574Y30970853D01*
X42686335Y31026000D01*
X42403665Y31026000D01*
X42126426Y30970853D01*
X41865273Y30862680D01*
X41630241Y30705637D01*
X41430363Y30505759D01*
X41273320Y30270727D01*
X41165147Y30009574D01*
X41110000Y29732335D01*
X41110000Y29449665D01*
X41165147Y29172426D01*
X41270049Y28919170D01*
X41213111Y28895586D01*
X41059972Y28793262D01*
X40929738Y28663028D01*
X40827414Y28509889D01*
X40756932Y28339729D01*
X40721000Y28159089D01*
X685000Y28159089D01*
X685000Y32200001D01*
X33956928Y32200001D01*
X33956928Y31299999D01*
X33973992Y31126745D01*
X34024528Y30960149D01*
X34106595Y30806613D01*
X34217038Y30672038D01*
X34351613Y30561595D01*
X34505149Y30479528D01*
X34671745Y30428992D01*
X34844999Y30411928D01*
X35495001Y30411928D01*
X35668255Y30428992D01*
X35834851Y30479528D01*
X35988387Y30561595D01*
X36122962Y30672038D01*
X36128342Y30678594D01*
X36193815Y30598815D01*
X36290506Y30519463D01*
X36400820Y30460498D01*
X36520518Y30424188D01*
X36645000Y30411928D01*
X36934250Y30415000D01*
X37093000Y30573750D01*
X37093000Y31623000D01*
X37347000Y31623000D01*
X37347000Y30573750D01*
X37505750Y30415000D01*
X37795000Y30411928D01*
X37919482Y30424188D01*
X38039180Y30460498D01*
X38149494Y30519463D01*
X38246185Y30598815D01*
X38325537Y30695506D01*
X38384502Y30805820D01*
X38420812Y30925518D01*
X38433072Y31050000D01*
X38430000Y31464250D01*
X38271250Y31623000D01*
X37347000Y31623000D01*
X37093000Y31623000D01*
X37073000Y31623000D01*
X37073000Y31877000D01*
X37093000Y31877000D01*
X37093000Y32926250D01*
X37347000Y32926250D01*
X37347000Y31877000D01*
X38271250Y31877000D01*
X38430000Y32035750D01*
X38433072Y32450000D01*
X38420812Y32574482D01*
X38384502Y32694180D01*
X38325537Y32804494D01*
X38246185Y32901185D01*
X38149494Y32980537D01*
X38039180Y33039502D01*
X37919482Y33075812D01*
X37795000Y33088072D01*
X37505750Y33085000D01*
X37347000Y32926250D01*
X37093000Y32926250D01*
X36934250Y33085000D01*
X36645000Y33088072D01*
X36520518Y33075812D01*
X36400820Y33039502D01*
X36290506Y32980537D01*
X36193815Y32901185D01*
X36128342Y32821406D01*
X36122962Y32827962D01*
X35988387Y32938405D01*
X35834851Y33020472D01*
X35668255Y33071008D01*
X35495001Y33088072D01*
X34844999Y33088072D01*
X34671745Y33071008D01*
X34505149Y33020472D01*
X34351613Y32938405D01*
X34217038Y32827962D01*
X34106595Y32693387D01*
X34024528Y32539851D01*
X33973992Y32373255D01*
X33956928Y32200001D01*
X685000Y32200001D01*
X685000Y36581501D01*
X33956928Y36581501D01*
X33956928Y35681499D01*
X33973992Y35508245D01*
X34024528Y35341649D01*
X34106595Y35188113D01*
X34217038Y35053538D01*
X34351613Y34943095D01*
X34505149Y34861028D01*
X34671745Y34810492D01*
X34844999Y34793428D01*
X35495001Y34793428D01*
X35668255Y34810492D01*
X35834851Y34861028D01*
X35988387Y34943095D01*
X36122962Y35053538D01*
X36128342Y35060094D01*
X36193815Y34980315D01*
X36290506Y34900963D01*
X36400820Y34841998D01*
X36520518Y34805688D01*
X36645000Y34793428D01*
X36934250Y34796500D01*
X37093000Y34955250D01*
X37093000Y36004500D01*
X37347000Y36004500D01*
X37347000Y34955250D01*
X37505750Y34796500D01*
X37795000Y34793428D01*
X37919482Y34805688D01*
X38039180Y34841998D01*
X38149494Y34900963D01*
X38246185Y34980315D01*
X38325537Y35077006D01*
X38384502Y35187320D01*
X38420812Y35307018D01*
X38433072Y35431500D01*
X38430000Y35845750D01*
X38271250Y36004500D01*
X37347000Y36004500D01*
X37093000Y36004500D01*
X37073000Y36004500D01*
X37073000Y36258500D01*
X37093000Y36258500D01*
X37093000Y37307750D01*
X37347000Y37307750D01*
X37347000Y36258500D01*
X38271250Y36258500D01*
X38430000Y36417250D01*
X38433072Y36831500D01*
X38420812Y36955982D01*
X38384502Y37075680D01*
X38325537Y37185994D01*
X38246185Y37282685D01*
X38149494Y37362037D01*
X38039180Y37421002D01*
X37919482Y37457312D01*
X37795000Y37469572D01*
X37505750Y37466500D01*
X37347000Y37307750D01*
X37093000Y37307750D01*
X36934250Y37466500D01*
X36645000Y37469572D01*
X36520518Y37457312D01*
X36400820Y37421002D01*
X36290506Y37362037D01*
X36193815Y37282685D01*
X36128342Y37202906D01*
X36122962Y37209462D01*
X35988387Y37319905D01*
X35834851Y37401972D01*
X35668255Y37452508D01*
X35495001Y37469572D01*
X34844999Y37469572D01*
X34671745Y37452508D01*
X34505149Y37401972D01*
X34351613Y37319905D01*
X34217038Y37209462D01*
X34106595Y37074887D01*
X34024528Y36921351D01*
X33973992Y36754755D01*
X33956928Y36581501D01*
X685000Y36581501D01*
X685000Y40156110D01*
X37928524Y40156110D01*
X37973175Y40008901D01*
X38098359Y39746080D01*
X38272412Y39512731D01*
X38488645Y39317822D01*
X38738748Y39168843D01*
X39013109Y39071519D01*
X39243000Y39192186D01*
X39243000Y40386000D01*
X39497000Y40386000D01*
X39497000Y39192186D01*
X39726891Y39071519D01*
X40001252Y39168843D01*
X40251355Y39317822D01*
X40467588Y39512731D01*
X40641641Y39746080D01*
X40766825Y40008901D01*
X40811476Y40156110D01*
X40690155Y40386000D01*
X39497000Y40386000D01*
X39243000Y40386000D01*
X38049845Y40386000D01*
X37928524Y40156110D01*
X685000Y40156110D01*
X685000Y54063000D01*
X37881928Y54063000D01*
X37881928Y52363000D01*
X37894188Y52238518D01*
X37930498Y52118820D01*
X37989463Y52008506D01*
X38068815Y51911815D01*
X38165506Y51832463D01*
X38275820Y51773498D01*
X38348380Y51751487D01*
X38216525Y51619632D01*
X38054010Y51376411D01*
X37942068Y51106158D01*
X37885000Y50819260D01*
X37885000Y50526740D01*
X37942068Y50239842D01*
X38054010Y49969589D01*
X38216525Y49726368D01*
X38423368Y49519525D01*
X38597760Y49403000D01*
X38423368Y49286475D01*
X38216525Y49079632D01*
X38054010Y48836411D01*
X37942068Y48566158D01*
X37885000Y48279260D01*
X37885000Y47986740D01*
X37942068Y47699842D01*
X38054010Y47429589D01*
X38216525Y47186368D01*
X38423368Y46979525D01*
X38597760Y46863000D01*
X38423368Y46746475D01*
X38216525Y46539632D01*
X38054010Y46296411D01*
X37942068Y46026158D01*
X37885000Y45739260D01*
X37885000Y45446740D01*
X37942068Y45159842D01*
X38054010Y44889589D01*
X38216525Y44646368D01*
X38423368Y44439525D01*
X38597760Y44323000D01*
X38423368Y44206475D01*
X38216525Y43999632D01*
X38054010Y43756411D01*
X37942068Y43486158D01*
X37885000Y43199260D01*
X37885000Y42906740D01*
X37942068Y42619842D01*
X38054010Y42349589D01*
X38216525Y42106368D01*
X38423368Y41899525D01*
X38605534Y41777805D01*
X38488645Y41708178D01*
X38272412Y41513269D01*
X38098359Y41279920D01*
X37973175Y41017099D01*
X37928524Y40869890D01*
X38049845Y40640000D01*
X39243000Y40640000D01*
X39243000Y40660000D01*
X39497000Y40660000D01*
X39497000Y40640000D01*
X40690155Y40640000D01*
X40811476Y40869890D01*
X40766825Y41017099D01*
X40641641Y41279920D01*
X40467588Y41513269D01*
X40251355Y41708178D01*
X40134466Y41777805D01*
X40316632Y41899525D01*
X40523475Y42106368D01*
X40685990Y42349589D01*
X40797932Y42619842D01*
X40855000Y42906740D01*
X40855000Y43199260D01*
X40797932Y43486158D01*
X40685990Y43756411D01*
X40523475Y43999632D01*
X40316632Y44206475D01*
X40142240Y44323000D01*
X40316632Y44439525D01*
X40523475Y44646368D01*
X40685990Y44889589D01*
X40797932Y45159842D01*
X40855000Y45446740D01*
X40855000Y45739260D01*
X40797932Y46026158D01*
X40685990Y46296411D01*
X40523475Y46539632D01*
X40316632Y46746475D01*
X40142240Y46863000D01*
X40316632Y46979525D01*
X40523475Y47186368D01*
X40648178Y47373000D01*
X45809465Y47373000D01*
X45912111Y47304414D01*
X46082271Y47233932D01*
X46262911Y47198000D01*
X46447089Y47198000D01*
X46627729Y47233932D01*
X46797889Y47304414D01*
X46951028Y47406738D01*
X47081262Y47536972D01*
X47183586Y47690111D01*
X47254068Y47860271D01*
X47290000Y48040911D01*
X47290000Y48225089D01*
X47254068Y48405729D01*
X47183586Y48575889D01*
X47081262Y48729028D01*
X46951028Y48859262D01*
X46797889Y48961586D01*
X46627729Y49032068D01*
X46447089Y49068000D01*
X46262911Y49068000D01*
X46082271Y49032068D01*
X45912111Y48961586D01*
X45809465Y48893000D01*
X40648178Y48893000D01*
X40523475Y49079632D01*
X40316632Y49286475D01*
X40142240Y49403000D01*
X40316632Y49519525D01*
X40523475Y49726368D01*
X40685990Y49969589D01*
X40797932Y50239842D01*
X40855000Y50526740D01*
X40855000Y50819260D01*
X40797932Y51106158D01*
X40685990Y51376411D01*
X40523475Y51619632D01*
X40391620Y51751487D01*
X40464180Y51773498D01*
X40574494Y51832463D01*
X40671185Y51911815D01*
X40750537Y52008506D01*
X40809502Y52118820D01*
X40845812Y52238518D01*
X40858072Y52363000D01*
X40858072Y54063000D01*
X40845812Y54187482D01*
X40809502Y54307180D01*
X40750537Y54417494D01*
X40671185Y54514185D01*
X40574494Y54593537D01*
X40464180Y54652502D01*
X40344482Y54688812D01*
X40220000Y54701072D01*
X38520000Y54701072D01*
X38395518Y54688812D01*
X38275820Y54652502D01*
X38165506Y54593537D01*
X38068815Y54514185D01*
X37989463Y54417494D01*
X37930498Y54307180D01*
X37894188Y54187482D01*
X37881928Y54063000D01*
X685000Y54063000D01*
X685000Y57945647D01*
X675711Y58039956D01*
X691653Y58202542D01*
X776031Y58482018D01*
X913085Y58739780D01*
X1097599Y58966015D01*
X1322540Y59152103D01*
X1579342Y59290956D01*
X1858219Y59377282D01*
X2030268Y59395365D01*
X2125353Y59386000D01*
G37*
X2125353Y59386000D02*
X78646647Y59386000D01*
X78740956Y59395289D01*
X78903542Y59379347D01*
X79183018Y59294969D01*
X79440780Y59157915D01*
X79667015Y58973401D01*
X79853103Y58748460D01*
X79991956Y58491658D01*
X80078282Y58212781D01*
X80096365Y58040731D01*
X80087000Y57945646D01*
X80087001Y685000D01*
X14218381Y685000D01*
X8153121Y6750260D01*
X15787000Y6750260D01*
X15787000Y6457740D01*
X15844068Y6170842D01*
X15956010Y5900589D01*
X16118525Y5657368D01*
X16325368Y5450525D01*
X16499760Y5334000D01*
X16325368Y5217475D01*
X16118525Y5010632D01*
X15956010Y4767411D01*
X15844068Y4497158D01*
X15787000Y4210260D01*
X15787000Y3917740D01*
X15844068Y3630842D01*
X15956010Y3360589D01*
X16118525Y3117368D01*
X16325368Y2910525D01*
X16568589Y2748010D01*
X16838842Y2636068D01*
X17125740Y2579000D01*
X17418260Y2579000D01*
X17705158Y2636068D01*
X17975411Y2748010D01*
X18218632Y2910525D01*
X18425475Y3117368D01*
X18542000Y3291760D01*
X18658525Y3117368D01*
X18865368Y2910525D01*
X19108589Y2748010D01*
X19378842Y2636068D01*
X19665740Y2579000D01*
X19958260Y2579000D01*
X20245158Y2636068D01*
X20515411Y2748010D01*
X20758632Y2910525D01*
X20965475Y3117368D01*
X21082000Y3291760D01*
X21198525Y3117368D01*
X21405368Y2910525D01*
X21648589Y2748010D01*
X21918842Y2636068D01*
X22205740Y2579000D01*
X22498260Y2579000D01*
X22785158Y2636068D01*
X23055411Y2748010D01*
X23298632Y2910525D01*
X23505475Y3117368D01*
X23622000Y3291760D01*
X23738525Y3117368D01*
X23945368Y2910525D01*
X24188589Y2748010D01*
X24458842Y2636068D01*
X24745740Y2579000D01*
X25038260Y2579000D01*
X25325158Y2636068D01*
X25595411Y2748010D01*
X25838632Y2910525D01*
X26045475Y3117368D01*
X26162000Y3291760D01*
X26278525Y3117368D01*
X26485368Y2910525D01*
X26728589Y2748010D01*
X26998842Y2636068D01*
X27285740Y2579000D01*
X27578260Y2579000D01*
X27865158Y2636068D01*
X28135411Y2748010D01*
X28378632Y2910525D01*
X28585475Y3117368D01*
X28702000Y3291760D01*
X28818525Y3117368D01*
X29025368Y2910525D01*
X29268589Y2748010D01*
X29538842Y2636068D01*
X29825740Y2579000D01*
X30118260Y2579000D01*
X30405158Y2636068D01*
X30675411Y2748010D01*
X30918632Y2910525D01*
X31125475Y3117368D01*
X31242000Y3291760D01*
X31358525Y3117368D01*
X31565368Y2910525D01*
X31808589Y2748010D01*
X32078842Y2636068D01*
X32365740Y2579000D01*
X32658260Y2579000D01*
X32945158Y2636068D01*
X33215411Y2748010D01*
X33458632Y2910525D01*
X33665475Y3117368D01*
X33782000Y3291760D01*
X33898525Y3117368D01*
X34105368Y2910525D01*
X34348589Y2748010D01*
X34618842Y2636068D01*
X34905740Y2579000D01*
X35198260Y2579000D01*
X35485158Y2636068D01*
X35755411Y2748010D01*
X35998632Y2910525D01*
X36205475Y3117368D01*
X36322000Y3291760D01*
X36438525Y3117368D01*
X36645368Y2910525D01*
X36888589Y2748010D01*
X37158842Y2636068D01*
X37445740Y2579000D01*
X37738260Y2579000D01*
X38025158Y2636068D01*
X38295411Y2748010D01*
X38538632Y2910525D01*
X38745475Y3117368D01*
X38862000Y3291760D01*
X38978525Y3117368D01*
X39185368Y2910525D01*
X39428589Y2748010D01*
X39698842Y2636068D01*
X39985740Y2579000D01*
X40278260Y2579000D01*
X40565158Y2636068D01*
X40835411Y2748010D01*
X41078632Y2910525D01*
X41285475Y3117368D01*
X41402000Y3291760D01*
X41518525Y3117368D01*
X41725368Y2910525D01*
X41968589Y2748010D01*
X42238842Y2636068D01*
X42525740Y2579000D01*
X42818260Y2579000D01*
X43105158Y2636068D01*
X43375411Y2748010D01*
X43618632Y2910525D01*
X43825475Y3117368D01*
X43942000Y3291760D01*
X44058525Y3117368D01*
X44265368Y2910525D01*
X44508589Y2748010D01*
X44778842Y2636068D01*
X45065740Y2579000D01*
X45358260Y2579000D01*
X45645158Y2636068D01*
X45915411Y2748010D01*
X46158632Y2910525D01*
X46365475Y3117368D01*
X46487195Y3299534D01*
X46556822Y3182645D01*
X46751731Y2966412D01*
X46985080Y2792359D01*
X47247901Y2667175D01*
X47395110Y2622524D01*
X47625000Y2743845D01*
X47625000Y3937000D01*
X47605000Y3937000D01*
X47605000Y4191000D01*
X47625000Y4191000D01*
X47625000Y4211000D01*
X47879000Y4211000D01*
X47879000Y4191000D01*
X47899000Y4191000D01*
X47899000Y3937000D01*
X47879000Y3937000D01*
X47879000Y2743845D01*
X48108890Y2622524D01*
X48256099Y2667175D01*
X48518920Y2792359D01*
X48752269Y2966412D01*
X48947178Y3182645D01*
X49016805Y3299534D01*
X49138525Y3117368D01*
X49345368Y2910525D01*
X49588589Y2748010D01*
X49858842Y2636068D01*
X50145740Y2579000D01*
X50438260Y2579000D01*
X50725158Y2636068D01*
X50995411Y2748010D01*
X51238632Y2910525D01*
X51445475Y3117368D01*
X51562000Y3291760D01*
X51678525Y3117368D01*
X51885368Y2910525D01*
X52128589Y2748010D01*
X52398842Y2636068D01*
X52685740Y2579000D01*
X52978260Y2579000D01*
X53265158Y2636068D01*
X53535411Y2748010D01*
X53778632Y2910525D01*
X53985475Y3117368D01*
X54102000Y3291760D01*
X54218525Y3117368D01*
X54425368Y2910525D01*
X54668589Y2748010D01*
X54938842Y2636068D01*
X55225740Y2579000D01*
X55518260Y2579000D01*
X55805158Y2636068D01*
X56075411Y2748010D01*
X56318632Y2910525D01*
X56525475Y3117368D01*
X56642000Y3291760D01*
X56758525Y3117368D01*
X56965368Y2910525D01*
X57208589Y2748010D01*
X57478842Y2636068D01*
X57765740Y2579000D01*
X58058260Y2579000D01*
X58345158Y2636068D01*
X58615411Y2748010D01*
X58858632Y2910525D01*
X59065475Y3117368D01*
X59182000Y3291760D01*
X59298525Y3117368D01*
X59505368Y2910525D01*
X59748589Y2748010D01*
X60018842Y2636068D01*
X60305740Y2579000D01*
X60598260Y2579000D01*
X60885158Y2636068D01*
X61155411Y2748010D01*
X61398632Y2910525D01*
X61605475Y3117368D01*
X61722000Y3291760D01*
X61838525Y3117368D01*
X62045368Y2910525D01*
X62288589Y2748010D01*
X62558842Y2636068D01*
X62845740Y2579000D01*
X63138260Y2579000D01*
X63425158Y2636068D01*
X63695411Y2748010D01*
X63938632Y2910525D01*
X64145475Y3117368D01*
X64262000Y3291760D01*
X64378525Y3117368D01*
X64585368Y2910525D01*
X64828589Y2748010D01*
X65098842Y2636068D01*
X65385740Y2579000D01*
X65678260Y2579000D01*
X65965158Y2636068D01*
X66235411Y2748010D01*
X66478632Y2910525D01*
X66685475Y3117368D01*
X66802000Y3291760D01*
X66918525Y3117368D01*
X67125368Y2910525D01*
X67368589Y2748010D01*
X67638842Y2636068D01*
X67925740Y2579000D01*
X68218260Y2579000D01*
X68505158Y2636068D01*
X68775411Y2748010D01*
X69018632Y2910525D01*
X69225475Y3117368D01*
X69342000Y3291760D01*
X69458525Y3117368D01*
X69665368Y2910525D01*
X69908589Y2748010D01*
X70178842Y2636068D01*
X70465740Y2579000D01*
X70758260Y2579000D01*
X71045158Y2636068D01*
X71315411Y2748010D01*
X71558632Y2910525D01*
X71765475Y3117368D01*
X71882000Y3291760D01*
X71998525Y3117368D01*
X72205368Y2910525D01*
X72448589Y2748010D01*
X72718842Y2636068D01*
X73005740Y2579000D01*
X73298260Y2579000D01*
X73585158Y2636068D01*
X73855411Y2748010D01*
X74098632Y2910525D01*
X74305475Y3117368D01*
X74422000Y3291760D01*
X74538525Y3117368D01*
X74745368Y2910525D01*
X74988589Y2748010D01*
X75258842Y2636068D01*
X75545740Y2579000D01*
X75838260Y2579000D01*
X76125158Y2636068D01*
X76395411Y2748010D01*
X76638632Y2910525D01*
X76845475Y3117368D01*
X76962000Y3291760D01*
X77078525Y3117368D01*
X77285368Y2910525D01*
X77528589Y2748010D01*
X77798842Y2636068D01*
X78085740Y2579000D01*
X78378260Y2579000D01*
X78665158Y2636068D01*
X78935411Y2748010D01*
X79178632Y2910525D01*
X79385475Y3117368D01*
X79547990Y3360589D01*
X79659932Y3630842D01*
X79717000Y3917740D01*
X79717000Y4210260D01*
X79659932Y4497158D01*
X79547990Y4767411D01*
X79385475Y5010632D01*
X79253620Y5142487D01*
X79326180Y5164498D01*
X79436494Y5223463D01*
X79533185Y5302815D01*
X79612537Y5399506D01*
X79671502Y5509820D01*
X79707812Y5629518D01*
X79720072Y5754000D01*
X79720072Y7454000D01*
X79707812Y7578482D01*
X79671502Y7698180D01*
X79612537Y7808494D01*
X79533185Y7905185D01*
X79436494Y7984537D01*
X79326180Y8043502D01*
X79206482Y8079812D01*
X79082000Y8092072D01*
X77818730Y8092072D01*
X77271803Y8638998D01*
X77248001Y8668001D01*
X77132276Y8762974D01*
X77000247Y8833546D01*
X76856986Y8877003D01*
X76745333Y8888000D01*
X76745322Y8888000D01*
X76708000Y8891676D01*
X76670678Y8888000D01*
X75983535Y8888000D01*
X75880889Y8956586D01*
X75710729Y9027068D01*
X75530089Y9063000D01*
X75345911Y9063000D01*
X75165271Y9027068D01*
X74995111Y8956586D01*
X74841972Y8854262D01*
X74711738Y8724028D01*
X74609414Y8570889D01*
X74538932Y8400729D01*
X74503000Y8220089D01*
X74503000Y8035911D01*
X74538932Y7855271D01*
X74609414Y7685111D01*
X74634885Y7646992D01*
X74538525Y7550632D01*
X74422000Y7376240D01*
X74305475Y7550632D01*
X74098632Y7757475D01*
X73855411Y7919990D01*
X73585158Y8031932D01*
X73298260Y8089000D01*
X73005740Y8089000D01*
X72718842Y8031932D01*
X72448589Y7919990D01*
X72205368Y7757475D01*
X71998525Y7550632D01*
X71882000Y7376240D01*
X71765475Y7550632D01*
X71558632Y7757475D01*
X71315411Y7919990D01*
X71045158Y8031932D01*
X70758260Y8089000D01*
X70465740Y8089000D01*
X70178842Y8031932D01*
X69908589Y7919990D01*
X69665368Y7757475D01*
X69458525Y7550632D01*
X69342000Y7376240D01*
X69225475Y7550632D01*
X69018632Y7757475D01*
X68775411Y7919990D01*
X68505158Y8031932D01*
X68218260Y8089000D01*
X67925740Y8089000D01*
X67638842Y8031932D01*
X67368589Y7919990D01*
X67125368Y7757475D01*
X66918525Y7550632D01*
X66802000Y7376240D01*
X66685475Y7550632D01*
X66478632Y7757475D01*
X66235411Y7919990D01*
X65965158Y8031932D01*
X65678260Y8089000D01*
X65385740Y8089000D01*
X65098842Y8031932D01*
X64828589Y7919990D01*
X64585368Y7757475D01*
X64378525Y7550632D01*
X64262000Y7376240D01*
X64145475Y7550632D01*
X63938632Y7757475D01*
X63695411Y7919990D01*
X63425158Y8031932D01*
X63138260Y8089000D01*
X62845740Y8089000D01*
X62558842Y8031932D01*
X62288589Y7919990D01*
X62045368Y7757475D01*
X61838525Y7550632D01*
X61722000Y7376240D01*
X61605475Y7550632D01*
X61398632Y7757475D01*
X61155411Y7919990D01*
X60885158Y8031932D01*
X60598260Y8089000D01*
X60305740Y8089000D01*
X60018842Y8031932D01*
X59748589Y7919990D01*
X59505368Y7757475D01*
X59298525Y7550632D01*
X59182000Y7376240D01*
X59065475Y7550632D01*
X58858632Y7757475D01*
X58615411Y7919990D01*
X58345158Y8031932D01*
X58058260Y8089000D01*
X57765740Y8089000D01*
X57478842Y8031932D01*
X57208589Y7919990D01*
X56965368Y7757475D01*
X56758525Y7550632D01*
X56642000Y7376240D01*
X56525475Y7550632D01*
X56318632Y7757475D01*
X56075411Y7919990D01*
X55805158Y8031932D01*
X55518260Y8089000D01*
X55225740Y8089000D01*
X54938842Y8031932D01*
X54668589Y7919990D01*
X54425368Y7757475D01*
X54218525Y7550632D01*
X54102000Y7376240D01*
X53985475Y7550632D01*
X53778632Y7757475D01*
X53535411Y7919990D01*
X53265158Y8031932D01*
X52978260Y8089000D01*
X52685740Y8089000D01*
X52398842Y8031932D01*
X52128589Y7919990D01*
X51885368Y7757475D01*
X51678525Y7550632D01*
X51556805Y7368466D01*
X51487178Y7485355D01*
X51292269Y7701588D01*
X51058920Y7875641D01*
X50796099Y8000825D01*
X50648890Y8045476D01*
X50419000Y7924155D01*
X50419000Y6731000D01*
X50439000Y6731000D01*
X50439000Y6477000D01*
X50419000Y6477000D01*
X50419000Y6457000D01*
X50165000Y6457000D01*
X50165000Y6477000D01*
X50145000Y6477000D01*
X50145000Y6731000D01*
X50165000Y6731000D01*
X50165000Y7924155D01*
X49935110Y8045476D01*
X49787901Y8000825D01*
X49525080Y7875641D01*
X49291731Y7701588D01*
X49096822Y7485355D01*
X49027195Y7368466D01*
X48905475Y7550632D01*
X48698632Y7757475D01*
X48455411Y7919990D01*
X48185158Y8031932D01*
X47898260Y8089000D01*
X47605740Y8089000D01*
X47318842Y8031932D01*
X47048589Y7919990D01*
X46805368Y7757475D01*
X46598525Y7550632D01*
X46482000Y7376240D01*
X46365475Y7550632D01*
X46158632Y7757475D01*
X45915411Y7919990D01*
X45645158Y8031932D01*
X45358260Y8089000D01*
X45065740Y8089000D01*
X44860665Y8048208D01*
X44841068Y8146729D01*
X44770586Y8316889D01*
X44668262Y8470028D01*
X44538028Y8600262D01*
X44537065Y8600906D01*
X44482001Y8668001D01*
X44366276Y8762974D01*
X44234247Y8833546D01*
X44090986Y8877003D01*
X43979333Y8888000D01*
X43904667Y8888000D01*
X43793014Y8877003D01*
X43649753Y8833546D01*
X43517724Y8762974D01*
X43401999Y8668001D01*
X43374095Y8634000D01*
X18579322Y8634000D01*
X18541999Y8637676D01*
X18504676Y8634000D01*
X18504667Y8634000D01*
X18393014Y8623003D01*
X18249753Y8579546D01*
X18117724Y8508974D01*
X18001999Y8414001D01*
X17978201Y8385003D01*
X17638408Y8045210D01*
X17418260Y8089000D01*
X17125740Y8089000D01*
X16838842Y8031932D01*
X16568589Y7919990D01*
X16325368Y7757475D01*
X16118525Y7550632D01*
X15956010Y7307411D01*
X15844068Y7037158D01*
X15787000Y6750260D01*
X8153121Y6750260D01*
X1352381Y13551000D01*
X41106928Y13551000D01*
X41119188Y13426518D01*
X41155498Y13306820D01*
X41214463Y13196506D01*
X41293815Y13099815D01*
X41390506Y13020463D01*
X41500820Y12961498D01*
X41620518Y12925188D01*
X41745000Y12912928D01*
X42259250Y12916000D01*
X42418000Y13074750D01*
X42418000Y14224000D01*
X41268750Y14224000D01*
X41110000Y14065250D01*
X41106928Y13551000D01*
X1352381Y13551000D01*
X685000Y14218380D01*
X685000Y15151000D01*
X41106928Y15151000D01*
X41110000Y14636750D01*
X41268750Y14478000D01*
X42418000Y14478000D01*
X42418000Y15627250D01*
X42672000Y15627250D01*
X42672000Y14478000D01*
X42692000Y14478000D01*
X42692000Y14224000D01*
X42672000Y14224000D01*
X42672000Y13074750D01*
X42830750Y12916000D01*
X43345000Y12912928D01*
X43469482Y12925188D01*
X43589180Y12961498D01*
X43699494Y13020463D01*
X43796185Y13099815D01*
X43875537Y13196506D01*
X43934502Y13306820D01*
X43970812Y13426518D01*
X43971643Y13434961D01*
X44170241Y13236363D01*
X44405273Y13079320D01*
X44666426Y12971147D01*
X44943665Y12916000D01*
X45226335Y12916000D01*
X45503574Y12971147D01*
X45764727Y13079320D01*
X45999759Y13236363D01*
X46199637Y13436241D01*
X46355000Y13668759D01*
X46510363Y13436241D01*
X46710241Y13236363D01*
X46945273Y13079320D01*
X47206426Y12971147D01*
X47483665Y12916000D01*
X47766335Y12916000D01*
X48043574Y12971147D01*
X48304727Y13079320D01*
X48539759Y13236363D01*
X48739637Y13436241D01*
X48895000Y13668759D01*
X49050363Y13436241D01*
X49250241Y13236363D01*
X49485273Y13079320D01*
X49746426Y12971147D01*
X50023665Y12916000D01*
X50306335Y12916000D01*
X50583574Y12971147D01*
X50844727Y13079320D01*
X51079759Y13236363D01*
X51279637Y13436241D01*
X51435000Y13668759D01*
X51590363Y13436241D01*
X51790241Y13236363D01*
X52025273Y13079320D01*
X52286426Y12971147D01*
X52563665Y12916000D01*
X52846335Y12916000D01*
X53123574Y12971147D01*
X53384727Y13079320D01*
X53619759Y13236363D01*
X53819637Y13436241D01*
X53975000Y13668759D01*
X54130363Y13436241D01*
X54330241Y13236363D01*
X54565273Y13079320D01*
X54826426Y12971147D01*
X55103665Y12916000D01*
X55386335Y12916000D01*
X55663574Y12971147D01*
X55924727Y13079320D01*
X56159759Y13236363D01*
X56359637Y13436241D01*
X56515000Y13668759D01*
X56670363Y13436241D01*
X56870241Y13236363D01*
X57105273Y13079320D01*
X57366426Y12971147D01*
X57643665Y12916000D01*
X57926335Y12916000D01*
X58203574Y12971147D01*
X58464727Y13079320D01*
X58699759Y13236363D01*
X58899637Y13436241D01*
X59055000Y13668759D01*
X59210363Y13436241D01*
X59410241Y13236363D01*
X59645273Y13079320D01*
X59906426Y12971147D01*
X60183665Y12916000D01*
X60466335Y12916000D01*
X60743574Y12971147D01*
X61004727Y13079320D01*
X61239759Y13236363D01*
X61439637Y13436241D01*
X61595000Y13668759D01*
X61750363Y13436241D01*
X61950241Y13236363D01*
X62185273Y13079320D01*
X62446426Y12971147D01*
X62723665Y12916000D01*
X63006335Y12916000D01*
X63283574Y12971147D01*
X63544727Y13079320D01*
X63779759Y13236363D01*
X63979637Y13436241D01*
X64135000Y13668759D01*
X64290363Y13436241D01*
X64490241Y13236363D01*
X64725273Y13079320D01*
X64986426Y12971147D01*
X65263665Y12916000D01*
X65546335Y12916000D01*
X65823574Y12971147D01*
X66084727Y13079320D01*
X66319759Y13236363D01*
X66519637Y13436241D01*
X66675000Y13668759D01*
X66830363Y13436241D01*
X67030241Y13236363D01*
X67265273Y13079320D01*
X67526426Y12971147D01*
X67803665Y12916000D01*
X68086335Y12916000D01*
X68363574Y12971147D01*
X68624727Y13079320D01*
X68859759Y13236363D01*
X69059637Y13436241D01*
X69215000Y13668759D01*
X69370363Y13436241D01*
X69570241Y13236363D01*
X69805273Y13079320D01*
X70066426Y12971147D01*
X70343665Y12916000D01*
X70626335Y12916000D01*
X70903574Y12971147D01*
X71164727Y13079320D01*
X71399759Y13236363D01*
X71599637Y13436241D01*
X71755000Y13668759D01*
X71910363Y13436241D01*
X72110241Y13236363D01*
X72345273Y13079320D01*
X72606426Y12971147D01*
X72883665Y12916000D01*
X73166335Y12916000D01*
X73443574Y12971147D01*
X73704727Y13079320D01*
X73939759Y13236363D01*
X74139637Y13436241D01*
X74295000Y13668759D01*
X74450363Y13436241D01*
X74650241Y13236363D01*
X74885273Y13079320D01*
X75146426Y12971147D01*
X75423665Y12916000D01*
X75706335Y12916000D01*
X75983574Y12971147D01*
X76244727Y13079320D01*
X76479759Y13236363D01*
X76679637Y13436241D01*
X76836680Y13671273D01*
X76944853Y13932426D01*
X77000000Y14209665D01*
X77000000Y14492335D01*
X76944853Y14769574D01*
X76836680Y15030727D01*
X76679637Y15265759D01*
X76479759Y15465637D01*
X76244727Y15622680D01*
X75983574Y15730853D01*
X75706335Y15786000D01*
X75423665Y15786000D01*
X75146426Y15730853D01*
X74885273Y15622680D01*
X74650241Y15465637D01*
X74450363Y15265759D01*
X74295000Y15033241D01*
X74139637Y15265759D01*
X73939759Y15465637D01*
X73704727Y15622680D01*
X73443574Y15730853D01*
X73166335Y15786000D01*
X72883665Y15786000D01*
X72606426Y15730853D01*
X72345273Y15622680D01*
X72110241Y15465637D01*
X71910363Y15265759D01*
X71755000Y15033241D01*
X71599637Y15265759D01*
X71399759Y15465637D01*
X71164727Y15622680D01*
X70903574Y15730853D01*
X70626335Y15786000D01*
X70343665Y15786000D01*
X70066426Y15730853D01*
X69805273Y15622680D01*
X69570241Y15465637D01*
X69370363Y15265759D01*
X69215000Y15033241D01*
X69059637Y15265759D01*
X68859759Y15465637D01*
X68624727Y15622680D01*
X68363574Y15730853D01*
X68086335Y15786000D01*
X67803665Y15786000D01*
X67526426Y15730853D01*
X67265273Y15622680D01*
X67030241Y15465637D01*
X66830363Y15265759D01*
X66675000Y15033241D01*
X66519637Y15265759D01*
X66319759Y15465637D01*
X66084727Y15622680D01*
X65823574Y15730853D01*
X65546335Y15786000D01*
X65263665Y15786000D01*
X64986426Y15730853D01*
X64725273Y15622680D01*
X64490241Y15465637D01*
X64290363Y15265759D01*
X64135000Y15033241D01*
X63979637Y15265759D01*
X63779759Y15465637D01*
X63544727Y15622680D01*
X63283574Y15730853D01*
X63006335Y15786000D01*
X62723665Y15786000D01*
X62446426Y15730853D01*
X62185273Y15622680D01*
X61950241Y15465637D01*
X61750363Y15265759D01*
X61595000Y15033241D01*
X61439637Y15265759D01*
X61239759Y15465637D01*
X61004727Y15622680D01*
X60743574Y15730853D01*
X60466335Y15786000D01*
X60183665Y15786000D01*
X59906426Y15730853D01*
X59645273Y15622680D01*
X59410241Y15465637D01*
X59210363Y15265759D01*
X59055000Y15033241D01*
X58899637Y15265759D01*
X58699759Y15465637D01*
X58464727Y15622680D01*
X58203574Y15730853D01*
X57926335Y15786000D01*
X57643665Y15786000D01*
X57366426Y15730853D01*
X57105273Y15622680D01*
X56870241Y15465637D01*
X56670363Y15265759D01*
X56515000Y15033241D01*
X56359637Y15265759D01*
X56159759Y15465637D01*
X55924727Y15622680D01*
X55663574Y15730853D01*
X55386335Y15786000D01*
X55103665Y15786000D01*
X54826426Y15730853D01*
X54565273Y15622680D01*
X54330241Y15465637D01*
X54130363Y15265759D01*
X53975000Y15033241D01*
X53819637Y15265759D01*
X53619759Y15465637D01*
X53384727Y15622680D01*
X53123574Y15730853D01*
X52846335Y15786000D01*
X52563665Y15786000D01*
X52286426Y15730853D01*
X52025273Y15622680D01*
X51790241Y15465637D01*
X51590363Y15265759D01*
X51435000Y15033241D01*
X51279637Y15265759D01*
X51079759Y15465637D01*
X50844727Y15622680D01*
X50583574Y15730853D01*
X50306335Y15786000D01*
X50023665Y15786000D01*
X49746426Y15730853D01*
X49485273Y15622680D01*
X49250241Y15465637D01*
X49050363Y15265759D01*
X48895000Y15033241D01*
X48739637Y15265759D01*
X48539759Y15465637D01*
X48304727Y15622680D01*
X48043574Y15730853D01*
X47766335Y15786000D01*
X47483665Y15786000D01*
X47206426Y15730853D01*
X46945273Y15622680D01*
X46710241Y15465637D01*
X46510363Y15265759D01*
X46355000Y15033241D01*
X46199637Y15265759D01*
X45999759Y15465637D01*
X45764727Y15622680D01*
X45503574Y15730853D01*
X45226335Y15786000D01*
X44943665Y15786000D01*
X44666426Y15730853D01*
X44405273Y15622680D01*
X44170241Y15465637D01*
X43971643Y15267039D01*
X43970812Y15275482D01*
X43934502Y15395180D01*
X43875537Y15505494D01*
X43796185Y15602185D01*
X43699494Y15681537D01*
X43589180Y15740502D01*
X43469482Y15776812D01*
X43345000Y15789072D01*
X42830750Y15786000D01*
X42672000Y15627250D01*
X42418000Y15627250D01*
X42259250Y15786000D01*
X41745000Y15789072D01*
X41620518Y15776812D01*
X41500820Y15740502D01*
X41390506Y15681537D01*
X41293815Y15602185D01*
X41214463Y15505494D01*
X41155498Y15395180D01*
X41119188Y15275482D01*
X41106928Y15151000D01*
X685000Y15151000D01*
X685000Y17945000D01*
X17484928Y17945000D01*
X17484928Y16345000D01*
X17497188Y16220518D01*
X17533498Y16100820D01*
X17592463Y15990506D01*
X17671815Y15893815D01*
X17768506Y15814463D01*
X17878820Y15755498D01*
X17998518Y15719188D01*
X18123000Y15706928D01*
X19723000Y15706928D01*
X19847482Y15719188D01*
X19967180Y15755498D01*
X20077494Y15814463D01*
X20174185Y15893815D01*
X20253537Y15990506D01*
X20312502Y16100820D01*
X20328117Y16152298D01*
X25729903Y16152298D01*
X25801486Y15908329D01*
X26056996Y15787429D01*
X26331184Y15718700D01*
X26613512Y15704783D01*
X26893130Y15746213D01*
X27159292Y15841397D01*
X27284514Y15908329D01*
X27356097Y16152298D01*
X26543000Y16965395D01*
X25729903Y16152298D01*
X20328117Y16152298D01*
X20348812Y16220518D01*
X20361072Y16345000D01*
X20361072Y17074488D01*
X25102783Y17074488D01*
X25144213Y16794870D01*
X25239397Y16528708D01*
X25306329Y16403486D01*
X25550298Y16331903D01*
X26363395Y17145000D01*
X26722605Y17145000D01*
X27535702Y16331903D01*
X27779671Y16403486D01*
X27900571Y16658996D01*
X27969300Y16933184D01*
X27983217Y17215512D01*
X27941787Y17495130D01*
X27846603Y17761292D01*
X27779671Y17886514D01*
X27535702Y17958097D01*
X26722605Y17145000D01*
X26363395Y17145000D01*
X25550298Y17958097D01*
X25306329Y17886514D01*
X25185429Y17631004D01*
X25116700Y17356816D01*
X25102783Y17074488D01*
X20361072Y17074488D01*
X20361072Y17945000D01*
X20348812Y18069482D01*
X20328118Y18137702D01*
X25729903Y18137702D01*
X26543000Y17324605D01*
X27356097Y18137702D01*
X27284514Y18381671D01*
X27029004Y18502571D01*
X26754816Y18571300D01*
X26472488Y18585217D01*
X26192870Y18543787D01*
X25926708Y18448603D01*
X25801486Y18381671D01*
X25729903Y18137702D01*
X20328118Y18137702D01*
X20312502Y18189180D01*
X20253537Y18299494D01*
X20174185Y18396185D01*
X20077494Y18475537D01*
X19967180Y18534502D01*
X19847482Y18570812D01*
X19723000Y18583072D01*
X18123000Y18583072D01*
X17998518Y18570812D01*
X17878820Y18534502D01*
X17768506Y18475537D01*
X17671815Y18396185D01*
X17592463Y18299494D01*
X17533498Y18189180D01*
X17497188Y18069482D01*
X17484928Y17945000D01*
X685000Y17945000D01*
X685000Y24906335D01*
X17488000Y24906335D01*
X17488000Y24623665D01*
X17543147Y24346426D01*
X17651320Y24085273D01*
X17808363Y23850241D01*
X17824501Y23834103D01*
X17824500Y23423693D01*
X17758595Y23343386D01*
X17676528Y23189850D01*
X17625992Y23023254D01*
X17608928Y22850000D01*
X17608928Y21600000D01*
X17625992Y21426746D01*
X17676528Y21260150D01*
X17758595Y21106614D01*
X17869038Y20972038D01*
X18003614Y20861595D01*
X18157150Y20779528D01*
X18323746Y20728992D01*
X18497000Y20711928D01*
X19422000Y20711928D01*
X19595254Y20728992D01*
X19761850Y20779528D01*
X19915386Y20861595D01*
X20049962Y20972038D01*
X20160405Y21106614D01*
X20242472Y21260150D01*
X20269727Y21350000D01*
X20583928Y21350000D01*
X20596188Y21225518D01*
X20632498Y21105820D01*
X20691463Y20995506D01*
X20770815Y20898815D01*
X20867506Y20819463D01*
X20977820Y20760498D01*
X21097518Y20724188D01*
X21222000Y20711928D01*
X21648750Y20715000D01*
X21807500Y20873750D01*
X21807500Y22098000D01*
X22061500Y22098000D01*
X22061500Y20873750D01*
X22220250Y20715000D01*
X22647000Y20711928D01*
X22771482Y20724188D01*
X22891180Y20760498D01*
X23001494Y20819463D01*
X23098185Y20898815D01*
X23177537Y20995506D01*
X23236502Y21105820D01*
X23272812Y21225518D01*
X23280254Y21301089D01*
X35387000Y21301089D01*
X35387000Y21116911D01*
X35422932Y20936271D01*
X35493414Y20766111D01*
X35595738Y20612972D01*
X35725972Y20482738D01*
X35879111Y20380414D01*
X36049271Y20309932D01*
X36170352Y20285847D01*
X37790201Y18665997D01*
X37813999Y18636999D01*
X37842997Y18613201D01*
X37929723Y18542026D01*
X38003538Y18502571D01*
X38061753Y18471454D01*
X38205014Y18427997D01*
X38316667Y18417000D01*
X38316677Y18417000D01*
X38354000Y18413324D01*
X38391323Y18417000D01*
X40983465Y18417000D01*
X41086111Y18348414D01*
X41256271Y18277932D01*
X41436911Y18242000D01*
X41621089Y18242000D01*
X41801729Y18277932D01*
X41971889Y18348414D01*
X42125028Y18450738D01*
X42255262Y18580972D01*
X42357586Y18734111D01*
X42428068Y18904271D01*
X42464000Y19084911D01*
X42464000Y19269089D01*
X42428068Y19449729D01*
X42357586Y19619889D01*
X42255262Y19773028D01*
X42125028Y19903262D01*
X41971889Y20005586D01*
X41801729Y20076068D01*
X41621089Y20112000D01*
X41436911Y20112000D01*
X41256271Y20076068D01*
X41086111Y20005586D01*
X40983465Y19937000D01*
X38668802Y19937000D01*
X37245153Y21360648D01*
X37221068Y21481729D01*
X37150586Y21651889D01*
X37048262Y21805028D01*
X36918028Y21935262D01*
X36764889Y22037586D01*
X36594729Y22108068D01*
X36414089Y22144000D01*
X36229911Y22144000D01*
X36049271Y22108068D01*
X35879111Y22037586D01*
X35725972Y21935262D01*
X35595738Y21805028D01*
X35493414Y21651889D01*
X35422932Y21481729D01*
X35387000Y21301089D01*
X23280254Y21301089D01*
X23285072Y21350000D01*
X23282000Y21939250D01*
X23123250Y22098000D01*
X22061500Y22098000D01*
X21807500Y22098000D01*
X20745750Y22098000D01*
X20587000Y21939250D01*
X20583928Y21350000D01*
X20269727Y21350000D01*
X20293008Y21426746D01*
X20310072Y21600000D01*
X20310072Y22850000D01*
X20293008Y23023254D01*
X20269728Y23100000D01*
X20583928Y23100000D01*
X20587000Y22510750D01*
X20745750Y22352000D01*
X21807500Y22352000D01*
X21807500Y23576250D01*
X22061500Y23576250D01*
X22061500Y22352000D01*
X23123250Y22352000D01*
X23282000Y22510750D01*
X23285072Y23100000D01*
X23272812Y23224482D01*
X23236502Y23344180D01*
X23177537Y23454494D01*
X23098185Y23551185D01*
X23001494Y23630537D01*
X22891180Y23689502D01*
X22771482Y23725812D01*
X22647000Y23738072D01*
X22220250Y23735000D01*
X22061500Y23576250D01*
X21807500Y23576250D01*
X21648750Y23735000D01*
X21222000Y23738072D01*
X21097518Y23725812D01*
X20977820Y23689502D01*
X20867506Y23630537D01*
X20770815Y23551185D01*
X20691463Y23454494D01*
X20632498Y23344180D01*
X20596188Y23224482D01*
X20583928Y23100000D01*
X20269728Y23100000D01*
X20242472Y23189850D01*
X20160405Y23343386D01*
X20094500Y23423692D01*
X20094500Y23935343D01*
X20194680Y24085273D01*
X20302853Y24346426D01*
X20358000Y24623665D01*
X20358000Y24906335D01*
X25108000Y24906335D01*
X25108000Y24623665D01*
X25163147Y24346426D01*
X25271320Y24085273D01*
X25428363Y23850241D01*
X25628241Y23650363D01*
X25863273Y23493320D01*
X26124426Y23385147D01*
X26401665Y23330000D01*
X26684335Y23330000D01*
X26961574Y23385147D01*
X27222727Y23493320D01*
X27457759Y23650363D01*
X27657637Y23850241D01*
X27814680Y24085273D01*
X27922853Y24346426D01*
X27978000Y24623665D01*
X27978000Y24906335D01*
X27922853Y25183574D01*
X27814680Y25444727D01*
X27657637Y25679759D01*
X27457759Y25879637D01*
X27222727Y26036680D01*
X27192984Y26049000D01*
X71202928Y26049000D01*
X71215188Y25924518D01*
X71251498Y25804820D01*
X71310463Y25694506D01*
X71389815Y25597815D01*
X71486506Y25518463D01*
X71596820Y25459498D01*
X71716518Y25423188D01*
X71841000Y25410928D01*
X72267750Y25414000D01*
X72426500Y25572750D01*
X72426500Y26797000D01*
X72680500Y26797000D01*
X72680500Y25572750D01*
X72839250Y25414000D01*
X73266000Y25410928D01*
X73390482Y25423188D01*
X73510180Y25459498D01*
X73620494Y25518463D01*
X73717185Y25597815D01*
X73796537Y25694506D01*
X73855502Y25804820D01*
X73891812Y25924518D01*
X73904072Y26049000D01*
X73901000Y26638250D01*
X73742250Y26797000D01*
X72680500Y26797000D01*
X72426500Y26797000D01*
X71364750Y26797000D01*
X71206000Y26638250D01*
X71202928Y26049000D01*
X27192984Y26049000D01*
X26961574Y26144853D01*
X26684335Y26200000D01*
X26401665Y26200000D01*
X26124426Y26144853D01*
X25863273Y26036680D01*
X25628241Y25879637D01*
X25428363Y25679759D01*
X25271320Y25444727D01*
X25163147Y25183574D01*
X25108000Y24906335D01*
X20358000Y24906335D01*
X20302853Y25183574D01*
X20194680Y25444727D01*
X20037637Y25679759D01*
X19837759Y25879637D01*
X19602727Y26036680D01*
X19341574Y26144853D01*
X19064335Y26200000D01*
X18781665Y26200000D01*
X18504426Y26144853D01*
X18243273Y26036680D01*
X18008241Y25879637D01*
X17808363Y25679759D01*
X17651320Y25444727D01*
X17543147Y25183574D01*
X17488000Y24906335D01*
X685000Y24906335D01*
X685000Y28159089D01*
X40721000Y28159089D01*
X40721000Y27974911D01*
X40756932Y27794271D01*
X40827414Y27624111D01*
X40929738Y27470972D01*
X41059972Y27340738D01*
X41213111Y27238414D01*
X41383271Y27167932D01*
X41563911Y27132000D01*
X41748089Y27132000D01*
X41928729Y27167932D01*
X42098889Y27238414D01*
X42201535Y27307000D01*
X46063678Y27307000D01*
X46101000Y27303324D01*
X46138322Y27307000D01*
X46138333Y27307000D01*
X46249986Y27317997D01*
X46393247Y27361454D01*
X46525276Y27432026D01*
X46641001Y27526999D01*
X46664803Y27556002D01*
X47301114Y28192312D01*
X47483665Y28156000D01*
X47766335Y28156000D01*
X48043574Y28211147D01*
X48304727Y28319320D01*
X48539759Y28476363D01*
X48739637Y28676241D01*
X48895000Y28908759D01*
X49050363Y28676241D01*
X49250241Y28476363D01*
X49485273Y28319320D01*
X49746426Y28211147D01*
X50023665Y28156000D01*
X50306335Y28156000D01*
X50583574Y28211147D01*
X50844727Y28319320D01*
X51079759Y28476363D01*
X51279637Y28676241D01*
X51435000Y28908759D01*
X51590363Y28676241D01*
X51790241Y28476363D01*
X52025273Y28319320D01*
X52286426Y28211147D01*
X52563665Y28156000D01*
X52846335Y28156000D01*
X53123574Y28211147D01*
X53384727Y28319320D01*
X53619759Y28476363D01*
X53819637Y28676241D01*
X53975000Y28908759D01*
X54130363Y28676241D01*
X54330241Y28476363D01*
X54565273Y28319320D01*
X54826426Y28211147D01*
X55103665Y28156000D01*
X55386335Y28156000D01*
X55663574Y28211147D01*
X55924727Y28319320D01*
X56159759Y28476363D01*
X56359637Y28676241D01*
X56515000Y28908759D01*
X56670363Y28676241D01*
X56870241Y28476363D01*
X57105273Y28319320D01*
X57366426Y28211147D01*
X57643665Y28156000D01*
X57926335Y28156000D01*
X58203574Y28211147D01*
X58464727Y28319320D01*
X58699759Y28476363D01*
X58899637Y28676241D01*
X59055000Y28908759D01*
X59210363Y28676241D01*
X59410241Y28476363D01*
X59645273Y28319320D01*
X59906426Y28211147D01*
X60183665Y28156000D01*
X60466335Y28156000D01*
X60743574Y28211147D01*
X61004727Y28319320D01*
X61239759Y28476363D01*
X61439637Y28676241D01*
X61595000Y28908759D01*
X61750363Y28676241D01*
X61950241Y28476363D01*
X62185273Y28319320D01*
X62446426Y28211147D01*
X62723665Y28156000D01*
X63006335Y28156000D01*
X63283574Y28211147D01*
X63544727Y28319320D01*
X63779759Y28476363D01*
X63979637Y28676241D01*
X64135000Y28908759D01*
X64290363Y28676241D01*
X64490241Y28476363D01*
X64725273Y28319320D01*
X64986426Y28211147D01*
X65263665Y28156000D01*
X65546335Y28156000D01*
X65823574Y28211147D01*
X66084727Y28319320D01*
X66319759Y28476363D01*
X66519637Y28676241D01*
X66675000Y28908759D01*
X66830363Y28676241D01*
X67030241Y28476363D01*
X67265273Y28319320D01*
X67526426Y28211147D01*
X67803665Y28156000D01*
X68086335Y28156000D01*
X68363574Y28211147D01*
X68624727Y28319320D01*
X68859759Y28476363D01*
X69059637Y28676241D01*
X69216680Y28911273D01*
X69221067Y28921865D01*
X69332615Y28735869D01*
X69521586Y28527481D01*
X69747580Y28359963D01*
X70001913Y28239754D01*
X70135961Y28199096D01*
X70358000Y28321085D01*
X70358000Y29464000D01*
X70612000Y29464000D01*
X70612000Y28321085D01*
X70834039Y28199096D01*
X70968087Y28239754D01*
X71222420Y28359963D01*
X71448414Y28527481D01*
X71637385Y28735869D01*
X71755000Y28931982D01*
X71872615Y28735869D01*
X72061586Y28527481D01*
X72186914Y28434582D01*
X71841000Y28437072D01*
X71716518Y28424812D01*
X71596820Y28388502D01*
X71486506Y28329537D01*
X71389815Y28250185D01*
X71310463Y28153494D01*
X71251498Y28043180D01*
X71215188Y27923482D01*
X71202928Y27799000D01*
X71206000Y27209750D01*
X71364750Y27051000D01*
X72426500Y27051000D01*
X72426500Y27071000D01*
X72680500Y27071000D01*
X72680500Y27051000D01*
X73742250Y27051000D01*
X73901000Y27209750D01*
X73904072Y27799000D01*
X73891812Y27923482D01*
X73855502Y28043180D01*
X73796537Y28153494D01*
X73717185Y28250185D01*
X73648835Y28306278D01*
X73762420Y28359963D01*
X73988414Y28527481D01*
X74177385Y28735869D01*
X74288933Y28921865D01*
X74293320Y28911273D01*
X74393501Y28761342D01*
X74393500Y28122693D01*
X74327595Y28042386D01*
X74245528Y27888850D01*
X74194992Y27722254D01*
X74177928Y27549000D01*
X74177928Y26299000D01*
X74194992Y26125746D01*
X74245528Y25959150D01*
X74327595Y25805614D01*
X74438038Y25671038D01*
X74572614Y25560595D01*
X74726150Y25478528D01*
X74892746Y25427992D01*
X75066000Y25410928D01*
X75991000Y25410928D01*
X76164254Y25427992D01*
X76330850Y25478528D01*
X76484386Y25560595D01*
X76618962Y25671038D01*
X76729405Y25805614D01*
X76811472Y25959150D01*
X76862008Y26125746D01*
X76879072Y26299000D01*
X76879072Y27549000D01*
X76862008Y27722254D01*
X76811472Y27888850D01*
X76729405Y28042386D01*
X76663500Y28122692D01*
X76663500Y28660104D01*
X76679637Y28676241D01*
X76836680Y28911273D01*
X76944853Y29172426D01*
X77000000Y29449665D01*
X77000000Y29732335D01*
X76944853Y30009574D01*
X76836680Y30270727D01*
X76679637Y30505759D01*
X76479759Y30705637D01*
X76244727Y30862680D01*
X75983574Y30970853D01*
X75706335Y31026000D01*
X75423665Y31026000D01*
X75146426Y30970853D01*
X74885273Y30862680D01*
X74650241Y30705637D01*
X74450363Y30505759D01*
X74293320Y30270727D01*
X74288933Y30260135D01*
X74177385Y30446131D01*
X73988414Y30654519D01*
X73762420Y30822037D01*
X73508087Y30942246D01*
X73374039Y30982904D01*
X73152000Y30860915D01*
X73152000Y29718000D01*
X73172000Y29718000D01*
X73172000Y29464000D01*
X73152000Y29464000D01*
X73152000Y29444000D01*
X72898000Y29444000D01*
X72898000Y29464000D01*
X70612000Y29464000D01*
X70358000Y29464000D01*
X70338000Y29464000D01*
X70338000Y29718000D01*
X70358000Y29718000D01*
X70358000Y30860915D01*
X70612000Y30860915D01*
X70612000Y29718000D01*
X72898000Y29718000D01*
X72898000Y30860915D01*
X72675961Y30982904D01*
X72541913Y30942246D01*
X72287580Y30822037D01*
X72061586Y30654519D01*
X71872615Y30446131D01*
X71755000Y30250018D01*
X71637385Y30446131D01*
X71448414Y30654519D01*
X71222420Y30822037D01*
X70968087Y30942246D01*
X70834039Y30982904D01*
X70612000Y30860915D01*
X70358000Y30860915D01*
X70135961Y30982904D01*
X70001913Y30942246D01*
X69747580Y30822037D01*
X69521586Y30654519D01*
X69332615Y30446131D01*
X69221067Y30260135D01*
X69216680Y30270727D01*
X69059637Y30505759D01*
X68859759Y30705637D01*
X68624727Y30862680D01*
X68363574Y30970853D01*
X68086335Y31026000D01*
X67803665Y31026000D01*
X67526426Y30970853D01*
X67265273Y30862680D01*
X67030241Y30705637D01*
X66830363Y30505759D01*
X66675000Y30273241D01*
X66519637Y30505759D01*
X66319759Y30705637D01*
X66084727Y30862680D01*
X65823574Y30970853D01*
X65546335Y31026000D01*
X65263665Y31026000D01*
X64986426Y30970853D01*
X64725273Y30862680D01*
X64490241Y30705637D01*
X64290363Y30505759D01*
X64135000Y30273241D01*
X63979637Y30505759D01*
X63779759Y30705637D01*
X63544727Y30862680D01*
X63283574Y30970853D01*
X63006335Y31026000D01*
X62723665Y31026000D01*
X62446426Y30970853D01*
X62185273Y30862680D01*
X61950241Y30705637D01*
X61750363Y30505759D01*
X61595000Y30273241D01*
X61439637Y30505759D01*
X61239759Y30705637D01*
X61004727Y30862680D01*
X60743574Y30970853D01*
X60466335Y31026000D01*
X60183665Y31026000D01*
X59906426Y30970853D01*
X59645273Y30862680D01*
X59410241Y30705637D01*
X59210363Y30505759D01*
X59055000Y30273241D01*
X58899637Y30505759D01*
X58699759Y30705637D01*
X58464727Y30862680D01*
X58203574Y30970853D01*
X57926335Y31026000D01*
X57643665Y31026000D01*
X57366426Y30970853D01*
X57105273Y30862680D01*
X56870241Y30705637D01*
X56670363Y30505759D01*
X56515000Y30273241D01*
X56359637Y30505759D01*
X56159759Y30705637D01*
X55924727Y30862680D01*
X55663574Y30970853D01*
X55386335Y31026000D01*
X55103665Y31026000D01*
X54826426Y30970853D01*
X54565273Y30862680D01*
X54330241Y30705637D01*
X54130363Y30505759D01*
X53975000Y30273241D01*
X53819637Y30505759D01*
X53619759Y30705637D01*
X53384727Y30862680D01*
X53123574Y30970853D01*
X52846335Y31026000D01*
X52563665Y31026000D01*
X52286426Y30970853D01*
X52025273Y30862680D01*
X51790241Y30705637D01*
X51590363Y30505759D01*
X51435000Y30273241D01*
X51279637Y30505759D01*
X51079759Y30705637D01*
X50844727Y30862680D01*
X50583574Y30970853D01*
X50306335Y31026000D01*
X50023665Y31026000D01*
X49746426Y30970853D01*
X49485273Y30862680D01*
X49250241Y30705637D01*
X49050363Y30505759D01*
X48895000Y30273241D01*
X48739637Y30505759D01*
X48539759Y30705637D01*
X48304727Y30862680D01*
X48043574Y30970853D01*
X47766335Y31026000D01*
X47483665Y31026000D01*
X47206426Y30970853D01*
X46945273Y30862680D01*
X46710241Y30705637D01*
X46510363Y30505759D01*
X46355000Y30273241D01*
X46199637Y30505759D01*
X45999759Y30705637D01*
X45764727Y30862680D01*
X45503574Y30970853D01*
X45226335Y31026000D01*
X44943665Y31026000D01*
X44666426Y30970853D01*
X44405273Y30862680D01*
X44170241Y30705637D01*
X43970363Y30505759D01*
X43815000Y30273241D01*
X43659637Y30505759D01*
X43459759Y30705637D01*
X43224727Y30862680D01*
X42963574Y30970853D01*
X42686335Y31026000D01*
X42403665Y31026000D01*
X42126426Y30970853D01*
X41865273Y30862680D01*
X41630241Y30705637D01*
X41430363Y30505759D01*
X41273320Y30270727D01*
X41165147Y30009574D01*
X41110000Y29732335D01*
X41110000Y29449665D01*
X41165147Y29172426D01*
X41270049Y28919170D01*
X41213111Y28895586D01*
X41059972Y28793262D01*
X40929738Y28663028D01*
X40827414Y28509889D01*
X40756932Y28339729D01*
X40721000Y28159089D01*
X685000Y28159089D01*
X685000Y32200001D01*
X33956928Y32200001D01*
X33956928Y31299999D01*
X33973992Y31126745D01*
X34024528Y30960149D01*
X34106595Y30806613D01*
X34217038Y30672038D01*
X34351613Y30561595D01*
X34505149Y30479528D01*
X34671745Y30428992D01*
X34844999Y30411928D01*
X35495001Y30411928D01*
X35668255Y30428992D01*
X35834851Y30479528D01*
X35988387Y30561595D01*
X36122962Y30672038D01*
X36128342Y30678594D01*
X36193815Y30598815D01*
X36290506Y30519463D01*
X36400820Y30460498D01*
X36520518Y30424188D01*
X36645000Y30411928D01*
X36934250Y30415000D01*
X37093000Y30573750D01*
X37093000Y31623000D01*
X37347000Y31623000D01*
X37347000Y30573750D01*
X37505750Y30415000D01*
X37795000Y30411928D01*
X37919482Y30424188D01*
X38039180Y30460498D01*
X38149494Y30519463D01*
X38246185Y30598815D01*
X38325537Y30695506D01*
X38384502Y30805820D01*
X38420812Y30925518D01*
X38433072Y31050000D01*
X38430000Y31464250D01*
X38271250Y31623000D01*
X37347000Y31623000D01*
X37093000Y31623000D01*
X37073000Y31623000D01*
X37073000Y31877000D01*
X37093000Y31877000D01*
X37093000Y32926250D01*
X37347000Y32926250D01*
X37347000Y31877000D01*
X38271250Y31877000D01*
X38430000Y32035750D01*
X38433072Y32450000D01*
X38420812Y32574482D01*
X38384502Y32694180D01*
X38325537Y32804494D01*
X38246185Y32901185D01*
X38149494Y32980537D01*
X38039180Y33039502D01*
X37919482Y33075812D01*
X37795000Y33088072D01*
X37505750Y33085000D01*
X37347000Y32926250D01*
X37093000Y32926250D01*
X36934250Y33085000D01*
X36645000Y33088072D01*
X36520518Y33075812D01*
X36400820Y33039502D01*
X36290506Y32980537D01*
X36193815Y32901185D01*
X36128342Y32821406D01*
X36122962Y32827962D01*
X35988387Y32938405D01*
X35834851Y33020472D01*
X35668255Y33071008D01*
X35495001Y33088072D01*
X34844999Y33088072D01*
X34671745Y33071008D01*
X34505149Y33020472D01*
X34351613Y32938405D01*
X34217038Y32827962D01*
X34106595Y32693387D01*
X34024528Y32539851D01*
X33973992Y32373255D01*
X33956928Y32200001D01*
X685000Y32200001D01*
X685000Y36581501D01*
X33956928Y36581501D01*
X33956928Y35681499D01*
X33973992Y35508245D01*
X34024528Y35341649D01*
X34106595Y35188113D01*
X34217038Y35053538D01*
X34351613Y34943095D01*
X34505149Y34861028D01*
X34671745Y34810492D01*
X34844999Y34793428D01*
X35495001Y34793428D01*
X35668255Y34810492D01*
X35834851Y34861028D01*
X35988387Y34943095D01*
X36122962Y35053538D01*
X36128342Y35060094D01*
X36193815Y34980315D01*
X36290506Y34900963D01*
X36400820Y34841998D01*
X36520518Y34805688D01*
X36645000Y34793428D01*
X36934250Y34796500D01*
X37093000Y34955250D01*
X37093000Y36004500D01*
X37347000Y36004500D01*
X37347000Y34955250D01*
X37505750Y34796500D01*
X37795000Y34793428D01*
X37919482Y34805688D01*
X38039180Y34841998D01*
X38149494Y34900963D01*
X38246185Y34980315D01*
X38325537Y35077006D01*
X38384502Y35187320D01*
X38420812Y35307018D01*
X38433072Y35431500D01*
X38430000Y35845750D01*
X38271250Y36004500D01*
X37347000Y36004500D01*
X37093000Y36004500D01*
X37073000Y36004500D01*
X37073000Y36258500D01*
X37093000Y36258500D01*
X37093000Y37307750D01*
X37347000Y37307750D01*
X37347000Y36258500D01*
X38271250Y36258500D01*
X38430000Y36417250D01*
X38433072Y36831500D01*
X38420812Y36955982D01*
X38384502Y37075680D01*
X38325537Y37185994D01*
X38246185Y37282685D01*
X38149494Y37362037D01*
X38039180Y37421002D01*
X37919482Y37457312D01*
X37795000Y37469572D01*
X37505750Y37466500D01*
X37347000Y37307750D01*
X37093000Y37307750D01*
X36934250Y37466500D01*
X36645000Y37469572D01*
X36520518Y37457312D01*
X36400820Y37421002D01*
X36290506Y37362037D01*
X36193815Y37282685D01*
X36128342Y37202906D01*
X36122962Y37209462D01*
X35988387Y37319905D01*
X35834851Y37401972D01*
X35668255Y37452508D01*
X35495001Y37469572D01*
X34844999Y37469572D01*
X34671745Y37452508D01*
X34505149Y37401972D01*
X34351613Y37319905D01*
X34217038Y37209462D01*
X34106595Y37074887D01*
X34024528Y36921351D01*
X33973992Y36754755D01*
X33956928Y36581501D01*
X685000Y36581501D01*
X685000Y40156110D01*
X37928524Y40156110D01*
X37973175Y40008901D01*
X38098359Y39746080D01*
X38272412Y39512731D01*
X38488645Y39317822D01*
X38738748Y39168843D01*
X39013109Y39071519D01*
X39243000Y39192186D01*
X39243000Y40386000D01*
X39497000Y40386000D01*
X39497000Y39192186D01*
X39726891Y39071519D01*
X40001252Y39168843D01*
X40251355Y39317822D01*
X40467588Y39512731D01*
X40641641Y39746080D01*
X40766825Y40008901D01*
X40811476Y40156110D01*
X40690155Y40386000D01*
X39497000Y40386000D01*
X39243000Y40386000D01*
X38049845Y40386000D01*
X37928524Y40156110D01*
X685000Y40156110D01*
X685000Y54063000D01*
X37881928Y54063000D01*
X37881928Y52363000D01*
X37894188Y52238518D01*
X37930498Y52118820D01*
X37989463Y52008506D01*
X38068815Y51911815D01*
X38165506Y51832463D01*
X38275820Y51773498D01*
X38348380Y51751487D01*
X38216525Y51619632D01*
X38054010Y51376411D01*
X37942068Y51106158D01*
X37885000Y50819260D01*
X37885000Y50526740D01*
X37942068Y50239842D01*
X38054010Y49969589D01*
X38216525Y49726368D01*
X38423368Y49519525D01*
X38597760Y49403000D01*
X38423368Y49286475D01*
X38216525Y49079632D01*
X38054010Y48836411D01*
X37942068Y48566158D01*
X37885000Y48279260D01*
X37885000Y47986740D01*
X37942068Y47699842D01*
X38054010Y47429589D01*
X38216525Y47186368D01*
X38423368Y46979525D01*
X38597760Y46863000D01*
X38423368Y46746475D01*
X38216525Y46539632D01*
X38054010Y46296411D01*
X37942068Y46026158D01*
X37885000Y45739260D01*
X37885000Y45446740D01*
X37942068Y45159842D01*
X38054010Y44889589D01*
X38216525Y44646368D01*
X38423368Y44439525D01*
X38597760Y44323000D01*
X38423368Y44206475D01*
X38216525Y43999632D01*
X38054010Y43756411D01*
X37942068Y43486158D01*
X37885000Y43199260D01*
X37885000Y42906740D01*
X37942068Y42619842D01*
X38054010Y42349589D01*
X38216525Y42106368D01*
X38423368Y41899525D01*
X38605534Y41777805D01*
X38488645Y41708178D01*
X38272412Y41513269D01*
X38098359Y41279920D01*
X37973175Y41017099D01*
X37928524Y40869890D01*
X38049845Y40640000D01*
X39243000Y40640000D01*
X39243000Y40660000D01*
X39497000Y40660000D01*
X39497000Y40640000D01*
X40690155Y40640000D01*
X40811476Y40869890D01*
X40766825Y41017099D01*
X40641641Y41279920D01*
X40467588Y41513269D01*
X40251355Y41708178D01*
X40134466Y41777805D01*
X40316632Y41899525D01*
X40523475Y42106368D01*
X40685990Y42349589D01*
X40797932Y42619842D01*
X40855000Y42906740D01*
X40855000Y43199260D01*
X40797932Y43486158D01*
X40685990Y43756411D01*
X40523475Y43999632D01*
X40316632Y44206475D01*
X40142240Y44323000D01*
X40316632Y44439525D01*
X40523475Y44646368D01*
X40685990Y44889589D01*
X40797932Y45159842D01*
X40855000Y45446740D01*
X40855000Y45739260D01*
X40797932Y46026158D01*
X40685990Y46296411D01*
X40523475Y46539632D01*
X40316632Y46746475D01*
X40142240Y46863000D01*
X40316632Y46979525D01*
X40523475Y47186368D01*
X40648178Y47373000D01*
X45809465Y47373000D01*
X45912111Y47304414D01*
X46082271Y47233932D01*
X46262911Y47198000D01*
X46447089Y47198000D01*
X46627729Y47233932D01*
X46797889Y47304414D01*
X46951028Y47406738D01*
X47081262Y47536972D01*
X47183586Y47690111D01*
X47254068Y47860271D01*
X47290000Y48040911D01*
X47290000Y48225089D01*
X47254068Y48405729D01*
X47183586Y48575889D01*
X47081262Y48729028D01*
X46951028Y48859262D01*
X46797889Y48961586D01*
X46627729Y49032068D01*
X46447089Y49068000D01*
X46262911Y49068000D01*
X46082271Y49032068D01*
X45912111Y48961586D01*
X45809465Y48893000D01*
X40648178Y48893000D01*
X40523475Y49079632D01*
X40316632Y49286475D01*
X40142240Y49403000D01*
X40316632Y49519525D01*
X40523475Y49726368D01*
X40685990Y49969589D01*
X40797932Y50239842D01*
X40855000Y50526740D01*
X40855000Y50819260D01*
X40797932Y51106158D01*
X40685990Y51376411D01*
X40523475Y51619632D01*
X40391620Y51751487D01*
X40464180Y51773498D01*
X40574494Y51832463D01*
X40671185Y51911815D01*
X40750537Y52008506D01*
X40809502Y52118820D01*
X40845812Y52238518D01*
X40858072Y52363000D01*
X40858072Y54063000D01*
X40845812Y54187482D01*
X40809502Y54307180D01*
X40750537Y54417494D01*
X40671185Y54514185D01*
X40574494Y54593537D01*
X40464180Y54652502D01*
X40344482Y54688812D01*
X40220000Y54701072D01*
X38520000Y54701072D01*
X38395518Y54688812D01*
X38275820Y54652502D01*
X38165506Y54593537D01*
X38068815Y54514185D01*
X37989463Y54417494D01*
X37930498Y54307180D01*
X37894188Y54187482D01*
X37881928Y54063000D01*
X685000Y54063000D01*
X685000Y57945647D01*
X675711Y58039956D01*
X691653Y58202542D01*
X776031Y58482018D01*
X913085Y58739780D01*
X1097599Y58966015D01*
X1322540Y59152103D01*
X1579342Y59290956D01*
X1858219Y59377282D01*
X2030268Y59395365D01*
X2125353Y59386000D01*
%TD*%
M02*
