M48
; DRILL file {KiCad (5.1.6-0-10_14)} date Wednesday, January 13, 2021 at 12:48:21 AM
; FORMAT={-:-/ absolute / inch / decimal}
; #@! TF.CreationDate,2021-01-13T00:48:21+01:00
; #@! TF.GenerationSoftware,Kicad,Pcbnew,(5.1.6-0-10_14)
FMAT,2
INCH
T1C0.0118
T2C0.0157
T3C0.0315
T4C0.0394
%
G90
G05
T1
X1.43Y0.835
X1.635Y0.755
X1.64Y1.105
X1.73Y0.31
X1.825Y1.895
X2.97Y0.32
T2
X1.385Y1.4225
X1.385Y1.25
T3
X0.745Y0.975
X0.745Y0.675
X1.045Y0.975
X1.045Y0.675
X1.675Y1.165
X1.675Y0.565
X1.775Y1.165
X1.775Y0.565
X1.875Y1.165
X1.875Y0.565
X1.975Y1.165
X1.975Y0.565
X2.075Y1.165
X2.075Y0.565
X2.175Y1.165
X2.175Y0.565
X2.275Y1.165
X2.275Y0.565
X2.375Y1.165
X2.375Y0.565
X2.475Y1.165
X2.475Y0.565
X2.575Y1.165
X2.575Y0.565
X2.675Y1.165
X2.675Y0.565
X2.775Y1.165
X2.775Y0.565
X2.875Y1.165
X2.875Y0.565
X2.975Y1.165
X2.975Y0.565
T4
X1.55Y2.095
X1.55Y1.995
X1.55Y1.895
X1.55Y1.795
X1.55Y1.695
X1.55Y1.595
X0.68Y0.26
X0.68Y0.16
X0.78Y0.26
X0.78Y0.16
X0.88Y0.26
X0.88Y0.16
X0.98Y0.26
X0.98Y0.16
X1.08Y0.26
X1.08Y0.16
X1.18Y0.26
X1.18Y0.16
X1.28Y0.26
X1.28Y0.16
X1.38Y0.26
X1.38Y0.16
X1.48Y0.26
X1.48Y0.16
X1.58Y0.26
X1.58Y0.16
X1.68Y0.26
X1.68Y0.16
X1.78Y0.26
X1.78Y0.16
X1.88Y0.26
X1.88Y0.16
X1.98Y0.26
X1.98Y0.16
X2.08Y0.26
X2.08Y0.16
X2.18Y0.26
X2.18Y0.16
X2.28Y0.26
X2.28Y0.16
X2.38Y0.26
X2.38Y0.16
X2.48Y0.26
X2.48Y0.16
X2.58Y0.26
X2.58Y0.16
X2.68Y0.26
X2.68Y0.16
X2.78Y0.26
X2.78Y0.16
X2.88Y0.26
X2.88Y0.16
X2.98Y0.26
X2.98Y0.16
X3.08Y0.26
X3.08Y0.16
T0
M30
