%TF.GenerationSoftware,KiCad,Pcbnew,(5.1.6-0-10_14)*%
%TF.CreationDate,2021-03-04T16:43:55+01:00*%
%TF.ProjectId,opl2_board,6f706c32-5f62-46f6-9172-642e6b696361,rev?*%
%TF.SameCoordinates,Original*%
%TF.FileFunction,Soldermask,Top*%
%TF.FilePolarity,Negative*%
%FSLAX46Y46*%
G04 Gerber Fmt 4.6, Leading zero omitted, Abs format (unit mm)*
G04 Created by KiCad (PCBNEW (5.1.6-0-10_14)) date 2021-03-04 16:43:55*
%MOMM*%
%LPD*%
G01*
G04 APERTURE LIST*
%ADD10C,1.700000*%
%ADD11R,1.700000X1.700000*%
%ADD12O,1.700000X1.700000*%
%ADD13O,1.900000X2.900000*%
%ADD14O,1.800000X1.800000*%
%ADD15R,1.800000X1.800000*%
G04 APERTURE END LIST*
%TO.C,C5*%
G36*
G01*
X30121456Y53176000D02*
X28806544Y53176000D01*
G75*
G02*
X28539000Y53443544I0J267544D01*
G01*
X28539000Y54433456D01*
G75*
G02*
X28806544Y54701000I267544J0D01*
G01*
X30121456Y54701000D01*
G75*
G02*
X30389000Y54433456I0J-267544D01*
G01*
X30389000Y53443544D01*
G75*
G02*
X30121456Y53176000I-267544J0D01*
G01*
G37*
G36*
G01*
X30121456Y50201000D02*
X28806544Y50201000D01*
G75*
G02*
X28539000Y50468544I0J267544D01*
G01*
X28539000Y51458456D01*
G75*
G02*
X28806544Y51726000I267544J0D01*
G01*
X30121456Y51726000D01*
G75*
G02*
X30389000Y51458456I0J-267544D01*
G01*
X30389000Y50468544D01*
G75*
G02*
X30121456Y50201000I-267544J0D01*
G01*
G37*
%TD*%
%TO.C,C4*%
G36*
G01*
X34189500Y50396544D02*
X34189500Y51711456D01*
G75*
G02*
X34457044Y51979000I267544J0D01*
G01*
X35446956Y51979000D01*
G75*
G02*
X35714500Y51711456I0J-267544D01*
G01*
X35714500Y50396544D01*
G75*
G02*
X35446956Y50129000I-267544J0D01*
G01*
X34457044Y50129000D01*
G75*
G02*
X34189500Y50396544I0J267544D01*
G01*
G37*
G36*
G01*
X31214500Y50396544D02*
X31214500Y51711456D01*
G75*
G02*
X31482044Y51979000I267544J0D01*
G01*
X32471956Y51979000D01*
G75*
G02*
X32739500Y51711456I0J-267544D01*
G01*
X32739500Y50396544D01*
G75*
G02*
X32471956Y50129000I-267544J0D01*
G01*
X31482044Y50129000D01*
G75*
G02*
X31214500Y50396544I0J267544D01*
G01*
G37*
%TD*%
D10*
%TO.C,X1*%
X42418000Y23050500D03*
X42418000Y30670500D03*
X34798000Y30670500D03*
D11*
X34798000Y23050500D03*
%TD*%
D12*
%TO.C,U4*%
X48958500Y47688500D03*
X56578500Y40068500D03*
X51498500Y47688500D03*
X54038500Y40068500D03*
X54038500Y47688500D03*
X51498500Y40068500D03*
X56578500Y47688500D03*
D11*
X48958500Y40068500D03*
%TD*%
D12*
%TO.C,U3*%
X29781500Y48196500D03*
X37401500Y40576500D03*
X32321500Y48196500D03*
X34861500Y40576500D03*
X34861500Y48196500D03*
X32321500Y40576500D03*
X37401500Y48196500D03*
D11*
X29781500Y40576500D03*
%TD*%
D12*
%TO.C,U2*%
X48133000Y31559500D03*
X76073000Y16319500D03*
X50673000Y31559500D03*
X73533000Y16319500D03*
X53213000Y31559500D03*
X70993000Y16319500D03*
X55753000Y31559500D03*
X68453000Y16319500D03*
X58293000Y31559500D03*
X65913000Y16319500D03*
X60833000Y31559500D03*
X63373000Y16319500D03*
X63373000Y31559500D03*
X60833000Y16319500D03*
X65913000Y31559500D03*
X58293000Y16319500D03*
X68453000Y31559500D03*
X55753000Y16319500D03*
X70993000Y31559500D03*
X53213000Y16319500D03*
X73533000Y31559500D03*
X50673000Y16319500D03*
X76073000Y31559500D03*
D11*
X48133000Y16319500D03*
%TD*%
D12*
%TO.C,U1*%
X23812500Y20828000D03*
X8572500Y28448000D03*
X21272500Y20828000D03*
X11112500Y28448000D03*
X18732500Y20828000D03*
X13652500Y28448000D03*
X16192500Y20828000D03*
X16192500Y28448000D03*
X13652500Y20828000D03*
X18732500Y28448000D03*
X11112500Y20828000D03*
X21272500Y28448000D03*
X8572500Y20828000D03*
D11*
X23812500Y28448000D03*
%TD*%
%TO.C,R2*%
G36*
G01*
X7093000Y41245262D02*
X7093000Y40288738D01*
G75*
G02*
X6821262Y40017000I-271738J0D01*
G01*
X6114738Y40017000D01*
G75*
G02*
X5843000Y40288738I0J271738D01*
G01*
X5843000Y41245262D01*
G75*
G02*
X6114738Y41517000I271738J0D01*
G01*
X6821262Y41517000D01*
G75*
G02*
X7093000Y41245262I0J-271738D01*
G01*
G37*
G36*
G01*
X9143000Y41245262D02*
X9143000Y40288738D01*
G75*
G02*
X8871262Y40017000I-271738J0D01*
G01*
X8164738Y40017000D01*
G75*
G02*
X7893000Y40288738I0J271738D01*
G01*
X7893000Y41245262D01*
G75*
G02*
X8164738Y41517000I271738J0D01*
G01*
X8871262Y41517000D01*
G75*
G02*
X9143000Y41245262I0J-271738D01*
G01*
G37*
%TD*%
D13*
%TO.C,J2*%
X67284000Y43402500D03*
X72784000Y43402500D03*
X75184000Y45402500D03*
%TD*%
%TO.C,D2*%
G36*
G01*
X8662500Y43157544D02*
X8662500Y44472456D01*
G75*
G02*
X8930044Y44740000I267544J0D01*
G01*
X9919956Y44740000D01*
G75*
G02*
X10187500Y44472456I0J-267544D01*
G01*
X10187500Y43157544D01*
G75*
G02*
X9919956Y42890000I-267544J0D01*
G01*
X8930044Y42890000D01*
G75*
G02*
X8662500Y43157544I0J267544D01*
G01*
G37*
G36*
G01*
X5687500Y43157544D02*
X5687500Y44472456D01*
G75*
G02*
X5955044Y44740000I267544J0D01*
G01*
X6944956Y44740000D01*
G75*
G02*
X7212500Y44472456I0J-267544D01*
G01*
X7212500Y43157544D01*
G75*
G02*
X6944956Y42890000I-267544J0D01*
G01*
X5955044Y42890000D01*
G75*
G02*
X5687500Y43157544I0J267544D01*
G01*
G37*
%TD*%
D14*
%TO.C,J1*%
X17272000Y4064000D03*
X17272000Y6604000D03*
X19812000Y4064000D03*
X19812000Y6604000D03*
X22352000Y4064000D03*
X22352000Y6604000D03*
X24892000Y4064000D03*
X24892000Y6604000D03*
X27432000Y4064000D03*
X27432000Y6604000D03*
X29972000Y4064000D03*
X29972000Y6604000D03*
X32512000Y4064000D03*
X32512000Y6604000D03*
X35052000Y4064000D03*
X35052000Y6604000D03*
X37592000Y4064000D03*
X37592000Y6604000D03*
X40132000Y4064000D03*
X40132000Y6604000D03*
X42672000Y4064000D03*
X42672000Y6604000D03*
X45212000Y4064000D03*
X45212000Y6604000D03*
X47752000Y4064000D03*
X47752000Y6604000D03*
X50292000Y4064000D03*
X50292000Y6604000D03*
X52832000Y4064000D03*
X52832000Y6604000D03*
X55372000Y4064000D03*
X55372000Y6604000D03*
X57912000Y4064000D03*
X57912000Y6604000D03*
X60452000Y4064000D03*
X60452000Y6604000D03*
X62992000Y4064000D03*
X62992000Y6604000D03*
X65532000Y4064000D03*
X65532000Y6604000D03*
X68072000Y4064000D03*
X68072000Y6604000D03*
X70612000Y4064000D03*
X70612000Y6604000D03*
X73152000Y4064000D03*
X73152000Y6604000D03*
X75692000Y4064000D03*
X75692000Y6604000D03*
X78232000Y4064000D03*
D15*
X78232000Y6604000D03*
%TD*%
M02*
