%TF.GenerationSoftware,KiCad,Pcbnew,(5.1.6-0-10_14)*%
%TF.CreationDate,2021-03-04T16:43:55+01:00*%
%TF.ProjectId,opl2_board,6f706c32-5f62-46f6-9172-642e6b696361,rev?*%
%TF.SameCoordinates,Original*%
%TF.FileFunction,Copper,L1,Top*%
%TF.FilePolarity,Positive*%
%FSLAX46Y46*%
G04 Gerber Fmt 4.6, Leading zero omitted, Abs format (unit mm)*
G04 Created by KiCad (PCBNEW (5.1.6-0-10_14)) date 2021-03-04 16:43:55*
%MOMM*%
%LPD*%
G01*
G04 APERTURE LIST*
%TA.AperFunction,ComponentPad*%
%ADD10C,1.600000*%
%TD*%
%TA.AperFunction,ComponentPad*%
%ADD11R,1.600000X1.600000*%
%TD*%
%TA.AperFunction,ComponentPad*%
%ADD12O,1.600000X1.600000*%
%TD*%
%TA.AperFunction,ComponentPad*%
%ADD13O,1.800000X2.800000*%
%TD*%
%TA.AperFunction,ComponentPad*%
%ADD14O,1.700000X1.700000*%
%TD*%
%TA.AperFunction,ComponentPad*%
%ADD15R,1.700000X1.700000*%
%TD*%
%TA.AperFunction,ViaPad*%
%ADD16C,0.800000*%
%TD*%
%TA.AperFunction,ViaPad*%
%ADD17C,0.600000*%
%TD*%
%TA.AperFunction,Conductor*%
%ADD18C,1.000000*%
%TD*%
%TA.AperFunction,Conductor*%
%ADD19C,0.250000*%
%TD*%
%TA.AperFunction,Conductor*%
%ADD20C,0.254000*%
%TD*%
G04 APERTURE END LIST*
%TO.P,C5,2*%
%TO.N,GND*%
%TA.AperFunction,SMDPad,CuDef*%
G36*
G01*
X30089000Y53226000D02*
X28839000Y53226000D01*
G75*
G02*
X28589000Y53476000I0J250000D01*
G01*
X28589000Y54401000D01*
G75*
G02*
X28839000Y54651000I250000J0D01*
G01*
X30089000Y54651000D01*
G75*
G02*
X30339000Y54401000I0J-250000D01*
G01*
X30339000Y53476000D01*
G75*
G02*
X30089000Y53226000I-250000J0D01*
G01*
G37*
%TD.AperFunction*%
%TO.P,C5,1*%
%TO.N,Net-(C5-Pad1)*%
%TA.AperFunction,SMDPad,CuDef*%
G36*
G01*
X30089000Y50251000D02*
X28839000Y50251000D01*
G75*
G02*
X28589000Y50501000I0J250000D01*
G01*
X28589000Y51426000D01*
G75*
G02*
X28839000Y51676000I250000J0D01*
G01*
X30089000Y51676000D01*
G75*
G02*
X30339000Y51426000I0J-250000D01*
G01*
X30339000Y50501000D01*
G75*
G02*
X30089000Y50251000I-250000J0D01*
G01*
G37*
%TD.AperFunction*%
%TD*%
%TO.P,C4,2*%
%TO.N,GND*%
%TA.AperFunction,SMDPad,CuDef*%
G36*
G01*
X34239500Y50429000D02*
X34239500Y51679000D01*
G75*
G02*
X34489500Y51929000I250000J0D01*
G01*
X35414500Y51929000D01*
G75*
G02*
X35664500Y51679000I0J-250000D01*
G01*
X35664500Y50429000D01*
G75*
G02*
X35414500Y50179000I-250000J0D01*
G01*
X34489500Y50179000D01*
G75*
G02*
X34239500Y50429000I0J250000D01*
G01*
G37*
%TD.AperFunction*%
%TO.P,C4,1*%
%TO.N,Net-(C4-Pad1)*%
%TA.AperFunction,SMDPad,CuDef*%
G36*
G01*
X31264500Y50429000D02*
X31264500Y51679000D01*
G75*
G02*
X31514500Y51929000I250000J0D01*
G01*
X32439500Y51929000D01*
G75*
G02*
X32689500Y51679000I0J-250000D01*
G01*
X32689500Y50429000D01*
G75*
G02*
X32439500Y50179000I-250000J0D01*
G01*
X31514500Y50179000D01*
G75*
G02*
X31264500Y50429000I0J250000D01*
G01*
G37*
%TD.AperFunction*%
%TD*%
D10*
%TO.P,X1,4*%
%TO.N,GND*%
X42418000Y23050500D03*
%TO.P,X1,5*%
%TO.N,Net-(U2-Pad24)*%
X42418000Y30670500D03*
%TO.P,X1,8*%
%TO.N,+5V*%
X34798000Y30670500D03*
D11*
%TO.P,X1,1*%
%TO.N,Net-(X1-Pad1)*%
X34798000Y23050500D03*
%TD*%
D12*
%TO.P,U4,8*%
%TO.N,+5V*%
X48958500Y47688500D03*
%TO.P,U4,4*%
%TO.N,GND*%
X56578500Y40068500D03*
%TO.P,U4,7*%
%TO.N,Net-(C5-Pad1)*%
X51498500Y47688500D03*
%TO.P,U4,3*%
%TO.N,Net-(U3-Pad2)*%
X54038500Y40068500D03*
%TO.P,U4,6*%
%TO.N,Net-(C5-Pad1)*%
X54038500Y47688500D03*
%TO.P,U4,2*%
%TO.N,Net-(J2-PadR)*%
X51498500Y40068500D03*
%TO.P,U4,5*%
%TO.N,Net-(C4-Pad1)*%
X56578500Y47688500D03*
D11*
%TO.P,U4,1*%
%TO.N,Net-(J2-PadR)*%
X48958500Y40068500D03*
%TD*%
D12*
%TO.P,U3,8*%
%TO.N,Net-(C5-Pad1)*%
X29781500Y48196500D03*
%TO.P,U3,4*%
%TO.N,Net-(U2-Pad21)*%
X37401500Y40576500D03*
%TO.P,U3,7*%
%TO.N,Net-(C4-Pad1)*%
X32321500Y48196500D03*
%TO.P,U3,3*%
%TO.N,Net-(U2-Pad20)*%
X34861500Y40576500D03*
%TO.P,U3,6*%
%TO.N,GND*%
X34861500Y48196500D03*
%TO.P,U3,2*%
%TO.N,Net-(U3-Pad2)*%
X32321500Y40576500D03*
%TO.P,U3,5*%
%TO.N,Net-(U2-Pad23)*%
X37401500Y48196500D03*
D11*
%TO.P,U3,1*%
%TO.N,+5V*%
X29781500Y40576500D03*
%TD*%
D12*
%TO.P,U2,24*%
%TO.N,Net-(U2-Pad24)*%
X48133000Y31559500D03*
%TO.P,U2,12*%
%TO.N,GND*%
X76073000Y16319500D03*
%TO.P,U2,23*%
%TO.N,Net-(U2-Pad23)*%
X50673000Y31559500D03*
%TO.P,U2,11*%
%TO.N,D1*%
X73533000Y16319500D03*
%TO.P,U2,22*%
%TO.N,N/C*%
X53213000Y31559500D03*
%TO.P,U2,10*%
%TO.N,D0*%
X70993000Y16319500D03*
%TO.P,U2,21*%
%TO.N,Net-(U2-Pad21)*%
X55753000Y31559500D03*
%TO.P,U2,9*%
%TO.N,N/C*%
X68453000Y16319500D03*
%TO.P,U2,20*%
%TO.N,Net-(U2-Pad20)*%
X58293000Y31559500D03*
%TO.P,U2,8*%
%TO.N,N/C*%
X65913000Y16319500D03*
%TO.P,U2,19*%
X60833000Y31559500D03*
%TO.P,U2,7*%
%TO.N,Net-(U1-Pad8)*%
X63373000Y16319500D03*
%TO.P,U2,18*%
%TO.N,D7*%
X63373000Y31559500D03*
%TO.P,U2,6*%
%TO.N,Net-(U1-Pad3)*%
X60833000Y16319500D03*
%TO.P,U2,17*%
%TO.N,D6*%
X65913000Y31559500D03*
%TO.P,U2,5*%
%TO.N,R~W~*%
X58293000Y16319500D03*
%TO.P,U2,16*%
%TO.N,D5*%
X68453000Y31559500D03*
%TO.P,U2,4*%
%TO.N,A0*%
X55753000Y16319500D03*
%TO.P,U2,15*%
%TO.N,D4*%
X70993000Y31559500D03*
%TO.P,U2,3*%
%TO.N,~RESET~*%
X53213000Y16319500D03*
%TO.P,U2,14*%
%TO.N,D3*%
X73533000Y31559500D03*
%TO.P,U2,2*%
%TO.N,~SLOT_IRQ~*%
X50673000Y16319500D03*
%TO.P,U2,13*%
%TO.N,D2*%
X76073000Y31559500D03*
D11*
%TO.P,U2,1*%
%TO.N,+5V*%
X48133000Y16319500D03*
%TD*%
D12*
%TO.P,U1,14*%
%TO.N,+5V*%
X23812500Y20828000D03*
%TO.P,U1,7*%
%TO.N,GND*%
X8572500Y28448000D03*
%TO.P,U1,13*%
%TO.N,~SLOT_SEL~*%
X21272500Y20828000D03*
%TO.P,U1,6*%
%TO.N,Net-(U1-Pad6)*%
X11112500Y28448000D03*
%TO.P,U1,12*%
%TO.N,~SLOT_SEL~*%
X18732500Y20828000D03*
%TO.P,U1,5*%
%TO.N,GND*%
X13652500Y28448000D03*
%TO.P,U1,11*%
%TO.N,Net-(U1-Pad10)*%
X16192500Y20828000D03*
%TO.P,U1,4*%
%TO.N,GND*%
X16192500Y28448000D03*
%TO.P,U1,10*%
%TO.N,Net-(U1-Pad10)*%
X13652500Y20828000D03*
%TO.P,U1,3*%
%TO.N,Net-(U1-Pad3)*%
X18732500Y28448000D03*
%TO.P,U1,9*%
%TO.N,CLK*%
X11112500Y20828000D03*
%TO.P,U1,2*%
%TO.N,R~W~*%
X21272500Y28448000D03*
%TO.P,U1,8*%
%TO.N,Net-(U1-Pad8)*%
X8572500Y20828000D03*
D11*
%TO.P,U1,1*%
%TO.N,R~W~*%
X23812500Y28448000D03*
%TD*%
%TO.P,R2,2*%
%TO.N,Net-(D2-Pad1)*%
%TA.AperFunction,SMDPad,CuDef*%
G36*
G01*
X7043000Y41217001D02*
X7043000Y40316999D01*
G75*
G02*
X6793001Y40067000I-249999J0D01*
G01*
X6142999Y40067000D01*
G75*
G02*
X5893000Y40316999I0J249999D01*
G01*
X5893000Y41217001D01*
G75*
G02*
X6142999Y41467000I249999J0D01*
G01*
X6793001Y41467000D01*
G75*
G02*
X7043000Y41217001I0J-249999D01*
G01*
G37*
%TD.AperFunction*%
%TO.P,R2,1*%
%TO.N,~SLOT_SEL~*%
%TA.AperFunction,SMDPad,CuDef*%
G36*
G01*
X9093000Y41217001D02*
X9093000Y40316999D01*
G75*
G02*
X8843001Y40067000I-249999J0D01*
G01*
X8192999Y40067000D01*
G75*
G02*
X7943000Y40316999I0J249999D01*
G01*
X7943000Y41217001D01*
G75*
G02*
X8192999Y41467000I249999J0D01*
G01*
X8843001Y41467000D01*
G75*
G02*
X9093000Y41217001I0J-249999D01*
G01*
G37*
%TD.AperFunction*%
%TD*%
D13*
%TO.P,J2,R*%
%TO.N,Net-(J2-PadR)*%
X67284000Y43402500D03*
%TO.P,J2,T*%
X72784000Y43402500D03*
%TO.P,J2,S*%
%TO.N,GND*%
X75184000Y45402500D03*
%TD*%
%TO.P,D2,2*%
%TO.N,+5V*%
%TA.AperFunction,SMDPad,CuDef*%
G36*
G01*
X8712500Y43190000D02*
X8712500Y44440000D01*
G75*
G02*
X8962500Y44690000I250000J0D01*
G01*
X9887500Y44690000D01*
G75*
G02*
X10137500Y44440000I0J-250000D01*
G01*
X10137500Y43190000D01*
G75*
G02*
X9887500Y42940000I-250000J0D01*
G01*
X8962500Y42940000D01*
G75*
G02*
X8712500Y43190000I0J250000D01*
G01*
G37*
%TD.AperFunction*%
%TO.P,D2,1*%
%TO.N,Net-(D2-Pad1)*%
%TA.AperFunction,SMDPad,CuDef*%
G36*
G01*
X5737500Y43190000D02*
X5737500Y44440000D01*
G75*
G02*
X5987500Y44690000I250000J0D01*
G01*
X6912500Y44690000D01*
G75*
G02*
X7162500Y44440000I0J-250000D01*
G01*
X7162500Y43190000D01*
G75*
G02*
X6912500Y42940000I-250000J0D01*
G01*
X5987500Y42940000D01*
G75*
G02*
X5737500Y43190000I0J250000D01*
G01*
G37*
%TD.AperFunction*%
%TD*%
D14*
%TO.P,J1,50*%
%TO.N,~NMI~*%
X17272000Y4064000D03*
%TO.P,J1,49*%
%TO.N,~RESET~*%
X17272000Y6604000D03*
%TO.P,J1,48*%
%TO.N,~SLOT_IRQ~*%
X19812000Y4064000D03*
%TO.P,J1,47*%
%TO.N,SYNC*%
X19812000Y6604000D03*
%TO.P,J1,46*%
%TO.N,EX3*%
X22352000Y4064000D03*
%TO.P,J1,45*%
%TO.N,~IRQ~*%
X22352000Y6604000D03*
%TO.P,J1,44*%
%TO.N,EX2*%
X24892000Y4064000D03*
%TO.P,J1,43*%
%TO.N,R~W~*%
X24892000Y6604000D03*
%TO.P,J1,42*%
%TO.N,CLK_12M*%
X27432000Y4064000D03*
%TO.P,J1,41*%
%TO.N,CLK*%
X27432000Y6604000D03*
%TO.P,J1,40*%
%TO.N,LED4*%
X29972000Y4064000D03*
%TO.P,J1,39*%
%TO.N,BE*%
X29972000Y6604000D03*
%TO.P,J1,38*%
%TO.N,LED3*%
X32512000Y4064000D03*
%TO.P,J1,37*%
%TO.N,RDY*%
X32512000Y6604000D03*
%TO.P,J1,36*%
%TO.N,LED2*%
X35052000Y4064000D03*
%TO.P,J1,35*%
%TO.N,A15*%
X35052000Y6604000D03*
%TO.P,J1,34*%
%TO.N,LED1*%
X37592000Y4064000D03*
%TO.P,J1,33*%
%TO.N,A14*%
X37592000Y6604000D03*
%TO.P,J1,32*%
%TO.N,~SLOT_SEL~*%
X40132000Y4064000D03*
%TO.P,J1,31*%
%TO.N,A13*%
X40132000Y6604000D03*
%TO.P,J1,30*%
%TO.N,~INH~*%
X42672000Y4064000D03*
%TO.P,J1,29*%
%TO.N,A12*%
X42672000Y6604000D03*
%TO.P,J1,28*%
%TO.N,~SSEL~*%
X45212000Y4064000D03*
%TO.P,J1,27*%
%TO.N,A11*%
X45212000Y6604000D03*
%TO.P,J1,26*%
%TO.N,GND*%
X47752000Y4064000D03*
%TO.P,J1,25*%
%TO.N,+5V*%
X47752000Y6604000D03*
%TO.P,J1,24*%
X50292000Y4064000D03*
%TO.P,J1,23*%
%TO.N,GND*%
X50292000Y6604000D03*
%TO.P,J1,22*%
%TO.N,~SLOT_SEL~*%
X52832000Y4064000D03*
%TO.P,J1,21*%
%TO.N,A10*%
X52832000Y6604000D03*
%TO.P,J1,20*%
%TO.N,EX1*%
X55372000Y4064000D03*
%TO.P,J1,19*%
%TO.N,A9*%
X55372000Y6604000D03*
%TO.P,J1,18*%
%TO.N,EX0*%
X57912000Y4064000D03*
%TO.P,J1,17*%
%TO.N,A8*%
X57912000Y6604000D03*
%TO.P,J1,16*%
%TO.N,D7*%
X60452000Y4064000D03*
%TO.P,J1,15*%
%TO.N,A7*%
X60452000Y6604000D03*
%TO.P,J1,14*%
%TO.N,D6*%
X62992000Y4064000D03*
%TO.P,J1,13*%
%TO.N,A6*%
X62992000Y6604000D03*
%TO.P,J1,12*%
%TO.N,D5*%
X65532000Y4064000D03*
%TO.P,J1,11*%
%TO.N,A5*%
X65532000Y6604000D03*
%TO.P,J1,10*%
%TO.N,D4*%
X68072000Y4064000D03*
%TO.P,J1,9*%
%TO.N,A4*%
X68072000Y6604000D03*
%TO.P,J1,8*%
%TO.N,D3*%
X70612000Y4064000D03*
%TO.P,J1,7*%
%TO.N,A3*%
X70612000Y6604000D03*
%TO.P,J1,6*%
%TO.N,D2*%
X73152000Y4064000D03*
%TO.P,J1,5*%
%TO.N,A2*%
X73152000Y6604000D03*
%TO.P,J1,4*%
%TO.N,D1*%
X75692000Y4064000D03*
%TO.P,J1,3*%
%TO.N,A1*%
X75692000Y6604000D03*
%TO.P,J1,2*%
%TO.N,D0*%
X78232000Y4064000D03*
D15*
%TO.P,J1,1*%
%TO.N,A0*%
X78232000Y6604000D03*
%TD*%
D16*
%TO.N,+5V*%
X48931500Y45402500D03*
D17*
X54800500Y14668500D03*
X50165000Y14668500D03*
%TO.N,D0*%
X74803000Y14605000D03*
%TO.N,A0*%
X57848500Y8382000D03*
%TO.N,~RESET~*%
X48826178Y8102420D03*
%TO.N,~SLOT_IRQ~*%
X40259000Y13843000D03*
%TO.N,R~W~*%
X28130500Y20701000D03*
X28130500Y12827000D03*
X28067000Y7947935D03*
X49042463Y7332200D03*
%TO.N,~SLOT_SEL~*%
X41307001Y9493501D03*
X49720504Y9017000D03*
%TO.N,Net-(U1-Pad3)*%
X58229500Y17907000D03*
%TO.N,Net-(U1-Pad8)*%
X18605500Y22542500D03*
X56642000Y18424990D03*
%TO.N,Net-(U2-Pad23)*%
X34734500Y45529500D03*
%TO.N,Net-(U2-Pad20)*%
X50927000Y34480500D03*
%TD*%
D18*
%TO.N,GND*%
X34861500Y50963500D02*
X34952000Y51054000D01*
X34861500Y48196500D02*
X34861500Y50963500D01*
X32067500Y53938500D02*
X29464000Y53938500D01*
X34952000Y51054000D02*
X32067500Y53938500D01*
%TO.N,+5V*%
X50292000Y4064000D02*
X47752000Y6604000D01*
D19*
%TO.N,D7*%
X59418001Y27604501D02*
X63373000Y31559500D01*
X59418001Y15779499D02*
X59418001Y27604501D01*
X59276999Y15638497D02*
X59418001Y15779499D01*
X59276999Y5239001D02*
X59276999Y15638497D01*
X60452000Y4064000D02*
X59276999Y5239001D01*
%TO.N,D6*%
X61958001Y27604501D02*
X65913000Y31559500D01*
X61958001Y15779499D02*
X61958001Y27604501D01*
X61816999Y15638497D02*
X61958001Y15779499D01*
X61816999Y5239001D02*
X61816999Y15638497D01*
X62992000Y4064000D02*
X61816999Y5239001D01*
%TO.N,D5*%
X64787999Y16069497D02*
X64787999Y27894499D01*
X64356999Y15638497D02*
X64787999Y16069497D01*
X64787999Y27894499D02*
X68453000Y31559500D01*
X64356999Y5239001D02*
X64356999Y15638497D01*
X65532000Y4064000D02*
X64356999Y5239001D01*
%TO.N,D4*%
X67327999Y27894499D02*
X70993000Y31559500D01*
X67327999Y16069497D02*
X67327999Y27894499D01*
X66896999Y5239001D02*
X66896999Y15638497D01*
X66896999Y15638497D02*
X67327999Y16069497D01*
X68072000Y4064000D02*
X66896999Y5239001D01*
%TO.N,D3*%
X69867999Y16069497D02*
X69867999Y27894499D01*
X69436999Y5239001D02*
X69436999Y15638497D01*
X69867999Y27894499D02*
X73533000Y31559500D01*
X69436999Y15638497D02*
X69867999Y16069497D01*
X70612000Y4064000D02*
X69436999Y5239001D01*
%TO.N,D2*%
X72407999Y16069497D02*
X72407999Y27894499D01*
X71976999Y15638497D02*
X72407999Y16069497D01*
X72407999Y27894499D02*
X76073000Y31559500D01*
X71976999Y5239001D02*
X71976999Y15638497D01*
X73152000Y4064000D02*
X71976999Y5239001D01*
%TO.N,D1*%
X74327001Y5428999D02*
X74327001Y13175999D01*
X75692000Y4064000D02*
X74327001Y5428999D01*
X73533000Y13970000D02*
X73533000Y16319500D01*
X74327001Y13175999D02*
X73533000Y13970000D01*
%TO.N,D0*%
X77056999Y12351001D02*
X74803000Y14605000D01*
X77056999Y5239001D02*
X77056999Y12351001D01*
X78232000Y4064000D02*
X77056999Y5239001D01*
%TO.N,A0*%
X57848500Y14224000D02*
X55753000Y16319500D01*
X57848500Y8382000D02*
X57848500Y14224000D01*
%TO.N,CLK*%
X26256999Y7779001D02*
X24161499Y7779001D01*
X24161499Y7779001D02*
X11112500Y20828000D01*
X27432000Y6604000D02*
X26256999Y7779001D01*
%TO.N,~RESET~*%
X48526179Y11632679D02*
X48526179Y8402419D01*
X53213000Y16319500D02*
X48526179Y11632679D01*
X48526179Y8402419D02*
X48826178Y8102420D01*
%TO.N,~SLOT_IRQ~*%
X28796999Y6229997D02*
X28796999Y9365999D01*
X20987001Y5239001D02*
X27806003Y5239001D01*
X19812000Y4064000D02*
X20987001Y5239001D01*
X27806003Y5239001D02*
X28796999Y6229997D01*
X28796999Y9365999D02*
X33274000Y13843000D01*
X33274000Y13843000D02*
X40259000Y13843000D01*
X40259000Y13843000D02*
X40259000Y13843000D01*
%TO.N,R~W~*%
X23812500Y28448000D02*
X21272500Y28448000D01*
X23812500Y28448000D02*
X23812500Y25019000D01*
X23812500Y25019000D02*
X28130500Y20701000D01*
X28130500Y20701000D02*
X28130500Y20701000D01*
X28130500Y12827000D02*
X28130500Y8011435D01*
X28130500Y8011435D02*
X28067000Y7947935D01*
X49466500Y7756237D02*
X49042463Y7332200D01*
X49466500Y8356234D02*
X49466500Y7756237D01*
X49095494Y10530758D02*
X49095494Y8727240D01*
X55212999Y17444501D02*
X54338001Y16569503D01*
X49095494Y8727240D02*
X49466500Y8356234D01*
X54338001Y15773265D02*
X49095494Y10530758D01*
X54338001Y16569503D02*
X54338001Y15773265D01*
X57167999Y17444501D02*
X55212999Y17444501D01*
X58293000Y16319500D02*
X57167999Y17444501D01*
%TO.N,~SLOT_SEL~*%
X21272500Y20828000D02*
X18732500Y20828000D01*
X15067499Y24493001D02*
X15067499Y34217501D01*
X15067499Y34217501D02*
X8518000Y40767000D01*
X18732500Y20828000D02*
X15067499Y24493001D01*
X40437870Y14668500D02*
X27432000Y14668500D01*
X27432000Y14668500D02*
X21272500Y20828000D01*
X41307001Y13799369D02*
X40437870Y14668500D01*
X41307001Y5239001D02*
X41307001Y9493501D01*
X40132000Y4064000D02*
X41307001Y5239001D01*
X41307001Y9493501D02*
X41307001Y13799369D01*
X52832000Y4064000D02*
X51656999Y5239001D01*
X51656999Y5239001D02*
X51656999Y7080505D01*
X51656999Y7080505D02*
X49720504Y9017000D01*
D18*
%TO.N,Net-(C4-Pad1)*%
X32321500Y50709500D02*
X31977000Y51054000D01*
X32321500Y48196500D02*
X32321500Y50709500D01*
D19*
X46600509Y46995511D02*
X48418499Y48813501D01*
X33522489Y46995511D02*
X46600509Y46995511D01*
X32321500Y48196500D02*
X33522489Y46995511D01*
X48418499Y48813501D02*
X55453499Y48813501D01*
X55453499Y48813501D02*
X56578500Y47688500D01*
D18*
%TO.N,Net-(C5-Pad1)*%
X29781500Y50646000D02*
X29464000Y50963500D01*
X29781500Y48196500D02*
X29781500Y50646000D01*
D19*
X54038500Y47688500D02*
X51498500Y47688500D01*
X51498500Y47688500D02*
X50355500Y46545500D01*
X31432500Y46545500D02*
X29781500Y48196500D01*
X50355500Y46545500D02*
X31432500Y46545500D01*
D18*
%TO.N,Net-(D2-Pad1)*%
X6468000Y43797000D02*
X6450000Y43815000D01*
X6468000Y40767000D02*
X6468000Y43797000D01*
D19*
%TO.N,Net-(J2-PadR)*%
X48958500Y40068500D02*
X51498500Y40068500D01*
X51498500Y40068500D02*
X53975000Y42545000D01*
X66426500Y42545000D02*
X67284000Y43402500D01*
X53975000Y42545000D02*
X66426500Y42545000D01*
X67284000Y43402500D02*
X72784000Y43402500D01*
%TO.N,Net-(U1-Pad10)*%
X13652500Y20828000D02*
X16192500Y20828000D01*
%TO.N,Net-(U1-Pad3)*%
X28130500Y19050000D02*
X57086500Y19050000D01*
X18732500Y28448000D02*
X28130500Y19050000D01*
X57086500Y19050000D02*
X58229500Y17907000D01*
%TO.N,Net-(U1-Pad8)*%
X18605500Y22542500D02*
X24001590Y22542500D01*
X24001590Y22542500D02*
X28119100Y18424990D01*
X28119100Y18424990D02*
X56642000Y18424990D01*
%TO.N,Net-(U2-Pad24)*%
X43307000Y31559500D02*
X42418000Y30670500D01*
X48133000Y31559500D02*
X43307000Y31559500D01*
%TO.N,Net-(U2-Pad23)*%
X31196499Y41991499D02*
X34734500Y45529500D01*
X31196499Y40036499D02*
X31196499Y41991499D01*
X38548497Y32684501D02*
X31196499Y40036499D01*
X50673000Y31559500D02*
X49547999Y32684501D01*
X49547999Y32684501D02*
X38548497Y32684501D01*
%TO.N,Net-(U2-Pad21)*%
X39034501Y38943499D02*
X39225001Y38943499D01*
X37401500Y40576500D02*
X39034501Y38943499D01*
X39225001Y38943499D02*
X41973500Y36195000D01*
X51117500Y36195000D02*
X55753000Y31559500D01*
X41973500Y36195000D02*
X51117500Y36195000D01*
%TO.N,Net-(U2-Pad20)*%
X34861500Y40576500D02*
X40957500Y34480500D01*
X40957500Y34480500D02*
X50927000Y34480500D01*
X50927000Y34480500D02*
X50927000Y34480500D01*
%TO.N,Net-(U3-Pad2)*%
X52913499Y38943499D02*
X42590501Y38943499D01*
X54038500Y40068500D02*
X52913499Y38943499D01*
X33446501Y41701501D02*
X32321500Y40576500D01*
X39832499Y41701501D02*
X33446501Y41701501D01*
X42590501Y38943499D02*
X39832499Y41701501D01*
%TD*%
D20*
%TO.N,+5V*%
G36*
X2125353Y59386000D02*
G01*
X78646647Y59386000D01*
X78740956Y59395289D01*
X78903542Y59379347D01*
X79183018Y59294969D01*
X79440780Y59157915D01*
X79667015Y58973401D01*
X79853103Y58748460D01*
X79991956Y58491658D01*
X80078282Y58212781D01*
X80096365Y58040731D01*
X80087000Y57945646D01*
X80087001Y685000D01*
X14218381Y685000D01*
X685000Y14218380D01*
X685000Y44440000D01*
X5099428Y44440000D01*
X5099428Y43190000D01*
X5116492Y43016746D01*
X5167028Y42850150D01*
X5249095Y42696614D01*
X5333001Y42594374D01*
X5333000Y41576443D01*
X5322528Y41556851D01*
X5271992Y41390255D01*
X5254928Y41217001D01*
X5254928Y40316999D01*
X5271992Y40143745D01*
X5322528Y39977149D01*
X5404595Y39823613D01*
X5515038Y39689038D01*
X5649613Y39578595D01*
X5803149Y39496528D01*
X5969745Y39445992D01*
X6142999Y39428928D01*
X6793001Y39428928D01*
X6966255Y39445992D01*
X7132851Y39496528D01*
X7286387Y39578595D01*
X7420962Y39689038D01*
X7493000Y39776816D01*
X7565038Y39689038D01*
X7699613Y39578595D01*
X7853149Y39496528D01*
X8019745Y39445992D01*
X8192999Y39428928D01*
X8781271Y39428928D01*
X14307500Y33902698D01*
X14307500Y29729922D01*
X14071074Y29827853D01*
X13793835Y29883000D01*
X13511165Y29883000D01*
X13233926Y29827853D01*
X12972773Y29719680D01*
X12737741Y29562637D01*
X12537863Y29362759D01*
X12382500Y29130241D01*
X12227137Y29362759D01*
X12027259Y29562637D01*
X11792227Y29719680D01*
X11531074Y29827853D01*
X11253835Y29883000D01*
X10971165Y29883000D01*
X10693926Y29827853D01*
X10432773Y29719680D01*
X10197741Y29562637D01*
X9997863Y29362759D01*
X9842500Y29130241D01*
X9687137Y29362759D01*
X9487259Y29562637D01*
X9252227Y29719680D01*
X8991074Y29827853D01*
X8713835Y29883000D01*
X8431165Y29883000D01*
X8153926Y29827853D01*
X7892773Y29719680D01*
X7657741Y29562637D01*
X7457863Y29362759D01*
X7300820Y29127727D01*
X7192647Y28866574D01*
X7137500Y28589335D01*
X7137500Y28306665D01*
X7192647Y28029426D01*
X7300820Y27768273D01*
X7457863Y27533241D01*
X7657741Y27333363D01*
X7892773Y27176320D01*
X8153926Y27068147D01*
X8431165Y27013000D01*
X8713835Y27013000D01*
X8991074Y27068147D01*
X9252227Y27176320D01*
X9487259Y27333363D01*
X9687137Y27533241D01*
X9842500Y27765759D01*
X9997863Y27533241D01*
X10197741Y27333363D01*
X10432773Y27176320D01*
X10693926Y27068147D01*
X10971165Y27013000D01*
X11253835Y27013000D01*
X11531074Y27068147D01*
X11792227Y27176320D01*
X12027259Y27333363D01*
X12227137Y27533241D01*
X12382500Y27765759D01*
X12537863Y27533241D01*
X12737741Y27333363D01*
X12972773Y27176320D01*
X13233926Y27068147D01*
X13511165Y27013000D01*
X13793835Y27013000D01*
X14071074Y27068147D01*
X14307499Y27166077D01*
X14307499Y24530323D01*
X14303823Y24493001D01*
X14307499Y24455679D01*
X14307499Y24455669D01*
X14318496Y24344016D01*
X14360667Y24204994D01*
X14361953Y24200755D01*
X14432525Y24068725D01*
X14472370Y24020175D01*
X14527498Y23953000D01*
X14556502Y23929197D01*
X16222699Y22263000D01*
X16051165Y22263000D01*
X15773926Y22207853D01*
X15512773Y22099680D01*
X15277741Y21942637D01*
X15077863Y21742759D01*
X14974457Y21588000D01*
X14870543Y21588000D01*
X14767137Y21742759D01*
X14567259Y21942637D01*
X14332227Y22099680D01*
X14071074Y22207853D01*
X13793835Y22263000D01*
X13511165Y22263000D01*
X13233926Y22207853D01*
X12972773Y22099680D01*
X12737741Y21942637D01*
X12537863Y21742759D01*
X12382500Y21510241D01*
X12227137Y21742759D01*
X12027259Y21942637D01*
X11792227Y22099680D01*
X11531074Y22207853D01*
X11253835Y22263000D01*
X10971165Y22263000D01*
X10693926Y22207853D01*
X10432773Y22099680D01*
X10197741Y21942637D01*
X9997863Y21742759D01*
X9842500Y21510241D01*
X9687137Y21742759D01*
X9487259Y21942637D01*
X9252227Y22099680D01*
X8991074Y22207853D01*
X8713835Y22263000D01*
X8431165Y22263000D01*
X8153926Y22207853D01*
X7892773Y22099680D01*
X7657741Y21942637D01*
X7457863Y21742759D01*
X7300820Y21507727D01*
X7192647Y21246574D01*
X7137500Y20969335D01*
X7137500Y20686665D01*
X7192647Y20409426D01*
X7300820Y20148273D01*
X7457863Y19913241D01*
X7657741Y19713363D01*
X7892773Y19556320D01*
X8153926Y19448147D01*
X8431165Y19393000D01*
X8713835Y19393000D01*
X8991074Y19448147D01*
X9252227Y19556320D01*
X9487259Y19713363D01*
X9687137Y19913241D01*
X9842500Y20145759D01*
X9997863Y19913241D01*
X10197741Y19713363D01*
X10432773Y19556320D01*
X10693926Y19448147D01*
X10971165Y19393000D01*
X11253835Y19393000D01*
X11436387Y19429312D01*
X22868137Y7997561D01*
X22785158Y8031932D01*
X22498260Y8089000D01*
X22205740Y8089000D01*
X21918842Y8031932D01*
X21648589Y7919990D01*
X21405368Y7757475D01*
X21198525Y7550632D01*
X21082000Y7376240D01*
X20965475Y7550632D01*
X20758632Y7757475D01*
X20515411Y7919990D01*
X20245158Y8031932D01*
X19958260Y8089000D01*
X19665740Y8089000D01*
X19378842Y8031932D01*
X19108589Y7919990D01*
X18865368Y7757475D01*
X18658525Y7550632D01*
X18542000Y7376240D01*
X18425475Y7550632D01*
X18218632Y7757475D01*
X17975411Y7919990D01*
X17705158Y8031932D01*
X17418260Y8089000D01*
X17125740Y8089000D01*
X16838842Y8031932D01*
X16568589Y7919990D01*
X16325368Y7757475D01*
X16118525Y7550632D01*
X15956010Y7307411D01*
X15844068Y7037158D01*
X15787000Y6750260D01*
X15787000Y6457740D01*
X15844068Y6170842D01*
X15956010Y5900589D01*
X16118525Y5657368D01*
X16325368Y5450525D01*
X16499760Y5334000D01*
X16325368Y5217475D01*
X16118525Y5010632D01*
X15956010Y4767411D01*
X15844068Y4497158D01*
X15787000Y4210260D01*
X15787000Y3917740D01*
X15844068Y3630842D01*
X15956010Y3360589D01*
X16118525Y3117368D01*
X16325368Y2910525D01*
X16568589Y2748010D01*
X16838842Y2636068D01*
X17125740Y2579000D01*
X17418260Y2579000D01*
X17705158Y2636068D01*
X17975411Y2748010D01*
X18218632Y2910525D01*
X18425475Y3117368D01*
X18542000Y3291760D01*
X18658525Y3117368D01*
X18865368Y2910525D01*
X19108589Y2748010D01*
X19378842Y2636068D01*
X19665740Y2579000D01*
X19958260Y2579000D01*
X20245158Y2636068D01*
X20515411Y2748010D01*
X20758632Y2910525D01*
X20965475Y3117368D01*
X21082000Y3291760D01*
X21198525Y3117368D01*
X21405368Y2910525D01*
X21648589Y2748010D01*
X21918842Y2636068D01*
X22205740Y2579000D01*
X22498260Y2579000D01*
X22785158Y2636068D01*
X23055411Y2748010D01*
X23298632Y2910525D01*
X23505475Y3117368D01*
X23622000Y3291760D01*
X23738525Y3117368D01*
X23945368Y2910525D01*
X24188589Y2748010D01*
X24458842Y2636068D01*
X24745740Y2579000D01*
X25038260Y2579000D01*
X25325158Y2636068D01*
X25595411Y2748010D01*
X25838632Y2910525D01*
X26045475Y3117368D01*
X26162000Y3291760D01*
X26278525Y3117368D01*
X26485368Y2910525D01*
X26728589Y2748010D01*
X26998842Y2636068D01*
X27285740Y2579000D01*
X27578260Y2579000D01*
X27865158Y2636068D01*
X28135411Y2748010D01*
X28378632Y2910525D01*
X28585475Y3117368D01*
X28702000Y3291760D01*
X28818525Y3117368D01*
X29025368Y2910525D01*
X29268589Y2748010D01*
X29538842Y2636068D01*
X29825740Y2579000D01*
X30118260Y2579000D01*
X30405158Y2636068D01*
X30675411Y2748010D01*
X30918632Y2910525D01*
X31125475Y3117368D01*
X31242000Y3291760D01*
X31358525Y3117368D01*
X31565368Y2910525D01*
X31808589Y2748010D01*
X32078842Y2636068D01*
X32365740Y2579000D01*
X32658260Y2579000D01*
X32945158Y2636068D01*
X33215411Y2748010D01*
X33458632Y2910525D01*
X33665475Y3117368D01*
X33782000Y3291760D01*
X33898525Y3117368D01*
X34105368Y2910525D01*
X34348589Y2748010D01*
X34618842Y2636068D01*
X34905740Y2579000D01*
X35198260Y2579000D01*
X35485158Y2636068D01*
X35755411Y2748010D01*
X35998632Y2910525D01*
X36205475Y3117368D01*
X36322000Y3291760D01*
X36438525Y3117368D01*
X36645368Y2910525D01*
X36888589Y2748010D01*
X37158842Y2636068D01*
X37445740Y2579000D01*
X37738260Y2579000D01*
X38025158Y2636068D01*
X38295411Y2748010D01*
X38538632Y2910525D01*
X38745475Y3117368D01*
X38862000Y3291760D01*
X38978525Y3117368D01*
X39185368Y2910525D01*
X39428589Y2748010D01*
X39698842Y2636068D01*
X39985740Y2579000D01*
X40278260Y2579000D01*
X40565158Y2636068D01*
X40835411Y2748010D01*
X41078632Y2910525D01*
X41285475Y3117368D01*
X41402000Y3291760D01*
X41518525Y3117368D01*
X41725368Y2910525D01*
X41968589Y2748010D01*
X42238842Y2636068D01*
X42525740Y2579000D01*
X42818260Y2579000D01*
X43105158Y2636068D01*
X43375411Y2748010D01*
X43618632Y2910525D01*
X43825475Y3117368D01*
X43942000Y3291760D01*
X44058525Y3117368D01*
X44265368Y2910525D01*
X44508589Y2748010D01*
X44778842Y2636068D01*
X45065740Y2579000D01*
X45358260Y2579000D01*
X45645158Y2636068D01*
X45915411Y2748010D01*
X46158632Y2910525D01*
X46365475Y3117368D01*
X46482000Y3291760D01*
X46598525Y3117368D01*
X46805368Y2910525D01*
X47048589Y2748010D01*
X47318842Y2636068D01*
X47605740Y2579000D01*
X47898260Y2579000D01*
X48185158Y2636068D01*
X48455411Y2748010D01*
X48698632Y2910525D01*
X48905475Y3117368D01*
X49027195Y3299534D01*
X49096822Y3182645D01*
X49291731Y2966412D01*
X49525080Y2792359D01*
X49787901Y2667175D01*
X49935110Y2622524D01*
X50165000Y2743845D01*
X50165000Y3937000D01*
X50145000Y3937000D01*
X50145000Y4191000D01*
X50165000Y4191000D01*
X50165000Y4211000D01*
X50419000Y4211000D01*
X50419000Y4191000D01*
X50439000Y4191000D01*
X50439000Y3937000D01*
X50419000Y3937000D01*
X50419000Y2743845D01*
X50648890Y2622524D01*
X50796099Y2667175D01*
X51058920Y2792359D01*
X51292269Y2966412D01*
X51487178Y3182645D01*
X51556805Y3299534D01*
X51678525Y3117368D01*
X51885368Y2910525D01*
X52128589Y2748010D01*
X52398842Y2636068D01*
X52685740Y2579000D01*
X52978260Y2579000D01*
X53265158Y2636068D01*
X53535411Y2748010D01*
X53778632Y2910525D01*
X53985475Y3117368D01*
X54102000Y3291760D01*
X54218525Y3117368D01*
X54425368Y2910525D01*
X54668589Y2748010D01*
X54938842Y2636068D01*
X55225740Y2579000D01*
X55518260Y2579000D01*
X55805158Y2636068D01*
X56075411Y2748010D01*
X56318632Y2910525D01*
X56525475Y3117368D01*
X56642000Y3291760D01*
X56758525Y3117368D01*
X56965368Y2910525D01*
X57208589Y2748010D01*
X57478842Y2636068D01*
X57765740Y2579000D01*
X58058260Y2579000D01*
X58345158Y2636068D01*
X58615411Y2748010D01*
X58858632Y2910525D01*
X59065475Y3117368D01*
X59182000Y3291760D01*
X59298525Y3117368D01*
X59505368Y2910525D01*
X59748589Y2748010D01*
X60018842Y2636068D01*
X60305740Y2579000D01*
X60598260Y2579000D01*
X60885158Y2636068D01*
X61155411Y2748010D01*
X61398632Y2910525D01*
X61605475Y3117368D01*
X61722000Y3291760D01*
X61838525Y3117368D01*
X62045368Y2910525D01*
X62288589Y2748010D01*
X62558842Y2636068D01*
X62845740Y2579000D01*
X63138260Y2579000D01*
X63425158Y2636068D01*
X63695411Y2748010D01*
X63938632Y2910525D01*
X64145475Y3117368D01*
X64262000Y3291760D01*
X64378525Y3117368D01*
X64585368Y2910525D01*
X64828589Y2748010D01*
X65098842Y2636068D01*
X65385740Y2579000D01*
X65678260Y2579000D01*
X65965158Y2636068D01*
X66235411Y2748010D01*
X66478632Y2910525D01*
X66685475Y3117368D01*
X66802000Y3291760D01*
X66918525Y3117368D01*
X67125368Y2910525D01*
X67368589Y2748010D01*
X67638842Y2636068D01*
X67925740Y2579000D01*
X68218260Y2579000D01*
X68505158Y2636068D01*
X68775411Y2748010D01*
X69018632Y2910525D01*
X69225475Y3117368D01*
X69342000Y3291760D01*
X69458525Y3117368D01*
X69665368Y2910525D01*
X69908589Y2748010D01*
X70178842Y2636068D01*
X70465740Y2579000D01*
X70758260Y2579000D01*
X71045158Y2636068D01*
X71315411Y2748010D01*
X71558632Y2910525D01*
X71765475Y3117368D01*
X71882000Y3291760D01*
X71998525Y3117368D01*
X72205368Y2910525D01*
X72448589Y2748010D01*
X72718842Y2636068D01*
X73005740Y2579000D01*
X73298260Y2579000D01*
X73585158Y2636068D01*
X73855411Y2748010D01*
X74098632Y2910525D01*
X74305475Y3117368D01*
X74422000Y3291760D01*
X74538525Y3117368D01*
X74745368Y2910525D01*
X74988589Y2748010D01*
X75258842Y2636068D01*
X75545740Y2579000D01*
X75838260Y2579000D01*
X76125158Y2636068D01*
X76395411Y2748010D01*
X76638632Y2910525D01*
X76845475Y3117368D01*
X76962000Y3291760D01*
X77078525Y3117368D01*
X77285368Y2910525D01*
X77528589Y2748010D01*
X77798842Y2636068D01*
X78085740Y2579000D01*
X78378260Y2579000D01*
X78665158Y2636068D01*
X78935411Y2748010D01*
X79178632Y2910525D01*
X79385475Y3117368D01*
X79547990Y3360589D01*
X79659932Y3630842D01*
X79717000Y3917740D01*
X79717000Y4210260D01*
X79659932Y4497158D01*
X79547990Y4767411D01*
X79385475Y5010632D01*
X79253620Y5142487D01*
X79326180Y5164498D01*
X79436494Y5223463D01*
X79533185Y5302815D01*
X79612537Y5399506D01*
X79671502Y5509820D01*
X79707812Y5629518D01*
X79720072Y5754000D01*
X79720072Y7454000D01*
X79707812Y7578482D01*
X79671502Y7698180D01*
X79612537Y7808494D01*
X79533185Y7905185D01*
X79436494Y7984537D01*
X79326180Y8043502D01*
X79206482Y8079812D01*
X79082000Y8092072D01*
X77816999Y8092072D01*
X77816999Y12313678D01*
X77820675Y12351001D01*
X77816999Y12388324D01*
X77816999Y12388334D01*
X77806002Y12499987D01*
X77762545Y12643248D01*
X77691973Y12775278D01*
X77620798Y12862004D01*
X77597000Y12891002D01*
X77568002Y12914800D01*
X75726153Y14756648D01*
X75702068Y14877729D01*
X75678396Y14934879D01*
X75931665Y14884500D01*
X76214335Y14884500D01*
X76491574Y14939647D01*
X76752727Y15047820D01*
X76987759Y15204863D01*
X77187637Y15404741D01*
X77344680Y15639773D01*
X77452853Y15900926D01*
X77508000Y16178165D01*
X77508000Y16460835D01*
X77452853Y16738074D01*
X77344680Y16999227D01*
X77187637Y17234259D01*
X76987759Y17434137D01*
X76752727Y17591180D01*
X76491574Y17699353D01*
X76214335Y17754500D01*
X75931665Y17754500D01*
X75654426Y17699353D01*
X75393273Y17591180D01*
X75158241Y17434137D01*
X74958363Y17234259D01*
X74803000Y17001741D01*
X74647637Y17234259D01*
X74447759Y17434137D01*
X74212727Y17591180D01*
X73951574Y17699353D01*
X73674335Y17754500D01*
X73391665Y17754500D01*
X73167999Y17710009D01*
X73167999Y27579698D01*
X75749114Y30160812D01*
X75931665Y30124500D01*
X76214335Y30124500D01*
X76491574Y30179647D01*
X76752727Y30287820D01*
X76987759Y30444863D01*
X77187637Y30644741D01*
X77344680Y30879773D01*
X77452853Y31140926D01*
X77508000Y31418165D01*
X77508000Y31700835D01*
X77452853Y31978074D01*
X77344680Y32239227D01*
X77187637Y32474259D01*
X76987759Y32674137D01*
X76752727Y32831180D01*
X76491574Y32939353D01*
X76214335Y32994500D01*
X75931665Y32994500D01*
X75654426Y32939353D01*
X75393273Y32831180D01*
X75158241Y32674137D01*
X74958363Y32474259D01*
X74803000Y32241741D01*
X74647637Y32474259D01*
X74447759Y32674137D01*
X74212727Y32831180D01*
X73951574Y32939353D01*
X73674335Y32994500D01*
X73391665Y32994500D01*
X73114426Y32939353D01*
X72853273Y32831180D01*
X72618241Y32674137D01*
X72418363Y32474259D01*
X72263000Y32241741D01*
X72107637Y32474259D01*
X71907759Y32674137D01*
X71672727Y32831180D01*
X71411574Y32939353D01*
X71134335Y32994500D01*
X70851665Y32994500D01*
X70574426Y32939353D01*
X70313273Y32831180D01*
X70078241Y32674137D01*
X69878363Y32474259D01*
X69723000Y32241741D01*
X69567637Y32474259D01*
X69367759Y32674137D01*
X69132727Y32831180D01*
X68871574Y32939353D01*
X68594335Y32994500D01*
X68311665Y32994500D01*
X68034426Y32939353D01*
X67773273Y32831180D01*
X67538241Y32674137D01*
X67338363Y32474259D01*
X67183000Y32241741D01*
X67027637Y32474259D01*
X66827759Y32674137D01*
X66592727Y32831180D01*
X66331574Y32939353D01*
X66054335Y32994500D01*
X65771665Y32994500D01*
X65494426Y32939353D01*
X65233273Y32831180D01*
X64998241Y32674137D01*
X64798363Y32474259D01*
X64643000Y32241741D01*
X64487637Y32474259D01*
X64287759Y32674137D01*
X64052727Y32831180D01*
X63791574Y32939353D01*
X63514335Y32994500D01*
X63231665Y32994500D01*
X62954426Y32939353D01*
X62693273Y32831180D01*
X62458241Y32674137D01*
X62258363Y32474259D01*
X62103000Y32241741D01*
X61947637Y32474259D01*
X61747759Y32674137D01*
X61512727Y32831180D01*
X61251574Y32939353D01*
X60974335Y32994500D01*
X60691665Y32994500D01*
X60414426Y32939353D01*
X60153273Y32831180D01*
X59918241Y32674137D01*
X59718363Y32474259D01*
X59563000Y32241741D01*
X59407637Y32474259D01*
X59207759Y32674137D01*
X58972727Y32831180D01*
X58711574Y32939353D01*
X58434335Y32994500D01*
X58151665Y32994500D01*
X57874426Y32939353D01*
X57613273Y32831180D01*
X57378241Y32674137D01*
X57178363Y32474259D01*
X57023000Y32241741D01*
X56867637Y32474259D01*
X56667759Y32674137D01*
X56432727Y32831180D01*
X56171574Y32939353D01*
X55894335Y32994500D01*
X55611665Y32994500D01*
X55429114Y32958188D01*
X51681304Y36705997D01*
X51657501Y36735001D01*
X51541776Y36829974D01*
X51409747Y36900546D01*
X51266486Y36944003D01*
X51154833Y36955000D01*
X51154822Y36955000D01*
X51117500Y36958676D01*
X51080178Y36955000D01*
X42288302Y36955000D01*
X39788805Y39454496D01*
X39765002Y39483500D01*
X39649277Y39578473D01*
X39517248Y39649045D01*
X39373987Y39692502D01*
X39358804Y39693997D01*
X38800188Y40252614D01*
X38836500Y40435165D01*
X38836500Y40717835D01*
X38792009Y40941501D01*
X39517698Y40941501D01*
X42026701Y38432497D01*
X42050500Y38403498D01*
X42166225Y38308525D01*
X42298254Y38237953D01*
X42441515Y38194496D01*
X42553168Y38183499D01*
X42553178Y38183499D01*
X42590501Y38179823D01*
X42627824Y38183499D01*
X52876177Y38183499D01*
X52913499Y38179823D01*
X52950821Y38183499D01*
X52950832Y38183499D01*
X53062485Y38194496D01*
X53205746Y38237953D01*
X53337775Y38308525D01*
X53453500Y38403498D01*
X53477303Y38432501D01*
X53714613Y38669812D01*
X53897165Y38633500D01*
X54179835Y38633500D01*
X54457074Y38688647D01*
X54718227Y38796820D01*
X54953259Y38953863D01*
X55153137Y39153741D01*
X55308500Y39386259D01*
X55463863Y39153741D01*
X55663741Y38953863D01*
X55898773Y38796820D01*
X56159926Y38688647D01*
X56437165Y38633500D01*
X56719835Y38633500D01*
X56997074Y38688647D01*
X57258227Y38796820D01*
X57493259Y38953863D01*
X57693137Y39153741D01*
X57850180Y39388773D01*
X57958353Y39649926D01*
X58013500Y39927165D01*
X58013500Y40209835D01*
X57958353Y40487074D01*
X57850180Y40748227D01*
X57693137Y40983259D01*
X57493259Y41183137D01*
X57258227Y41340180D01*
X56997074Y41448353D01*
X56719835Y41503500D01*
X56437165Y41503500D01*
X56159926Y41448353D01*
X55898773Y41340180D01*
X55663741Y41183137D01*
X55463863Y40983259D01*
X55308500Y40750741D01*
X55153137Y40983259D01*
X54953259Y41183137D01*
X54718227Y41340180D01*
X54457074Y41448353D01*
X54179835Y41503500D01*
X54008302Y41503500D01*
X54289802Y41785000D01*
X66226043Y41785000D01*
X66427073Y41620019D01*
X66693739Y41477483D01*
X66983087Y41389710D01*
X67284000Y41360073D01*
X67584912Y41389710D01*
X67874260Y41477483D01*
X68140926Y41620019D01*
X68374661Y41811839D01*
X68566481Y42045573D01*
X68709017Y42312239D01*
X68796790Y42601587D01*
X68800820Y42642500D01*
X71267181Y42642500D01*
X71271210Y42601588D01*
X71358983Y42312240D01*
X71501519Y42045574D01*
X71693339Y41811839D01*
X71927073Y41620019D01*
X72193739Y41477483D01*
X72483087Y41389710D01*
X72784000Y41360073D01*
X73084912Y41389710D01*
X73374260Y41477483D01*
X73640926Y41620019D01*
X73874661Y41811839D01*
X74066481Y42045573D01*
X74209017Y42312239D01*
X74296790Y42601587D01*
X74319000Y42827092D01*
X74319000Y43626644D01*
X74327073Y43620019D01*
X74593739Y43477483D01*
X74883087Y43389710D01*
X75184000Y43360073D01*
X75484912Y43389710D01*
X75774260Y43477483D01*
X76040926Y43620019D01*
X76274661Y43811839D01*
X76466481Y44045573D01*
X76609017Y44312239D01*
X76696790Y44601587D01*
X76719000Y44827092D01*
X76719000Y45977908D01*
X76696790Y46203413D01*
X76609017Y46492761D01*
X76466481Y46759427D01*
X76274661Y46993161D01*
X76040927Y47184981D01*
X75774261Y47327517D01*
X75484913Y47415290D01*
X75184000Y47444927D01*
X74883088Y47415290D01*
X74593740Y47327517D01*
X74327074Y47184981D01*
X74093340Y46993161D01*
X73901519Y46759427D01*
X73758983Y46492761D01*
X73671210Y46203413D01*
X73649000Y45977908D01*
X73649000Y45178356D01*
X73640927Y45184981D01*
X73374261Y45327517D01*
X73084913Y45415290D01*
X72784000Y45444927D01*
X72483088Y45415290D01*
X72193740Y45327517D01*
X71927074Y45184981D01*
X71693340Y44993161D01*
X71501519Y44759427D01*
X71358983Y44492761D01*
X71271210Y44203413D01*
X71267180Y44162500D01*
X68800820Y44162500D01*
X68796790Y44203413D01*
X68709017Y44492761D01*
X68566481Y44759427D01*
X68374661Y44993161D01*
X68140927Y45184981D01*
X67874261Y45327517D01*
X67584913Y45415290D01*
X67284000Y45444927D01*
X66983088Y45415290D01*
X66693740Y45327517D01*
X66427074Y45184981D01*
X66193340Y44993161D01*
X66001519Y44759427D01*
X65858983Y44492761D01*
X65771210Y44203413D01*
X65749000Y43977908D01*
X65749000Y43305000D01*
X54012323Y43305000D01*
X53975000Y43308676D01*
X53937677Y43305000D01*
X53937667Y43305000D01*
X53826014Y43294003D01*
X53692534Y43253513D01*
X53682753Y43250546D01*
X53550723Y43179974D01*
X53467083Y43111332D01*
X53434999Y43085001D01*
X53411201Y43056003D01*
X51822386Y41467188D01*
X51639835Y41503500D01*
X51357165Y41503500D01*
X51079926Y41448353D01*
X50818773Y41340180D01*
X50583741Y41183137D01*
X50385143Y40984539D01*
X50384312Y40992982D01*
X50348002Y41112680D01*
X50289037Y41222994D01*
X50209685Y41319685D01*
X50112994Y41399037D01*
X50002680Y41458002D01*
X49882982Y41494312D01*
X49758500Y41506572D01*
X48158500Y41506572D01*
X48034018Y41494312D01*
X47914320Y41458002D01*
X47804006Y41399037D01*
X47707315Y41319685D01*
X47627963Y41222994D01*
X47568998Y41112680D01*
X47532688Y40992982D01*
X47520428Y40868500D01*
X47520428Y39703499D01*
X42905303Y39703499D01*
X40396303Y42212498D01*
X40372500Y42241502D01*
X40256775Y42336475D01*
X40124746Y42407047D01*
X39981485Y42450504D01*
X39869832Y42461501D01*
X39869821Y42461501D01*
X39832499Y42465177D01*
X39795177Y42461501D01*
X33483826Y42461501D01*
X33446501Y42465177D01*
X33409176Y42461501D01*
X33409168Y42461501D01*
X33297515Y42450504D01*
X33154254Y42407047D01*
X33022225Y42336475D01*
X32906500Y42241502D01*
X32882702Y42212504D01*
X32645386Y41975188D01*
X32462835Y42011500D01*
X32291301Y42011500D01*
X34886149Y44606347D01*
X35007229Y44630432D01*
X35177389Y44700914D01*
X35330528Y44803238D01*
X35460762Y44933472D01*
X35563086Y45086611D01*
X35633568Y45256771D01*
X35669500Y45437411D01*
X35669500Y45621589D01*
X35636896Y45785500D01*
X50318178Y45785500D01*
X50355500Y45781824D01*
X50392822Y45785500D01*
X50392833Y45785500D01*
X50504486Y45796497D01*
X50647747Y45839954D01*
X50779776Y45910526D01*
X50895501Y46005499D01*
X50919304Y46034502D01*
X51174613Y46289812D01*
X51357165Y46253500D01*
X51639835Y46253500D01*
X51917074Y46308647D01*
X52178227Y46416820D01*
X52413259Y46573863D01*
X52613137Y46773741D01*
X52716543Y46928500D01*
X52820457Y46928500D01*
X52923863Y46773741D01*
X53123741Y46573863D01*
X53358773Y46416820D01*
X53619926Y46308647D01*
X53897165Y46253500D01*
X54179835Y46253500D01*
X54457074Y46308647D01*
X54718227Y46416820D01*
X54953259Y46573863D01*
X55153137Y46773741D01*
X55308500Y47006259D01*
X55463863Y46773741D01*
X55663741Y46573863D01*
X55898773Y46416820D01*
X56159926Y46308647D01*
X56437165Y46253500D01*
X56719835Y46253500D01*
X56997074Y46308647D01*
X57258227Y46416820D01*
X57493259Y46573863D01*
X57693137Y46773741D01*
X57850180Y47008773D01*
X57958353Y47269926D01*
X58013500Y47547165D01*
X58013500Y47829835D01*
X57958353Y48107074D01*
X57850180Y48368227D01*
X57693137Y48603259D01*
X57493259Y48803137D01*
X57258227Y48960180D01*
X56997074Y49068353D01*
X56719835Y49123500D01*
X56437165Y49123500D01*
X56254613Y49087188D01*
X56017303Y49324499D01*
X55993500Y49353502D01*
X55877775Y49448475D01*
X55745746Y49519047D01*
X55602485Y49562504D01*
X55490832Y49573501D01*
X55490821Y49573501D01*
X55453499Y49577177D01*
X55416177Y49573501D01*
X48455821Y49573501D01*
X48418498Y49577177D01*
X48381175Y49573501D01*
X48381166Y49573501D01*
X48269513Y49562504D01*
X48126252Y49519047D01*
X47994222Y49448475D01*
X47910582Y49379833D01*
X47878498Y49353502D01*
X47854700Y49324504D01*
X46285708Y47755511D01*
X38772068Y47755511D01*
X38781353Y47777926D01*
X38836500Y48055165D01*
X38836500Y48337835D01*
X38781353Y48615074D01*
X38673180Y48876227D01*
X38516137Y49111259D01*
X38316259Y49311137D01*
X38081227Y49468180D01*
X37820074Y49576353D01*
X37542835Y49631500D01*
X37260165Y49631500D01*
X36982926Y49576353D01*
X36721773Y49468180D01*
X36486741Y49311137D01*
X36286863Y49111259D01*
X36131500Y48878741D01*
X35996500Y49080784D01*
X35996500Y49763318D01*
X36042462Y49801038D01*
X36152905Y49935614D01*
X36234972Y50089150D01*
X36285508Y50255746D01*
X36302572Y50429000D01*
X36302572Y51679000D01*
X36285508Y51852254D01*
X36234972Y52018850D01*
X36152905Y52172386D01*
X36042462Y52306962D01*
X35907886Y52417405D01*
X35754350Y52499472D01*
X35587754Y52550008D01*
X35414500Y52567072D01*
X35044060Y52567072D01*
X32909496Y54701635D01*
X32873949Y54744949D01*
X32701123Y54886784D01*
X32503947Y54992176D01*
X32289999Y55057077D01*
X32123252Y55073500D01*
X32123251Y55073500D01*
X32067500Y55078991D01*
X32011749Y55073500D01*
X30662692Y55073500D01*
X30582386Y55139405D01*
X30428850Y55221472D01*
X30262254Y55272008D01*
X30089000Y55289072D01*
X28839000Y55289072D01*
X28665746Y55272008D01*
X28499150Y55221472D01*
X28345614Y55139405D01*
X28211038Y55028962D01*
X28100595Y54894386D01*
X28018528Y54740850D01*
X27967992Y54574254D01*
X27950928Y54401000D01*
X27950928Y53476000D01*
X27967992Y53302746D01*
X28018528Y53136150D01*
X28100595Y52982614D01*
X28211038Y52848038D01*
X28345614Y52737595D01*
X28499150Y52655528D01*
X28665746Y52604992D01*
X28839000Y52587928D01*
X30089000Y52587928D01*
X30262254Y52604992D01*
X30428850Y52655528D01*
X30582386Y52737595D01*
X30662692Y52803500D01*
X31597369Y52803500D01*
X31833797Y52567072D01*
X31514500Y52567072D01*
X31341246Y52550008D01*
X31174650Y52499472D01*
X31021114Y52417405D01*
X30886538Y52306962D01*
X30776095Y52172386D01*
X30714066Y52056339D01*
X30582386Y52164405D01*
X30428850Y52246472D01*
X30262254Y52297008D01*
X30089000Y52314072D01*
X28839000Y52314072D01*
X28665746Y52297008D01*
X28499150Y52246472D01*
X28345614Y52164405D01*
X28211038Y52053962D01*
X28100595Y51919386D01*
X28018528Y51765850D01*
X27967992Y51599254D01*
X27950928Y51426000D01*
X27950928Y50501000D01*
X27967992Y50327746D01*
X28018528Y50161150D01*
X28100595Y50007614D01*
X28211038Y49873038D01*
X28345614Y49762595D01*
X28499150Y49680528D01*
X28646501Y49635830D01*
X28646500Y49080784D01*
X28509820Y48876227D01*
X28401647Y48615074D01*
X28346500Y48337835D01*
X28346500Y48055165D01*
X28401647Y47777926D01*
X28509820Y47516773D01*
X28666863Y47281741D01*
X28866741Y47081863D01*
X29101773Y46924820D01*
X29362926Y46816647D01*
X29640165Y46761500D01*
X29922835Y46761500D01*
X30105386Y46797812D01*
X30868701Y46034497D01*
X30892499Y46005499D01*
X30921497Y45981701D01*
X31008224Y45910526D01*
X31140253Y45839954D01*
X31283514Y45796497D01*
X31432500Y45781823D01*
X31469833Y45785500D01*
X33832104Y45785500D01*
X33811347Y45681149D01*
X30685497Y42555298D01*
X30656499Y42531500D01*
X30632701Y42502502D01*
X30632700Y42502501D01*
X30561525Y42415775D01*
X30490953Y42283745D01*
X30447497Y42140484D01*
X30435009Y42013697D01*
X30067250Y42011500D01*
X29908500Y41852750D01*
X29908500Y40703500D01*
X29928500Y40703500D01*
X29928500Y40449500D01*
X29908500Y40449500D01*
X29908500Y39300250D01*
X30067250Y39141500D01*
X30581500Y39138428D01*
X30705982Y39150688D01*
X30825680Y39186998D01*
X30920510Y39237687D01*
X37984697Y32173499D01*
X38008496Y32144500D01*
X38124221Y32049527D01*
X38256250Y31978955D01*
X38399511Y31935498D01*
X38511164Y31924501D01*
X38511173Y31924501D01*
X38548496Y31920825D01*
X38585819Y31924501D01*
X41711814Y31924501D01*
X41503241Y31785137D01*
X41303363Y31585259D01*
X41146320Y31350227D01*
X41038147Y31089074D01*
X40983000Y30811835D01*
X40983000Y30529165D01*
X41038147Y30251926D01*
X41146320Y29990773D01*
X41303363Y29755741D01*
X41503241Y29555863D01*
X41738273Y29398820D01*
X41999426Y29290647D01*
X42276665Y29235500D01*
X42559335Y29235500D01*
X42836574Y29290647D01*
X43097727Y29398820D01*
X43332759Y29555863D01*
X43532637Y29755741D01*
X43689680Y29990773D01*
X43797853Y30251926D01*
X43853000Y30529165D01*
X43853000Y30799500D01*
X46914957Y30799500D01*
X47018363Y30644741D01*
X47218241Y30444863D01*
X47453273Y30287820D01*
X47714426Y30179647D01*
X47991665Y30124500D01*
X48274335Y30124500D01*
X48551574Y30179647D01*
X48812727Y30287820D01*
X49047759Y30444863D01*
X49247637Y30644741D01*
X49403000Y30877259D01*
X49558363Y30644741D01*
X49758241Y30444863D01*
X49993273Y30287820D01*
X50254426Y30179647D01*
X50531665Y30124500D01*
X50814335Y30124500D01*
X51091574Y30179647D01*
X51352727Y30287820D01*
X51587759Y30444863D01*
X51787637Y30644741D01*
X51943000Y30877259D01*
X52098363Y30644741D01*
X52298241Y30444863D01*
X52533273Y30287820D01*
X52794426Y30179647D01*
X53071665Y30124500D01*
X53354335Y30124500D01*
X53631574Y30179647D01*
X53892727Y30287820D01*
X54127759Y30444863D01*
X54327637Y30644741D01*
X54483000Y30877259D01*
X54638363Y30644741D01*
X54838241Y30444863D01*
X55073273Y30287820D01*
X55334426Y30179647D01*
X55611665Y30124500D01*
X55894335Y30124500D01*
X56171574Y30179647D01*
X56432727Y30287820D01*
X56667759Y30444863D01*
X56867637Y30644741D01*
X57023000Y30877259D01*
X57178363Y30644741D01*
X57378241Y30444863D01*
X57613273Y30287820D01*
X57874426Y30179647D01*
X58151665Y30124500D01*
X58434335Y30124500D01*
X58711574Y30179647D01*
X58972727Y30287820D01*
X59207759Y30444863D01*
X59407637Y30644741D01*
X59563000Y30877259D01*
X59718363Y30644741D01*
X59918241Y30444863D01*
X60153273Y30287820D01*
X60414426Y30179647D01*
X60691665Y30124500D01*
X60863198Y30124500D01*
X58906999Y28168300D01*
X58878001Y28144502D01*
X58854203Y28115504D01*
X58854202Y28115503D01*
X58783027Y28028777D01*
X58712455Y27896747D01*
X58668999Y27753486D01*
X58654325Y27604501D01*
X58658002Y27567169D01*
X58658001Y18741546D01*
X58502229Y18806068D01*
X58381149Y18830153D01*
X57650304Y19560998D01*
X57626501Y19590001D01*
X57510776Y19684974D01*
X57378747Y19755546D01*
X57235486Y19799003D01*
X57123833Y19810000D01*
X57123822Y19810000D01*
X57086500Y19813676D01*
X57049178Y19810000D01*
X28445302Y19810000D01*
X28438684Y19816618D01*
X28573389Y19872414D01*
X28726528Y19974738D01*
X28856762Y20104972D01*
X28959086Y20258111D01*
X29029568Y20428271D01*
X29065500Y20608911D01*
X29065500Y20793089D01*
X29029568Y20973729D01*
X28959086Y21143889D01*
X28856762Y21297028D01*
X28726528Y21427262D01*
X28573389Y21529586D01*
X28403229Y21600068D01*
X28282149Y21624153D01*
X26055802Y23850500D01*
X33359928Y23850500D01*
X33359928Y22250500D01*
X33372188Y22126018D01*
X33408498Y22006320D01*
X33467463Y21896006D01*
X33546815Y21799315D01*
X33643506Y21719963D01*
X33753820Y21660998D01*
X33873518Y21624688D01*
X33998000Y21612428D01*
X35598000Y21612428D01*
X35722482Y21624688D01*
X35842180Y21660998D01*
X35952494Y21719963D01*
X36049185Y21799315D01*
X36128537Y21896006D01*
X36187502Y22006320D01*
X36223812Y22126018D01*
X36236072Y22250500D01*
X36236072Y23191835D01*
X40983000Y23191835D01*
X40983000Y22909165D01*
X41038147Y22631926D01*
X41146320Y22370773D01*
X41303363Y22135741D01*
X41503241Y21935863D01*
X41738273Y21778820D01*
X41999426Y21670647D01*
X42276665Y21615500D01*
X42559335Y21615500D01*
X42836574Y21670647D01*
X43097727Y21778820D01*
X43332759Y21935863D01*
X43532637Y22135741D01*
X43689680Y22370773D01*
X43797853Y22631926D01*
X43853000Y22909165D01*
X43853000Y23191835D01*
X43797853Y23469074D01*
X43689680Y23730227D01*
X43532637Y23965259D01*
X43332759Y24165137D01*
X43097727Y24322180D01*
X42836574Y24430353D01*
X42559335Y24485500D01*
X42276665Y24485500D01*
X41999426Y24430353D01*
X41738273Y24322180D01*
X41503241Y24165137D01*
X41303363Y23965259D01*
X41146320Y23730227D01*
X41038147Y23469074D01*
X40983000Y23191835D01*
X36236072Y23191835D01*
X36236072Y23850500D01*
X36223812Y23974982D01*
X36187502Y24094680D01*
X36128537Y24204994D01*
X36049185Y24301685D01*
X35952494Y24381037D01*
X35842180Y24440002D01*
X35722482Y24476312D01*
X35598000Y24488572D01*
X33998000Y24488572D01*
X33873518Y24476312D01*
X33753820Y24440002D01*
X33643506Y24381037D01*
X33546815Y24301685D01*
X33467463Y24204994D01*
X33408498Y24094680D01*
X33372188Y23974982D01*
X33359928Y23850500D01*
X26055802Y23850500D01*
X24572500Y25333801D01*
X24572500Y27009928D01*
X24612500Y27009928D01*
X24736982Y27022188D01*
X24856680Y27058498D01*
X24966994Y27117463D01*
X25063685Y27196815D01*
X25143037Y27293506D01*
X25202002Y27403820D01*
X25238312Y27523518D01*
X25250572Y27648000D01*
X25250572Y29248000D01*
X25238312Y29372482D01*
X25202002Y29492180D01*
X25143037Y29602494D01*
X25081237Y29677798D01*
X33984903Y29677798D01*
X34056486Y29433829D01*
X34311996Y29312929D01*
X34586184Y29244200D01*
X34868512Y29230283D01*
X35148130Y29271713D01*
X35414292Y29366897D01*
X35539514Y29433829D01*
X35611097Y29677798D01*
X34798000Y30490895D01*
X33984903Y29677798D01*
X25081237Y29677798D01*
X25063685Y29699185D01*
X24966994Y29778537D01*
X24856680Y29837502D01*
X24736982Y29873812D01*
X24612500Y29886072D01*
X23012500Y29886072D01*
X22888018Y29873812D01*
X22768320Y29837502D01*
X22658006Y29778537D01*
X22561315Y29699185D01*
X22481963Y29602494D01*
X22422998Y29492180D01*
X22386688Y29372482D01*
X22385857Y29364039D01*
X22187259Y29562637D01*
X21952227Y29719680D01*
X21691074Y29827853D01*
X21413835Y29883000D01*
X21131165Y29883000D01*
X20853926Y29827853D01*
X20592773Y29719680D01*
X20357741Y29562637D01*
X20157863Y29362759D01*
X20002500Y29130241D01*
X19847137Y29362759D01*
X19647259Y29562637D01*
X19412227Y29719680D01*
X19151074Y29827853D01*
X18873835Y29883000D01*
X18591165Y29883000D01*
X18313926Y29827853D01*
X18052773Y29719680D01*
X17817741Y29562637D01*
X17617863Y29362759D01*
X17462500Y29130241D01*
X17307137Y29362759D01*
X17107259Y29562637D01*
X16872227Y29719680D01*
X16611074Y29827853D01*
X16333835Y29883000D01*
X16051165Y29883000D01*
X15827499Y29838509D01*
X15827499Y30599988D01*
X33357783Y30599988D01*
X33399213Y30320370D01*
X33494397Y30054208D01*
X33561329Y29928986D01*
X33805298Y29857403D01*
X34618395Y30670500D01*
X34977605Y30670500D01*
X35790702Y29857403D01*
X36034671Y29928986D01*
X36155571Y30184496D01*
X36224300Y30458684D01*
X36238217Y30741012D01*
X36196787Y31020630D01*
X36101603Y31286792D01*
X36034671Y31412014D01*
X35790702Y31483597D01*
X34977605Y30670500D01*
X34618395Y30670500D01*
X33805298Y31483597D01*
X33561329Y31412014D01*
X33440429Y31156504D01*
X33371700Y30882316D01*
X33357783Y30599988D01*
X15827499Y30599988D01*
X15827499Y31663202D01*
X33984903Y31663202D01*
X34798000Y30850105D01*
X35611097Y31663202D01*
X35539514Y31907171D01*
X35284004Y32028071D01*
X35009816Y32096800D01*
X34727488Y32110717D01*
X34447870Y32069287D01*
X34181708Y31974103D01*
X34056486Y31907171D01*
X33984903Y31663202D01*
X15827499Y31663202D01*
X15827499Y34180179D01*
X15831175Y34217502D01*
X15827499Y34254825D01*
X15827499Y34254834D01*
X15816502Y34366487D01*
X15773045Y34509748D01*
X15702473Y34641777D01*
X15607500Y34757502D01*
X15578502Y34781300D01*
X10583302Y39776500D01*
X28343428Y39776500D01*
X28355688Y39652018D01*
X28391998Y39532320D01*
X28450963Y39422006D01*
X28530315Y39325315D01*
X28627006Y39245963D01*
X28737320Y39186998D01*
X28857018Y39150688D01*
X28981500Y39138428D01*
X29495750Y39141500D01*
X29654500Y39300250D01*
X29654500Y40449500D01*
X28505250Y40449500D01*
X28346500Y40290750D01*
X28343428Y39776500D01*
X10583302Y39776500D01*
X9731072Y40628729D01*
X9731072Y41217001D01*
X9715363Y41376500D01*
X28343428Y41376500D01*
X28346500Y40862250D01*
X28505250Y40703500D01*
X29654500Y40703500D01*
X29654500Y41852750D01*
X29495750Y42011500D01*
X28981500Y42014572D01*
X28857018Y42002312D01*
X28737320Y41966002D01*
X28627006Y41907037D01*
X28530315Y41827685D01*
X28450963Y41730994D01*
X28391998Y41620680D01*
X28355688Y41500982D01*
X28343428Y41376500D01*
X9715363Y41376500D01*
X9714008Y41390255D01*
X9663472Y41556851D01*
X9581405Y41710387D01*
X9470962Y41844962D01*
X9336387Y41955405D01*
X9182851Y42037472D01*
X9016255Y42088008D01*
X8843001Y42105072D01*
X8192999Y42105072D01*
X8019745Y42088008D01*
X7853149Y42037472D01*
X7699613Y41955405D01*
X7603000Y41876117D01*
X7603000Y42638241D01*
X7650905Y42696614D01*
X7732972Y42850150D01*
X7760227Y42940000D01*
X8074428Y42940000D01*
X8086688Y42815518D01*
X8122998Y42695820D01*
X8181963Y42585506D01*
X8261315Y42488815D01*
X8358006Y42409463D01*
X8468320Y42350498D01*
X8588018Y42314188D01*
X8712500Y42301928D01*
X9139250Y42305000D01*
X9298000Y42463750D01*
X9298000Y43688000D01*
X9552000Y43688000D01*
X9552000Y42463750D01*
X9710750Y42305000D01*
X10137500Y42301928D01*
X10261982Y42314188D01*
X10381680Y42350498D01*
X10491994Y42409463D01*
X10588685Y42488815D01*
X10668037Y42585506D01*
X10727002Y42695820D01*
X10763312Y42815518D01*
X10775572Y42940000D01*
X10772500Y43529250D01*
X10613750Y43688000D01*
X9552000Y43688000D01*
X9298000Y43688000D01*
X8236250Y43688000D01*
X8077500Y43529250D01*
X8074428Y42940000D01*
X7760227Y42940000D01*
X7783508Y43016746D01*
X7800572Y43190000D01*
X7800572Y44440000D01*
X7783508Y44613254D01*
X7760228Y44690000D01*
X8074428Y44690000D01*
X8077500Y44100750D01*
X8236250Y43942000D01*
X9298000Y43942000D01*
X9298000Y45166250D01*
X9552000Y45166250D01*
X9552000Y43942000D01*
X10613750Y43942000D01*
X10772500Y44100750D01*
X10775572Y44690000D01*
X10763312Y44814482D01*
X10727002Y44934180D01*
X10668037Y45044494D01*
X10588685Y45141185D01*
X10491994Y45220537D01*
X10381680Y45279502D01*
X10261982Y45315812D01*
X10137500Y45328072D01*
X9710750Y45325000D01*
X9552000Y45166250D01*
X9298000Y45166250D01*
X9139250Y45325000D01*
X8712500Y45328072D01*
X8588018Y45315812D01*
X8468320Y45279502D01*
X8358006Y45220537D01*
X8261315Y45141185D01*
X8181963Y45044494D01*
X8122998Y44934180D01*
X8086688Y44814482D01*
X8074428Y44690000D01*
X7760228Y44690000D01*
X7732972Y44779850D01*
X7650905Y44933386D01*
X7540462Y45067962D01*
X7405886Y45178405D01*
X7252350Y45260472D01*
X7085754Y45311008D01*
X6912500Y45328072D01*
X5987500Y45328072D01*
X5814246Y45311008D01*
X5647650Y45260472D01*
X5494114Y45178405D01*
X5359538Y45067962D01*
X5249095Y44933386D01*
X5167028Y44779850D01*
X5116492Y44613254D01*
X5099428Y44440000D01*
X685000Y44440000D01*
X685000Y57945647D01*
X675711Y58039956D01*
X691653Y58202542D01*
X776031Y58482018D01*
X913085Y58739780D01*
X1097599Y58966015D01*
X1322540Y59152103D01*
X1579342Y59290956D01*
X1858219Y59377282D01*
X2030268Y59395365D01*
X2125353Y59386000D01*
G37*
X2125353Y59386000D02*
X78646647Y59386000D01*
X78740956Y59395289D01*
X78903542Y59379347D01*
X79183018Y59294969D01*
X79440780Y59157915D01*
X79667015Y58973401D01*
X79853103Y58748460D01*
X79991956Y58491658D01*
X80078282Y58212781D01*
X80096365Y58040731D01*
X80087000Y57945646D01*
X80087001Y685000D01*
X14218381Y685000D01*
X685000Y14218380D01*
X685000Y44440000D01*
X5099428Y44440000D01*
X5099428Y43190000D01*
X5116492Y43016746D01*
X5167028Y42850150D01*
X5249095Y42696614D01*
X5333001Y42594374D01*
X5333000Y41576443D01*
X5322528Y41556851D01*
X5271992Y41390255D01*
X5254928Y41217001D01*
X5254928Y40316999D01*
X5271992Y40143745D01*
X5322528Y39977149D01*
X5404595Y39823613D01*
X5515038Y39689038D01*
X5649613Y39578595D01*
X5803149Y39496528D01*
X5969745Y39445992D01*
X6142999Y39428928D01*
X6793001Y39428928D01*
X6966255Y39445992D01*
X7132851Y39496528D01*
X7286387Y39578595D01*
X7420962Y39689038D01*
X7493000Y39776816D01*
X7565038Y39689038D01*
X7699613Y39578595D01*
X7853149Y39496528D01*
X8019745Y39445992D01*
X8192999Y39428928D01*
X8781271Y39428928D01*
X14307500Y33902698D01*
X14307500Y29729922D01*
X14071074Y29827853D01*
X13793835Y29883000D01*
X13511165Y29883000D01*
X13233926Y29827853D01*
X12972773Y29719680D01*
X12737741Y29562637D01*
X12537863Y29362759D01*
X12382500Y29130241D01*
X12227137Y29362759D01*
X12027259Y29562637D01*
X11792227Y29719680D01*
X11531074Y29827853D01*
X11253835Y29883000D01*
X10971165Y29883000D01*
X10693926Y29827853D01*
X10432773Y29719680D01*
X10197741Y29562637D01*
X9997863Y29362759D01*
X9842500Y29130241D01*
X9687137Y29362759D01*
X9487259Y29562637D01*
X9252227Y29719680D01*
X8991074Y29827853D01*
X8713835Y29883000D01*
X8431165Y29883000D01*
X8153926Y29827853D01*
X7892773Y29719680D01*
X7657741Y29562637D01*
X7457863Y29362759D01*
X7300820Y29127727D01*
X7192647Y28866574D01*
X7137500Y28589335D01*
X7137500Y28306665D01*
X7192647Y28029426D01*
X7300820Y27768273D01*
X7457863Y27533241D01*
X7657741Y27333363D01*
X7892773Y27176320D01*
X8153926Y27068147D01*
X8431165Y27013000D01*
X8713835Y27013000D01*
X8991074Y27068147D01*
X9252227Y27176320D01*
X9487259Y27333363D01*
X9687137Y27533241D01*
X9842500Y27765759D01*
X9997863Y27533241D01*
X10197741Y27333363D01*
X10432773Y27176320D01*
X10693926Y27068147D01*
X10971165Y27013000D01*
X11253835Y27013000D01*
X11531074Y27068147D01*
X11792227Y27176320D01*
X12027259Y27333363D01*
X12227137Y27533241D01*
X12382500Y27765759D01*
X12537863Y27533241D01*
X12737741Y27333363D01*
X12972773Y27176320D01*
X13233926Y27068147D01*
X13511165Y27013000D01*
X13793835Y27013000D01*
X14071074Y27068147D01*
X14307499Y27166077D01*
X14307499Y24530323D01*
X14303823Y24493001D01*
X14307499Y24455679D01*
X14307499Y24455669D01*
X14318496Y24344016D01*
X14360667Y24204994D01*
X14361953Y24200755D01*
X14432525Y24068725D01*
X14472370Y24020175D01*
X14527498Y23953000D01*
X14556502Y23929197D01*
X16222699Y22263000D01*
X16051165Y22263000D01*
X15773926Y22207853D01*
X15512773Y22099680D01*
X15277741Y21942637D01*
X15077863Y21742759D01*
X14974457Y21588000D01*
X14870543Y21588000D01*
X14767137Y21742759D01*
X14567259Y21942637D01*
X14332227Y22099680D01*
X14071074Y22207853D01*
X13793835Y22263000D01*
X13511165Y22263000D01*
X13233926Y22207853D01*
X12972773Y22099680D01*
X12737741Y21942637D01*
X12537863Y21742759D01*
X12382500Y21510241D01*
X12227137Y21742759D01*
X12027259Y21942637D01*
X11792227Y22099680D01*
X11531074Y22207853D01*
X11253835Y22263000D01*
X10971165Y22263000D01*
X10693926Y22207853D01*
X10432773Y22099680D01*
X10197741Y21942637D01*
X9997863Y21742759D01*
X9842500Y21510241D01*
X9687137Y21742759D01*
X9487259Y21942637D01*
X9252227Y22099680D01*
X8991074Y22207853D01*
X8713835Y22263000D01*
X8431165Y22263000D01*
X8153926Y22207853D01*
X7892773Y22099680D01*
X7657741Y21942637D01*
X7457863Y21742759D01*
X7300820Y21507727D01*
X7192647Y21246574D01*
X7137500Y20969335D01*
X7137500Y20686665D01*
X7192647Y20409426D01*
X7300820Y20148273D01*
X7457863Y19913241D01*
X7657741Y19713363D01*
X7892773Y19556320D01*
X8153926Y19448147D01*
X8431165Y19393000D01*
X8713835Y19393000D01*
X8991074Y19448147D01*
X9252227Y19556320D01*
X9487259Y19713363D01*
X9687137Y19913241D01*
X9842500Y20145759D01*
X9997863Y19913241D01*
X10197741Y19713363D01*
X10432773Y19556320D01*
X10693926Y19448147D01*
X10971165Y19393000D01*
X11253835Y19393000D01*
X11436387Y19429312D01*
X22868137Y7997561D01*
X22785158Y8031932D01*
X22498260Y8089000D01*
X22205740Y8089000D01*
X21918842Y8031932D01*
X21648589Y7919990D01*
X21405368Y7757475D01*
X21198525Y7550632D01*
X21082000Y7376240D01*
X20965475Y7550632D01*
X20758632Y7757475D01*
X20515411Y7919990D01*
X20245158Y8031932D01*
X19958260Y8089000D01*
X19665740Y8089000D01*
X19378842Y8031932D01*
X19108589Y7919990D01*
X18865368Y7757475D01*
X18658525Y7550632D01*
X18542000Y7376240D01*
X18425475Y7550632D01*
X18218632Y7757475D01*
X17975411Y7919990D01*
X17705158Y8031932D01*
X17418260Y8089000D01*
X17125740Y8089000D01*
X16838842Y8031932D01*
X16568589Y7919990D01*
X16325368Y7757475D01*
X16118525Y7550632D01*
X15956010Y7307411D01*
X15844068Y7037158D01*
X15787000Y6750260D01*
X15787000Y6457740D01*
X15844068Y6170842D01*
X15956010Y5900589D01*
X16118525Y5657368D01*
X16325368Y5450525D01*
X16499760Y5334000D01*
X16325368Y5217475D01*
X16118525Y5010632D01*
X15956010Y4767411D01*
X15844068Y4497158D01*
X15787000Y4210260D01*
X15787000Y3917740D01*
X15844068Y3630842D01*
X15956010Y3360589D01*
X16118525Y3117368D01*
X16325368Y2910525D01*
X16568589Y2748010D01*
X16838842Y2636068D01*
X17125740Y2579000D01*
X17418260Y2579000D01*
X17705158Y2636068D01*
X17975411Y2748010D01*
X18218632Y2910525D01*
X18425475Y3117368D01*
X18542000Y3291760D01*
X18658525Y3117368D01*
X18865368Y2910525D01*
X19108589Y2748010D01*
X19378842Y2636068D01*
X19665740Y2579000D01*
X19958260Y2579000D01*
X20245158Y2636068D01*
X20515411Y2748010D01*
X20758632Y2910525D01*
X20965475Y3117368D01*
X21082000Y3291760D01*
X21198525Y3117368D01*
X21405368Y2910525D01*
X21648589Y2748010D01*
X21918842Y2636068D01*
X22205740Y2579000D01*
X22498260Y2579000D01*
X22785158Y2636068D01*
X23055411Y2748010D01*
X23298632Y2910525D01*
X23505475Y3117368D01*
X23622000Y3291760D01*
X23738525Y3117368D01*
X23945368Y2910525D01*
X24188589Y2748010D01*
X24458842Y2636068D01*
X24745740Y2579000D01*
X25038260Y2579000D01*
X25325158Y2636068D01*
X25595411Y2748010D01*
X25838632Y2910525D01*
X26045475Y3117368D01*
X26162000Y3291760D01*
X26278525Y3117368D01*
X26485368Y2910525D01*
X26728589Y2748010D01*
X26998842Y2636068D01*
X27285740Y2579000D01*
X27578260Y2579000D01*
X27865158Y2636068D01*
X28135411Y2748010D01*
X28378632Y2910525D01*
X28585475Y3117368D01*
X28702000Y3291760D01*
X28818525Y3117368D01*
X29025368Y2910525D01*
X29268589Y2748010D01*
X29538842Y2636068D01*
X29825740Y2579000D01*
X30118260Y2579000D01*
X30405158Y2636068D01*
X30675411Y2748010D01*
X30918632Y2910525D01*
X31125475Y3117368D01*
X31242000Y3291760D01*
X31358525Y3117368D01*
X31565368Y2910525D01*
X31808589Y2748010D01*
X32078842Y2636068D01*
X32365740Y2579000D01*
X32658260Y2579000D01*
X32945158Y2636068D01*
X33215411Y2748010D01*
X33458632Y2910525D01*
X33665475Y3117368D01*
X33782000Y3291760D01*
X33898525Y3117368D01*
X34105368Y2910525D01*
X34348589Y2748010D01*
X34618842Y2636068D01*
X34905740Y2579000D01*
X35198260Y2579000D01*
X35485158Y2636068D01*
X35755411Y2748010D01*
X35998632Y2910525D01*
X36205475Y3117368D01*
X36322000Y3291760D01*
X36438525Y3117368D01*
X36645368Y2910525D01*
X36888589Y2748010D01*
X37158842Y2636068D01*
X37445740Y2579000D01*
X37738260Y2579000D01*
X38025158Y2636068D01*
X38295411Y2748010D01*
X38538632Y2910525D01*
X38745475Y3117368D01*
X38862000Y3291760D01*
X38978525Y3117368D01*
X39185368Y2910525D01*
X39428589Y2748010D01*
X39698842Y2636068D01*
X39985740Y2579000D01*
X40278260Y2579000D01*
X40565158Y2636068D01*
X40835411Y2748010D01*
X41078632Y2910525D01*
X41285475Y3117368D01*
X41402000Y3291760D01*
X41518525Y3117368D01*
X41725368Y2910525D01*
X41968589Y2748010D01*
X42238842Y2636068D01*
X42525740Y2579000D01*
X42818260Y2579000D01*
X43105158Y2636068D01*
X43375411Y2748010D01*
X43618632Y2910525D01*
X43825475Y3117368D01*
X43942000Y3291760D01*
X44058525Y3117368D01*
X44265368Y2910525D01*
X44508589Y2748010D01*
X44778842Y2636068D01*
X45065740Y2579000D01*
X45358260Y2579000D01*
X45645158Y2636068D01*
X45915411Y2748010D01*
X46158632Y2910525D01*
X46365475Y3117368D01*
X46482000Y3291760D01*
X46598525Y3117368D01*
X46805368Y2910525D01*
X47048589Y2748010D01*
X47318842Y2636068D01*
X47605740Y2579000D01*
X47898260Y2579000D01*
X48185158Y2636068D01*
X48455411Y2748010D01*
X48698632Y2910525D01*
X48905475Y3117368D01*
X49027195Y3299534D01*
X49096822Y3182645D01*
X49291731Y2966412D01*
X49525080Y2792359D01*
X49787901Y2667175D01*
X49935110Y2622524D01*
X50165000Y2743845D01*
X50165000Y3937000D01*
X50145000Y3937000D01*
X50145000Y4191000D01*
X50165000Y4191000D01*
X50165000Y4211000D01*
X50419000Y4211000D01*
X50419000Y4191000D01*
X50439000Y4191000D01*
X50439000Y3937000D01*
X50419000Y3937000D01*
X50419000Y2743845D01*
X50648890Y2622524D01*
X50796099Y2667175D01*
X51058920Y2792359D01*
X51292269Y2966412D01*
X51487178Y3182645D01*
X51556805Y3299534D01*
X51678525Y3117368D01*
X51885368Y2910525D01*
X52128589Y2748010D01*
X52398842Y2636068D01*
X52685740Y2579000D01*
X52978260Y2579000D01*
X53265158Y2636068D01*
X53535411Y2748010D01*
X53778632Y2910525D01*
X53985475Y3117368D01*
X54102000Y3291760D01*
X54218525Y3117368D01*
X54425368Y2910525D01*
X54668589Y2748010D01*
X54938842Y2636068D01*
X55225740Y2579000D01*
X55518260Y2579000D01*
X55805158Y2636068D01*
X56075411Y2748010D01*
X56318632Y2910525D01*
X56525475Y3117368D01*
X56642000Y3291760D01*
X56758525Y3117368D01*
X56965368Y2910525D01*
X57208589Y2748010D01*
X57478842Y2636068D01*
X57765740Y2579000D01*
X58058260Y2579000D01*
X58345158Y2636068D01*
X58615411Y2748010D01*
X58858632Y2910525D01*
X59065475Y3117368D01*
X59182000Y3291760D01*
X59298525Y3117368D01*
X59505368Y2910525D01*
X59748589Y2748010D01*
X60018842Y2636068D01*
X60305740Y2579000D01*
X60598260Y2579000D01*
X60885158Y2636068D01*
X61155411Y2748010D01*
X61398632Y2910525D01*
X61605475Y3117368D01*
X61722000Y3291760D01*
X61838525Y3117368D01*
X62045368Y2910525D01*
X62288589Y2748010D01*
X62558842Y2636068D01*
X62845740Y2579000D01*
X63138260Y2579000D01*
X63425158Y2636068D01*
X63695411Y2748010D01*
X63938632Y2910525D01*
X64145475Y3117368D01*
X64262000Y3291760D01*
X64378525Y3117368D01*
X64585368Y2910525D01*
X64828589Y2748010D01*
X65098842Y2636068D01*
X65385740Y2579000D01*
X65678260Y2579000D01*
X65965158Y2636068D01*
X66235411Y2748010D01*
X66478632Y2910525D01*
X66685475Y3117368D01*
X66802000Y3291760D01*
X66918525Y3117368D01*
X67125368Y2910525D01*
X67368589Y2748010D01*
X67638842Y2636068D01*
X67925740Y2579000D01*
X68218260Y2579000D01*
X68505158Y2636068D01*
X68775411Y2748010D01*
X69018632Y2910525D01*
X69225475Y3117368D01*
X69342000Y3291760D01*
X69458525Y3117368D01*
X69665368Y2910525D01*
X69908589Y2748010D01*
X70178842Y2636068D01*
X70465740Y2579000D01*
X70758260Y2579000D01*
X71045158Y2636068D01*
X71315411Y2748010D01*
X71558632Y2910525D01*
X71765475Y3117368D01*
X71882000Y3291760D01*
X71998525Y3117368D01*
X72205368Y2910525D01*
X72448589Y2748010D01*
X72718842Y2636068D01*
X73005740Y2579000D01*
X73298260Y2579000D01*
X73585158Y2636068D01*
X73855411Y2748010D01*
X74098632Y2910525D01*
X74305475Y3117368D01*
X74422000Y3291760D01*
X74538525Y3117368D01*
X74745368Y2910525D01*
X74988589Y2748010D01*
X75258842Y2636068D01*
X75545740Y2579000D01*
X75838260Y2579000D01*
X76125158Y2636068D01*
X76395411Y2748010D01*
X76638632Y2910525D01*
X76845475Y3117368D01*
X76962000Y3291760D01*
X77078525Y3117368D01*
X77285368Y2910525D01*
X77528589Y2748010D01*
X77798842Y2636068D01*
X78085740Y2579000D01*
X78378260Y2579000D01*
X78665158Y2636068D01*
X78935411Y2748010D01*
X79178632Y2910525D01*
X79385475Y3117368D01*
X79547990Y3360589D01*
X79659932Y3630842D01*
X79717000Y3917740D01*
X79717000Y4210260D01*
X79659932Y4497158D01*
X79547990Y4767411D01*
X79385475Y5010632D01*
X79253620Y5142487D01*
X79326180Y5164498D01*
X79436494Y5223463D01*
X79533185Y5302815D01*
X79612537Y5399506D01*
X79671502Y5509820D01*
X79707812Y5629518D01*
X79720072Y5754000D01*
X79720072Y7454000D01*
X79707812Y7578482D01*
X79671502Y7698180D01*
X79612537Y7808494D01*
X79533185Y7905185D01*
X79436494Y7984537D01*
X79326180Y8043502D01*
X79206482Y8079812D01*
X79082000Y8092072D01*
X77816999Y8092072D01*
X77816999Y12313678D01*
X77820675Y12351001D01*
X77816999Y12388324D01*
X77816999Y12388334D01*
X77806002Y12499987D01*
X77762545Y12643248D01*
X77691973Y12775278D01*
X77620798Y12862004D01*
X77597000Y12891002D01*
X77568002Y12914800D01*
X75726153Y14756648D01*
X75702068Y14877729D01*
X75678396Y14934879D01*
X75931665Y14884500D01*
X76214335Y14884500D01*
X76491574Y14939647D01*
X76752727Y15047820D01*
X76987759Y15204863D01*
X77187637Y15404741D01*
X77344680Y15639773D01*
X77452853Y15900926D01*
X77508000Y16178165D01*
X77508000Y16460835D01*
X77452853Y16738074D01*
X77344680Y16999227D01*
X77187637Y17234259D01*
X76987759Y17434137D01*
X76752727Y17591180D01*
X76491574Y17699353D01*
X76214335Y17754500D01*
X75931665Y17754500D01*
X75654426Y17699353D01*
X75393273Y17591180D01*
X75158241Y17434137D01*
X74958363Y17234259D01*
X74803000Y17001741D01*
X74647637Y17234259D01*
X74447759Y17434137D01*
X74212727Y17591180D01*
X73951574Y17699353D01*
X73674335Y17754500D01*
X73391665Y17754500D01*
X73167999Y17710009D01*
X73167999Y27579698D01*
X75749114Y30160812D01*
X75931665Y30124500D01*
X76214335Y30124500D01*
X76491574Y30179647D01*
X76752727Y30287820D01*
X76987759Y30444863D01*
X77187637Y30644741D01*
X77344680Y30879773D01*
X77452853Y31140926D01*
X77508000Y31418165D01*
X77508000Y31700835D01*
X77452853Y31978074D01*
X77344680Y32239227D01*
X77187637Y32474259D01*
X76987759Y32674137D01*
X76752727Y32831180D01*
X76491574Y32939353D01*
X76214335Y32994500D01*
X75931665Y32994500D01*
X75654426Y32939353D01*
X75393273Y32831180D01*
X75158241Y32674137D01*
X74958363Y32474259D01*
X74803000Y32241741D01*
X74647637Y32474259D01*
X74447759Y32674137D01*
X74212727Y32831180D01*
X73951574Y32939353D01*
X73674335Y32994500D01*
X73391665Y32994500D01*
X73114426Y32939353D01*
X72853273Y32831180D01*
X72618241Y32674137D01*
X72418363Y32474259D01*
X72263000Y32241741D01*
X72107637Y32474259D01*
X71907759Y32674137D01*
X71672727Y32831180D01*
X71411574Y32939353D01*
X71134335Y32994500D01*
X70851665Y32994500D01*
X70574426Y32939353D01*
X70313273Y32831180D01*
X70078241Y32674137D01*
X69878363Y32474259D01*
X69723000Y32241741D01*
X69567637Y32474259D01*
X69367759Y32674137D01*
X69132727Y32831180D01*
X68871574Y32939353D01*
X68594335Y32994500D01*
X68311665Y32994500D01*
X68034426Y32939353D01*
X67773273Y32831180D01*
X67538241Y32674137D01*
X67338363Y32474259D01*
X67183000Y32241741D01*
X67027637Y32474259D01*
X66827759Y32674137D01*
X66592727Y32831180D01*
X66331574Y32939353D01*
X66054335Y32994500D01*
X65771665Y32994500D01*
X65494426Y32939353D01*
X65233273Y32831180D01*
X64998241Y32674137D01*
X64798363Y32474259D01*
X64643000Y32241741D01*
X64487637Y32474259D01*
X64287759Y32674137D01*
X64052727Y32831180D01*
X63791574Y32939353D01*
X63514335Y32994500D01*
X63231665Y32994500D01*
X62954426Y32939353D01*
X62693273Y32831180D01*
X62458241Y32674137D01*
X62258363Y32474259D01*
X62103000Y32241741D01*
X61947637Y32474259D01*
X61747759Y32674137D01*
X61512727Y32831180D01*
X61251574Y32939353D01*
X60974335Y32994500D01*
X60691665Y32994500D01*
X60414426Y32939353D01*
X60153273Y32831180D01*
X59918241Y32674137D01*
X59718363Y32474259D01*
X59563000Y32241741D01*
X59407637Y32474259D01*
X59207759Y32674137D01*
X58972727Y32831180D01*
X58711574Y32939353D01*
X58434335Y32994500D01*
X58151665Y32994500D01*
X57874426Y32939353D01*
X57613273Y32831180D01*
X57378241Y32674137D01*
X57178363Y32474259D01*
X57023000Y32241741D01*
X56867637Y32474259D01*
X56667759Y32674137D01*
X56432727Y32831180D01*
X56171574Y32939353D01*
X55894335Y32994500D01*
X55611665Y32994500D01*
X55429114Y32958188D01*
X51681304Y36705997D01*
X51657501Y36735001D01*
X51541776Y36829974D01*
X51409747Y36900546D01*
X51266486Y36944003D01*
X51154833Y36955000D01*
X51154822Y36955000D01*
X51117500Y36958676D01*
X51080178Y36955000D01*
X42288302Y36955000D01*
X39788805Y39454496D01*
X39765002Y39483500D01*
X39649277Y39578473D01*
X39517248Y39649045D01*
X39373987Y39692502D01*
X39358804Y39693997D01*
X38800188Y40252614D01*
X38836500Y40435165D01*
X38836500Y40717835D01*
X38792009Y40941501D01*
X39517698Y40941501D01*
X42026701Y38432497D01*
X42050500Y38403498D01*
X42166225Y38308525D01*
X42298254Y38237953D01*
X42441515Y38194496D01*
X42553168Y38183499D01*
X42553178Y38183499D01*
X42590501Y38179823D01*
X42627824Y38183499D01*
X52876177Y38183499D01*
X52913499Y38179823D01*
X52950821Y38183499D01*
X52950832Y38183499D01*
X53062485Y38194496D01*
X53205746Y38237953D01*
X53337775Y38308525D01*
X53453500Y38403498D01*
X53477303Y38432501D01*
X53714613Y38669812D01*
X53897165Y38633500D01*
X54179835Y38633500D01*
X54457074Y38688647D01*
X54718227Y38796820D01*
X54953259Y38953863D01*
X55153137Y39153741D01*
X55308500Y39386259D01*
X55463863Y39153741D01*
X55663741Y38953863D01*
X55898773Y38796820D01*
X56159926Y38688647D01*
X56437165Y38633500D01*
X56719835Y38633500D01*
X56997074Y38688647D01*
X57258227Y38796820D01*
X57493259Y38953863D01*
X57693137Y39153741D01*
X57850180Y39388773D01*
X57958353Y39649926D01*
X58013500Y39927165D01*
X58013500Y40209835D01*
X57958353Y40487074D01*
X57850180Y40748227D01*
X57693137Y40983259D01*
X57493259Y41183137D01*
X57258227Y41340180D01*
X56997074Y41448353D01*
X56719835Y41503500D01*
X56437165Y41503500D01*
X56159926Y41448353D01*
X55898773Y41340180D01*
X55663741Y41183137D01*
X55463863Y40983259D01*
X55308500Y40750741D01*
X55153137Y40983259D01*
X54953259Y41183137D01*
X54718227Y41340180D01*
X54457074Y41448353D01*
X54179835Y41503500D01*
X54008302Y41503500D01*
X54289802Y41785000D01*
X66226043Y41785000D01*
X66427073Y41620019D01*
X66693739Y41477483D01*
X66983087Y41389710D01*
X67284000Y41360073D01*
X67584912Y41389710D01*
X67874260Y41477483D01*
X68140926Y41620019D01*
X68374661Y41811839D01*
X68566481Y42045573D01*
X68709017Y42312239D01*
X68796790Y42601587D01*
X68800820Y42642500D01*
X71267181Y42642500D01*
X71271210Y42601588D01*
X71358983Y42312240D01*
X71501519Y42045574D01*
X71693339Y41811839D01*
X71927073Y41620019D01*
X72193739Y41477483D01*
X72483087Y41389710D01*
X72784000Y41360073D01*
X73084912Y41389710D01*
X73374260Y41477483D01*
X73640926Y41620019D01*
X73874661Y41811839D01*
X74066481Y42045573D01*
X74209017Y42312239D01*
X74296790Y42601587D01*
X74319000Y42827092D01*
X74319000Y43626644D01*
X74327073Y43620019D01*
X74593739Y43477483D01*
X74883087Y43389710D01*
X75184000Y43360073D01*
X75484912Y43389710D01*
X75774260Y43477483D01*
X76040926Y43620019D01*
X76274661Y43811839D01*
X76466481Y44045573D01*
X76609017Y44312239D01*
X76696790Y44601587D01*
X76719000Y44827092D01*
X76719000Y45977908D01*
X76696790Y46203413D01*
X76609017Y46492761D01*
X76466481Y46759427D01*
X76274661Y46993161D01*
X76040927Y47184981D01*
X75774261Y47327517D01*
X75484913Y47415290D01*
X75184000Y47444927D01*
X74883088Y47415290D01*
X74593740Y47327517D01*
X74327074Y47184981D01*
X74093340Y46993161D01*
X73901519Y46759427D01*
X73758983Y46492761D01*
X73671210Y46203413D01*
X73649000Y45977908D01*
X73649000Y45178356D01*
X73640927Y45184981D01*
X73374261Y45327517D01*
X73084913Y45415290D01*
X72784000Y45444927D01*
X72483088Y45415290D01*
X72193740Y45327517D01*
X71927074Y45184981D01*
X71693340Y44993161D01*
X71501519Y44759427D01*
X71358983Y44492761D01*
X71271210Y44203413D01*
X71267180Y44162500D01*
X68800820Y44162500D01*
X68796790Y44203413D01*
X68709017Y44492761D01*
X68566481Y44759427D01*
X68374661Y44993161D01*
X68140927Y45184981D01*
X67874261Y45327517D01*
X67584913Y45415290D01*
X67284000Y45444927D01*
X66983088Y45415290D01*
X66693740Y45327517D01*
X66427074Y45184981D01*
X66193340Y44993161D01*
X66001519Y44759427D01*
X65858983Y44492761D01*
X65771210Y44203413D01*
X65749000Y43977908D01*
X65749000Y43305000D01*
X54012323Y43305000D01*
X53975000Y43308676D01*
X53937677Y43305000D01*
X53937667Y43305000D01*
X53826014Y43294003D01*
X53692534Y43253513D01*
X53682753Y43250546D01*
X53550723Y43179974D01*
X53467083Y43111332D01*
X53434999Y43085001D01*
X53411201Y43056003D01*
X51822386Y41467188D01*
X51639835Y41503500D01*
X51357165Y41503500D01*
X51079926Y41448353D01*
X50818773Y41340180D01*
X50583741Y41183137D01*
X50385143Y40984539D01*
X50384312Y40992982D01*
X50348002Y41112680D01*
X50289037Y41222994D01*
X50209685Y41319685D01*
X50112994Y41399037D01*
X50002680Y41458002D01*
X49882982Y41494312D01*
X49758500Y41506572D01*
X48158500Y41506572D01*
X48034018Y41494312D01*
X47914320Y41458002D01*
X47804006Y41399037D01*
X47707315Y41319685D01*
X47627963Y41222994D01*
X47568998Y41112680D01*
X47532688Y40992982D01*
X47520428Y40868500D01*
X47520428Y39703499D01*
X42905303Y39703499D01*
X40396303Y42212498D01*
X40372500Y42241502D01*
X40256775Y42336475D01*
X40124746Y42407047D01*
X39981485Y42450504D01*
X39869832Y42461501D01*
X39869821Y42461501D01*
X39832499Y42465177D01*
X39795177Y42461501D01*
X33483826Y42461501D01*
X33446501Y42465177D01*
X33409176Y42461501D01*
X33409168Y42461501D01*
X33297515Y42450504D01*
X33154254Y42407047D01*
X33022225Y42336475D01*
X32906500Y42241502D01*
X32882702Y42212504D01*
X32645386Y41975188D01*
X32462835Y42011500D01*
X32291301Y42011500D01*
X34886149Y44606347D01*
X35007229Y44630432D01*
X35177389Y44700914D01*
X35330528Y44803238D01*
X35460762Y44933472D01*
X35563086Y45086611D01*
X35633568Y45256771D01*
X35669500Y45437411D01*
X35669500Y45621589D01*
X35636896Y45785500D01*
X50318178Y45785500D01*
X50355500Y45781824D01*
X50392822Y45785500D01*
X50392833Y45785500D01*
X50504486Y45796497D01*
X50647747Y45839954D01*
X50779776Y45910526D01*
X50895501Y46005499D01*
X50919304Y46034502D01*
X51174613Y46289812D01*
X51357165Y46253500D01*
X51639835Y46253500D01*
X51917074Y46308647D01*
X52178227Y46416820D01*
X52413259Y46573863D01*
X52613137Y46773741D01*
X52716543Y46928500D01*
X52820457Y46928500D01*
X52923863Y46773741D01*
X53123741Y46573863D01*
X53358773Y46416820D01*
X53619926Y46308647D01*
X53897165Y46253500D01*
X54179835Y46253500D01*
X54457074Y46308647D01*
X54718227Y46416820D01*
X54953259Y46573863D01*
X55153137Y46773741D01*
X55308500Y47006259D01*
X55463863Y46773741D01*
X55663741Y46573863D01*
X55898773Y46416820D01*
X56159926Y46308647D01*
X56437165Y46253500D01*
X56719835Y46253500D01*
X56997074Y46308647D01*
X57258227Y46416820D01*
X57493259Y46573863D01*
X57693137Y46773741D01*
X57850180Y47008773D01*
X57958353Y47269926D01*
X58013500Y47547165D01*
X58013500Y47829835D01*
X57958353Y48107074D01*
X57850180Y48368227D01*
X57693137Y48603259D01*
X57493259Y48803137D01*
X57258227Y48960180D01*
X56997074Y49068353D01*
X56719835Y49123500D01*
X56437165Y49123500D01*
X56254613Y49087188D01*
X56017303Y49324499D01*
X55993500Y49353502D01*
X55877775Y49448475D01*
X55745746Y49519047D01*
X55602485Y49562504D01*
X55490832Y49573501D01*
X55490821Y49573501D01*
X55453499Y49577177D01*
X55416177Y49573501D01*
X48455821Y49573501D01*
X48418498Y49577177D01*
X48381175Y49573501D01*
X48381166Y49573501D01*
X48269513Y49562504D01*
X48126252Y49519047D01*
X47994222Y49448475D01*
X47910582Y49379833D01*
X47878498Y49353502D01*
X47854700Y49324504D01*
X46285708Y47755511D01*
X38772068Y47755511D01*
X38781353Y47777926D01*
X38836500Y48055165D01*
X38836500Y48337835D01*
X38781353Y48615074D01*
X38673180Y48876227D01*
X38516137Y49111259D01*
X38316259Y49311137D01*
X38081227Y49468180D01*
X37820074Y49576353D01*
X37542835Y49631500D01*
X37260165Y49631500D01*
X36982926Y49576353D01*
X36721773Y49468180D01*
X36486741Y49311137D01*
X36286863Y49111259D01*
X36131500Y48878741D01*
X35996500Y49080784D01*
X35996500Y49763318D01*
X36042462Y49801038D01*
X36152905Y49935614D01*
X36234972Y50089150D01*
X36285508Y50255746D01*
X36302572Y50429000D01*
X36302572Y51679000D01*
X36285508Y51852254D01*
X36234972Y52018850D01*
X36152905Y52172386D01*
X36042462Y52306962D01*
X35907886Y52417405D01*
X35754350Y52499472D01*
X35587754Y52550008D01*
X35414500Y52567072D01*
X35044060Y52567072D01*
X32909496Y54701635D01*
X32873949Y54744949D01*
X32701123Y54886784D01*
X32503947Y54992176D01*
X32289999Y55057077D01*
X32123252Y55073500D01*
X32123251Y55073500D01*
X32067500Y55078991D01*
X32011749Y55073500D01*
X30662692Y55073500D01*
X30582386Y55139405D01*
X30428850Y55221472D01*
X30262254Y55272008D01*
X30089000Y55289072D01*
X28839000Y55289072D01*
X28665746Y55272008D01*
X28499150Y55221472D01*
X28345614Y55139405D01*
X28211038Y55028962D01*
X28100595Y54894386D01*
X28018528Y54740850D01*
X27967992Y54574254D01*
X27950928Y54401000D01*
X27950928Y53476000D01*
X27967992Y53302746D01*
X28018528Y53136150D01*
X28100595Y52982614D01*
X28211038Y52848038D01*
X28345614Y52737595D01*
X28499150Y52655528D01*
X28665746Y52604992D01*
X28839000Y52587928D01*
X30089000Y52587928D01*
X30262254Y52604992D01*
X30428850Y52655528D01*
X30582386Y52737595D01*
X30662692Y52803500D01*
X31597369Y52803500D01*
X31833797Y52567072D01*
X31514500Y52567072D01*
X31341246Y52550008D01*
X31174650Y52499472D01*
X31021114Y52417405D01*
X30886538Y52306962D01*
X30776095Y52172386D01*
X30714066Y52056339D01*
X30582386Y52164405D01*
X30428850Y52246472D01*
X30262254Y52297008D01*
X30089000Y52314072D01*
X28839000Y52314072D01*
X28665746Y52297008D01*
X28499150Y52246472D01*
X28345614Y52164405D01*
X28211038Y52053962D01*
X28100595Y51919386D01*
X28018528Y51765850D01*
X27967992Y51599254D01*
X27950928Y51426000D01*
X27950928Y50501000D01*
X27967992Y50327746D01*
X28018528Y50161150D01*
X28100595Y50007614D01*
X28211038Y49873038D01*
X28345614Y49762595D01*
X28499150Y49680528D01*
X28646501Y49635830D01*
X28646500Y49080784D01*
X28509820Y48876227D01*
X28401647Y48615074D01*
X28346500Y48337835D01*
X28346500Y48055165D01*
X28401647Y47777926D01*
X28509820Y47516773D01*
X28666863Y47281741D01*
X28866741Y47081863D01*
X29101773Y46924820D01*
X29362926Y46816647D01*
X29640165Y46761500D01*
X29922835Y46761500D01*
X30105386Y46797812D01*
X30868701Y46034497D01*
X30892499Y46005499D01*
X30921497Y45981701D01*
X31008224Y45910526D01*
X31140253Y45839954D01*
X31283514Y45796497D01*
X31432500Y45781823D01*
X31469833Y45785500D01*
X33832104Y45785500D01*
X33811347Y45681149D01*
X30685497Y42555298D01*
X30656499Y42531500D01*
X30632701Y42502502D01*
X30632700Y42502501D01*
X30561525Y42415775D01*
X30490953Y42283745D01*
X30447497Y42140484D01*
X30435009Y42013697D01*
X30067250Y42011500D01*
X29908500Y41852750D01*
X29908500Y40703500D01*
X29928500Y40703500D01*
X29928500Y40449500D01*
X29908500Y40449500D01*
X29908500Y39300250D01*
X30067250Y39141500D01*
X30581500Y39138428D01*
X30705982Y39150688D01*
X30825680Y39186998D01*
X30920510Y39237687D01*
X37984697Y32173499D01*
X38008496Y32144500D01*
X38124221Y32049527D01*
X38256250Y31978955D01*
X38399511Y31935498D01*
X38511164Y31924501D01*
X38511173Y31924501D01*
X38548496Y31920825D01*
X38585819Y31924501D01*
X41711814Y31924501D01*
X41503241Y31785137D01*
X41303363Y31585259D01*
X41146320Y31350227D01*
X41038147Y31089074D01*
X40983000Y30811835D01*
X40983000Y30529165D01*
X41038147Y30251926D01*
X41146320Y29990773D01*
X41303363Y29755741D01*
X41503241Y29555863D01*
X41738273Y29398820D01*
X41999426Y29290647D01*
X42276665Y29235500D01*
X42559335Y29235500D01*
X42836574Y29290647D01*
X43097727Y29398820D01*
X43332759Y29555863D01*
X43532637Y29755741D01*
X43689680Y29990773D01*
X43797853Y30251926D01*
X43853000Y30529165D01*
X43853000Y30799500D01*
X46914957Y30799500D01*
X47018363Y30644741D01*
X47218241Y30444863D01*
X47453273Y30287820D01*
X47714426Y30179647D01*
X47991665Y30124500D01*
X48274335Y30124500D01*
X48551574Y30179647D01*
X48812727Y30287820D01*
X49047759Y30444863D01*
X49247637Y30644741D01*
X49403000Y30877259D01*
X49558363Y30644741D01*
X49758241Y30444863D01*
X49993273Y30287820D01*
X50254426Y30179647D01*
X50531665Y30124500D01*
X50814335Y30124500D01*
X51091574Y30179647D01*
X51352727Y30287820D01*
X51587759Y30444863D01*
X51787637Y30644741D01*
X51943000Y30877259D01*
X52098363Y30644741D01*
X52298241Y30444863D01*
X52533273Y30287820D01*
X52794426Y30179647D01*
X53071665Y30124500D01*
X53354335Y30124500D01*
X53631574Y30179647D01*
X53892727Y30287820D01*
X54127759Y30444863D01*
X54327637Y30644741D01*
X54483000Y30877259D01*
X54638363Y30644741D01*
X54838241Y30444863D01*
X55073273Y30287820D01*
X55334426Y30179647D01*
X55611665Y30124500D01*
X55894335Y30124500D01*
X56171574Y30179647D01*
X56432727Y30287820D01*
X56667759Y30444863D01*
X56867637Y30644741D01*
X57023000Y30877259D01*
X57178363Y30644741D01*
X57378241Y30444863D01*
X57613273Y30287820D01*
X57874426Y30179647D01*
X58151665Y30124500D01*
X58434335Y30124500D01*
X58711574Y30179647D01*
X58972727Y30287820D01*
X59207759Y30444863D01*
X59407637Y30644741D01*
X59563000Y30877259D01*
X59718363Y30644741D01*
X59918241Y30444863D01*
X60153273Y30287820D01*
X60414426Y30179647D01*
X60691665Y30124500D01*
X60863198Y30124500D01*
X58906999Y28168300D01*
X58878001Y28144502D01*
X58854203Y28115504D01*
X58854202Y28115503D01*
X58783027Y28028777D01*
X58712455Y27896747D01*
X58668999Y27753486D01*
X58654325Y27604501D01*
X58658002Y27567169D01*
X58658001Y18741546D01*
X58502229Y18806068D01*
X58381149Y18830153D01*
X57650304Y19560998D01*
X57626501Y19590001D01*
X57510776Y19684974D01*
X57378747Y19755546D01*
X57235486Y19799003D01*
X57123833Y19810000D01*
X57123822Y19810000D01*
X57086500Y19813676D01*
X57049178Y19810000D01*
X28445302Y19810000D01*
X28438684Y19816618D01*
X28573389Y19872414D01*
X28726528Y19974738D01*
X28856762Y20104972D01*
X28959086Y20258111D01*
X29029568Y20428271D01*
X29065500Y20608911D01*
X29065500Y20793089D01*
X29029568Y20973729D01*
X28959086Y21143889D01*
X28856762Y21297028D01*
X28726528Y21427262D01*
X28573389Y21529586D01*
X28403229Y21600068D01*
X28282149Y21624153D01*
X26055802Y23850500D01*
X33359928Y23850500D01*
X33359928Y22250500D01*
X33372188Y22126018D01*
X33408498Y22006320D01*
X33467463Y21896006D01*
X33546815Y21799315D01*
X33643506Y21719963D01*
X33753820Y21660998D01*
X33873518Y21624688D01*
X33998000Y21612428D01*
X35598000Y21612428D01*
X35722482Y21624688D01*
X35842180Y21660998D01*
X35952494Y21719963D01*
X36049185Y21799315D01*
X36128537Y21896006D01*
X36187502Y22006320D01*
X36223812Y22126018D01*
X36236072Y22250500D01*
X36236072Y23191835D01*
X40983000Y23191835D01*
X40983000Y22909165D01*
X41038147Y22631926D01*
X41146320Y22370773D01*
X41303363Y22135741D01*
X41503241Y21935863D01*
X41738273Y21778820D01*
X41999426Y21670647D01*
X42276665Y21615500D01*
X42559335Y21615500D01*
X42836574Y21670647D01*
X43097727Y21778820D01*
X43332759Y21935863D01*
X43532637Y22135741D01*
X43689680Y22370773D01*
X43797853Y22631926D01*
X43853000Y22909165D01*
X43853000Y23191835D01*
X43797853Y23469074D01*
X43689680Y23730227D01*
X43532637Y23965259D01*
X43332759Y24165137D01*
X43097727Y24322180D01*
X42836574Y24430353D01*
X42559335Y24485500D01*
X42276665Y24485500D01*
X41999426Y24430353D01*
X41738273Y24322180D01*
X41503241Y24165137D01*
X41303363Y23965259D01*
X41146320Y23730227D01*
X41038147Y23469074D01*
X40983000Y23191835D01*
X36236072Y23191835D01*
X36236072Y23850500D01*
X36223812Y23974982D01*
X36187502Y24094680D01*
X36128537Y24204994D01*
X36049185Y24301685D01*
X35952494Y24381037D01*
X35842180Y24440002D01*
X35722482Y24476312D01*
X35598000Y24488572D01*
X33998000Y24488572D01*
X33873518Y24476312D01*
X33753820Y24440002D01*
X33643506Y24381037D01*
X33546815Y24301685D01*
X33467463Y24204994D01*
X33408498Y24094680D01*
X33372188Y23974982D01*
X33359928Y23850500D01*
X26055802Y23850500D01*
X24572500Y25333801D01*
X24572500Y27009928D01*
X24612500Y27009928D01*
X24736982Y27022188D01*
X24856680Y27058498D01*
X24966994Y27117463D01*
X25063685Y27196815D01*
X25143037Y27293506D01*
X25202002Y27403820D01*
X25238312Y27523518D01*
X25250572Y27648000D01*
X25250572Y29248000D01*
X25238312Y29372482D01*
X25202002Y29492180D01*
X25143037Y29602494D01*
X25081237Y29677798D01*
X33984903Y29677798D01*
X34056486Y29433829D01*
X34311996Y29312929D01*
X34586184Y29244200D01*
X34868512Y29230283D01*
X35148130Y29271713D01*
X35414292Y29366897D01*
X35539514Y29433829D01*
X35611097Y29677798D01*
X34798000Y30490895D01*
X33984903Y29677798D01*
X25081237Y29677798D01*
X25063685Y29699185D01*
X24966994Y29778537D01*
X24856680Y29837502D01*
X24736982Y29873812D01*
X24612500Y29886072D01*
X23012500Y29886072D01*
X22888018Y29873812D01*
X22768320Y29837502D01*
X22658006Y29778537D01*
X22561315Y29699185D01*
X22481963Y29602494D01*
X22422998Y29492180D01*
X22386688Y29372482D01*
X22385857Y29364039D01*
X22187259Y29562637D01*
X21952227Y29719680D01*
X21691074Y29827853D01*
X21413835Y29883000D01*
X21131165Y29883000D01*
X20853926Y29827853D01*
X20592773Y29719680D01*
X20357741Y29562637D01*
X20157863Y29362759D01*
X20002500Y29130241D01*
X19847137Y29362759D01*
X19647259Y29562637D01*
X19412227Y29719680D01*
X19151074Y29827853D01*
X18873835Y29883000D01*
X18591165Y29883000D01*
X18313926Y29827853D01*
X18052773Y29719680D01*
X17817741Y29562637D01*
X17617863Y29362759D01*
X17462500Y29130241D01*
X17307137Y29362759D01*
X17107259Y29562637D01*
X16872227Y29719680D01*
X16611074Y29827853D01*
X16333835Y29883000D01*
X16051165Y29883000D01*
X15827499Y29838509D01*
X15827499Y30599988D01*
X33357783Y30599988D01*
X33399213Y30320370D01*
X33494397Y30054208D01*
X33561329Y29928986D01*
X33805298Y29857403D01*
X34618395Y30670500D01*
X34977605Y30670500D01*
X35790702Y29857403D01*
X36034671Y29928986D01*
X36155571Y30184496D01*
X36224300Y30458684D01*
X36238217Y30741012D01*
X36196787Y31020630D01*
X36101603Y31286792D01*
X36034671Y31412014D01*
X35790702Y31483597D01*
X34977605Y30670500D01*
X34618395Y30670500D01*
X33805298Y31483597D01*
X33561329Y31412014D01*
X33440429Y31156504D01*
X33371700Y30882316D01*
X33357783Y30599988D01*
X15827499Y30599988D01*
X15827499Y31663202D01*
X33984903Y31663202D01*
X34798000Y30850105D01*
X35611097Y31663202D01*
X35539514Y31907171D01*
X35284004Y32028071D01*
X35009816Y32096800D01*
X34727488Y32110717D01*
X34447870Y32069287D01*
X34181708Y31974103D01*
X34056486Y31907171D01*
X33984903Y31663202D01*
X15827499Y31663202D01*
X15827499Y34180179D01*
X15831175Y34217502D01*
X15827499Y34254825D01*
X15827499Y34254834D01*
X15816502Y34366487D01*
X15773045Y34509748D01*
X15702473Y34641777D01*
X15607500Y34757502D01*
X15578502Y34781300D01*
X10583302Y39776500D01*
X28343428Y39776500D01*
X28355688Y39652018D01*
X28391998Y39532320D01*
X28450963Y39422006D01*
X28530315Y39325315D01*
X28627006Y39245963D01*
X28737320Y39186998D01*
X28857018Y39150688D01*
X28981500Y39138428D01*
X29495750Y39141500D01*
X29654500Y39300250D01*
X29654500Y40449500D01*
X28505250Y40449500D01*
X28346500Y40290750D01*
X28343428Y39776500D01*
X10583302Y39776500D01*
X9731072Y40628729D01*
X9731072Y41217001D01*
X9715363Y41376500D01*
X28343428Y41376500D01*
X28346500Y40862250D01*
X28505250Y40703500D01*
X29654500Y40703500D01*
X29654500Y41852750D01*
X29495750Y42011500D01*
X28981500Y42014572D01*
X28857018Y42002312D01*
X28737320Y41966002D01*
X28627006Y41907037D01*
X28530315Y41827685D01*
X28450963Y41730994D01*
X28391998Y41620680D01*
X28355688Y41500982D01*
X28343428Y41376500D01*
X9715363Y41376500D01*
X9714008Y41390255D01*
X9663472Y41556851D01*
X9581405Y41710387D01*
X9470962Y41844962D01*
X9336387Y41955405D01*
X9182851Y42037472D01*
X9016255Y42088008D01*
X8843001Y42105072D01*
X8192999Y42105072D01*
X8019745Y42088008D01*
X7853149Y42037472D01*
X7699613Y41955405D01*
X7603000Y41876117D01*
X7603000Y42638241D01*
X7650905Y42696614D01*
X7732972Y42850150D01*
X7760227Y42940000D01*
X8074428Y42940000D01*
X8086688Y42815518D01*
X8122998Y42695820D01*
X8181963Y42585506D01*
X8261315Y42488815D01*
X8358006Y42409463D01*
X8468320Y42350498D01*
X8588018Y42314188D01*
X8712500Y42301928D01*
X9139250Y42305000D01*
X9298000Y42463750D01*
X9298000Y43688000D01*
X9552000Y43688000D01*
X9552000Y42463750D01*
X9710750Y42305000D01*
X10137500Y42301928D01*
X10261982Y42314188D01*
X10381680Y42350498D01*
X10491994Y42409463D01*
X10588685Y42488815D01*
X10668037Y42585506D01*
X10727002Y42695820D01*
X10763312Y42815518D01*
X10775572Y42940000D01*
X10772500Y43529250D01*
X10613750Y43688000D01*
X9552000Y43688000D01*
X9298000Y43688000D01*
X8236250Y43688000D01*
X8077500Y43529250D01*
X8074428Y42940000D01*
X7760227Y42940000D01*
X7783508Y43016746D01*
X7800572Y43190000D01*
X7800572Y44440000D01*
X7783508Y44613254D01*
X7760228Y44690000D01*
X8074428Y44690000D01*
X8077500Y44100750D01*
X8236250Y43942000D01*
X9298000Y43942000D01*
X9298000Y45166250D01*
X9552000Y45166250D01*
X9552000Y43942000D01*
X10613750Y43942000D01*
X10772500Y44100750D01*
X10775572Y44690000D01*
X10763312Y44814482D01*
X10727002Y44934180D01*
X10668037Y45044494D01*
X10588685Y45141185D01*
X10491994Y45220537D01*
X10381680Y45279502D01*
X10261982Y45315812D01*
X10137500Y45328072D01*
X9710750Y45325000D01*
X9552000Y45166250D01*
X9298000Y45166250D01*
X9139250Y45325000D01*
X8712500Y45328072D01*
X8588018Y45315812D01*
X8468320Y45279502D01*
X8358006Y45220537D01*
X8261315Y45141185D01*
X8181963Y45044494D01*
X8122998Y44934180D01*
X8086688Y44814482D01*
X8074428Y44690000D01*
X7760228Y44690000D01*
X7732972Y44779850D01*
X7650905Y44933386D01*
X7540462Y45067962D01*
X7405886Y45178405D01*
X7252350Y45260472D01*
X7085754Y45311008D01*
X6912500Y45328072D01*
X5987500Y45328072D01*
X5814246Y45311008D01*
X5647650Y45260472D01*
X5494114Y45178405D01*
X5359538Y45067962D01*
X5249095Y44933386D01*
X5167028Y44779850D01*
X5116492Y44613254D01*
X5099428Y44440000D01*
X685000Y44440000D01*
X685000Y57945647D01*
X675711Y58039956D01*
X691653Y58202542D01*
X776031Y58482018D01*
X913085Y58739780D01*
X1097599Y58966015D01*
X1322540Y59152103D01*
X1579342Y59290956D01*
X1858219Y59377282D01*
X2030268Y59395365D01*
X2125353Y59386000D01*
G36*
X23939500Y20955000D02*
G01*
X23959500Y20955000D01*
X23959500Y20701000D01*
X23939500Y20701000D01*
X23939500Y19558085D01*
X24161539Y19436096D01*
X24295587Y19476754D01*
X24549920Y19596963D01*
X24775914Y19764481D01*
X24964885Y19972869D01*
X25109570Y20214119D01*
X25147961Y20321327D01*
X27555305Y17913982D01*
X27579099Y17884989D01*
X27608092Y17861195D01*
X27608096Y17861191D01*
X27647368Y17828962D01*
X27694824Y17790016D01*
X27826853Y17719444D01*
X27970114Y17675987D01*
X28081767Y17664990D01*
X28081776Y17664990D01*
X28119099Y17661314D01*
X28156422Y17664990D01*
X47006481Y17664990D01*
X46978506Y17650037D01*
X46881815Y17570685D01*
X46802463Y17473994D01*
X46743498Y17363680D01*
X46707188Y17243982D01*
X46694928Y17119500D01*
X46698000Y16605250D01*
X46856750Y16446500D01*
X48006000Y16446500D01*
X48006000Y16466500D01*
X48260000Y16466500D01*
X48260000Y16446500D01*
X48280000Y16446500D01*
X48280000Y16192500D01*
X48260000Y16192500D01*
X48260000Y15043250D01*
X48418750Y14884500D01*
X48933000Y14881428D01*
X49057482Y14893688D01*
X49177180Y14929998D01*
X49287494Y14988963D01*
X49384185Y15068315D01*
X49463537Y15165006D01*
X49522502Y15275320D01*
X49558812Y15395018D01*
X49559643Y15403461D01*
X49758241Y15204863D01*
X49993273Y15047820D01*
X50254426Y14939647D01*
X50531665Y14884500D01*
X50703198Y14884500D01*
X48015182Y12196483D01*
X47986178Y12172680D01*
X47931050Y12105505D01*
X47891205Y12056955D01*
X47859914Y11998414D01*
X47820633Y11924925D01*
X47777176Y11781664D01*
X47766179Y11670011D01*
X47766179Y11670001D01*
X47762503Y11632679D01*
X47766179Y11595356D01*
X47766180Y8439751D01*
X47762503Y8402419D01*
X47777177Y8253434D01*
X47820633Y8110173D01*
X47891205Y7978143D01*
X47899620Y7967889D01*
X47905534Y7938158D01*
X47879000Y7924155D01*
X47879000Y6731000D01*
X47899000Y6731000D01*
X47899000Y6477000D01*
X47879000Y6477000D01*
X47879000Y6457000D01*
X47625000Y6457000D01*
X47625000Y6477000D01*
X47605000Y6477000D01*
X47605000Y6731000D01*
X47625000Y6731000D01*
X47625000Y7924155D01*
X47395110Y8045476D01*
X47247901Y8000825D01*
X46985080Y7875641D01*
X46751731Y7701588D01*
X46556822Y7485355D01*
X46487195Y7368466D01*
X46365475Y7550632D01*
X46158632Y7757475D01*
X45915411Y7919990D01*
X45645158Y8031932D01*
X45358260Y8089000D01*
X45065740Y8089000D01*
X44778842Y8031932D01*
X44508589Y7919990D01*
X44265368Y7757475D01*
X44058525Y7550632D01*
X43942000Y7376240D01*
X43825475Y7550632D01*
X43618632Y7757475D01*
X43375411Y7919990D01*
X43105158Y8031932D01*
X42818260Y8089000D01*
X42525740Y8089000D01*
X42238842Y8031932D01*
X42067001Y7960753D01*
X42067001Y8947966D01*
X42135587Y9050612D01*
X42206069Y9220772D01*
X42242001Y9401412D01*
X42242001Y9585590D01*
X42206069Y9766230D01*
X42135587Y9936390D01*
X42067001Y10039036D01*
X42067001Y13762046D01*
X42070677Y13799369D01*
X42067001Y13836692D01*
X42067001Y13836702D01*
X42056004Y13948355D01*
X42012547Y14091616D01*
X41941975Y14223645D01*
X41847002Y14339370D01*
X41818004Y14363168D01*
X41001673Y15179498D01*
X40977871Y15208501D01*
X40862146Y15303474D01*
X40730117Y15374046D01*
X40586856Y15417503D01*
X40475203Y15428500D01*
X40475192Y15428500D01*
X40437870Y15432176D01*
X40400548Y15428500D01*
X27746803Y15428500D01*
X27655803Y15519500D01*
X46694928Y15519500D01*
X46707188Y15395018D01*
X46743498Y15275320D01*
X46802463Y15165006D01*
X46881815Y15068315D01*
X46978506Y14988963D01*
X47088820Y14929998D01*
X47208518Y14893688D01*
X47333000Y14881428D01*
X47847250Y14884500D01*
X48006000Y15043250D01*
X48006000Y16192500D01*
X46856750Y16192500D01*
X46698000Y16033750D01*
X46694928Y15519500D01*
X27655803Y15519500D01*
X23641429Y19533872D01*
X23685500Y19558085D01*
X23685500Y20701000D01*
X23665500Y20701000D01*
X23665500Y20955000D01*
X23685500Y20955000D01*
X23685500Y20975000D01*
X23939500Y20975000D01*
X23939500Y20955000D01*
G37*
X23939500Y20955000D02*
X23959500Y20955000D01*
X23959500Y20701000D01*
X23939500Y20701000D01*
X23939500Y19558085D01*
X24161539Y19436096D01*
X24295587Y19476754D01*
X24549920Y19596963D01*
X24775914Y19764481D01*
X24964885Y19972869D01*
X25109570Y20214119D01*
X25147961Y20321327D01*
X27555305Y17913982D01*
X27579099Y17884989D01*
X27608092Y17861195D01*
X27608096Y17861191D01*
X27647368Y17828962D01*
X27694824Y17790016D01*
X27826853Y17719444D01*
X27970114Y17675987D01*
X28081767Y17664990D01*
X28081776Y17664990D01*
X28119099Y17661314D01*
X28156422Y17664990D01*
X47006481Y17664990D01*
X46978506Y17650037D01*
X46881815Y17570685D01*
X46802463Y17473994D01*
X46743498Y17363680D01*
X46707188Y17243982D01*
X46694928Y17119500D01*
X46698000Y16605250D01*
X46856750Y16446500D01*
X48006000Y16446500D01*
X48006000Y16466500D01*
X48260000Y16466500D01*
X48260000Y16446500D01*
X48280000Y16446500D01*
X48280000Y16192500D01*
X48260000Y16192500D01*
X48260000Y15043250D01*
X48418750Y14884500D01*
X48933000Y14881428D01*
X49057482Y14893688D01*
X49177180Y14929998D01*
X49287494Y14988963D01*
X49384185Y15068315D01*
X49463537Y15165006D01*
X49522502Y15275320D01*
X49558812Y15395018D01*
X49559643Y15403461D01*
X49758241Y15204863D01*
X49993273Y15047820D01*
X50254426Y14939647D01*
X50531665Y14884500D01*
X50703198Y14884500D01*
X48015182Y12196483D01*
X47986178Y12172680D01*
X47931050Y12105505D01*
X47891205Y12056955D01*
X47859914Y11998414D01*
X47820633Y11924925D01*
X47777176Y11781664D01*
X47766179Y11670011D01*
X47766179Y11670001D01*
X47762503Y11632679D01*
X47766179Y11595356D01*
X47766180Y8439751D01*
X47762503Y8402419D01*
X47777177Y8253434D01*
X47820633Y8110173D01*
X47891205Y7978143D01*
X47899620Y7967889D01*
X47905534Y7938158D01*
X47879000Y7924155D01*
X47879000Y6731000D01*
X47899000Y6731000D01*
X47899000Y6477000D01*
X47879000Y6477000D01*
X47879000Y6457000D01*
X47625000Y6457000D01*
X47625000Y6477000D01*
X47605000Y6477000D01*
X47605000Y6731000D01*
X47625000Y6731000D01*
X47625000Y7924155D01*
X47395110Y8045476D01*
X47247901Y8000825D01*
X46985080Y7875641D01*
X46751731Y7701588D01*
X46556822Y7485355D01*
X46487195Y7368466D01*
X46365475Y7550632D01*
X46158632Y7757475D01*
X45915411Y7919990D01*
X45645158Y8031932D01*
X45358260Y8089000D01*
X45065740Y8089000D01*
X44778842Y8031932D01*
X44508589Y7919990D01*
X44265368Y7757475D01*
X44058525Y7550632D01*
X43942000Y7376240D01*
X43825475Y7550632D01*
X43618632Y7757475D01*
X43375411Y7919990D01*
X43105158Y8031932D01*
X42818260Y8089000D01*
X42525740Y8089000D01*
X42238842Y8031932D01*
X42067001Y7960753D01*
X42067001Y8947966D01*
X42135587Y9050612D01*
X42206069Y9220772D01*
X42242001Y9401412D01*
X42242001Y9585590D01*
X42206069Y9766230D01*
X42135587Y9936390D01*
X42067001Y10039036D01*
X42067001Y13762046D01*
X42070677Y13799369D01*
X42067001Y13836692D01*
X42067001Y13836702D01*
X42056004Y13948355D01*
X42012547Y14091616D01*
X41941975Y14223645D01*
X41847002Y14339370D01*
X41818004Y14363168D01*
X41001673Y15179498D01*
X40977871Y15208501D01*
X40862146Y15303474D01*
X40730117Y15374046D01*
X40586856Y15417503D01*
X40475203Y15428500D01*
X40475192Y15428500D01*
X40437870Y15432176D01*
X40400548Y15428500D01*
X27746803Y15428500D01*
X27655803Y15519500D01*
X46694928Y15519500D01*
X46707188Y15395018D01*
X46743498Y15275320D01*
X46802463Y15165006D01*
X46881815Y15068315D01*
X46978506Y14988963D01*
X47088820Y14929998D01*
X47208518Y14893688D01*
X47333000Y14881428D01*
X47847250Y14884500D01*
X48006000Y15043250D01*
X48006000Y16192500D01*
X46856750Y16192500D01*
X46698000Y16033750D01*
X46694928Y15519500D01*
X27655803Y15519500D01*
X23641429Y19533872D01*
X23685500Y19558085D01*
X23685500Y20701000D01*
X23665500Y20701000D01*
X23665500Y20955000D01*
X23685500Y20955000D01*
X23685500Y20975000D01*
X23939500Y20975000D01*
X23939500Y20955000D01*
G36*
X55073273Y15047820D02*
G01*
X55334426Y14939647D01*
X55611665Y14884500D01*
X55894335Y14884500D01*
X56076886Y14920812D01*
X57088501Y13909197D01*
X57088500Y8927536D01*
X57019914Y8824889D01*
X56949432Y8654729D01*
X56913500Y8474089D01*
X56913500Y8289911D01*
X56949432Y8109271D01*
X57019914Y7939111D01*
X57086983Y7838735D01*
X56965368Y7757475D01*
X56758525Y7550632D01*
X56642000Y7376240D01*
X56525475Y7550632D01*
X56318632Y7757475D01*
X56075411Y7919990D01*
X55805158Y8031932D01*
X55518260Y8089000D01*
X55225740Y8089000D01*
X54938842Y8031932D01*
X54668589Y7919990D01*
X54425368Y7757475D01*
X54218525Y7550632D01*
X54102000Y7376240D01*
X53985475Y7550632D01*
X53778632Y7757475D01*
X53535411Y7919990D01*
X53265158Y8031932D01*
X52978260Y8089000D01*
X52685740Y8089000D01*
X52398842Y8031932D01*
X52128589Y7919990D01*
X51986954Y7825353D01*
X50643657Y9168649D01*
X50619572Y9289729D01*
X50549090Y9459889D01*
X50446766Y9613028D01*
X50316532Y9743262D01*
X50163393Y9845586D01*
X49993233Y9916068D01*
X49855494Y9943466D01*
X49855494Y10215957D01*
X54841934Y15202396D01*
X55073273Y15047820D01*
G37*
X55073273Y15047820D02*
X55334426Y14939647D01*
X55611665Y14884500D01*
X55894335Y14884500D01*
X56076886Y14920812D01*
X57088501Y13909197D01*
X57088500Y8927536D01*
X57019914Y8824889D01*
X56949432Y8654729D01*
X56913500Y8474089D01*
X56913500Y8289911D01*
X56949432Y8109271D01*
X57019914Y7939111D01*
X57086983Y7838735D01*
X56965368Y7757475D01*
X56758525Y7550632D01*
X56642000Y7376240D01*
X56525475Y7550632D01*
X56318632Y7757475D01*
X56075411Y7919990D01*
X55805158Y8031932D01*
X55518260Y8089000D01*
X55225740Y8089000D01*
X54938842Y8031932D01*
X54668589Y7919990D01*
X54425368Y7757475D01*
X54218525Y7550632D01*
X54102000Y7376240D01*
X53985475Y7550632D01*
X53778632Y7757475D01*
X53535411Y7919990D01*
X53265158Y8031932D01*
X52978260Y8089000D01*
X52685740Y8089000D01*
X52398842Y8031932D01*
X52128589Y7919990D01*
X51986954Y7825353D01*
X50643657Y9168649D01*
X50619572Y9289729D01*
X50549090Y9459889D01*
X50446766Y9613028D01*
X50316532Y9743262D01*
X50163393Y9845586D01*
X49993233Y9916068D01*
X49855494Y9943466D01*
X49855494Y10215957D01*
X54841934Y15202396D01*
X55073273Y15047820D01*
G36*
X49085500Y47815500D02*
G01*
X49105500Y47815500D01*
X49105500Y47561500D01*
X49085500Y47561500D01*
X49085500Y47541500D01*
X48831500Y47541500D01*
X48831500Y47561500D01*
X48811500Y47561500D01*
X48811500Y47815500D01*
X48831500Y47815500D01*
X48831500Y47835500D01*
X49085500Y47835500D01*
X49085500Y47815500D01*
G37*
X49085500Y47815500D02*
X49105500Y47815500D01*
X49105500Y47561500D01*
X49085500Y47561500D01*
X49085500Y47541500D01*
X48831500Y47541500D01*
X48831500Y47561500D01*
X48811500Y47561500D01*
X48811500Y47815500D01*
X48831500Y47815500D01*
X48831500Y47835500D01*
X49085500Y47835500D01*
X49085500Y47815500D01*
%TD*%
M02*
