M48
; DRILL file {KiCad (5.1.6-0-10_14)} date Thursday, March 04, 2021 at 04:43:57 PM
; FORMAT={-:-/ absolute / inch / decimal}
; #@! TF.CreationDate,2021-03-04T16:43:57+01:00
; #@! TF.GenerationSoftware,Kicad,Pcbnew,(5.1.6-0-10_14)
FMAT,2
INCH
T1C0.0118
T2C0.0157
T3C0.0315
T4C0.0394
%
G90
G05
T1
X0.7325Y0.8875
X1.105Y0.3129
X1.1075Y0.815
X1.1075Y0.505
X1.3675Y1.7925
X1.585Y0.545
X1.6263Y0.3738
X1.9223Y0.319
X1.9308Y0.2887
X1.9575Y0.355
X1.975Y0.5775
X2.005Y1.3575
X2.1575Y0.5775
X2.23Y0.7254
X2.2775Y0.33
X2.2925Y0.705
X2.945Y0.575
T2
X1.9264Y1.7875
T3
X1.1725Y1.8975
X1.1725Y1.5975
X1.2725Y1.8975
X1.2725Y1.5975
X1.3725Y1.8975
X1.3725Y1.5975
X1.4725Y1.8975
X1.4725Y1.5975
X1.37Y1.2075
X1.37Y0.9075
X1.67Y1.2075
X1.67Y0.9075
X1.9275Y1.8775
X1.9275Y1.5775
X2.0275Y1.8775
X2.0275Y1.5775
X2.1275Y1.8775
X2.1275Y1.5775
X2.2275Y1.8775
X2.2275Y1.5775
X0.3375Y1.12
X0.3375Y0.82
X0.4375Y1.12
X0.4375Y0.82
X0.5375Y1.12
X0.5375Y0.82
X0.6375Y1.12
X0.6375Y0.82
X0.7375Y1.12
X0.7375Y0.82
X0.8375Y1.12
X0.8375Y0.82
X0.9375Y1.12
X0.9375Y0.82
X1.895Y1.2425
X1.895Y0.6425
X1.995Y1.2425
X1.995Y0.6425
X2.095Y1.2425
X2.095Y0.6425
X2.195Y1.2425
X2.195Y0.6425
X2.295Y1.2425
X2.295Y0.6425
X2.395Y1.2425
X2.395Y0.6425
X2.495Y1.2425
X2.495Y0.6425
X2.595Y1.2425
X2.595Y0.6425
X2.695Y1.2425
X2.695Y0.6425
X2.795Y1.2425
X2.795Y0.6425
X2.895Y1.2425
X2.895Y0.6425
X2.995Y1.2425
X2.995Y0.6425
T4
X0.68Y0.26
X0.68Y0.16
X0.78Y0.26
X0.78Y0.16
X0.88Y0.26
X0.88Y0.16
X0.98Y0.26
X0.98Y0.16
X1.08Y0.26
X1.08Y0.16
X1.18Y0.26
X1.18Y0.16
X1.28Y0.26
X1.28Y0.16
X1.38Y0.26
X1.38Y0.16
X1.48Y0.26
X1.48Y0.16
X1.58Y0.26
X1.58Y0.16
X1.68Y0.26
X1.68Y0.16
X1.78Y0.26
X1.78Y0.16
X1.88Y0.26
X1.88Y0.16
X1.98Y0.26
X1.98Y0.16
X2.08Y0.26
X2.08Y0.16
X2.18Y0.26
X2.18Y0.16
X2.28Y0.26
X2.28Y0.16
X2.38Y0.26
X2.38Y0.16
X2.48Y0.26
X2.48Y0.16
X2.58Y0.26
X2.58Y0.16
X2.68Y0.26
X2.68Y0.16
X2.78Y0.26
X2.78Y0.16
X2.88Y0.26
X2.88Y0.16
X2.98Y0.26
X2.98Y0.16
X3.08Y0.26
X3.08Y0.16
T4
G00X2.649Y1.7284
M15
G01X2.649Y1.6891
M16
G05
G00X2.8655Y1.7284
M15
G01X2.8655Y1.6891
M16
G05
G00X2.96Y1.8072
M15
G01X2.96Y1.7678
M16
G05
T0
M30
