%TF.GenerationSoftware,KiCad,Pcbnew,(5.1.6-0-10_14)*%
%TF.CreationDate,2021-03-04T16:43:55+01:00*%
%TF.ProjectId,opl2_board,6f706c32-5f62-46f6-9172-642e6b696361,rev?*%
%TF.SameCoordinates,Original*%
%TF.FileFunction,Paste,Top*%
%TF.FilePolarity,Positive*%
%FSLAX46Y46*%
G04 Gerber Fmt 4.6, Leading zero omitted, Abs format (unit mm)*
G04 Created by KiCad (PCBNEW (5.1.6-0-10_14)) date 2021-03-04 16:43:55*
%MOMM*%
%LPD*%
G01*
G04 APERTURE LIST*
G04 APERTURE END LIST*
%TO.C,C5*%
G36*
G01*
X30089000Y53226000D02*
X28839000Y53226000D01*
G75*
G02*
X28589000Y53476000I0J250000D01*
G01*
X28589000Y54401000D01*
G75*
G02*
X28839000Y54651000I250000J0D01*
G01*
X30089000Y54651000D01*
G75*
G02*
X30339000Y54401000I0J-250000D01*
G01*
X30339000Y53476000D01*
G75*
G02*
X30089000Y53226000I-250000J0D01*
G01*
G37*
G36*
G01*
X30089000Y50251000D02*
X28839000Y50251000D01*
G75*
G02*
X28589000Y50501000I0J250000D01*
G01*
X28589000Y51426000D01*
G75*
G02*
X28839000Y51676000I250000J0D01*
G01*
X30089000Y51676000D01*
G75*
G02*
X30339000Y51426000I0J-250000D01*
G01*
X30339000Y50501000D01*
G75*
G02*
X30089000Y50251000I-250000J0D01*
G01*
G37*
%TD*%
%TO.C,C4*%
G36*
G01*
X34239500Y50429000D02*
X34239500Y51679000D01*
G75*
G02*
X34489500Y51929000I250000J0D01*
G01*
X35414500Y51929000D01*
G75*
G02*
X35664500Y51679000I0J-250000D01*
G01*
X35664500Y50429000D01*
G75*
G02*
X35414500Y50179000I-250000J0D01*
G01*
X34489500Y50179000D01*
G75*
G02*
X34239500Y50429000I0J250000D01*
G01*
G37*
G36*
G01*
X31264500Y50429000D02*
X31264500Y51679000D01*
G75*
G02*
X31514500Y51929000I250000J0D01*
G01*
X32439500Y51929000D01*
G75*
G02*
X32689500Y51679000I0J-250000D01*
G01*
X32689500Y50429000D01*
G75*
G02*
X32439500Y50179000I-250000J0D01*
G01*
X31514500Y50179000D01*
G75*
G02*
X31264500Y50429000I0J250000D01*
G01*
G37*
%TD*%
%TO.C,R2*%
G36*
G01*
X7043000Y41217001D02*
X7043000Y40316999D01*
G75*
G02*
X6793001Y40067000I-249999J0D01*
G01*
X6142999Y40067000D01*
G75*
G02*
X5893000Y40316999I0J249999D01*
G01*
X5893000Y41217001D01*
G75*
G02*
X6142999Y41467000I249999J0D01*
G01*
X6793001Y41467000D01*
G75*
G02*
X7043000Y41217001I0J-249999D01*
G01*
G37*
G36*
G01*
X9093000Y41217001D02*
X9093000Y40316999D01*
G75*
G02*
X8843001Y40067000I-249999J0D01*
G01*
X8192999Y40067000D01*
G75*
G02*
X7943000Y40316999I0J249999D01*
G01*
X7943000Y41217001D01*
G75*
G02*
X8192999Y41467000I249999J0D01*
G01*
X8843001Y41467000D01*
G75*
G02*
X9093000Y41217001I0J-249999D01*
G01*
G37*
%TD*%
%TO.C,D2*%
G36*
G01*
X8712500Y43190000D02*
X8712500Y44440000D01*
G75*
G02*
X8962500Y44690000I250000J0D01*
G01*
X9887500Y44690000D01*
G75*
G02*
X10137500Y44440000I0J-250000D01*
G01*
X10137500Y43190000D01*
G75*
G02*
X9887500Y42940000I-250000J0D01*
G01*
X8962500Y42940000D01*
G75*
G02*
X8712500Y43190000I0J250000D01*
G01*
G37*
G36*
G01*
X5737500Y43190000D02*
X5737500Y44440000D01*
G75*
G02*
X5987500Y44690000I250000J0D01*
G01*
X6912500Y44690000D01*
G75*
G02*
X7162500Y44440000I0J-250000D01*
G01*
X7162500Y43190000D01*
G75*
G02*
X6912500Y42940000I-250000J0D01*
G01*
X5987500Y42940000D01*
G75*
G02*
X5737500Y43190000I0J250000D01*
G01*
G37*
%TD*%
M02*
