%TF.GenerationSoftware,KiCad,Pcbnew,(5.1.6-0-10_14)*%
%TF.CreationDate,2021-03-04T16:43:55+01:00*%
%TF.ProjectId,opl2_board,6f706c32-5f62-46f6-9172-642e6b696361,rev?*%
%TF.SameCoordinates,Original*%
%TF.FileFunction,Paste,Bot*%
%TF.FilePolarity,Positive*%
%FSLAX46Y46*%
G04 Gerber Fmt 4.6, Leading zero omitted, Abs format (unit mm)*
G04 Created by KiCad (PCBNEW (5.1.6-0-10_14)) date 2021-03-04 16:43:55*
%MOMM*%
%LPD*%
G01*
G04 APERTURE LIST*
G04 APERTURE END LIST*
%TO.C,C7*%
G36*
G01*
X48882000Y19167000D02*
X48882000Y17917000D01*
G75*
G02*
X48632000Y17667000I-250000J0D01*
G01*
X47707000Y17667000D01*
G75*
G02*
X47457000Y17917000I0J250000D01*
G01*
X47457000Y19167000D01*
G75*
G02*
X47707000Y19417000I250000J0D01*
G01*
X48632000Y19417000D01*
G75*
G02*
X48882000Y19167000I0J-250000D01*
G01*
G37*
G36*
G01*
X51857000Y19167000D02*
X51857000Y17917000D01*
G75*
G02*
X51607000Y17667000I-250000J0D01*
G01*
X50682000Y17667000D01*
G75*
G02*
X50432000Y17917000I0J250000D01*
G01*
X50432000Y19167000D01*
G75*
G02*
X50682000Y19417000I250000J0D01*
G01*
X51607000Y19417000D01*
G75*
G02*
X51857000Y19167000I0J-250000D01*
G01*
G37*
%TD*%
%TO.C,C6*%
G36*
G01*
X49644000Y46027500D02*
X49644000Y44777500D01*
G75*
G02*
X49394000Y44527500I-250000J0D01*
G01*
X48469000Y44527500D01*
G75*
G02*
X48219000Y44777500I0J250000D01*
G01*
X48219000Y46027500D01*
G75*
G02*
X48469000Y46277500I250000J0D01*
G01*
X49394000Y46277500D01*
G75*
G02*
X49644000Y46027500I0J-250000D01*
G01*
G37*
G36*
G01*
X52619000Y46027500D02*
X52619000Y44777500D01*
G75*
G02*
X52369000Y44527500I-250000J0D01*
G01*
X51444000Y44527500D01*
G75*
G02*
X51194000Y44777500I0J250000D01*
G01*
X51194000Y46027500D01*
G75*
G02*
X51444000Y46277500I250000J0D01*
G01*
X52369000Y46277500D01*
G75*
G02*
X52619000Y46027500I0J-250000D01*
G01*
G37*
%TD*%
%TO.C,C3*%
G36*
G01*
X23127000Y22552500D02*
X23127000Y23802500D01*
G75*
G02*
X23377000Y24052500I250000J0D01*
G01*
X24302000Y24052500D01*
G75*
G02*
X24552000Y23802500I0J-250000D01*
G01*
X24552000Y22552500D01*
G75*
G02*
X24302000Y22302500I-250000J0D01*
G01*
X23377000Y22302500D01*
G75*
G02*
X23127000Y22552500I0J250000D01*
G01*
G37*
G36*
G01*
X20152000Y22552500D02*
X20152000Y23802500D01*
G75*
G02*
X20402000Y24052500I250000J0D01*
G01*
X21327000Y24052500D01*
G75*
G02*
X21577000Y23802500I0J-250000D01*
G01*
X21577000Y22552500D01*
G75*
G02*
X21327000Y22302500I-250000J0D01*
G01*
X20402000Y22302500D01*
G75*
G02*
X20152000Y22552500I0J250000D01*
G01*
G37*
%TD*%
%TO.C,C2*%
G36*
G01*
X35483500Y29009500D02*
X35483500Y27759500D01*
G75*
G02*
X35233500Y27509500I-250000J0D01*
G01*
X34308500Y27509500D01*
G75*
G02*
X34058500Y27759500I0J250000D01*
G01*
X34058500Y29009500D01*
G75*
G02*
X34308500Y29259500I250000J0D01*
G01*
X35233500Y29259500D01*
G75*
G02*
X35483500Y29009500I0J-250000D01*
G01*
G37*
G36*
G01*
X38458500Y29009500D02*
X38458500Y27759500D01*
G75*
G02*
X38208500Y27509500I-250000J0D01*
G01*
X37283500Y27509500D01*
G75*
G02*
X37033500Y27759500I0J250000D01*
G01*
X37033500Y29009500D01*
G75*
G02*
X37283500Y29259500I250000J0D01*
G01*
X38208500Y29259500D01*
G75*
G02*
X38458500Y29009500I0J-250000D01*
G01*
G37*
%TD*%
%TO.C,C1*%
G36*
G01*
X26870500Y41325500D02*
X28120500Y41325500D01*
G75*
G02*
X28370500Y41075500I0J-250000D01*
G01*
X28370500Y40150500D01*
G75*
G02*
X28120500Y39900500I-250000J0D01*
G01*
X26870500Y39900500D01*
G75*
G02*
X26620500Y40150500I0J250000D01*
G01*
X26620500Y41075500D01*
G75*
G02*
X26870500Y41325500I250000J0D01*
G01*
G37*
G36*
G01*
X26870500Y44300500D02*
X28120500Y44300500D01*
G75*
G02*
X28370500Y44050500I0J-250000D01*
G01*
X28370500Y43125500D01*
G75*
G02*
X28120500Y42875500I-250000J0D01*
G01*
X26870500Y42875500D01*
G75*
G02*
X26620500Y43125500I0J250000D01*
G01*
X26620500Y44050500D01*
G75*
G02*
X26870500Y44300500I250000J0D01*
G01*
G37*
%TD*%
M02*
