%TF.GenerationSoftware,KiCad,Pcbnew,(5.1.6-0-10_14)*%
%TF.CreationDate,2021-01-15T21:24:44+01:00*%
%TF.ProjectId,planck_board,706c616e-636b-45f6-926f-6172642e6b69,rev?*%
%TF.SameCoordinates,Original*%
%TF.FileFunction,Soldermask,Bot*%
%TF.FilePolarity,Negative*%
%FSLAX46Y46*%
G04 Gerber Fmt 4.6, Leading zero omitted, Abs format (unit mm)*
G04 Created by KiCad (PCBNEW (5.1.6-0-10_14)) date 2021-01-15 21:24:44*
%MOMM*%
%LPD*%
G01*
G04 APERTURE LIST*
%ADD10O,1.800000X1.800000*%
%ADD11R,1.800000X1.800000*%
G04 APERTURE END LIST*
%TO.C,REF\u002A\u002A*%
G36*
G01*
X76506500Y30030000D02*
X76506500Y30930000D01*
G75*
G02*
X76956500Y31380000I450000J0D01*
G01*
X77856500Y31380000D01*
G75*
G02*
X78306500Y30930000I0J-450000D01*
G01*
X78306500Y30030000D01*
G75*
G02*
X77856500Y29580000I-450000J0D01*
G01*
X76956500Y29580000D01*
G75*
G02*
X76506500Y30030000I0J450000D01*
G01*
G37*
%TD*%
%TO.C,REF\u002A\u002A*%
G36*
G01*
X73966500Y30030000D02*
X73966500Y30930000D01*
G75*
G02*
X74416500Y31380000I450000J0D01*
G01*
X75316500Y31380000D01*
G75*
G02*
X75766500Y30930000I0J-450000D01*
G01*
X75766500Y30030000D01*
G75*
G02*
X75316500Y29580000I-450000J0D01*
G01*
X74416500Y29580000D01*
G75*
G02*
X73966500Y30030000I0J450000D01*
G01*
G37*
%TD*%
%TO.C,REF\u002A\u002A*%
G36*
G01*
X71426500Y30030000D02*
X71426500Y30930000D01*
G75*
G02*
X71876500Y31380000I450000J0D01*
G01*
X72776500Y31380000D01*
G75*
G02*
X73226500Y30930000I0J-450000D01*
G01*
X73226500Y30030000D01*
G75*
G02*
X72776500Y29580000I-450000J0D01*
G01*
X71876500Y29580000D01*
G75*
G02*
X71426500Y30030000I0J450000D01*
G01*
G37*
%TD*%
%TO.C,REF\u002A\u002A*%
G36*
G01*
X68886500Y30030000D02*
X68886500Y30930000D01*
G75*
G02*
X69336500Y31380000I450000J0D01*
G01*
X70236500Y31380000D01*
G75*
G02*
X70686500Y30930000I0J-450000D01*
G01*
X70686500Y30030000D01*
G75*
G02*
X70236500Y29580000I-450000J0D01*
G01*
X69336500Y29580000D01*
G75*
G02*
X68886500Y30030000I0J450000D01*
G01*
G37*
%TD*%
%TO.C,REF\u002A\u002A*%
G36*
G01*
X66346500Y30030000D02*
X66346500Y30930000D01*
G75*
G02*
X66796500Y31380000I450000J0D01*
G01*
X67696500Y31380000D01*
G75*
G02*
X68146500Y30930000I0J-450000D01*
G01*
X68146500Y30030000D01*
G75*
G02*
X67696500Y29580000I-450000J0D01*
G01*
X66796500Y29580000D01*
G75*
G02*
X66346500Y30030000I0J450000D01*
G01*
G37*
%TD*%
%TO.C,REF\u002A\u002A*%
G36*
G01*
X63806500Y30030000D02*
X63806500Y30930000D01*
G75*
G02*
X64256500Y31380000I450000J0D01*
G01*
X65156500Y31380000D01*
G75*
G02*
X65606500Y30930000I0J-450000D01*
G01*
X65606500Y30030000D01*
G75*
G02*
X65156500Y29580000I-450000J0D01*
G01*
X64256500Y29580000D01*
G75*
G02*
X63806500Y30030000I0J450000D01*
G01*
G37*
%TD*%
%TO.C,REF\u002A\u002A*%
G36*
G01*
X61266500Y30030000D02*
X61266500Y30930000D01*
G75*
G02*
X61716500Y31380000I450000J0D01*
G01*
X62616500Y31380000D01*
G75*
G02*
X63066500Y30930000I0J-450000D01*
G01*
X63066500Y30030000D01*
G75*
G02*
X62616500Y29580000I-450000J0D01*
G01*
X61716500Y29580000D01*
G75*
G02*
X61266500Y30030000I0J450000D01*
G01*
G37*
%TD*%
%TO.C,REF\u002A\u002A*%
G36*
G01*
X58726500Y30030000D02*
X58726500Y30930000D01*
G75*
G02*
X59176500Y31380000I450000J0D01*
G01*
X60076500Y31380000D01*
G75*
G02*
X60526500Y30930000I0J-450000D01*
G01*
X60526500Y30030000D01*
G75*
G02*
X60076500Y29580000I-450000J0D01*
G01*
X59176500Y29580000D01*
G75*
G02*
X58726500Y30030000I0J450000D01*
G01*
G37*
%TD*%
%TO.C,REF\u002A\u002A*%
G36*
G01*
X56186500Y30030000D02*
X56186500Y30930000D01*
G75*
G02*
X56636500Y31380000I450000J0D01*
G01*
X57536500Y31380000D01*
G75*
G02*
X57986500Y30930000I0J-450000D01*
G01*
X57986500Y30030000D01*
G75*
G02*
X57536500Y29580000I-450000J0D01*
G01*
X56636500Y29580000D01*
G75*
G02*
X56186500Y30030000I0J450000D01*
G01*
G37*
%TD*%
%TO.C,REF\u002A\u002A*%
G36*
G01*
X53646500Y30030000D02*
X53646500Y30930000D01*
G75*
G02*
X54096500Y31380000I450000J0D01*
G01*
X54996500Y31380000D01*
G75*
G02*
X55446500Y30930000I0J-450000D01*
G01*
X55446500Y30030000D01*
G75*
G02*
X54996500Y29580000I-450000J0D01*
G01*
X54096500Y29580000D01*
G75*
G02*
X53646500Y30030000I0J450000D01*
G01*
G37*
%TD*%
%TO.C,REF\u002A\u002A*%
G36*
G01*
X51106500Y30030000D02*
X51106500Y30930000D01*
G75*
G02*
X51556500Y31380000I450000J0D01*
G01*
X52456500Y31380000D01*
G75*
G02*
X52906500Y30930000I0J-450000D01*
G01*
X52906500Y30030000D01*
G75*
G02*
X52456500Y29580000I-450000J0D01*
G01*
X51556500Y29580000D01*
G75*
G02*
X51106500Y30030000I0J450000D01*
G01*
G37*
%TD*%
%TO.C,REF\u002A\u002A*%
G36*
G01*
X48566500Y30030000D02*
X48566500Y30930000D01*
G75*
G02*
X49016500Y31380000I450000J0D01*
G01*
X49916500Y31380000D01*
G75*
G02*
X50366500Y30930000I0J-450000D01*
G01*
X50366500Y30030000D01*
G75*
G02*
X49916500Y29580000I-450000J0D01*
G01*
X49016500Y29580000D01*
G75*
G02*
X48566500Y30030000I0J450000D01*
G01*
G37*
%TD*%
%TO.C,REF\u002A\u002A*%
G36*
G01*
X46026500Y30030000D02*
X46026500Y30930000D01*
G75*
G02*
X46476500Y31380000I450000J0D01*
G01*
X47376500Y31380000D01*
G75*
G02*
X47826500Y30930000I0J-450000D01*
G01*
X47826500Y30030000D01*
G75*
G02*
X47376500Y29580000I-450000J0D01*
G01*
X46476500Y29580000D01*
G75*
G02*
X46026500Y30030000I0J450000D01*
G01*
G37*
%TD*%
%TO.C,REF\u002A\u002A*%
G36*
G01*
X43486500Y30030000D02*
X43486500Y30930000D01*
G75*
G02*
X43936500Y31380000I450000J0D01*
G01*
X44836500Y31380000D01*
G75*
G02*
X45286500Y30930000I0J-450000D01*
G01*
X45286500Y30030000D01*
G75*
G02*
X44836500Y29580000I-450000J0D01*
G01*
X43936500Y29580000D01*
G75*
G02*
X43486500Y30030000I0J450000D01*
G01*
G37*
%TD*%
%TO.C,REF\u002A\u002A*%
G36*
G01*
X40946500Y30030000D02*
X40946500Y30930000D01*
G75*
G02*
X41396500Y31380000I450000J0D01*
G01*
X42296500Y31380000D01*
G75*
G02*
X42746500Y30930000I0J-450000D01*
G01*
X42746500Y30030000D01*
G75*
G02*
X42296500Y29580000I-450000J0D01*
G01*
X41396500Y29580000D01*
G75*
G02*
X40946500Y30030000I0J450000D01*
G01*
G37*
%TD*%
%TO.C,REF\u002A\u002A*%
G36*
G01*
X38406500Y30030000D02*
X38406500Y30930000D01*
G75*
G02*
X38856500Y31380000I450000J0D01*
G01*
X39756500Y31380000D01*
G75*
G02*
X40206500Y30930000I0J-450000D01*
G01*
X40206500Y30030000D01*
G75*
G02*
X39756500Y29580000I-450000J0D01*
G01*
X38856500Y29580000D01*
G75*
G02*
X38406500Y30030000I0J450000D01*
G01*
G37*
%TD*%
%TO.C,REF\u002A\u002A*%
G36*
G01*
X35866500Y30030000D02*
X35866500Y30930000D01*
G75*
G02*
X36316500Y31380000I450000J0D01*
G01*
X37216500Y31380000D01*
G75*
G02*
X37666500Y30930000I0J-450000D01*
G01*
X37666500Y30030000D01*
G75*
G02*
X37216500Y29580000I-450000J0D01*
G01*
X36316500Y29580000D01*
G75*
G02*
X35866500Y30030000I0J450000D01*
G01*
G37*
%TD*%
%TO.C,REF\u002A\u002A*%
G36*
G01*
X33326500Y30030000D02*
X33326500Y30930000D01*
G75*
G02*
X33776500Y31380000I450000J0D01*
G01*
X34676500Y31380000D01*
G75*
G02*
X35126500Y30930000I0J-450000D01*
G01*
X35126500Y30030000D01*
G75*
G02*
X34676500Y29580000I-450000J0D01*
G01*
X33776500Y29580000D01*
G75*
G02*
X33326500Y30030000I0J450000D01*
G01*
G37*
%TD*%
%TO.C,REF\u002A\u002A*%
G36*
G01*
X30786500Y30030000D02*
X30786500Y30930000D01*
G75*
G02*
X31236500Y31380000I450000J0D01*
G01*
X32136500Y31380000D01*
G75*
G02*
X32586500Y30930000I0J-450000D01*
G01*
X32586500Y30030000D01*
G75*
G02*
X32136500Y29580000I-450000J0D01*
G01*
X31236500Y29580000D01*
G75*
G02*
X30786500Y30030000I0J450000D01*
G01*
G37*
%TD*%
%TO.C,REF\u002A\u002A*%
G36*
G01*
X28246500Y30030000D02*
X28246500Y30930000D01*
G75*
G02*
X28696500Y31380000I450000J0D01*
G01*
X29596500Y31380000D01*
G75*
G02*
X30046500Y30930000I0J-450000D01*
G01*
X30046500Y30030000D01*
G75*
G02*
X29596500Y29580000I-450000J0D01*
G01*
X28696500Y29580000D01*
G75*
G02*
X28246500Y30030000I0J450000D01*
G01*
G37*
%TD*%
%TO.C,REF\u002A\u002A*%
G36*
G01*
X25706500Y30030000D02*
X25706500Y30930000D01*
G75*
G02*
X26156500Y31380000I450000J0D01*
G01*
X27056500Y31380000D01*
G75*
G02*
X27506500Y30930000I0J-450000D01*
G01*
X27506500Y30030000D01*
G75*
G02*
X27056500Y29580000I-450000J0D01*
G01*
X26156500Y29580000D01*
G75*
G02*
X25706500Y30030000I0J450000D01*
G01*
G37*
%TD*%
%TO.C,REF\u002A\u002A*%
G36*
G01*
X23166500Y30030000D02*
X23166500Y30930000D01*
G75*
G02*
X23616500Y31380000I450000J0D01*
G01*
X24516500Y31380000D01*
G75*
G02*
X24966500Y30930000I0J-450000D01*
G01*
X24966500Y30030000D01*
G75*
G02*
X24516500Y29580000I-450000J0D01*
G01*
X23616500Y29580000D01*
G75*
G02*
X23166500Y30030000I0J450000D01*
G01*
G37*
%TD*%
%TO.C,REF\u002A\u002A*%
G36*
G01*
X20626500Y30030000D02*
X20626500Y30930000D01*
G75*
G02*
X21076500Y31380000I450000J0D01*
G01*
X21976500Y31380000D01*
G75*
G02*
X22426500Y30930000I0J-450000D01*
G01*
X22426500Y30030000D01*
G75*
G02*
X21976500Y29580000I-450000J0D01*
G01*
X21076500Y29580000D01*
G75*
G02*
X20626500Y30030000I0J450000D01*
G01*
G37*
%TD*%
%TO.C,REF\u002A\u002A*%
G36*
G01*
X18086500Y30030000D02*
X18086500Y30930000D01*
G75*
G02*
X18536500Y31380000I450000J0D01*
G01*
X19436500Y31380000D01*
G75*
G02*
X19886500Y30930000I0J-450000D01*
G01*
X19886500Y30030000D01*
G75*
G02*
X19436500Y29580000I-450000J0D01*
G01*
X18536500Y29580000D01*
G75*
G02*
X18086500Y30030000I0J450000D01*
G01*
G37*
%TD*%
%TO.C,REF\u002A\u002A*%
G36*
G01*
X15546500Y30030000D02*
X15546500Y30930000D01*
G75*
G02*
X15996500Y31380000I450000J0D01*
G01*
X16896500Y31380000D01*
G75*
G02*
X17346500Y30930000I0J-450000D01*
G01*
X17346500Y30030000D01*
G75*
G02*
X16896500Y29580000I-450000J0D01*
G01*
X15996500Y29580000D01*
G75*
G02*
X15546500Y30030000I0J450000D01*
G01*
G37*
%TD*%
%TO.C,REF\u002A\u002A*%
G36*
G01*
X13006500Y30030000D02*
X13006500Y30930000D01*
G75*
G02*
X13456500Y31380000I450000J0D01*
G01*
X14356500Y31380000D01*
G75*
G02*
X14806500Y30930000I0J-450000D01*
G01*
X14806500Y30030000D01*
G75*
G02*
X14356500Y29580000I-450000J0D01*
G01*
X13456500Y29580000D01*
G75*
G02*
X13006500Y30030000I0J450000D01*
G01*
G37*
%TD*%
%TO.C,REF\u002A\u002A*%
G36*
G01*
X10466500Y30030000D02*
X10466500Y30930000D01*
G75*
G02*
X10916500Y31380000I450000J0D01*
G01*
X11816500Y31380000D01*
G75*
G02*
X12266500Y30930000I0J-450000D01*
G01*
X12266500Y30030000D01*
G75*
G02*
X11816500Y29580000I-450000J0D01*
G01*
X10916500Y29580000D01*
G75*
G02*
X10466500Y30030000I0J450000D01*
G01*
G37*
%TD*%
%TO.C,REF\u002A\u002A*%
G36*
G01*
X7926500Y30030000D02*
X7926500Y30930000D01*
G75*
G02*
X8376500Y31380000I450000J0D01*
G01*
X9276500Y31380000D01*
G75*
G02*
X9726500Y30930000I0J-450000D01*
G01*
X9726500Y30030000D01*
G75*
G02*
X9276500Y29580000I-450000J0D01*
G01*
X8376500Y29580000D01*
G75*
G02*
X7926500Y30030000I0J450000D01*
G01*
G37*
%TD*%
%TO.C,REF\u002A\u002A*%
G36*
G01*
X5386500Y30030000D02*
X5386500Y30930000D01*
G75*
G02*
X5836500Y31380000I450000J0D01*
G01*
X6736500Y31380000D01*
G75*
G02*
X7186500Y30930000I0J-450000D01*
G01*
X7186500Y30030000D01*
G75*
G02*
X6736500Y29580000I-450000J0D01*
G01*
X5836500Y29580000D01*
G75*
G02*
X5386500Y30030000I0J450000D01*
G01*
G37*
%TD*%
%TO.C,REF\u002A\u002A*%
G36*
G01*
X76506500Y32570000D02*
X76506500Y33470000D01*
G75*
G02*
X76956500Y33920000I450000J0D01*
G01*
X77856500Y33920000D01*
G75*
G02*
X78306500Y33470000I0J-450000D01*
G01*
X78306500Y32570000D01*
G75*
G02*
X77856500Y32120000I-450000J0D01*
G01*
X76956500Y32120000D01*
G75*
G02*
X76506500Y32570000I0J450000D01*
G01*
G37*
%TD*%
%TO.C,REF\u002A\u002A*%
G36*
G01*
X73966500Y32570000D02*
X73966500Y33470000D01*
G75*
G02*
X74416500Y33920000I450000J0D01*
G01*
X75316500Y33920000D01*
G75*
G02*
X75766500Y33470000I0J-450000D01*
G01*
X75766500Y32570000D01*
G75*
G02*
X75316500Y32120000I-450000J0D01*
G01*
X74416500Y32120000D01*
G75*
G02*
X73966500Y32570000I0J450000D01*
G01*
G37*
%TD*%
%TO.C,REF\u002A\u002A*%
G36*
G01*
X71426500Y32570000D02*
X71426500Y33470000D01*
G75*
G02*
X71876500Y33920000I450000J0D01*
G01*
X72776500Y33920000D01*
G75*
G02*
X73226500Y33470000I0J-450000D01*
G01*
X73226500Y32570000D01*
G75*
G02*
X72776500Y32120000I-450000J0D01*
G01*
X71876500Y32120000D01*
G75*
G02*
X71426500Y32570000I0J450000D01*
G01*
G37*
%TD*%
%TO.C,REF\u002A\u002A*%
G36*
G01*
X68886500Y32570000D02*
X68886500Y33470000D01*
G75*
G02*
X69336500Y33920000I450000J0D01*
G01*
X70236500Y33920000D01*
G75*
G02*
X70686500Y33470000I0J-450000D01*
G01*
X70686500Y32570000D01*
G75*
G02*
X70236500Y32120000I-450000J0D01*
G01*
X69336500Y32120000D01*
G75*
G02*
X68886500Y32570000I0J450000D01*
G01*
G37*
%TD*%
%TO.C,REF\u002A\u002A*%
G36*
G01*
X66346500Y32570000D02*
X66346500Y33470000D01*
G75*
G02*
X66796500Y33920000I450000J0D01*
G01*
X67696500Y33920000D01*
G75*
G02*
X68146500Y33470000I0J-450000D01*
G01*
X68146500Y32570000D01*
G75*
G02*
X67696500Y32120000I-450000J0D01*
G01*
X66796500Y32120000D01*
G75*
G02*
X66346500Y32570000I0J450000D01*
G01*
G37*
%TD*%
%TO.C,REF\u002A\u002A*%
G36*
G01*
X63806500Y32570000D02*
X63806500Y33470000D01*
G75*
G02*
X64256500Y33920000I450000J0D01*
G01*
X65156500Y33920000D01*
G75*
G02*
X65606500Y33470000I0J-450000D01*
G01*
X65606500Y32570000D01*
G75*
G02*
X65156500Y32120000I-450000J0D01*
G01*
X64256500Y32120000D01*
G75*
G02*
X63806500Y32570000I0J450000D01*
G01*
G37*
%TD*%
%TO.C,REF\u002A\u002A*%
G36*
G01*
X61266500Y32570000D02*
X61266500Y33470000D01*
G75*
G02*
X61716500Y33920000I450000J0D01*
G01*
X62616500Y33920000D01*
G75*
G02*
X63066500Y33470000I0J-450000D01*
G01*
X63066500Y32570000D01*
G75*
G02*
X62616500Y32120000I-450000J0D01*
G01*
X61716500Y32120000D01*
G75*
G02*
X61266500Y32570000I0J450000D01*
G01*
G37*
%TD*%
%TO.C,REF\u002A\u002A*%
G36*
G01*
X58726500Y32570000D02*
X58726500Y33470000D01*
G75*
G02*
X59176500Y33920000I450000J0D01*
G01*
X60076500Y33920000D01*
G75*
G02*
X60526500Y33470000I0J-450000D01*
G01*
X60526500Y32570000D01*
G75*
G02*
X60076500Y32120000I-450000J0D01*
G01*
X59176500Y32120000D01*
G75*
G02*
X58726500Y32570000I0J450000D01*
G01*
G37*
%TD*%
%TO.C,REF\u002A\u002A*%
G36*
G01*
X56186500Y32570000D02*
X56186500Y33470000D01*
G75*
G02*
X56636500Y33920000I450000J0D01*
G01*
X57536500Y33920000D01*
G75*
G02*
X57986500Y33470000I0J-450000D01*
G01*
X57986500Y32570000D01*
G75*
G02*
X57536500Y32120000I-450000J0D01*
G01*
X56636500Y32120000D01*
G75*
G02*
X56186500Y32570000I0J450000D01*
G01*
G37*
%TD*%
%TO.C,REF\u002A\u002A*%
G36*
G01*
X53646500Y32570000D02*
X53646500Y33470000D01*
G75*
G02*
X54096500Y33920000I450000J0D01*
G01*
X54996500Y33920000D01*
G75*
G02*
X55446500Y33470000I0J-450000D01*
G01*
X55446500Y32570000D01*
G75*
G02*
X54996500Y32120000I-450000J0D01*
G01*
X54096500Y32120000D01*
G75*
G02*
X53646500Y32570000I0J450000D01*
G01*
G37*
%TD*%
%TO.C,REF\u002A\u002A*%
G36*
G01*
X51106500Y32570000D02*
X51106500Y33470000D01*
G75*
G02*
X51556500Y33920000I450000J0D01*
G01*
X52456500Y33920000D01*
G75*
G02*
X52906500Y33470000I0J-450000D01*
G01*
X52906500Y32570000D01*
G75*
G02*
X52456500Y32120000I-450000J0D01*
G01*
X51556500Y32120000D01*
G75*
G02*
X51106500Y32570000I0J450000D01*
G01*
G37*
%TD*%
%TO.C,REF\u002A\u002A*%
G36*
G01*
X48566500Y32570000D02*
X48566500Y33470000D01*
G75*
G02*
X49016500Y33920000I450000J0D01*
G01*
X49916500Y33920000D01*
G75*
G02*
X50366500Y33470000I0J-450000D01*
G01*
X50366500Y32570000D01*
G75*
G02*
X49916500Y32120000I-450000J0D01*
G01*
X49016500Y32120000D01*
G75*
G02*
X48566500Y32570000I0J450000D01*
G01*
G37*
%TD*%
%TO.C,REF\u002A\u002A*%
G36*
G01*
X46026500Y32570000D02*
X46026500Y33470000D01*
G75*
G02*
X46476500Y33920000I450000J0D01*
G01*
X47376500Y33920000D01*
G75*
G02*
X47826500Y33470000I0J-450000D01*
G01*
X47826500Y32570000D01*
G75*
G02*
X47376500Y32120000I-450000J0D01*
G01*
X46476500Y32120000D01*
G75*
G02*
X46026500Y32570000I0J450000D01*
G01*
G37*
%TD*%
%TO.C,REF\u002A\u002A*%
G36*
G01*
X43486500Y32570000D02*
X43486500Y33470000D01*
G75*
G02*
X43936500Y33920000I450000J0D01*
G01*
X44836500Y33920000D01*
G75*
G02*
X45286500Y33470000I0J-450000D01*
G01*
X45286500Y32570000D01*
G75*
G02*
X44836500Y32120000I-450000J0D01*
G01*
X43936500Y32120000D01*
G75*
G02*
X43486500Y32570000I0J450000D01*
G01*
G37*
%TD*%
%TO.C,REF\u002A\u002A*%
G36*
G01*
X40946500Y32570000D02*
X40946500Y33470000D01*
G75*
G02*
X41396500Y33920000I450000J0D01*
G01*
X42296500Y33920000D01*
G75*
G02*
X42746500Y33470000I0J-450000D01*
G01*
X42746500Y32570000D01*
G75*
G02*
X42296500Y32120000I-450000J0D01*
G01*
X41396500Y32120000D01*
G75*
G02*
X40946500Y32570000I0J450000D01*
G01*
G37*
%TD*%
%TO.C,REF\u002A\u002A*%
G36*
G01*
X38406500Y32570000D02*
X38406500Y33470000D01*
G75*
G02*
X38856500Y33920000I450000J0D01*
G01*
X39756500Y33920000D01*
G75*
G02*
X40206500Y33470000I0J-450000D01*
G01*
X40206500Y32570000D01*
G75*
G02*
X39756500Y32120000I-450000J0D01*
G01*
X38856500Y32120000D01*
G75*
G02*
X38406500Y32570000I0J450000D01*
G01*
G37*
%TD*%
%TO.C,REF\u002A\u002A*%
G36*
G01*
X35866500Y32570000D02*
X35866500Y33470000D01*
G75*
G02*
X36316500Y33920000I450000J0D01*
G01*
X37216500Y33920000D01*
G75*
G02*
X37666500Y33470000I0J-450000D01*
G01*
X37666500Y32570000D01*
G75*
G02*
X37216500Y32120000I-450000J0D01*
G01*
X36316500Y32120000D01*
G75*
G02*
X35866500Y32570000I0J450000D01*
G01*
G37*
%TD*%
%TO.C,REF\u002A\u002A*%
G36*
G01*
X33326500Y32570000D02*
X33326500Y33470000D01*
G75*
G02*
X33776500Y33920000I450000J0D01*
G01*
X34676500Y33920000D01*
G75*
G02*
X35126500Y33470000I0J-450000D01*
G01*
X35126500Y32570000D01*
G75*
G02*
X34676500Y32120000I-450000J0D01*
G01*
X33776500Y32120000D01*
G75*
G02*
X33326500Y32570000I0J450000D01*
G01*
G37*
%TD*%
%TO.C,REF\u002A\u002A*%
G36*
G01*
X30786500Y32570000D02*
X30786500Y33470000D01*
G75*
G02*
X31236500Y33920000I450000J0D01*
G01*
X32136500Y33920000D01*
G75*
G02*
X32586500Y33470000I0J-450000D01*
G01*
X32586500Y32570000D01*
G75*
G02*
X32136500Y32120000I-450000J0D01*
G01*
X31236500Y32120000D01*
G75*
G02*
X30786500Y32570000I0J450000D01*
G01*
G37*
%TD*%
%TO.C,REF\u002A\u002A*%
G36*
G01*
X28246500Y32570000D02*
X28246500Y33470000D01*
G75*
G02*
X28696500Y33920000I450000J0D01*
G01*
X29596500Y33920000D01*
G75*
G02*
X30046500Y33470000I0J-450000D01*
G01*
X30046500Y32570000D01*
G75*
G02*
X29596500Y32120000I-450000J0D01*
G01*
X28696500Y32120000D01*
G75*
G02*
X28246500Y32570000I0J450000D01*
G01*
G37*
%TD*%
%TO.C,REF\u002A\u002A*%
G36*
G01*
X25706500Y32570000D02*
X25706500Y33470000D01*
G75*
G02*
X26156500Y33920000I450000J0D01*
G01*
X27056500Y33920000D01*
G75*
G02*
X27506500Y33470000I0J-450000D01*
G01*
X27506500Y32570000D01*
G75*
G02*
X27056500Y32120000I-450000J0D01*
G01*
X26156500Y32120000D01*
G75*
G02*
X25706500Y32570000I0J450000D01*
G01*
G37*
%TD*%
%TO.C,REF\u002A\u002A*%
G36*
G01*
X23166500Y32570000D02*
X23166500Y33470000D01*
G75*
G02*
X23616500Y33920000I450000J0D01*
G01*
X24516500Y33920000D01*
G75*
G02*
X24966500Y33470000I0J-450000D01*
G01*
X24966500Y32570000D01*
G75*
G02*
X24516500Y32120000I-450000J0D01*
G01*
X23616500Y32120000D01*
G75*
G02*
X23166500Y32570000I0J450000D01*
G01*
G37*
%TD*%
%TO.C,REF\u002A\u002A*%
G36*
G01*
X20626500Y32570000D02*
X20626500Y33470000D01*
G75*
G02*
X21076500Y33920000I450000J0D01*
G01*
X21976500Y33920000D01*
G75*
G02*
X22426500Y33470000I0J-450000D01*
G01*
X22426500Y32570000D01*
G75*
G02*
X21976500Y32120000I-450000J0D01*
G01*
X21076500Y32120000D01*
G75*
G02*
X20626500Y32570000I0J450000D01*
G01*
G37*
%TD*%
%TO.C,REF\u002A\u002A*%
G36*
G01*
X18086500Y32570000D02*
X18086500Y33470000D01*
G75*
G02*
X18536500Y33920000I450000J0D01*
G01*
X19436500Y33920000D01*
G75*
G02*
X19886500Y33470000I0J-450000D01*
G01*
X19886500Y32570000D01*
G75*
G02*
X19436500Y32120000I-450000J0D01*
G01*
X18536500Y32120000D01*
G75*
G02*
X18086500Y32570000I0J450000D01*
G01*
G37*
%TD*%
%TO.C,REF\u002A\u002A*%
G36*
G01*
X15546500Y32570000D02*
X15546500Y33470000D01*
G75*
G02*
X15996500Y33920000I450000J0D01*
G01*
X16896500Y33920000D01*
G75*
G02*
X17346500Y33470000I0J-450000D01*
G01*
X17346500Y32570000D01*
G75*
G02*
X16896500Y32120000I-450000J0D01*
G01*
X15996500Y32120000D01*
G75*
G02*
X15546500Y32570000I0J450000D01*
G01*
G37*
%TD*%
%TO.C,REF\u002A\u002A*%
G36*
G01*
X13006500Y32570000D02*
X13006500Y33470000D01*
G75*
G02*
X13456500Y33920000I450000J0D01*
G01*
X14356500Y33920000D01*
G75*
G02*
X14806500Y33470000I0J-450000D01*
G01*
X14806500Y32570000D01*
G75*
G02*
X14356500Y32120000I-450000J0D01*
G01*
X13456500Y32120000D01*
G75*
G02*
X13006500Y32570000I0J450000D01*
G01*
G37*
%TD*%
%TO.C,REF\u002A\u002A*%
G36*
G01*
X10466500Y32570000D02*
X10466500Y33470000D01*
G75*
G02*
X10916500Y33920000I450000J0D01*
G01*
X11816500Y33920000D01*
G75*
G02*
X12266500Y33470000I0J-450000D01*
G01*
X12266500Y32570000D01*
G75*
G02*
X11816500Y32120000I-450000J0D01*
G01*
X10916500Y32120000D01*
G75*
G02*
X10466500Y32570000I0J450000D01*
G01*
G37*
%TD*%
%TO.C,REF\u002A\u002A*%
G36*
G01*
X7926500Y32570000D02*
X7926500Y33470000D01*
G75*
G02*
X8376500Y33920000I450000J0D01*
G01*
X9276500Y33920000D01*
G75*
G02*
X9726500Y33470000I0J-450000D01*
G01*
X9726500Y32570000D01*
G75*
G02*
X9276500Y32120000I-450000J0D01*
G01*
X8376500Y32120000D01*
G75*
G02*
X7926500Y32570000I0J450000D01*
G01*
G37*
%TD*%
%TO.C,REF\u002A\u002A*%
G36*
G01*
X5386500Y32570000D02*
X5386500Y33470000D01*
G75*
G02*
X5836500Y33920000I450000J0D01*
G01*
X6736500Y33920000D01*
G75*
G02*
X7186500Y33470000I0J-450000D01*
G01*
X7186500Y32570000D01*
G75*
G02*
X6736500Y32120000I-450000J0D01*
G01*
X5836500Y32120000D01*
G75*
G02*
X5386500Y32570000I0J450000D01*
G01*
G37*
%TD*%
%TO.C,REF\u002A\u002A*%
G36*
G01*
X76506500Y12250000D02*
X76506500Y13150000D01*
G75*
G02*
X76956500Y13600000I450000J0D01*
G01*
X77856500Y13600000D01*
G75*
G02*
X78306500Y13150000I0J-450000D01*
G01*
X78306500Y12250000D01*
G75*
G02*
X77856500Y11800000I-450000J0D01*
G01*
X76956500Y11800000D01*
G75*
G02*
X76506500Y12250000I0J450000D01*
G01*
G37*
%TD*%
%TO.C,REF\u002A\u002A*%
G36*
G01*
X73966500Y12250000D02*
X73966500Y13150000D01*
G75*
G02*
X74416500Y13600000I450000J0D01*
G01*
X75316500Y13600000D01*
G75*
G02*
X75766500Y13150000I0J-450000D01*
G01*
X75766500Y12250000D01*
G75*
G02*
X75316500Y11800000I-450000J0D01*
G01*
X74416500Y11800000D01*
G75*
G02*
X73966500Y12250000I0J450000D01*
G01*
G37*
%TD*%
%TO.C,REF\u002A\u002A*%
G36*
G01*
X71426500Y12250000D02*
X71426500Y13150000D01*
G75*
G02*
X71876500Y13600000I450000J0D01*
G01*
X72776500Y13600000D01*
G75*
G02*
X73226500Y13150000I0J-450000D01*
G01*
X73226500Y12250000D01*
G75*
G02*
X72776500Y11800000I-450000J0D01*
G01*
X71876500Y11800000D01*
G75*
G02*
X71426500Y12250000I0J450000D01*
G01*
G37*
%TD*%
%TO.C,REF\u002A\u002A*%
G36*
G01*
X68886500Y12250000D02*
X68886500Y13150000D01*
G75*
G02*
X69336500Y13600000I450000J0D01*
G01*
X70236500Y13600000D01*
G75*
G02*
X70686500Y13150000I0J-450000D01*
G01*
X70686500Y12250000D01*
G75*
G02*
X70236500Y11800000I-450000J0D01*
G01*
X69336500Y11800000D01*
G75*
G02*
X68886500Y12250000I0J450000D01*
G01*
G37*
%TD*%
%TO.C,REF\u002A\u002A*%
G36*
G01*
X66346500Y12250000D02*
X66346500Y13150000D01*
G75*
G02*
X66796500Y13600000I450000J0D01*
G01*
X67696500Y13600000D01*
G75*
G02*
X68146500Y13150000I0J-450000D01*
G01*
X68146500Y12250000D01*
G75*
G02*
X67696500Y11800000I-450000J0D01*
G01*
X66796500Y11800000D01*
G75*
G02*
X66346500Y12250000I0J450000D01*
G01*
G37*
%TD*%
%TO.C,REF\u002A\u002A*%
G36*
G01*
X63806500Y12250000D02*
X63806500Y13150000D01*
G75*
G02*
X64256500Y13600000I450000J0D01*
G01*
X65156500Y13600000D01*
G75*
G02*
X65606500Y13150000I0J-450000D01*
G01*
X65606500Y12250000D01*
G75*
G02*
X65156500Y11800000I-450000J0D01*
G01*
X64256500Y11800000D01*
G75*
G02*
X63806500Y12250000I0J450000D01*
G01*
G37*
%TD*%
%TO.C,REF\u002A\u002A*%
G36*
G01*
X61266500Y12250000D02*
X61266500Y13150000D01*
G75*
G02*
X61716500Y13600000I450000J0D01*
G01*
X62616500Y13600000D01*
G75*
G02*
X63066500Y13150000I0J-450000D01*
G01*
X63066500Y12250000D01*
G75*
G02*
X62616500Y11800000I-450000J0D01*
G01*
X61716500Y11800000D01*
G75*
G02*
X61266500Y12250000I0J450000D01*
G01*
G37*
%TD*%
%TO.C,REF\u002A\u002A*%
G36*
G01*
X58726500Y12250000D02*
X58726500Y13150000D01*
G75*
G02*
X59176500Y13600000I450000J0D01*
G01*
X60076500Y13600000D01*
G75*
G02*
X60526500Y13150000I0J-450000D01*
G01*
X60526500Y12250000D01*
G75*
G02*
X60076500Y11800000I-450000J0D01*
G01*
X59176500Y11800000D01*
G75*
G02*
X58726500Y12250000I0J450000D01*
G01*
G37*
%TD*%
%TO.C,REF\u002A\u002A*%
G36*
G01*
X56186500Y12250000D02*
X56186500Y13150000D01*
G75*
G02*
X56636500Y13600000I450000J0D01*
G01*
X57536500Y13600000D01*
G75*
G02*
X57986500Y13150000I0J-450000D01*
G01*
X57986500Y12250000D01*
G75*
G02*
X57536500Y11800000I-450000J0D01*
G01*
X56636500Y11800000D01*
G75*
G02*
X56186500Y12250000I0J450000D01*
G01*
G37*
%TD*%
%TO.C,REF\u002A\u002A*%
G36*
G01*
X53646500Y12250000D02*
X53646500Y13150000D01*
G75*
G02*
X54096500Y13600000I450000J0D01*
G01*
X54996500Y13600000D01*
G75*
G02*
X55446500Y13150000I0J-450000D01*
G01*
X55446500Y12250000D01*
G75*
G02*
X54996500Y11800000I-450000J0D01*
G01*
X54096500Y11800000D01*
G75*
G02*
X53646500Y12250000I0J450000D01*
G01*
G37*
%TD*%
%TO.C,REF\u002A\u002A*%
G36*
G01*
X51106500Y12250000D02*
X51106500Y13150000D01*
G75*
G02*
X51556500Y13600000I450000J0D01*
G01*
X52456500Y13600000D01*
G75*
G02*
X52906500Y13150000I0J-450000D01*
G01*
X52906500Y12250000D01*
G75*
G02*
X52456500Y11800000I-450000J0D01*
G01*
X51556500Y11800000D01*
G75*
G02*
X51106500Y12250000I0J450000D01*
G01*
G37*
%TD*%
%TO.C,REF\u002A\u002A*%
G36*
G01*
X48566500Y12250000D02*
X48566500Y13150000D01*
G75*
G02*
X49016500Y13600000I450000J0D01*
G01*
X49916500Y13600000D01*
G75*
G02*
X50366500Y13150000I0J-450000D01*
G01*
X50366500Y12250000D01*
G75*
G02*
X49916500Y11800000I-450000J0D01*
G01*
X49016500Y11800000D01*
G75*
G02*
X48566500Y12250000I0J450000D01*
G01*
G37*
%TD*%
%TO.C,REF\u002A\u002A*%
G36*
G01*
X46026500Y12250000D02*
X46026500Y13150000D01*
G75*
G02*
X46476500Y13600000I450000J0D01*
G01*
X47376500Y13600000D01*
G75*
G02*
X47826500Y13150000I0J-450000D01*
G01*
X47826500Y12250000D01*
G75*
G02*
X47376500Y11800000I-450000J0D01*
G01*
X46476500Y11800000D01*
G75*
G02*
X46026500Y12250000I0J450000D01*
G01*
G37*
%TD*%
%TO.C,REF\u002A\u002A*%
G36*
G01*
X43486500Y12250000D02*
X43486500Y13150000D01*
G75*
G02*
X43936500Y13600000I450000J0D01*
G01*
X44836500Y13600000D01*
G75*
G02*
X45286500Y13150000I0J-450000D01*
G01*
X45286500Y12250000D01*
G75*
G02*
X44836500Y11800000I-450000J0D01*
G01*
X43936500Y11800000D01*
G75*
G02*
X43486500Y12250000I0J450000D01*
G01*
G37*
%TD*%
%TO.C,REF\u002A\u002A*%
G36*
G01*
X40946500Y12250000D02*
X40946500Y13150000D01*
G75*
G02*
X41396500Y13600000I450000J0D01*
G01*
X42296500Y13600000D01*
G75*
G02*
X42746500Y13150000I0J-450000D01*
G01*
X42746500Y12250000D01*
G75*
G02*
X42296500Y11800000I-450000J0D01*
G01*
X41396500Y11800000D01*
G75*
G02*
X40946500Y12250000I0J450000D01*
G01*
G37*
%TD*%
%TO.C,REF\u002A\u002A*%
G36*
G01*
X38406500Y12250000D02*
X38406500Y13150000D01*
G75*
G02*
X38856500Y13600000I450000J0D01*
G01*
X39756500Y13600000D01*
G75*
G02*
X40206500Y13150000I0J-450000D01*
G01*
X40206500Y12250000D01*
G75*
G02*
X39756500Y11800000I-450000J0D01*
G01*
X38856500Y11800000D01*
G75*
G02*
X38406500Y12250000I0J450000D01*
G01*
G37*
%TD*%
%TO.C,REF\u002A\u002A*%
G36*
G01*
X35866500Y12250000D02*
X35866500Y13150000D01*
G75*
G02*
X36316500Y13600000I450000J0D01*
G01*
X37216500Y13600000D01*
G75*
G02*
X37666500Y13150000I0J-450000D01*
G01*
X37666500Y12250000D01*
G75*
G02*
X37216500Y11800000I-450000J0D01*
G01*
X36316500Y11800000D01*
G75*
G02*
X35866500Y12250000I0J450000D01*
G01*
G37*
%TD*%
%TO.C,REF\u002A\u002A*%
G36*
G01*
X33326500Y12250000D02*
X33326500Y13150000D01*
G75*
G02*
X33776500Y13600000I450000J0D01*
G01*
X34676500Y13600000D01*
G75*
G02*
X35126500Y13150000I0J-450000D01*
G01*
X35126500Y12250000D01*
G75*
G02*
X34676500Y11800000I-450000J0D01*
G01*
X33776500Y11800000D01*
G75*
G02*
X33326500Y12250000I0J450000D01*
G01*
G37*
%TD*%
%TO.C,REF\u002A\u002A*%
G36*
G01*
X30786500Y12250000D02*
X30786500Y13150000D01*
G75*
G02*
X31236500Y13600000I450000J0D01*
G01*
X32136500Y13600000D01*
G75*
G02*
X32586500Y13150000I0J-450000D01*
G01*
X32586500Y12250000D01*
G75*
G02*
X32136500Y11800000I-450000J0D01*
G01*
X31236500Y11800000D01*
G75*
G02*
X30786500Y12250000I0J450000D01*
G01*
G37*
%TD*%
%TO.C,REF\u002A\u002A*%
G36*
G01*
X28246500Y12250000D02*
X28246500Y13150000D01*
G75*
G02*
X28696500Y13600000I450000J0D01*
G01*
X29596500Y13600000D01*
G75*
G02*
X30046500Y13150000I0J-450000D01*
G01*
X30046500Y12250000D01*
G75*
G02*
X29596500Y11800000I-450000J0D01*
G01*
X28696500Y11800000D01*
G75*
G02*
X28246500Y12250000I0J450000D01*
G01*
G37*
%TD*%
%TO.C,REF\u002A\u002A*%
G36*
G01*
X25706500Y12250000D02*
X25706500Y13150000D01*
G75*
G02*
X26156500Y13600000I450000J0D01*
G01*
X27056500Y13600000D01*
G75*
G02*
X27506500Y13150000I0J-450000D01*
G01*
X27506500Y12250000D01*
G75*
G02*
X27056500Y11800000I-450000J0D01*
G01*
X26156500Y11800000D01*
G75*
G02*
X25706500Y12250000I0J450000D01*
G01*
G37*
%TD*%
%TO.C,REF\u002A\u002A*%
G36*
G01*
X23166500Y12250000D02*
X23166500Y13150000D01*
G75*
G02*
X23616500Y13600000I450000J0D01*
G01*
X24516500Y13600000D01*
G75*
G02*
X24966500Y13150000I0J-450000D01*
G01*
X24966500Y12250000D01*
G75*
G02*
X24516500Y11800000I-450000J0D01*
G01*
X23616500Y11800000D01*
G75*
G02*
X23166500Y12250000I0J450000D01*
G01*
G37*
%TD*%
%TO.C,REF\u002A\u002A*%
G36*
G01*
X20626500Y12250000D02*
X20626500Y13150000D01*
G75*
G02*
X21076500Y13600000I450000J0D01*
G01*
X21976500Y13600000D01*
G75*
G02*
X22426500Y13150000I0J-450000D01*
G01*
X22426500Y12250000D01*
G75*
G02*
X21976500Y11800000I-450000J0D01*
G01*
X21076500Y11800000D01*
G75*
G02*
X20626500Y12250000I0J450000D01*
G01*
G37*
%TD*%
%TO.C,REF\u002A\u002A*%
G36*
G01*
X18086500Y12250000D02*
X18086500Y13150000D01*
G75*
G02*
X18536500Y13600000I450000J0D01*
G01*
X19436500Y13600000D01*
G75*
G02*
X19886500Y13150000I0J-450000D01*
G01*
X19886500Y12250000D01*
G75*
G02*
X19436500Y11800000I-450000J0D01*
G01*
X18536500Y11800000D01*
G75*
G02*
X18086500Y12250000I0J450000D01*
G01*
G37*
%TD*%
%TO.C,REF\u002A\u002A*%
G36*
G01*
X15546500Y12250000D02*
X15546500Y13150000D01*
G75*
G02*
X15996500Y13600000I450000J0D01*
G01*
X16896500Y13600000D01*
G75*
G02*
X17346500Y13150000I0J-450000D01*
G01*
X17346500Y12250000D01*
G75*
G02*
X16896500Y11800000I-450000J0D01*
G01*
X15996500Y11800000D01*
G75*
G02*
X15546500Y12250000I0J450000D01*
G01*
G37*
%TD*%
%TO.C,REF\u002A\u002A*%
G36*
G01*
X13006500Y12250000D02*
X13006500Y13150000D01*
G75*
G02*
X13456500Y13600000I450000J0D01*
G01*
X14356500Y13600000D01*
G75*
G02*
X14806500Y13150000I0J-450000D01*
G01*
X14806500Y12250000D01*
G75*
G02*
X14356500Y11800000I-450000J0D01*
G01*
X13456500Y11800000D01*
G75*
G02*
X13006500Y12250000I0J450000D01*
G01*
G37*
%TD*%
%TO.C,REF\u002A\u002A*%
G36*
G01*
X10466500Y12250000D02*
X10466500Y13150000D01*
G75*
G02*
X10916500Y13600000I450000J0D01*
G01*
X11816500Y13600000D01*
G75*
G02*
X12266500Y13150000I0J-450000D01*
G01*
X12266500Y12250000D01*
G75*
G02*
X11816500Y11800000I-450000J0D01*
G01*
X10916500Y11800000D01*
G75*
G02*
X10466500Y12250000I0J450000D01*
G01*
G37*
%TD*%
%TO.C,REF\u002A\u002A*%
G36*
G01*
X7926500Y12250000D02*
X7926500Y13150000D01*
G75*
G02*
X8376500Y13600000I450000J0D01*
G01*
X9276500Y13600000D01*
G75*
G02*
X9726500Y13150000I0J-450000D01*
G01*
X9726500Y12250000D01*
G75*
G02*
X9276500Y11800000I-450000J0D01*
G01*
X8376500Y11800000D01*
G75*
G02*
X7926500Y12250000I0J450000D01*
G01*
G37*
%TD*%
%TO.C,REF\u002A\u002A*%
G36*
G01*
X5386500Y12250000D02*
X5386500Y13150000D01*
G75*
G02*
X5836500Y13600000I450000J0D01*
G01*
X6736500Y13600000D01*
G75*
G02*
X7186500Y13150000I0J-450000D01*
G01*
X7186500Y12250000D01*
G75*
G02*
X6736500Y11800000I-450000J0D01*
G01*
X5836500Y11800000D01*
G75*
G02*
X5386500Y12250000I0J450000D01*
G01*
G37*
%TD*%
%TO.C,REF\u002A\u002A*%
G36*
G01*
X76506500Y14790000D02*
X76506500Y15690000D01*
G75*
G02*
X76956500Y16140000I450000J0D01*
G01*
X77856500Y16140000D01*
G75*
G02*
X78306500Y15690000I0J-450000D01*
G01*
X78306500Y14790000D01*
G75*
G02*
X77856500Y14340000I-450000J0D01*
G01*
X76956500Y14340000D01*
G75*
G02*
X76506500Y14790000I0J450000D01*
G01*
G37*
%TD*%
%TO.C,REF\u002A\u002A*%
G36*
G01*
X73966500Y14790000D02*
X73966500Y15690000D01*
G75*
G02*
X74416500Y16140000I450000J0D01*
G01*
X75316500Y16140000D01*
G75*
G02*
X75766500Y15690000I0J-450000D01*
G01*
X75766500Y14790000D01*
G75*
G02*
X75316500Y14340000I-450000J0D01*
G01*
X74416500Y14340000D01*
G75*
G02*
X73966500Y14790000I0J450000D01*
G01*
G37*
%TD*%
%TO.C,REF\u002A\u002A*%
G36*
G01*
X71426500Y14790000D02*
X71426500Y15690000D01*
G75*
G02*
X71876500Y16140000I450000J0D01*
G01*
X72776500Y16140000D01*
G75*
G02*
X73226500Y15690000I0J-450000D01*
G01*
X73226500Y14790000D01*
G75*
G02*
X72776500Y14340000I-450000J0D01*
G01*
X71876500Y14340000D01*
G75*
G02*
X71426500Y14790000I0J450000D01*
G01*
G37*
%TD*%
%TO.C,REF\u002A\u002A*%
G36*
G01*
X68886500Y14790000D02*
X68886500Y15690000D01*
G75*
G02*
X69336500Y16140000I450000J0D01*
G01*
X70236500Y16140000D01*
G75*
G02*
X70686500Y15690000I0J-450000D01*
G01*
X70686500Y14790000D01*
G75*
G02*
X70236500Y14340000I-450000J0D01*
G01*
X69336500Y14340000D01*
G75*
G02*
X68886500Y14790000I0J450000D01*
G01*
G37*
%TD*%
%TO.C,REF\u002A\u002A*%
G36*
G01*
X66346500Y14790000D02*
X66346500Y15690000D01*
G75*
G02*
X66796500Y16140000I450000J0D01*
G01*
X67696500Y16140000D01*
G75*
G02*
X68146500Y15690000I0J-450000D01*
G01*
X68146500Y14790000D01*
G75*
G02*
X67696500Y14340000I-450000J0D01*
G01*
X66796500Y14340000D01*
G75*
G02*
X66346500Y14790000I0J450000D01*
G01*
G37*
%TD*%
%TO.C,REF\u002A\u002A*%
G36*
G01*
X63806500Y14790000D02*
X63806500Y15690000D01*
G75*
G02*
X64256500Y16140000I450000J0D01*
G01*
X65156500Y16140000D01*
G75*
G02*
X65606500Y15690000I0J-450000D01*
G01*
X65606500Y14790000D01*
G75*
G02*
X65156500Y14340000I-450000J0D01*
G01*
X64256500Y14340000D01*
G75*
G02*
X63806500Y14790000I0J450000D01*
G01*
G37*
%TD*%
%TO.C,REF\u002A\u002A*%
G36*
G01*
X61266500Y14790000D02*
X61266500Y15690000D01*
G75*
G02*
X61716500Y16140000I450000J0D01*
G01*
X62616500Y16140000D01*
G75*
G02*
X63066500Y15690000I0J-450000D01*
G01*
X63066500Y14790000D01*
G75*
G02*
X62616500Y14340000I-450000J0D01*
G01*
X61716500Y14340000D01*
G75*
G02*
X61266500Y14790000I0J450000D01*
G01*
G37*
%TD*%
%TO.C,REF\u002A\u002A*%
G36*
G01*
X58726500Y14790000D02*
X58726500Y15690000D01*
G75*
G02*
X59176500Y16140000I450000J0D01*
G01*
X60076500Y16140000D01*
G75*
G02*
X60526500Y15690000I0J-450000D01*
G01*
X60526500Y14790000D01*
G75*
G02*
X60076500Y14340000I-450000J0D01*
G01*
X59176500Y14340000D01*
G75*
G02*
X58726500Y14790000I0J450000D01*
G01*
G37*
%TD*%
%TO.C,REF\u002A\u002A*%
G36*
G01*
X56186500Y14790000D02*
X56186500Y15690000D01*
G75*
G02*
X56636500Y16140000I450000J0D01*
G01*
X57536500Y16140000D01*
G75*
G02*
X57986500Y15690000I0J-450000D01*
G01*
X57986500Y14790000D01*
G75*
G02*
X57536500Y14340000I-450000J0D01*
G01*
X56636500Y14340000D01*
G75*
G02*
X56186500Y14790000I0J450000D01*
G01*
G37*
%TD*%
%TO.C,REF\u002A\u002A*%
G36*
G01*
X53646500Y14790000D02*
X53646500Y15690000D01*
G75*
G02*
X54096500Y16140000I450000J0D01*
G01*
X54996500Y16140000D01*
G75*
G02*
X55446500Y15690000I0J-450000D01*
G01*
X55446500Y14790000D01*
G75*
G02*
X54996500Y14340000I-450000J0D01*
G01*
X54096500Y14340000D01*
G75*
G02*
X53646500Y14790000I0J450000D01*
G01*
G37*
%TD*%
%TO.C,REF\u002A\u002A*%
G36*
G01*
X51106500Y14790000D02*
X51106500Y15690000D01*
G75*
G02*
X51556500Y16140000I450000J0D01*
G01*
X52456500Y16140000D01*
G75*
G02*
X52906500Y15690000I0J-450000D01*
G01*
X52906500Y14790000D01*
G75*
G02*
X52456500Y14340000I-450000J0D01*
G01*
X51556500Y14340000D01*
G75*
G02*
X51106500Y14790000I0J450000D01*
G01*
G37*
%TD*%
%TO.C,REF\u002A\u002A*%
G36*
G01*
X48566500Y14790000D02*
X48566500Y15690000D01*
G75*
G02*
X49016500Y16140000I450000J0D01*
G01*
X49916500Y16140000D01*
G75*
G02*
X50366500Y15690000I0J-450000D01*
G01*
X50366500Y14790000D01*
G75*
G02*
X49916500Y14340000I-450000J0D01*
G01*
X49016500Y14340000D01*
G75*
G02*
X48566500Y14790000I0J450000D01*
G01*
G37*
%TD*%
%TO.C,REF\u002A\u002A*%
G36*
G01*
X46026500Y14790000D02*
X46026500Y15690000D01*
G75*
G02*
X46476500Y16140000I450000J0D01*
G01*
X47376500Y16140000D01*
G75*
G02*
X47826500Y15690000I0J-450000D01*
G01*
X47826500Y14790000D01*
G75*
G02*
X47376500Y14340000I-450000J0D01*
G01*
X46476500Y14340000D01*
G75*
G02*
X46026500Y14790000I0J450000D01*
G01*
G37*
%TD*%
%TO.C,REF\u002A\u002A*%
G36*
G01*
X43486500Y14790000D02*
X43486500Y15690000D01*
G75*
G02*
X43936500Y16140000I450000J0D01*
G01*
X44836500Y16140000D01*
G75*
G02*
X45286500Y15690000I0J-450000D01*
G01*
X45286500Y14790000D01*
G75*
G02*
X44836500Y14340000I-450000J0D01*
G01*
X43936500Y14340000D01*
G75*
G02*
X43486500Y14790000I0J450000D01*
G01*
G37*
%TD*%
%TO.C,REF\u002A\u002A*%
G36*
G01*
X40946500Y14790000D02*
X40946500Y15690000D01*
G75*
G02*
X41396500Y16140000I450000J0D01*
G01*
X42296500Y16140000D01*
G75*
G02*
X42746500Y15690000I0J-450000D01*
G01*
X42746500Y14790000D01*
G75*
G02*
X42296500Y14340000I-450000J0D01*
G01*
X41396500Y14340000D01*
G75*
G02*
X40946500Y14790000I0J450000D01*
G01*
G37*
%TD*%
%TO.C,REF\u002A\u002A*%
G36*
G01*
X38406500Y14790000D02*
X38406500Y15690000D01*
G75*
G02*
X38856500Y16140000I450000J0D01*
G01*
X39756500Y16140000D01*
G75*
G02*
X40206500Y15690000I0J-450000D01*
G01*
X40206500Y14790000D01*
G75*
G02*
X39756500Y14340000I-450000J0D01*
G01*
X38856500Y14340000D01*
G75*
G02*
X38406500Y14790000I0J450000D01*
G01*
G37*
%TD*%
%TO.C,REF\u002A\u002A*%
G36*
G01*
X35866500Y14790000D02*
X35866500Y15690000D01*
G75*
G02*
X36316500Y16140000I450000J0D01*
G01*
X37216500Y16140000D01*
G75*
G02*
X37666500Y15690000I0J-450000D01*
G01*
X37666500Y14790000D01*
G75*
G02*
X37216500Y14340000I-450000J0D01*
G01*
X36316500Y14340000D01*
G75*
G02*
X35866500Y14790000I0J450000D01*
G01*
G37*
%TD*%
%TO.C,REF\u002A\u002A*%
G36*
G01*
X33326500Y14790000D02*
X33326500Y15690000D01*
G75*
G02*
X33776500Y16140000I450000J0D01*
G01*
X34676500Y16140000D01*
G75*
G02*
X35126500Y15690000I0J-450000D01*
G01*
X35126500Y14790000D01*
G75*
G02*
X34676500Y14340000I-450000J0D01*
G01*
X33776500Y14340000D01*
G75*
G02*
X33326500Y14790000I0J450000D01*
G01*
G37*
%TD*%
%TO.C,REF\u002A\u002A*%
G36*
G01*
X30786500Y14790000D02*
X30786500Y15690000D01*
G75*
G02*
X31236500Y16140000I450000J0D01*
G01*
X32136500Y16140000D01*
G75*
G02*
X32586500Y15690000I0J-450000D01*
G01*
X32586500Y14790000D01*
G75*
G02*
X32136500Y14340000I-450000J0D01*
G01*
X31236500Y14340000D01*
G75*
G02*
X30786500Y14790000I0J450000D01*
G01*
G37*
%TD*%
%TO.C,REF\u002A\u002A*%
G36*
G01*
X28246500Y14790000D02*
X28246500Y15690000D01*
G75*
G02*
X28696500Y16140000I450000J0D01*
G01*
X29596500Y16140000D01*
G75*
G02*
X30046500Y15690000I0J-450000D01*
G01*
X30046500Y14790000D01*
G75*
G02*
X29596500Y14340000I-450000J0D01*
G01*
X28696500Y14340000D01*
G75*
G02*
X28246500Y14790000I0J450000D01*
G01*
G37*
%TD*%
%TO.C,REF\u002A\u002A*%
G36*
G01*
X25706500Y14790000D02*
X25706500Y15690000D01*
G75*
G02*
X26156500Y16140000I450000J0D01*
G01*
X27056500Y16140000D01*
G75*
G02*
X27506500Y15690000I0J-450000D01*
G01*
X27506500Y14790000D01*
G75*
G02*
X27056500Y14340000I-450000J0D01*
G01*
X26156500Y14340000D01*
G75*
G02*
X25706500Y14790000I0J450000D01*
G01*
G37*
%TD*%
%TO.C,REF\u002A\u002A*%
G36*
G01*
X23166500Y14790000D02*
X23166500Y15690000D01*
G75*
G02*
X23616500Y16140000I450000J0D01*
G01*
X24516500Y16140000D01*
G75*
G02*
X24966500Y15690000I0J-450000D01*
G01*
X24966500Y14790000D01*
G75*
G02*
X24516500Y14340000I-450000J0D01*
G01*
X23616500Y14340000D01*
G75*
G02*
X23166500Y14790000I0J450000D01*
G01*
G37*
%TD*%
%TO.C,REF\u002A\u002A*%
G36*
G01*
X20626500Y14790000D02*
X20626500Y15690000D01*
G75*
G02*
X21076500Y16140000I450000J0D01*
G01*
X21976500Y16140000D01*
G75*
G02*
X22426500Y15690000I0J-450000D01*
G01*
X22426500Y14790000D01*
G75*
G02*
X21976500Y14340000I-450000J0D01*
G01*
X21076500Y14340000D01*
G75*
G02*
X20626500Y14790000I0J450000D01*
G01*
G37*
%TD*%
%TO.C,REF\u002A\u002A*%
G36*
G01*
X18086500Y14790000D02*
X18086500Y15690000D01*
G75*
G02*
X18536500Y16140000I450000J0D01*
G01*
X19436500Y16140000D01*
G75*
G02*
X19886500Y15690000I0J-450000D01*
G01*
X19886500Y14790000D01*
G75*
G02*
X19436500Y14340000I-450000J0D01*
G01*
X18536500Y14340000D01*
G75*
G02*
X18086500Y14790000I0J450000D01*
G01*
G37*
%TD*%
%TO.C,REF\u002A\u002A*%
G36*
G01*
X15546500Y14790000D02*
X15546500Y15690000D01*
G75*
G02*
X15996500Y16140000I450000J0D01*
G01*
X16896500Y16140000D01*
G75*
G02*
X17346500Y15690000I0J-450000D01*
G01*
X17346500Y14790000D01*
G75*
G02*
X16896500Y14340000I-450000J0D01*
G01*
X15996500Y14340000D01*
G75*
G02*
X15546500Y14790000I0J450000D01*
G01*
G37*
%TD*%
%TO.C,REF\u002A\u002A*%
G36*
G01*
X13006500Y14790000D02*
X13006500Y15690000D01*
G75*
G02*
X13456500Y16140000I450000J0D01*
G01*
X14356500Y16140000D01*
G75*
G02*
X14806500Y15690000I0J-450000D01*
G01*
X14806500Y14790000D01*
G75*
G02*
X14356500Y14340000I-450000J0D01*
G01*
X13456500Y14340000D01*
G75*
G02*
X13006500Y14790000I0J450000D01*
G01*
G37*
%TD*%
%TO.C,REF\u002A\u002A*%
G36*
G01*
X10466500Y14790000D02*
X10466500Y15690000D01*
G75*
G02*
X10916500Y16140000I450000J0D01*
G01*
X11816500Y16140000D01*
G75*
G02*
X12266500Y15690000I0J-450000D01*
G01*
X12266500Y14790000D01*
G75*
G02*
X11816500Y14340000I-450000J0D01*
G01*
X10916500Y14340000D01*
G75*
G02*
X10466500Y14790000I0J450000D01*
G01*
G37*
%TD*%
%TO.C,REF\u002A\u002A*%
G36*
G01*
X7926500Y14790000D02*
X7926500Y15690000D01*
G75*
G02*
X8376500Y16140000I450000J0D01*
G01*
X9276500Y16140000D01*
G75*
G02*
X9726500Y15690000I0J-450000D01*
G01*
X9726500Y14790000D01*
G75*
G02*
X9276500Y14340000I-450000J0D01*
G01*
X8376500Y14340000D01*
G75*
G02*
X7926500Y14790000I0J450000D01*
G01*
G37*
%TD*%
%TO.C,REF\u002A\u002A*%
G36*
G01*
X5386500Y14790000D02*
X5386500Y15690000D01*
G75*
G02*
X5836500Y16140000I450000J0D01*
G01*
X6736500Y16140000D01*
G75*
G02*
X7186500Y15690000I0J-450000D01*
G01*
X7186500Y14790000D01*
G75*
G02*
X6736500Y14340000I-450000J0D01*
G01*
X5836500Y14340000D01*
G75*
G02*
X5386500Y14790000I0J450000D01*
G01*
G37*
%TD*%
%TO.C,REF\u002A\u002A*%
G36*
G01*
X2846500Y14790000D02*
X2846500Y15690000D01*
G75*
G02*
X3296500Y16140000I450000J0D01*
G01*
X4196500Y16140000D01*
G75*
G02*
X4646500Y15690000I0J-450000D01*
G01*
X4646500Y14790000D01*
G75*
G02*
X4196500Y14340000I-450000J0D01*
G01*
X3296500Y14340000D01*
G75*
G02*
X2846500Y14790000I0J450000D01*
G01*
G37*
%TD*%
%TO.C,REF\u002A\u002A*%
G36*
G01*
X76506500Y17330000D02*
X76506500Y18230000D01*
G75*
G02*
X76956500Y18680000I450000J0D01*
G01*
X77856500Y18680000D01*
G75*
G02*
X78306500Y18230000I0J-450000D01*
G01*
X78306500Y17330000D01*
G75*
G02*
X77856500Y16880000I-450000J0D01*
G01*
X76956500Y16880000D01*
G75*
G02*
X76506500Y17330000I0J450000D01*
G01*
G37*
%TD*%
%TO.C,REF\u002A\u002A*%
G36*
G01*
X73966500Y17330000D02*
X73966500Y18230000D01*
G75*
G02*
X74416500Y18680000I450000J0D01*
G01*
X75316500Y18680000D01*
G75*
G02*
X75766500Y18230000I0J-450000D01*
G01*
X75766500Y17330000D01*
G75*
G02*
X75316500Y16880000I-450000J0D01*
G01*
X74416500Y16880000D01*
G75*
G02*
X73966500Y17330000I0J450000D01*
G01*
G37*
%TD*%
%TO.C,REF\u002A\u002A*%
G36*
G01*
X71426500Y17330000D02*
X71426500Y18230000D01*
G75*
G02*
X71876500Y18680000I450000J0D01*
G01*
X72776500Y18680000D01*
G75*
G02*
X73226500Y18230000I0J-450000D01*
G01*
X73226500Y17330000D01*
G75*
G02*
X72776500Y16880000I-450000J0D01*
G01*
X71876500Y16880000D01*
G75*
G02*
X71426500Y17330000I0J450000D01*
G01*
G37*
%TD*%
%TO.C,REF\u002A\u002A*%
G36*
G01*
X68886500Y17330000D02*
X68886500Y18230000D01*
G75*
G02*
X69336500Y18680000I450000J0D01*
G01*
X70236500Y18680000D01*
G75*
G02*
X70686500Y18230000I0J-450000D01*
G01*
X70686500Y17330000D01*
G75*
G02*
X70236500Y16880000I-450000J0D01*
G01*
X69336500Y16880000D01*
G75*
G02*
X68886500Y17330000I0J450000D01*
G01*
G37*
%TD*%
%TO.C,REF\u002A\u002A*%
G36*
G01*
X66346500Y17330000D02*
X66346500Y18230000D01*
G75*
G02*
X66796500Y18680000I450000J0D01*
G01*
X67696500Y18680000D01*
G75*
G02*
X68146500Y18230000I0J-450000D01*
G01*
X68146500Y17330000D01*
G75*
G02*
X67696500Y16880000I-450000J0D01*
G01*
X66796500Y16880000D01*
G75*
G02*
X66346500Y17330000I0J450000D01*
G01*
G37*
%TD*%
%TO.C,REF\u002A\u002A*%
G36*
G01*
X63806500Y17330000D02*
X63806500Y18230000D01*
G75*
G02*
X64256500Y18680000I450000J0D01*
G01*
X65156500Y18680000D01*
G75*
G02*
X65606500Y18230000I0J-450000D01*
G01*
X65606500Y17330000D01*
G75*
G02*
X65156500Y16880000I-450000J0D01*
G01*
X64256500Y16880000D01*
G75*
G02*
X63806500Y17330000I0J450000D01*
G01*
G37*
%TD*%
%TO.C,REF\u002A\u002A*%
G36*
G01*
X61266500Y17330000D02*
X61266500Y18230000D01*
G75*
G02*
X61716500Y18680000I450000J0D01*
G01*
X62616500Y18680000D01*
G75*
G02*
X63066500Y18230000I0J-450000D01*
G01*
X63066500Y17330000D01*
G75*
G02*
X62616500Y16880000I-450000J0D01*
G01*
X61716500Y16880000D01*
G75*
G02*
X61266500Y17330000I0J450000D01*
G01*
G37*
%TD*%
%TO.C,REF\u002A\u002A*%
G36*
G01*
X58726500Y17330000D02*
X58726500Y18230000D01*
G75*
G02*
X59176500Y18680000I450000J0D01*
G01*
X60076500Y18680000D01*
G75*
G02*
X60526500Y18230000I0J-450000D01*
G01*
X60526500Y17330000D01*
G75*
G02*
X60076500Y16880000I-450000J0D01*
G01*
X59176500Y16880000D01*
G75*
G02*
X58726500Y17330000I0J450000D01*
G01*
G37*
%TD*%
%TO.C,REF\u002A\u002A*%
G36*
G01*
X56186500Y17330000D02*
X56186500Y18230000D01*
G75*
G02*
X56636500Y18680000I450000J0D01*
G01*
X57536500Y18680000D01*
G75*
G02*
X57986500Y18230000I0J-450000D01*
G01*
X57986500Y17330000D01*
G75*
G02*
X57536500Y16880000I-450000J0D01*
G01*
X56636500Y16880000D01*
G75*
G02*
X56186500Y17330000I0J450000D01*
G01*
G37*
%TD*%
%TO.C,REF\u002A\u002A*%
G36*
G01*
X53646500Y17330000D02*
X53646500Y18230000D01*
G75*
G02*
X54096500Y18680000I450000J0D01*
G01*
X54996500Y18680000D01*
G75*
G02*
X55446500Y18230000I0J-450000D01*
G01*
X55446500Y17330000D01*
G75*
G02*
X54996500Y16880000I-450000J0D01*
G01*
X54096500Y16880000D01*
G75*
G02*
X53646500Y17330000I0J450000D01*
G01*
G37*
%TD*%
%TO.C,REF\u002A\u002A*%
G36*
G01*
X51106500Y17330000D02*
X51106500Y18230000D01*
G75*
G02*
X51556500Y18680000I450000J0D01*
G01*
X52456500Y18680000D01*
G75*
G02*
X52906500Y18230000I0J-450000D01*
G01*
X52906500Y17330000D01*
G75*
G02*
X52456500Y16880000I-450000J0D01*
G01*
X51556500Y16880000D01*
G75*
G02*
X51106500Y17330000I0J450000D01*
G01*
G37*
%TD*%
%TO.C,REF\u002A\u002A*%
G36*
G01*
X48566500Y17330000D02*
X48566500Y18230000D01*
G75*
G02*
X49016500Y18680000I450000J0D01*
G01*
X49916500Y18680000D01*
G75*
G02*
X50366500Y18230000I0J-450000D01*
G01*
X50366500Y17330000D01*
G75*
G02*
X49916500Y16880000I-450000J0D01*
G01*
X49016500Y16880000D01*
G75*
G02*
X48566500Y17330000I0J450000D01*
G01*
G37*
%TD*%
%TO.C,REF\u002A\u002A*%
G36*
G01*
X46026500Y17330000D02*
X46026500Y18230000D01*
G75*
G02*
X46476500Y18680000I450000J0D01*
G01*
X47376500Y18680000D01*
G75*
G02*
X47826500Y18230000I0J-450000D01*
G01*
X47826500Y17330000D01*
G75*
G02*
X47376500Y16880000I-450000J0D01*
G01*
X46476500Y16880000D01*
G75*
G02*
X46026500Y17330000I0J450000D01*
G01*
G37*
%TD*%
%TO.C,REF\u002A\u002A*%
G36*
G01*
X43486500Y17330000D02*
X43486500Y18230000D01*
G75*
G02*
X43936500Y18680000I450000J0D01*
G01*
X44836500Y18680000D01*
G75*
G02*
X45286500Y18230000I0J-450000D01*
G01*
X45286500Y17330000D01*
G75*
G02*
X44836500Y16880000I-450000J0D01*
G01*
X43936500Y16880000D01*
G75*
G02*
X43486500Y17330000I0J450000D01*
G01*
G37*
%TD*%
%TO.C,REF\u002A\u002A*%
G36*
G01*
X40946500Y17330000D02*
X40946500Y18230000D01*
G75*
G02*
X41396500Y18680000I450000J0D01*
G01*
X42296500Y18680000D01*
G75*
G02*
X42746500Y18230000I0J-450000D01*
G01*
X42746500Y17330000D01*
G75*
G02*
X42296500Y16880000I-450000J0D01*
G01*
X41396500Y16880000D01*
G75*
G02*
X40946500Y17330000I0J450000D01*
G01*
G37*
%TD*%
%TO.C,REF\u002A\u002A*%
G36*
G01*
X38406500Y17330000D02*
X38406500Y18230000D01*
G75*
G02*
X38856500Y18680000I450000J0D01*
G01*
X39756500Y18680000D01*
G75*
G02*
X40206500Y18230000I0J-450000D01*
G01*
X40206500Y17330000D01*
G75*
G02*
X39756500Y16880000I-450000J0D01*
G01*
X38856500Y16880000D01*
G75*
G02*
X38406500Y17330000I0J450000D01*
G01*
G37*
%TD*%
%TO.C,REF\u002A\u002A*%
G36*
G01*
X35866500Y17330000D02*
X35866500Y18230000D01*
G75*
G02*
X36316500Y18680000I450000J0D01*
G01*
X37216500Y18680000D01*
G75*
G02*
X37666500Y18230000I0J-450000D01*
G01*
X37666500Y17330000D01*
G75*
G02*
X37216500Y16880000I-450000J0D01*
G01*
X36316500Y16880000D01*
G75*
G02*
X35866500Y17330000I0J450000D01*
G01*
G37*
%TD*%
%TO.C,REF\u002A\u002A*%
G36*
G01*
X33326500Y17330000D02*
X33326500Y18230000D01*
G75*
G02*
X33776500Y18680000I450000J0D01*
G01*
X34676500Y18680000D01*
G75*
G02*
X35126500Y18230000I0J-450000D01*
G01*
X35126500Y17330000D01*
G75*
G02*
X34676500Y16880000I-450000J0D01*
G01*
X33776500Y16880000D01*
G75*
G02*
X33326500Y17330000I0J450000D01*
G01*
G37*
%TD*%
%TO.C,REF\u002A\u002A*%
G36*
G01*
X30786500Y17330000D02*
X30786500Y18230000D01*
G75*
G02*
X31236500Y18680000I450000J0D01*
G01*
X32136500Y18680000D01*
G75*
G02*
X32586500Y18230000I0J-450000D01*
G01*
X32586500Y17330000D01*
G75*
G02*
X32136500Y16880000I-450000J0D01*
G01*
X31236500Y16880000D01*
G75*
G02*
X30786500Y17330000I0J450000D01*
G01*
G37*
%TD*%
%TO.C,REF\u002A\u002A*%
G36*
G01*
X28246500Y17330000D02*
X28246500Y18230000D01*
G75*
G02*
X28696500Y18680000I450000J0D01*
G01*
X29596500Y18680000D01*
G75*
G02*
X30046500Y18230000I0J-450000D01*
G01*
X30046500Y17330000D01*
G75*
G02*
X29596500Y16880000I-450000J0D01*
G01*
X28696500Y16880000D01*
G75*
G02*
X28246500Y17330000I0J450000D01*
G01*
G37*
%TD*%
%TO.C,REF\u002A\u002A*%
G36*
G01*
X25706500Y17330000D02*
X25706500Y18230000D01*
G75*
G02*
X26156500Y18680000I450000J0D01*
G01*
X27056500Y18680000D01*
G75*
G02*
X27506500Y18230000I0J-450000D01*
G01*
X27506500Y17330000D01*
G75*
G02*
X27056500Y16880000I-450000J0D01*
G01*
X26156500Y16880000D01*
G75*
G02*
X25706500Y17330000I0J450000D01*
G01*
G37*
%TD*%
%TO.C,REF\u002A\u002A*%
G36*
G01*
X23166500Y17330000D02*
X23166500Y18230000D01*
G75*
G02*
X23616500Y18680000I450000J0D01*
G01*
X24516500Y18680000D01*
G75*
G02*
X24966500Y18230000I0J-450000D01*
G01*
X24966500Y17330000D01*
G75*
G02*
X24516500Y16880000I-450000J0D01*
G01*
X23616500Y16880000D01*
G75*
G02*
X23166500Y17330000I0J450000D01*
G01*
G37*
%TD*%
%TO.C,REF\u002A\u002A*%
G36*
G01*
X20626500Y17330000D02*
X20626500Y18230000D01*
G75*
G02*
X21076500Y18680000I450000J0D01*
G01*
X21976500Y18680000D01*
G75*
G02*
X22426500Y18230000I0J-450000D01*
G01*
X22426500Y17330000D01*
G75*
G02*
X21976500Y16880000I-450000J0D01*
G01*
X21076500Y16880000D01*
G75*
G02*
X20626500Y17330000I0J450000D01*
G01*
G37*
%TD*%
%TO.C,REF\u002A\u002A*%
G36*
G01*
X18086500Y17330000D02*
X18086500Y18230000D01*
G75*
G02*
X18536500Y18680000I450000J0D01*
G01*
X19436500Y18680000D01*
G75*
G02*
X19886500Y18230000I0J-450000D01*
G01*
X19886500Y17330000D01*
G75*
G02*
X19436500Y16880000I-450000J0D01*
G01*
X18536500Y16880000D01*
G75*
G02*
X18086500Y17330000I0J450000D01*
G01*
G37*
%TD*%
%TO.C,REF\u002A\u002A*%
G36*
G01*
X15546500Y17330000D02*
X15546500Y18230000D01*
G75*
G02*
X15996500Y18680000I450000J0D01*
G01*
X16896500Y18680000D01*
G75*
G02*
X17346500Y18230000I0J-450000D01*
G01*
X17346500Y17330000D01*
G75*
G02*
X16896500Y16880000I-450000J0D01*
G01*
X15996500Y16880000D01*
G75*
G02*
X15546500Y17330000I0J450000D01*
G01*
G37*
%TD*%
%TO.C,REF\u002A\u002A*%
G36*
G01*
X13006500Y17330000D02*
X13006500Y18230000D01*
G75*
G02*
X13456500Y18680000I450000J0D01*
G01*
X14356500Y18680000D01*
G75*
G02*
X14806500Y18230000I0J-450000D01*
G01*
X14806500Y17330000D01*
G75*
G02*
X14356500Y16880000I-450000J0D01*
G01*
X13456500Y16880000D01*
G75*
G02*
X13006500Y17330000I0J450000D01*
G01*
G37*
%TD*%
%TO.C,REF\u002A\u002A*%
G36*
G01*
X10466500Y17330000D02*
X10466500Y18230000D01*
G75*
G02*
X10916500Y18680000I450000J0D01*
G01*
X11816500Y18680000D01*
G75*
G02*
X12266500Y18230000I0J-450000D01*
G01*
X12266500Y17330000D01*
G75*
G02*
X11816500Y16880000I-450000J0D01*
G01*
X10916500Y16880000D01*
G75*
G02*
X10466500Y17330000I0J450000D01*
G01*
G37*
%TD*%
%TO.C,REF\u002A\u002A*%
G36*
G01*
X7926500Y17330000D02*
X7926500Y18230000D01*
G75*
G02*
X8376500Y18680000I450000J0D01*
G01*
X9276500Y18680000D01*
G75*
G02*
X9726500Y18230000I0J-450000D01*
G01*
X9726500Y17330000D01*
G75*
G02*
X9276500Y16880000I-450000J0D01*
G01*
X8376500Y16880000D01*
G75*
G02*
X7926500Y17330000I0J450000D01*
G01*
G37*
%TD*%
%TO.C,REF\u002A\u002A*%
G36*
G01*
X5386500Y17330000D02*
X5386500Y18230000D01*
G75*
G02*
X5836500Y18680000I450000J0D01*
G01*
X6736500Y18680000D01*
G75*
G02*
X7186500Y18230000I0J-450000D01*
G01*
X7186500Y17330000D01*
G75*
G02*
X6736500Y16880000I-450000J0D01*
G01*
X5836500Y16880000D01*
G75*
G02*
X5386500Y17330000I0J450000D01*
G01*
G37*
%TD*%
%TO.C,REF\u002A\u002A*%
G36*
G01*
X2846500Y17330000D02*
X2846500Y18230000D01*
G75*
G02*
X3296500Y18680000I450000J0D01*
G01*
X4196500Y18680000D01*
G75*
G02*
X4646500Y18230000I0J-450000D01*
G01*
X4646500Y17330000D01*
G75*
G02*
X4196500Y16880000I-450000J0D01*
G01*
X3296500Y16880000D01*
G75*
G02*
X2846500Y17330000I0J450000D01*
G01*
G37*
%TD*%
%TO.C,REF\u002A\u002A*%
G36*
G01*
X76506500Y19870000D02*
X76506500Y20770000D01*
G75*
G02*
X76956500Y21220000I450000J0D01*
G01*
X77856500Y21220000D01*
G75*
G02*
X78306500Y20770000I0J-450000D01*
G01*
X78306500Y19870000D01*
G75*
G02*
X77856500Y19420000I-450000J0D01*
G01*
X76956500Y19420000D01*
G75*
G02*
X76506500Y19870000I0J450000D01*
G01*
G37*
%TD*%
%TO.C,REF\u002A\u002A*%
G36*
G01*
X73966500Y19870000D02*
X73966500Y20770000D01*
G75*
G02*
X74416500Y21220000I450000J0D01*
G01*
X75316500Y21220000D01*
G75*
G02*
X75766500Y20770000I0J-450000D01*
G01*
X75766500Y19870000D01*
G75*
G02*
X75316500Y19420000I-450000J0D01*
G01*
X74416500Y19420000D01*
G75*
G02*
X73966500Y19870000I0J450000D01*
G01*
G37*
%TD*%
%TO.C,REF\u002A\u002A*%
G36*
G01*
X71426500Y19870000D02*
X71426500Y20770000D01*
G75*
G02*
X71876500Y21220000I450000J0D01*
G01*
X72776500Y21220000D01*
G75*
G02*
X73226500Y20770000I0J-450000D01*
G01*
X73226500Y19870000D01*
G75*
G02*
X72776500Y19420000I-450000J0D01*
G01*
X71876500Y19420000D01*
G75*
G02*
X71426500Y19870000I0J450000D01*
G01*
G37*
%TD*%
%TO.C,REF\u002A\u002A*%
G36*
G01*
X68886500Y19870000D02*
X68886500Y20770000D01*
G75*
G02*
X69336500Y21220000I450000J0D01*
G01*
X70236500Y21220000D01*
G75*
G02*
X70686500Y20770000I0J-450000D01*
G01*
X70686500Y19870000D01*
G75*
G02*
X70236500Y19420000I-450000J0D01*
G01*
X69336500Y19420000D01*
G75*
G02*
X68886500Y19870000I0J450000D01*
G01*
G37*
%TD*%
%TO.C,REF\u002A\u002A*%
G36*
G01*
X66346500Y19870000D02*
X66346500Y20770000D01*
G75*
G02*
X66796500Y21220000I450000J0D01*
G01*
X67696500Y21220000D01*
G75*
G02*
X68146500Y20770000I0J-450000D01*
G01*
X68146500Y19870000D01*
G75*
G02*
X67696500Y19420000I-450000J0D01*
G01*
X66796500Y19420000D01*
G75*
G02*
X66346500Y19870000I0J450000D01*
G01*
G37*
%TD*%
%TO.C,REF\u002A\u002A*%
G36*
G01*
X63806500Y19870000D02*
X63806500Y20770000D01*
G75*
G02*
X64256500Y21220000I450000J0D01*
G01*
X65156500Y21220000D01*
G75*
G02*
X65606500Y20770000I0J-450000D01*
G01*
X65606500Y19870000D01*
G75*
G02*
X65156500Y19420000I-450000J0D01*
G01*
X64256500Y19420000D01*
G75*
G02*
X63806500Y19870000I0J450000D01*
G01*
G37*
%TD*%
%TO.C,REF\u002A\u002A*%
G36*
G01*
X61266500Y19870000D02*
X61266500Y20770000D01*
G75*
G02*
X61716500Y21220000I450000J0D01*
G01*
X62616500Y21220000D01*
G75*
G02*
X63066500Y20770000I0J-450000D01*
G01*
X63066500Y19870000D01*
G75*
G02*
X62616500Y19420000I-450000J0D01*
G01*
X61716500Y19420000D01*
G75*
G02*
X61266500Y19870000I0J450000D01*
G01*
G37*
%TD*%
%TO.C,REF\u002A\u002A*%
G36*
G01*
X58726500Y19870000D02*
X58726500Y20770000D01*
G75*
G02*
X59176500Y21220000I450000J0D01*
G01*
X60076500Y21220000D01*
G75*
G02*
X60526500Y20770000I0J-450000D01*
G01*
X60526500Y19870000D01*
G75*
G02*
X60076500Y19420000I-450000J0D01*
G01*
X59176500Y19420000D01*
G75*
G02*
X58726500Y19870000I0J450000D01*
G01*
G37*
%TD*%
%TO.C,REF\u002A\u002A*%
G36*
G01*
X56186500Y19870000D02*
X56186500Y20770000D01*
G75*
G02*
X56636500Y21220000I450000J0D01*
G01*
X57536500Y21220000D01*
G75*
G02*
X57986500Y20770000I0J-450000D01*
G01*
X57986500Y19870000D01*
G75*
G02*
X57536500Y19420000I-450000J0D01*
G01*
X56636500Y19420000D01*
G75*
G02*
X56186500Y19870000I0J450000D01*
G01*
G37*
%TD*%
%TO.C,REF\u002A\u002A*%
G36*
G01*
X53646500Y19870000D02*
X53646500Y20770000D01*
G75*
G02*
X54096500Y21220000I450000J0D01*
G01*
X54996500Y21220000D01*
G75*
G02*
X55446500Y20770000I0J-450000D01*
G01*
X55446500Y19870000D01*
G75*
G02*
X54996500Y19420000I-450000J0D01*
G01*
X54096500Y19420000D01*
G75*
G02*
X53646500Y19870000I0J450000D01*
G01*
G37*
%TD*%
%TO.C,REF\u002A\u002A*%
G36*
G01*
X51106500Y19870000D02*
X51106500Y20770000D01*
G75*
G02*
X51556500Y21220000I450000J0D01*
G01*
X52456500Y21220000D01*
G75*
G02*
X52906500Y20770000I0J-450000D01*
G01*
X52906500Y19870000D01*
G75*
G02*
X52456500Y19420000I-450000J0D01*
G01*
X51556500Y19420000D01*
G75*
G02*
X51106500Y19870000I0J450000D01*
G01*
G37*
%TD*%
%TO.C,REF\u002A\u002A*%
G36*
G01*
X48566500Y19870000D02*
X48566500Y20770000D01*
G75*
G02*
X49016500Y21220000I450000J0D01*
G01*
X49916500Y21220000D01*
G75*
G02*
X50366500Y20770000I0J-450000D01*
G01*
X50366500Y19870000D01*
G75*
G02*
X49916500Y19420000I-450000J0D01*
G01*
X49016500Y19420000D01*
G75*
G02*
X48566500Y19870000I0J450000D01*
G01*
G37*
%TD*%
%TO.C,REF\u002A\u002A*%
G36*
G01*
X46026500Y19870000D02*
X46026500Y20770000D01*
G75*
G02*
X46476500Y21220000I450000J0D01*
G01*
X47376500Y21220000D01*
G75*
G02*
X47826500Y20770000I0J-450000D01*
G01*
X47826500Y19870000D01*
G75*
G02*
X47376500Y19420000I-450000J0D01*
G01*
X46476500Y19420000D01*
G75*
G02*
X46026500Y19870000I0J450000D01*
G01*
G37*
%TD*%
%TO.C,REF\u002A\u002A*%
G36*
G01*
X43486500Y19870000D02*
X43486500Y20770000D01*
G75*
G02*
X43936500Y21220000I450000J0D01*
G01*
X44836500Y21220000D01*
G75*
G02*
X45286500Y20770000I0J-450000D01*
G01*
X45286500Y19870000D01*
G75*
G02*
X44836500Y19420000I-450000J0D01*
G01*
X43936500Y19420000D01*
G75*
G02*
X43486500Y19870000I0J450000D01*
G01*
G37*
%TD*%
%TO.C,REF\u002A\u002A*%
G36*
G01*
X40946500Y19870000D02*
X40946500Y20770000D01*
G75*
G02*
X41396500Y21220000I450000J0D01*
G01*
X42296500Y21220000D01*
G75*
G02*
X42746500Y20770000I0J-450000D01*
G01*
X42746500Y19870000D01*
G75*
G02*
X42296500Y19420000I-450000J0D01*
G01*
X41396500Y19420000D01*
G75*
G02*
X40946500Y19870000I0J450000D01*
G01*
G37*
%TD*%
%TO.C,REF\u002A\u002A*%
G36*
G01*
X38406500Y19870000D02*
X38406500Y20770000D01*
G75*
G02*
X38856500Y21220000I450000J0D01*
G01*
X39756500Y21220000D01*
G75*
G02*
X40206500Y20770000I0J-450000D01*
G01*
X40206500Y19870000D01*
G75*
G02*
X39756500Y19420000I-450000J0D01*
G01*
X38856500Y19420000D01*
G75*
G02*
X38406500Y19870000I0J450000D01*
G01*
G37*
%TD*%
%TO.C,REF\u002A\u002A*%
G36*
G01*
X35866500Y19870000D02*
X35866500Y20770000D01*
G75*
G02*
X36316500Y21220000I450000J0D01*
G01*
X37216500Y21220000D01*
G75*
G02*
X37666500Y20770000I0J-450000D01*
G01*
X37666500Y19870000D01*
G75*
G02*
X37216500Y19420000I-450000J0D01*
G01*
X36316500Y19420000D01*
G75*
G02*
X35866500Y19870000I0J450000D01*
G01*
G37*
%TD*%
%TO.C,REF\u002A\u002A*%
G36*
G01*
X33326500Y19870000D02*
X33326500Y20770000D01*
G75*
G02*
X33776500Y21220000I450000J0D01*
G01*
X34676500Y21220000D01*
G75*
G02*
X35126500Y20770000I0J-450000D01*
G01*
X35126500Y19870000D01*
G75*
G02*
X34676500Y19420000I-450000J0D01*
G01*
X33776500Y19420000D01*
G75*
G02*
X33326500Y19870000I0J450000D01*
G01*
G37*
%TD*%
%TO.C,REF\u002A\u002A*%
G36*
G01*
X30786500Y19870000D02*
X30786500Y20770000D01*
G75*
G02*
X31236500Y21220000I450000J0D01*
G01*
X32136500Y21220000D01*
G75*
G02*
X32586500Y20770000I0J-450000D01*
G01*
X32586500Y19870000D01*
G75*
G02*
X32136500Y19420000I-450000J0D01*
G01*
X31236500Y19420000D01*
G75*
G02*
X30786500Y19870000I0J450000D01*
G01*
G37*
%TD*%
%TO.C,REF\u002A\u002A*%
G36*
G01*
X28246500Y19870000D02*
X28246500Y20770000D01*
G75*
G02*
X28696500Y21220000I450000J0D01*
G01*
X29596500Y21220000D01*
G75*
G02*
X30046500Y20770000I0J-450000D01*
G01*
X30046500Y19870000D01*
G75*
G02*
X29596500Y19420000I-450000J0D01*
G01*
X28696500Y19420000D01*
G75*
G02*
X28246500Y19870000I0J450000D01*
G01*
G37*
%TD*%
%TO.C,REF\u002A\u002A*%
G36*
G01*
X25706500Y19870000D02*
X25706500Y20770000D01*
G75*
G02*
X26156500Y21220000I450000J0D01*
G01*
X27056500Y21220000D01*
G75*
G02*
X27506500Y20770000I0J-450000D01*
G01*
X27506500Y19870000D01*
G75*
G02*
X27056500Y19420000I-450000J0D01*
G01*
X26156500Y19420000D01*
G75*
G02*
X25706500Y19870000I0J450000D01*
G01*
G37*
%TD*%
%TO.C,REF\u002A\u002A*%
G36*
G01*
X23166500Y19870000D02*
X23166500Y20770000D01*
G75*
G02*
X23616500Y21220000I450000J0D01*
G01*
X24516500Y21220000D01*
G75*
G02*
X24966500Y20770000I0J-450000D01*
G01*
X24966500Y19870000D01*
G75*
G02*
X24516500Y19420000I-450000J0D01*
G01*
X23616500Y19420000D01*
G75*
G02*
X23166500Y19870000I0J450000D01*
G01*
G37*
%TD*%
%TO.C,REF\u002A\u002A*%
G36*
G01*
X20626500Y19870000D02*
X20626500Y20770000D01*
G75*
G02*
X21076500Y21220000I450000J0D01*
G01*
X21976500Y21220000D01*
G75*
G02*
X22426500Y20770000I0J-450000D01*
G01*
X22426500Y19870000D01*
G75*
G02*
X21976500Y19420000I-450000J0D01*
G01*
X21076500Y19420000D01*
G75*
G02*
X20626500Y19870000I0J450000D01*
G01*
G37*
%TD*%
%TO.C,REF\u002A\u002A*%
G36*
G01*
X18086500Y19870000D02*
X18086500Y20770000D01*
G75*
G02*
X18536500Y21220000I450000J0D01*
G01*
X19436500Y21220000D01*
G75*
G02*
X19886500Y20770000I0J-450000D01*
G01*
X19886500Y19870000D01*
G75*
G02*
X19436500Y19420000I-450000J0D01*
G01*
X18536500Y19420000D01*
G75*
G02*
X18086500Y19870000I0J450000D01*
G01*
G37*
%TD*%
%TO.C,REF\u002A\u002A*%
G36*
G01*
X15546500Y19870000D02*
X15546500Y20770000D01*
G75*
G02*
X15996500Y21220000I450000J0D01*
G01*
X16896500Y21220000D01*
G75*
G02*
X17346500Y20770000I0J-450000D01*
G01*
X17346500Y19870000D01*
G75*
G02*
X16896500Y19420000I-450000J0D01*
G01*
X15996500Y19420000D01*
G75*
G02*
X15546500Y19870000I0J450000D01*
G01*
G37*
%TD*%
%TO.C,REF\u002A\u002A*%
G36*
G01*
X13006500Y19870000D02*
X13006500Y20770000D01*
G75*
G02*
X13456500Y21220000I450000J0D01*
G01*
X14356500Y21220000D01*
G75*
G02*
X14806500Y20770000I0J-450000D01*
G01*
X14806500Y19870000D01*
G75*
G02*
X14356500Y19420000I-450000J0D01*
G01*
X13456500Y19420000D01*
G75*
G02*
X13006500Y19870000I0J450000D01*
G01*
G37*
%TD*%
%TO.C,REF\u002A\u002A*%
G36*
G01*
X10466500Y19870000D02*
X10466500Y20770000D01*
G75*
G02*
X10916500Y21220000I450000J0D01*
G01*
X11816500Y21220000D01*
G75*
G02*
X12266500Y20770000I0J-450000D01*
G01*
X12266500Y19870000D01*
G75*
G02*
X11816500Y19420000I-450000J0D01*
G01*
X10916500Y19420000D01*
G75*
G02*
X10466500Y19870000I0J450000D01*
G01*
G37*
%TD*%
%TO.C,REF\u002A\u002A*%
G36*
G01*
X7926500Y19870000D02*
X7926500Y20770000D01*
G75*
G02*
X8376500Y21220000I450000J0D01*
G01*
X9276500Y21220000D01*
G75*
G02*
X9726500Y20770000I0J-450000D01*
G01*
X9726500Y19870000D01*
G75*
G02*
X9276500Y19420000I-450000J0D01*
G01*
X8376500Y19420000D01*
G75*
G02*
X7926500Y19870000I0J450000D01*
G01*
G37*
%TD*%
%TO.C,REF\u002A\u002A*%
G36*
G01*
X5386500Y19870000D02*
X5386500Y20770000D01*
G75*
G02*
X5836500Y21220000I450000J0D01*
G01*
X6736500Y21220000D01*
G75*
G02*
X7186500Y20770000I0J-450000D01*
G01*
X7186500Y19870000D01*
G75*
G02*
X6736500Y19420000I-450000J0D01*
G01*
X5836500Y19420000D01*
G75*
G02*
X5386500Y19870000I0J450000D01*
G01*
G37*
%TD*%
%TO.C,REF\u002A\u002A*%
G36*
G01*
X2846500Y19870000D02*
X2846500Y20770000D01*
G75*
G02*
X3296500Y21220000I450000J0D01*
G01*
X4196500Y21220000D01*
G75*
G02*
X4646500Y20770000I0J-450000D01*
G01*
X4646500Y19870000D01*
G75*
G02*
X4196500Y19420000I-450000J0D01*
G01*
X3296500Y19420000D01*
G75*
G02*
X2846500Y19870000I0J450000D01*
G01*
G37*
%TD*%
%TO.C,REF\u002A\u002A*%
G36*
G01*
X76506500Y22410000D02*
X76506500Y23310000D01*
G75*
G02*
X76956500Y23760000I450000J0D01*
G01*
X77856500Y23760000D01*
G75*
G02*
X78306500Y23310000I0J-450000D01*
G01*
X78306500Y22410000D01*
G75*
G02*
X77856500Y21960000I-450000J0D01*
G01*
X76956500Y21960000D01*
G75*
G02*
X76506500Y22410000I0J450000D01*
G01*
G37*
%TD*%
%TO.C,REF\u002A\u002A*%
G36*
G01*
X73966500Y22410000D02*
X73966500Y23310000D01*
G75*
G02*
X74416500Y23760000I450000J0D01*
G01*
X75316500Y23760000D01*
G75*
G02*
X75766500Y23310000I0J-450000D01*
G01*
X75766500Y22410000D01*
G75*
G02*
X75316500Y21960000I-450000J0D01*
G01*
X74416500Y21960000D01*
G75*
G02*
X73966500Y22410000I0J450000D01*
G01*
G37*
%TD*%
%TO.C,REF\u002A\u002A*%
G36*
G01*
X71426500Y22410000D02*
X71426500Y23310000D01*
G75*
G02*
X71876500Y23760000I450000J0D01*
G01*
X72776500Y23760000D01*
G75*
G02*
X73226500Y23310000I0J-450000D01*
G01*
X73226500Y22410000D01*
G75*
G02*
X72776500Y21960000I-450000J0D01*
G01*
X71876500Y21960000D01*
G75*
G02*
X71426500Y22410000I0J450000D01*
G01*
G37*
%TD*%
%TO.C,REF\u002A\u002A*%
G36*
G01*
X68886500Y22410000D02*
X68886500Y23310000D01*
G75*
G02*
X69336500Y23760000I450000J0D01*
G01*
X70236500Y23760000D01*
G75*
G02*
X70686500Y23310000I0J-450000D01*
G01*
X70686500Y22410000D01*
G75*
G02*
X70236500Y21960000I-450000J0D01*
G01*
X69336500Y21960000D01*
G75*
G02*
X68886500Y22410000I0J450000D01*
G01*
G37*
%TD*%
%TO.C,REF\u002A\u002A*%
G36*
G01*
X66346500Y22410000D02*
X66346500Y23310000D01*
G75*
G02*
X66796500Y23760000I450000J0D01*
G01*
X67696500Y23760000D01*
G75*
G02*
X68146500Y23310000I0J-450000D01*
G01*
X68146500Y22410000D01*
G75*
G02*
X67696500Y21960000I-450000J0D01*
G01*
X66796500Y21960000D01*
G75*
G02*
X66346500Y22410000I0J450000D01*
G01*
G37*
%TD*%
%TO.C,REF\u002A\u002A*%
G36*
G01*
X63806500Y22410000D02*
X63806500Y23310000D01*
G75*
G02*
X64256500Y23760000I450000J0D01*
G01*
X65156500Y23760000D01*
G75*
G02*
X65606500Y23310000I0J-450000D01*
G01*
X65606500Y22410000D01*
G75*
G02*
X65156500Y21960000I-450000J0D01*
G01*
X64256500Y21960000D01*
G75*
G02*
X63806500Y22410000I0J450000D01*
G01*
G37*
%TD*%
%TO.C,REF\u002A\u002A*%
G36*
G01*
X61266500Y22410000D02*
X61266500Y23310000D01*
G75*
G02*
X61716500Y23760000I450000J0D01*
G01*
X62616500Y23760000D01*
G75*
G02*
X63066500Y23310000I0J-450000D01*
G01*
X63066500Y22410000D01*
G75*
G02*
X62616500Y21960000I-450000J0D01*
G01*
X61716500Y21960000D01*
G75*
G02*
X61266500Y22410000I0J450000D01*
G01*
G37*
%TD*%
%TO.C,REF\u002A\u002A*%
G36*
G01*
X58726500Y22410000D02*
X58726500Y23310000D01*
G75*
G02*
X59176500Y23760000I450000J0D01*
G01*
X60076500Y23760000D01*
G75*
G02*
X60526500Y23310000I0J-450000D01*
G01*
X60526500Y22410000D01*
G75*
G02*
X60076500Y21960000I-450000J0D01*
G01*
X59176500Y21960000D01*
G75*
G02*
X58726500Y22410000I0J450000D01*
G01*
G37*
%TD*%
%TO.C,REF\u002A\u002A*%
G36*
G01*
X56186500Y22410000D02*
X56186500Y23310000D01*
G75*
G02*
X56636500Y23760000I450000J0D01*
G01*
X57536500Y23760000D01*
G75*
G02*
X57986500Y23310000I0J-450000D01*
G01*
X57986500Y22410000D01*
G75*
G02*
X57536500Y21960000I-450000J0D01*
G01*
X56636500Y21960000D01*
G75*
G02*
X56186500Y22410000I0J450000D01*
G01*
G37*
%TD*%
%TO.C,REF\u002A\u002A*%
G36*
G01*
X53646500Y22410000D02*
X53646500Y23310000D01*
G75*
G02*
X54096500Y23760000I450000J0D01*
G01*
X54996500Y23760000D01*
G75*
G02*
X55446500Y23310000I0J-450000D01*
G01*
X55446500Y22410000D01*
G75*
G02*
X54996500Y21960000I-450000J0D01*
G01*
X54096500Y21960000D01*
G75*
G02*
X53646500Y22410000I0J450000D01*
G01*
G37*
%TD*%
%TO.C,REF\u002A\u002A*%
G36*
G01*
X51106500Y22410000D02*
X51106500Y23310000D01*
G75*
G02*
X51556500Y23760000I450000J0D01*
G01*
X52456500Y23760000D01*
G75*
G02*
X52906500Y23310000I0J-450000D01*
G01*
X52906500Y22410000D01*
G75*
G02*
X52456500Y21960000I-450000J0D01*
G01*
X51556500Y21960000D01*
G75*
G02*
X51106500Y22410000I0J450000D01*
G01*
G37*
%TD*%
%TO.C,REF\u002A\u002A*%
G36*
G01*
X48566500Y22410000D02*
X48566500Y23310000D01*
G75*
G02*
X49016500Y23760000I450000J0D01*
G01*
X49916500Y23760000D01*
G75*
G02*
X50366500Y23310000I0J-450000D01*
G01*
X50366500Y22410000D01*
G75*
G02*
X49916500Y21960000I-450000J0D01*
G01*
X49016500Y21960000D01*
G75*
G02*
X48566500Y22410000I0J450000D01*
G01*
G37*
%TD*%
%TO.C,REF\u002A\u002A*%
G36*
G01*
X46026500Y22410000D02*
X46026500Y23310000D01*
G75*
G02*
X46476500Y23760000I450000J0D01*
G01*
X47376500Y23760000D01*
G75*
G02*
X47826500Y23310000I0J-450000D01*
G01*
X47826500Y22410000D01*
G75*
G02*
X47376500Y21960000I-450000J0D01*
G01*
X46476500Y21960000D01*
G75*
G02*
X46026500Y22410000I0J450000D01*
G01*
G37*
%TD*%
%TO.C,REF\u002A\u002A*%
G36*
G01*
X43486500Y22410000D02*
X43486500Y23310000D01*
G75*
G02*
X43936500Y23760000I450000J0D01*
G01*
X44836500Y23760000D01*
G75*
G02*
X45286500Y23310000I0J-450000D01*
G01*
X45286500Y22410000D01*
G75*
G02*
X44836500Y21960000I-450000J0D01*
G01*
X43936500Y21960000D01*
G75*
G02*
X43486500Y22410000I0J450000D01*
G01*
G37*
%TD*%
%TO.C,REF\u002A\u002A*%
G36*
G01*
X40946500Y22410000D02*
X40946500Y23310000D01*
G75*
G02*
X41396500Y23760000I450000J0D01*
G01*
X42296500Y23760000D01*
G75*
G02*
X42746500Y23310000I0J-450000D01*
G01*
X42746500Y22410000D01*
G75*
G02*
X42296500Y21960000I-450000J0D01*
G01*
X41396500Y21960000D01*
G75*
G02*
X40946500Y22410000I0J450000D01*
G01*
G37*
%TD*%
%TO.C,REF\u002A\u002A*%
G36*
G01*
X38406500Y22410000D02*
X38406500Y23310000D01*
G75*
G02*
X38856500Y23760000I450000J0D01*
G01*
X39756500Y23760000D01*
G75*
G02*
X40206500Y23310000I0J-450000D01*
G01*
X40206500Y22410000D01*
G75*
G02*
X39756500Y21960000I-450000J0D01*
G01*
X38856500Y21960000D01*
G75*
G02*
X38406500Y22410000I0J450000D01*
G01*
G37*
%TD*%
%TO.C,REF\u002A\u002A*%
G36*
G01*
X35866500Y22410000D02*
X35866500Y23310000D01*
G75*
G02*
X36316500Y23760000I450000J0D01*
G01*
X37216500Y23760000D01*
G75*
G02*
X37666500Y23310000I0J-450000D01*
G01*
X37666500Y22410000D01*
G75*
G02*
X37216500Y21960000I-450000J0D01*
G01*
X36316500Y21960000D01*
G75*
G02*
X35866500Y22410000I0J450000D01*
G01*
G37*
%TD*%
%TO.C,REF\u002A\u002A*%
G36*
G01*
X33326500Y22410000D02*
X33326500Y23310000D01*
G75*
G02*
X33776500Y23760000I450000J0D01*
G01*
X34676500Y23760000D01*
G75*
G02*
X35126500Y23310000I0J-450000D01*
G01*
X35126500Y22410000D01*
G75*
G02*
X34676500Y21960000I-450000J0D01*
G01*
X33776500Y21960000D01*
G75*
G02*
X33326500Y22410000I0J450000D01*
G01*
G37*
%TD*%
%TO.C,REF\u002A\u002A*%
G36*
G01*
X30786500Y22410000D02*
X30786500Y23310000D01*
G75*
G02*
X31236500Y23760000I450000J0D01*
G01*
X32136500Y23760000D01*
G75*
G02*
X32586500Y23310000I0J-450000D01*
G01*
X32586500Y22410000D01*
G75*
G02*
X32136500Y21960000I-450000J0D01*
G01*
X31236500Y21960000D01*
G75*
G02*
X30786500Y22410000I0J450000D01*
G01*
G37*
%TD*%
%TO.C,REF\u002A\u002A*%
G36*
G01*
X28246500Y22410000D02*
X28246500Y23310000D01*
G75*
G02*
X28696500Y23760000I450000J0D01*
G01*
X29596500Y23760000D01*
G75*
G02*
X30046500Y23310000I0J-450000D01*
G01*
X30046500Y22410000D01*
G75*
G02*
X29596500Y21960000I-450000J0D01*
G01*
X28696500Y21960000D01*
G75*
G02*
X28246500Y22410000I0J450000D01*
G01*
G37*
%TD*%
%TO.C,REF\u002A\u002A*%
G36*
G01*
X25706500Y22410000D02*
X25706500Y23310000D01*
G75*
G02*
X26156500Y23760000I450000J0D01*
G01*
X27056500Y23760000D01*
G75*
G02*
X27506500Y23310000I0J-450000D01*
G01*
X27506500Y22410000D01*
G75*
G02*
X27056500Y21960000I-450000J0D01*
G01*
X26156500Y21960000D01*
G75*
G02*
X25706500Y22410000I0J450000D01*
G01*
G37*
%TD*%
%TO.C,REF\u002A\u002A*%
G36*
G01*
X23166500Y22410000D02*
X23166500Y23310000D01*
G75*
G02*
X23616500Y23760000I450000J0D01*
G01*
X24516500Y23760000D01*
G75*
G02*
X24966500Y23310000I0J-450000D01*
G01*
X24966500Y22410000D01*
G75*
G02*
X24516500Y21960000I-450000J0D01*
G01*
X23616500Y21960000D01*
G75*
G02*
X23166500Y22410000I0J450000D01*
G01*
G37*
%TD*%
%TO.C,REF\u002A\u002A*%
G36*
G01*
X20626500Y22410000D02*
X20626500Y23310000D01*
G75*
G02*
X21076500Y23760000I450000J0D01*
G01*
X21976500Y23760000D01*
G75*
G02*
X22426500Y23310000I0J-450000D01*
G01*
X22426500Y22410000D01*
G75*
G02*
X21976500Y21960000I-450000J0D01*
G01*
X21076500Y21960000D01*
G75*
G02*
X20626500Y22410000I0J450000D01*
G01*
G37*
%TD*%
%TO.C,REF\u002A\u002A*%
G36*
G01*
X18086500Y22410000D02*
X18086500Y23310000D01*
G75*
G02*
X18536500Y23760000I450000J0D01*
G01*
X19436500Y23760000D01*
G75*
G02*
X19886500Y23310000I0J-450000D01*
G01*
X19886500Y22410000D01*
G75*
G02*
X19436500Y21960000I-450000J0D01*
G01*
X18536500Y21960000D01*
G75*
G02*
X18086500Y22410000I0J450000D01*
G01*
G37*
%TD*%
%TO.C,REF\u002A\u002A*%
G36*
G01*
X15546500Y22410000D02*
X15546500Y23310000D01*
G75*
G02*
X15996500Y23760000I450000J0D01*
G01*
X16896500Y23760000D01*
G75*
G02*
X17346500Y23310000I0J-450000D01*
G01*
X17346500Y22410000D01*
G75*
G02*
X16896500Y21960000I-450000J0D01*
G01*
X15996500Y21960000D01*
G75*
G02*
X15546500Y22410000I0J450000D01*
G01*
G37*
%TD*%
%TO.C,REF\u002A\u002A*%
G36*
G01*
X13006500Y22410000D02*
X13006500Y23310000D01*
G75*
G02*
X13456500Y23760000I450000J0D01*
G01*
X14356500Y23760000D01*
G75*
G02*
X14806500Y23310000I0J-450000D01*
G01*
X14806500Y22410000D01*
G75*
G02*
X14356500Y21960000I-450000J0D01*
G01*
X13456500Y21960000D01*
G75*
G02*
X13006500Y22410000I0J450000D01*
G01*
G37*
%TD*%
%TO.C,REF\u002A\u002A*%
G36*
G01*
X10466500Y22410000D02*
X10466500Y23310000D01*
G75*
G02*
X10916500Y23760000I450000J0D01*
G01*
X11816500Y23760000D01*
G75*
G02*
X12266500Y23310000I0J-450000D01*
G01*
X12266500Y22410000D01*
G75*
G02*
X11816500Y21960000I-450000J0D01*
G01*
X10916500Y21960000D01*
G75*
G02*
X10466500Y22410000I0J450000D01*
G01*
G37*
%TD*%
%TO.C,REF\u002A\u002A*%
G36*
G01*
X7926500Y22410000D02*
X7926500Y23310000D01*
G75*
G02*
X8376500Y23760000I450000J0D01*
G01*
X9276500Y23760000D01*
G75*
G02*
X9726500Y23310000I0J-450000D01*
G01*
X9726500Y22410000D01*
G75*
G02*
X9276500Y21960000I-450000J0D01*
G01*
X8376500Y21960000D01*
G75*
G02*
X7926500Y22410000I0J450000D01*
G01*
G37*
%TD*%
%TO.C,REF\u002A\u002A*%
G36*
G01*
X5386500Y22410000D02*
X5386500Y23310000D01*
G75*
G02*
X5836500Y23760000I450000J0D01*
G01*
X6736500Y23760000D01*
G75*
G02*
X7186500Y23310000I0J-450000D01*
G01*
X7186500Y22410000D01*
G75*
G02*
X6736500Y21960000I-450000J0D01*
G01*
X5836500Y21960000D01*
G75*
G02*
X5386500Y22410000I0J450000D01*
G01*
G37*
%TD*%
%TO.C,REF\u002A\u002A*%
G36*
G01*
X2846500Y22410000D02*
X2846500Y23310000D01*
G75*
G02*
X3296500Y23760000I450000J0D01*
G01*
X4196500Y23760000D01*
G75*
G02*
X4646500Y23310000I0J-450000D01*
G01*
X4646500Y22410000D01*
G75*
G02*
X4196500Y21960000I-450000J0D01*
G01*
X3296500Y21960000D01*
G75*
G02*
X2846500Y22410000I0J450000D01*
G01*
G37*
%TD*%
%TO.C,REF\u002A\u002A*%
G36*
G01*
X76506500Y24950000D02*
X76506500Y25850000D01*
G75*
G02*
X76956500Y26300000I450000J0D01*
G01*
X77856500Y26300000D01*
G75*
G02*
X78306500Y25850000I0J-450000D01*
G01*
X78306500Y24950000D01*
G75*
G02*
X77856500Y24500000I-450000J0D01*
G01*
X76956500Y24500000D01*
G75*
G02*
X76506500Y24950000I0J450000D01*
G01*
G37*
%TD*%
%TO.C,REF\u002A\u002A*%
G36*
G01*
X73966500Y24950000D02*
X73966500Y25850000D01*
G75*
G02*
X74416500Y26300000I450000J0D01*
G01*
X75316500Y26300000D01*
G75*
G02*
X75766500Y25850000I0J-450000D01*
G01*
X75766500Y24950000D01*
G75*
G02*
X75316500Y24500000I-450000J0D01*
G01*
X74416500Y24500000D01*
G75*
G02*
X73966500Y24950000I0J450000D01*
G01*
G37*
%TD*%
%TO.C,REF\u002A\u002A*%
G36*
G01*
X71426500Y24950000D02*
X71426500Y25850000D01*
G75*
G02*
X71876500Y26300000I450000J0D01*
G01*
X72776500Y26300000D01*
G75*
G02*
X73226500Y25850000I0J-450000D01*
G01*
X73226500Y24950000D01*
G75*
G02*
X72776500Y24500000I-450000J0D01*
G01*
X71876500Y24500000D01*
G75*
G02*
X71426500Y24950000I0J450000D01*
G01*
G37*
%TD*%
%TO.C,REF\u002A\u002A*%
G36*
G01*
X68886500Y24950000D02*
X68886500Y25850000D01*
G75*
G02*
X69336500Y26300000I450000J0D01*
G01*
X70236500Y26300000D01*
G75*
G02*
X70686500Y25850000I0J-450000D01*
G01*
X70686500Y24950000D01*
G75*
G02*
X70236500Y24500000I-450000J0D01*
G01*
X69336500Y24500000D01*
G75*
G02*
X68886500Y24950000I0J450000D01*
G01*
G37*
%TD*%
%TO.C,REF\u002A\u002A*%
G36*
G01*
X66346500Y24950000D02*
X66346500Y25850000D01*
G75*
G02*
X66796500Y26300000I450000J0D01*
G01*
X67696500Y26300000D01*
G75*
G02*
X68146500Y25850000I0J-450000D01*
G01*
X68146500Y24950000D01*
G75*
G02*
X67696500Y24500000I-450000J0D01*
G01*
X66796500Y24500000D01*
G75*
G02*
X66346500Y24950000I0J450000D01*
G01*
G37*
%TD*%
%TO.C,REF\u002A\u002A*%
G36*
G01*
X63806500Y24950000D02*
X63806500Y25850000D01*
G75*
G02*
X64256500Y26300000I450000J0D01*
G01*
X65156500Y26300000D01*
G75*
G02*
X65606500Y25850000I0J-450000D01*
G01*
X65606500Y24950000D01*
G75*
G02*
X65156500Y24500000I-450000J0D01*
G01*
X64256500Y24500000D01*
G75*
G02*
X63806500Y24950000I0J450000D01*
G01*
G37*
%TD*%
%TO.C,REF\u002A\u002A*%
G36*
G01*
X61266500Y24950000D02*
X61266500Y25850000D01*
G75*
G02*
X61716500Y26300000I450000J0D01*
G01*
X62616500Y26300000D01*
G75*
G02*
X63066500Y25850000I0J-450000D01*
G01*
X63066500Y24950000D01*
G75*
G02*
X62616500Y24500000I-450000J0D01*
G01*
X61716500Y24500000D01*
G75*
G02*
X61266500Y24950000I0J450000D01*
G01*
G37*
%TD*%
%TO.C,REF\u002A\u002A*%
G36*
G01*
X58726500Y24950000D02*
X58726500Y25850000D01*
G75*
G02*
X59176500Y26300000I450000J0D01*
G01*
X60076500Y26300000D01*
G75*
G02*
X60526500Y25850000I0J-450000D01*
G01*
X60526500Y24950000D01*
G75*
G02*
X60076500Y24500000I-450000J0D01*
G01*
X59176500Y24500000D01*
G75*
G02*
X58726500Y24950000I0J450000D01*
G01*
G37*
%TD*%
%TO.C,REF\u002A\u002A*%
G36*
G01*
X56186500Y24950000D02*
X56186500Y25850000D01*
G75*
G02*
X56636500Y26300000I450000J0D01*
G01*
X57536500Y26300000D01*
G75*
G02*
X57986500Y25850000I0J-450000D01*
G01*
X57986500Y24950000D01*
G75*
G02*
X57536500Y24500000I-450000J0D01*
G01*
X56636500Y24500000D01*
G75*
G02*
X56186500Y24950000I0J450000D01*
G01*
G37*
%TD*%
%TO.C,REF\u002A\u002A*%
G36*
G01*
X53646500Y24950000D02*
X53646500Y25850000D01*
G75*
G02*
X54096500Y26300000I450000J0D01*
G01*
X54996500Y26300000D01*
G75*
G02*
X55446500Y25850000I0J-450000D01*
G01*
X55446500Y24950000D01*
G75*
G02*
X54996500Y24500000I-450000J0D01*
G01*
X54096500Y24500000D01*
G75*
G02*
X53646500Y24950000I0J450000D01*
G01*
G37*
%TD*%
%TO.C,REF\u002A\u002A*%
G36*
G01*
X51106500Y24950000D02*
X51106500Y25850000D01*
G75*
G02*
X51556500Y26300000I450000J0D01*
G01*
X52456500Y26300000D01*
G75*
G02*
X52906500Y25850000I0J-450000D01*
G01*
X52906500Y24950000D01*
G75*
G02*
X52456500Y24500000I-450000J0D01*
G01*
X51556500Y24500000D01*
G75*
G02*
X51106500Y24950000I0J450000D01*
G01*
G37*
%TD*%
%TO.C,REF\u002A\u002A*%
G36*
G01*
X48566500Y24950000D02*
X48566500Y25850000D01*
G75*
G02*
X49016500Y26300000I450000J0D01*
G01*
X49916500Y26300000D01*
G75*
G02*
X50366500Y25850000I0J-450000D01*
G01*
X50366500Y24950000D01*
G75*
G02*
X49916500Y24500000I-450000J0D01*
G01*
X49016500Y24500000D01*
G75*
G02*
X48566500Y24950000I0J450000D01*
G01*
G37*
%TD*%
%TO.C,REF\u002A\u002A*%
G36*
G01*
X46026500Y24950000D02*
X46026500Y25850000D01*
G75*
G02*
X46476500Y26300000I450000J0D01*
G01*
X47376500Y26300000D01*
G75*
G02*
X47826500Y25850000I0J-450000D01*
G01*
X47826500Y24950000D01*
G75*
G02*
X47376500Y24500000I-450000J0D01*
G01*
X46476500Y24500000D01*
G75*
G02*
X46026500Y24950000I0J450000D01*
G01*
G37*
%TD*%
%TO.C,REF\u002A\u002A*%
G36*
G01*
X43486500Y24950000D02*
X43486500Y25850000D01*
G75*
G02*
X43936500Y26300000I450000J0D01*
G01*
X44836500Y26300000D01*
G75*
G02*
X45286500Y25850000I0J-450000D01*
G01*
X45286500Y24950000D01*
G75*
G02*
X44836500Y24500000I-450000J0D01*
G01*
X43936500Y24500000D01*
G75*
G02*
X43486500Y24950000I0J450000D01*
G01*
G37*
%TD*%
%TO.C,REF\u002A\u002A*%
G36*
G01*
X40946500Y24950000D02*
X40946500Y25850000D01*
G75*
G02*
X41396500Y26300000I450000J0D01*
G01*
X42296500Y26300000D01*
G75*
G02*
X42746500Y25850000I0J-450000D01*
G01*
X42746500Y24950000D01*
G75*
G02*
X42296500Y24500000I-450000J0D01*
G01*
X41396500Y24500000D01*
G75*
G02*
X40946500Y24950000I0J450000D01*
G01*
G37*
%TD*%
%TO.C,REF\u002A\u002A*%
G36*
G01*
X38406500Y24950000D02*
X38406500Y25850000D01*
G75*
G02*
X38856500Y26300000I450000J0D01*
G01*
X39756500Y26300000D01*
G75*
G02*
X40206500Y25850000I0J-450000D01*
G01*
X40206500Y24950000D01*
G75*
G02*
X39756500Y24500000I-450000J0D01*
G01*
X38856500Y24500000D01*
G75*
G02*
X38406500Y24950000I0J450000D01*
G01*
G37*
%TD*%
%TO.C,REF\u002A\u002A*%
G36*
G01*
X35866500Y24950000D02*
X35866500Y25850000D01*
G75*
G02*
X36316500Y26300000I450000J0D01*
G01*
X37216500Y26300000D01*
G75*
G02*
X37666500Y25850000I0J-450000D01*
G01*
X37666500Y24950000D01*
G75*
G02*
X37216500Y24500000I-450000J0D01*
G01*
X36316500Y24500000D01*
G75*
G02*
X35866500Y24950000I0J450000D01*
G01*
G37*
%TD*%
%TO.C,REF\u002A\u002A*%
G36*
G01*
X33326500Y24950000D02*
X33326500Y25850000D01*
G75*
G02*
X33776500Y26300000I450000J0D01*
G01*
X34676500Y26300000D01*
G75*
G02*
X35126500Y25850000I0J-450000D01*
G01*
X35126500Y24950000D01*
G75*
G02*
X34676500Y24500000I-450000J0D01*
G01*
X33776500Y24500000D01*
G75*
G02*
X33326500Y24950000I0J450000D01*
G01*
G37*
%TD*%
%TO.C,REF\u002A\u002A*%
G36*
G01*
X30786500Y24950000D02*
X30786500Y25850000D01*
G75*
G02*
X31236500Y26300000I450000J0D01*
G01*
X32136500Y26300000D01*
G75*
G02*
X32586500Y25850000I0J-450000D01*
G01*
X32586500Y24950000D01*
G75*
G02*
X32136500Y24500000I-450000J0D01*
G01*
X31236500Y24500000D01*
G75*
G02*
X30786500Y24950000I0J450000D01*
G01*
G37*
%TD*%
%TO.C,REF\u002A\u002A*%
G36*
G01*
X28246500Y24950000D02*
X28246500Y25850000D01*
G75*
G02*
X28696500Y26300000I450000J0D01*
G01*
X29596500Y26300000D01*
G75*
G02*
X30046500Y25850000I0J-450000D01*
G01*
X30046500Y24950000D01*
G75*
G02*
X29596500Y24500000I-450000J0D01*
G01*
X28696500Y24500000D01*
G75*
G02*
X28246500Y24950000I0J450000D01*
G01*
G37*
%TD*%
%TO.C,REF\u002A\u002A*%
G36*
G01*
X25706500Y24950000D02*
X25706500Y25850000D01*
G75*
G02*
X26156500Y26300000I450000J0D01*
G01*
X27056500Y26300000D01*
G75*
G02*
X27506500Y25850000I0J-450000D01*
G01*
X27506500Y24950000D01*
G75*
G02*
X27056500Y24500000I-450000J0D01*
G01*
X26156500Y24500000D01*
G75*
G02*
X25706500Y24950000I0J450000D01*
G01*
G37*
%TD*%
%TO.C,REF\u002A\u002A*%
G36*
G01*
X23166500Y24950000D02*
X23166500Y25850000D01*
G75*
G02*
X23616500Y26300000I450000J0D01*
G01*
X24516500Y26300000D01*
G75*
G02*
X24966500Y25850000I0J-450000D01*
G01*
X24966500Y24950000D01*
G75*
G02*
X24516500Y24500000I-450000J0D01*
G01*
X23616500Y24500000D01*
G75*
G02*
X23166500Y24950000I0J450000D01*
G01*
G37*
%TD*%
%TO.C,REF\u002A\u002A*%
G36*
G01*
X20626500Y24950000D02*
X20626500Y25850000D01*
G75*
G02*
X21076500Y26300000I450000J0D01*
G01*
X21976500Y26300000D01*
G75*
G02*
X22426500Y25850000I0J-450000D01*
G01*
X22426500Y24950000D01*
G75*
G02*
X21976500Y24500000I-450000J0D01*
G01*
X21076500Y24500000D01*
G75*
G02*
X20626500Y24950000I0J450000D01*
G01*
G37*
%TD*%
%TO.C,REF\u002A\u002A*%
G36*
G01*
X18086500Y24950000D02*
X18086500Y25850000D01*
G75*
G02*
X18536500Y26300000I450000J0D01*
G01*
X19436500Y26300000D01*
G75*
G02*
X19886500Y25850000I0J-450000D01*
G01*
X19886500Y24950000D01*
G75*
G02*
X19436500Y24500000I-450000J0D01*
G01*
X18536500Y24500000D01*
G75*
G02*
X18086500Y24950000I0J450000D01*
G01*
G37*
%TD*%
%TO.C,REF\u002A\u002A*%
G36*
G01*
X15546500Y24950000D02*
X15546500Y25850000D01*
G75*
G02*
X15996500Y26300000I450000J0D01*
G01*
X16896500Y26300000D01*
G75*
G02*
X17346500Y25850000I0J-450000D01*
G01*
X17346500Y24950000D01*
G75*
G02*
X16896500Y24500000I-450000J0D01*
G01*
X15996500Y24500000D01*
G75*
G02*
X15546500Y24950000I0J450000D01*
G01*
G37*
%TD*%
%TO.C,REF\u002A\u002A*%
G36*
G01*
X13006500Y24950000D02*
X13006500Y25850000D01*
G75*
G02*
X13456500Y26300000I450000J0D01*
G01*
X14356500Y26300000D01*
G75*
G02*
X14806500Y25850000I0J-450000D01*
G01*
X14806500Y24950000D01*
G75*
G02*
X14356500Y24500000I-450000J0D01*
G01*
X13456500Y24500000D01*
G75*
G02*
X13006500Y24950000I0J450000D01*
G01*
G37*
%TD*%
%TO.C,REF\u002A\u002A*%
G36*
G01*
X10466500Y24950000D02*
X10466500Y25850000D01*
G75*
G02*
X10916500Y26300000I450000J0D01*
G01*
X11816500Y26300000D01*
G75*
G02*
X12266500Y25850000I0J-450000D01*
G01*
X12266500Y24950000D01*
G75*
G02*
X11816500Y24500000I-450000J0D01*
G01*
X10916500Y24500000D01*
G75*
G02*
X10466500Y24950000I0J450000D01*
G01*
G37*
%TD*%
%TO.C,REF\u002A\u002A*%
G36*
G01*
X7926500Y24950000D02*
X7926500Y25850000D01*
G75*
G02*
X8376500Y26300000I450000J0D01*
G01*
X9276500Y26300000D01*
G75*
G02*
X9726500Y25850000I0J-450000D01*
G01*
X9726500Y24950000D01*
G75*
G02*
X9276500Y24500000I-450000J0D01*
G01*
X8376500Y24500000D01*
G75*
G02*
X7926500Y24950000I0J450000D01*
G01*
G37*
%TD*%
%TO.C,REF\u002A\u002A*%
G36*
G01*
X5386500Y24950000D02*
X5386500Y25850000D01*
G75*
G02*
X5836500Y26300000I450000J0D01*
G01*
X6736500Y26300000D01*
G75*
G02*
X7186500Y25850000I0J-450000D01*
G01*
X7186500Y24950000D01*
G75*
G02*
X6736500Y24500000I-450000J0D01*
G01*
X5836500Y24500000D01*
G75*
G02*
X5386500Y24950000I0J450000D01*
G01*
G37*
%TD*%
%TO.C,REF\u002A\u002A*%
G36*
G01*
X2846500Y24950000D02*
X2846500Y25850000D01*
G75*
G02*
X3296500Y26300000I450000J0D01*
G01*
X4196500Y26300000D01*
G75*
G02*
X4646500Y25850000I0J-450000D01*
G01*
X4646500Y24950000D01*
G75*
G02*
X4196500Y24500000I-450000J0D01*
G01*
X3296500Y24500000D01*
G75*
G02*
X2846500Y24950000I0J450000D01*
G01*
G37*
%TD*%
%TO.C,REF\u002A\u002A*%
G36*
G01*
X76506500Y27490000D02*
X76506500Y28390000D01*
G75*
G02*
X76956500Y28840000I450000J0D01*
G01*
X77856500Y28840000D01*
G75*
G02*
X78306500Y28390000I0J-450000D01*
G01*
X78306500Y27490000D01*
G75*
G02*
X77856500Y27040000I-450000J0D01*
G01*
X76956500Y27040000D01*
G75*
G02*
X76506500Y27490000I0J450000D01*
G01*
G37*
%TD*%
%TO.C,REF\u002A\u002A*%
G36*
G01*
X73966500Y27490000D02*
X73966500Y28390000D01*
G75*
G02*
X74416500Y28840000I450000J0D01*
G01*
X75316500Y28840000D01*
G75*
G02*
X75766500Y28390000I0J-450000D01*
G01*
X75766500Y27490000D01*
G75*
G02*
X75316500Y27040000I-450000J0D01*
G01*
X74416500Y27040000D01*
G75*
G02*
X73966500Y27490000I0J450000D01*
G01*
G37*
%TD*%
%TO.C,REF\u002A\u002A*%
G36*
G01*
X71426500Y27490000D02*
X71426500Y28390000D01*
G75*
G02*
X71876500Y28840000I450000J0D01*
G01*
X72776500Y28840000D01*
G75*
G02*
X73226500Y28390000I0J-450000D01*
G01*
X73226500Y27490000D01*
G75*
G02*
X72776500Y27040000I-450000J0D01*
G01*
X71876500Y27040000D01*
G75*
G02*
X71426500Y27490000I0J450000D01*
G01*
G37*
%TD*%
%TO.C,REF\u002A\u002A*%
G36*
G01*
X68886500Y27490000D02*
X68886500Y28390000D01*
G75*
G02*
X69336500Y28840000I450000J0D01*
G01*
X70236500Y28840000D01*
G75*
G02*
X70686500Y28390000I0J-450000D01*
G01*
X70686500Y27490000D01*
G75*
G02*
X70236500Y27040000I-450000J0D01*
G01*
X69336500Y27040000D01*
G75*
G02*
X68886500Y27490000I0J450000D01*
G01*
G37*
%TD*%
%TO.C,REF\u002A\u002A*%
G36*
G01*
X66346500Y27490000D02*
X66346500Y28390000D01*
G75*
G02*
X66796500Y28840000I450000J0D01*
G01*
X67696500Y28840000D01*
G75*
G02*
X68146500Y28390000I0J-450000D01*
G01*
X68146500Y27490000D01*
G75*
G02*
X67696500Y27040000I-450000J0D01*
G01*
X66796500Y27040000D01*
G75*
G02*
X66346500Y27490000I0J450000D01*
G01*
G37*
%TD*%
%TO.C,REF\u002A\u002A*%
G36*
G01*
X63806500Y27490000D02*
X63806500Y28390000D01*
G75*
G02*
X64256500Y28840000I450000J0D01*
G01*
X65156500Y28840000D01*
G75*
G02*
X65606500Y28390000I0J-450000D01*
G01*
X65606500Y27490000D01*
G75*
G02*
X65156500Y27040000I-450000J0D01*
G01*
X64256500Y27040000D01*
G75*
G02*
X63806500Y27490000I0J450000D01*
G01*
G37*
%TD*%
%TO.C,REF\u002A\u002A*%
G36*
G01*
X61266500Y27490000D02*
X61266500Y28390000D01*
G75*
G02*
X61716500Y28840000I450000J0D01*
G01*
X62616500Y28840000D01*
G75*
G02*
X63066500Y28390000I0J-450000D01*
G01*
X63066500Y27490000D01*
G75*
G02*
X62616500Y27040000I-450000J0D01*
G01*
X61716500Y27040000D01*
G75*
G02*
X61266500Y27490000I0J450000D01*
G01*
G37*
%TD*%
%TO.C,REF\u002A\u002A*%
G36*
G01*
X58726500Y27490000D02*
X58726500Y28390000D01*
G75*
G02*
X59176500Y28840000I450000J0D01*
G01*
X60076500Y28840000D01*
G75*
G02*
X60526500Y28390000I0J-450000D01*
G01*
X60526500Y27490000D01*
G75*
G02*
X60076500Y27040000I-450000J0D01*
G01*
X59176500Y27040000D01*
G75*
G02*
X58726500Y27490000I0J450000D01*
G01*
G37*
%TD*%
%TO.C,REF\u002A\u002A*%
G36*
G01*
X56186500Y27490000D02*
X56186500Y28390000D01*
G75*
G02*
X56636500Y28840000I450000J0D01*
G01*
X57536500Y28840000D01*
G75*
G02*
X57986500Y28390000I0J-450000D01*
G01*
X57986500Y27490000D01*
G75*
G02*
X57536500Y27040000I-450000J0D01*
G01*
X56636500Y27040000D01*
G75*
G02*
X56186500Y27490000I0J450000D01*
G01*
G37*
%TD*%
%TO.C,REF\u002A\u002A*%
G36*
G01*
X53646500Y27490000D02*
X53646500Y28390000D01*
G75*
G02*
X54096500Y28840000I450000J0D01*
G01*
X54996500Y28840000D01*
G75*
G02*
X55446500Y28390000I0J-450000D01*
G01*
X55446500Y27490000D01*
G75*
G02*
X54996500Y27040000I-450000J0D01*
G01*
X54096500Y27040000D01*
G75*
G02*
X53646500Y27490000I0J450000D01*
G01*
G37*
%TD*%
%TO.C,REF\u002A\u002A*%
G36*
G01*
X51106500Y27490000D02*
X51106500Y28390000D01*
G75*
G02*
X51556500Y28840000I450000J0D01*
G01*
X52456500Y28840000D01*
G75*
G02*
X52906500Y28390000I0J-450000D01*
G01*
X52906500Y27490000D01*
G75*
G02*
X52456500Y27040000I-450000J0D01*
G01*
X51556500Y27040000D01*
G75*
G02*
X51106500Y27490000I0J450000D01*
G01*
G37*
%TD*%
%TO.C,REF\u002A\u002A*%
G36*
G01*
X48566500Y27490000D02*
X48566500Y28390000D01*
G75*
G02*
X49016500Y28840000I450000J0D01*
G01*
X49916500Y28840000D01*
G75*
G02*
X50366500Y28390000I0J-450000D01*
G01*
X50366500Y27490000D01*
G75*
G02*
X49916500Y27040000I-450000J0D01*
G01*
X49016500Y27040000D01*
G75*
G02*
X48566500Y27490000I0J450000D01*
G01*
G37*
%TD*%
%TO.C,REF\u002A\u002A*%
G36*
G01*
X46026500Y27490000D02*
X46026500Y28390000D01*
G75*
G02*
X46476500Y28840000I450000J0D01*
G01*
X47376500Y28840000D01*
G75*
G02*
X47826500Y28390000I0J-450000D01*
G01*
X47826500Y27490000D01*
G75*
G02*
X47376500Y27040000I-450000J0D01*
G01*
X46476500Y27040000D01*
G75*
G02*
X46026500Y27490000I0J450000D01*
G01*
G37*
%TD*%
%TO.C,REF\u002A\u002A*%
G36*
G01*
X43486500Y27490000D02*
X43486500Y28390000D01*
G75*
G02*
X43936500Y28840000I450000J0D01*
G01*
X44836500Y28840000D01*
G75*
G02*
X45286500Y28390000I0J-450000D01*
G01*
X45286500Y27490000D01*
G75*
G02*
X44836500Y27040000I-450000J0D01*
G01*
X43936500Y27040000D01*
G75*
G02*
X43486500Y27490000I0J450000D01*
G01*
G37*
%TD*%
%TO.C,REF\u002A\u002A*%
G36*
G01*
X40946500Y27490000D02*
X40946500Y28390000D01*
G75*
G02*
X41396500Y28840000I450000J0D01*
G01*
X42296500Y28840000D01*
G75*
G02*
X42746500Y28390000I0J-450000D01*
G01*
X42746500Y27490000D01*
G75*
G02*
X42296500Y27040000I-450000J0D01*
G01*
X41396500Y27040000D01*
G75*
G02*
X40946500Y27490000I0J450000D01*
G01*
G37*
%TD*%
%TO.C,REF\u002A\u002A*%
G36*
G01*
X38406500Y27490000D02*
X38406500Y28390000D01*
G75*
G02*
X38856500Y28840000I450000J0D01*
G01*
X39756500Y28840000D01*
G75*
G02*
X40206500Y28390000I0J-450000D01*
G01*
X40206500Y27490000D01*
G75*
G02*
X39756500Y27040000I-450000J0D01*
G01*
X38856500Y27040000D01*
G75*
G02*
X38406500Y27490000I0J450000D01*
G01*
G37*
%TD*%
%TO.C,REF\u002A\u002A*%
G36*
G01*
X35866500Y27490000D02*
X35866500Y28390000D01*
G75*
G02*
X36316500Y28840000I450000J0D01*
G01*
X37216500Y28840000D01*
G75*
G02*
X37666500Y28390000I0J-450000D01*
G01*
X37666500Y27490000D01*
G75*
G02*
X37216500Y27040000I-450000J0D01*
G01*
X36316500Y27040000D01*
G75*
G02*
X35866500Y27490000I0J450000D01*
G01*
G37*
%TD*%
%TO.C,REF\u002A\u002A*%
G36*
G01*
X33326500Y27490000D02*
X33326500Y28390000D01*
G75*
G02*
X33776500Y28840000I450000J0D01*
G01*
X34676500Y28840000D01*
G75*
G02*
X35126500Y28390000I0J-450000D01*
G01*
X35126500Y27490000D01*
G75*
G02*
X34676500Y27040000I-450000J0D01*
G01*
X33776500Y27040000D01*
G75*
G02*
X33326500Y27490000I0J450000D01*
G01*
G37*
%TD*%
%TO.C,REF\u002A\u002A*%
G36*
G01*
X30786500Y27490000D02*
X30786500Y28390000D01*
G75*
G02*
X31236500Y28840000I450000J0D01*
G01*
X32136500Y28840000D01*
G75*
G02*
X32586500Y28390000I0J-450000D01*
G01*
X32586500Y27490000D01*
G75*
G02*
X32136500Y27040000I-450000J0D01*
G01*
X31236500Y27040000D01*
G75*
G02*
X30786500Y27490000I0J450000D01*
G01*
G37*
%TD*%
%TO.C,REF\u002A\u002A*%
G36*
G01*
X28246500Y27490000D02*
X28246500Y28390000D01*
G75*
G02*
X28696500Y28840000I450000J0D01*
G01*
X29596500Y28840000D01*
G75*
G02*
X30046500Y28390000I0J-450000D01*
G01*
X30046500Y27490000D01*
G75*
G02*
X29596500Y27040000I-450000J0D01*
G01*
X28696500Y27040000D01*
G75*
G02*
X28246500Y27490000I0J450000D01*
G01*
G37*
%TD*%
%TO.C,REF\u002A\u002A*%
G36*
G01*
X25706500Y27490000D02*
X25706500Y28390000D01*
G75*
G02*
X26156500Y28840000I450000J0D01*
G01*
X27056500Y28840000D01*
G75*
G02*
X27506500Y28390000I0J-450000D01*
G01*
X27506500Y27490000D01*
G75*
G02*
X27056500Y27040000I-450000J0D01*
G01*
X26156500Y27040000D01*
G75*
G02*
X25706500Y27490000I0J450000D01*
G01*
G37*
%TD*%
%TO.C,REF\u002A\u002A*%
G36*
G01*
X23166500Y27490000D02*
X23166500Y28390000D01*
G75*
G02*
X23616500Y28840000I450000J0D01*
G01*
X24516500Y28840000D01*
G75*
G02*
X24966500Y28390000I0J-450000D01*
G01*
X24966500Y27490000D01*
G75*
G02*
X24516500Y27040000I-450000J0D01*
G01*
X23616500Y27040000D01*
G75*
G02*
X23166500Y27490000I0J450000D01*
G01*
G37*
%TD*%
%TO.C,REF\u002A\u002A*%
G36*
G01*
X20626500Y27490000D02*
X20626500Y28390000D01*
G75*
G02*
X21076500Y28840000I450000J0D01*
G01*
X21976500Y28840000D01*
G75*
G02*
X22426500Y28390000I0J-450000D01*
G01*
X22426500Y27490000D01*
G75*
G02*
X21976500Y27040000I-450000J0D01*
G01*
X21076500Y27040000D01*
G75*
G02*
X20626500Y27490000I0J450000D01*
G01*
G37*
%TD*%
%TO.C,REF\u002A\u002A*%
G36*
G01*
X18086500Y27490000D02*
X18086500Y28390000D01*
G75*
G02*
X18536500Y28840000I450000J0D01*
G01*
X19436500Y28840000D01*
G75*
G02*
X19886500Y28390000I0J-450000D01*
G01*
X19886500Y27490000D01*
G75*
G02*
X19436500Y27040000I-450000J0D01*
G01*
X18536500Y27040000D01*
G75*
G02*
X18086500Y27490000I0J450000D01*
G01*
G37*
%TD*%
%TO.C,REF\u002A\u002A*%
G36*
G01*
X15546500Y27490000D02*
X15546500Y28390000D01*
G75*
G02*
X15996500Y28840000I450000J0D01*
G01*
X16896500Y28840000D01*
G75*
G02*
X17346500Y28390000I0J-450000D01*
G01*
X17346500Y27490000D01*
G75*
G02*
X16896500Y27040000I-450000J0D01*
G01*
X15996500Y27040000D01*
G75*
G02*
X15546500Y27490000I0J450000D01*
G01*
G37*
%TD*%
%TO.C,REF\u002A\u002A*%
G36*
G01*
X13006500Y27490000D02*
X13006500Y28390000D01*
G75*
G02*
X13456500Y28840000I450000J0D01*
G01*
X14356500Y28840000D01*
G75*
G02*
X14806500Y28390000I0J-450000D01*
G01*
X14806500Y27490000D01*
G75*
G02*
X14356500Y27040000I-450000J0D01*
G01*
X13456500Y27040000D01*
G75*
G02*
X13006500Y27490000I0J450000D01*
G01*
G37*
%TD*%
%TO.C,REF\u002A\u002A*%
G36*
G01*
X10466500Y27490000D02*
X10466500Y28390000D01*
G75*
G02*
X10916500Y28840000I450000J0D01*
G01*
X11816500Y28840000D01*
G75*
G02*
X12266500Y28390000I0J-450000D01*
G01*
X12266500Y27490000D01*
G75*
G02*
X11816500Y27040000I-450000J0D01*
G01*
X10916500Y27040000D01*
G75*
G02*
X10466500Y27490000I0J450000D01*
G01*
G37*
%TD*%
%TO.C,REF\u002A\u002A*%
G36*
G01*
X7926500Y27490000D02*
X7926500Y28390000D01*
G75*
G02*
X8376500Y28840000I450000J0D01*
G01*
X9276500Y28840000D01*
G75*
G02*
X9726500Y28390000I0J-450000D01*
G01*
X9726500Y27490000D01*
G75*
G02*
X9276500Y27040000I-450000J0D01*
G01*
X8376500Y27040000D01*
G75*
G02*
X7926500Y27490000I0J450000D01*
G01*
G37*
%TD*%
%TO.C,REF\u002A\u002A*%
G36*
G01*
X5386500Y27490000D02*
X5386500Y28390000D01*
G75*
G02*
X5836500Y28840000I450000J0D01*
G01*
X6736500Y28840000D01*
G75*
G02*
X7186500Y28390000I0J-450000D01*
G01*
X7186500Y27490000D01*
G75*
G02*
X6736500Y27040000I-450000J0D01*
G01*
X5836500Y27040000D01*
G75*
G02*
X5386500Y27490000I0J450000D01*
G01*
G37*
%TD*%
%TO.C,REF\u002A\u002A*%
G36*
G01*
X2846500Y27490000D02*
X2846500Y28390000D01*
G75*
G02*
X3296500Y28840000I450000J0D01*
G01*
X4196500Y28840000D01*
G75*
G02*
X4646500Y28390000I0J-450000D01*
G01*
X4646500Y27490000D01*
G75*
G02*
X4196500Y27040000I-450000J0D01*
G01*
X3296500Y27040000D01*
G75*
G02*
X2846500Y27490000I0J450000D01*
G01*
G37*
%TD*%
%TO.C,REF\u002A\u002A*%
G36*
G01*
X2846500Y30030000D02*
X2846500Y30930000D01*
G75*
G02*
X3296500Y31380000I450000J0D01*
G01*
X4196500Y31380000D01*
G75*
G02*
X4646500Y30930000I0J-450000D01*
G01*
X4646500Y30030000D01*
G75*
G02*
X4196500Y29580000I-450000J0D01*
G01*
X3296500Y29580000D01*
G75*
G02*
X2846500Y30030000I0J450000D01*
G01*
G37*
%TD*%
%TO.C,REF\u002A\u002A*%
G36*
G01*
X2846500Y32570000D02*
X2846500Y33470000D01*
G75*
G02*
X3296500Y33920000I450000J0D01*
G01*
X4196500Y33920000D01*
G75*
G02*
X4646500Y33470000I0J-450000D01*
G01*
X4646500Y32570000D01*
G75*
G02*
X4196500Y32120000I-450000J0D01*
G01*
X3296500Y32120000D01*
G75*
G02*
X2846500Y32570000I0J450000D01*
G01*
G37*
%TD*%
%TO.C,REF\u002A\u002A*%
G36*
G01*
X76506500Y35110000D02*
X76506500Y36010000D01*
G75*
G02*
X76956500Y36460000I450000J0D01*
G01*
X77856500Y36460000D01*
G75*
G02*
X78306500Y36010000I0J-450000D01*
G01*
X78306500Y35110000D01*
G75*
G02*
X77856500Y34660000I-450000J0D01*
G01*
X76956500Y34660000D01*
G75*
G02*
X76506500Y35110000I0J450000D01*
G01*
G37*
%TD*%
%TO.C,REF\u002A\u002A*%
G36*
G01*
X73966500Y35110000D02*
X73966500Y36010000D01*
G75*
G02*
X74416500Y36460000I450000J0D01*
G01*
X75316500Y36460000D01*
G75*
G02*
X75766500Y36010000I0J-450000D01*
G01*
X75766500Y35110000D01*
G75*
G02*
X75316500Y34660000I-450000J0D01*
G01*
X74416500Y34660000D01*
G75*
G02*
X73966500Y35110000I0J450000D01*
G01*
G37*
%TD*%
%TO.C,REF\u002A\u002A*%
G36*
G01*
X71426500Y35110000D02*
X71426500Y36010000D01*
G75*
G02*
X71876500Y36460000I450000J0D01*
G01*
X72776500Y36460000D01*
G75*
G02*
X73226500Y36010000I0J-450000D01*
G01*
X73226500Y35110000D01*
G75*
G02*
X72776500Y34660000I-450000J0D01*
G01*
X71876500Y34660000D01*
G75*
G02*
X71426500Y35110000I0J450000D01*
G01*
G37*
%TD*%
%TO.C,REF\u002A\u002A*%
G36*
G01*
X68886500Y35110000D02*
X68886500Y36010000D01*
G75*
G02*
X69336500Y36460000I450000J0D01*
G01*
X70236500Y36460000D01*
G75*
G02*
X70686500Y36010000I0J-450000D01*
G01*
X70686500Y35110000D01*
G75*
G02*
X70236500Y34660000I-450000J0D01*
G01*
X69336500Y34660000D01*
G75*
G02*
X68886500Y35110000I0J450000D01*
G01*
G37*
%TD*%
%TO.C,REF\u002A\u002A*%
G36*
G01*
X66346500Y35110000D02*
X66346500Y36010000D01*
G75*
G02*
X66796500Y36460000I450000J0D01*
G01*
X67696500Y36460000D01*
G75*
G02*
X68146500Y36010000I0J-450000D01*
G01*
X68146500Y35110000D01*
G75*
G02*
X67696500Y34660000I-450000J0D01*
G01*
X66796500Y34660000D01*
G75*
G02*
X66346500Y35110000I0J450000D01*
G01*
G37*
%TD*%
%TO.C,REF\u002A\u002A*%
G36*
G01*
X63806500Y35110000D02*
X63806500Y36010000D01*
G75*
G02*
X64256500Y36460000I450000J0D01*
G01*
X65156500Y36460000D01*
G75*
G02*
X65606500Y36010000I0J-450000D01*
G01*
X65606500Y35110000D01*
G75*
G02*
X65156500Y34660000I-450000J0D01*
G01*
X64256500Y34660000D01*
G75*
G02*
X63806500Y35110000I0J450000D01*
G01*
G37*
%TD*%
%TO.C,REF\u002A\u002A*%
G36*
G01*
X61266500Y35110000D02*
X61266500Y36010000D01*
G75*
G02*
X61716500Y36460000I450000J0D01*
G01*
X62616500Y36460000D01*
G75*
G02*
X63066500Y36010000I0J-450000D01*
G01*
X63066500Y35110000D01*
G75*
G02*
X62616500Y34660000I-450000J0D01*
G01*
X61716500Y34660000D01*
G75*
G02*
X61266500Y35110000I0J450000D01*
G01*
G37*
%TD*%
%TO.C,REF\u002A\u002A*%
G36*
G01*
X58726500Y35110000D02*
X58726500Y36010000D01*
G75*
G02*
X59176500Y36460000I450000J0D01*
G01*
X60076500Y36460000D01*
G75*
G02*
X60526500Y36010000I0J-450000D01*
G01*
X60526500Y35110000D01*
G75*
G02*
X60076500Y34660000I-450000J0D01*
G01*
X59176500Y34660000D01*
G75*
G02*
X58726500Y35110000I0J450000D01*
G01*
G37*
%TD*%
%TO.C,REF\u002A\u002A*%
G36*
G01*
X56186500Y35110000D02*
X56186500Y36010000D01*
G75*
G02*
X56636500Y36460000I450000J0D01*
G01*
X57536500Y36460000D01*
G75*
G02*
X57986500Y36010000I0J-450000D01*
G01*
X57986500Y35110000D01*
G75*
G02*
X57536500Y34660000I-450000J0D01*
G01*
X56636500Y34660000D01*
G75*
G02*
X56186500Y35110000I0J450000D01*
G01*
G37*
%TD*%
%TO.C,REF\u002A\u002A*%
G36*
G01*
X53646500Y35110000D02*
X53646500Y36010000D01*
G75*
G02*
X54096500Y36460000I450000J0D01*
G01*
X54996500Y36460000D01*
G75*
G02*
X55446500Y36010000I0J-450000D01*
G01*
X55446500Y35110000D01*
G75*
G02*
X54996500Y34660000I-450000J0D01*
G01*
X54096500Y34660000D01*
G75*
G02*
X53646500Y35110000I0J450000D01*
G01*
G37*
%TD*%
%TO.C,REF\u002A\u002A*%
G36*
G01*
X51106500Y35110000D02*
X51106500Y36010000D01*
G75*
G02*
X51556500Y36460000I450000J0D01*
G01*
X52456500Y36460000D01*
G75*
G02*
X52906500Y36010000I0J-450000D01*
G01*
X52906500Y35110000D01*
G75*
G02*
X52456500Y34660000I-450000J0D01*
G01*
X51556500Y34660000D01*
G75*
G02*
X51106500Y35110000I0J450000D01*
G01*
G37*
%TD*%
%TO.C,REF\u002A\u002A*%
G36*
G01*
X48566500Y35110000D02*
X48566500Y36010000D01*
G75*
G02*
X49016500Y36460000I450000J0D01*
G01*
X49916500Y36460000D01*
G75*
G02*
X50366500Y36010000I0J-450000D01*
G01*
X50366500Y35110000D01*
G75*
G02*
X49916500Y34660000I-450000J0D01*
G01*
X49016500Y34660000D01*
G75*
G02*
X48566500Y35110000I0J450000D01*
G01*
G37*
%TD*%
%TO.C,REF\u002A\u002A*%
G36*
G01*
X46026500Y35110000D02*
X46026500Y36010000D01*
G75*
G02*
X46476500Y36460000I450000J0D01*
G01*
X47376500Y36460000D01*
G75*
G02*
X47826500Y36010000I0J-450000D01*
G01*
X47826500Y35110000D01*
G75*
G02*
X47376500Y34660000I-450000J0D01*
G01*
X46476500Y34660000D01*
G75*
G02*
X46026500Y35110000I0J450000D01*
G01*
G37*
%TD*%
%TO.C,REF\u002A\u002A*%
G36*
G01*
X43486500Y35110000D02*
X43486500Y36010000D01*
G75*
G02*
X43936500Y36460000I450000J0D01*
G01*
X44836500Y36460000D01*
G75*
G02*
X45286500Y36010000I0J-450000D01*
G01*
X45286500Y35110000D01*
G75*
G02*
X44836500Y34660000I-450000J0D01*
G01*
X43936500Y34660000D01*
G75*
G02*
X43486500Y35110000I0J450000D01*
G01*
G37*
%TD*%
%TO.C,REF\u002A\u002A*%
G36*
G01*
X40946500Y35110000D02*
X40946500Y36010000D01*
G75*
G02*
X41396500Y36460000I450000J0D01*
G01*
X42296500Y36460000D01*
G75*
G02*
X42746500Y36010000I0J-450000D01*
G01*
X42746500Y35110000D01*
G75*
G02*
X42296500Y34660000I-450000J0D01*
G01*
X41396500Y34660000D01*
G75*
G02*
X40946500Y35110000I0J450000D01*
G01*
G37*
%TD*%
%TO.C,REF\u002A\u002A*%
G36*
G01*
X38406500Y35110000D02*
X38406500Y36010000D01*
G75*
G02*
X38856500Y36460000I450000J0D01*
G01*
X39756500Y36460000D01*
G75*
G02*
X40206500Y36010000I0J-450000D01*
G01*
X40206500Y35110000D01*
G75*
G02*
X39756500Y34660000I-450000J0D01*
G01*
X38856500Y34660000D01*
G75*
G02*
X38406500Y35110000I0J450000D01*
G01*
G37*
%TD*%
%TO.C,REF\u002A\u002A*%
G36*
G01*
X35866500Y35110000D02*
X35866500Y36010000D01*
G75*
G02*
X36316500Y36460000I450000J0D01*
G01*
X37216500Y36460000D01*
G75*
G02*
X37666500Y36010000I0J-450000D01*
G01*
X37666500Y35110000D01*
G75*
G02*
X37216500Y34660000I-450000J0D01*
G01*
X36316500Y34660000D01*
G75*
G02*
X35866500Y35110000I0J450000D01*
G01*
G37*
%TD*%
%TO.C,REF\u002A\u002A*%
G36*
G01*
X33326500Y35110000D02*
X33326500Y36010000D01*
G75*
G02*
X33776500Y36460000I450000J0D01*
G01*
X34676500Y36460000D01*
G75*
G02*
X35126500Y36010000I0J-450000D01*
G01*
X35126500Y35110000D01*
G75*
G02*
X34676500Y34660000I-450000J0D01*
G01*
X33776500Y34660000D01*
G75*
G02*
X33326500Y35110000I0J450000D01*
G01*
G37*
%TD*%
%TO.C,REF\u002A\u002A*%
G36*
G01*
X30786500Y35110000D02*
X30786500Y36010000D01*
G75*
G02*
X31236500Y36460000I450000J0D01*
G01*
X32136500Y36460000D01*
G75*
G02*
X32586500Y36010000I0J-450000D01*
G01*
X32586500Y35110000D01*
G75*
G02*
X32136500Y34660000I-450000J0D01*
G01*
X31236500Y34660000D01*
G75*
G02*
X30786500Y35110000I0J450000D01*
G01*
G37*
%TD*%
%TO.C,REF\u002A\u002A*%
G36*
G01*
X28246500Y35110000D02*
X28246500Y36010000D01*
G75*
G02*
X28696500Y36460000I450000J0D01*
G01*
X29596500Y36460000D01*
G75*
G02*
X30046500Y36010000I0J-450000D01*
G01*
X30046500Y35110000D01*
G75*
G02*
X29596500Y34660000I-450000J0D01*
G01*
X28696500Y34660000D01*
G75*
G02*
X28246500Y35110000I0J450000D01*
G01*
G37*
%TD*%
%TO.C,REF\u002A\u002A*%
G36*
G01*
X25706500Y35110000D02*
X25706500Y36010000D01*
G75*
G02*
X26156500Y36460000I450000J0D01*
G01*
X27056500Y36460000D01*
G75*
G02*
X27506500Y36010000I0J-450000D01*
G01*
X27506500Y35110000D01*
G75*
G02*
X27056500Y34660000I-450000J0D01*
G01*
X26156500Y34660000D01*
G75*
G02*
X25706500Y35110000I0J450000D01*
G01*
G37*
%TD*%
%TO.C,REF\u002A\u002A*%
G36*
G01*
X23166500Y35110000D02*
X23166500Y36010000D01*
G75*
G02*
X23616500Y36460000I450000J0D01*
G01*
X24516500Y36460000D01*
G75*
G02*
X24966500Y36010000I0J-450000D01*
G01*
X24966500Y35110000D01*
G75*
G02*
X24516500Y34660000I-450000J0D01*
G01*
X23616500Y34660000D01*
G75*
G02*
X23166500Y35110000I0J450000D01*
G01*
G37*
%TD*%
%TO.C,REF\u002A\u002A*%
G36*
G01*
X20626500Y35110000D02*
X20626500Y36010000D01*
G75*
G02*
X21076500Y36460000I450000J0D01*
G01*
X21976500Y36460000D01*
G75*
G02*
X22426500Y36010000I0J-450000D01*
G01*
X22426500Y35110000D01*
G75*
G02*
X21976500Y34660000I-450000J0D01*
G01*
X21076500Y34660000D01*
G75*
G02*
X20626500Y35110000I0J450000D01*
G01*
G37*
%TD*%
%TO.C,REF\u002A\u002A*%
G36*
G01*
X18086500Y35110000D02*
X18086500Y36010000D01*
G75*
G02*
X18536500Y36460000I450000J0D01*
G01*
X19436500Y36460000D01*
G75*
G02*
X19886500Y36010000I0J-450000D01*
G01*
X19886500Y35110000D01*
G75*
G02*
X19436500Y34660000I-450000J0D01*
G01*
X18536500Y34660000D01*
G75*
G02*
X18086500Y35110000I0J450000D01*
G01*
G37*
%TD*%
%TO.C,REF\u002A\u002A*%
G36*
G01*
X15546500Y35110000D02*
X15546500Y36010000D01*
G75*
G02*
X15996500Y36460000I450000J0D01*
G01*
X16896500Y36460000D01*
G75*
G02*
X17346500Y36010000I0J-450000D01*
G01*
X17346500Y35110000D01*
G75*
G02*
X16896500Y34660000I-450000J0D01*
G01*
X15996500Y34660000D01*
G75*
G02*
X15546500Y35110000I0J450000D01*
G01*
G37*
%TD*%
%TO.C,REF\u002A\u002A*%
G36*
G01*
X13006500Y35110000D02*
X13006500Y36010000D01*
G75*
G02*
X13456500Y36460000I450000J0D01*
G01*
X14356500Y36460000D01*
G75*
G02*
X14806500Y36010000I0J-450000D01*
G01*
X14806500Y35110000D01*
G75*
G02*
X14356500Y34660000I-450000J0D01*
G01*
X13456500Y34660000D01*
G75*
G02*
X13006500Y35110000I0J450000D01*
G01*
G37*
%TD*%
%TO.C,REF\u002A\u002A*%
G36*
G01*
X10466500Y35110000D02*
X10466500Y36010000D01*
G75*
G02*
X10916500Y36460000I450000J0D01*
G01*
X11816500Y36460000D01*
G75*
G02*
X12266500Y36010000I0J-450000D01*
G01*
X12266500Y35110000D01*
G75*
G02*
X11816500Y34660000I-450000J0D01*
G01*
X10916500Y34660000D01*
G75*
G02*
X10466500Y35110000I0J450000D01*
G01*
G37*
%TD*%
%TO.C,REF\u002A\u002A*%
G36*
G01*
X7926500Y35110000D02*
X7926500Y36010000D01*
G75*
G02*
X8376500Y36460000I450000J0D01*
G01*
X9276500Y36460000D01*
G75*
G02*
X9726500Y36010000I0J-450000D01*
G01*
X9726500Y35110000D01*
G75*
G02*
X9276500Y34660000I-450000J0D01*
G01*
X8376500Y34660000D01*
G75*
G02*
X7926500Y35110000I0J450000D01*
G01*
G37*
%TD*%
%TO.C,REF\u002A\u002A*%
G36*
G01*
X5386500Y35110000D02*
X5386500Y36010000D01*
G75*
G02*
X5836500Y36460000I450000J0D01*
G01*
X6736500Y36460000D01*
G75*
G02*
X7186500Y36010000I0J-450000D01*
G01*
X7186500Y35110000D01*
G75*
G02*
X6736500Y34660000I-450000J0D01*
G01*
X5836500Y34660000D01*
G75*
G02*
X5386500Y35110000I0J450000D01*
G01*
G37*
%TD*%
%TO.C,REF\u002A\u002A*%
G36*
G01*
X2846500Y35110000D02*
X2846500Y36010000D01*
G75*
G02*
X3296500Y36460000I450000J0D01*
G01*
X4196500Y36460000D01*
G75*
G02*
X4646500Y36010000I0J-450000D01*
G01*
X4646500Y35110000D01*
G75*
G02*
X4196500Y34660000I-450000J0D01*
G01*
X3296500Y34660000D01*
G75*
G02*
X2846500Y35110000I0J450000D01*
G01*
G37*
%TD*%
%TO.C,REF\u002A\u002A*%
G36*
G01*
X76506500Y37650000D02*
X76506500Y38550000D01*
G75*
G02*
X76956500Y39000000I450000J0D01*
G01*
X77856500Y39000000D01*
G75*
G02*
X78306500Y38550000I0J-450000D01*
G01*
X78306500Y37650000D01*
G75*
G02*
X77856500Y37200000I-450000J0D01*
G01*
X76956500Y37200000D01*
G75*
G02*
X76506500Y37650000I0J450000D01*
G01*
G37*
%TD*%
%TO.C,REF\u002A\u002A*%
G36*
G01*
X73966500Y37650000D02*
X73966500Y38550000D01*
G75*
G02*
X74416500Y39000000I450000J0D01*
G01*
X75316500Y39000000D01*
G75*
G02*
X75766500Y38550000I0J-450000D01*
G01*
X75766500Y37650000D01*
G75*
G02*
X75316500Y37200000I-450000J0D01*
G01*
X74416500Y37200000D01*
G75*
G02*
X73966500Y37650000I0J450000D01*
G01*
G37*
%TD*%
%TO.C,REF\u002A\u002A*%
G36*
G01*
X71426500Y37650000D02*
X71426500Y38550000D01*
G75*
G02*
X71876500Y39000000I450000J0D01*
G01*
X72776500Y39000000D01*
G75*
G02*
X73226500Y38550000I0J-450000D01*
G01*
X73226500Y37650000D01*
G75*
G02*
X72776500Y37200000I-450000J0D01*
G01*
X71876500Y37200000D01*
G75*
G02*
X71426500Y37650000I0J450000D01*
G01*
G37*
%TD*%
%TO.C,REF\u002A\u002A*%
G36*
G01*
X68886500Y37650000D02*
X68886500Y38550000D01*
G75*
G02*
X69336500Y39000000I450000J0D01*
G01*
X70236500Y39000000D01*
G75*
G02*
X70686500Y38550000I0J-450000D01*
G01*
X70686500Y37650000D01*
G75*
G02*
X70236500Y37200000I-450000J0D01*
G01*
X69336500Y37200000D01*
G75*
G02*
X68886500Y37650000I0J450000D01*
G01*
G37*
%TD*%
%TO.C,REF\u002A\u002A*%
G36*
G01*
X66346500Y37650000D02*
X66346500Y38550000D01*
G75*
G02*
X66796500Y39000000I450000J0D01*
G01*
X67696500Y39000000D01*
G75*
G02*
X68146500Y38550000I0J-450000D01*
G01*
X68146500Y37650000D01*
G75*
G02*
X67696500Y37200000I-450000J0D01*
G01*
X66796500Y37200000D01*
G75*
G02*
X66346500Y37650000I0J450000D01*
G01*
G37*
%TD*%
%TO.C,REF\u002A\u002A*%
G36*
G01*
X63806500Y37650000D02*
X63806500Y38550000D01*
G75*
G02*
X64256500Y39000000I450000J0D01*
G01*
X65156500Y39000000D01*
G75*
G02*
X65606500Y38550000I0J-450000D01*
G01*
X65606500Y37650000D01*
G75*
G02*
X65156500Y37200000I-450000J0D01*
G01*
X64256500Y37200000D01*
G75*
G02*
X63806500Y37650000I0J450000D01*
G01*
G37*
%TD*%
%TO.C,REF\u002A\u002A*%
G36*
G01*
X61266500Y37650000D02*
X61266500Y38550000D01*
G75*
G02*
X61716500Y39000000I450000J0D01*
G01*
X62616500Y39000000D01*
G75*
G02*
X63066500Y38550000I0J-450000D01*
G01*
X63066500Y37650000D01*
G75*
G02*
X62616500Y37200000I-450000J0D01*
G01*
X61716500Y37200000D01*
G75*
G02*
X61266500Y37650000I0J450000D01*
G01*
G37*
%TD*%
%TO.C,REF\u002A\u002A*%
G36*
G01*
X58726500Y37650000D02*
X58726500Y38550000D01*
G75*
G02*
X59176500Y39000000I450000J0D01*
G01*
X60076500Y39000000D01*
G75*
G02*
X60526500Y38550000I0J-450000D01*
G01*
X60526500Y37650000D01*
G75*
G02*
X60076500Y37200000I-450000J0D01*
G01*
X59176500Y37200000D01*
G75*
G02*
X58726500Y37650000I0J450000D01*
G01*
G37*
%TD*%
%TO.C,REF\u002A\u002A*%
G36*
G01*
X56186500Y37650000D02*
X56186500Y38550000D01*
G75*
G02*
X56636500Y39000000I450000J0D01*
G01*
X57536500Y39000000D01*
G75*
G02*
X57986500Y38550000I0J-450000D01*
G01*
X57986500Y37650000D01*
G75*
G02*
X57536500Y37200000I-450000J0D01*
G01*
X56636500Y37200000D01*
G75*
G02*
X56186500Y37650000I0J450000D01*
G01*
G37*
%TD*%
%TO.C,REF\u002A\u002A*%
G36*
G01*
X53646500Y37650000D02*
X53646500Y38550000D01*
G75*
G02*
X54096500Y39000000I450000J0D01*
G01*
X54996500Y39000000D01*
G75*
G02*
X55446500Y38550000I0J-450000D01*
G01*
X55446500Y37650000D01*
G75*
G02*
X54996500Y37200000I-450000J0D01*
G01*
X54096500Y37200000D01*
G75*
G02*
X53646500Y37650000I0J450000D01*
G01*
G37*
%TD*%
%TO.C,REF\u002A\u002A*%
G36*
G01*
X51106500Y37650000D02*
X51106500Y38550000D01*
G75*
G02*
X51556500Y39000000I450000J0D01*
G01*
X52456500Y39000000D01*
G75*
G02*
X52906500Y38550000I0J-450000D01*
G01*
X52906500Y37650000D01*
G75*
G02*
X52456500Y37200000I-450000J0D01*
G01*
X51556500Y37200000D01*
G75*
G02*
X51106500Y37650000I0J450000D01*
G01*
G37*
%TD*%
%TO.C,REF\u002A\u002A*%
G36*
G01*
X48566500Y37650000D02*
X48566500Y38550000D01*
G75*
G02*
X49016500Y39000000I450000J0D01*
G01*
X49916500Y39000000D01*
G75*
G02*
X50366500Y38550000I0J-450000D01*
G01*
X50366500Y37650000D01*
G75*
G02*
X49916500Y37200000I-450000J0D01*
G01*
X49016500Y37200000D01*
G75*
G02*
X48566500Y37650000I0J450000D01*
G01*
G37*
%TD*%
%TO.C,REF\u002A\u002A*%
G36*
G01*
X46026500Y37650000D02*
X46026500Y38550000D01*
G75*
G02*
X46476500Y39000000I450000J0D01*
G01*
X47376500Y39000000D01*
G75*
G02*
X47826500Y38550000I0J-450000D01*
G01*
X47826500Y37650000D01*
G75*
G02*
X47376500Y37200000I-450000J0D01*
G01*
X46476500Y37200000D01*
G75*
G02*
X46026500Y37650000I0J450000D01*
G01*
G37*
%TD*%
%TO.C,REF\u002A\u002A*%
G36*
G01*
X43486500Y37650000D02*
X43486500Y38550000D01*
G75*
G02*
X43936500Y39000000I450000J0D01*
G01*
X44836500Y39000000D01*
G75*
G02*
X45286500Y38550000I0J-450000D01*
G01*
X45286500Y37650000D01*
G75*
G02*
X44836500Y37200000I-450000J0D01*
G01*
X43936500Y37200000D01*
G75*
G02*
X43486500Y37650000I0J450000D01*
G01*
G37*
%TD*%
%TO.C,REF\u002A\u002A*%
G36*
G01*
X40946500Y37650000D02*
X40946500Y38550000D01*
G75*
G02*
X41396500Y39000000I450000J0D01*
G01*
X42296500Y39000000D01*
G75*
G02*
X42746500Y38550000I0J-450000D01*
G01*
X42746500Y37650000D01*
G75*
G02*
X42296500Y37200000I-450000J0D01*
G01*
X41396500Y37200000D01*
G75*
G02*
X40946500Y37650000I0J450000D01*
G01*
G37*
%TD*%
%TO.C,REF\u002A\u002A*%
G36*
G01*
X38406500Y37650000D02*
X38406500Y38550000D01*
G75*
G02*
X38856500Y39000000I450000J0D01*
G01*
X39756500Y39000000D01*
G75*
G02*
X40206500Y38550000I0J-450000D01*
G01*
X40206500Y37650000D01*
G75*
G02*
X39756500Y37200000I-450000J0D01*
G01*
X38856500Y37200000D01*
G75*
G02*
X38406500Y37650000I0J450000D01*
G01*
G37*
%TD*%
%TO.C,REF\u002A\u002A*%
G36*
G01*
X35866500Y37650000D02*
X35866500Y38550000D01*
G75*
G02*
X36316500Y39000000I450000J0D01*
G01*
X37216500Y39000000D01*
G75*
G02*
X37666500Y38550000I0J-450000D01*
G01*
X37666500Y37650000D01*
G75*
G02*
X37216500Y37200000I-450000J0D01*
G01*
X36316500Y37200000D01*
G75*
G02*
X35866500Y37650000I0J450000D01*
G01*
G37*
%TD*%
%TO.C,REF\u002A\u002A*%
G36*
G01*
X33326500Y37650000D02*
X33326500Y38550000D01*
G75*
G02*
X33776500Y39000000I450000J0D01*
G01*
X34676500Y39000000D01*
G75*
G02*
X35126500Y38550000I0J-450000D01*
G01*
X35126500Y37650000D01*
G75*
G02*
X34676500Y37200000I-450000J0D01*
G01*
X33776500Y37200000D01*
G75*
G02*
X33326500Y37650000I0J450000D01*
G01*
G37*
%TD*%
%TO.C,REF\u002A\u002A*%
G36*
G01*
X30786500Y37650000D02*
X30786500Y38550000D01*
G75*
G02*
X31236500Y39000000I450000J0D01*
G01*
X32136500Y39000000D01*
G75*
G02*
X32586500Y38550000I0J-450000D01*
G01*
X32586500Y37650000D01*
G75*
G02*
X32136500Y37200000I-450000J0D01*
G01*
X31236500Y37200000D01*
G75*
G02*
X30786500Y37650000I0J450000D01*
G01*
G37*
%TD*%
%TO.C,REF\u002A\u002A*%
G36*
G01*
X28246500Y37650000D02*
X28246500Y38550000D01*
G75*
G02*
X28696500Y39000000I450000J0D01*
G01*
X29596500Y39000000D01*
G75*
G02*
X30046500Y38550000I0J-450000D01*
G01*
X30046500Y37650000D01*
G75*
G02*
X29596500Y37200000I-450000J0D01*
G01*
X28696500Y37200000D01*
G75*
G02*
X28246500Y37650000I0J450000D01*
G01*
G37*
%TD*%
%TO.C,REF\u002A\u002A*%
G36*
G01*
X25706500Y37650000D02*
X25706500Y38550000D01*
G75*
G02*
X26156500Y39000000I450000J0D01*
G01*
X27056500Y39000000D01*
G75*
G02*
X27506500Y38550000I0J-450000D01*
G01*
X27506500Y37650000D01*
G75*
G02*
X27056500Y37200000I-450000J0D01*
G01*
X26156500Y37200000D01*
G75*
G02*
X25706500Y37650000I0J450000D01*
G01*
G37*
%TD*%
%TO.C,REF\u002A\u002A*%
G36*
G01*
X23166500Y37650000D02*
X23166500Y38550000D01*
G75*
G02*
X23616500Y39000000I450000J0D01*
G01*
X24516500Y39000000D01*
G75*
G02*
X24966500Y38550000I0J-450000D01*
G01*
X24966500Y37650000D01*
G75*
G02*
X24516500Y37200000I-450000J0D01*
G01*
X23616500Y37200000D01*
G75*
G02*
X23166500Y37650000I0J450000D01*
G01*
G37*
%TD*%
%TO.C,REF\u002A\u002A*%
G36*
G01*
X20626500Y37650000D02*
X20626500Y38550000D01*
G75*
G02*
X21076500Y39000000I450000J0D01*
G01*
X21976500Y39000000D01*
G75*
G02*
X22426500Y38550000I0J-450000D01*
G01*
X22426500Y37650000D01*
G75*
G02*
X21976500Y37200000I-450000J0D01*
G01*
X21076500Y37200000D01*
G75*
G02*
X20626500Y37650000I0J450000D01*
G01*
G37*
%TD*%
%TO.C,REF\u002A\u002A*%
G36*
G01*
X18086500Y37650000D02*
X18086500Y38550000D01*
G75*
G02*
X18536500Y39000000I450000J0D01*
G01*
X19436500Y39000000D01*
G75*
G02*
X19886500Y38550000I0J-450000D01*
G01*
X19886500Y37650000D01*
G75*
G02*
X19436500Y37200000I-450000J0D01*
G01*
X18536500Y37200000D01*
G75*
G02*
X18086500Y37650000I0J450000D01*
G01*
G37*
%TD*%
%TO.C,REF\u002A\u002A*%
G36*
G01*
X15546500Y37650000D02*
X15546500Y38550000D01*
G75*
G02*
X15996500Y39000000I450000J0D01*
G01*
X16896500Y39000000D01*
G75*
G02*
X17346500Y38550000I0J-450000D01*
G01*
X17346500Y37650000D01*
G75*
G02*
X16896500Y37200000I-450000J0D01*
G01*
X15996500Y37200000D01*
G75*
G02*
X15546500Y37650000I0J450000D01*
G01*
G37*
%TD*%
%TO.C,REF\u002A\u002A*%
G36*
G01*
X13006500Y37650000D02*
X13006500Y38550000D01*
G75*
G02*
X13456500Y39000000I450000J0D01*
G01*
X14356500Y39000000D01*
G75*
G02*
X14806500Y38550000I0J-450000D01*
G01*
X14806500Y37650000D01*
G75*
G02*
X14356500Y37200000I-450000J0D01*
G01*
X13456500Y37200000D01*
G75*
G02*
X13006500Y37650000I0J450000D01*
G01*
G37*
%TD*%
%TO.C,REF\u002A\u002A*%
G36*
G01*
X10466500Y37650000D02*
X10466500Y38550000D01*
G75*
G02*
X10916500Y39000000I450000J0D01*
G01*
X11816500Y39000000D01*
G75*
G02*
X12266500Y38550000I0J-450000D01*
G01*
X12266500Y37650000D01*
G75*
G02*
X11816500Y37200000I-450000J0D01*
G01*
X10916500Y37200000D01*
G75*
G02*
X10466500Y37650000I0J450000D01*
G01*
G37*
%TD*%
%TO.C,REF\u002A\u002A*%
G36*
G01*
X7926500Y37650000D02*
X7926500Y38550000D01*
G75*
G02*
X8376500Y39000000I450000J0D01*
G01*
X9276500Y39000000D01*
G75*
G02*
X9726500Y38550000I0J-450000D01*
G01*
X9726500Y37650000D01*
G75*
G02*
X9276500Y37200000I-450000J0D01*
G01*
X8376500Y37200000D01*
G75*
G02*
X7926500Y37650000I0J450000D01*
G01*
G37*
%TD*%
%TO.C,REF\u002A\u002A*%
G36*
G01*
X5386500Y37650000D02*
X5386500Y38550000D01*
G75*
G02*
X5836500Y39000000I450000J0D01*
G01*
X6736500Y39000000D01*
G75*
G02*
X7186500Y38550000I0J-450000D01*
G01*
X7186500Y37650000D01*
G75*
G02*
X6736500Y37200000I-450000J0D01*
G01*
X5836500Y37200000D01*
G75*
G02*
X5386500Y37650000I0J450000D01*
G01*
G37*
%TD*%
%TO.C,REF\u002A\u002A*%
G36*
G01*
X2846500Y37650000D02*
X2846500Y38550000D01*
G75*
G02*
X3296500Y39000000I450000J0D01*
G01*
X4196500Y39000000D01*
G75*
G02*
X4646500Y38550000I0J-450000D01*
G01*
X4646500Y37650000D01*
G75*
G02*
X4196500Y37200000I-450000J0D01*
G01*
X3296500Y37200000D01*
G75*
G02*
X2846500Y37650000I0J450000D01*
G01*
G37*
%TD*%
%TO.C,REF\u002A\u002A*%
G36*
G01*
X76506500Y40190000D02*
X76506500Y41090000D01*
G75*
G02*
X76956500Y41540000I450000J0D01*
G01*
X77856500Y41540000D01*
G75*
G02*
X78306500Y41090000I0J-450000D01*
G01*
X78306500Y40190000D01*
G75*
G02*
X77856500Y39740000I-450000J0D01*
G01*
X76956500Y39740000D01*
G75*
G02*
X76506500Y40190000I0J450000D01*
G01*
G37*
%TD*%
%TO.C,REF\u002A\u002A*%
G36*
G01*
X73966500Y40190000D02*
X73966500Y41090000D01*
G75*
G02*
X74416500Y41540000I450000J0D01*
G01*
X75316500Y41540000D01*
G75*
G02*
X75766500Y41090000I0J-450000D01*
G01*
X75766500Y40190000D01*
G75*
G02*
X75316500Y39740000I-450000J0D01*
G01*
X74416500Y39740000D01*
G75*
G02*
X73966500Y40190000I0J450000D01*
G01*
G37*
%TD*%
%TO.C,REF\u002A\u002A*%
G36*
G01*
X71426500Y40190000D02*
X71426500Y41090000D01*
G75*
G02*
X71876500Y41540000I450000J0D01*
G01*
X72776500Y41540000D01*
G75*
G02*
X73226500Y41090000I0J-450000D01*
G01*
X73226500Y40190000D01*
G75*
G02*
X72776500Y39740000I-450000J0D01*
G01*
X71876500Y39740000D01*
G75*
G02*
X71426500Y40190000I0J450000D01*
G01*
G37*
%TD*%
%TO.C,REF\u002A\u002A*%
G36*
G01*
X68886500Y40190000D02*
X68886500Y41090000D01*
G75*
G02*
X69336500Y41540000I450000J0D01*
G01*
X70236500Y41540000D01*
G75*
G02*
X70686500Y41090000I0J-450000D01*
G01*
X70686500Y40190000D01*
G75*
G02*
X70236500Y39740000I-450000J0D01*
G01*
X69336500Y39740000D01*
G75*
G02*
X68886500Y40190000I0J450000D01*
G01*
G37*
%TD*%
%TO.C,REF\u002A\u002A*%
G36*
G01*
X66346500Y40190000D02*
X66346500Y41090000D01*
G75*
G02*
X66796500Y41540000I450000J0D01*
G01*
X67696500Y41540000D01*
G75*
G02*
X68146500Y41090000I0J-450000D01*
G01*
X68146500Y40190000D01*
G75*
G02*
X67696500Y39740000I-450000J0D01*
G01*
X66796500Y39740000D01*
G75*
G02*
X66346500Y40190000I0J450000D01*
G01*
G37*
%TD*%
%TO.C,REF\u002A\u002A*%
G36*
G01*
X63806500Y40190000D02*
X63806500Y41090000D01*
G75*
G02*
X64256500Y41540000I450000J0D01*
G01*
X65156500Y41540000D01*
G75*
G02*
X65606500Y41090000I0J-450000D01*
G01*
X65606500Y40190000D01*
G75*
G02*
X65156500Y39740000I-450000J0D01*
G01*
X64256500Y39740000D01*
G75*
G02*
X63806500Y40190000I0J450000D01*
G01*
G37*
%TD*%
%TO.C,REF\u002A\u002A*%
G36*
G01*
X61266500Y40190000D02*
X61266500Y41090000D01*
G75*
G02*
X61716500Y41540000I450000J0D01*
G01*
X62616500Y41540000D01*
G75*
G02*
X63066500Y41090000I0J-450000D01*
G01*
X63066500Y40190000D01*
G75*
G02*
X62616500Y39740000I-450000J0D01*
G01*
X61716500Y39740000D01*
G75*
G02*
X61266500Y40190000I0J450000D01*
G01*
G37*
%TD*%
%TO.C,REF\u002A\u002A*%
G36*
G01*
X58726500Y40190000D02*
X58726500Y41090000D01*
G75*
G02*
X59176500Y41540000I450000J0D01*
G01*
X60076500Y41540000D01*
G75*
G02*
X60526500Y41090000I0J-450000D01*
G01*
X60526500Y40190000D01*
G75*
G02*
X60076500Y39740000I-450000J0D01*
G01*
X59176500Y39740000D01*
G75*
G02*
X58726500Y40190000I0J450000D01*
G01*
G37*
%TD*%
%TO.C,REF\u002A\u002A*%
G36*
G01*
X56186500Y40190000D02*
X56186500Y41090000D01*
G75*
G02*
X56636500Y41540000I450000J0D01*
G01*
X57536500Y41540000D01*
G75*
G02*
X57986500Y41090000I0J-450000D01*
G01*
X57986500Y40190000D01*
G75*
G02*
X57536500Y39740000I-450000J0D01*
G01*
X56636500Y39740000D01*
G75*
G02*
X56186500Y40190000I0J450000D01*
G01*
G37*
%TD*%
%TO.C,REF\u002A\u002A*%
G36*
G01*
X53646500Y40190000D02*
X53646500Y41090000D01*
G75*
G02*
X54096500Y41540000I450000J0D01*
G01*
X54996500Y41540000D01*
G75*
G02*
X55446500Y41090000I0J-450000D01*
G01*
X55446500Y40190000D01*
G75*
G02*
X54996500Y39740000I-450000J0D01*
G01*
X54096500Y39740000D01*
G75*
G02*
X53646500Y40190000I0J450000D01*
G01*
G37*
%TD*%
%TO.C,REF\u002A\u002A*%
G36*
G01*
X51106500Y40190000D02*
X51106500Y41090000D01*
G75*
G02*
X51556500Y41540000I450000J0D01*
G01*
X52456500Y41540000D01*
G75*
G02*
X52906500Y41090000I0J-450000D01*
G01*
X52906500Y40190000D01*
G75*
G02*
X52456500Y39740000I-450000J0D01*
G01*
X51556500Y39740000D01*
G75*
G02*
X51106500Y40190000I0J450000D01*
G01*
G37*
%TD*%
%TO.C,REF\u002A\u002A*%
G36*
G01*
X48566500Y40190000D02*
X48566500Y41090000D01*
G75*
G02*
X49016500Y41540000I450000J0D01*
G01*
X49916500Y41540000D01*
G75*
G02*
X50366500Y41090000I0J-450000D01*
G01*
X50366500Y40190000D01*
G75*
G02*
X49916500Y39740000I-450000J0D01*
G01*
X49016500Y39740000D01*
G75*
G02*
X48566500Y40190000I0J450000D01*
G01*
G37*
%TD*%
%TO.C,REF\u002A\u002A*%
G36*
G01*
X46026500Y40190000D02*
X46026500Y41090000D01*
G75*
G02*
X46476500Y41540000I450000J0D01*
G01*
X47376500Y41540000D01*
G75*
G02*
X47826500Y41090000I0J-450000D01*
G01*
X47826500Y40190000D01*
G75*
G02*
X47376500Y39740000I-450000J0D01*
G01*
X46476500Y39740000D01*
G75*
G02*
X46026500Y40190000I0J450000D01*
G01*
G37*
%TD*%
%TO.C,REF\u002A\u002A*%
G36*
G01*
X43486500Y40190000D02*
X43486500Y41090000D01*
G75*
G02*
X43936500Y41540000I450000J0D01*
G01*
X44836500Y41540000D01*
G75*
G02*
X45286500Y41090000I0J-450000D01*
G01*
X45286500Y40190000D01*
G75*
G02*
X44836500Y39740000I-450000J0D01*
G01*
X43936500Y39740000D01*
G75*
G02*
X43486500Y40190000I0J450000D01*
G01*
G37*
%TD*%
%TO.C,REF\u002A\u002A*%
G36*
G01*
X40946500Y40190000D02*
X40946500Y41090000D01*
G75*
G02*
X41396500Y41540000I450000J0D01*
G01*
X42296500Y41540000D01*
G75*
G02*
X42746500Y41090000I0J-450000D01*
G01*
X42746500Y40190000D01*
G75*
G02*
X42296500Y39740000I-450000J0D01*
G01*
X41396500Y39740000D01*
G75*
G02*
X40946500Y40190000I0J450000D01*
G01*
G37*
%TD*%
%TO.C,REF\u002A\u002A*%
G36*
G01*
X38406500Y40190000D02*
X38406500Y41090000D01*
G75*
G02*
X38856500Y41540000I450000J0D01*
G01*
X39756500Y41540000D01*
G75*
G02*
X40206500Y41090000I0J-450000D01*
G01*
X40206500Y40190000D01*
G75*
G02*
X39756500Y39740000I-450000J0D01*
G01*
X38856500Y39740000D01*
G75*
G02*
X38406500Y40190000I0J450000D01*
G01*
G37*
%TD*%
%TO.C,REF\u002A\u002A*%
G36*
G01*
X35866500Y40190000D02*
X35866500Y41090000D01*
G75*
G02*
X36316500Y41540000I450000J0D01*
G01*
X37216500Y41540000D01*
G75*
G02*
X37666500Y41090000I0J-450000D01*
G01*
X37666500Y40190000D01*
G75*
G02*
X37216500Y39740000I-450000J0D01*
G01*
X36316500Y39740000D01*
G75*
G02*
X35866500Y40190000I0J450000D01*
G01*
G37*
%TD*%
%TO.C,REF\u002A\u002A*%
G36*
G01*
X33326500Y40190000D02*
X33326500Y41090000D01*
G75*
G02*
X33776500Y41540000I450000J0D01*
G01*
X34676500Y41540000D01*
G75*
G02*
X35126500Y41090000I0J-450000D01*
G01*
X35126500Y40190000D01*
G75*
G02*
X34676500Y39740000I-450000J0D01*
G01*
X33776500Y39740000D01*
G75*
G02*
X33326500Y40190000I0J450000D01*
G01*
G37*
%TD*%
%TO.C,REF\u002A\u002A*%
G36*
G01*
X30786500Y40190000D02*
X30786500Y41090000D01*
G75*
G02*
X31236500Y41540000I450000J0D01*
G01*
X32136500Y41540000D01*
G75*
G02*
X32586500Y41090000I0J-450000D01*
G01*
X32586500Y40190000D01*
G75*
G02*
X32136500Y39740000I-450000J0D01*
G01*
X31236500Y39740000D01*
G75*
G02*
X30786500Y40190000I0J450000D01*
G01*
G37*
%TD*%
%TO.C,REF\u002A\u002A*%
G36*
G01*
X28246500Y40190000D02*
X28246500Y41090000D01*
G75*
G02*
X28696500Y41540000I450000J0D01*
G01*
X29596500Y41540000D01*
G75*
G02*
X30046500Y41090000I0J-450000D01*
G01*
X30046500Y40190000D01*
G75*
G02*
X29596500Y39740000I-450000J0D01*
G01*
X28696500Y39740000D01*
G75*
G02*
X28246500Y40190000I0J450000D01*
G01*
G37*
%TD*%
%TO.C,REF\u002A\u002A*%
G36*
G01*
X25706500Y40190000D02*
X25706500Y41090000D01*
G75*
G02*
X26156500Y41540000I450000J0D01*
G01*
X27056500Y41540000D01*
G75*
G02*
X27506500Y41090000I0J-450000D01*
G01*
X27506500Y40190000D01*
G75*
G02*
X27056500Y39740000I-450000J0D01*
G01*
X26156500Y39740000D01*
G75*
G02*
X25706500Y40190000I0J450000D01*
G01*
G37*
%TD*%
%TO.C,REF\u002A\u002A*%
G36*
G01*
X23166500Y40190000D02*
X23166500Y41090000D01*
G75*
G02*
X23616500Y41540000I450000J0D01*
G01*
X24516500Y41540000D01*
G75*
G02*
X24966500Y41090000I0J-450000D01*
G01*
X24966500Y40190000D01*
G75*
G02*
X24516500Y39740000I-450000J0D01*
G01*
X23616500Y39740000D01*
G75*
G02*
X23166500Y40190000I0J450000D01*
G01*
G37*
%TD*%
%TO.C,REF\u002A\u002A*%
G36*
G01*
X20626500Y40190000D02*
X20626500Y41090000D01*
G75*
G02*
X21076500Y41540000I450000J0D01*
G01*
X21976500Y41540000D01*
G75*
G02*
X22426500Y41090000I0J-450000D01*
G01*
X22426500Y40190000D01*
G75*
G02*
X21976500Y39740000I-450000J0D01*
G01*
X21076500Y39740000D01*
G75*
G02*
X20626500Y40190000I0J450000D01*
G01*
G37*
%TD*%
%TO.C,REF\u002A\u002A*%
G36*
G01*
X18086500Y40190000D02*
X18086500Y41090000D01*
G75*
G02*
X18536500Y41540000I450000J0D01*
G01*
X19436500Y41540000D01*
G75*
G02*
X19886500Y41090000I0J-450000D01*
G01*
X19886500Y40190000D01*
G75*
G02*
X19436500Y39740000I-450000J0D01*
G01*
X18536500Y39740000D01*
G75*
G02*
X18086500Y40190000I0J450000D01*
G01*
G37*
%TD*%
%TO.C,REF\u002A\u002A*%
G36*
G01*
X15546500Y40190000D02*
X15546500Y41090000D01*
G75*
G02*
X15996500Y41540000I450000J0D01*
G01*
X16896500Y41540000D01*
G75*
G02*
X17346500Y41090000I0J-450000D01*
G01*
X17346500Y40190000D01*
G75*
G02*
X16896500Y39740000I-450000J0D01*
G01*
X15996500Y39740000D01*
G75*
G02*
X15546500Y40190000I0J450000D01*
G01*
G37*
%TD*%
%TO.C,REF\u002A\u002A*%
G36*
G01*
X13006500Y40190000D02*
X13006500Y41090000D01*
G75*
G02*
X13456500Y41540000I450000J0D01*
G01*
X14356500Y41540000D01*
G75*
G02*
X14806500Y41090000I0J-450000D01*
G01*
X14806500Y40190000D01*
G75*
G02*
X14356500Y39740000I-450000J0D01*
G01*
X13456500Y39740000D01*
G75*
G02*
X13006500Y40190000I0J450000D01*
G01*
G37*
%TD*%
%TO.C,REF\u002A\u002A*%
G36*
G01*
X10466500Y40190000D02*
X10466500Y41090000D01*
G75*
G02*
X10916500Y41540000I450000J0D01*
G01*
X11816500Y41540000D01*
G75*
G02*
X12266500Y41090000I0J-450000D01*
G01*
X12266500Y40190000D01*
G75*
G02*
X11816500Y39740000I-450000J0D01*
G01*
X10916500Y39740000D01*
G75*
G02*
X10466500Y40190000I0J450000D01*
G01*
G37*
%TD*%
%TO.C,REF\u002A\u002A*%
G36*
G01*
X7926500Y40190000D02*
X7926500Y41090000D01*
G75*
G02*
X8376500Y41540000I450000J0D01*
G01*
X9276500Y41540000D01*
G75*
G02*
X9726500Y41090000I0J-450000D01*
G01*
X9726500Y40190000D01*
G75*
G02*
X9276500Y39740000I-450000J0D01*
G01*
X8376500Y39740000D01*
G75*
G02*
X7926500Y40190000I0J450000D01*
G01*
G37*
%TD*%
%TO.C,REF\u002A\u002A*%
G36*
G01*
X5386500Y40190000D02*
X5386500Y41090000D01*
G75*
G02*
X5836500Y41540000I450000J0D01*
G01*
X6736500Y41540000D01*
G75*
G02*
X7186500Y41090000I0J-450000D01*
G01*
X7186500Y40190000D01*
G75*
G02*
X6736500Y39740000I-450000J0D01*
G01*
X5836500Y39740000D01*
G75*
G02*
X5386500Y40190000I0J450000D01*
G01*
G37*
%TD*%
%TO.C,REF\u002A\u002A*%
G36*
G01*
X2846500Y40190000D02*
X2846500Y41090000D01*
G75*
G02*
X3296500Y41540000I450000J0D01*
G01*
X4196500Y41540000D01*
G75*
G02*
X4646500Y41090000I0J-450000D01*
G01*
X4646500Y40190000D01*
G75*
G02*
X4196500Y39740000I-450000J0D01*
G01*
X3296500Y39740000D01*
G75*
G02*
X2846500Y40190000I0J450000D01*
G01*
G37*
%TD*%
%TO.C,REF\u002A\u002A*%
G36*
G01*
X76506500Y42730000D02*
X76506500Y43630000D01*
G75*
G02*
X76956500Y44080000I450000J0D01*
G01*
X77856500Y44080000D01*
G75*
G02*
X78306500Y43630000I0J-450000D01*
G01*
X78306500Y42730000D01*
G75*
G02*
X77856500Y42280000I-450000J0D01*
G01*
X76956500Y42280000D01*
G75*
G02*
X76506500Y42730000I0J450000D01*
G01*
G37*
%TD*%
%TO.C,REF\u002A\u002A*%
G36*
G01*
X73966500Y42730000D02*
X73966500Y43630000D01*
G75*
G02*
X74416500Y44080000I450000J0D01*
G01*
X75316500Y44080000D01*
G75*
G02*
X75766500Y43630000I0J-450000D01*
G01*
X75766500Y42730000D01*
G75*
G02*
X75316500Y42280000I-450000J0D01*
G01*
X74416500Y42280000D01*
G75*
G02*
X73966500Y42730000I0J450000D01*
G01*
G37*
%TD*%
%TO.C,REF\u002A\u002A*%
G36*
G01*
X71426500Y42730000D02*
X71426500Y43630000D01*
G75*
G02*
X71876500Y44080000I450000J0D01*
G01*
X72776500Y44080000D01*
G75*
G02*
X73226500Y43630000I0J-450000D01*
G01*
X73226500Y42730000D01*
G75*
G02*
X72776500Y42280000I-450000J0D01*
G01*
X71876500Y42280000D01*
G75*
G02*
X71426500Y42730000I0J450000D01*
G01*
G37*
%TD*%
%TO.C,REF\u002A\u002A*%
G36*
G01*
X68886500Y42730000D02*
X68886500Y43630000D01*
G75*
G02*
X69336500Y44080000I450000J0D01*
G01*
X70236500Y44080000D01*
G75*
G02*
X70686500Y43630000I0J-450000D01*
G01*
X70686500Y42730000D01*
G75*
G02*
X70236500Y42280000I-450000J0D01*
G01*
X69336500Y42280000D01*
G75*
G02*
X68886500Y42730000I0J450000D01*
G01*
G37*
%TD*%
%TO.C,REF\u002A\u002A*%
G36*
G01*
X66346500Y42730000D02*
X66346500Y43630000D01*
G75*
G02*
X66796500Y44080000I450000J0D01*
G01*
X67696500Y44080000D01*
G75*
G02*
X68146500Y43630000I0J-450000D01*
G01*
X68146500Y42730000D01*
G75*
G02*
X67696500Y42280000I-450000J0D01*
G01*
X66796500Y42280000D01*
G75*
G02*
X66346500Y42730000I0J450000D01*
G01*
G37*
%TD*%
%TO.C,REF\u002A\u002A*%
G36*
G01*
X63806500Y42730000D02*
X63806500Y43630000D01*
G75*
G02*
X64256500Y44080000I450000J0D01*
G01*
X65156500Y44080000D01*
G75*
G02*
X65606500Y43630000I0J-450000D01*
G01*
X65606500Y42730000D01*
G75*
G02*
X65156500Y42280000I-450000J0D01*
G01*
X64256500Y42280000D01*
G75*
G02*
X63806500Y42730000I0J450000D01*
G01*
G37*
%TD*%
%TO.C,REF\u002A\u002A*%
G36*
G01*
X61266500Y42730000D02*
X61266500Y43630000D01*
G75*
G02*
X61716500Y44080000I450000J0D01*
G01*
X62616500Y44080000D01*
G75*
G02*
X63066500Y43630000I0J-450000D01*
G01*
X63066500Y42730000D01*
G75*
G02*
X62616500Y42280000I-450000J0D01*
G01*
X61716500Y42280000D01*
G75*
G02*
X61266500Y42730000I0J450000D01*
G01*
G37*
%TD*%
%TO.C,REF\u002A\u002A*%
G36*
G01*
X58726500Y42730000D02*
X58726500Y43630000D01*
G75*
G02*
X59176500Y44080000I450000J0D01*
G01*
X60076500Y44080000D01*
G75*
G02*
X60526500Y43630000I0J-450000D01*
G01*
X60526500Y42730000D01*
G75*
G02*
X60076500Y42280000I-450000J0D01*
G01*
X59176500Y42280000D01*
G75*
G02*
X58726500Y42730000I0J450000D01*
G01*
G37*
%TD*%
%TO.C,REF\u002A\u002A*%
G36*
G01*
X56186500Y42730000D02*
X56186500Y43630000D01*
G75*
G02*
X56636500Y44080000I450000J0D01*
G01*
X57536500Y44080000D01*
G75*
G02*
X57986500Y43630000I0J-450000D01*
G01*
X57986500Y42730000D01*
G75*
G02*
X57536500Y42280000I-450000J0D01*
G01*
X56636500Y42280000D01*
G75*
G02*
X56186500Y42730000I0J450000D01*
G01*
G37*
%TD*%
%TO.C,REF\u002A\u002A*%
G36*
G01*
X53646500Y42730000D02*
X53646500Y43630000D01*
G75*
G02*
X54096500Y44080000I450000J0D01*
G01*
X54996500Y44080000D01*
G75*
G02*
X55446500Y43630000I0J-450000D01*
G01*
X55446500Y42730000D01*
G75*
G02*
X54996500Y42280000I-450000J0D01*
G01*
X54096500Y42280000D01*
G75*
G02*
X53646500Y42730000I0J450000D01*
G01*
G37*
%TD*%
%TO.C,REF\u002A\u002A*%
G36*
G01*
X51106500Y42730000D02*
X51106500Y43630000D01*
G75*
G02*
X51556500Y44080000I450000J0D01*
G01*
X52456500Y44080000D01*
G75*
G02*
X52906500Y43630000I0J-450000D01*
G01*
X52906500Y42730000D01*
G75*
G02*
X52456500Y42280000I-450000J0D01*
G01*
X51556500Y42280000D01*
G75*
G02*
X51106500Y42730000I0J450000D01*
G01*
G37*
%TD*%
%TO.C,REF\u002A\u002A*%
G36*
G01*
X48566500Y42730000D02*
X48566500Y43630000D01*
G75*
G02*
X49016500Y44080000I450000J0D01*
G01*
X49916500Y44080000D01*
G75*
G02*
X50366500Y43630000I0J-450000D01*
G01*
X50366500Y42730000D01*
G75*
G02*
X49916500Y42280000I-450000J0D01*
G01*
X49016500Y42280000D01*
G75*
G02*
X48566500Y42730000I0J450000D01*
G01*
G37*
%TD*%
%TO.C,REF\u002A\u002A*%
G36*
G01*
X46026500Y42730000D02*
X46026500Y43630000D01*
G75*
G02*
X46476500Y44080000I450000J0D01*
G01*
X47376500Y44080000D01*
G75*
G02*
X47826500Y43630000I0J-450000D01*
G01*
X47826500Y42730000D01*
G75*
G02*
X47376500Y42280000I-450000J0D01*
G01*
X46476500Y42280000D01*
G75*
G02*
X46026500Y42730000I0J450000D01*
G01*
G37*
%TD*%
%TO.C,REF\u002A\u002A*%
G36*
G01*
X43486500Y42730000D02*
X43486500Y43630000D01*
G75*
G02*
X43936500Y44080000I450000J0D01*
G01*
X44836500Y44080000D01*
G75*
G02*
X45286500Y43630000I0J-450000D01*
G01*
X45286500Y42730000D01*
G75*
G02*
X44836500Y42280000I-450000J0D01*
G01*
X43936500Y42280000D01*
G75*
G02*
X43486500Y42730000I0J450000D01*
G01*
G37*
%TD*%
%TO.C,REF\u002A\u002A*%
G36*
G01*
X40946500Y42730000D02*
X40946500Y43630000D01*
G75*
G02*
X41396500Y44080000I450000J0D01*
G01*
X42296500Y44080000D01*
G75*
G02*
X42746500Y43630000I0J-450000D01*
G01*
X42746500Y42730000D01*
G75*
G02*
X42296500Y42280000I-450000J0D01*
G01*
X41396500Y42280000D01*
G75*
G02*
X40946500Y42730000I0J450000D01*
G01*
G37*
%TD*%
%TO.C,REF\u002A\u002A*%
G36*
G01*
X38406500Y42730000D02*
X38406500Y43630000D01*
G75*
G02*
X38856500Y44080000I450000J0D01*
G01*
X39756500Y44080000D01*
G75*
G02*
X40206500Y43630000I0J-450000D01*
G01*
X40206500Y42730000D01*
G75*
G02*
X39756500Y42280000I-450000J0D01*
G01*
X38856500Y42280000D01*
G75*
G02*
X38406500Y42730000I0J450000D01*
G01*
G37*
%TD*%
%TO.C,REF\u002A\u002A*%
G36*
G01*
X35866500Y42730000D02*
X35866500Y43630000D01*
G75*
G02*
X36316500Y44080000I450000J0D01*
G01*
X37216500Y44080000D01*
G75*
G02*
X37666500Y43630000I0J-450000D01*
G01*
X37666500Y42730000D01*
G75*
G02*
X37216500Y42280000I-450000J0D01*
G01*
X36316500Y42280000D01*
G75*
G02*
X35866500Y42730000I0J450000D01*
G01*
G37*
%TD*%
%TO.C,REF\u002A\u002A*%
G36*
G01*
X33326500Y42730000D02*
X33326500Y43630000D01*
G75*
G02*
X33776500Y44080000I450000J0D01*
G01*
X34676500Y44080000D01*
G75*
G02*
X35126500Y43630000I0J-450000D01*
G01*
X35126500Y42730000D01*
G75*
G02*
X34676500Y42280000I-450000J0D01*
G01*
X33776500Y42280000D01*
G75*
G02*
X33326500Y42730000I0J450000D01*
G01*
G37*
%TD*%
%TO.C,REF\u002A\u002A*%
G36*
G01*
X30786500Y42730000D02*
X30786500Y43630000D01*
G75*
G02*
X31236500Y44080000I450000J0D01*
G01*
X32136500Y44080000D01*
G75*
G02*
X32586500Y43630000I0J-450000D01*
G01*
X32586500Y42730000D01*
G75*
G02*
X32136500Y42280000I-450000J0D01*
G01*
X31236500Y42280000D01*
G75*
G02*
X30786500Y42730000I0J450000D01*
G01*
G37*
%TD*%
%TO.C,REF\u002A\u002A*%
G36*
G01*
X28246500Y42730000D02*
X28246500Y43630000D01*
G75*
G02*
X28696500Y44080000I450000J0D01*
G01*
X29596500Y44080000D01*
G75*
G02*
X30046500Y43630000I0J-450000D01*
G01*
X30046500Y42730000D01*
G75*
G02*
X29596500Y42280000I-450000J0D01*
G01*
X28696500Y42280000D01*
G75*
G02*
X28246500Y42730000I0J450000D01*
G01*
G37*
%TD*%
%TO.C,REF\u002A\u002A*%
G36*
G01*
X25706500Y42730000D02*
X25706500Y43630000D01*
G75*
G02*
X26156500Y44080000I450000J0D01*
G01*
X27056500Y44080000D01*
G75*
G02*
X27506500Y43630000I0J-450000D01*
G01*
X27506500Y42730000D01*
G75*
G02*
X27056500Y42280000I-450000J0D01*
G01*
X26156500Y42280000D01*
G75*
G02*
X25706500Y42730000I0J450000D01*
G01*
G37*
%TD*%
%TO.C,REF\u002A\u002A*%
G36*
G01*
X23166500Y42730000D02*
X23166500Y43630000D01*
G75*
G02*
X23616500Y44080000I450000J0D01*
G01*
X24516500Y44080000D01*
G75*
G02*
X24966500Y43630000I0J-450000D01*
G01*
X24966500Y42730000D01*
G75*
G02*
X24516500Y42280000I-450000J0D01*
G01*
X23616500Y42280000D01*
G75*
G02*
X23166500Y42730000I0J450000D01*
G01*
G37*
%TD*%
%TO.C,REF\u002A\u002A*%
G36*
G01*
X20626500Y42730000D02*
X20626500Y43630000D01*
G75*
G02*
X21076500Y44080000I450000J0D01*
G01*
X21976500Y44080000D01*
G75*
G02*
X22426500Y43630000I0J-450000D01*
G01*
X22426500Y42730000D01*
G75*
G02*
X21976500Y42280000I-450000J0D01*
G01*
X21076500Y42280000D01*
G75*
G02*
X20626500Y42730000I0J450000D01*
G01*
G37*
%TD*%
%TO.C,REF\u002A\u002A*%
G36*
G01*
X18086500Y42730000D02*
X18086500Y43630000D01*
G75*
G02*
X18536500Y44080000I450000J0D01*
G01*
X19436500Y44080000D01*
G75*
G02*
X19886500Y43630000I0J-450000D01*
G01*
X19886500Y42730000D01*
G75*
G02*
X19436500Y42280000I-450000J0D01*
G01*
X18536500Y42280000D01*
G75*
G02*
X18086500Y42730000I0J450000D01*
G01*
G37*
%TD*%
%TO.C,REF\u002A\u002A*%
G36*
G01*
X15546500Y42730000D02*
X15546500Y43630000D01*
G75*
G02*
X15996500Y44080000I450000J0D01*
G01*
X16896500Y44080000D01*
G75*
G02*
X17346500Y43630000I0J-450000D01*
G01*
X17346500Y42730000D01*
G75*
G02*
X16896500Y42280000I-450000J0D01*
G01*
X15996500Y42280000D01*
G75*
G02*
X15546500Y42730000I0J450000D01*
G01*
G37*
%TD*%
%TO.C,REF\u002A\u002A*%
G36*
G01*
X13006500Y42730000D02*
X13006500Y43630000D01*
G75*
G02*
X13456500Y44080000I450000J0D01*
G01*
X14356500Y44080000D01*
G75*
G02*
X14806500Y43630000I0J-450000D01*
G01*
X14806500Y42730000D01*
G75*
G02*
X14356500Y42280000I-450000J0D01*
G01*
X13456500Y42280000D01*
G75*
G02*
X13006500Y42730000I0J450000D01*
G01*
G37*
%TD*%
%TO.C,REF\u002A\u002A*%
G36*
G01*
X10466500Y42730000D02*
X10466500Y43630000D01*
G75*
G02*
X10916500Y44080000I450000J0D01*
G01*
X11816500Y44080000D01*
G75*
G02*
X12266500Y43630000I0J-450000D01*
G01*
X12266500Y42730000D01*
G75*
G02*
X11816500Y42280000I-450000J0D01*
G01*
X10916500Y42280000D01*
G75*
G02*
X10466500Y42730000I0J450000D01*
G01*
G37*
%TD*%
%TO.C,REF\u002A\u002A*%
G36*
G01*
X7926500Y42730000D02*
X7926500Y43630000D01*
G75*
G02*
X8376500Y44080000I450000J0D01*
G01*
X9276500Y44080000D01*
G75*
G02*
X9726500Y43630000I0J-450000D01*
G01*
X9726500Y42730000D01*
G75*
G02*
X9276500Y42280000I-450000J0D01*
G01*
X8376500Y42280000D01*
G75*
G02*
X7926500Y42730000I0J450000D01*
G01*
G37*
%TD*%
%TO.C,REF\u002A\u002A*%
G36*
G01*
X5386500Y42730000D02*
X5386500Y43630000D01*
G75*
G02*
X5836500Y44080000I450000J0D01*
G01*
X6736500Y44080000D01*
G75*
G02*
X7186500Y43630000I0J-450000D01*
G01*
X7186500Y42730000D01*
G75*
G02*
X6736500Y42280000I-450000J0D01*
G01*
X5836500Y42280000D01*
G75*
G02*
X5386500Y42730000I0J450000D01*
G01*
G37*
%TD*%
%TO.C,REF\u002A\u002A*%
G36*
G01*
X2846500Y42730000D02*
X2846500Y43630000D01*
G75*
G02*
X3296500Y44080000I450000J0D01*
G01*
X4196500Y44080000D01*
G75*
G02*
X4646500Y43630000I0J-450000D01*
G01*
X4646500Y42730000D01*
G75*
G02*
X4196500Y42280000I-450000J0D01*
G01*
X3296500Y42280000D01*
G75*
G02*
X2846500Y42730000I0J450000D01*
G01*
G37*
%TD*%
%TO.C,REF\u002A\u002A*%
G36*
G01*
X76506500Y45270000D02*
X76506500Y46170000D01*
G75*
G02*
X76956500Y46620000I450000J0D01*
G01*
X77856500Y46620000D01*
G75*
G02*
X78306500Y46170000I0J-450000D01*
G01*
X78306500Y45270000D01*
G75*
G02*
X77856500Y44820000I-450000J0D01*
G01*
X76956500Y44820000D01*
G75*
G02*
X76506500Y45270000I0J450000D01*
G01*
G37*
%TD*%
%TO.C,REF\u002A\u002A*%
G36*
G01*
X73966500Y45270000D02*
X73966500Y46170000D01*
G75*
G02*
X74416500Y46620000I450000J0D01*
G01*
X75316500Y46620000D01*
G75*
G02*
X75766500Y46170000I0J-450000D01*
G01*
X75766500Y45270000D01*
G75*
G02*
X75316500Y44820000I-450000J0D01*
G01*
X74416500Y44820000D01*
G75*
G02*
X73966500Y45270000I0J450000D01*
G01*
G37*
%TD*%
%TO.C,REF\u002A\u002A*%
G36*
G01*
X71426500Y45270000D02*
X71426500Y46170000D01*
G75*
G02*
X71876500Y46620000I450000J0D01*
G01*
X72776500Y46620000D01*
G75*
G02*
X73226500Y46170000I0J-450000D01*
G01*
X73226500Y45270000D01*
G75*
G02*
X72776500Y44820000I-450000J0D01*
G01*
X71876500Y44820000D01*
G75*
G02*
X71426500Y45270000I0J450000D01*
G01*
G37*
%TD*%
%TO.C,REF\u002A\u002A*%
G36*
G01*
X68886500Y45270000D02*
X68886500Y46170000D01*
G75*
G02*
X69336500Y46620000I450000J0D01*
G01*
X70236500Y46620000D01*
G75*
G02*
X70686500Y46170000I0J-450000D01*
G01*
X70686500Y45270000D01*
G75*
G02*
X70236500Y44820000I-450000J0D01*
G01*
X69336500Y44820000D01*
G75*
G02*
X68886500Y45270000I0J450000D01*
G01*
G37*
%TD*%
%TO.C,REF\u002A\u002A*%
G36*
G01*
X66346500Y45270000D02*
X66346500Y46170000D01*
G75*
G02*
X66796500Y46620000I450000J0D01*
G01*
X67696500Y46620000D01*
G75*
G02*
X68146500Y46170000I0J-450000D01*
G01*
X68146500Y45270000D01*
G75*
G02*
X67696500Y44820000I-450000J0D01*
G01*
X66796500Y44820000D01*
G75*
G02*
X66346500Y45270000I0J450000D01*
G01*
G37*
%TD*%
%TO.C,REF\u002A\u002A*%
G36*
G01*
X63806500Y45270000D02*
X63806500Y46170000D01*
G75*
G02*
X64256500Y46620000I450000J0D01*
G01*
X65156500Y46620000D01*
G75*
G02*
X65606500Y46170000I0J-450000D01*
G01*
X65606500Y45270000D01*
G75*
G02*
X65156500Y44820000I-450000J0D01*
G01*
X64256500Y44820000D01*
G75*
G02*
X63806500Y45270000I0J450000D01*
G01*
G37*
%TD*%
%TO.C,REF\u002A\u002A*%
G36*
G01*
X61266500Y45270000D02*
X61266500Y46170000D01*
G75*
G02*
X61716500Y46620000I450000J0D01*
G01*
X62616500Y46620000D01*
G75*
G02*
X63066500Y46170000I0J-450000D01*
G01*
X63066500Y45270000D01*
G75*
G02*
X62616500Y44820000I-450000J0D01*
G01*
X61716500Y44820000D01*
G75*
G02*
X61266500Y45270000I0J450000D01*
G01*
G37*
%TD*%
%TO.C,REF\u002A\u002A*%
G36*
G01*
X58726500Y45270000D02*
X58726500Y46170000D01*
G75*
G02*
X59176500Y46620000I450000J0D01*
G01*
X60076500Y46620000D01*
G75*
G02*
X60526500Y46170000I0J-450000D01*
G01*
X60526500Y45270000D01*
G75*
G02*
X60076500Y44820000I-450000J0D01*
G01*
X59176500Y44820000D01*
G75*
G02*
X58726500Y45270000I0J450000D01*
G01*
G37*
%TD*%
%TO.C,REF\u002A\u002A*%
G36*
G01*
X56186500Y45270000D02*
X56186500Y46170000D01*
G75*
G02*
X56636500Y46620000I450000J0D01*
G01*
X57536500Y46620000D01*
G75*
G02*
X57986500Y46170000I0J-450000D01*
G01*
X57986500Y45270000D01*
G75*
G02*
X57536500Y44820000I-450000J0D01*
G01*
X56636500Y44820000D01*
G75*
G02*
X56186500Y45270000I0J450000D01*
G01*
G37*
%TD*%
%TO.C,REF\u002A\u002A*%
G36*
G01*
X53646500Y45270000D02*
X53646500Y46170000D01*
G75*
G02*
X54096500Y46620000I450000J0D01*
G01*
X54996500Y46620000D01*
G75*
G02*
X55446500Y46170000I0J-450000D01*
G01*
X55446500Y45270000D01*
G75*
G02*
X54996500Y44820000I-450000J0D01*
G01*
X54096500Y44820000D01*
G75*
G02*
X53646500Y45270000I0J450000D01*
G01*
G37*
%TD*%
%TO.C,REF\u002A\u002A*%
G36*
G01*
X51106500Y45270000D02*
X51106500Y46170000D01*
G75*
G02*
X51556500Y46620000I450000J0D01*
G01*
X52456500Y46620000D01*
G75*
G02*
X52906500Y46170000I0J-450000D01*
G01*
X52906500Y45270000D01*
G75*
G02*
X52456500Y44820000I-450000J0D01*
G01*
X51556500Y44820000D01*
G75*
G02*
X51106500Y45270000I0J450000D01*
G01*
G37*
%TD*%
%TO.C,REF\u002A\u002A*%
G36*
G01*
X48566500Y45270000D02*
X48566500Y46170000D01*
G75*
G02*
X49016500Y46620000I450000J0D01*
G01*
X49916500Y46620000D01*
G75*
G02*
X50366500Y46170000I0J-450000D01*
G01*
X50366500Y45270000D01*
G75*
G02*
X49916500Y44820000I-450000J0D01*
G01*
X49016500Y44820000D01*
G75*
G02*
X48566500Y45270000I0J450000D01*
G01*
G37*
%TD*%
%TO.C,REF\u002A\u002A*%
G36*
G01*
X46026500Y45270000D02*
X46026500Y46170000D01*
G75*
G02*
X46476500Y46620000I450000J0D01*
G01*
X47376500Y46620000D01*
G75*
G02*
X47826500Y46170000I0J-450000D01*
G01*
X47826500Y45270000D01*
G75*
G02*
X47376500Y44820000I-450000J0D01*
G01*
X46476500Y44820000D01*
G75*
G02*
X46026500Y45270000I0J450000D01*
G01*
G37*
%TD*%
%TO.C,REF\u002A\u002A*%
G36*
G01*
X43486500Y45270000D02*
X43486500Y46170000D01*
G75*
G02*
X43936500Y46620000I450000J0D01*
G01*
X44836500Y46620000D01*
G75*
G02*
X45286500Y46170000I0J-450000D01*
G01*
X45286500Y45270000D01*
G75*
G02*
X44836500Y44820000I-450000J0D01*
G01*
X43936500Y44820000D01*
G75*
G02*
X43486500Y45270000I0J450000D01*
G01*
G37*
%TD*%
%TO.C,REF\u002A\u002A*%
G36*
G01*
X40946500Y45270000D02*
X40946500Y46170000D01*
G75*
G02*
X41396500Y46620000I450000J0D01*
G01*
X42296500Y46620000D01*
G75*
G02*
X42746500Y46170000I0J-450000D01*
G01*
X42746500Y45270000D01*
G75*
G02*
X42296500Y44820000I-450000J0D01*
G01*
X41396500Y44820000D01*
G75*
G02*
X40946500Y45270000I0J450000D01*
G01*
G37*
%TD*%
%TO.C,REF\u002A\u002A*%
G36*
G01*
X38406500Y45270000D02*
X38406500Y46170000D01*
G75*
G02*
X38856500Y46620000I450000J0D01*
G01*
X39756500Y46620000D01*
G75*
G02*
X40206500Y46170000I0J-450000D01*
G01*
X40206500Y45270000D01*
G75*
G02*
X39756500Y44820000I-450000J0D01*
G01*
X38856500Y44820000D01*
G75*
G02*
X38406500Y45270000I0J450000D01*
G01*
G37*
%TD*%
%TO.C,REF\u002A\u002A*%
G36*
G01*
X35866500Y45270000D02*
X35866500Y46170000D01*
G75*
G02*
X36316500Y46620000I450000J0D01*
G01*
X37216500Y46620000D01*
G75*
G02*
X37666500Y46170000I0J-450000D01*
G01*
X37666500Y45270000D01*
G75*
G02*
X37216500Y44820000I-450000J0D01*
G01*
X36316500Y44820000D01*
G75*
G02*
X35866500Y45270000I0J450000D01*
G01*
G37*
%TD*%
%TO.C,REF\u002A\u002A*%
G36*
G01*
X33326500Y45270000D02*
X33326500Y46170000D01*
G75*
G02*
X33776500Y46620000I450000J0D01*
G01*
X34676500Y46620000D01*
G75*
G02*
X35126500Y46170000I0J-450000D01*
G01*
X35126500Y45270000D01*
G75*
G02*
X34676500Y44820000I-450000J0D01*
G01*
X33776500Y44820000D01*
G75*
G02*
X33326500Y45270000I0J450000D01*
G01*
G37*
%TD*%
%TO.C,REF\u002A\u002A*%
G36*
G01*
X30786500Y45270000D02*
X30786500Y46170000D01*
G75*
G02*
X31236500Y46620000I450000J0D01*
G01*
X32136500Y46620000D01*
G75*
G02*
X32586500Y46170000I0J-450000D01*
G01*
X32586500Y45270000D01*
G75*
G02*
X32136500Y44820000I-450000J0D01*
G01*
X31236500Y44820000D01*
G75*
G02*
X30786500Y45270000I0J450000D01*
G01*
G37*
%TD*%
%TO.C,REF\u002A\u002A*%
G36*
G01*
X28246500Y45270000D02*
X28246500Y46170000D01*
G75*
G02*
X28696500Y46620000I450000J0D01*
G01*
X29596500Y46620000D01*
G75*
G02*
X30046500Y46170000I0J-450000D01*
G01*
X30046500Y45270000D01*
G75*
G02*
X29596500Y44820000I-450000J0D01*
G01*
X28696500Y44820000D01*
G75*
G02*
X28246500Y45270000I0J450000D01*
G01*
G37*
%TD*%
%TO.C,REF\u002A\u002A*%
G36*
G01*
X25706500Y45270000D02*
X25706500Y46170000D01*
G75*
G02*
X26156500Y46620000I450000J0D01*
G01*
X27056500Y46620000D01*
G75*
G02*
X27506500Y46170000I0J-450000D01*
G01*
X27506500Y45270000D01*
G75*
G02*
X27056500Y44820000I-450000J0D01*
G01*
X26156500Y44820000D01*
G75*
G02*
X25706500Y45270000I0J450000D01*
G01*
G37*
%TD*%
%TO.C,REF\u002A\u002A*%
G36*
G01*
X23166500Y45270000D02*
X23166500Y46170000D01*
G75*
G02*
X23616500Y46620000I450000J0D01*
G01*
X24516500Y46620000D01*
G75*
G02*
X24966500Y46170000I0J-450000D01*
G01*
X24966500Y45270000D01*
G75*
G02*
X24516500Y44820000I-450000J0D01*
G01*
X23616500Y44820000D01*
G75*
G02*
X23166500Y45270000I0J450000D01*
G01*
G37*
%TD*%
%TO.C,REF\u002A\u002A*%
G36*
G01*
X20626500Y45270000D02*
X20626500Y46170000D01*
G75*
G02*
X21076500Y46620000I450000J0D01*
G01*
X21976500Y46620000D01*
G75*
G02*
X22426500Y46170000I0J-450000D01*
G01*
X22426500Y45270000D01*
G75*
G02*
X21976500Y44820000I-450000J0D01*
G01*
X21076500Y44820000D01*
G75*
G02*
X20626500Y45270000I0J450000D01*
G01*
G37*
%TD*%
%TO.C,REF\u002A\u002A*%
G36*
G01*
X18086500Y45270000D02*
X18086500Y46170000D01*
G75*
G02*
X18536500Y46620000I450000J0D01*
G01*
X19436500Y46620000D01*
G75*
G02*
X19886500Y46170000I0J-450000D01*
G01*
X19886500Y45270000D01*
G75*
G02*
X19436500Y44820000I-450000J0D01*
G01*
X18536500Y44820000D01*
G75*
G02*
X18086500Y45270000I0J450000D01*
G01*
G37*
%TD*%
%TO.C,REF\u002A\u002A*%
G36*
G01*
X15546500Y45270000D02*
X15546500Y46170000D01*
G75*
G02*
X15996500Y46620000I450000J0D01*
G01*
X16896500Y46620000D01*
G75*
G02*
X17346500Y46170000I0J-450000D01*
G01*
X17346500Y45270000D01*
G75*
G02*
X16896500Y44820000I-450000J0D01*
G01*
X15996500Y44820000D01*
G75*
G02*
X15546500Y45270000I0J450000D01*
G01*
G37*
%TD*%
%TO.C,REF\u002A\u002A*%
G36*
G01*
X13006500Y45270000D02*
X13006500Y46170000D01*
G75*
G02*
X13456500Y46620000I450000J0D01*
G01*
X14356500Y46620000D01*
G75*
G02*
X14806500Y46170000I0J-450000D01*
G01*
X14806500Y45270000D01*
G75*
G02*
X14356500Y44820000I-450000J0D01*
G01*
X13456500Y44820000D01*
G75*
G02*
X13006500Y45270000I0J450000D01*
G01*
G37*
%TD*%
%TO.C,REF\u002A\u002A*%
G36*
G01*
X10466500Y45270000D02*
X10466500Y46170000D01*
G75*
G02*
X10916500Y46620000I450000J0D01*
G01*
X11816500Y46620000D01*
G75*
G02*
X12266500Y46170000I0J-450000D01*
G01*
X12266500Y45270000D01*
G75*
G02*
X11816500Y44820000I-450000J0D01*
G01*
X10916500Y44820000D01*
G75*
G02*
X10466500Y45270000I0J450000D01*
G01*
G37*
%TD*%
%TO.C,REF\u002A\u002A*%
G36*
G01*
X7926500Y45270000D02*
X7926500Y46170000D01*
G75*
G02*
X8376500Y46620000I450000J0D01*
G01*
X9276500Y46620000D01*
G75*
G02*
X9726500Y46170000I0J-450000D01*
G01*
X9726500Y45270000D01*
G75*
G02*
X9276500Y44820000I-450000J0D01*
G01*
X8376500Y44820000D01*
G75*
G02*
X7926500Y45270000I0J450000D01*
G01*
G37*
%TD*%
%TO.C,REF\u002A\u002A*%
G36*
G01*
X5386500Y45270000D02*
X5386500Y46170000D01*
G75*
G02*
X5836500Y46620000I450000J0D01*
G01*
X6736500Y46620000D01*
G75*
G02*
X7186500Y46170000I0J-450000D01*
G01*
X7186500Y45270000D01*
G75*
G02*
X6736500Y44820000I-450000J0D01*
G01*
X5836500Y44820000D01*
G75*
G02*
X5386500Y45270000I0J450000D01*
G01*
G37*
%TD*%
%TO.C,REF\u002A\u002A*%
G36*
G01*
X2846500Y45270000D02*
X2846500Y46170000D01*
G75*
G02*
X3296500Y46620000I450000J0D01*
G01*
X4196500Y46620000D01*
G75*
G02*
X4646500Y46170000I0J-450000D01*
G01*
X4646500Y45270000D01*
G75*
G02*
X4196500Y44820000I-450000J0D01*
G01*
X3296500Y44820000D01*
G75*
G02*
X2846500Y45270000I0J450000D01*
G01*
G37*
%TD*%
%TO.C,REF\u002A\u002A*%
G36*
G01*
X76506500Y47810000D02*
X76506500Y48710000D01*
G75*
G02*
X76956500Y49160000I450000J0D01*
G01*
X77856500Y49160000D01*
G75*
G02*
X78306500Y48710000I0J-450000D01*
G01*
X78306500Y47810000D01*
G75*
G02*
X77856500Y47360000I-450000J0D01*
G01*
X76956500Y47360000D01*
G75*
G02*
X76506500Y47810000I0J450000D01*
G01*
G37*
%TD*%
%TO.C,REF\u002A\u002A*%
G36*
G01*
X73966500Y47810000D02*
X73966500Y48710000D01*
G75*
G02*
X74416500Y49160000I450000J0D01*
G01*
X75316500Y49160000D01*
G75*
G02*
X75766500Y48710000I0J-450000D01*
G01*
X75766500Y47810000D01*
G75*
G02*
X75316500Y47360000I-450000J0D01*
G01*
X74416500Y47360000D01*
G75*
G02*
X73966500Y47810000I0J450000D01*
G01*
G37*
%TD*%
%TO.C,REF\u002A\u002A*%
G36*
G01*
X71426500Y47810000D02*
X71426500Y48710000D01*
G75*
G02*
X71876500Y49160000I450000J0D01*
G01*
X72776500Y49160000D01*
G75*
G02*
X73226500Y48710000I0J-450000D01*
G01*
X73226500Y47810000D01*
G75*
G02*
X72776500Y47360000I-450000J0D01*
G01*
X71876500Y47360000D01*
G75*
G02*
X71426500Y47810000I0J450000D01*
G01*
G37*
%TD*%
%TO.C,REF\u002A\u002A*%
G36*
G01*
X68886500Y47810000D02*
X68886500Y48710000D01*
G75*
G02*
X69336500Y49160000I450000J0D01*
G01*
X70236500Y49160000D01*
G75*
G02*
X70686500Y48710000I0J-450000D01*
G01*
X70686500Y47810000D01*
G75*
G02*
X70236500Y47360000I-450000J0D01*
G01*
X69336500Y47360000D01*
G75*
G02*
X68886500Y47810000I0J450000D01*
G01*
G37*
%TD*%
%TO.C,REF\u002A\u002A*%
G36*
G01*
X66346500Y47810000D02*
X66346500Y48710000D01*
G75*
G02*
X66796500Y49160000I450000J0D01*
G01*
X67696500Y49160000D01*
G75*
G02*
X68146500Y48710000I0J-450000D01*
G01*
X68146500Y47810000D01*
G75*
G02*
X67696500Y47360000I-450000J0D01*
G01*
X66796500Y47360000D01*
G75*
G02*
X66346500Y47810000I0J450000D01*
G01*
G37*
%TD*%
%TO.C,REF\u002A\u002A*%
G36*
G01*
X63806500Y47810000D02*
X63806500Y48710000D01*
G75*
G02*
X64256500Y49160000I450000J0D01*
G01*
X65156500Y49160000D01*
G75*
G02*
X65606500Y48710000I0J-450000D01*
G01*
X65606500Y47810000D01*
G75*
G02*
X65156500Y47360000I-450000J0D01*
G01*
X64256500Y47360000D01*
G75*
G02*
X63806500Y47810000I0J450000D01*
G01*
G37*
%TD*%
%TO.C,REF\u002A\u002A*%
G36*
G01*
X61266500Y47810000D02*
X61266500Y48710000D01*
G75*
G02*
X61716500Y49160000I450000J0D01*
G01*
X62616500Y49160000D01*
G75*
G02*
X63066500Y48710000I0J-450000D01*
G01*
X63066500Y47810000D01*
G75*
G02*
X62616500Y47360000I-450000J0D01*
G01*
X61716500Y47360000D01*
G75*
G02*
X61266500Y47810000I0J450000D01*
G01*
G37*
%TD*%
%TO.C,REF\u002A\u002A*%
G36*
G01*
X58726500Y47810000D02*
X58726500Y48710000D01*
G75*
G02*
X59176500Y49160000I450000J0D01*
G01*
X60076500Y49160000D01*
G75*
G02*
X60526500Y48710000I0J-450000D01*
G01*
X60526500Y47810000D01*
G75*
G02*
X60076500Y47360000I-450000J0D01*
G01*
X59176500Y47360000D01*
G75*
G02*
X58726500Y47810000I0J450000D01*
G01*
G37*
%TD*%
%TO.C,REF\u002A\u002A*%
G36*
G01*
X56186500Y47810000D02*
X56186500Y48710000D01*
G75*
G02*
X56636500Y49160000I450000J0D01*
G01*
X57536500Y49160000D01*
G75*
G02*
X57986500Y48710000I0J-450000D01*
G01*
X57986500Y47810000D01*
G75*
G02*
X57536500Y47360000I-450000J0D01*
G01*
X56636500Y47360000D01*
G75*
G02*
X56186500Y47810000I0J450000D01*
G01*
G37*
%TD*%
%TO.C,REF\u002A\u002A*%
G36*
G01*
X53646500Y47810000D02*
X53646500Y48710000D01*
G75*
G02*
X54096500Y49160000I450000J0D01*
G01*
X54996500Y49160000D01*
G75*
G02*
X55446500Y48710000I0J-450000D01*
G01*
X55446500Y47810000D01*
G75*
G02*
X54996500Y47360000I-450000J0D01*
G01*
X54096500Y47360000D01*
G75*
G02*
X53646500Y47810000I0J450000D01*
G01*
G37*
%TD*%
%TO.C,REF\u002A\u002A*%
G36*
G01*
X51106500Y47810000D02*
X51106500Y48710000D01*
G75*
G02*
X51556500Y49160000I450000J0D01*
G01*
X52456500Y49160000D01*
G75*
G02*
X52906500Y48710000I0J-450000D01*
G01*
X52906500Y47810000D01*
G75*
G02*
X52456500Y47360000I-450000J0D01*
G01*
X51556500Y47360000D01*
G75*
G02*
X51106500Y47810000I0J450000D01*
G01*
G37*
%TD*%
%TO.C,REF\u002A\u002A*%
G36*
G01*
X48566500Y47810000D02*
X48566500Y48710000D01*
G75*
G02*
X49016500Y49160000I450000J0D01*
G01*
X49916500Y49160000D01*
G75*
G02*
X50366500Y48710000I0J-450000D01*
G01*
X50366500Y47810000D01*
G75*
G02*
X49916500Y47360000I-450000J0D01*
G01*
X49016500Y47360000D01*
G75*
G02*
X48566500Y47810000I0J450000D01*
G01*
G37*
%TD*%
%TO.C,REF\u002A\u002A*%
G36*
G01*
X46026500Y47810000D02*
X46026500Y48710000D01*
G75*
G02*
X46476500Y49160000I450000J0D01*
G01*
X47376500Y49160000D01*
G75*
G02*
X47826500Y48710000I0J-450000D01*
G01*
X47826500Y47810000D01*
G75*
G02*
X47376500Y47360000I-450000J0D01*
G01*
X46476500Y47360000D01*
G75*
G02*
X46026500Y47810000I0J450000D01*
G01*
G37*
%TD*%
%TO.C,REF\u002A\u002A*%
G36*
G01*
X43486500Y47810000D02*
X43486500Y48710000D01*
G75*
G02*
X43936500Y49160000I450000J0D01*
G01*
X44836500Y49160000D01*
G75*
G02*
X45286500Y48710000I0J-450000D01*
G01*
X45286500Y47810000D01*
G75*
G02*
X44836500Y47360000I-450000J0D01*
G01*
X43936500Y47360000D01*
G75*
G02*
X43486500Y47810000I0J450000D01*
G01*
G37*
%TD*%
%TO.C,REF\u002A\u002A*%
G36*
G01*
X40946500Y47810000D02*
X40946500Y48710000D01*
G75*
G02*
X41396500Y49160000I450000J0D01*
G01*
X42296500Y49160000D01*
G75*
G02*
X42746500Y48710000I0J-450000D01*
G01*
X42746500Y47810000D01*
G75*
G02*
X42296500Y47360000I-450000J0D01*
G01*
X41396500Y47360000D01*
G75*
G02*
X40946500Y47810000I0J450000D01*
G01*
G37*
%TD*%
%TO.C,REF\u002A\u002A*%
G36*
G01*
X38406500Y47810000D02*
X38406500Y48710000D01*
G75*
G02*
X38856500Y49160000I450000J0D01*
G01*
X39756500Y49160000D01*
G75*
G02*
X40206500Y48710000I0J-450000D01*
G01*
X40206500Y47810000D01*
G75*
G02*
X39756500Y47360000I-450000J0D01*
G01*
X38856500Y47360000D01*
G75*
G02*
X38406500Y47810000I0J450000D01*
G01*
G37*
%TD*%
%TO.C,REF\u002A\u002A*%
G36*
G01*
X35866500Y47810000D02*
X35866500Y48710000D01*
G75*
G02*
X36316500Y49160000I450000J0D01*
G01*
X37216500Y49160000D01*
G75*
G02*
X37666500Y48710000I0J-450000D01*
G01*
X37666500Y47810000D01*
G75*
G02*
X37216500Y47360000I-450000J0D01*
G01*
X36316500Y47360000D01*
G75*
G02*
X35866500Y47810000I0J450000D01*
G01*
G37*
%TD*%
%TO.C,REF\u002A\u002A*%
G36*
G01*
X33326500Y47810000D02*
X33326500Y48710000D01*
G75*
G02*
X33776500Y49160000I450000J0D01*
G01*
X34676500Y49160000D01*
G75*
G02*
X35126500Y48710000I0J-450000D01*
G01*
X35126500Y47810000D01*
G75*
G02*
X34676500Y47360000I-450000J0D01*
G01*
X33776500Y47360000D01*
G75*
G02*
X33326500Y47810000I0J450000D01*
G01*
G37*
%TD*%
%TO.C,REF\u002A\u002A*%
G36*
G01*
X30786500Y47810000D02*
X30786500Y48710000D01*
G75*
G02*
X31236500Y49160000I450000J0D01*
G01*
X32136500Y49160000D01*
G75*
G02*
X32586500Y48710000I0J-450000D01*
G01*
X32586500Y47810000D01*
G75*
G02*
X32136500Y47360000I-450000J0D01*
G01*
X31236500Y47360000D01*
G75*
G02*
X30786500Y47810000I0J450000D01*
G01*
G37*
%TD*%
%TO.C,REF\u002A\u002A*%
G36*
G01*
X28246500Y47810000D02*
X28246500Y48710000D01*
G75*
G02*
X28696500Y49160000I450000J0D01*
G01*
X29596500Y49160000D01*
G75*
G02*
X30046500Y48710000I0J-450000D01*
G01*
X30046500Y47810000D01*
G75*
G02*
X29596500Y47360000I-450000J0D01*
G01*
X28696500Y47360000D01*
G75*
G02*
X28246500Y47810000I0J450000D01*
G01*
G37*
%TD*%
%TO.C,REF\u002A\u002A*%
G36*
G01*
X25706500Y47810000D02*
X25706500Y48710000D01*
G75*
G02*
X26156500Y49160000I450000J0D01*
G01*
X27056500Y49160000D01*
G75*
G02*
X27506500Y48710000I0J-450000D01*
G01*
X27506500Y47810000D01*
G75*
G02*
X27056500Y47360000I-450000J0D01*
G01*
X26156500Y47360000D01*
G75*
G02*
X25706500Y47810000I0J450000D01*
G01*
G37*
%TD*%
%TO.C,REF\u002A\u002A*%
G36*
G01*
X23166500Y47810000D02*
X23166500Y48710000D01*
G75*
G02*
X23616500Y49160000I450000J0D01*
G01*
X24516500Y49160000D01*
G75*
G02*
X24966500Y48710000I0J-450000D01*
G01*
X24966500Y47810000D01*
G75*
G02*
X24516500Y47360000I-450000J0D01*
G01*
X23616500Y47360000D01*
G75*
G02*
X23166500Y47810000I0J450000D01*
G01*
G37*
%TD*%
%TO.C,REF\u002A\u002A*%
G36*
G01*
X20626500Y47810000D02*
X20626500Y48710000D01*
G75*
G02*
X21076500Y49160000I450000J0D01*
G01*
X21976500Y49160000D01*
G75*
G02*
X22426500Y48710000I0J-450000D01*
G01*
X22426500Y47810000D01*
G75*
G02*
X21976500Y47360000I-450000J0D01*
G01*
X21076500Y47360000D01*
G75*
G02*
X20626500Y47810000I0J450000D01*
G01*
G37*
%TD*%
%TO.C,REF\u002A\u002A*%
G36*
G01*
X18086500Y47810000D02*
X18086500Y48710000D01*
G75*
G02*
X18536500Y49160000I450000J0D01*
G01*
X19436500Y49160000D01*
G75*
G02*
X19886500Y48710000I0J-450000D01*
G01*
X19886500Y47810000D01*
G75*
G02*
X19436500Y47360000I-450000J0D01*
G01*
X18536500Y47360000D01*
G75*
G02*
X18086500Y47810000I0J450000D01*
G01*
G37*
%TD*%
%TO.C,REF\u002A\u002A*%
G36*
G01*
X15546500Y47810000D02*
X15546500Y48710000D01*
G75*
G02*
X15996500Y49160000I450000J0D01*
G01*
X16896500Y49160000D01*
G75*
G02*
X17346500Y48710000I0J-450000D01*
G01*
X17346500Y47810000D01*
G75*
G02*
X16896500Y47360000I-450000J0D01*
G01*
X15996500Y47360000D01*
G75*
G02*
X15546500Y47810000I0J450000D01*
G01*
G37*
%TD*%
%TO.C,REF\u002A\u002A*%
G36*
G01*
X13006500Y47810000D02*
X13006500Y48710000D01*
G75*
G02*
X13456500Y49160000I450000J0D01*
G01*
X14356500Y49160000D01*
G75*
G02*
X14806500Y48710000I0J-450000D01*
G01*
X14806500Y47810000D01*
G75*
G02*
X14356500Y47360000I-450000J0D01*
G01*
X13456500Y47360000D01*
G75*
G02*
X13006500Y47810000I0J450000D01*
G01*
G37*
%TD*%
%TO.C,REF\u002A\u002A*%
G36*
G01*
X10466500Y47810000D02*
X10466500Y48710000D01*
G75*
G02*
X10916500Y49160000I450000J0D01*
G01*
X11816500Y49160000D01*
G75*
G02*
X12266500Y48710000I0J-450000D01*
G01*
X12266500Y47810000D01*
G75*
G02*
X11816500Y47360000I-450000J0D01*
G01*
X10916500Y47360000D01*
G75*
G02*
X10466500Y47810000I0J450000D01*
G01*
G37*
%TD*%
%TO.C,REF\u002A\u002A*%
G36*
G01*
X7926500Y47810000D02*
X7926500Y48710000D01*
G75*
G02*
X8376500Y49160000I450000J0D01*
G01*
X9276500Y49160000D01*
G75*
G02*
X9726500Y48710000I0J-450000D01*
G01*
X9726500Y47810000D01*
G75*
G02*
X9276500Y47360000I-450000J0D01*
G01*
X8376500Y47360000D01*
G75*
G02*
X7926500Y47810000I0J450000D01*
G01*
G37*
%TD*%
%TO.C,REF\u002A\u002A*%
G36*
G01*
X5386500Y47810000D02*
X5386500Y48710000D01*
G75*
G02*
X5836500Y49160000I450000J0D01*
G01*
X6736500Y49160000D01*
G75*
G02*
X7186500Y48710000I0J-450000D01*
G01*
X7186500Y47810000D01*
G75*
G02*
X6736500Y47360000I-450000J0D01*
G01*
X5836500Y47360000D01*
G75*
G02*
X5386500Y47810000I0J450000D01*
G01*
G37*
%TD*%
%TO.C,REF\u002A\u002A*%
G36*
G01*
X2846500Y47810000D02*
X2846500Y48710000D01*
G75*
G02*
X3296500Y49160000I450000J0D01*
G01*
X4196500Y49160000D01*
G75*
G02*
X4646500Y48710000I0J-450000D01*
G01*
X4646500Y47810000D01*
G75*
G02*
X4196500Y47360000I-450000J0D01*
G01*
X3296500Y47360000D01*
G75*
G02*
X2846500Y47810000I0J450000D01*
G01*
G37*
%TD*%
%TO.C,REF\u002A\u002A*%
G36*
G01*
X76506500Y50350000D02*
X76506500Y51250000D01*
G75*
G02*
X76956500Y51700000I450000J0D01*
G01*
X77856500Y51700000D01*
G75*
G02*
X78306500Y51250000I0J-450000D01*
G01*
X78306500Y50350000D01*
G75*
G02*
X77856500Y49900000I-450000J0D01*
G01*
X76956500Y49900000D01*
G75*
G02*
X76506500Y50350000I0J450000D01*
G01*
G37*
%TD*%
%TO.C,REF\u002A\u002A*%
G36*
G01*
X73966500Y50350000D02*
X73966500Y51250000D01*
G75*
G02*
X74416500Y51700000I450000J0D01*
G01*
X75316500Y51700000D01*
G75*
G02*
X75766500Y51250000I0J-450000D01*
G01*
X75766500Y50350000D01*
G75*
G02*
X75316500Y49900000I-450000J0D01*
G01*
X74416500Y49900000D01*
G75*
G02*
X73966500Y50350000I0J450000D01*
G01*
G37*
%TD*%
%TO.C,REF\u002A\u002A*%
G36*
G01*
X71426500Y50350000D02*
X71426500Y51250000D01*
G75*
G02*
X71876500Y51700000I450000J0D01*
G01*
X72776500Y51700000D01*
G75*
G02*
X73226500Y51250000I0J-450000D01*
G01*
X73226500Y50350000D01*
G75*
G02*
X72776500Y49900000I-450000J0D01*
G01*
X71876500Y49900000D01*
G75*
G02*
X71426500Y50350000I0J450000D01*
G01*
G37*
%TD*%
%TO.C,REF\u002A\u002A*%
G36*
G01*
X68886500Y50350000D02*
X68886500Y51250000D01*
G75*
G02*
X69336500Y51700000I450000J0D01*
G01*
X70236500Y51700000D01*
G75*
G02*
X70686500Y51250000I0J-450000D01*
G01*
X70686500Y50350000D01*
G75*
G02*
X70236500Y49900000I-450000J0D01*
G01*
X69336500Y49900000D01*
G75*
G02*
X68886500Y50350000I0J450000D01*
G01*
G37*
%TD*%
%TO.C,REF\u002A\u002A*%
G36*
G01*
X66346500Y50350000D02*
X66346500Y51250000D01*
G75*
G02*
X66796500Y51700000I450000J0D01*
G01*
X67696500Y51700000D01*
G75*
G02*
X68146500Y51250000I0J-450000D01*
G01*
X68146500Y50350000D01*
G75*
G02*
X67696500Y49900000I-450000J0D01*
G01*
X66796500Y49900000D01*
G75*
G02*
X66346500Y50350000I0J450000D01*
G01*
G37*
%TD*%
%TO.C,REF\u002A\u002A*%
G36*
G01*
X63806500Y50350000D02*
X63806500Y51250000D01*
G75*
G02*
X64256500Y51700000I450000J0D01*
G01*
X65156500Y51700000D01*
G75*
G02*
X65606500Y51250000I0J-450000D01*
G01*
X65606500Y50350000D01*
G75*
G02*
X65156500Y49900000I-450000J0D01*
G01*
X64256500Y49900000D01*
G75*
G02*
X63806500Y50350000I0J450000D01*
G01*
G37*
%TD*%
%TO.C,REF\u002A\u002A*%
G36*
G01*
X61266500Y50350000D02*
X61266500Y51250000D01*
G75*
G02*
X61716500Y51700000I450000J0D01*
G01*
X62616500Y51700000D01*
G75*
G02*
X63066500Y51250000I0J-450000D01*
G01*
X63066500Y50350000D01*
G75*
G02*
X62616500Y49900000I-450000J0D01*
G01*
X61716500Y49900000D01*
G75*
G02*
X61266500Y50350000I0J450000D01*
G01*
G37*
%TD*%
%TO.C,REF\u002A\u002A*%
G36*
G01*
X58726500Y50350000D02*
X58726500Y51250000D01*
G75*
G02*
X59176500Y51700000I450000J0D01*
G01*
X60076500Y51700000D01*
G75*
G02*
X60526500Y51250000I0J-450000D01*
G01*
X60526500Y50350000D01*
G75*
G02*
X60076500Y49900000I-450000J0D01*
G01*
X59176500Y49900000D01*
G75*
G02*
X58726500Y50350000I0J450000D01*
G01*
G37*
%TD*%
%TO.C,REF\u002A\u002A*%
G36*
G01*
X56186500Y50350000D02*
X56186500Y51250000D01*
G75*
G02*
X56636500Y51700000I450000J0D01*
G01*
X57536500Y51700000D01*
G75*
G02*
X57986500Y51250000I0J-450000D01*
G01*
X57986500Y50350000D01*
G75*
G02*
X57536500Y49900000I-450000J0D01*
G01*
X56636500Y49900000D01*
G75*
G02*
X56186500Y50350000I0J450000D01*
G01*
G37*
%TD*%
%TO.C,REF\u002A\u002A*%
G36*
G01*
X53646500Y50350000D02*
X53646500Y51250000D01*
G75*
G02*
X54096500Y51700000I450000J0D01*
G01*
X54996500Y51700000D01*
G75*
G02*
X55446500Y51250000I0J-450000D01*
G01*
X55446500Y50350000D01*
G75*
G02*
X54996500Y49900000I-450000J0D01*
G01*
X54096500Y49900000D01*
G75*
G02*
X53646500Y50350000I0J450000D01*
G01*
G37*
%TD*%
%TO.C,REF\u002A\u002A*%
G36*
G01*
X51106500Y50350000D02*
X51106500Y51250000D01*
G75*
G02*
X51556500Y51700000I450000J0D01*
G01*
X52456500Y51700000D01*
G75*
G02*
X52906500Y51250000I0J-450000D01*
G01*
X52906500Y50350000D01*
G75*
G02*
X52456500Y49900000I-450000J0D01*
G01*
X51556500Y49900000D01*
G75*
G02*
X51106500Y50350000I0J450000D01*
G01*
G37*
%TD*%
%TO.C,REF\u002A\u002A*%
G36*
G01*
X48566500Y50350000D02*
X48566500Y51250000D01*
G75*
G02*
X49016500Y51700000I450000J0D01*
G01*
X49916500Y51700000D01*
G75*
G02*
X50366500Y51250000I0J-450000D01*
G01*
X50366500Y50350000D01*
G75*
G02*
X49916500Y49900000I-450000J0D01*
G01*
X49016500Y49900000D01*
G75*
G02*
X48566500Y50350000I0J450000D01*
G01*
G37*
%TD*%
%TO.C,REF\u002A\u002A*%
G36*
G01*
X46026500Y50350000D02*
X46026500Y51250000D01*
G75*
G02*
X46476500Y51700000I450000J0D01*
G01*
X47376500Y51700000D01*
G75*
G02*
X47826500Y51250000I0J-450000D01*
G01*
X47826500Y50350000D01*
G75*
G02*
X47376500Y49900000I-450000J0D01*
G01*
X46476500Y49900000D01*
G75*
G02*
X46026500Y50350000I0J450000D01*
G01*
G37*
%TD*%
%TO.C,REF\u002A\u002A*%
G36*
G01*
X43486500Y50350000D02*
X43486500Y51250000D01*
G75*
G02*
X43936500Y51700000I450000J0D01*
G01*
X44836500Y51700000D01*
G75*
G02*
X45286500Y51250000I0J-450000D01*
G01*
X45286500Y50350000D01*
G75*
G02*
X44836500Y49900000I-450000J0D01*
G01*
X43936500Y49900000D01*
G75*
G02*
X43486500Y50350000I0J450000D01*
G01*
G37*
%TD*%
%TO.C,REF\u002A\u002A*%
G36*
G01*
X40946500Y50350000D02*
X40946500Y51250000D01*
G75*
G02*
X41396500Y51700000I450000J0D01*
G01*
X42296500Y51700000D01*
G75*
G02*
X42746500Y51250000I0J-450000D01*
G01*
X42746500Y50350000D01*
G75*
G02*
X42296500Y49900000I-450000J0D01*
G01*
X41396500Y49900000D01*
G75*
G02*
X40946500Y50350000I0J450000D01*
G01*
G37*
%TD*%
%TO.C,REF\u002A\u002A*%
G36*
G01*
X38406500Y50350000D02*
X38406500Y51250000D01*
G75*
G02*
X38856500Y51700000I450000J0D01*
G01*
X39756500Y51700000D01*
G75*
G02*
X40206500Y51250000I0J-450000D01*
G01*
X40206500Y50350000D01*
G75*
G02*
X39756500Y49900000I-450000J0D01*
G01*
X38856500Y49900000D01*
G75*
G02*
X38406500Y50350000I0J450000D01*
G01*
G37*
%TD*%
%TO.C,REF\u002A\u002A*%
G36*
G01*
X35866500Y50350000D02*
X35866500Y51250000D01*
G75*
G02*
X36316500Y51700000I450000J0D01*
G01*
X37216500Y51700000D01*
G75*
G02*
X37666500Y51250000I0J-450000D01*
G01*
X37666500Y50350000D01*
G75*
G02*
X37216500Y49900000I-450000J0D01*
G01*
X36316500Y49900000D01*
G75*
G02*
X35866500Y50350000I0J450000D01*
G01*
G37*
%TD*%
%TO.C,REF\u002A\u002A*%
G36*
G01*
X33326500Y50350000D02*
X33326500Y51250000D01*
G75*
G02*
X33776500Y51700000I450000J0D01*
G01*
X34676500Y51700000D01*
G75*
G02*
X35126500Y51250000I0J-450000D01*
G01*
X35126500Y50350000D01*
G75*
G02*
X34676500Y49900000I-450000J0D01*
G01*
X33776500Y49900000D01*
G75*
G02*
X33326500Y50350000I0J450000D01*
G01*
G37*
%TD*%
%TO.C,REF\u002A\u002A*%
G36*
G01*
X30786500Y50350000D02*
X30786500Y51250000D01*
G75*
G02*
X31236500Y51700000I450000J0D01*
G01*
X32136500Y51700000D01*
G75*
G02*
X32586500Y51250000I0J-450000D01*
G01*
X32586500Y50350000D01*
G75*
G02*
X32136500Y49900000I-450000J0D01*
G01*
X31236500Y49900000D01*
G75*
G02*
X30786500Y50350000I0J450000D01*
G01*
G37*
%TD*%
%TO.C,REF\u002A\u002A*%
G36*
G01*
X28246500Y50350000D02*
X28246500Y51250000D01*
G75*
G02*
X28696500Y51700000I450000J0D01*
G01*
X29596500Y51700000D01*
G75*
G02*
X30046500Y51250000I0J-450000D01*
G01*
X30046500Y50350000D01*
G75*
G02*
X29596500Y49900000I-450000J0D01*
G01*
X28696500Y49900000D01*
G75*
G02*
X28246500Y50350000I0J450000D01*
G01*
G37*
%TD*%
%TO.C,REF\u002A\u002A*%
G36*
G01*
X25706500Y50350000D02*
X25706500Y51250000D01*
G75*
G02*
X26156500Y51700000I450000J0D01*
G01*
X27056500Y51700000D01*
G75*
G02*
X27506500Y51250000I0J-450000D01*
G01*
X27506500Y50350000D01*
G75*
G02*
X27056500Y49900000I-450000J0D01*
G01*
X26156500Y49900000D01*
G75*
G02*
X25706500Y50350000I0J450000D01*
G01*
G37*
%TD*%
%TO.C,REF\u002A\u002A*%
G36*
G01*
X23166500Y50350000D02*
X23166500Y51250000D01*
G75*
G02*
X23616500Y51700000I450000J0D01*
G01*
X24516500Y51700000D01*
G75*
G02*
X24966500Y51250000I0J-450000D01*
G01*
X24966500Y50350000D01*
G75*
G02*
X24516500Y49900000I-450000J0D01*
G01*
X23616500Y49900000D01*
G75*
G02*
X23166500Y50350000I0J450000D01*
G01*
G37*
%TD*%
%TO.C,REF\u002A\u002A*%
G36*
G01*
X20626500Y50350000D02*
X20626500Y51250000D01*
G75*
G02*
X21076500Y51700000I450000J0D01*
G01*
X21976500Y51700000D01*
G75*
G02*
X22426500Y51250000I0J-450000D01*
G01*
X22426500Y50350000D01*
G75*
G02*
X21976500Y49900000I-450000J0D01*
G01*
X21076500Y49900000D01*
G75*
G02*
X20626500Y50350000I0J450000D01*
G01*
G37*
%TD*%
%TO.C,REF\u002A\u002A*%
G36*
G01*
X18086500Y50350000D02*
X18086500Y51250000D01*
G75*
G02*
X18536500Y51700000I450000J0D01*
G01*
X19436500Y51700000D01*
G75*
G02*
X19886500Y51250000I0J-450000D01*
G01*
X19886500Y50350000D01*
G75*
G02*
X19436500Y49900000I-450000J0D01*
G01*
X18536500Y49900000D01*
G75*
G02*
X18086500Y50350000I0J450000D01*
G01*
G37*
%TD*%
%TO.C,REF\u002A\u002A*%
G36*
G01*
X15546500Y50350000D02*
X15546500Y51250000D01*
G75*
G02*
X15996500Y51700000I450000J0D01*
G01*
X16896500Y51700000D01*
G75*
G02*
X17346500Y51250000I0J-450000D01*
G01*
X17346500Y50350000D01*
G75*
G02*
X16896500Y49900000I-450000J0D01*
G01*
X15996500Y49900000D01*
G75*
G02*
X15546500Y50350000I0J450000D01*
G01*
G37*
%TD*%
%TO.C,REF\u002A\u002A*%
G36*
G01*
X13006500Y50350000D02*
X13006500Y51250000D01*
G75*
G02*
X13456500Y51700000I450000J0D01*
G01*
X14356500Y51700000D01*
G75*
G02*
X14806500Y51250000I0J-450000D01*
G01*
X14806500Y50350000D01*
G75*
G02*
X14356500Y49900000I-450000J0D01*
G01*
X13456500Y49900000D01*
G75*
G02*
X13006500Y50350000I0J450000D01*
G01*
G37*
%TD*%
%TO.C,REF\u002A\u002A*%
G36*
G01*
X10466500Y50350000D02*
X10466500Y51250000D01*
G75*
G02*
X10916500Y51700000I450000J0D01*
G01*
X11816500Y51700000D01*
G75*
G02*
X12266500Y51250000I0J-450000D01*
G01*
X12266500Y50350000D01*
G75*
G02*
X11816500Y49900000I-450000J0D01*
G01*
X10916500Y49900000D01*
G75*
G02*
X10466500Y50350000I0J450000D01*
G01*
G37*
%TD*%
%TO.C,REF\u002A\u002A*%
G36*
G01*
X7926500Y50350000D02*
X7926500Y51250000D01*
G75*
G02*
X8376500Y51700000I450000J0D01*
G01*
X9276500Y51700000D01*
G75*
G02*
X9726500Y51250000I0J-450000D01*
G01*
X9726500Y50350000D01*
G75*
G02*
X9276500Y49900000I-450000J0D01*
G01*
X8376500Y49900000D01*
G75*
G02*
X7926500Y50350000I0J450000D01*
G01*
G37*
%TD*%
%TO.C,REF\u002A\u002A*%
G36*
G01*
X5386500Y50350000D02*
X5386500Y51250000D01*
G75*
G02*
X5836500Y51700000I450000J0D01*
G01*
X6736500Y51700000D01*
G75*
G02*
X7186500Y51250000I0J-450000D01*
G01*
X7186500Y50350000D01*
G75*
G02*
X6736500Y49900000I-450000J0D01*
G01*
X5836500Y49900000D01*
G75*
G02*
X5386500Y50350000I0J450000D01*
G01*
G37*
%TD*%
%TO.C,REF\u002A\u002A*%
G36*
G01*
X2846500Y50350000D02*
X2846500Y51250000D01*
G75*
G02*
X3296500Y51700000I450000J0D01*
G01*
X4196500Y51700000D01*
G75*
G02*
X4646500Y51250000I0J-450000D01*
G01*
X4646500Y50350000D01*
G75*
G02*
X4196500Y49900000I-450000J0D01*
G01*
X3296500Y49900000D01*
G75*
G02*
X2846500Y50350000I0J450000D01*
G01*
G37*
%TD*%
%TO.C,REF\u002A\u002A*%
G36*
G01*
X76506500Y52890000D02*
X76506500Y53790000D01*
G75*
G02*
X76956500Y54240000I450000J0D01*
G01*
X77856500Y54240000D01*
G75*
G02*
X78306500Y53790000I0J-450000D01*
G01*
X78306500Y52890000D01*
G75*
G02*
X77856500Y52440000I-450000J0D01*
G01*
X76956500Y52440000D01*
G75*
G02*
X76506500Y52890000I0J450000D01*
G01*
G37*
%TD*%
%TO.C,REF\u002A\u002A*%
G36*
G01*
X73966500Y52890000D02*
X73966500Y53790000D01*
G75*
G02*
X74416500Y54240000I450000J0D01*
G01*
X75316500Y54240000D01*
G75*
G02*
X75766500Y53790000I0J-450000D01*
G01*
X75766500Y52890000D01*
G75*
G02*
X75316500Y52440000I-450000J0D01*
G01*
X74416500Y52440000D01*
G75*
G02*
X73966500Y52890000I0J450000D01*
G01*
G37*
%TD*%
%TO.C,REF\u002A\u002A*%
G36*
G01*
X71426500Y52890000D02*
X71426500Y53790000D01*
G75*
G02*
X71876500Y54240000I450000J0D01*
G01*
X72776500Y54240000D01*
G75*
G02*
X73226500Y53790000I0J-450000D01*
G01*
X73226500Y52890000D01*
G75*
G02*
X72776500Y52440000I-450000J0D01*
G01*
X71876500Y52440000D01*
G75*
G02*
X71426500Y52890000I0J450000D01*
G01*
G37*
%TD*%
%TO.C,REF\u002A\u002A*%
G36*
G01*
X68886500Y52890000D02*
X68886500Y53790000D01*
G75*
G02*
X69336500Y54240000I450000J0D01*
G01*
X70236500Y54240000D01*
G75*
G02*
X70686500Y53790000I0J-450000D01*
G01*
X70686500Y52890000D01*
G75*
G02*
X70236500Y52440000I-450000J0D01*
G01*
X69336500Y52440000D01*
G75*
G02*
X68886500Y52890000I0J450000D01*
G01*
G37*
%TD*%
%TO.C,REF\u002A\u002A*%
G36*
G01*
X66346500Y52890000D02*
X66346500Y53790000D01*
G75*
G02*
X66796500Y54240000I450000J0D01*
G01*
X67696500Y54240000D01*
G75*
G02*
X68146500Y53790000I0J-450000D01*
G01*
X68146500Y52890000D01*
G75*
G02*
X67696500Y52440000I-450000J0D01*
G01*
X66796500Y52440000D01*
G75*
G02*
X66346500Y52890000I0J450000D01*
G01*
G37*
%TD*%
%TO.C,REF\u002A\u002A*%
G36*
G01*
X63806500Y52890000D02*
X63806500Y53790000D01*
G75*
G02*
X64256500Y54240000I450000J0D01*
G01*
X65156500Y54240000D01*
G75*
G02*
X65606500Y53790000I0J-450000D01*
G01*
X65606500Y52890000D01*
G75*
G02*
X65156500Y52440000I-450000J0D01*
G01*
X64256500Y52440000D01*
G75*
G02*
X63806500Y52890000I0J450000D01*
G01*
G37*
%TD*%
%TO.C,REF\u002A\u002A*%
G36*
G01*
X61266500Y52890000D02*
X61266500Y53790000D01*
G75*
G02*
X61716500Y54240000I450000J0D01*
G01*
X62616500Y54240000D01*
G75*
G02*
X63066500Y53790000I0J-450000D01*
G01*
X63066500Y52890000D01*
G75*
G02*
X62616500Y52440000I-450000J0D01*
G01*
X61716500Y52440000D01*
G75*
G02*
X61266500Y52890000I0J450000D01*
G01*
G37*
%TD*%
%TO.C,REF\u002A\u002A*%
G36*
G01*
X58726500Y52890000D02*
X58726500Y53790000D01*
G75*
G02*
X59176500Y54240000I450000J0D01*
G01*
X60076500Y54240000D01*
G75*
G02*
X60526500Y53790000I0J-450000D01*
G01*
X60526500Y52890000D01*
G75*
G02*
X60076500Y52440000I-450000J0D01*
G01*
X59176500Y52440000D01*
G75*
G02*
X58726500Y52890000I0J450000D01*
G01*
G37*
%TD*%
%TO.C,REF\u002A\u002A*%
G36*
G01*
X56186500Y52890000D02*
X56186500Y53790000D01*
G75*
G02*
X56636500Y54240000I450000J0D01*
G01*
X57536500Y54240000D01*
G75*
G02*
X57986500Y53790000I0J-450000D01*
G01*
X57986500Y52890000D01*
G75*
G02*
X57536500Y52440000I-450000J0D01*
G01*
X56636500Y52440000D01*
G75*
G02*
X56186500Y52890000I0J450000D01*
G01*
G37*
%TD*%
%TO.C,REF\u002A\u002A*%
G36*
G01*
X53646500Y52890000D02*
X53646500Y53790000D01*
G75*
G02*
X54096500Y54240000I450000J0D01*
G01*
X54996500Y54240000D01*
G75*
G02*
X55446500Y53790000I0J-450000D01*
G01*
X55446500Y52890000D01*
G75*
G02*
X54996500Y52440000I-450000J0D01*
G01*
X54096500Y52440000D01*
G75*
G02*
X53646500Y52890000I0J450000D01*
G01*
G37*
%TD*%
%TO.C,REF\u002A\u002A*%
G36*
G01*
X51106500Y52890000D02*
X51106500Y53790000D01*
G75*
G02*
X51556500Y54240000I450000J0D01*
G01*
X52456500Y54240000D01*
G75*
G02*
X52906500Y53790000I0J-450000D01*
G01*
X52906500Y52890000D01*
G75*
G02*
X52456500Y52440000I-450000J0D01*
G01*
X51556500Y52440000D01*
G75*
G02*
X51106500Y52890000I0J450000D01*
G01*
G37*
%TD*%
%TO.C,REF\u002A\u002A*%
G36*
G01*
X48566500Y52890000D02*
X48566500Y53790000D01*
G75*
G02*
X49016500Y54240000I450000J0D01*
G01*
X49916500Y54240000D01*
G75*
G02*
X50366500Y53790000I0J-450000D01*
G01*
X50366500Y52890000D01*
G75*
G02*
X49916500Y52440000I-450000J0D01*
G01*
X49016500Y52440000D01*
G75*
G02*
X48566500Y52890000I0J450000D01*
G01*
G37*
%TD*%
%TO.C,REF\u002A\u002A*%
G36*
G01*
X46026500Y52890000D02*
X46026500Y53790000D01*
G75*
G02*
X46476500Y54240000I450000J0D01*
G01*
X47376500Y54240000D01*
G75*
G02*
X47826500Y53790000I0J-450000D01*
G01*
X47826500Y52890000D01*
G75*
G02*
X47376500Y52440000I-450000J0D01*
G01*
X46476500Y52440000D01*
G75*
G02*
X46026500Y52890000I0J450000D01*
G01*
G37*
%TD*%
%TO.C,REF\u002A\u002A*%
G36*
G01*
X43486500Y52890000D02*
X43486500Y53790000D01*
G75*
G02*
X43936500Y54240000I450000J0D01*
G01*
X44836500Y54240000D01*
G75*
G02*
X45286500Y53790000I0J-450000D01*
G01*
X45286500Y52890000D01*
G75*
G02*
X44836500Y52440000I-450000J0D01*
G01*
X43936500Y52440000D01*
G75*
G02*
X43486500Y52890000I0J450000D01*
G01*
G37*
%TD*%
%TO.C,REF\u002A\u002A*%
G36*
G01*
X40946500Y52890000D02*
X40946500Y53790000D01*
G75*
G02*
X41396500Y54240000I450000J0D01*
G01*
X42296500Y54240000D01*
G75*
G02*
X42746500Y53790000I0J-450000D01*
G01*
X42746500Y52890000D01*
G75*
G02*
X42296500Y52440000I-450000J0D01*
G01*
X41396500Y52440000D01*
G75*
G02*
X40946500Y52890000I0J450000D01*
G01*
G37*
%TD*%
%TO.C,REF\u002A\u002A*%
G36*
G01*
X38406500Y52890000D02*
X38406500Y53790000D01*
G75*
G02*
X38856500Y54240000I450000J0D01*
G01*
X39756500Y54240000D01*
G75*
G02*
X40206500Y53790000I0J-450000D01*
G01*
X40206500Y52890000D01*
G75*
G02*
X39756500Y52440000I-450000J0D01*
G01*
X38856500Y52440000D01*
G75*
G02*
X38406500Y52890000I0J450000D01*
G01*
G37*
%TD*%
%TO.C,REF\u002A\u002A*%
G36*
G01*
X35866500Y52890000D02*
X35866500Y53790000D01*
G75*
G02*
X36316500Y54240000I450000J0D01*
G01*
X37216500Y54240000D01*
G75*
G02*
X37666500Y53790000I0J-450000D01*
G01*
X37666500Y52890000D01*
G75*
G02*
X37216500Y52440000I-450000J0D01*
G01*
X36316500Y52440000D01*
G75*
G02*
X35866500Y52890000I0J450000D01*
G01*
G37*
%TD*%
%TO.C,REF\u002A\u002A*%
G36*
G01*
X33326500Y52890000D02*
X33326500Y53790000D01*
G75*
G02*
X33776500Y54240000I450000J0D01*
G01*
X34676500Y54240000D01*
G75*
G02*
X35126500Y53790000I0J-450000D01*
G01*
X35126500Y52890000D01*
G75*
G02*
X34676500Y52440000I-450000J0D01*
G01*
X33776500Y52440000D01*
G75*
G02*
X33326500Y52890000I0J450000D01*
G01*
G37*
%TD*%
%TO.C,REF\u002A\u002A*%
G36*
G01*
X30786500Y52890000D02*
X30786500Y53790000D01*
G75*
G02*
X31236500Y54240000I450000J0D01*
G01*
X32136500Y54240000D01*
G75*
G02*
X32586500Y53790000I0J-450000D01*
G01*
X32586500Y52890000D01*
G75*
G02*
X32136500Y52440000I-450000J0D01*
G01*
X31236500Y52440000D01*
G75*
G02*
X30786500Y52890000I0J450000D01*
G01*
G37*
%TD*%
%TO.C,REF\u002A\u002A*%
G36*
G01*
X28246500Y52890000D02*
X28246500Y53790000D01*
G75*
G02*
X28696500Y54240000I450000J0D01*
G01*
X29596500Y54240000D01*
G75*
G02*
X30046500Y53790000I0J-450000D01*
G01*
X30046500Y52890000D01*
G75*
G02*
X29596500Y52440000I-450000J0D01*
G01*
X28696500Y52440000D01*
G75*
G02*
X28246500Y52890000I0J450000D01*
G01*
G37*
%TD*%
%TO.C,REF\u002A\u002A*%
G36*
G01*
X25706500Y52890000D02*
X25706500Y53790000D01*
G75*
G02*
X26156500Y54240000I450000J0D01*
G01*
X27056500Y54240000D01*
G75*
G02*
X27506500Y53790000I0J-450000D01*
G01*
X27506500Y52890000D01*
G75*
G02*
X27056500Y52440000I-450000J0D01*
G01*
X26156500Y52440000D01*
G75*
G02*
X25706500Y52890000I0J450000D01*
G01*
G37*
%TD*%
%TO.C,REF\u002A\u002A*%
G36*
G01*
X23166500Y52890000D02*
X23166500Y53790000D01*
G75*
G02*
X23616500Y54240000I450000J0D01*
G01*
X24516500Y54240000D01*
G75*
G02*
X24966500Y53790000I0J-450000D01*
G01*
X24966500Y52890000D01*
G75*
G02*
X24516500Y52440000I-450000J0D01*
G01*
X23616500Y52440000D01*
G75*
G02*
X23166500Y52890000I0J450000D01*
G01*
G37*
%TD*%
%TO.C,REF\u002A\u002A*%
G36*
G01*
X20626500Y52890000D02*
X20626500Y53790000D01*
G75*
G02*
X21076500Y54240000I450000J0D01*
G01*
X21976500Y54240000D01*
G75*
G02*
X22426500Y53790000I0J-450000D01*
G01*
X22426500Y52890000D01*
G75*
G02*
X21976500Y52440000I-450000J0D01*
G01*
X21076500Y52440000D01*
G75*
G02*
X20626500Y52890000I0J450000D01*
G01*
G37*
%TD*%
%TO.C,REF\u002A\u002A*%
G36*
G01*
X18086500Y52890000D02*
X18086500Y53790000D01*
G75*
G02*
X18536500Y54240000I450000J0D01*
G01*
X19436500Y54240000D01*
G75*
G02*
X19886500Y53790000I0J-450000D01*
G01*
X19886500Y52890000D01*
G75*
G02*
X19436500Y52440000I-450000J0D01*
G01*
X18536500Y52440000D01*
G75*
G02*
X18086500Y52890000I0J450000D01*
G01*
G37*
%TD*%
%TO.C,REF\u002A\u002A*%
G36*
G01*
X15546500Y52890000D02*
X15546500Y53790000D01*
G75*
G02*
X15996500Y54240000I450000J0D01*
G01*
X16896500Y54240000D01*
G75*
G02*
X17346500Y53790000I0J-450000D01*
G01*
X17346500Y52890000D01*
G75*
G02*
X16896500Y52440000I-450000J0D01*
G01*
X15996500Y52440000D01*
G75*
G02*
X15546500Y52890000I0J450000D01*
G01*
G37*
%TD*%
%TO.C,REF\u002A\u002A*%
G36*
G01*
X13006500Y52890000D02*
X13006500Y53790000D01*
G75*
G02*
X13456500Y54240000I450000J0D01*
G01*
X14356500Y54240000D01*
G75*
G02*
X14806500Y53790000I0J-450000D01*
G01*
X14806500Y52890000D01*
G75*
G02*
X14356500Y52440000I-450000J0D01*
G01*
X13456500Y52440000D01*
G75*
G02*
X13006500Y52890000I0J450000D01*
G01*
G37*
%TD*%
%TO.C,REF\u002A\u002A*%
G36*
G01*
X10466500Y52890000D02*
X10466500Y53790000D01*
G75*
G02*
X10916500Y54240000I450000J0D01*
G01*
X11816500Y54240000D01*
G75*
G02*
X12266500Y53790000I0J-450000D01*
G01*
X12266500Y52890000D01*
G75*
G02*
X11816500Y52440000I-450000J0D01*
G01*
X10916500Y52440000D01*
G75*
G02*
X10466500Y52890000I0J450000D01*
G01*
G37*
%TD*%
%TO.C,REF\u002A\u002A*%
G36*
G01*
X7926500Y52890000D02*
X7926500Y53790000D01*
G75*
G02*
X8376500Y54240000I450000J0D01*
G01*
X9276500Y54240000D01*
G75*
G02*
X9726500Y53790000I0J-450000D01*
G01*
X9726500Y52890000D01*
G75*
G02*
X9276500Y52440000I-450000J0D01*
G01*
X8376500Y52440000D01*
G75*
G02*
X7926500Y52890000I0J450000D01*
G01*
G37*
%TD*%
%TO.C,REF\u002A\u002A*%
G36*
G01*
X5386500Y52890000D02*
X5386500Y53790000D01*
G75*
G02*
X5836500Y54240000I450000J0D01*
G01*
X6736500Y54240000D01*
G75*
G02*
X7186500Y53790000I0J-450000D01*
G01*
X7186500Y52890000D01*
G75*
G02*
X6736500Y52440000I-450000J0D01*
G01*
X5836500Y52440000D01*
G75*
G02*
X5386500Y52890000I0J450000D01*
G01*
G37*
%TD*%
%TO.C,REF\u002A\u002A*%
G36*
G01*
X2846500Y52890000D02*
X2846500Y53790000D01*
G75*
G02*
X3296500Y54240000I450000J0D01*
G01*
X4196500Y54240000D01*
G75*
G02*
X4646500Y53790000I0J-450000D01*
G01*
X4646500Y52890000D01*
G75*
G02*
X4196500Y52440000I-450000J0D01*
G01*
X3296500Y52440000D01*
G75*
G02*
X2846500Y52890000I0J450000D01*
G01*
G37*
%TD*%
%TO.C,REF\u002A\u002A*%
G36*
G01*
X76506500Y55430000D02*
X76506500Y56330000D01*
G75*
G02*
X76956500Y56780000I450000J0D01*
G01*
X77856500Y56780000D01*
G75*
G02*
X78306500Y56330000I0J-450000D01*
G01*
X78306500Y55430000D01*
G75*
G02*
X77856500Y54980000I-450000J0D01*
G01*
X76956500Y54980000D01*
G75*
G02*
X76506500Y55430000I0J450000D01*
G01*
G37*
%TD*%
%TO.C,REF\u002A\u002A*%
G36*
G01*
X73966500Y55430000D02*
X73966500Y56330000D01*
G75*
G02*
X74416500Y56780000I450000J0D01*
G01*
X75316500Y56780000D01*
G75*
G02*
X75766500Y56330000I0J-450000D01*
G01*
X75766500Y55430000D01*
G75*
G02*
X75316500Y54980000I-450000J0D01*
G01*
X74416500Y54980000D01*
G75*
G02*
X73966500Y55430000I0J450000D01*
G01*
G37*
%TD*%
%TO.C,REF\u002A\u002A*%
G36*
G01*
X71426500Y55430000D02*
X71426500Y56330000D01*
G75*
G02*
X71876500Y56780000I450000J0D01*
G01*
X72776500Y56780000D01*
G75*
G02*
X73226500Y56330000I0J-450000D01*
G01*
X73226500Y55430000D01*
G75*
G02*
X72776500Y54980000I-450000J0D01*
G01*
X71876500Y54980000D01*
G75*
G02*
X71426500Y55430000I0J450000D01*
G01*
G37*
%TD*%
%TO.C,REF\u002A\u002A*%
G36*
G01*
X68886500Y55430000D02*
X68886500Y56330000D01*
G75*
G02*
X69336500Y56780000I450000J0D01*
G01*
X70236500Y56780000D01*
G75*
G02*
X70686500Y56330000I0J-450000D01*
G01*
X70686500Y55430000D01*
G75*
G02*
X70236500Y54980000I-450000J0D01*
G01*
X69336500Y54980000D01*
G75*
G02*
X68886500Y55430000I0J450000D01*
G01*
G37*
%TD*%
%TO.C,REF\u002A\u002A*%
G36*
G01*
X66346500Y55430000D02*
X66346500Y56330000D01*
G75*
G02*
X66796500Y56780000I450000J0D01*
G01*
X67696500Y56780000D01*
G75*
G02*
X68146500Y56330000I0J-450000D01*
G01*
X68146500Y55430000D01*
G75*
G02*
X67696500Y54980000I-450000J0D01*
G01*
X66796500Y54980000D01*
G75*
G02*
X66346500Y55430000I0J450000D01*
G01*
G37*
%TD*%
%TO.C,REF\u002A\u002A*%
G36*
G01*
X63806500Y55430000D02*
X63806500Y56330000D01*
G75*
G02*
X64256500Y56780000I450000J0D01*
G01*
X65156500Y56780000D01*
G75*
G02*
X65606500Y56330000I0J-450000D01*
G01*
X65606500Y55430000D01*
G75*
G02*
X65156500Y54980000I-450000J0D01*
G01*
X64256500Y54980000D01*
G75*
G02*
X63806500Y55430000I0J450000D01*
G01*
G37*
%TD*%
%TO.C,REF\u002A\u002A*%
G36*
G01*
X61266500Y55430000D02*
X61266500Y56330000D01*
G75*
G02*
X61716500Y56780000I450000J0D01*
G01*
X62616500Y56780000D01*
G75*
G02*
X63066500Y56330000I0J-450000D01*
G01*
X63066500Y55430000D01*
G75*
G02*
X62616500Y54980000I-450000J0D01*
G01*
X61716500Y54980000D01*
G75*
G02*
X61266500Y55430000I0J450000D01*
G01*
G37*
%TD*%
%TO.C,REF\u002A\u002A*%
G36*
G01*
X58726500Y55430000D02*
X58726500Y56330000D01*
G75*
G02*
X59176500Y56780000I450000J0D01*
G01*
X60076500Y56780000D01*
G75*
G02*
X60526500Y56330000I0J-450000D01*
G01*
X60526500Y55430000D01*
G75*
G02*
X60076500Y54980000I-450000J0D01*
G01*
X59176500Y54980000D01*
G75*
G02*
X58726500Y55430000I0J450000D01*
G01*
G37*
%TD*%
%TO.C,REF\u002A\u002A*%
G36*
G01*
X56186500Y55430000D02*
X56186500Y56330000D01*
G75*
G02*
X56636500Y56780000I450000J0D01*
G01*
X57536500Y56780000D01*
G75*
G02*
X57986500Y56330000I0J-450000D01*
G01*
X57986500Y55430000D01*
G75*
G02*
X57536500Y54980000I-450000J0D01*
G01*
X56636500Y54980000D01*
G75*
G02*
X56186500Y55430000I0J450000D01*
G01*
G37*
%TD*%
%TO.C,REF\u002A\u002A*%
G36*
G01*
X53646500Y55430000D02*
X53646500Y56330000D01*
G75*
G02*
X54096500Y56780000I450000J0D01*
G01*
X54996500Y56780000D01*
G75*
G02*
X55446500Y56330000I0J-450000D01*
G01*
X55446500Y55430000D01*
G75*
G02*
X54996500Y54980000I-450000J0D01*
G01*
X54096500Y54980000D01*
G75*
G02*
X53646500Y55430000I0J450000D01*
G01*
G37*
%TD*%
%TO.C,REF\u002A\u002A*%
G36*
G01*
X51106500Y55430000D02*
X51106500Y56330000D01*
G75*
G02*
X51556500Y56780000I450000J0D01*
G01*
X52456500Y56780000D01*
G75*
G02*
X52906500Y56330000I0J-450000D01*
G01*
X52906500Y55430000D01*
G75*
G02*
X52456500Y54980000I-450000J0D01*
G01*
X51556500Y54980000D01*
G75*
G02*
X51106500Y55430000I0J450000D01*
G01*
G37*
%TD*%
%TO.C,REF\u002A\u002A*%
G36*
G01*
X48566500Y55430000D02*
X48566500Y56330000D01*
G75*
G02*
X49016500Y56780000I450000J0D01*
G01*
X49916500Y56780000D01*
G75*
G02*
X50366500Y56330000I0J-450000D01*
G01*
X50366500Y55430000D01*
G75*
G02*
X49916500Y54980000I-450000J0D01*
G01*
X49016500Y54980000D01*
G75*
G02*
X48566500Y55430000I0J450000D01*
G01*
G37*
%TD*%
%TO.C,REF\u002A\u002A*%
G36*
G01*
X46026500Y55430000D02*
X46026500Y56330000D01*
G75*
G02*
X46476500Y56780000I450000J0D01*
G01*
X47376500Y56780000D01*
G75*
G02*
X47826500Y56330000I0J-450000D01*
G01*
X47826500Y55430000D01*
G75*
G02*
X47376500Y54980000I-450000J0D01*
G01*
X46476500Y54980000D01*
G75*
G02*
X46026500Y55430000I0J450000D01*
G01*
G37*
%TD*%
%TO.C,REF\u002A\u002A*%
G36*
G01*
X43486500Y55430000D02*
X43486500Y56330000D01*
G75*
G02*
X43936500Y56780000I450000J0D01*
G01*
X44836500Y56780000D01*
G75*
G02*
X45286500Y56330000I0J-450000D01*
G01*
X45286500Y55430000D01*
G75*
G02*
X44836500Y54980000I-450000J0D01*
G01*
X43936500Y54980000D01*
G75*
G02*
X43486500Y55430000I0J450000D01*
G01*
G37*
%TD*%
%TO.C,REF\u002A\u002A*%
G36*
G01*
X40946500Y55430000D02*
X40946500Y56330000D01*
G75*
G02*
X41396500Y56780000I450000J0D01*
G01*
X42296500Y56780000D01*
G75*
G02*
X42746500Y56330000I0J-450000D01*
G01*
X42746500Y55430000D01*
G75*
G02*
X42296500Y54980000I-450000J0D01*
G01*
X41396500Y54980000D01*
G75*
G02*
X40946500Y55430000I0J450000D01*
G01*
G37*
%TD*%
%TO.C,REF\u002A\u002A*%
G36*
G01*
X38406500Y55430000D02*
X38406500Y56330000D01*
G75*
G02*
X38856500Y56780000I450000J0D01*
G01*
X39756500Y56780000D01*
G75*
G02*
X40206500Y56330000I0J-450000D01*
G01*
X40206500Y55430000D01*
G75*
G02*
X39756500Y54980000I-450000J0D01*
G01*
X38856500Y54980000D01*
G75*
G02*
X38406500Y55430000I0J450000D01*
G01*
G37*
%TD*%
%TO.C,REF\u002A\u002A*%
G36*
G01*
X35866500Y55430000D02*
X35866500Y56330000D01*
G75*
G02*
X36316500Y56780000I450000J0D01*
G01*
X37216500Y56780000D01*
G75*
G02*
X37666500Y56330000I0J-450000D01*
G01*
X37666500Y55430000D01*
G75*
G02*
X37216500Y54980000I-450000J0D01*
G01*
X36316500Y54980000D01*
G75*
G02*
X35866500Y55430000I0J450000D01*
G01*
G37*
%TD*%
%TO.C,REF\u002A\u002A*%
G36*
G01*
X33326500Y55430000D02*
X33326500Y56330000D01*
G75*
G02*
X33776500Y56780000I450000J0D01*
G01*
X34676500Y56780000D01*
G75*
G02*
X35126500Y56330000I0J-450000D01*
G01*
X35126500Y55430000D01*
G75*
G02*
X34676500Y54980000I-450000J0D01*
G01*
X33776500Y54980000D01*
G75*
G02*
X33326500Y55430000I0J450000D01*
G01*
G37*
%TD*%
%TO.C,REF\u002A\u002A*%
G36*
G01*
X30786500Y55430000D02*
X30786500Y56330000D01*
G75*
G02*
X31236500Y56780000I450000J0D01*
G01*
X32136500Y56780000D01*
G75*
G02*
X32586500Y56330000I0J-450000D01*
G01*
X32586500Y55430000D01*
G75*
G02*
X32136500Y54980000I-450000J0D01*
G01*
X31236500Y54980000D01*
G75*
G02*
X30786500Y55430000I0J450000D01*
G01*
G37*
%TD*%
%TO.C,REF\u002A\u002A*%
G36*
G01*
X28246500Y55430000D02*
X28246500Y56330000D01*
G75*
G02*
X28696500Y56780000I450000J0D01*
G01*
X29596500Y56780000D01*
G75*
G02*
X30046500Y56330000I0J-450000D01*
G01*
X30046500Y55430000D01*
G75*
G02*
X29596500Y54980000I-450000J0D01*
G01*
X28696500Y54980000D01*
G75*
G02*
X28246500Y55430000I0J450000D01*
G01*
G37*
%TD*%
%TO.C,REF\u002A\u002A*%
G36*
G01*
X25706500Y55430000D02*
X25706500Y56330000D01*
G75*
G02*
X26156500Y56780000I450000J0D01*
G01*
X27056500Y56780000D01*
G75*
G02*
X27506500Y56330000I0J-450000D01*
G01*
X27506500Y55430000D01*
G75*
G02*
X27056500Y54980000I-450000J0D01*
G01*
X26156500Y54980000D01*
G75*
G02*
X25706500Y55430000I0J450000D01*
G01*
G37*
%TD*%
%TO.C,REF\u002A\u002A*%
G36*
G01*
X23166500Y55430000D02*
X23166500Y56330000D01*
G75*
G02*
X23616500Y56780000I450000J0D01*
G01*
X24516500Y56780000D01*
G75*
G02*
X24966500Y56330000I0J-450000D01*
G01*
X24966500Y55430000D01*
G75*
G02*
X24516500Y54980000I-450000J0D01*
G01*
X23616500Y54980000D01*
G75*
G02*
X23166500Y55430000I0J450000D01*
G01*
G37*
%TD*%
%TO.C,REF\u002A\u002A*%
G36*
G01*
X20626500Y55430000D02*
X20626500Y56330000D01*
G75*
G02*
X21076500Y56780000I450000J0D01*
G01*
X21976500Y56780000D01*
G75*
G02*
X22426500Y56330000I0J-450000D01*
G01*
X22426500Y55430000D01*
G75*
G02*
X21976500Y54980000I-450000J0D01*
G01*
X21076500Y54980000D01*
G75*
G02*
X20626500Y55430000I0J450000D01*
G01*
G37*
%TD*%
%TO.C,REF\u002A\u002A*%
G36*
G01*
X18086500Y55430000D02*
X18086500Y56330000D01*
G75*
G02*
X18536500Y56780000I450000J0D01*
G01*
X19436500Y56780000D01*
G75*
G02*
X19886500Y56330000I0J-450000D01*
G01*
X19886500Y55430000D01*
G75*
G02*
X19436500Y54980000I-450000J0D01*
G01*
X18536500Y54980000D01*
G75*
G02*
X18086500Y55430000I0J450000D01*
G01*
G37*
%TD*%
%TO.C,REF\u002A\u002A*%
G36*
G01*
X15546500Y55430000D02*
X15546500Y56330000D01*
G75*
G02*
X15996500Y56780000I450000J0D01*
G01*
X16896500Y56780000D01*
G75*
G02*
X17346500Y56330000I0J-450000D01*
G01*
X17346500Y55430000D01*
G75*
G02*
X16896500Y54980000I-450000J0D01*
G01*
X15996500Y54980000D01*
G75*
G02*
X15546500Y55430000I0J450000D01*
G01*
G37*
%TD*%
%TO.C,REF\u002A\u002A*%
G36*
G01*
X13006500Y55430000D02*
X13006500Y56330000D01*
G75*
G02*
X13456500Y56780000I450000J0D01*
G01*
X14356500Y56780000D01*
G75*
G02*
X14806500Y56330000I0J-450000D01*
G01*
X14806500Y55430000D01*
G75*
G02*
X14356500Y54980000I-450000J0D01*
G01*
X13456500Y54980000D01*
G75*
G02*
X13006500Y55430000I0J450000D01*
G01*
G37*
%TD*%
%TO.C,REF\u002A\u002A*%
G36*
G01*
X10466500Y55430000D02*
X10466500Y56330000D01*
G75*
G02*
X10916500Y56780000I450000J0D01*
G01*
X11816500Y56780000D01*
G75*
G02*
X12266500Y56330000I0J-450000D01*
G01*
X12266500Y55430000D01*
G75*
G02*
X11816500Y54980000I-450000J0D01*
G01*
X10916500Y54980000D01*
G75*
G02*
X10466500Y55430000I0J450000D01*
G01*
G37*
%TD*%
%TO.C,REF\u002A\u002A*%
G36*
G01*
X7926500Y55430000D02*
X7926500Y56330000D01*
G75*
G02*
X8376500Y56780000I450000J0D01*
G01*
X9276500Y56780000D01*
G75*
G02*
X9726500Y56330000I0J-450000D01*
G01*
X9726500Y55430000D01*
G75*
G02*
X9276500Y54980000I-450000J0D01*
G01*
X8376500Y54980000D01*
G75*
G02*
X7926500Y55430000I0J450000D01*
G01*
G37*
%TD*%
%TO.C,REF\u002A\u002A*%
G36*
G01*
X5386500Y55430000D02*
X5386500Y56330000D01*
G75*
G02*
X5836500Y56780000I450000J0D01*
G01*
X6736500Y56780000D01*
G75*
G02*
X7186500Y56330000I0J-450000D01*
G01*
X7186500Y55430000D01*
G75*
G02*
X6736500Y54980000I-450000J0D01*
G01*
X5836500Y54980000D01*
G75*
G02*
X5386500Y55430000I0J450000D01*
G01*
G37*
%TD*%
%TO.C,REF\u002A\u002A*%
G36*
G01*
X2846500Y55430000D02*
X2846500Y56330000D01*
G75*
G02*
X3296500Y56780000I450000J0D01*
G01*
X4196500Y56780000D01*
G75*
G02*
X4646500Y56330000I0J-450000D01*
G01*
X4646500Y55430000D01*
G75*
G02*
X4196500Y54980000I-450000J0D01*
G01*
X3296500Y54980000D01*
G75*
G02*
X2846500Y55430000I0J450000D01*
G01*
G37*
%TD*%
D10*
%TO.C,J1*%
X17272000Y4064000D03*
X17272000Y6604000D03*
X19812000Y4064000D03*
X19812000Y6604000D03*
X22352000Y4064000D03*
X22352000Y6604000D03*
X24892000Y4064000D03*
X24892000Y6604000D03*
X27432000Y4064000D03*
X27432000Y6604000D03*
X29972000Y4064000D03*
X29972000Y6604000D03*
X32512000Y4064000D03*
X32512000Y6604000D03*
X35052000Y4064000D03*
X35052000Y6604000D03*
X37592000Y4064000D03*
X37592000Y6604000D03*
X40132000Y4064000D03*
X40132000Y6604000D03*
X42672000Y4064000D03*
X42672000Y6604000D03*
X45212000Y4064000D03*
X45212000Y6604000D03*
X47752000Y4064000D03*
X47752000Y6604000D03*
X50292000Y4064000D03*
X50292000Y6604000D03*
X52832000Y4064000D03*
X52832000Y6604000D03*
X55372000Y4064000D03*
X55372000Y6604000D03*
X57912000Y4064000D03*
X57912000Y6604000D03*
X60452000Y4064000D03*
X60452000Y6604000D03*
X62992000Y4064000D03*
X62992000Y6604000D03*
X65532000Y4064000D03*
X65532000Y6604000D03*
X68072000Y4064000D03*
X68072000Y6604000D03*
X70612000Y4064000D03*
X70612000Y6604000D03*
X73152000Y4064000D03*
X73152000Y6604000D03*
X75692000Y4064000D03*
X75692000Y6604000D03*
X78232000Y4064000D03*
D11*
X78232000Y6604000D03*
%TD*%
M02*
