M48
; DRILL file {KiCad (5.1.6-0-10_14)} date Thursday, March 04, 2021 at 04:26:47 PM
; FORMAT={-:-/ absolute / inch / decimal}
; #@! TF.CreationDate,2021-03-04T16:26:47+01:00
; #@! TF.GenerationSoftware,Kicad,Pcbnew,(5.1.6-0-10_14)
FMAT,2
INCH
T1C0.0118
T2C0.0157
T3C0.0300
T4C0.0315
T5C0.0394
T6C0.0906
%
G90
G05
T1
X0.3408Y0.5308
X0.45Y0.55
X0.72Y0.31
X0.91Y0.42
X0.95Y1.1
X0.95Y0.83
X0.9621Y1.308
X0.9885Y1.1
X0.995Y1.3325
X1.03Y1.1
X1.05Y1.35
X1.05Y0.83
X1.07Y1.1
X1.14Y1.3609
X1.15Y0.83
X1.1689Y0.4254
X1.2104Y0.4254
X1.2442Y0.4254
X1.25Y0.83
X1.2799Y0.4253
X1.32Y0.42
X1.5337Y0.4263
X1.6675Y1.89
X1.6925Y1.9175
X1.755Y1.4725
X1.7557Y1.0857
X1.8443Y1.0843
X1.855Y1.4475
X1.99Y0.86
X2.08Y1.21
X2.12Y1.21
X2.1223Y1.287
X2.31Y1.45
X2.32Y1.33
X2.3257Y1.13
X2.3257Y1.0943
X2.3423Y1.2977
X2.54Y1.49
X2.57Y0.7575
X2.59Y1.04
X2.645Y1.0425
X2.78Y0.37
X2.88Y0.35
X2.9613Y0.3355
T2
X0.685Y1.78
X0.8Y1.78
X0.915Y1.78
X1.03Y1.78
X1.145Y1.78
X1.26Y1.78
X1.375Y1.78
X1.49Y1.78
X2.28Y0.87
T3
X2.7969Y2.1339
X2.7969Y1.8661
X2.8954Y2.1339
X2.8954Y2.0512
X2.8954Y1.9488
X2.8954Y1.8661
T4
X0.1Y1.4
X0.1Y0.8
X0.2Y1.4
X0.2Y0.8
X0.3Y1.4
X0.3Y0.8
X0.4Y1.4
X0.4Y0.8
X0.5Y1.4
X0.5Y0.8
X0.6Y1.4
X0.6Y0.8
X0.7Y1.4
X0.7Y0.8
X0.8Y1.4
X0.8Y0.8
X0.9Y1.4
X0.9Y0.8
X1.0Y1.4
X1.0Y0.8
X1.1Y1.4
X1.1Y0.8
X1.2Y1.4
X1.2Y0.8
X1.3Y1.4
X1.3Y0.8
X1.4Y1.4
X1.4Y0.8
X1.5Y1.4
X1.5Y0.8
X1.6Y1.4
X1.6Y0.8
X1.7Y1.4
X1.7Y0.8
X1.8Y1.4
X1.8Y0.8
X1.9Y1.4
X1.9Y0.8
X2.0Y1.4
X2.0Y0.8
X2.1925Y1.45
X2.1925Y1.35
X2.1925Y1.25
X2.1925Y1.15
X2.1925Y1.05
X2.1925Y0.95
X2.1925Y0.85
X2.1925Y0.75
X2.4925Y1.45
X2.4925Y1.35
X2.4925Y1.25
X2.4925Y1.15
X2.4925Y1.05
X2.4925Y0.95
X2.4925Y0.85
X2.4925Y0.75
X2.2925Y2.295
X2.2925Y2.195
X2.2925Y2.095
X2.2925Y1.995
X2.2925Y1.895
X2.2925Y1.795
X2.2925Y1.695
X2.5925Y2.295
X2.5925Y2.195
X2.5925Y2.095
X2.5925Y1.995
X2.5925Y1.895
X2.5925Y1.795
X2.5925Y1.695
T5
X0.68Y0.26
X0.68Y0.16
X0.78Y0.26
X0.78Y0.16
X0.88Y0.26
X0.88Y0.16
X0.98Y0.26
X0.98Y0.16
X1.08Y0.26
X1.08Y0.16
X1.18Y0.26
X1.18Y0.16
X1.28Y0.26
X1.28Y0.16
X1.38Y0.26
X1.38Y0.16
X1.48Y0.26
X1.48Y0.16
X1.58Y0.26
X1.58Y0.16
X1.68Y0.26
X1.68Y0.16
X1.78Y0.26
X1.78Y0.16
X1.88Y0.26
X1.88Y0.16
X1.98Y0.26
X1.98Y0.16
X2.08Y0.26
X2.08Y0.16
X2.18Y0.26
X2.18Y0.16
X2.28Y0.26
X2.28Y0.16
X2.38Y0.26
X2.38Y0.16
X2.48Y0.26
X2.48Y0.16
X2.58Y0.26
X2.58Y0.16
X2.68Y0.26
X2.68Y0.16
X2.78Y0.26
X2.78Y0.16
X2.88Y0.26
X2.88Y0.16
X2.98Y0.26
X2.98Y0.16
X3.08Y0.26
X3.08Y0.16
X2.71Y1.45
X2.71Y1.35
X2.71Y1.25
X2.71Y1.15
X2.71Y1.05
X2.71Y0.95
X2.71Y0.85
X2.71Y0.75
X2.71Y0.65
X2.71Y0.55
X2.81Y1.45
X2.81Y1.35
X2.81Y1.25
X2.81Y1.15
X2.81Y1.05
X2.81Y0.95
X2.81Y0.85
X2.81Y0.75
X2.81Y0.65
X2.81Y0.55
X1.235Y2.0675
X1.235Y1.9675
X1.335Y2.0675
X1.335Y1.9675
X1.435Y2.0675
X1.435Y1.9675
X1.535Y2.0675
X1.535Y1.9675
X1.635Y2.0675
X1.635Y1.9675
X1.735Y2.0675
X1.735Y1.9675
X1.835Y2.0675
X1.835Y1.9675
T6
X3.0135Y2.2657
X3.0135Y1.7343
X3.045Y2.0
T0
M30
