%TF.GenerationSoftware,KiCad,Pcbnew,(5.1.6-0-10_14)*%
%TF.CreationDate,2021-03-04T16:26:44+01:00*%
%TF.ProjectId,io_board,696f5f62-6f61-4726-942e-6b696361645f,rev?*%
%TF.SameCoordinates,Original*%
%TF.FileFunction,Paste,Bot*%
%TF.FilePolarity,Positive*%
%FSLAX46Y46*%
G04 Gerber Fmt 4.6, Leading zero omitted, Abs format (unit mm)*
G04 Created by KiCad (PCBNEW (5.1.6-0-10_14)) date 2021-03-04 16:26:44*
%MOMM*%
%LPD*%
G01*
G04 APERTURE LIST*
G04 APERTURE END LIST*
%TO.C,C3*%
G36*
G01*
X62621000Y56057500D02*
X63871000Y56057500D01*
G75*
G02*
X64121000Y55807500I0J-250000D01*
G01*
X64121000Y54882500D01*
G75*
G02*
X63871000Y54632500I-250000J0D01*
G01*
X62621000Y54632500D01*
G75*
G02*
X62371000Y54882500I0J250000D01*
G01*
X62371000Y55807500D01*
G75*
G02*
X62621000Y56057500I250000J0D01*
G01*
G37*
G36*
G01*
X62621000Y59032500D02*
X63871000Y59032500D01*
G75*
G02*
X64121000Y58782500I0J-250000D01*
G01*
X64121000Y57857500D01*
G75*
G02*
X63871000Y57607500I-250000J0D01*
G01*
X62621000Y57607500D01*
G75*
G02*
X62371000Y57857500I0J250000D01*
G01*
X62371000Y58782500D01*
G75*
G02*
X62621000Y59032500I250000J0D01*
G01*
G37*
%TD*%
%TO.C,C2*%
G36*
G01*
X71170500Y45392500D02*
X71170500Y44142500D01*
G75*
G02*
X70920500Y43892500I-250000J0D01*
G01*
X69995500Y43892500D01*
G75*
G02*
X69745500Y44142500I0J250000D01*
G01*
X69745500Y45392500D01*
G75*
G02*
X69995500Y45642500I250000J0D01*
G01*
X70920500Y45642500D01*
G75*
G02*
X71170500Y45392500I0J-250000D01*
G01*
G37*
G36*
G01*
X74145500Y45392500D02*
X74145500Y44142500D01*
G75*
G02*
X73895500Y43892500I-250000J0D01*
G01*
X72970500Y43892500D01*
G75*
G02*
X72720500Y44142500I0J250000D01*
G01*
X72720500Y45392500D01*
G75*
G02*
X72970500Y45642500I250000J0D01*
G01*
X73895500Y45642500D01*
G75*
G02*
X74145500Y45392500I0J-250000D01*
G01*
G37*
%TD*%
%TO.C,R12*%
G36*
G01*
X17849001Y46678000D02*
X16948999Y46678000D01*
G75*
G02*
X16699000Y46927999I0J249999D01*
G01*
X16699000Y47578001D01*
G75*
G02*
X16948999Y47828000I249999J0D01*
G01*
X17849001Y47828000D01*
G75*
G02*
X18099000Y47578001I0J-249999D01*
G01*
X18099000Y46927999D01*
G75*
G02*
X17849001Y46678000I-249999J0D01*
G01*
G37*
G36*
G01*
X17849001Y44628000D02*
X16948999Y44628000D01*
G75*
G02*
X16699000Y44877999I0J249999D01*
G01*
X16699000Y45528001D01*
G75*
G02*
X16948999Y45778000I249999J0D01*
G01*
X17849001Y45778000D01*
G75*
G02*
X18099000Y45528001I0J-249999D01*
G01*
X18099000Y44877999D01*
G75*
G02*
X17849001Y44628000I-249999J0D01*
G01*
G37*
%TD*%
%TO.C,R11*%
G36*
G01*
X20770001Y46678000D02*
X19869999Y46678000D01*
G75*
G02*
X19620000Y46927999I0J249999D01*
G01*
X19620000Y47578001D01*
G75*
G02*
X19869999Y47828000I249999J0D01*
G01*
X20770001Y47828000D01*
G75*
G02*
X21020000Y47578001I0J-249999D01*
G01*
X21020000Y46927999D01*
G75*
G02*
X20770001Y46678000I-249999J0D01*
G01*
G37*
G36*
G01*
X20770001Y44628000D02*
X19869999Y44628000D01*
G75*
G02*
X19620000Y44877999I0J249999D01*
G01*
X19620000Y45528001D01*
G75*
G02*
X19869999Y45778000I249999J0D01*
G01*
X20770001Y45778000D01*
G75*
G02*
X21020000Y45528001I0J-249999D01*
G01*
X21020000Y44877999D01*
G75*
G02*
X20770001Y44628000I-249999J0D01*
G01*
G37*
%TD*%
%TO.C,R10*%
G36*
G01*
X23691001Y46678000D02*
X22790999Y46678000D01*
G75*
G02*
X22541000Y46927999I0J249999D01*
G01*
X22541000Y47578001D01*
G75*
G02*
X22790999Y47828000I249999J0D01*
G01*
X23691001Y47828000D01*
G75*
G02*
X23941000Y47578001I0J-249999D01*
G01*
X23941000Y46927999D01*
G75*
G02*
X23691001Y46678000I-249999J0D01*
G01*
G37*
G36*
G01*
X23691001Y44628000D02*
X22790999Y44628000D01*
G75*
G02*
X22541000Y44877999I0J249999D01*
G01*
X22541000Y45528001D01*
G75*
G02*
X22790999Y45778000I249999J0D01*
G01*
X23691001Y45778000D01*
G75*
G02*
X23941000Y45528001I0J-249999D01*
G01*
X23941000Y44877999D01*
G75*
G02*
X23691001Y44628000I-249999J0D01*
G01*
G37*
%TD*%
%TO.C,R9*%
G36*
G01*
X26612001Y46669000D02*
X25711999Y46669000D01*
G75*
G02*
X25462000Y46918999I0J249999D01*
G01*
X25462000Y47569001D01*
G75*
G02*
X25711999Y47819000I249999J0D01*
G01*
X26612001Y47819000D01*
G75*
G02*
X26862000Y47569001I0J-249999D01*
G01*
X26862000Y46918999D01*
G75*
G02*
X26612001Y46669000I-249999J0D01*
G01*
G37*
G36*
G01*
X26612001Y44619000D02*
X25711999Y44619000D01*
G75*
G02*
X25462000Y44868999I0J249999D01*
G01*
X25462000Y45519001D01*
G75*
G02*
X25711999Y45769000I249999J0D01*
G01*
X26612001Y45769000D01*
G75*
G02*
X26862000Y45519001I0J-249999D01*
G01*
X26862000Y44868999D01*
G75*
G02*
X26612001Y44619000I-249999J0D01*
G01*
G37*
%TD*%
%TO.C,R8*%
G36*
G01*
X29533001Y46687000D02*
X28632999Y46687000D01*
G75*
G02*
X28383000Y46936999I0J249999D01*
G01*
X28383000Y47587001D01*
G75*
G02*
X28632999Y47837000I249999J0D01*
G01*
X29533001Y47837000D01*
G75*
G02*
X29783000Y47587001I0J-249999D01*
G01*
X29783000Y46936999D01*
G75*
G02*
X29533001Y46687000I-249999J0D01*
G01*
G37*
G36*
G01*
X29533001Y44637000D02*
X28632999Y44637000D01*
G75*
G02*
X28383000Y44886999I0J249999D01*
G01*
X28383000Y45537001D01*
G75*
G02*
X28632999Y45787000I249999J0D01*
G01*
X29533001Y45787000D01*
G75*
G02*
X29783000Y45537001I0J-249999D01*
G01*
X29783000Y44886999D01*
G75*
G02*
X29533001Y44637000I-249999J0D01*
G01*
G37*
%TD*%
%TO.C,R7*%
G36*
G01*
X32454001Y46678000D02*
X31553999Y46678000D01*
G75*
G02*
X31304000Y46927999I0J249999D01*
G01*
X31304000Y47578001D01*
G75*
G02*
X31553999Y47828000I249999J0D01*
G01*
X32454001Y47828000D01*
G75*
G02*
X32704000Y47578001I0J-249999D01*
G01*
X32704000Y46927999D01*
G75*
G02*
X32454001Y46678000I-249999J0D01*
G01*
G37*
G36*
G01*
X32454001Y44628000D02*
X31553999Y44628000D01*
G75*
G02*
X31304000Y44877999I0J249999D01*
G01*
X31304000Y45528001D01*
G75*
G02*
X31553999Y45778000I249999J0D01*
G01*
X32454001Y45778000D01*
G75*
G02*
X32704000Y45528001I0J-249999D01*
G01*
X32704000Y44877999D01*
G75*
G02*
X32454001Y44628000I-249999J0D01*
G01*
G37*
%TD*%
%TO.C,R6*%
G36*
G01*
X35375001Y46678000D02*
X34474999Y46678000D01*
G75*
G02*
X34225000Y46927999I0J249999D01*
G01*
X34225000Y47578001D01*
G75*
G02*
X34474999Y47828000I249999J0D01*
G01*
X35375001Y47828000D01*
G75*
G02*
X35625000Y47578001I0J-249999D01*
G01*
X35625000Y46927999D01*
G75*
G02*
X35375001Y46678000I-249999J0D01*
G01*
G37*
G36*
G01*
X35375001Y44628000D02*
X34474999Y44628000D01*
G75*
G02*
X34225000Y44877999I0J249999D01*
G01*
X34225000Y45528001D01*
G75*
G02*
X34474999Y45778000I249999J0D01*
G01*
X35375001Y45778000D01*
G75*
G02*
X35625000Y45528001I0J-249999D01*
G01*
X35625000Y44877999D01*
G75*
G02*
X35375001Y44628000I-249999J0D01*
G01*
G37*
%TD*%
%TO.C,R5*%
G36*
G01*
X38296001Y46678000D02*
X37395999Y46678000D01*
G75*
G02*
X37146000Y46927999I0J249999D01*
G01*
X37146000Y47578001D01*
G75*
G02*
X37395999Y47828000I249999J0D01*
G01*
X38296001Y47828000D01*
G75*
G02*
X38546000Y47578001I0J-249999D01*
G01*
X38546000Y46927999D01*
G75*
G02*
X38296001Y46678000I-249999J0D01*
G01*
G37*
G36*
G01*
X38296001Y44628000D02*
X37395999Y44628000D01*
G75*
G02*
X37146000Y44877999I0J249999D01*
G01*
X37146000Y45528001D01*
G75*
G02*
X37395999Y45778000I249999J0D01*
G01*
X38296001Y45778000D01*
G75*
G02*
X38546000Y45528001I0J-249999D01*
G01*
X38546000Y44877999D01*
G75*
G02*
X38296001Y44628000I-249999J0D01*
G01*
G37*
%TD*%
%TO.C,R4*%
G36*
G01*
X58362001Y23564000D02*
X57461999Y23564000D01*
G75*
G02*
X57212000Y23813999I0J249999D01*
G01*
X57212000Y24464001D01*
G75*
G02*
X57461999Y24714000I249999J0D01*
G01*
X58362001Y24714000D01*
G75*
G02*
X58612000Y24464001I0J-249999D01*
G01*
X58612000Y23813999D01*
G75*
G02*
X58362001Y23564000I-249999J0D01*
G01*
G37*
G36*
G01*
X58362001Y21514000D02*
X57461999Y21514000D01*
G75*
G02*
X57212000Y21763999I0J249999D01*
G01*
X57212000Y22414001D01*
G75*
G02*
X57461999Y22664000I249999J0D01*
G01*
X58362001Y22664000D01*
G75*
G02*
X58612000Y22414001I0J-249999D01*
G01*
X58612000Y21763999D01*
G75*
G02*
X58362001Y21514000I-249999J0D01*
G01*
G37*
%TD*%
%TO.C,R2*%
G36*
G01*
X69284001Y50488000D02*
X68383999Y50488000D01*
G75*
G02*
X68134000Y50737999I0J249999D01*
G01*
X68134000Y51388001D01*
G75*
G02*
X68383999Y51638000I249999J0D01*
G01*
X69284001Y51638000D01*
G75*
G02*
X69534000Y51388001I0J-249999D01*
G01*
X69534000Y50737999D01*
G75*
G02*
X69284001Y50488000I-249999J0D01*
G01*
G37*
G36*
G01*
X69284001Y48438000D02*
X68383999Y48438000D01*
G75*
G02*
X68134000Y48687999I0J249999D01*
G01*
X68134000Y49338001D01*
G75*
G02*
X68383999Y49588000I249999J0D01*
G01*
X69284001Y49588000D01*
G75*
G02*
X69534000Y49338001I0J-249999D01*
G01*
X69534000Y48687999D01*
G75*
G02*
X69284001Y48438000I-249999J0D01*
G01*
G37*
%TD*%
%TO.C,R1*%
G36*
G01*
X68193499Y56573000D02*
X69093501Y56573000D01*
G75*
G02*
X69343500Y56323001I0J-249999D01*
G01*
X69343500Y55672999D01*
G75*
G02*
X69093501Y55423000I-249999J0D01*
G01*
X68193499Y55423000D01*
G75*
G02*
X67943500Y55672999I0J249999D01*
G01*
X67943500Y56323001D01*
G75*
G02*
X68193499Y56573000I249999J0D01*
G01*
G37*
G36*
G01*
X68193499Y58623000D02*
X69093501Y58623000D01*
G75*
G02*
X69343500Y58373001I0J-249999D01*
G01*
X69343500Y57722999D01*
G75*
G02*
X69093501Y57473000I-249999J0D01*
G01*
X68193499Y57473000D01*
G75*
G02*
X67943500Y57722999I0J249999D01*
G01*
X67943500Y58373001D01*
G75*
G02*
X68193499Y58623000I249999J0D01*
G01*
G37*
%TD*%
%TO.C,C4*%
G36*
G01*
X4839000Y32141000D02*
X4839000Y33391000D01*
G75*
G02*
X5089000Y33641000I250000J0D01*
G01*
X6014000Y33641000D01*
G75*
G02*
X6264000Y33391000I0J-250000D01*
G01*
X6264000Y32141000D01*
G75*
G02*
X6014000Y31891000I-250000J0D01*
G01*
X5089000Y31891000D01*
G75*
G02*
X4839000Y32141000I0J250000D01*
G01*
G37*
G36*
G01*
X1864000Y32141000D02*
X1864000Y33391000D01*
G75*
G02*
X2114000Y33641000I250000J0D01*
G01*
X3039000Y33641000D01*
G75*
G02*
X3289000Y33391000I0J-250000D01*
G01*
X3289000Y32141000D01*
G75*
G02*
X3039000Y31891000I-250000J0D01*
G01*
X2114000Y31891000D01*
G75*
G02*
X1864000Y32141000I0J250000D01*
G01*
G37*
%TD*%
%TO.C,C1*%
G36*
G01*
X60947000Y40503000D02*
X60947000Y39253000D01*
G75*
G02*
X60697000Y39003000I-250000J0D01*
G01*
X59772000Y39003000D01*
G75*
G02*
X59522000Y39253000I0J250000D01*
G01*
X59522000Y40503000D01*
G75*
G02*
X59772000Y40753000I250000J0D01*
G01*
X60697000Y40753000D01*
G75*
G02*
X60947000Y40503000I0J-250000D01*
G01*
G37*
G36*
G01*
X63922000Y40503000D02*
X63922000Y39253000D01*
G75*
G02*
X63672000Y39003000I-250000J0D01*
G01*
X62747000Y39003000D01*
G75*
G02*
X62497000Y39253000I0J250000D01*
G01*
X62497000Y40503000D01*
G75*
G02*
X62747000Y40753000I250000J0D01*
G01*
X63672000Y40753000D01*
G75*
G02*
X63922000Y40503000I0J-250000D01*
G01*
G37*
%TD*%
M02*
