%TF.GenerationSoftware,KiCad,Pcbnew,(5.1.10-1-10_14)*%
%TF.CreationDate,2021-08-30T22:46:39+02:00*%
%TF.ProjectId,io_board,696f5f62-6f61-4726-942e-6b696361645f,rev?*%
%TF.SameCoordinates,Original*%
%TF.FileFunction,Legend,Top*%
%TF.FilePolarity,Positive*%
%FSLAX46Y46*%
G04 Gerber Fmt 4.6, Leading zero omitted, Abs format (unit mm)*
G04 Created by KiCad (PCBNEW (5.1.10-1-10_14)) date 2021-08-30 22:46:39*
%MOMM*%
%LPD*%
G01*
G04 APERTURE LIST*
%ADD10C,0.150000*%
%ADD11C,0.200000*%
%ADD12C,0.300000*%
%ADD13C,0.120000*%
%ADD14C,0.010000*%
G04 APERTURE END LIST*
D10*
X1881333Y47553619D02*
X1881333Y48553619D01*
X2262285Y48553619D01*
X2357523Y48506000D01*
X2405142Y48458380D01*
X2452761Y48363142D01*
X2452761Y48220285D01*
X2405142Y48125047D01*
X2357523Y48077428D01*
X2262285Y48029809D01*
X1881333Y48029809D01*
X2833714Y47839333D02*
X3309904Y47839333D01*
X2738476Y47553619D02*
X3071809Y48553619D01*
X3405142Y47553619D01*
X3643238Y48553619D02*
X4309904Y48553619D01*
X3881333Y47553619D01*
X6961333Y47553619D02*
X6961333Y48553619D01*
X7342285Y48553619D01*
X7437523Y48506000D01*
X7485142Y48458380D01*
X7532761Y48363142D01*
X7532761Y48220285D01*
X7485142Y48125047D01*
X7437523Y48077428D01*
X7342285Y48029809D01*
X6961333Y48029809D01*
X7913714Y47839333D02*
X8389904Y47839333D01*
X7818476Y47553619D02*
X8151809Y48553619D01*
X8485142Y47553619D01*
X9247047Y48553619D02*
X9056571Y48553619D01*
X8961333Y48506000D01*
X8913714Y48458380D01*
X8818476Y48315523D01*
X8770857Y48125047D01*
X8770857Y47744095D01*
X8818476Y47648857D01*
X8866095Y47601238D01*
X8961333Y47553619D01*
X9151809Y47553619D01*
X9247047Y47601238D01*
X9294666Y47648857D01*
X9342285Y47744095D01*
X9342285Y47982190D01*
X9294666Y48077428D01*
X9247047Y48125047D01*
X9151809Y48172666D01*
X8961333Y48172666D01*
X8866095Y48125047D01*
X8818476Y48077428D01*
X8770857Y47982190D01*
X12041333Y47553619D02*
X12041333Y48553619D01*
X12422285Y48553619D01*
X12517523Y48506000D01*
X12565142Y48458380D01*
X12612761Y48363142D01*
X12612761Y48220285D01*
X12565142Y48125047D01*
X12517523Y48077428D01*
X12422285Y48029809D01*
X12041333Y48029809D01*
X12993714Y47839333D02*
X13469904Y47839333D01*
X12898476Y47553619D02*
X13231809Y48553619D01*
X13565142Y47553619D01*
X14374666Y48553619D02*
X13898476Y48553619D01*
X13850857Y48077428D01*
X13898476Y48125047D01*
X13993714Y48172666D01*
X14231809Y48172666D01*
X14327047Y48125047D01*
X14374666Y48077428D01*
X14422285Y47982190D01*
X14422285Y47744095D01*
X14374666Y47648857D01*
X14327047Y47601238D01*
X14231809Y47553619D01*
X13993714Y47553619D01*
X13898476Y47601238D01*
X13850857Y47648857D01*
X17121333Y47553619D02*
X17121333Y48553619D01*
X17502285Y48553619D01*
X17597523Y48506000D01*
X17645142Y48458380D01*
X17692761Y48363142D01*
X17692761Y48220285D01*
X17645142Y48125047D01*
X17597523Y48077428D01*
X17502285Y48029809D01*
X17121333Y48029809D01*
X18073714Y47839333D02*
X18549904Y47839333D01*
X17978476Y47553619D02*
X18311809Y48553619D01*
X18645142Y47553619D01*
X19407047Y48220285D02*
X19407047Y47553619D01*
X19168952Y48601238D02*
X18930857Y47886952D01*
X19549904Y47886952D01*
X22201333Y47553619D02*
X22201333Y48553619D01*
X22582285Y48553619D01*
X22677523Y48506000D01*
X22725142Y48458380D01*
X22772761Y48363142D01*
X22772761Y48220285D01*
X22725142Y48125047D01*
X22677523Y48077428D01*
X22582285Y48029809D01*
X22201333Y48029809D01*
X23153714Y47839333D02*
X23629904Y47839333D01*
X23058476Y47553619D02*
X23391809Y48553619D01*
X23725142Y47553619D01*
X23963238Y48553619D02*
X24582285Y48553619D01*
X24248952Y48172666D01*
X24391809Y48172666D01*
X24487047Y48125047D01*
X24534666Y48077428D01*
X24582285Y47982190D01*
X24582285Y47744095D01*
X24534666Y47648857D01*
X24487047Y47601238D01*
X24391809Y47553619D01*
X24106095Y47553619D01*
X24010857Y47601238D01*
X23963238Y47648857D01*
X27281333Y47553619D02*
X27281333Y48553619D01*
X27662285Y48553619D01*
X27757523Y48506000D01*
X27805142Y48458380D01*
X27852761Y48363142D01*
X27852761Y48220285D01*
X27805142Y48125047D01*
X27757523Y48077428D01*
X27662285Y48029809D01*
X27281333Y48029809D01*
X28233714Y47839333D02*
X28709904Y47839333D01*
X28138476Y47553619D02*
X28471809Y48553619D01*
X28805142Y47553619D01*
X29090857Y48458380D02*
X29138476Y48506000D01*
X29233714Y48553619D01*
X29471809Y48553619D01*
X29567047Y48506000D01*
X29614666Y48458380D01*
X29662285Y48363142D01*
X29662285Y48267904D01*
X29614666Y48125047D01*
X29043238Y47553619D01*
X29662285Y47553619D01*
X32361333Y47553619D02*
X32361333Y48553619D01*
X32742285Y48553619D01*
X32837523Y48506000D01*
X32885142Y48458380D01*
X32932761Y48363142D01*
X32932761Y48220285D01*
X32885142Y48125047D01*
X32837523Y48077428D01*
X32742285Y48029809D01*
X32361333Y48029809D01*
X33313714Y47839333D02*
X33789904Y47839333D01*
X33218476Y47553619D02*
X33551809Y48553619D01*
X33885142Y47553619D01*
X34742285Y47553619D02*
X34170857Y47553619D01*
X34456571Y47553619D02*
X34456571Y48553619D01*
X34361333Y48410761D01*
X34266095Y48315523D01*
X34170857Y48267904D01*
X37695333Y47553619D02*
X37695333Y48553619D01*
X38076285Y48553619D01*
X38171523Y48506000D01*
X38219142Y48458380D01*
X38266761Y48363142D01*
X38266761Y48220285D01*
X38219142Y48125047D01*
X38171523Y48077428D01*
X38076285Y48029809D01*
X37695333Y48029809D01*
X38647714Y47839333D02*
X39123904Y47839333D01*
X38552476Y47553619D02*
X38885809Y48553619D01*
X39219142Y47553619D01*
X39742952Y48553619D02*
X39838190Y48553619D01*
X39933428Y48506000D01*
X39981047Y48458380D01*
X40028666Y48363142D01*
X40076285Y48172666D01*
X40076285Y47934571D01*
X40028666Y47744095D01*
X39981047Y47648857D01*
X39933428Y47601238D01*
X39838190Y47553619D01*
X39742952Y47553619D01*
X39647714Y47601238D01*
X39600095Y47648857D01*
X39552476Y47744095D01*
X39504857Y47934571D01*
X39504857Y48172666D01*
X39552476Y48363142D01*
X39600095Y48458380D01*
X39647714Y48506000D01*
X39742952Y48553619D01*
D11*
X3104428Y24443428D02*
X3104428Y23372000D01*
X3033000Y23157714D01*
X2890142Y23014857D01*
X2675857Y22943428D01*
X2533000Y22943428D01*
X4533000Y22943428D02*
X3818714Y22943428D01*
X3818714Y24443428D01*
X5890142Y23086285D02*
X5818714Y23014857D01*
X5604428Y22943428D01*
X5461571Y22943428D01*
X5247285Y23014857D01*
X5104428Y23157714D01*
X5033000Y23300571D01*
X4961571Y23586285D01*
X4961571Y23800571D01*
X5033000Y24086285D01*
X5104428Y24229142D01*
X5247285Y24372000D01*
X5461571Y24443428D01*
X5604428Y24443428D01*
X5818714Y24372000D01*
X5890142Y24300571D01*
X6961571Y24443428D02*
X6961571Y23372000D01*
X6890142Y23157714D01*
X6747285Y23014857D01*
X6533000Y22943428D01*
X6390142Y22943428D01*
X8390142Y22943428D02*
X7675857Y22943428D01*
X7675857Y24443428D01*
X9747285Y23086285D02*
X9675857Y23014857D01*
X9461571Y22943428D01*
X9318714Y22943428D01*
X9104428Y23014857D01*
X8961571Y23157714D01*
X8890142Y23300571D01*
X8818714Y23586285D01*
X8818714Y23800571D01*
X8890142Y24086285D01*
X8961571Y24229142D01*
X9104428Y24372000D01*
X9318714Y24443428D01*
X9461571Y24443428D01*
X9675857Y24372000D01*
X9747285Y24300571D01*
X10818714Y24443428D02*
X10818714Y23372000D01*
X10747285Y23157714D01*
X10604428Y23014857D01*
X10390142Y22943428D01*
X10247285Y22943428D01*
X12247285Y22943428D02*
X11533000Y22943428D01*
X11533000Y24443428D01*
X13604428Y23086285D02*
X13533000Y23014857D01*
X13318714Y22943428D01*
X13175857Y22943428D01*
X12961571Y23014857D01*
X12818714Y23157714D01*
X12747285Y23300571D01*
X12675857Y23586285D01*
X12675857Y23800571D01*
X12747285Y24086285D01*
X12818714Y24229142D01*
X12961571Y24372000D01*
X13175857Y24443428D01*
X13318714Y24443428D01*
X13533000Y24372000D01*
X13604428Y24300571D01*
X14675857Y24443428D02*
X14675857Y23372000D01*
X14604428Y23157714D01*
X14461571Y23014857D01*
X14247285Y22943428D01*
X14104428Y22943428D01*
X16104428Y22943428D02*
X15390142Y22943428D01*
X15390142Y24443428D01*
X17461571Y23086285D02*
X17390142Y23014857D01*
X17175857Y22943428D01*
X17033000Y22943428D01*
X16818714Y23014857D01*
X16675857Y23157714D01*
X16604428Y23300571D01*
X16533000Y23586285D01*
X16533000Y23800571D01*
X16604428Y24086285D01*
X16675857Y24229142D01*
X16818714Y24372000D01*
X17033000Y24443428D01*
X17175857Y24443428D01*
X17390142Y24372000D01*
X17461571Y24300571D01*
D10*
X65303523Y18345190D02*
X65417809Y18307095D01*
X65608285Y18307095D01*
X65684476Y18345190D01*
X65722571Y18383285D01*
X65760666Y18459476D01*
X65760666Y18535666D01*
X65722571Y18611857D01*
X65684476Y18649952D01*
X65608285Y18688047D01*
X65455904Y18726142D01*
X65379714Y18764238D01*
X65341619Y18802333D01*
X65303523Y18878523D01*
X65303523Y18954714D01*
X65341619Y19030904D01*
X65379714Y19069000D01*
X65455904Y19107095D01*
X65646380Y19107095D01*
X65760666Y19069000D01*
X66065428Y18345190D02*
X66179714Y18307095D01*
X66370190Y18307095D01*
X66446380Y18345190D01*
X66484476Y18383285D01*
X66522571Y18459476D01*
X66522571Y18535666D01*
X66484476Y18611857D01*
X66446380Y18649952D01*
X66370190Y18688047D01*
X66217809Y18726142D01*
X66141619Y18764238D01*
X66103523Y18802333D01*
X66065428Y18878523D01*
X66065428Y18954714D01*
X66103523Y19030904D01*
X66141619Y19069000D01*
X66217809Y19107095D01*
X66408285Y19107095D01*
X66522571Y19069000D01*
X67208285Y18840428D02*
X67208285Y18307095D01*
X67017809Y19145190D02*
X66827333Y18573761D01*
X67322571Y18573761D01*
X65303523Y15805190D02*
X65417809Y15767095D01*
X65608285Y15767095D01*
X65684476Y15805190D01*
X65722571Y15843285D01*
X65760666Y15919476D01*
X65760666Y15995666D01*
X65722571Y16071857D01*
X65684476Y16109952D01*
X65608285Y16148047D01*
X65455904Y16186142D01*
X65379714Y16224238D01*
X65341619Y16262333D01*
X65303523Y16338523D01*
X65303523Y16414714D01*
X65341619Y16490904D01*
X65379714Y16529000D01*
X65455904Y16567095D01*
X65646380Y16567095D01*
X65760666Y16529000D01*
X66065428Y15805190D02*
X66179714Y15767095D01*
X66370190Y15767095D01*
X66446380Y15805190D01*
X66484476Y15843285D01*
X66522571Y15919476D01*
X66522571Y15995666D01*
X66484476Y16071857D01*
X66446380Y16109952D01*
X66370190Y16148047D01*
X66217809Y16186142D01*
X66141619Y16224238D01*
X66103523Y16262333D01*
X66065428Y16338523D01*
X66065428Y16414714D01*
X66103523Y16490904D01*
X66141619Y16529000D01*
X66217809Y16567095D01*
X66408285Y16567095D01*
X66522571Y16529000D01*
X67246380Y16567095D02*
X66865428Y16567095D01*
X66827333Y16186142D01*
X66865428Y16224238D01*
X66941619Y16262333D01*
X67132095Y16262333D01*
X67208285Y16224238D01*
X67246380Y16186142D01*
X67284476Y16109952D01*
X67284476Y15919476D01*
X67246380Y15843285D01*
X67208285Y15805190D01*
X67132095Y15767095D01*
X66941619Y15767095D01*
X66865428Y15805190D01*
X66827333Y15843285D01*
X65684476Y13989000D02*
X65608285Y14027095D01*
X65494000Y14027095D01*
X65379714Y13989000D01*
X65303523Y13912809D01*
X65265428Y13836619D01*
X65227333Y13684238D01*
X65227333Y13569952D01*
X65265428Y13417571D01*
X65303523Y13341380D01*
X65379714Y13265190D01*
X65494000Y13227095D01*
X65570190Y13227095D01*
X65684476Y13265190D01*
X65722571Y13303285D01*
X65722571Y13569952D01*
X65570190Y13569952D01*
X66065428Y13227095D02*
X66065428Y14027095D01*
X66522571Y13227095D01*
X66522571Y14027095D01*
X66903523Y13227095D02*
X66903523Y14027095D01*
X67094000Y14027095D01*
X67208285Y13989000D01*
X67284476Y13912809D01*
X67322571Y13836619D01*
X67360666Y13684238D01*
X67360666Y13569952D01*
X67322571Y13417571D01*
X67284476Y13341380D01*
X67208285Y13265190D01*
X67094000Y13227095D01*
X66903523Y13227095D01*
X76225523Y13392190D02*
X76339809Y13354095D01*
X76530285Y13354095D01*
X76606476Y13392190D01*
X76644571Y13430285D01*
X76682666Y13506476D01*
X76682666Y13582666D01*
X76644571Y13658857D01*
X76606476Y13696952D01*
X76530285Y13735047D01*
X76377904Y13773142D01*
X76301714Y13811238D01*
X76263619Y13849333D01*
X76225523Y13925523D01*
X76225523Y14001714D01*
X76263619Y14077904D01*
X76301714Y14116000D01*
X76377904Y14154095D01*
X76568380Y14154095D01*
X76682666Y14116000D01*
X76987428Y13392190D02*
X77101714Y13354095D01*
X77292190Y13354095D01*
X77368380Y13392190D01*
X77406476Y13430285D01*
X77444571Y13506476D01*
X77444571Y13582666D01*
X77406476Y13658857D01*
X77368380Y13696952D01*
X77292190Y13735047D01*
X77139809Y13773142D01*
X77063619Y13811238D01*
X77025523Y13849333D01*
X76987428Y13925523D01*
X76987428Y14001714D01*
X77025523Y14077904D01*
X77063619Y14116000D01*
X77139809Y14154095D01*
X77330285Y14154095D01*
X77444571Y14116000D01*
X77711238Y14154095D02*
X78244571Y14154095D01*
X77901714Y13354095D01*
X76225523Y15932190D02*
X76339809Y15894095D01*
X76530285Y15894095D01*
X76606476Y15932190D01*
X76644571Y15970285D01*
X76682666Y16046476D01*
X76682666Y16122666D01*
X76644571Y16198857D01*
X76606476Y16236952D01*
X76530285Y16275047D01*
X76377904Y16313142D01*
X76301714Y16351238D01*
X76263619Y16389333D01*
X76225523Y16465523D01*
X76225523Y16541714D01*
X76263619Y16617904D01*
X76301714Y16656000D01*
X76377904Y16694095D01*
X76568380Y16694095D01*
X76682666Y16656000D01*
X76987428Y15932190D02*
X77101714Y15894095D01*
X77292190Y15894095D01*
X77368380Y15932190D01*
X77406476Y15970285D01*
X77444571Y16046476D01*
X77444571Y16122666D01*
X77406476Y16198857D01*
X77368380Y16236952D01*
X77292190Y16275047D01*
X77139809Y16313142D01*
X77063619Y16351238D01*
X77025523Y16389333D01*
X76987428Y16465523D01*
X76987428Y16541714D01*
X77025523Y16617904D01*
X77063619Y16656000D01*
X77139809Y16694095D01*
X77330285Y16694095D01*
X77444571Y16656000D01*
X78130285Y16694095D02*
X77977904Y16694095D01*
X77901714Y16656000D01*
X77863619Y16617904D01*
X77787428Y16503619D01*
X77749333Y16351238D01*
X77749333Y16046476D01*
X77787428Y15970285D01*
X77825523Y15932190D01*
X77901714Y15894095D01*
X78054095Y15894095D01*
X78130285Y15932190D01*
X78168380Y15970285D01*
X78206476Y16046476D01*
X78206476Y16236952D01*
X78168380Y16313142D01*
X78130285Y16351238D01*
X78054095Y16389333D01*
X77901714Y16389333D01*
X77825523Y16351238D01*
X77787428Y16313142D01*
X77749333Y16236952D01*
X76606476Y19196000D02*
X76530285Y19234095D01*
X76416000Y19234095D01*
X76301714Y19196000D01*
X76225523Y19119809D01*
X76187428Y19043619D01*
X76149333Y18891238D01*
X76149333Y18776952D01*
X76187428Y18624571D01*
X76225523Y18548380D01*
X76301714Y18472190D01*
X76416000Y18434095D01*
X76492190Y18434095D01*
X76606476Y18472190D01*
X76644571Y18510285D01*
X76644571Y18776952D01*
X76492190Y18776952D01*
X76987428Y18434095D02*
X76987428Y19234095D01*
X77444571Y18434095D01*
X77444571Y19234095D01*
X77825523Y18434095D02*
X77825523Y19234095D01*
X78016000Y19234095D01*
X78130285Y19196000D01*
X78206476Y19119809D01*
X78244571Y19043619D01*
X78282666Y18891238D01*
X78282666Y18776952D01*
X78244571Y18624571D01*
X78206476Y18548380D01*
X78130285Y18472190D01*
X78016000Y18434095D01*
X77825523Y18434095D01*
X65265428Y33585190D02*
X65379714Y33547095D01*
X65570190Y33547095D01*
X65646380Y33585190D01*
X65684476Y33623285D01*
X65722571Y33699476D01*
X65722571Y33775666D01*
X65684476Y33851857D01*
X65646380Y33889952D01*
X65570190Y33928047D01*
X65417809Y33966142D01*
X65341619Y34004238D01*
X65303523Y34042333D01*
X65265428Y34118523D01*
X65265428Y34194714D01*
X65303523Y34270904D01*
X65341619Y34309000D01*
X65417809Y34347095D01*
X65608285Y34347095D01*
X65722571Y34309000D01*
X66522571Y33623285D02*
X66484476Y33585190D01*
X66370190Y33547095D01*
X66294000Y33547095D01*
X66179714Y33585190D01*
X66103523Y33661380D01*
X66065428Y33737571D01*
X66027333Y33889952D01*
X66027333Y34004238D01*
X66065428Y34156619D01*
X66103523Y34232809D01*
X66179714Y34309000D01*
X66294000Y34347095D01*
X66370190Y34347095D01*
X66484476Y34309000D01*
X66522571Y34270904D01*
X66865428Y33547095D02*
X66865428Y34347095D01*
X67322571Y33547095D02*
X66979714Y34004238D01*
X67322571Y34347095D02*
X66865428Y33889952D01*
X65303523Y23425190D02*
X65417809Y23387095D01*
X65608285Y23387095D01*
X65684476Y23425190D01*
X65722571Y23463285D01*
X65760666Y23539476D01*
X65760666Y23615666D01*
X65722571Y23691857D01*
X65684476Y23729952D01*
X65608285Y23768047D01*
X65455904Y23806142D01*
X65379714Y23844238D01*
X65341619Y23882333D01*
X65303523Y23958523D01*
X65303523Y24034714D01*
X65341619Y24110904D01*
X65379714Y24149000D01*
X65455904Y24187095D01*
X65646380Y24187095D01*
X65760666Y24149000D01*
X66065428Y23425190D02*
X66179714Y23387095D01*
X66370190Y23387095D01*
X66446380Y23425190D01*
X66484476Y23463285D01*
X66522571Y23539476D01*
X66522571Y23615666D01*
X66484476Y23691857D01*
X66446380Y23729952D01*
X66370190Y23768047D01*
X66217809Y23806142D01*
X66141619Y23844238D01*
X66103523Y23882333D01*
X66065428Y23958523D01*
X66065428Y24034714D01*
X66103523Y24110904D01*
X66141619Y24149000D01*
X66217809Y24187095D01*
X66408285Y24187095D01*
X66522571Y24149000D01*
X67284476Y23387095D02*
X66827333Y23387095D01*
X67055904Y23387095D02*
X67055904Y24187095D01*
X66979714Y24072809D01*
X66903523Y23996619D01*
X66827333Y23958523D01*
X64998761Y27060000D02*
X65760666Y27060000D01*
X65151142Y25965190D02*
X65265428Y25927095D01*
X65455904Y25927095D01*
X65532095Y25965190D01*
X65570190Y26003285D01*
X65608285Y26079476D01*
X65608285Y26155666D01*
X65570190Y26231857D01*
X65532095Y26269952D01*
X65455904Y26308047D01*
X65303523Y26346142D01*
X65227333Y26384238D01*
X65189238Y26422333D01*
X65151142Y26498523D01*
X65151142Y26574714D01*
X65189238Y26650904D01*
X65227333Y26689000D01*
X65303523Y26727095D01*
X65494000Y26727095D01*
X65608285Y26689000D01*
X65760666Y27060000D02*
X66141619Y27060000D01*
X65951142Y25927095D02*
X65951142Y26727095D01*
X66141619Y27060000D02*
X66979714Y27060000D01*
X66332095Y25927095D02*
X66332095Y26727095D01*
X66789238Y25927095D01*
X66789238Y26727095D01*
X66979714Y27060000D02*
X67589238Y27060000D01*
X67055904Y26727095D02*
X67513047Y26727095D01*
X67284476Y25927095D02*
X67284476Y26727095D01*
X65036857Y31007095D02*
X65036857Y31807095D01*
X65303523Y31235666D01*
X65570190Y31807095D01*
X65570190Y31007095D01*
X66103523Y31807095D02*
X66255904Y31807095D01*
X66332095Y31769000D01*
X66408285Y31692809D01*
X66446380Y31540428D01*
X66446380Y31273761D01*
X66408285Y31121380D01*
X66332095Y31045190D01*
X66255904Y31007095D01*
X66103523Y31007095D01*
X66027333Y31045190D01*
X65951142Y31121380D01*
X65913047Y31273761D01*
X65913047Y31540428D01*
X65951142Y31692809D01*
X66027333Y31769000D01*
X66103523Y31807095D01*
X66751142Y31045190D02*
X66865428Y31007095D01*
X67055904Y31007095D01*
X67132095Y31045190D01*
X67170190Y31083285D01*
X67208285Y31159476D01*
X67208285Y31235666D01*
X67170190Y31311857D01*
X67132095Y31349952D01*
X67055904Y31388047D01*
X66903523Y31426142D01*
X66827333Y31464238D01*
X66789238Y31502333D01*
X66751142Y31578523D01*
X66751142Y31654714D01*
X66789238Y31730904D01*
X66827333Y31769000D01*
X66903523Y31807095D01*
X67094000Y31807095D01*
X67208285Y31769000D01*
X67551142Y31007095D02*
X67551142Y31807095D01*
X65665428Y20847095D02*
X65665428Y21647095D01*
X66122571Y20847095D01*
X66122571Y21647095D01*
X66960666Y20923285D02*
X66922571Y20885190D01*
X66808285Y20847095D01*
X66732095Y20847095D01*
X66617809Y20885190D01*
X66541619Y20961380D01*
X66503523Y21037571D01*
X66465428Y21189952D01*
X66465428Y21304238D01*
X66503523Y21456619D01*
X66541619Y21532809D01*
X66617809Y21609000D01*
X66732095Y21647095D01*
X66808285Y21647095D01*
X66922571Y21609000D01*
X66960666Y21570904D01*
X65036857Y28467095D02*
X65036857Y29267095D01*
X65303523Y28695666D01*
X65570190Y29267095D01*
X65570190Y28467095D01*
X65951142Y28467095D02*
X65951142Y29267095D01*
X66294000Y28505190D02*
X66408285Y28467095D01*
X66598761Y28467095D01*
X66674952Y28505190D01*
X66713047Y28543285D01*
X66751142Y28619476D01*
X66751142Y28695666D01*
X66713047Y28771857D01*
X66674952Y28809952D01*
X66598761Y28848047D01*
X66446380Y28886142D01*
X66370190Y28924238D01*
X66332095Y28962333D01*
X66294000Y29038523D01*
X66294000Y29114714D01*
X66332095Y29190904D01*
X66370190Y29229000D01*
X66446380Y29267095D01*
X66636857Y29267095D01*
X66751142Y29229000D01*
X67246380Y29267095D02*
X67398761Y29267095D01*
X67474952Y29229000D01*
X67551142Y29152809D01*
X67589238Y29000428D01*
X67589238Y28733761D01*
X67551142Y28581380D01*
X67474952Y28505190D01*
X67398761Y28467095D01*
X67246380Y28467095D01*
X67170190Y28505190D01*
X67094000Y28581380D01*
X67055904Y28733761D01*
X67055904Y29000428D01*
X67094000Y29152809D01*
X67170190Y29229000D01*
X67246380Y29267095D01*
X76225523Y21012190D02*
X76339809Y20974095D01*
X76530285Y20974095D01*
X76606476Y21012190D01*
X76644571Y21050285D01*
X76682666Y21126476D01*
X76682666Y21202666D01*
X76644571Y21278857D01*
X76606476Y21316952D01*
X76530285Y21355047D01*
X76377904Y21393142D01*
X76301714Y21431238D01*
X76263619Y21469333D01*
X76225523Y21545523D01*
X76225523Y21621714D01*
X76263619Y21697904D01*
X76301714Y21736000D01*
X76377904Y21774095D01*
X76568380Y21774095D01*
X76682666Y21736000D01*
X76987428Y21012190D02*
X77101714Y20974095D01*
X77292190Y20974095D01*
X77368380Y21012190D01*
X77406476Y21050285D01*
X77444571Y21126476D01*
X77444571Y21202666D01*
X77406476Y21278857D01*
X77368380Y21316952D01*
X77292190Y21355047D01*
X77139809Y21393142D01*
X77063619Y21431238D01*
X77025523Y21469333D01*
X76987428Y21545523D01*
X76987428Y21621714D01*
X77025523Y21697904D01*
X77063619Y21736000D01*
X77139809Y21774095D01*
X77330285Y21774095D01*
X77444571Y21736000D01*
X77711238Y21774095D02*
X78206476Y21774095D01*
X77939809Y21469333D01*
X78054095Y21469333D01*
X78130285Y21431238D01*
X78168380Y21393142D01*
X78206476Y21316952D01*
X78206476Y21126476D01*
X78168380Y21050285D01*
X78130285Y21012190D01*
X78054095Y20974095D01*
X77825523Y20974095D01*
X77749333Y21012190D01*
X77711238Y21050285D01*
X76225523Y23552190D02*
X76339809Y23514095D01*
X76530285Y23514095D01*
X76606476Y23552190D01*
X76644571Y23590285D01*
X76682666Y23666476D01*
X76682666Y23742666D01*
X76644571Y23818857D01*
X76606476Y23856952D01*
X76530285Y23895047D01*
X76377904Y23933142D01*
X76301714Y23971238D01*
X76263619Y24009333D01*
X76225523Y24085523D01*
X76225523Y24161714D01*
X76263619Y24237904D01*
X76301714Y24276000D01*
X76377904Y24314095D01*
X76568380Y24314095D01*
X76682666Y24276000D01*
X76987428Y23552190D02*
X77101714Y23514095D01*
X77292190Y23514095D01*
X77368380Y23552190D01*
X77406476Y23590285D01*
X77444571Y23666476D01*
X77444571Y23742666D01*
X77406476Y23818857D01*
X77368380Y23856952D01*
X77292190Y23895047D01*
X77139809Y23933142D01*
X77063619Y23971238D01*
X77025523Y24009333D01*
X76987428Y24085523D01*
X76987428Y24161714D01*
X77025523Y24237904D01*
X77063619Y24276000D01*
X77139809Y24314095D01*
X77330285Y24314095D01*
X77444571Y24276000D01*
X77749333Y24237904D02*
X77787428Y24276000D01*
X77863619Y24314095D01*
X78054095Y24314095D01*
X78130285Y24276000D01*
X78168380Y24237904D01*
X78206476Y24161714D01*
X78206476Y24085523D01*
X78168380Y23971238D01*
X77711238Y23514095D01*
X78206476Y23514095D01*
X76187428Y28898857D02*
X76796952Y28898857D01*
X76492190Y28594095D02*
X76492190Y29203619D01*
X77558857Y29394095D02*
X77177904Y29394095D01*
X77139809Y29013142D01*
X77177904Y29051238D01*
X77254095Y29089333D01*
X77444571Y29089333D01*
X77520761Y29051238D01*
X77558857Y29013142D01*
X77596952Y28936952D01*
X77596952Y28746476D01*
X77558857Y28670285D01*
X77520761Y28632190D01*
X77444571Y28594095D01*
X77254095Y28594095D01*
X77177904Y28632190D01*
X77139809Y28670285D01*
X77825523Y29394095D02*
X78092190Y28594095D01*
X78358857Y29394095D01*
X76187428Y26358857D02*
X76796952Y26358857D01*
X76492190Y26054095D02*
X76492190Y26663619D01*
X77558857Y26854095D02*
X77177904Y26854095D01*
X77139809Y26473142D01*
X77177904Y26511238D01*
X77254095Y26549333D01*
X77444571Y26549333D01*
X77520761Y26511238D01*
X77558857Y26473142D01*
X77596952Y26396952D01*
X77596952Y26206476D01*
X77558857Y26130285D01*
X77520761Y26092190D01*
X77444571Y26054095D01*
X77254095Y26054095D01*
X77177904Y26092190D01*
X77139809Y26130285D01*
X77825523Y26854095D02*
X78092190Y26054095D01*
X78358857Y26854095D01*
X76606476Y34436000D02*
X76530285Y34474095D01*
X76416000Y34474095D01*
X76301714Y34436000D01*
X76225523Y34359809D01*
X76187428Y34283619D01*
X76149333Y34131238D01*
X76149333Y34016952D01*
X76187428Y33864571D01*
X76225523Y33788380D01*
X76301714Y33712190D01*
X76416000Y33674095D01*
X76492190Y33674095D01*
X76606476Y33712190D01*
X76644571Y33750285D01*
X76644571Y34016952D01*
X76492190Y34016952D01*
X76987428Y33674095D02*
X76987428Y34474095D01*
X77444571Y33674095D01*
X77444571Y34474095D01*
X77825523Y33674095D02*
X77825523Y34474095D01*
X78016000Y34474095D01*
X78130285Y34436000D01*
X78206476Y34359809D01*
X78244571Y34283619D01*
X78282666Y34131238D01*
X78282666Y34016952D01*
X78244571Y33864571D01*
X78206476Y33788380D01*
X78130285Y33712190D01*
X78016000Y33674095D01*
X77825523Y33674095D01*
X76606476Y31896000D02*
X76530285Y31934095D01*
X76416000Y31934095D01*
X76301714Y31896000D01*
X76225523Y31819809D01*
X76187428Y31743619D01*
X76149333Y31591238D01*
X76149333Y31476952D01*
X76187428Y31324571D01*
X76225523Y31248380D01*
X76301714Y31172190D01*
X76416000Y31134095D01*
X76492190Y31134095D01*
X76606476Y31172190D01*
X76644571Y31210285D01*
X76644571Y31476952D01*
X76492190Y31476952D01*
X76987428Y31134095D02*
X76987428Y31934095D01*
X77444571Y31134095D01*
X77444571Y31934095D01*
X77825523Y31134095D02*
X77825523Y31934095D01*
X78016000Y31934095D01*
X78130285Y31896000D01*
X78206476Y31819809D01*
X78244571Y31743619D01*
X78282666Y31591238D01*
X78282666Y31476952D01*
X78244571Y31324571D01*
X78206476Y31248380D01*
X78130285Y31172190D01*
X78016000Y31134095D01*
X77825523Y31134095D01*
X76606476Y36976000D02*
X76530285Y37014095D01*
X76416000Y37014095D01*
X76301714Y36976000D01*
X76225523Y36899809D01*
X76187428Y36823619D01*
X76149333Y36671238D01*
X76149333Y36556952D01*
X76187428Y36404571D01*
X76225523Y36328380D01*
X76301714Y36252190D01*
X76416000Y36214095D01*
X76492190Y36214095D01*
X76606476Y36252190D01*
X76644571Y36290285D01*
X76644571Y36556952D01*
X76492190Y36556952D01*
X76987428Y36214095D02*
X76987428Y37014095D01*
X77444571Y36214095D01*
X77444571Y37014095D01*
X77825523Y36214095D02*
X77825523Y37014095D01*
X78016000Y37014095D01*
X78130285Y36976000D01*
X78206476Y36899809D01*
X78244571Y36823619D01*
X78282666Y36671238D01*
X78282666Y36556952D01*
X78244571Y36404571D01*
X78206476Y36328380D01*
X78130285Y36252190D01*
X78016000Y36214095D01*
X77825523Y36214095D01*
X64713047Y37220000D02*
X65513047Y37220000D01*
X65360666Y36163285D02*
X65322571Y36125190D01*
X65208285Y36087095D01*
X65132095Y36087095D01*
X65017809Y36125190D01*
X64941619Y36201380D01*
X64903523Y36277571D01*
X64865428Y36429952D01*
X64865428Y36544238D01*
X64903523Y36696619D01*
X64941619Y36772809D01*
X65017809Y36849000D01*
X65132095Y36887095D01*
X65208285Y36887095D01*
X65322571Y36849000D01*
X65360666Y36810904D01*
X65513047Y37220000D02*
X66351142Y37220000D01*
X65855904Y36887095D02*
X66008285Y36887095D01*
X66084476Y36849000D01*
X66160666Y36772809D01*
X66198761Y36620428D01*
X66198761Y36353761D01*
X66160666Y36201380D01*
X66084476Y36125190D01*
X66008285Y36087095D01*
X65855904Y36087095D01*
X65779714Y36125190D01*
X65703523Y36201380D01*
X65665428Y36353761D01*
X65665428Y36620428D01*
X65703523Y36772809D01*
X65779714Y36849000D01*
X65855904Y36887095D01*
X66351142Y37220000D02*
X67189238Y37220000D01*
X66541619Y36087095D02*
X66541619Y36887095D01*
X66998761Y36087095D01*
X66998761Y36887095D01*
X67189238Y37220000D02*
X67874952Y37220000D01*
X67646380Y36506142D02*
X67379714Y36506142D01*
X67379714Y36087095D02*
X67379714Y36887095D01*
X67760666Y36887095D01*
X42405428Y55568857D02*
X43014952Y55568857D01*
X42710190Y55264095D02*
X42710190Y55873619D01*
X43776857Y56064095D02*
X43395904Y56064095D01*
X43357809Y55683142D01*
X43395904Y55721238D01*
X43472095Y55759333D01*
X43662571Y55759333D01*
X43738761Y55721238D01*
X43776857Y55683142D01*
X43814952Y55606952D01*
X43814952Y55416476D01*
X43776857Y55340285D01*
X43738761Y55302190D01*
X43662571Y55264095D01*
X43472095Y55264095D01*
X43395904Y55302190D01*
X43357809Y55340285D01*
X44043523Y56064095D02*
X44310190Y55264095D01*
X44576857Y56064095D01*
X52914666Y55264095D02*
X52914666Y56064095D01*
X53219428Y56064095D01*
X53295619Y56026000D01*
X53333714Y55987904D01*
X53371809Y55911714D01*
X53371809Y55797428D01*
X53333714Y55721238D01*
X53295619Y55683142D01*
X53219428Y55645047D01*
X52914666Y55645047D01*
X53676571Y55492666D02*
X54057523Y55492666D01*
X53600380Y55264095D02*
X53867047Y56064095D01*
X54133714Y55264095D01*
X54324190Y56064095D02*
X54857523Y56064095D01*
X54514666Y55264095D01*
X55454666Y55264095D02*
X55454666Y56064095D01*
X55759428Y56064095D01*
X55835619Y56026000D01*
X55873714Y55987904D01*
X55911809Y55911714D01*
X55911809Y55797428D01*
X55873714Y55721238D01*
X55835619Y55683142D01*
X55759428Y55645047D01*
X55454666Y55645047D01*
X56216571Y55492666D02*
X56597523Y55492666D01*
X56140380Y55264095D02*
X56407047Y56064095D01*
X56673714Y55264095D01*
X57283238Y56064095D02*
X57130857Y56064095D01*
X57054666Y56026000D01*
X57016571Y55987904D01*
X56940380Y55873619D01*
X56902285Y55721238D01*
X56902285Y55416476D01*
X56940380Y55340285D01*
X56978476Y55302190D01*
X57054666Y55264095D01*
X57207047Y55264095D01*
X57283238Y55302190D01*
X57321333Y55340285D01*
X57359428Y55416476D01*
X57359428Y55606952D01*
X57321333Y55683142D01*
X57283238Y55721238D01*
X57207047Y55759333D01*
X57054666Y55759333D01*
X56978476Y55721238D01*
X56940380Y55683142D01*
X56902285Y55606952D01*
X45751809Y55340285D02*
X45713714Y55302190D01*
X45599428Y55264095D01*
X45523238Y55264095D01*
X45408952Y55302190D01*
X45332761Y55378380D01*
X45294666Y55454571D01*
X45256571Y55606952D01*
X45256571Y55721238D01*
X45294666Y55873619D01*
X45332761Y55949809D01*
X45408952Y56026000D01*
X45523238Y56064095D01*
X45599428Y56064095D01*
X45713714Y56026000D01*
X45751809Y55987904D01*
X46056571Y55492666D02*
X46437523Y55492666D01*
X45980380Y55264095D02*
X46247047Y56064095D01*
X46513714Y55264095D01*
X46742285Y55987904D02*
X46780380Y56026000D01*
X46856571Y56064095D01*
X47047047Y56064095D01*
X47123238Y56026000D01*
X47161333Y55987904D01*
X47199428Y55911714D01*
X47199428Y55835523D01*
X47161333Y55721238D01*
X46704190Y55264095D01*
X47199428Y55264095D01*
X48291809Y55340285D02*
X48253714Y55302190D01*
X48139428Y55264095D01*
X48063238Y55264095D01*
X47948952Y55302190D01*
X47872761Y55378380D01*
X47834666Y55454571D01*
X47796571Y55606952D01*
X47796571Y55721238D01*
X47834666Y55873619D01*
X47872761Y55949809D01*
X47948952Y56026000D01*
X48063238Y56064095D01*
X48139428Y56064095D01*
X48253714Y56026000D01*
X48291809Y55987904D01*
X48596571Y55492666D02*
X48977523Y55492666D01*
X48520380Y55264095D02*
X48787047Y56064095D01*
X49053714Y55264095D01*
X49739428Y55264095D02*
X49282285Y55264095D01*
X49510857Y55264095D02*
X49510857Y56064095D01*
X49434666Y55949809D01*
X49358476Y55873619D01*
X49282285Y55835523D01*
X44596166Y47771095D02*
X44596166Y48571095D01*
X44900928Y48571095D01*
X44977119Y48533000D01*
X45015214Y48494904D01*
X45053309Y48418714D01*
X45053309Y48304428D01*
X45015214Y48228238D01*
X44977119Y48190142D01*
X44900928Y48152047D01*
X44596166Y48152047D01*
X45358071Y47999666D02*
X45739023Y47999666D01*
X45281880Y47771095D02*
X45548547Y48571095D01*
X45815214Y47771095D01*
X46424738Y48304428D02*
X46424738Y47771095D01*
X46234261Y48609190D02*
X46043785Y48037761D01*
X46539023Y48037761D01*
X49676166Y47771095D02*
X49676166Y48571095D01*
X49980928Y48571095D01*
X50057119Y48533000D01*
X50095214Y48494904D01*
X50133309Y48418714D01*
X50133309Y48304428D01*
X50095214Y48228238D01*
X50057119Y48190142D01*
X49980928Y48152047D01*
X49676166Y48152047D01*
X50438071Y47999666D02*
X50819023Y47999666D01*
X50361880Y47771095D02*
X50628547Y48571095D01*
X50895214Y47771095D01*
X51123785Y48494904D02*
X51161880Y48533000D01*
X51238071Y48571095D01*
X51428547Y48571095D01*
X51504738Y48533000D01*
X51542833Y48494904D01*
X51580928Y48418714D01*
X51580928Y48342523D01*
X51542833Y48228238D01*
X51085690Y47771095D01*
X51580928Y47771095D01*
X50698476Y56026000D02*
X50622285Y56064095D01*
X50508000Y56064095D01*
X50393714Y56026000D01*
X50317523Y55949809D01*
X50279428Y55873619D01*
X50241333Y55721238D01*
X50241333Y55606952D01*
X50279428Y55454571D01*
X50317523Y55378380D01*
X50393714Y55302190D01*
X50508000Y55264095D01*
X50584190Y55264095D01*
X50698476Y55302190D01*
X50736571Y55340285D01*
X50736571Y55606952D01*
X50584190Y55606952D01*
X51079428Y55264095D02*
X51079428Y56064095D01*
X51536571Y55264095D01*
X51536571Y56064095D01*
X51917523Y55264095D02*
X51917523Y56064095D01*
X52108000Y56064095D01*
X52222285Y56026000D01*
X52298476Y55949809D01*
X52336571Y55873619D01*
X52374666Y55721238D01*
X52374666Y55606952D01*
X52336571Y55454571D01*
X52298476Y55378380D01*
X52222285Y55302190D01*
X52108000Y55264095D01*
X51917523Y55264095D01*
X42056166Y47771095D02*
X42056166Y48571095D01*
X42360928Y48571095D01*
X42437119Y48533000D01*
X42475214Y48494904D01*
X42513309Y48418714D01*
X42513309Y48304428D01*
X42475214Y48228238D01*
X42437119Y48190142D01*
X42360928Y48152047D01*
X42056166Y48152047D01*
X42818071Y47999666D02*
X43199023Y47999666D01*
X42741880Y47771095D02*
X43008547Y48571095D01*
X43275214Y47771095D01*
X43922833Y48571095D02*
X43541880Y48571095D01*
X43503785Y48190142D01*
X43541880Y48228238D01*
X43618071Y48266333D01*
X43808547Y48266333D01*
X43884738Y48228238D01*
X43922833Y48190142D01*
X43960928Y48113952D01*
X43960928Y47923476D01*
X43922833Y47847285D01*
X43884738Y47809190D01*
X43808547Y47771095D01*
X43618071Y47771095D01*
X43541880Y47809190D01*
X43503785Y47847285D01*
X54248166Y47771095D02*
X54248166Y48571095D01*
X54552928Y48571095D01*
X54629119Y48533000D01*
X54667214Y48494904D01*
X54705309Y48418714D01*
X54705309Y48304428D01*
X54667214Y48228238D01*
X54629119Y48190142D01*
X54552928Y48152047D01*
X54248166Y48152047D01*
X55010071Y47999666D02*
X55391023Y47999666D01*
X54933880Y47771095D02*
X55200547Y48571095D01*
X55467214Y47771095D01*
X55886261Y48571095D02*
X55962452Y48571095D01*
X56038642Y48533000D01*
X56076738Y48494904D01*
X56114833Y48418714D01*
X56152928Y48266333D01*
X56152928Y48075857D01*
X56114833Y47923476D01*
X56076738Y47847285D01*
X56038642Y47809190D01*
X55962452Y47771095D01*
X55886261Y47771095D01*
X55810071Y47809190D01*
X55771976Y47847285D01*
X55733880Y47923476D01*
X55695785Y48075857D01*
X55695785Y48266333D01*
X55733880Y48418714D01*
X55771976Y48494904D01*
X55810071Y48533000D01*
X55886261Y48571095D01*
X47136166Y47771095D02*
X47136166Y48571095D01*
X47440928Y48571095D01*
X47517119Y48533000D01*
X47555214Y48494904D01*
X47593309Y48418714D01*
X47593309Y48304428D01*
X47555214Y48228238D01*
X47517119Y48190142D01*
X47440928Y48152047D01*
X47136166Y48152047D01*
X47898071Y47999666D02*
X48279023Y47999666D01*
X47821880Y47771095D02*
X48088547Y48571095D01*
X48355214Y47771095D01*
X48545690Y48571095D02*
X49040928Y48571095D01*
X48774261Y48266333D01*
X48888547Y48266333D01*
X48964738Y48228238D01*
X49002833Y48190142D01*
X49040928Y48113952D01*
X49040928Y47923476D01*
X49002833Y47847285D01*
X48964738Y47809190D01*
X48888547Y47771095D01*
X48659976Y47771095D01*
X48583785Y47809190D01*
X48545690Y47847285D01*
X51962166Y47771095D02*
X51962166Y48571095D01*
X52266928Y48571095D01*
X52343119Y48533000D01*
X52381214Y48494904D01*
X52419309Y48418714D01*
X52419309Y48304428D01*
X52381214Y48228238D01*
X52343119Y48190142D01*
X52266928Y48152047D01*
X51962166Y48152047D01*
X52724071Y47999666D02*
X53105023Y47999666D01*
X52647880Y47771095D02*
X52914547Y48571095D01*
X53181214Y47771095D01*
X53866928Y47771095D02*
X53409785Y47771095D01*
X53638357Y47771095D02*
X53638357Y48571095D01*
X53562166Y48456809D01*
X53485976Y48380619D01*
X53409785Y48342523D01*
D12*
X29627190Y37957238D02*
X29627190Y39957238D01*
X30960523Y39957238D02*
X31341476Y39957238D01*
X31531952Y39862000D01*
X31722428Y39671523D01*
X31817666Y39290571D01*
X31817666Y38623904D01*
X31722428Y38242952D01*
X31531952Y38052476D01*
X31341476Y37957238D01*
X30960523Y37957238D01*
X30770047Y38052476D01*
X30579571Y38242952D01*
X30484333Y38623904D01*
X30484333Y39290571D01*
X30579571Y39671523D01*
X30770047Y39862000D01*
X30960523Y39957238D01*
X34865285Y39004857D02*
X35151000Y38909619D01*
X35246238Y38814380D01*
X35341476Y38623904D01*
X35341476Y38338190D01*
X35246238Y38147714D01*
X35151000Y38052476D01*
X34960523Y37957238D01*
X34198619Y37957238D01*
X34198619Y39957238D01*
X34865285Y39957238D01*
X35055761Y39862000D01*
X35151000Y39766761D01*
X35246238Y39576285D01*
X35246238Y39385809D01*
X35151000Y39195333D01*
X35055761Y39100095D01*
X34865285Y39004857D01*
X34198619Y39004857D01*
X36579571Y39957238D02*
X36960523Y39957238D01*
X37151000Y39862000D01*
X37341476Y39671523D01*
X37436714Y39290571D01*
X37436714Y38623904D01*
X37341476Y38242952D01*
X37151000Y38052476D01*
X36960523Y37957238D01*
X36579571Y37957238D01*
X36389095Y38052476D01*
X36198619Y38242952D01*
X36103380Y38623904D01*
X36103380Y39290571D01*
X36198619Y39671523D01*
X36389095Y39862000D01*
X36579571Y39957238D01*
X38198619Y38528666D02*
X39151000Y38528666D01*
X38008142Y37957238D02*
X38674809Y39957238D01*
X39341476Y37957238D01*
X41151000Y37957238D02*
X40484333Y38909619D01*
X40008142Y37957238D02*
X40008142Y39957238D01*
X40770047Y39957238D01*
X40960523Y39862000D01*
X41055761Y39766761D01*
X41151000Y39576285D01*
X41151000Y39290571D01*
X41055761Y39100095D01*
X40960523Y39004857D01*
X40770047Y38909619D01*
X40008142Y38909619D01*
X42008142Y37957238D02*
X42008142Y39957238D01*
X42484333Y39957238D01*
X42770047Y39862000D01*
X42960523Y39671523D01*
X43055761Y39481047D01*
X43151000Y39100095D01*
X43151000Y38814380D01*
X43055761Y38433428D01*
X42960523Y38242952D01*
X42770047Y38052476D01*
X42484333Y37957238D01*
X42008142Y37957238D01*
X45246238Y39957238D02*
X45912904Y37957238D01*
X46579571Y39957238D01*
X48293857Y37957238D02*
X47151000Y37957238D01*
X47722428Y37957238D02*
X47722428Y39957238D01*
X47531952Y39671523D01*
X47341476Y39481047D01*
X47151000Y39385809D01*
X49151000Y38147714D02*
X49246238Y38052476D01*
X49151000Y37957238D01*
X49055761Y38052476D01*
X49151000Y38147714D01*
X49151000Y37957238D01*
X51151000Y37957238D02*
X50008142Y37957238D01*
X50579571Y37957238D02*
X50579571Y39957238D01*
X50389095Y39671523D01*
X50198619Y39481047D01*
X50008142Y39385809D01*
D13*
%TO.C,D8*%
X2540000Y51626000D02*
X2540000Y51626000D01*
X2540000Y54296000D02*
X2540000Y51626000D01*
X2540000Y54296000D02*
X2540000Y54296000D01*
X2540000Y51626000D02*
X2540000Y54296000D01*
X5080000Y51626000D02*
X5080000Y51626000D01*
X5080000Y54296000D02*
X5080000Y51626000D01*
X5080000Y54296000D02*
X5080000Y54296000D01*
X5080000Y51626000D02*
X5080000Y54296000D01*
X2250000Y54296000D02*
X1850000Y54296000D01*
X2250000Y55416000D02*
X2250000Y54296000D01*
X1850000Y55416000D02*
X2250000Y55416000D01*
X1850000Y54296000D02*
X1850000Y55416000D01*
X5370000Y54296000D02*
X2250000Y54296000D01*
X2250000Y54296000D02*
X2250000Y58156000D01*
X5370000Y54296000D02*
X5370000Y58156000D01*
X2250000Y58156000D02*
G75*
G02*
X5370000Y58156000I1560000J0D01*
G01*
%TO.C,D7*%
X7620000Y51626000D02*
X7620000Y51626000D01*
X7620000Y54296000D02*
X7620000Y51626000D01*
X7620000Y54296000D02*
X7620000Y54296000D01*
X7620000Y51626000D02*
X7620000Y54296000D01*
X10160000Y51626000D02*
X10160000Y51626000D01*
X10160000Y54296000D02*
X10160000Y51626000D01*
X10160000Y54296000D02*
X10160000Y54296000D01*
X10160000Y51626000D02*
X10160000Y54296000D01*
X7330000Y54296000D02*
X6930000Y54296000D01*
X7330000Y55416000D02*
X7330000Y54296000D01*
X6930000Y55416000D02*
X7330000Y55416000D01*
X6930000Y54296000D02*
X6930000Y55416000D01*
X10450000Y54296000D02*
X7330000Y54296000D01*
X7330000Y54296000D02*
X7330000Y58156000D01*
X10450000Y54296000D02*
X10450000Y58156000D01*
X7330000Y58156000D02*
G75*
G02*
X10450000Y58156000I1560000J0D01*
G01*
%TO.C,D6*%
X12700000Y51626000D02*
X12700000Y51626000D01*
X12700000Y54296000D02*
X12700000Y51626000D01*
X12700000Y54296000D02*
X12700000Y54296000D01*
X12700000Y51626000D02*
X12700000Y54296000D01*
X15240000Y51626000D02*
X15240000Y51626000D01*
X15240000Y54296000D02*
X15240000Y51626000D01*
X15240000Y54296000D02*
X15240000Y54296000D01*
X15240000Y51626000D02*
X15240000Y54296000D01*
X12410000Y54296000D02*
X12010000Y54296000D01*
X12410000Y55416000D02*
X12410000Y54296000D01*
X12010000Y55416000D02*
X12410000Y55416000D01*
X12010000Y54296000D02*
X12010000Y55416000D01*
X15530000Y54296000D02*
X12410000Y54296000D01*
X12410000Y54296000D02*
X12410000Y58156000D01*
X15530000Y54296000D02*
X15530000Y58156000D01*
X12410000Y58156000D02*
G75*
G02*
X15530000Y58156000I1560000J0D01*
G01*
%TO.C,D5*%
X17780000Y51626000D02*
X17780000Y51626000D01*
X17780000Y54296000D02*
X17780000Y51626000D01*
X17780000Y54296000D02*
X17780000Y54296000D01*
X17780000Y51626000D02*
X17780000Y54296000D01*
X20320000Y51626000D02*
X20320000Y51626000D01*
X20320000Y54296000D02*
X20320000Y51626000D01*
X20320000Y54296000D02*
X20320000Y54296000D01*
X20320000Y51626000D02*
X20320000Y54296000D01*
X17490000Y54296000D02*
X17090000Y54296000D01*
X17490000Y55416000D02*
X17490000Y54296000D01*
X17090000Y55416000D02*
X17490000Y55416000D01*
X17090000Y54296000D02*
X17090000Y55416000D01*
X20610000Y54296000D02*
X17490000Y54296000D01*
X17490000Y54296000D02*
X17490000Y58156000D01*
X20610000Y54296000D02*
X20610000Y58156000D01*
X17490000Y58156000D02*
G75*
G02*
X20610000Y58156000I1560000J0D01*
G01*
%TO.C,D4*%
X22860000Y51626000D02*
X22860000Y51626000D01*
X22860000Y54296000D02*
X22860000Y51626000D01*
X22860000Y54296000D02*
X22860000Y54296000D01*
X22860000Y51626000D02*
X22860000Y54296000D01*
X25400000Y51626000D02*
X25400000Y51626000D01*
X25400000Y54296000D02*
X25400000Y51626000D01*
X25400000Y54296000D02*
X25400000Y54296000D01*
X25400000Y51626000D02*
X25400000Y54296000D01*
X22570000Y54296000D02*
X22170000Y54296000D01*
X22570000Y55416000D02*
X22570000Y54296000D01*
X22170000Y55416000D02*
X22570000Y55416000D01*
X22170000Y54296000D02*
X22170000Y55416000D01*
X25690000Y54296000D02*
X22570000Y54296000D01*
X22570000Y54296000D02*
X22570000Y58156000D01*
X25690000Y54296000D02*
X25690000Y58156000D01*
X22570000Y58156000D02*
G75*
G02*
X25690000Y58156000I1560000J0D01*
G01*
%TO.C,D3*%
X27940000Y51626000D02*
X27940000Y51626000D01*
X27940000Y54296000D02*
X27940000Y51626000D01*
X27940000Y54296000D02*
X27940000Y54296000D01*
X27940000Y51626000D02*
X27940000Y54296000D01*
X30480000Y51626000D02*
X30480000Y51626000D01*
X30480000Y54296000D02*
X30480000Y51626000D01*
X30480000Y54296000D02*
X30480000Y54296000D01*
X30480000Y51626000D02*
X30480000Y54296000D01*
X27650000Y54296000D02*
X27250000Y54296000D01*
X27650000Y55416000D02*
X27650000Y54296000D01*
X27250000Y55416000D02*
X27650000Y55416000D01*
X27250000Y54296000D02*
X27250000Y55416000D01*
X30770000Y54296000D02*
X27650000Y54296000D01*
X27650000Y54296000D02*
X27650000Y58156000D01*
X30770000Y54296000D02*
X30770000Y58156000D01*
X27650000Y58156000D02*
G75*
G02*
X30770000Y58156000I1560000J0D01*
G01*
%TO.C,D2*%
X33020000Y51626000D02*
X33020000Y51626000D01*
X33020000Y54296000D02*
X33020000Y51626000D01*
X33020000Y54296000D02*
X33020000Y54296000D01*
X33020000Y51626000D02*
X33020000Y54296000D01*
X35560000Y51626000D02*
X35560000Y51626000D01*
X35560000Y54296000D02*
X35560000Y51626000D01*
X35560000Y54296000D02*
X35560000Y54296000D01*
X35560000Y51626000D02*
X35560000Y54296000D01*
X32730000Y54296000D02*
X32330000Y54296000D01*
X32730000Y55416000D02*
X32730000Y54296000D01*
X32330000Y55416000D02*
X32730000Y55416000D01*
X32330000Y54296000D02*
X32330000Y55416000D01*
X35850000Y54296000D02*
X32730000Y54296000D01*
X32730000Y54296000D02*
X32730000Y58156000D01*
X35850000Y54296000D02*
X35850000Y58156000D01*
X32730000Y58156000D02*
G75*
G02*
X35850000Y58156000I1560000J0D01*
G01*
%TO.C,D1*%
X38100000Y51626000D02*
X38100000Y51626000D01*
X38100000Y54296000D02*
X38100000Y51626000D01*
X38100000Y54296000D02*
X38100000Y54296000D01*
X38100000Y51626000D02*
X38100000Y54296000D01*
X40640000Y51626000D02*
X40640000Y51626000D01*
X40640000Y54296000D02*
X40640000Y51626000D01*
X40640000Y54296000D02*
X40640000Y54296000D01*
X40640000Y51626000D02*
X40640000Y54296000D01*
X37810000Y54296000D02*
X37410000Y54296000D01*
X37810000Y55416000D02*
X37810000Y54296000D01*
X37410000Y55416000D02*
X37810000Y55416000D01*
X37410000Y54296000D02*
X37410000Y55416000D01*
X40930000Y54296000D02*
X37810000Y54296000D01*
X37810000Y54296000D02*
X37810000Y58156000D01*
X40930000Y54296000D02*
X40930000Y58156000D01*
X37810000Y58156000D02*
G75*
G02*
X40930000Y58156000I1560000J0D01*
G01*
D14*
%TO.C,G\u002A\u002A\u002A*%
G36*
X35607625Y43631341D02*
G01*
X35161787Y43175483D01*
X35064228Y43076090D01*
X34973328Y42984169D01*
X34891520Y42902130D01*
X34821239Y42832385D01*
X34764919Y42777343D01*
X34724994Y42739414D01*
X34703899Y42721009D01*
X34701412Y42719625D01*
X34699388Y42735291D01*
X34697483Y42781449D01*
X34695706Y42856842D01*
X34694066Y42960213D01*
X34692571Y43090304D01*
X34691230Y43245859D01*
X34690052Y43425620D01*
X34689046Y43628329D01*
X34688220Y43852730D01*
X34687583Y44097565D01*
X34687144Y44361576D01*
X34686911Y44643507D01*
X34686875Y44815125D01*
X34686875Y46910625D01*
X35607625Y46910625D01*
X35607625Y43631341D01*
G37*
X35607625Y43631341D02*
X35161787Y43175483D01*
X35064228Y43076090D01*
X34973328Y42984169D01*
X34891520Y42902130D01*
X34821239Y42832385D01*
X34764919Y42777343D01*
X34724994Y42739414D01*
X34703899Y42721009D01*
X34701412Y42719625D01*
X34699388Y42735291D01*
X34697483Y42781449D01*
X34695706Y42856842D01*
X34694066Y42960213D01*
X34692571Y43090304D01*
X34691230Y43245859D01*
X34690052Y43425620D01*
X34689046Y43628329D01*
X34688220Y43852730D01*
X34687583Y44097565D01*
X34687144Y44361576D01*
X34686911Y44643507D01*
X34686875Y44815125D01*
X34686875Y46910625D01*
X35607625Y46910625D01*
X35607625Y43631341D01*
G36*
X54102000Y45553313D02*
G01*
X52744757Y44196000D01*
X54102000Y42838688D01*
X55459242Y41481375D01*
X54816340Y41481388D01*
X54173437Y41481400D01*
X52816125Y42826794D01*
X52642999Y42998499D01*
X52476202Y43164122D01*
X52317117Y43322280D01*
X52167128Y43471587D01*
X52027620Y43610660D01*
X51899975Y43738115D01*
X51785579Y43852567D01*
X51685814Y43952632D01*
X51602066Y44036926D01*
X51535717Y44104064D01*
X51488152Y44152663D01*
X51460755Y44181338D01*
X51454280Y44188911D01*
X51464760Y44201998D01*
X51496457Y44236020D01*
X51548001Y44289597D01*
X51618023Y44361352D01*
X51705153Y44449903D01*
X51808022Y44553873D01*
X51925261Y44671882D01*
X52055499Y44802552D01*
X52197368Y44944502D01*
X52349497Y45096354D01*
X52510517Y45256730D01*
X52679059Y45424248D01*
X52813999Y45558130D01*
X54178250Y46910625D01*
X55459242Y46910625D01*
X54102000Y45553313D01*
G37*
X54102000Y45553313D02*
X52744757Y44196000D01*
X54102000Y42838688D01*
X55459242Y41481375D01*
X54816340Y41481388D01*
X54173437Y41481400D01*
X52816125Y42826794D01*
X52642999Y42998499D01*
X52476202Y43164122D01*
X52317117Y43322280D01*
X52167128Y43471587D01*
X52027620Y43610660D01*
X51899975Y43738115D01*
X51785579Y43852567D01*
X51685814Y43952632D01*
X51602066Y44036926D01*
X51535717Y44104064D01*
X51488152Y44152663D01*
X51460755Y44181338D01*
X51454280Y44188911D01*
X51464760Y44201998D01*
X51496457Y44236020D01*
X51548001Y44289597D01*
X51618023Y44361352D01*
X51705153Y44449903D01*
X51808022Y44553873D01*
X51925261Y44671882D01*
X52055499Y44802552D01*
X52197368Y44944502D01*
X52349497Y45096354D01*
X52510517Y45256730D01*
X52679059Y45424248D01*
X52813999Y45558130D01*
X54178250Y46910625D01*
X55459242Y46910625D01*
X54102000Y45553313D01*
G36*
X51183318Y46901742D02*
G01*
X51319525Y46894154D01*
X51436123Y46881496D01*
X51474687Y46875127D01*
X51756769Y46806718D01*
X52030499Y46709094D01*
X52292471Y46583935D01*
X52539280Y46432922D01*
X52767522Y46257736D01*
X52821219Y46210417D01*
X52929502Y46112315D01*
X52852969Y46033927D01*
X52818090Y45999020D01*
X52764991Y45946916D01*
X52698475Y45882280D01*
X52623347Y45809776D01*
X52544411Y45734068D01*
X52526604Y45717057D01*
X52276772Y45478576D01*
X52193229Y45554201D01*
X52021222Y45689146D01*
X51829673Y45801888D01*
X51623646Y45890285D01*
X51408208Y45952198D01*
X51188423Y45985485D01*
X51169093Y45986970D01*
X50914994Y45990935D01*
X50673785Y45966112D01*
X50445779Y45912610D01*
X50231290Y45830541D01*
X50030632Y45720016D01*
X49844119Y45581145D01*
X49736570Y45481706D01*
X49575717Y45299255D01*
X49440403Y45099882D01*
X49332311Y44886472D01*
X49253122Y44661909D01*
X49248450Y44644903D01*
X49233310Y44586104D01*
X49222314Y44534432D01*
X49214811Y44482887D01*
X49210147Y44424469D01*
X49207672Y44352177D01*
X49206733Y44259009D01*
X49206634Y44196000D01*
X49207005Y44088291D01*
X49208550Y44005325D01*
X49211924Y43940104D01*
X49217777Y43885626D01*
X49226762Y43834890D01*
X49239531Y43780895D01*
X49248450Y43747098D01*
X49294860Y43603609D01*
X49356887Y43453810D01*
X49428653Y43310641D01*
X49499552Y43193958D01*
X49600639Y43062543D01*
X49723603Y42930730D01*
X49860275Y42805946D01*
X50002487Y42695619D01*
X50142070Y42607177D01*
X50149125Y42603304D01*
X50287495Y42537701D01*
X50439960Y42482154D01*
X50596915Y42439290D01*
X50748756Y42411739D01*
X50884440Y42402125D01*
X50987705Y42402125D01*
X51513622Y42053849D01*
X51628969Y41977203D01*
X51735737Y41905757D01*
X51831082Y41841450D01*
X51912160Y41786224D01*
X51976128Y41742018D01*
X52020142Y41710775D01*
X52041359Y41694433D01*
X52042863Y41692693D01*
X52030250Y41681887D01*
X51992405Y41664895D01*
X51934841Y41643455D01*
X51863071Y41619305D01*
X51782608Y41594182D01*
X51698966Y41569824D01*
X51617658Y41547968D01*
X51544196Y41530351D01*
X51498500Y41521133D01*
X51418149Y41510128D01*
X51315527Y41501032D01*
X51198383Y41494062D01*
X51074468Y41489430D01*
X50951534Y41487353D01*
X50837331Y41488046D01*
X50739611Y41491723D01*
X50669334Y41498143D01*
X50462319Y41533822D01*
X50268226Y41583012D01*
X50076984Y41648877D01*
X49878523Y41734580D01*
X49807812Y41768701D01*
X49547078Y41914419D01*
X49308227Y42083051D01*
X49091644Y42274213D01*
X48897714Y42487525D01*
X48726821Y42722604D01*
X48579349Y42979070D01*
X48570101Y42997438D01*
X48450457Y43268986D01*
X48362353Y43541367D01*
X48305581Y43815528D01*
X48279931Y44092419D01*
X48281211Y44307125D01*
X48310320Y44603436D01*
X48368709Y44887483D01*
X48456394Y45159301D01*
X48573389Y45418923D01*
X48719709Y45666380D01*
X48895368Y45901707D01*
X49073895Y46098448D01*
X49290702Y46295418D01*
X49526729Y46467792D01*
X49779716Y46614355D01*
X50047404Y46733893D01*
X50327533Y46825191D01*
X50502627Y46866311D01*
X50610673Y46882925D01*
X50741179Y46894852D01*
X50885732Y46902015D01*
X51035916Y46904337D01*
X51183318Y46901742D01*
G37*
X51183318Y46901742D02*
X51319525Y46894154D01*
X51436123Y46881496D01*
X51474687Y46875127D01*
X51756769Y46806718D01*
X52030499Y46709094D01*
X52292471Y46583935D01*
X52539280Y46432922D01*
X52767522Y46257736D01*
X52821219Y46210417D01*
X52929502Y46112315D01*
X52852969Y46033927D01*
X52818090Y45999020D01*
X52764991Y45946916D01*
X52698475Y45882280D01*
X52623347Y45809776D01*
X52544411Y45734068D01*
X52526604Y45717057D01*
X52276772Y45478576D01*
X52193229Y45554201D01*
X52021222Y45689146D01*
X51829673Y45801888D01*
X51623646Y45890285D01*
X51408208Y45952198D01*
X51188423Y45985485D01*
X51169093Y45986970D01*
X50914994Y45990935D01*
X50673785Y45966112D01*
X50445779Y45912610D01*
X50231290Y45830541D01*
X50030632Y45720016D01*
X49844119Y45581145D01*
X49736570Y45481706D01*
X49575717Y45299255D01*
X49440403Y45099882D01*
X49332311Y44886472D01*
X49253122Y44661909D01*
X49248450Y44644903D01*
X49233310Y44586104D01*
X49222314Y44534432D01*
X49214811Y44482887D01*
X49210147Y44424469D01*
X49207672Y44352177D01*
X49206733Y44259009D01*
X49206634Y44196000D01*
X49207005Y44088291D01*
X49208550Y44005325D01*
X49211924Y43940104D01*
X49217777Y43885626D01*
X49226762Y43834890D01*
X49239531Y43780895D01*
X49248450Y43747098D01*
X49294860Y43603609D01*
X49356887Y43453810D01*
X49428653Y43310641D01*
X49499552Y43193958D01*
X49600639Y43062543D01*
X49723603Y42930730D01*
X49860275Y42805946D01*
X50002487Y42695619D01*
X50142070Y42607177D01*
X50149125Y42603304D01*
X50287495Y42537701D01*
X50439960Y42482154D01*
X50596915Y42439290D01*
X50748756Y42411739D01*
X50884440Y42402125D01*
X50987705Y42402125D01*
X51513622Y42053849D01*
X51628969Y41977203D01*
X51735737Y41905757D01*
X51831082Y41841450D01*
X51912160Y41786224D01*
X51976128Y41742018D01*
X52020142Y41710775D01*
X52041359Y41694433D01*
X52042863Y41692693D01*
X52030250Y41681887D01*
X51992405Y41664895D01*
X51934841Y41643455D01*
X51863071Y41619305D01*
X51782608Y41594182D01*
X51698966Y41569824D01*
X51617658Y41547968D01*
X51544196Y41530351D01*
X51498500Y41521133D01*
X51418149Y41510128D01*
X51315527Y41501032D01*
X51198383Y41494062D01*
X51074468Y41489430D01*
X50951534Y41487353D01*
X50837331Y41488046D01*
X50739611Y41491723D01*
X50669334Y41498143D01*
X50462319Y41533822D01*
X50268226Y41583012D01*
X50076984Y41648877D01*
X49878523Y41734580D01*
X49807812Y41768701D01*
X49547078Y41914419D01*
X49308227Y42083051D01*
X49091644Y42274213D01*
X48897714Y42487525D01*
X48726821Y42722604D01*
X48579349Y42979070D01*
X48570101Y42997438D01*
X48450457Y43268986D01*
X48362353Y43541367D01*
X48305581Y43815528D01*
X48279931Y44092419D01*
X48281211Y44307125D01*
X48310320Y44603436D01*
X48368709Y44887483D01*
X48456394Y45159301D01*
X48573389Y45418923D01*
X48719709Y45666380D01*
X48895368Y45901707D01*
X49073895Y46098448D01*
X49290702Y46295418D01*
X49526729Y46467792D01*
X49779716Y46614355D01*
X50047404Y46733893D01*
X50327533Y46825191D01*
X50502627Y46866311D01*
X50610673Y46882925D01*
X50741179Y46894852D01*
X50885732Y46902015D01*
X51035916Y46904337D01*
X51183318Y46901742D01*
G36*
X42739468Y46883469D02*
G01*
X42755205Y46869255D01*
X42793229Y46835008D01*
X42852213Y46781920D01*
X42930832Y46711183D01*
X43027760Y46623990D01*
X43141671Y46521534D01*
X43271239Y46405006D01*
X43415138Y46275599D01*
X43572044Y46134505D01*
X43740628Y45982917D01*
X43919567Y45822027D01*
X44107534Y45653027D01*
X44303203Y45477109D01*
X44505249Y45295467D01*
X44545250Y45259506D01*
X46315312Y43668235D01*
X46319356Y45289430D01*
X46323399Y46910625D01*
X47228125Y46910625D01*
X47228125Y44196000D01*
X47228102Y43905003D01*
X47228035Y43622688D01*
X47227926Y43350683D01*
X47227779Y43090611D01*
X47227594Y42844098D01*
X47227375Y42612768D01*
X47227123Y42398248D01*
X47226842Y42202162D01*
X47226533Y42026135D01*
X47226200Y41871792D01*
X47225843Y41740759D01*
X47225467Y41634660D01*
X47225072Y41555121D01*
X47224662Y41503766D01*
X47224239Y41482221D01*
X47224156Y41481632D01*
X47212112Y41492086D01*
X47177719Y41522637D01*
X47122238Y41572154D01*
X47046929Y41639506D01*
X46953053Y41723561D01*
X46841871Y41823190D01*
X46714644Y41937261D01*
X46572634Y42064642D01*
X46417100Y42204204D01*
X46249304Y42354816D01*
X46070506Y42515345D01*
X45881969Y42684663D01*
X45684951Y42861636D01*
X45480716Y43045135D01*
X45354875Y43158220D01*
X45139442Y43351817D01*
X44925938Y43543666D01*
X44715996Y43732297D01*
X44511253Y43916242D01*
X44313344Y44094031D01*
X44123906Y44264195D01*
X43944572Y44425266D01*
X43776979Y44575776D01*
X43622763Y44714253D01*
X43483559Y44839231D01*
X43361003Y44949240D01*
X43256730Y45042812D01*
X43172375Y45118476D01*
X43109575Y45174765D01*
X43097035Y45185995D01*
X42704509Y45537438D01*
X42704129Y46226799D01*
X42703750Y46916159D01*
X42739468Y46883469D01*
G37*
X42739468Y46883469D02*
X42755205Y46869255D01*
X42793229Y46835008D01*
X42852213Y46781920D01*
X42930832Y46711183D01*
X43027760Y46623990D01*
X43141671Y46521534D01*
X43271239Y46405006D01*
X43415138Y46275599D01*
X43572044Y46134505D01*
X43740628Y45982917D01*
X43919567Y45822027D01*
X44107534Y45653027D01*
X44303203Y45477109D01*
X44505249Y45295467D01*
X44545250Y45259506D01*
X46315312Y43668235D01*
X46319356Y45289430D01*
X46323399Y46910625D01*
X47228125Y46910625D01*
X47228125Y44196000D01*
X47228102Y43905003D01*
X47228035Y43622688D01*
X47227926Y43350683D01*
X47227779Y43090611D01*
X47227594Y42844098D01*
X47227375Y42612768D01*
X47227123Y42398248D01*
X47226842Y42202162D01*
X47226533Y42026135D01*
X47226200Y41871792D01*
X47225843Y41740759D01*
X47225467Y41634660D01*
X47225072Y41555121D01*
X47224662Y41503766D01*
X47224239Y41482221D01*
X47224156Y41481632D01*
X47212112Y41492086D01*
X47177719Y41522637D01*
X47122238Y41572154D01*
X47046929Y41639506D01*
X46953053Y41723561D01*
X46841871Y41823190D01*
X46714644Y41937261D01*
X46572634Y42064642D01*
X46417100Y42204204D01*
X46249304Y42354816D01*
X46070506Y42515345D01*
X45881969Y42684663D01*
X45684951Y42861636D01*
X45480716Y43045135D01*
X45354875Y43158220D01*
X45139442Y43351817D01*
X44925938Y43543666D01*
X44715996Y43732297D01*
X44511253Y43916242D01*
X44313344Y44094031D01*
X44123906Y44264195D01*
X43944572Y44425266D01*
X43776979Y44575776D01*
X43622763Y44714253D01*
X43483559Y44839231D01*
X43361003Y44949240D01*
X43256730Y45042812D01*
X43172375Y45118476D01*
X43109575Y45174765D01*
X43097035Y45185995D01*
X42704509Y45537438D01*
X42704129Y46226799D01*
X42703750Y46916159D01*
X42739468Y46883469D01*
G36*
X44430321Y41944220D02*
G01*
X44485940Y41835140D01*
X44536592Y41735185D01*
X44580536Y41647839D01*
X44616031Y41576588D01*
X44641334Y41524917D01*
X44654706Y41496310D01*
X44656375Y41491783D01*
X44641128Y41489246D01*
X44597904Y41486933D01*
X44530472Y41484921D01*
X44442605Y41483288D01*
X44338074Y41482112D01*
X44220649Y41481472D01*
X44152214Y41481375D01*
X43648053Y41481375D01*
X43422000Y41933813D01*
X43195947Y42386250D01*
X44204267Y42386250D01*
X44430321Y41944220D01*
G37*
X44430321Y41944220D02*
X44485940Y41835140D01*
X44536592Y41735185D01*
X44580536Y41647839D01*
X44616031Y41576588D01*
X44641334Y41524917D01*
X44654706Y41496310D01*
X44656375Y41491783D01*
X44641128Y41489246D01*
X44597904Y41486933D01*
X44530472Y41484921D01*
X44442605Y41483288D01*
X44338074Y41482112D01*
X44220649Y41481472D01*
X44152214Y41481375D01*
X43648053Y41481375D01*
X43422000Y41933813D01*
X43195947Y42386250D01*
X44204267Y42386250D01*
X44430321Y41944220D01*
G36*
X42847731Y45116727D02*
G01*
X42959783Y44892823D01*
X43067840Y44676748D01*
X43171055Y44470205D01*
X43268581Y44274894D01*
X43359570Y44092517D01*
X43443177Y43924775D01*
X43518554Y43773369D01*
X43584855Y43640000D01*
X43641232Y43526369D01*
X43686838Y43434177D01*
X43720827Y43365126D01*
X43742353Y43320917D01*
X43750567Y43303251D01*
X43750624Y43303032D01*
X43735594Y43300141D01*
X43692562Y43297503D01*
X43625278Y43295207D01*
X43537489Y43293340D01*
X43432944Y43291990D01*
X43315391Y43291245D01*
X43243478Y43291125D01*
X42735457Y43291125D01*
X42342647Y44076938D01*
X42269281Y44223418D01*
X42200088Y44361012D01*
X42136372Y44487163D01*
X42079440Y44599312D01*
X42030596Y44694902D01*
X41991144Y44771376D01*
X41962391Y44826176D01*
X41945642Y44856744D01*
X41941824Y44862410D01*
X41933822Y44848460D01*
X41912491Y44807861D01*
X41878711Y44742354D01*
X41833365Y44653682D01*
X41777335Y44543588D01*
X41711503Y44413812D01*
X41636751Y44266098D01*
X41553960Y44102187D01*
X41464013Y43923822D01*
X41367792Y43732745D01*
X41266178Y43530698D01*
X41160053Y43319422D01*
X41085937Y43171722D01*
X40238063Y41481375D01*
X39227106Y41481375D01*
X40586410Y44199946D01*
X41945714Y46918516D01*
X42847731Y45116727D01*
G37*
X42847731Y45116727D02*
X42959783Y44892823D01*
X43067840Y44676748D01*
X43171055Y44470205D01*
X43268581Y44274894D01*
X43359570Y44092517D01*
X43443177Y43924775D01*
X43518554Y43773369D01*
X43584855Y43640000D01*
X43641232Y43526369D01*
X43686838Y43434177D01*
X43720827Y43365126D01*
X43742353Y43320917D01*
X43750567Y43303251D01*
X43750624Y43303032D01*
X43735594Y43300141D01*
X43692562Y43297503D01*
X43625278Y43295207D01*
X43537489Y43293340D01*
X43432944Y43291990D01*
X43315391Y43291245D01*
X43243478Y43291125D01*
X42735457Y43291125D01*
X42342647Y44076938D01*
X42269281Y44223418D01*
X42200088Y44361012D01*
X42136372Y44487163D01*
X42079440Y44599312D01*
X42030596Y44694902D01*
X41991144Y44771376D01*
X41962391Y44826176D01*
X41945642Y44856744D01*
X41941824Y44862410D01*
X41933822Y44848460D01*
X41912491Y44807861D01*
X41878711Y44742354D01*
X41833365Y44653682D01*
X41777335Y44543588D01*
X41711503Y44413812D01*
X41636751Y44266098D01*
X41553960Y44102187D01*
X41464013Y43923822D01*
X41367792Y43732745D01*
X41266178Y43530698D01*
X41160053Y43319422D01*
X41085937Y43171722D01*
X40238063Y41481375D01*
X39227106Y41481375D01*
X40586410Y44199946D01*
X41945714Y46918516D01*
X42847731Y45116727D01*
G36*
X38322250Y41481375D02*
G01*
X34700119Y41481375D01*
X35141966Y41933538D01*
X35583812Y42385700D01*
X38322250Y42386250D01*
X38322250Y41481375D01*
G37*
X38322250Y41481375D02*
X34700119Y41481375D01*
X35141966Y41933538D01*
X35583812Y42385700D01*
X38322250Y42386250D01*
X38322250Y41481375D01*
G36*
X30837291Y46910562D02*
G01*
X31097399Y46910525D01*
X31327908Y46910367D01*
X31530968Y46909981D01*
X31708730Y46909259D01*
X31863346Y46908093D01*
X31996965Y46906375D01*
X32111740Y46903999D01*
X32209820Y46900856D01*
X32293356Y46896840D01*
X32364500Y46891841D01*
X32425401Y46885753D01*
X32478211Y46878469D01*
X32525081Y46869880D01*
X32568162Y46859879D01*
X32609603Y46848358D01*
X32651557Y46835211D01*
X32696173Y46820328D01*
X32705716Y46817096D01*
X32913999Y46730185D01*
X33110309Y46616043D01*
X33291772Y46477668D01*
X33455511Y46318059D01*
X33598652Y46140214D01*
X33718320Y45947132D01*
X33811637Y45741811D01*
X33851354Y45622466D01*
X33902202Y45393642D01*
X33924357Y45160746D01*
X33918171Y44928007D01*
X33883995Y44699651D01*
X33822183Y44479907D01*
X33740095Y44286761D01*
X33624638Y44091222D01*
X33483567Y43909794D01*
X33320646Y43745771D01*
X33139636Y43602447D01*
X32944302Y43483116D01*
X32738406Y43391071D01*
X32702035Y43378173D01*
X32651847Y43361436D01*
X32604695Y43346990D01*
X32557890Y43334668D01*
X32508744Y43324300D01*
X32454569Y43315719D01*
X32392677Y43308757D01*
X32320378Y43303245D01*
X32234985Y43299014D01*
X32133810Y43295897D01*
X32014163Y43293725D01*
X31873357Y43292331D01*
X31708703Y43291545D01*
X31517513Y43291199D01*
X31311358Y43291125D01*
X30305375Y43291125D01*
X30305375Y41481375D01*
X29400500Y41481375D01*
X29400500Y44195038D01*
X32281812Y44203938D01*
X32386145Y44239422D01*
X32534280Y44305991D01*
X32671578Y44399673D01*
X32792810Y44516332D01*
X32878388Y44629026D01*
X32952764Y44771771D01*
X32998522Y44924644D01*
X33015458Y45083604D01*
X33003368Y45244607D01*
X32962045Y45403611D01*
X32922466Y45497750D01*
X32872925Y45578971D01*
X32803011Y45666190D01*
X32720575Y45751541D01*
X32633469Y45827158D01*
X32549545Y45885171D01*
X32519937Y45901054D01*
X32481489Y45919672D01*
X32447006Y45935661D01*
X32413830Y45949238D01*
X32379303Y45960618D01*
X32340768Y45970016D01*
X32295567Y45977648D01*
X32241043Y45983730D01*
X32174538Y45988478D01*
X32093394Y45992106D01*
X31994953Y45994831D01*
X31876559Y45996869D01*
X31735552Y45998434D01*
X31569277Y45999742D01*
X31375074Y46001010D01*
X31280521Y46001608D01*
X30295105Y46007874D01*
X29843938Y46459250D01*
X29392772Y46910625D01*
X30837291Y46910562D01*
G37*
X30837291Y46910562D02*
X31097399Y46910525D01*
X31327908Y46910367D01*
X31530968Y46909981D01*
X31708730Y46909259D01*
X31863346Y46908093D01*
X31996965Y46906375D01*
X32111740Y46903999D01*
X32209820Y46900856D01*
X32293356Y46896840D01*
X32364500Y46891841D01*
X32425401Y46885753D01*
X32478211Y46878469D01*
X32525081Y46869880D01*
X32568162Y46859879D01*
X32609603Y46848358D01*
X32651557Y46835211D01*
X32696173Y46820328D01*
X32705716Y46817096D01*
X32913999Y46730185D01*
X33110309Y46616043D01*
X33291772Y46477668D01*
X33455511Y46318059D01*
X33598652Y46140214D01*
X33718320Y45947132D01*
X33811637Y45741811D01*
X33851354Y45622466D01*
X33902202Y45393642D01*
X33924357Y45160746D01*
X33918171Y44928007D01*
X33883995Y44699651D01*
X33822183Y44479907D01*
X33740095Y44286761D01*
X33624638Y44091222D01*
X33483567Y43909794D01*
X33320646Y43745771D01*
X33139636Y43602447D01*
X32944302Y43483116D01*
X32738406Y43391071D01*
X32702035Y43378173D01*
X32651847Y43361436D01*
X32604695Y43346990D01*
X32557890Y43334668D01*
X32508744Y43324300D01*
X32454569Y43315719D01*
X32392677Y43308757D01*
X32320378Y43303245D01*
X32234985Y43299014D01*
X32133810Y43295897D01*
X32014163Y43293725D01*
X31873357Y43292331D01*
X31708703Y43291545D01*
X31517513Y43291199D01*
X31311358Y43291125D01*
X30305375Y43291125D01*
X30305375Y41481375D01*
X29400500Y41481375D01*
X29400500Y44195038D01*
X32281812Y44203938D01*
X32386145Y44239422D01*
X32534280Y44305991D01*
X32671578Y44399673D01*
X32792810Y44516332D01*
X32878388Y44629026D01*
X32952764Y44771771D01*
X32998522Y44924644D01*
X33015458Y45083604D01*
X33003368Y45244607D01*
X32962045Y45403611D01*
X32922466Y45497750D01*
X32872925Y45578971D01*
X32803011Y45666190D01*
X32720575Y45751541D01*
X32633469Y45827158D01*
X32549545Y45885171D01*
X32519937Y45901054D01*
X32481489Y45919672D01*
X32447006Y45935661D01*
X32413830Y45949238D01*
X32379303Y45960618D01*
X32340768Y45970016D01*
X32295567Y45977648D01*
X32241043Y45983730D01*
X32174538Y45988478D01*
X32093394Y45992106D01*
X31994953Y45994831D01*
X31876559Y45996869D01*
X31735552Y45998434D01*
X31569277Y45999742D01*
X31375074Y46001010D01*
X31280521Y46001608D01*
X30295105Y46007874D01*
X29843938Y46459250D01*
X29392772Y46910625D01*
X30837291Y46910562D01*
D13*
%TO.C,J2*%
X42418000Y49784000D02*
X42418000Y51054000D01*
X43688000Y49784000D02*
X42418000Y49784000D01*
X56768000Y52096929D02*
X56768000Y52551071D01*
X56008000Y52096929D02*
X56008000Y52551071D01*
X56768000Y54636929D02*
X56768000Y55034000D01*
X56008000Y54636929D02*
X56008000Y55034000D01*
X56768000Y63694000D02*
X56768000Y57694000D01*
X56008000Y63694000D02*
X56768000Y63694000D01*
X56008000Y57694000D02*
X56008000Y63694000D01*
X55118000Y55034000D02*
X55118000Y57694000D01*
X54228000Y52096929D02*
X54228000Y52551071D01*
X53468000Y52096929D02*
X53468000Y52551071D01*
X54228000Y54636929D02*
X54228000Y55034000D01*
X53468000Y54636929D02*
X53468000Y55034000D01*
X54228000Y63694000D02*
X54228000Y57694000D01*
X53468000Y63694000D02*
X54228000Y63694000D01*
X53468000Y57694000D02*
X53468000Y63694000D01*
X52578000Y55034000D02*
X52578000Y57694000D01*
X51688000Y52096929D02*
X51688000Y52551071D01*
X50928000Y52096929D02*
X50928000Y52551071D01*
X51688000Y54636929D02*
X51688000Y55034000D01*
X50928000Y54636929D02*
X50928000Y55034000D01*
X51688000Y63694000D02*
X51688000Y57694000D01*
X50928000Y63694000D02*
X51688000Y63694000D01*
X50928000Y57694000D02*
X50928000Y63694000D01*
X50038000Y55034000D02*
X50038000Y57694000D01*
X49148000Y52096929D02*
X49148000Y52551071D01*
X48388000Y52096929D02*
X48388000Y52551071D01*
X49148000Y54636929D02*
X49148000Y55034000D01*
X48388000Y54636929D02*
X48388000Y55034000D01*
X49148000Y63694000D02*
X49148000Y57694000D01*
X48388000Y63694000D02*
X49148000Y63694000D01*
X48388000Y57694000D02*
X48388000Y63694000D01*
X47498000Y55034000D02*
X47498000Y57694000D01*
X46608000Y52096929D02*
X46608000Y52551071D01*
X45848000Y52096929D02*
X45848000Y52551071D01*
X46608000Y54636929D02*
X46608000Y55034000D01*
X45848000Y54636929D02*
X45848000Y55034000D01*
X46608000Y63694000D02*
X46608000Y57694000D01*
X45848000Y63694000D02*
X46608000Y63694000D01*
X45848000Y57694000D02*
X45848000Y63694000D01*
X44958000Y55034000D02*
X44958000Y57694000D01*
X44068000Y52164000D02*
X44068000Y52551071D01*
X43308000Y52164000D02*
X43308000Y52551071D01*
X44068000Y54636929D02*
X44068000Y55034000D01*
X43308000Y54636929D02*
X43308000Y55034000D01*
X43968000Y57694000D02*
X43968000Y63694000D01*
X43848000Y57694000D02*
X43848000Y63694000D01*
X43728000Y57694000D02*
X43728000Y63694000D01*
X43608000Y57694000D02*
X43608000Y63694000D01*
X43488000Y57694000D02*
X43488000Y63694000D01*
X43368000Y57694000D02*
X43368000Y63694000D01*
X44068000Y63694000D02*
X44068000Y57694000D01*
X43308000Y63694000D02*
X44068000Y63694000D01*
X43308000Y57694000D02*
X43308000Y63694000D01*
X42358000Y57694000D02*
X42358000Y55034000D01*
X57718000Y57694000D02*
X42358000Y57694000D01*
X57718000Y55034000D02*
X57718000Y57694000D01*
X42358000Y55034000D02*
X57718000Y55034000D01*
%TO.C,R12*%
X8732000Y45354000D02*
X8732000Y41514000D01*
X10572000Y45354000D02*
X10572000Y41514000D01*
%TO.C,R11*%
X11272000Y45354000D02*
X11272000Y41514000D01*
X13112000Y45354000D02*
X13112000Y41514000D01*
%TO.C,R10*%
X13812000Y45354000D02*
X13812000Y41514000D01*
X15652000Y45354000D02*
X15652000Y41514000D01*
%TO.C,R9*%
X16352000Y45354000D02*
X16352000Y41514000D01*
X18192000Y45354000D02*
X18192000Y41514000D01*
%TO.C,R8*%
X18892000Y45354000D02*
X18892000Y41514000D01*
X20732000Y45354000D02*
X20732000Y41514000D01*
%TO.C,R7*%
X23272000Y45354000D02*
X23272000Y41514000D01*
X21432000Y45354000D02*
X21432000Y41514000D01*
%TO.C,R6*%
X25812000Y45354000D02*
X25812000Y41514000D01*
X23972000Y45354000D02*
X23972000Y41514000D01*
%TO.C,R5*%
X28352000Y45354000D02*
X28352000Y41514000D01*
X26512000Y45354000D02*
X26512000Y41514000D01*
%TO.C,R4*%
X58008000Y29860000D02*
X58008000Y26020000D01*
X59848000Y29860000D02*
X59848000Y26020000D01*
%TO.C,R3*%
X5700000Y16606000D02*
X9540000Y16606000D01*
X5700000Y18446000D02*
X9540000Y18446000D01*
%TO.C,R2*%
X65182000Y45070000D02*
X65182000Y48910000D01*
X63342000Y45070000D02*
X63342000Y48910000D01*
%TO.C,R1*%
X58070000Y43546000D02*
X58070000Y47386000D01*
X56230000Y43546000D02*
X56230000Y47386000D01*
%TO.C,C4*%
X7256000Y38061000D02*
X7256000Y37746000D01*
X7256000Y40486000D02*
X7256000Y40171000D01*
X2316000Y38061000D02*
X2316000Y37746000D01*
X2316000Y40486000D02*
X2316000Y40171000D01*
X2316000Y37746000D02*
X7256000Y37746000D01*
X2316000Y40486000D02*
X7256000Y40486000D01*
%TO.C,C3*%
X62953000Y51672000D02*
X62638000Y51672000D01*
X65378000Y51672000D02*
X65063000Y51672000D01*
X62953000Y56612000D02*
X62638000Y56612000D01*
X65378000Y56612000D02*
X65063000Y56612000D01*
X62638000Y56612000D02*
X62638000Y51672000D01*
X65378000Y56612000D02*
X65378000Y51672000D01*
%TO.C,C2*%
X78376000Y38823000D02*
X78376000Y38508000D01*
X78376000Y41248000D02*
X78376000Y40933000D01*
X73436000Y38823000D02*
X73436000Y38508000D01*
X73436000Y41248000D02*
X73436000Y40933000D01*
X73436000Y38508000D02*
X78376000Y38508000D01*
X73436000Y41248000D02*
X78376000Y41248000D01*
%TO.C,C1*%
X56752000Y40933000D02*
X56752000Y41248000D01*
X56752000Y38508000D02*
X56752000Y38823000D01*
X61692000Y40933000D02*
X61692000Y41248000D01*
X61692000Y38508000D02*
X61692000Y38823000D01*
X61692000Y41248000D02*
X56752000Y41248000D01*
X61692000Y38508000D02*
X56752000Y38508000D01*
%TO.C,U1*%
X64639500Y37966000D02*
X54359500Y37966000D01*
X64639500Y17406000D02*
X64639500Y37966000D01*
X54359500Y17406000D02*
X64639500Y17406000D01*
X54359500Y37966000D02*
X54359500Y17406000D01*
X62149500Y37906000D02*
X60499500Y37906000D01*
X62149500Y17466000D02*
X62149500Y37906000D01*
X56849500Y17466000D02*
X62149500Y17466000D01*
X56849500Y37906000D02*
X56849500Y17466000D01*
X58499500Y37906000D02*
X56849500Y37906000D01*
X60499500Y37906000D02*
G75*
G02*
X58499500Y37906000I-1000000J0D01*
G01*
%TO.C,U3*%
X62817500Y59623000D02*
X61167500Y59623000D01*
X61167500Y59623000D02*
X61167500Y41723000D01*
X61167500Y41723000D02*
X66467500Y41723000D01*
X66467500Y41723000D02*
X66467500Y59623000D01*
X66467500Y59623000D02*
X64817500Y59623000D01*
X58677500Y59683000D02*
X58677500Y41663000D01*
X58677500Y41663000D02*
X68957500Y41663000D01*
X68957500Y41663000D02*
X68957500Y59683000D01*
X68957500Y59683000D02*
X58677500Y59683000D01*
X64817500Y59623000D02*
G75*
G02*
X62817500Y59623000I-1000000J0D01*
G01*
%TO.C,U2*%
X52190000Y18990000D02*
X52190000Y36890000D01*
X1150000Y18990000D02*
X52190000Y18990000D01*
X1150000Y36890000D02*
X1150000Y18990000D01*
X52190000Y36890000D02*
X1150000Y36890000D01*
X52130000Y21480000D02*
X52130000Y26940000D01*
X1210000Y21480000D02*
X52130000Y21480000D01*
X1210000Y34400000D02*
X1210000Y21480000D01*
X52130000Y34400000D02*
X1210000Y34400000D01*
X52130000Y28940000D02*
X52130000Y34400000D01*
X52130000Y26940000D02*
G75*
G02*
X52130000Y28940000I0J1000000D01*
G01*
%TO.C,J4*%
X67564000Y37846000D02*
X68834000Y37846000D01*
X67564000Y36576000D02*
X67564000Y37846000D01*
X69876929Y13336000D02*
X70331071Y13336000D01*
X69876929Y14096000D02*
X70331071Y14096000D01*
X72416929Y13336000D02*
X72814000Y13336000D01*
X72416929Y14096000D02*
X72814000Y14096000D01*
X81474000Y13336000D02*
X75474000Y13336000D01*
X81474000Y14096000D02*
X81474000Y13336000D01*
X75474000Y14096000D02*
X81474000Y14096000D01*
X72814000Y14986000D02*
X75474000Y14986000D01*
X69876929Y15876000D02*
X70331071Y15876000D01*
X69876929Y16636000D02*
X70331071Y16636000D01*
X72416929Y15876000D02*
X72814000Y15876000D01*
X72416929Y16636000D02*
X72814000Y16636000D01*
X81474000Y15876000D02*
X75474000Y15876000D01*
X81474000Y16636000D02*
X81474000Y15876000D01*
X75474000Y16636000D02*
X81474000Y16636000D01*
X72814000Y17526000D02*
X75474000Y17526000D01*
X69876929Y18416000D02*
X70331071Y18416000D01*
X69876929Y19176000D02*
X70331071Y19176000D01*
X72416929Y18416000D02*
X72814000Y18416000D01*
X72416929Y19176000D02*
X72814000Y19176000D01*
X81474000Y18416000D02*
X75474000Y18416000D01*
X81474000Y19176000D02*
X81474000Y18416000D01*
X75474000Y19176000D02*
X81474000Y19176000D01*
X72814000Y20066000D02*
X75474000Y20066000D01*
X69876929Y20956000D02*
X70331071Y20956000D01*
X69876929Y21716000D02*
X70331071Y21716000D01*
X72416929Y20956000D02*
X72814000Y20956000D01*
X72416929Y21716000D02*
X72814000Y21716000D01*
X81474000Y20956000D02*
X75474000Y20956000D01*
X81474000Y21716000D02*
X81474000Y20956000D01*
X75474000Y21716000D02*
X81474000Y21716000D01*
X72814000Y22606000D02*
X75474000Y22606000D01*
X69876929Y23496000D02*
X70331071Y23496000D01*
X69876929Y24256000D02*
X70331071Y24256000D01*
X72416929Y23496000D02*
X72814000Y23496000D01*
X72416929Y24256000D02*
X72814000Y24256000D01*
X81474000Y23496000D02*
X75474000Y23496000D01*
X81474000Y24256000D02*
X81474000Y23496000D01*
X75474000Y24256000D02*
X81474000Y24256000D01*
X72814000Y25146000D02*
X75474000Y25146000D01*
X69876929Y26036000D02*
X70331071Y26036000D01*
X69876929Y26796000D02*
X70331071Y26796000D01*
X72416929Y26036000D02*
X72814000Y26036000D01*
X72416929Y26796000D02*
X72814000Y26796000D01*
X81474000Y26036000D02*
X75474000Y26036000D01*
X81474000Y26796000D02*
X81474000Y26036000D01*
X75474000Y26796000D02*
X81474000Y26796000D01*
X72814000Y27686000D02*
X75474000Y27686000D01*
X69876929Y28576000D02*
X70331071Y28576000D01*
X69876929Y29336000D02*
X70331071Y29336000D01*
X72416929Y28576000D02*
X72814000Y28576000D01*
X72416929Y29336000D02*
X72814000Y29336000D01*
X81474000Y28576000D02*
X75474000Y28576000D01*
X81474000Y29336000D02*
X81474000Y28576000D01*
X75474000Y29336000D02*
X81474000Y29336000D01*
X72814000Y30226000D02*
X75474000Y30226000D01*
X69876929Y31116000D02*
X70331071Y31116000D01*
X69876929Y31876000D02*
X70331071Y31876000D01*
X72416929Y31116000D02*
X72814000Y31116000D01*
X72416929Y31876000D02*
X72814000Y31876000D01*
X81474000Y31116000D02*
X75474000Y31116000D01*
X81474000Y31876000D02*
X81474000Y31116000D01*
X75474000Y31876000D02*
X81474000Y31876000D01*
X72814000Y32766000D02*
X75474000Y32766000D01*
X69876929Y33656000D02*
X70331071Y33656000D01*
X69876929Y34416000D02*
X70331071Y34416000D01*
X72416929Y33656000D02*
X72814000Y33656000D01*
X72416929Y34416000D02*
X72814000Y34416000D01*
X81474000Y33656000D02*
X75474000Y33656000D01*
X81474000Y34416000D02*
X81474000Y33656000D01*
X75474000Y34416000D02*
X81474000Y34416000D01*
X72814000Y35306000D02*
X75474000Y35306000D01*
X69944000Y36196000D02*
X70331071Y36196000D01*
X69944000Y36956000D02*
X70331071Y36956000D01*
X72416929Y36196000D02*
X72814000Y36196000D01*
X72416929Y36956000D02*
X72814000Y36956000D01*
X75474000Y36296000D02*
X81474000Y36296000D01*
X75474000Y36416000D02*
X81474000Y36416000D01*
X75474000Y36536000D02*
X81474000Y36536000D01*
X75474000Y36656000D02*
X81474000Y36656000D01*
X75474000Y36776000D02*
X81474000Y36776000D01*
X75474000Y36896000D02*
X81474000Y36896000D01*
X81474000Y36196000D02*
X75474000Y36196000D01*
X81474000Y36956000D02*
X81474000Y36196000D01*
X75474000Y36956000D02*
X81474000Y36956000D01*
X75474000Y37906000D02*
X72814000Y37906000D01*
X75474000Y12386000D02*
X75474000Y37906000D01*
X72814000Y12386000D02*
X75474000Y12386000D01*
X72814000Y37906000D02*
X72814000Y12386000D01*
D10*
%TO.C,J3*%
X80050000Y59600000D02*
X80050000Y42000000D01*
X80050000Y42000000D02*
X69550000Y42000000D01*
X69550000Y42000000D02*
X69550000Y59600000D01*
X69550000Y59600000D02*
X80050000Y59600000D01*
D13*
%TO.C,J1*%
X79562000Y2624000D02*
X15942000Y2624000D01*
X15942000Y2624000D02*
X15942000Y-36000D01*
X15942000Y-36000D02*
X79562000Y-36000D01*
X79562000Y-36000D02*
X79562000Y2624000D01*
X78612000Y-36000D02*
X78612000Y-6036000D01*
X78612000Y-6036000D02*
X77852000Y-6036000D01*
X77852000Y-6036000D02*
X77852000Y-36000D01*
X78552000Y-36000D02*
X78552000Y-6036000D01*
X78432000Y-36000D02*
X78432000Y-6036000D01*
X78312000Y-36000D02*
X78312000Y-6036000D01*
X78192000Y-36000D02*
X78192000Y-6036000D01*
X78072000Y-36000D02*
X78072000Y-6036000D01*
X77952000Y-36000D02*
X77952000Y-6036000D01*
X78612000Y3021071D02*
X78612000Y2624000D01*
X77852000Y3021071D02*
X77852000Y2624000D01*
X78612000Y5494000D02*
X78612000Y5106929D01*
X77852000Y5494000D02*
X77852000Y5106929D01*
X76962000Y2624000D02*
X76962000Y-36000D01*
X76072000Y-36000D02*
X76072000Y-6036000D01*
X76072000Y-6036000D02*
X75312000Y-6036000D01*
X75312000Y-6036000D02*
X75312000Y-36000D01*
X76072000Y3021071D02*
X76072000Y2624000D01*
X75312000Y3021071D02*
X75312000Y2624000D01*
X76072000Y5561071D02*
X76072000Y5106929D01*
X75312000Y5561071D02*
X75312000Y5106929D01*
X74422000Y2624000D02*
X74422000Y-36000D01*
X73532000Y-36000D02*
X73532000Y-6036000D01*
X73532000Y-6036000D02*
X72772000Y-6036000D01*
X72772000Y-6036000D02*
X72772000Y-36000D01*
X73532000Y3021071D02*
X73532000Y2624000D01*
X72772000Y3021071D02*
X72772000Y2624000D01*
X73532000Y5561071D02*
X73532000Y5106929D01*
X72772000Y5561071D02*
X72772000Y5106929D01*
X71882000Y2624000D02*
X71882000Y-36000D01*
X70992000Y-36000D02*
X70992000Y-6036000D01*
X70992000Y-6036000D02*
X70232000Y-6036000D01*
X70232000Y-6036000D02*
X70232000Y-36000D01*
X70992000Y3021071D02*
X70992000Y2624000D01*
X70232000Y3021071D02*
X70232000Y2624000D01*
X70992000Y5561071D02*
X70992000Y5106929D01*
X70232000Y5561071D02*
X70232000Y5106929D01*
X69342000Y2624000D02*
X69342000Y-36000D01*
X68452000Y-36000D02*
X68452000Y-6036000D01*
X68452000Y-6036000D02*
X67692000Y-6036000D01*
X67692000Y-6036000D02*
X67692000Y-36000D01*
X68452000Y3021071D02*
X68452000Y2624000D01*
X67692000Y3021071D02*
X67692000Y2624000D01*
X68452000Y5561071D02*
X68452000Y5106929D01*
X67692000Y5561071D02*
X67692000Y5106929D01*
X66802000Y2624000D02*
X66802000Y-36000D01*
X65912000Y-36000D02*
X65912000Y-6036000D01*
X65912000Y-6036000D02*
X65152000Y-6036000D01*
X65152000Y-6036000D02*
X65152000Y-36000D01*
X65912000Y3021071D02*
X65912000Y2624000D01*
X65152000Y3021071D02*
X65152000Y2624000D01*
X65912000Y5561071D02*
X65912000Y5106929D01*
X65152000Y5561071D02*
X65152000Y5106929D01*
X64262000Y2624000D02*
X64262000Y-36000D01*
X63372000Y-36000D02*
X63372000Y-6036000D01*
X63372000Y-6036000D02*
X62612000Y-6036000D01*
X62612000Y-6036000D02*
X62612000Y-36000D01*
X63372000Y3021071D02*
X63372000Y2624000D01*
X62612000Y3021071D02*
X62612000Y2624000D01*
X63372000Y5561071D02*
X63372000Y5106929D01*
X62612000Y5561071D02*
X62612000Y5106929D01*
X61722000Y2624000D02*
X61722000Y-36000D01*
X60832000Y-36000D02*
X60832000Y-6036000D01*
X60832000Y-6036000D02*
X60072000Y-6036000D01*
X60072000Y-6036000D02*
X60072000Y-36000D01*
X60832000Y3021071D02*
X60832000Y2624000D01*
X60072000Y3021071D02*
X60072000Y2624000D01*
X60832000Y5561071D02*
X60832000Y5106929D01*
X60072000Y5561071D02*
X60072000Y5106929D01*
X59182000Y2624000D02*
X59182000Y-36000D01*
X58292000Y-36000D02*
X58292000Y-6036000D01*
X58292000Y-6036000D02*
X57532000Y-6036000D01*
X57532000Y-6036000D02*
X57532000Y-36000D01*
X58292000Y3021071D02*
X58292000Y2624000D01*
X57532000Y3021071D02*
X57532000Y2624000D01*
X58292000Y5561071D02*
X58292000Y5106929D01*
X57532000Y5561071D02*
X57532000Y5106929D01*
X56642000Y2624000D02*
X56642000Y-36000D01*
X55752000Y-36000D02*
X55752000Y-6036000D01*
X55752000Y-6036000D02*
X54992000Y-6036000D01*
X54992000Y-6036000D02*
X54992000Y-36000D01*
X55752000Y3021071D02*
X55752000Y2624000D01*
X54992000Y3021071D02*
X54992000Y2624000D01*
X55752000Y5561071D02*
X55752000Y5106929D01*
X54992000Y5561071D02*
X54992000Y5106929D01*
X54102000Y2624000D02*
X54102000Y-36000D01*
X53212000Y-36000D02*
X53212000Y-6036000D01*
X53212000Y-6036000D02*
X52452000Y-6036000D01*
X52452000Y-6036000D02*
X52452000Y-36000D01*
X53212000Y3021071D02*
X53212000Y2624000D01*
X52452000Y3021071D02*
X52452000Y2624000D01*
X53212000Y5561071D02*
X53212000Y5106929D01*
X52452000Y5561071D02*
X52452000Y5106929D01*
X51562000Y2624000D02*
X51562000Y-36000D01*
X50672000Y-36000D02*
X50672000Y-6036000D01*
X50672000Y-6036000D02*
X49912000Y-6036000D01*
X49912000Y-6036000D02*
X49912000Y-36000D01*
X50672000Y3021071D02*
X50672000Y2624000D01*
X49912000Y3021071D02*
X49912000Y2624000D01*
X50672000Y5561071D02*
X50672000Y5106929D01*
X49912000Y5561071D02*
X49912000Y5106929D01*
X49022000Y2624000D02*
X49022000Y-36000D01*
X48132000Y-36000D02*
X48132000Y-6036000D01*
X48132000Y-6036000D02*
X47372000Y-6036000D01*
X47372000Y-6036000D02*
X47372000Y-36000D01*
X48132000Y3021071D02*
X48132000Y2624000D01*
X47372000Y3021071D02*
X47372000Y2624000D01*
X48132000Y5561071D02*
X48132000Y5106929D01*
X47372000Y5561071D02*
X47372000Y5106929D01*
X46482000Y2624000D02*
X46482000Y-36000D01*
X45592000Y-36000D02*
X45592000Y-6036000D01*
X45592000Y-6036000D02*
X44832000Y-6036000D01*
X44832000Y-6036000D02*
X44832000Y-36000D01*
X45592000Y3021071D02*
X45592000Y2624000D01*
X44832000Y3021071D02*
X44832000Y2624000D01*
X45592000Y5561071D02*
X45592000Y5106929D01*
X44832000Y5561071D02*
X44832000Y5106929D01*
X43942000Y2624000D02*
X43942000Y-36000D01*
X43052000Y-36000D02*
X43052000Y-6036000D01*
X43052000Y-6036000D02*
X42292000Y-6036000D01*
X42292000Y-6036000D02*
X42292000Y-36000D01*
X43052000Y3021071D02*
X43052000Y2624000D01*
X42292000Y3021071D02*
X42292000Y2624000D01*
X43052000Y5561071D02*
X43052000Y5106929D01*
X42292000Y5561071D02*
X42292000Y5106929D01*
X41402000Y2624000D02*
X41402000Y-36000D01*
X40512000Y-36000D02*
X40512000Y-6036000D01*
X40512000Y-6036000D02*
X39752000Y-6036000D01*
X39752000Y-6036000D02*
X39752000Y-36000D01*
X40512000Y3021071D02*
X40512000Y2624000D01*
X39752000Y3021071D02*
X39752000Y2624000D01*
X40512000Y5561071D02*
X40512000Y5106929D01*
X39752000Y5561071D02*
X39752000Y5106929D01*
X38862000Y2624000D02*
X38862000Y-36000D01*
X37972000Y-36000D02*
X37972000Y-6036000D01*
X37972000Y-6036000D02*
X37212000Y-6036000D01*
X37212000Y-6036000D02*
X37212000Y-36000D01*
X37972000Y3021071D02*
X37972000Y2624000D01*
X37212000Y3021071D02*
X37212000Y2624000D01*
X37972000Y5561071D02*
X37972000Y5106929D01*
X37212000Y5561071D02*
X37212000Y5106929D01*
X36322000Y2624000D02*
X36322000Y-36000D01*
X35432000Y-36000D02*
X35432000Y-6036000D01*
X35432000Y-6036000D02*
X34672000Y-6036000D01*
X34672000Y-6036000D02*
X34672000Y-36000D01*
X35432000Y3021071D02*
X35432000Y2624000D01*
X34672000Y3021071D02*
X34672000Y2624000D01*
X35432000Y5561071D02*
X35432000Y5106929D01*
X34672000Y5561071D02*
X34672000Y5106929D01*
X33782000Y2624000D02*
X33782000Y-36000D01*
X32892000Y-36000D02*
X32892000Y-6036000D01*
X32892000Y-6036000D02*
X32132000Y-6036000D01*
X32132000Y-6036000D02*
X32132000Y-36000D01*
X32892000Y3021071D02*
X32892000Y2624000D01*
X32132000Y3021071D02*
X32132000Y2624000D01*
X32892000Y5561071D02*
X32892000Y5106929D01*
X32132000Y5561071D02*
X32132000Y5106929D01*
X31242000Y2624000D02*
X31242000Y-36000D01*
X30352000Y-36000D02*
X30352000Y-6036000D01*
X30352000Y-6036000D02*
X29592000Y-6036000D01*
X29592000Y-6036000D02*
X29592000Y-36000D01*
X30352000Y3021071D02*
X30352000Y2624000D01*
X29592000Y3021071D02*
X29592000Y2624000D01*
X30352000Y5561071D02*
X30352000Y5106929D01*
X29592000Y5561071D02*
X29592000Y5106929D01*
X28702000Y2624000D02*
X28702000Y-36000D01*
X27812000Y-36000D02*
X27812000Y-6036000D01*
X27812000Y-6036000D02*
X27052000Y-6036000D01*
X27052000Y-6036000D02*
X27052000Y-36000D01*
X27812000Y3021071D02*
X27812000Y2624000D01*
X27052000Y3021071D02*
X27052000Y2624000D01*
X27812000Y5561071D02*
X27812000Y5106929D01*
X27052000Y5561071D02*
X27052000Y5106929D01*
X26162000Y2624000D02*
X26162000Y-36000D01*
X25272000Y-36000D02*
X25272000Y-6036000D01*
X25272000Y-6036000D02*
X24512000Y-6036000D01*
X24512000Y-6036000D02*
X24512000Y-36000D01*
X25272000Y3021071D02*
X25272000Y2624000D01*
X24512000Y3021071D02*
X24512000Y2624000D01*
X25272000Y5561071D02*
X25272000Y5106929D01*
X24512000Y5561071D02*
X24512000Y5106929D01*
X23622000Y2624000D02*
X23622000Y-36000D01*
X22732000Y-36000D02*
X22732000Y-6036000D01*
X22732000Y-6036000D02*
X21972000Y-6036000D01*
X21972000Y-6036000D02*
X21972000Y-36000D01*
X22732000Y3021071D02*
X22732000Y2624000D01*
X21972000Y3021071D02*
X21972000Y2624000D01*
X22732000Y5561071D02*
X22732000Y5106929D01*
X21972000Y5561071D02*
X21972000Y5106929D01*
X21082000Y2624000D02*
X21082000Y-36000D01*
X20192000Y-36000D02*
X20192000Y-6036000D01*
X20192000Y-6036000D02*
X19432000Y-6036000D01*
X19432000Y-6036000D02*
X19432000Y-36000D01*
X20192000Y3021071D02*
X20192000Y2624000D01*
X19432000Y3021071D02*
X19432000Y2624000D01*
X20192000Y5561071D02*
X20192000Y5106929D01*
X19432000Y5561071D02*
X19432000Y5106929D01*
X18542000Y2624000D02*
X18542000Y-36000D01*
X17652000Y-36000D02*
X17652000Y-6036000D01*
X17652000Y-6036000D02*
X16892000Y-6036000D01*
X16892000Y-6036000D02*
X16892000Y-36000D01*
X17652000Y3021071D02*
X17652000Y2624000D01*
X16892000Y3021071D02*
X16892000Y2624000D01*
X17652000Y5561071D02*
X17652000Y5106929D01*
X16892000Y5561071D02*
X16892000Y5106929D01*
X78232000Y7874000D02*
X79502000Y7874000D01*
X79502000Y7874000D02*
X79502000Y6604000D01*
%TO.C,D8*%
D10*
X3071904Y56007619D02*
X3071904Y57007619D01*
X3310000Y57007619D01*
X3452857Y56960000D01*
X3548095Y56864761D01*
X3595714Y56769523D01*
X3643333Y56579047D01*
X3643333Y56436190D01*
X3595714Y56245714D01*
X3548095Y56150476D01*
X3452857Y56055238D01*
X3310000Y56007619D01*
X3071904Y56007619D01*
X4214761Y56579047D02*
X4119523Y56626666D01*
X4071904Y56674285D01*
X4024285Y56769523D01*
X4024285Y56817142D01*
X4071904Y56912380D01*
X4119523Y56960000D01*
X4214761Y57007619D01*
X4405238Y57007619D01*
X4500476Y56960000D01*
X4548095Y56912380D01*
X4595714Y56817142D01*
X4595714Y56769523D01*
X4548095Y56674285D01*
X4500476Y56626666D01*
X4405238Y56579047D01*
X4214761Y56579047D01*
X4119523Y56531428D01*
X4071904Y56483809D01*
X4024285Y56388571D01*
X4024285Y56198095D01*
X4071904Y56102857D01*
X4119523Y56055238D01*
X4214761Y56007619D01*
X4405238Y56007619D01*
X4500476Y56055238D01*
X4548095Y56102857D01*
X4595714Y56198095D01*
X4595714Y56388571D01*
X4548095Y56483809D01*
X4500476Y56531428D01*
X4405238Y56579047D01*
%TO.C,D7*%
X8151904Y56007619D02*
X8151904Y57007619D01*
X8390000Y57007619D01*
X8532857Y56960000D01*
X8628095Y56864761D01*
X8675714Y56769523D01*
X8723333Y56579047D01*
X8723333Y56436190D01*
X8675714Y56245714D01*
X8628095Y56150476D01*
X8532857Y56055238D01*
X8390000Y56007619D01*
X8151904Y56007619D01*
X9056666Y57007619D02*
X9723333Y57007619D01*
X9294761Y56007619D01*
%TO.C,D6*%
X13231904Y56007619D02*
X13231904Y57007619D01*
X13470000Y57007619D01*
X13612857Y56960000D01*
X13708095Y56864761D01*
X13755714Y56769523D01*
X13803333Y56579047D01*
X13803333Y56436190D01*
X13755714Y56245714D01*
X13708095Y56150476D01*
X13612857Y56055238D01*
X13470000Y56007619D01*
X13231904Y56007619D01*
X14660476Y57007619D02*
X14470000Y57007619D01*
X14374761Y56960000D01*
X14327142Y56912380D01*
X14231904Y56769523D01*
X14184285Y56579047D01*
X14184285Y56198095D01*
X14231904Y56102857D01*
X14279523Y56055238D01*
X14374761Y56007619D01*
X14565238Y56007619D01*
X14660476Y56055238D01*
X14708095Y56102857D01*
X14755714Y56198095D01*
X14755714Y56436190D01*
X14708095Y56531428D01*
X14660476Y56579047D01*
X14565238Y56626666D01*
X14374761Y56626666D01*
X14279523Y56579047D01*
X14231904Y56531428D01*
X14184285Y56436190D01*
%TO.C,D5*%
X18311904Y56007619D02*
X18311904Y57007619D01*
X18550000Y57007619D01*
X18692857Y56960000D01*
X18788095Y56864761D01*
X18835714Y56769523D01*
X18883333Y56579047D01*
X18883333Y56436190D01*
X18835714Y56245714D01*
X18788095Y56150476D01*
X18692857Y56055238D01*
X18550000Y56007619D01*
X18311904Y56007619D01*
X19788095Y57007619D02*
X19311904Y57007619D01*
X19264285Y56531428D01*
X19311904Y56579047D01*
X19407142Y56626666D01*
X19645238Y56626666D01*
X19740476Y56579047D01*
X19788095Y56531428D01*
X19835714Y56436190D01*
X19835714Y56198095D01*
X19788095Y56102857D01*
X19740476Y56055238D01*
X19645238Y56007619D01*
X19407142Y56007619D01*
X19311904Y56055238D01*
X19264285Y56102857D01*
%TO.C,D4*%
X23391904Y56007619D02*
X23391904Y57007619D01*
X23630000Y57007619D01*
X23772857Y56960000D01*
X23868095Y56864761D01*
X23915714Y56769523D01*
X23963333Y56579047D01*
X23963333Y56436190D01*
X23915714Y56245714D01*
X23868095Y56150476D01*
X23772857Y56055238D01*
X23630000Y56007619D01*
X23391904Y56007619D01*
X24820476Y56674285D02*
X24820476Y56007619D01*
X24582380Y57055238D02*
X24344285Y56340952D01*
X24963333Y56340952D01*
%TO.C,D3*%
X28471904Y56007619D02*
X28471904Y57007619D01*
X28710000Y57007619D01*
X28852857Y56960000D01*
X28948095Y56864761D01*
X28995714Y56769523D01*
X29043333Y56579047D01*
X29043333Y56436190D01*
X28995714Y56245714D01*
X28948095Y56150476D01*
X28852857Y56055238D01*
X28710000Y56007619D01*
X28471904Y56007619D01*
X29376666Y57007619D02*
X29995714Y57007619D01*
X29662380Y56626666D01*
X29805238Y56626666D01*
X29900476Y56579047D01*
X29948095Y56531428D01*
X29995714Y56436190D01*
X29995714Y56198095D01*
X29948095Y56102857D01*
X29900476Y56055238D01*
X29805238Y56007619D01*
X29519523Y56007619D01*
X29424285Y56055238D01*
X29376666Y56102857D01*
%TO.C,D2*%
X33551904Y56007619D02*
X33551904Y57007619D01*
X33790000Y57007619D01*
X33932857Y56960000D01*
X34028095Y56864761D01*
X34075714Y56769523D01*
X34123333Y56579047D01*
X34123333Y56436190D01*
X34075714Y56245714D01*
X34028095Y56150476D01*
X33932857Y56055238D01*
X33790000Y56007619D01*
X33551904Y56007619D01*
X34504285Y56912380D02*
X34551904Y56960000D01*
X34647142Y57007619D01*
X34885238Y57007619D01*
X34980476Y56960000D01*
X35028095Y56912380D01*
X35075714Y56817142D01*
X35075714Y56721904D01*
X35028095Y56579047D01*
X34456666Y56007619D01*
X35075714Y56007619D01*
%TO.C,D1*%
X38631904Y55935619D02*
X38631904Y56935619D01*
X38870000Y56935619D01*
X39012857Y56888000D01*
X39108095Y56792761D01*
X39155714Y56697523D01*
X39203333Y56507047D01*
X39203333Y56364190D01*
X39155714Y56173714D01*
X39108095Y56078476D01*
X39012857Y55983238D01*
X38870000Y55935619D01*
X38631904Y55935619D01*
X40155714Y55935619D02*
X39584285Y55935619D01*
X39870000Y55935619D02*
X39870000Y56935619D01*
X39774761Y56792761D01*
X39679523Y56697523D01*
X39584285Y56649904D01*
%TO.C,J2*%
X49704666Y59221619D02*
X49704666Y58507333D01*
X49657047Y58364476D01*
X49561809Y58269238D01*
X49418952Y58221619D01*
X49323714Y58221619D01*
X50133238Y59126380D02*
X50180857Y59174000D01*
X50276095Y59221619D01*
X50514190Y59221619D01*
X50609428Y59174000D01*
X50657047Y59126380D01*
X50704666Y59031142D01*
X50704666Y58935904D01*
X50657047Y58793047D01*
X50085619Y58221619D01*
X50704666Y58221619D01*
%TO.C,R12*%
X10104380Y42791142D02*
X9628190Y42457809D01*
X10104380Y42219714D02*
X9104380Y42219714D01*
X9104380Y42600666D01*
X9152000Y42695904D01*
X9199619Y42743523D01*
X9294857Y42791142D01*
X9437714Y42791142D01*
X9532952Y42743523D01*
X9580571Y42695904D01*
X9628190Y42600666D01*
X9628190Y42219714D01*
X10104380Y43743523D02*
X10104380Y43172095D01*
X10104380Y43457809D02*
X9104380Y43457809D01*
X9247238Y43362571D01*
X9342476Y43267333D01*
X9390095Y43172095D01*
X9199619Y44124476D02*
X9152000Y44172095D01*
X9104380Y44267333D01*
X9104380Y44505428D01*
X9152000Y44600666D01*
X9199619Y44648285D01*
X9294857Y44695904D01*
X9390095Y44695904D01*
X9532952Y44648285D01*
X10104380Y44076857D01*
X10104380Y44695904D01*
%TO.C,R11*%
X12644380Y42791142D02*
X12168190Y42457809D01*
X12644380Y42219714D02*
X11644380Y42219714D01*
X11644380Y42600666D01*
X11692000Y42695904D01*
X11739619Y42743523D01*
X11834857Y42791142D01*
X11977714Y42791142D01*
X12072952Y42743523D01*
X12120571Y42695904D01*
X12168190Y42600666D01*
X12168190Y42219714D01*
X12644380Y43743523D02*
X12644380Y43172095D01*
X12644380Y43457809D02*
X11644380Y43457809D01*
X11787238Y43362571D01*
X11882476Y43267333D01*
X11930095Y43172095D01*
X12644380Y44695904D02*
X12644380Y44124476D01*
X12644380Y44410190D02*
X11644380Y44410190D01*
X11787238Y44314952D01*
X11882476Y44219714D01*
X11930095Y44124476D01*
%TO.C,R10*%
X15184380Y42791142D02*
X14708190Y42457809D01*
X15184380Y42219714D02*
X14184380Y42219714D01*
X14184380Y42600666D01*
X14232000Y42695904D01*
X14279619Y42743523D01*
X14374857Y42791142D01*
X14517714Y42791142D01*
X14612952Y42743523D01*
X14660571Y42695904D01*
X14708190Y42600666D01*
X14708190Y42219714D01*
X15184380Y43743523D02*
X15184380Y43172095D01*
X15184380Y43457809D02*
X14184380Y43457809D01*
X14327238Y43362571D01*
X14422476Y43267333D01*
X14470095Y43172095D01*
X14184380Y44362571D02*
X14184380Y44457809D01*
X14232000Y44553047D01*
X14279619Y44600666D01*
X14374857Y44648285D01*
X14565333Y44695904D01*
X14803428Y44695904D01*
X14993904Y44648285D01*
X15089142Y44600666D01*
X15136761Y44553047D01*
X15184380Y44457809D01*
X15184380Y44362571D01*
X15136761Y44267333D01*
X15089142Y44219714D01*
X14993904Y44172095D01*
X14803428Y44124476D01*
X14565333Y44124476D01*
X14374857Y44172095D01*
X14279619Y44219714D01*
X14232000Y44267333D01*
X14184380Y44362571D01*
%TO.C,R9*%
X17724380Y43267333D02*
X17248190Y42934000D01*
X17724380Y42695904D02*
X16724380Y42695904D01*
X16724380Y43076857D01*
X16772000Y43172095D01*
X16819619Y43219714D01*
X16914857Y43267333D01*
X17057714Y43267333D01*
X17152952Y43219714D01*
X17200571Y43172095D01*
X17248190Y43076857D01*
X17248190Y42695904D01*
X17724380Y43743523D02*
X17724380Y43934000D01*
X17676761Y44029238D01*
X17629142Y44076857D01*
X17486285Y44172095D01*
X17295809Y44219714D01*
X16914857Y44219714D01*
X16819619Y44172095D01*
X16772000Y44124476D01*
X16724380Y44029238D01*
X16724380Y43838761D01*
X16772000Y43743523D01*
X16819619Y43695904D01*
X16914857Y43648285D01*
X17152952Y43648285D01*
X17248190Y43695904D01*
X17295809Y43743523D01*
X17343428Y43838761D01*
X17343428Y44029238D01*
X17295809Y44124476D01*
X17248190Y44172095D01*
X17152952Y44219714D01*
%TO.C,R8*%
X20264380Y43267333D02*
X19788190Y42934000D01*
X20264380Y42695904D02*
X19264380Y42695904D01*
X19264380Y43076857D01*
X19312000Y43172095D01*
X19359619Y43219714D01*
X19454857Y43267333D01*
X19597714Y43267333D01*
X19692952Y43219714D01*
X19740571Y43172095D01*
X19788190Y43076857D01*
X19788190Y42695904D01*
X19692952Y43838761D02*
X19645333Y43743523D01*
X19597714Y43695904D01*
X19502476Y43648285D01*
X19454857Y43648285D01*
X19359619Y43695904D01*
X19312000Y43743523D01*
X19264380Y43838761D01*
X19264380Y44029238D01*
X19312000Y44124476D01*
X19359619Y44172095D01*
X19454857Y44219714D01*
X19502476Y44219714D01*
X19597714Y44172095D01*
X19645333Y44124476D01*
X19692952Y44029238D01*
X19692952Y43838761D01*
X19740571Y43743523D01*
X19788190Y43695904D01*
X19883428Y43648285D01*
X20073904Y43648285D01*
X20169142Y43695904D01*
X20216761Y43743523D01*
X20264380Y43838761D01*
X20264380Y44029238D01*
X20216761Y44124476D01*
X20169142Y44172095D01*
X20073904Y44219714D01*
X19883428Y44219714D01*
X19788190Y44172095D01*
X19740571Y44124476D01*
X19692952Y44029238D01*
%TO.C,R7*%
X22804380Y43267333D02*
X22328190Y42934000D01*
X22804380Y42695904D02*
X21804380Y42695904D01*
X21804380Y43076857D01*
X21852000Y43172095D01*
X21899619Y43219714D01*
X21994857Y43267333D01*
X22137714Y43267333D01*
X22232952Y43219714D01*
X22280571Y43172095D01*
X22328190Y43076857D01*
X22328190Y42695904D01*
X21804380Y43600666D02*
X21804380Y44267333D01*
X22804380Y43838761D01*
%TO.C,R6*%
X25344380Y43267333D02*
X24868190Y42934000D01*
X25344380Y42695904D02*
X24344380Y42695904D01*
X24344380Y43076857D01*
X24392000Y43172095D01*
X24439619Y43219714D01*
X24534857Y43267333D01*
X24677714Y43267333D01*
X24772952Y43219714D01*
X24820571Y43172095D01*
X24868190Y43076857D01*
X24868190Y42695904D01*
X24344380Y44124476D02*
X24344380Y43934000D01*
X24392000Y43838761D01*
X24439619Y43791142D01*
X24582476Y43695904D01*
X24772952Y43648285D01*
X25153904Y43648285D01*
X25249142Y43695904D01*
X25296761Y43743523D01*
X25344380Y43838761D01*
X25344380Y44029238D01*
X25296761Y44124476D01*
X25249142Y44172095D01*
X25153904Y44219714D01*
X24915809Y44219714D01*
X24820571Y44172095D01*
X24772952Y44124476D01*
X24725333Y44029238D01*
X24725333Y43838761D01*
X24772952Y43743523D01*
X24820571Y43695904D01*
X24915809Y43648285D01*
%TO.C,R5*%
X27884380Y43267333D02*
X27408190Y42934000D01*
X27884380Y42695904D02*
X26884380Y42695904D01*
X26884380Y43076857D01*
X26932000Y43172095D01*
X26979619Y43219714D01*
X27074857Y43267333D01*
X27217714Y43267333D01*
X27312952Y43219714D01*
X27360571Y43172095D01*
X27408190Y43076857D01*
X27408190Y42695904D01*
X26884380Y44172095D02*
X26884380Y43695904D01*
X27360571Y43648285D01*
X27312952Y43695904D01*
X27265333Y43791142D01*
X27265333Y44029238D01*
X27312952Y44124476D01*
X27360571Y44172095D01*
X27455809Y44219714D01*
X27693904Y44219714D01*
X27789142Y44172095D01*
X27836761Y44124476D01*
X27884380Y44029238D01*
X27884380Y43791142D01*
X27836761Y43695904D01*
X27789142Y43648285D01*
%TO.C,R4*%
X61300380Y27773333D02*
X60824190Y27440000D01*
X61300380Y27201904D02*
X60300380Y27201904D01*
X60300380Y27582857D01*
X60348000Y27678095D01*
X60395619Y27725714D01*
X60490857Y27773333D01*
X60633714Y27773333D01*
X60728952Y27725714D01*
X60776571Y27678095D01*
X60824190Y27582857D01*
X60824190Y27201904D01*
X60633714Y28630476D02*
X61300380Y28630476D01*
X60252761Y28392380D02*
X60967047Y28154285D01*
X60967047Y28773333D01*
%TO.C,R3*%
X7453333Y17073619D02*
X7120000Y17549809D01*
X6881904Y17073619D02*
X6881904Y18073619D01*
X7262857Y18073619D01*
X7358095Y18026000D01*
X7405714Y17978380D01*
X7453333Y17883142D01*
X7453333Y17740285D01*
X7405714Y17645047D01*
X7358095Y17597428D01*
X7262857Y17549809D01*
X6881904Y17549809D01*
X7786666Y18073619D02*
X8405714Y18073619D01*
X8072380Y17692666D01*
X8215238Y17692666D01*
X8310476Y17645047D01*
X8358095Y17597428D01*
X8405714Y17502190D01*
X8405714Y17264095D01*
X8358095Y17168857D01*
X8310476Y17121238D01*
X8215238Y17073619D01*
X7929523Y17073619D01*
X7834285Y17121238D01*
X7786666Y17168857D01*
%TO.C,R2*%
X64714380Y46823333D02*
X64238190Y46490000D01*
X64714380Y46251904D02*
X63714380Y46251904D01*
X63714380Y46632857D01*
X63762000Y46728095D01*
X63809619Y46775714D01*
X63904857Y46823333D01*
X64047714Y46823333D01*
X64142952Y46775714D01*
X64190571Y46728095D01*
X64238190Y46632857D01*
X64238190Y46251904D01*
X63809619Y47204285D02*
X63762000Y47251904D01*
X63714380Y47347142D01*
X63714380Y47585238D01*
X63762000Y47680476D01*
X63809619Y47728095D01*
X63904857Y47775714D01*
X64000095Y47775714D01*
X64142952Y47728095D01*
X64714380Y47156666D01*
X64714380Y47775714D01*
%TO.C,R1*%
X56697619Y45632666D02*
X57173809Y45966000D01*
X56697619Y46204095D02*
X57697619Y46204095D01*
X57697619Y45823142D01*
X57650000Y45727904D01*
X57602380Y45680285D01*
X57507142Y45632666D01*
X57364285Y45632666D01*
X57269047Y45680285D01*
X57221428Y45727904D01*
X57173809Y45823142D01*
X57173809Y46204095D01*
X56697619Y44680285D02*
X56697619Y45251714D01*
X56697619Y44966000D02*
X57697619Y44966000D01*
X57554761Y45061238D01*
X57459523Y45156476D01*
X57411904Y45251714D01*
%TO.C,C4*%
X4659333Y38758857D02*
X4611714Y38711238D01*
X4468857Y38663619D01*
X4373619Y38663619D01*
X4230761Y38711238D01*
X4135523Y38806476D01*
X4087904Y38901714D01*
X4040285Y39092190D01*
X4040285Y39235047D01*
X4087904Y39425523D01*
X4135523Y39520761D01*
X4230761Y39616000D01*
X4373619Y39663619D01*
X4468857Y39663619D01*
X4611714Y39616000D01*
X4659333Y39568380D01*
X5516476Y39330285D02*
X5516476Y38663619D01*
X5278380Y39711238D02*
X5040285Y38996952D01*
X5659333Y38996952D01*
%TO.C,C3*%
X64365142Y53681333D02*
X64412761Y53633714D01*
X64460380Y53490857D01*
X64460380Y53395619D01*
X64412761Y53252761D01*
X64317523Y53157523D01*
X64222285Y53109904D01*
X64031809Y53062285D01*
X63888952Y53062285D01*
X63698476Y53109904D01*
X63603238Y53157523D01*
X63508000Y53252761D01*
X63460380Y53395619D01*
X63460380Y53490857D01*
X63508000Y53633714D01*
X63555619Y53681333D01*
X63460380Y54014666D02*
X63460380Y54633714D01*
X63841333Y54300380D01*
X63841333Y54443238D01*
X63888952Y54538476D01*
X63936571Y54586095D01*
X64031809Y54633714D01*
X64269904Y54633714D01*
X64365142Y54586095D01*
X64412761Y54538476D01*
X64460380Y54443238D01*
X64460380Y54157523D01*
X64412761Y54062285D01*
X64365142Y54014666D01*
%TO.C,C2*%
X75779333Y39520857D02*
X75731714Y39473238D01*
X75588857Y39425619D01*
X75493619Y39425619D01*
X75350761Y39473238D01*
X75255523Y39568476D01*
X75207904Y39663714D01*
X75160285Y39854190D01*
X75160285Y39997047D01*
X75207904Y40187523D01*
X75255523Y40282761D01*
X75350761Y40378000D01*
X75493619Y40425619D01*
X75588857Y40425619D01*
X75731714Y40378000D01*
X75779333Y40330380D01*
X76160285Y40330380D02*
X76207904Y40378000D01*
X76303142Y40425619D01*
X76541238Y40425619D01*
X76636476Y40378000D01*
X76684095Y40330380D01*
X76731714Y40235142D01*
X76731714Y40139904D01*
X76684095Y39997047D01*
X76112666Y39425619D01*
X76731714Y39425619D01*
%TO.C,C1*%
X59055333Y39774857D02*
X59007714Y39727238D01*
X58864857Y39679619D01*
X58769619Y39679619D01*
X58626761Y39727238D01*
X58531523Y39822476D01*
X58483904Y39917714D01*
X58436285Y40108190D01*
X58436285Y40251047D01*
X58483904Y40441523D01*
X58531523Y40536761D01*
X58626761Y40632000D01*
X58769619Y40679619D01*
X58864857Y40679619D01*
X59007714Y40632000D01*
X59055333Y40584380D01*
X60007714Y39679619D02*
X59436285Y39679619D01*
X59722000Y39679619D02*
X59722000Y40679619D01*
X59626761Y40536761D01*
X59531523Y40441523D01*
X59436285Y40393904D01*
%TO.C,U1*%
X58928095Y36361619D02*
X58928095Y35552095D01*
X58975714Y35456857D01*
X59023333Y35409238D01*
X59118571Y35361619D01*
X59309047Y35361619D01*
X59404285Y35409238D01*
X59451904Y35456857D01*
X59499523Y35552095D01*
X59499523Y36361619D01*
X60499523Y35361619D02*
X59928095Y35361619D01*
X60213809Y35361619D02*
X60213809Y36361619D01*
X60118571Y36218761D01*
X60023333Y36123523D01*
X59928095Y36075904D01*
%TO.C,U3*%
X63246095Y43473619D02*
X63246095Y42664095D01*
X63293714Y42568857D01*
X63341333Y42521238D01*
X63436571Y42473619D01*
X63627047Y42473619D01*
X63722285Y42521238D01*
X63769904Y42568857D01*
X63817523Y42664095D01*
X63817523Y43473619D01*
X64198476Y43473619D02*
X64817523Y43473619D01*
X64484190Y43092666D01*
X64627047Y43092666D01*
X64722285Y43045047D01*
X64769904Y42997428D01*
X64817523Y42902190D01*
X64817523Y42664095D01*
X64769904Y42568857D01*
X64722285Y42521238D01*
X64627047Y42473619D01*
X64341333Y42473619D01*
X64246095Y42521238D01*
X64198476Y42568857D01*
%TO.C,U2*%
X49236380Y27178095D02*
X50045904Y27178095D01*
X50141142Y27225714D01*
X50188761Y27273333D01*
X50236380Y27368571D01*
X50236380Y27559047D01*
X50188761Y27654285D01*
X50141142Y27701904D01*
X50045904Y27749523D01*
X49236380Y27749523D01*
X49331619Y28178095D02*
X49284000Y28225714D01*
X49236380Y28320952D01*
X49236380Y28559047D01*
X49284000Y28654285D01*
X49331619Y28701904D01*
X49426857Y28749523D01*
X49522095Y28749523D01*
X49664952Y28701904D01*
X50236380Y28130476D01*
X50236380Y28749523D01*
%TO.C,J4*%
X70024666Y39663619D02*
X70024666Y38949333D01*
X69977047Y38806476D01*
X69881809Y38711238D01*
X69738952Y38663619D01*
X69643714Y38663619D01*
X70929428Y39330285D02*
X70929428Y38663619D01*
X70691333Y39711238D02*
X70453238Y38996952D01*
X71072285Y38996952D01*
%TO.C,J3*%
X71080380Y57578666D02*
X71794666Y57578666D01*
X71937523Y57531047D01*
X72032761Y57435809D01*
X72080380Y57292952D01*
X72080380Y57197714D01*
X71080380Y57959619D02*
X71080380Y58578666D01*
X71461333Y58245333D01*
X71461333Y58388190D01*
X71508952Y58483428D01*
X71556571Y58531047D01*
X71651809Y58578666D01*
X71889904Y58578666D01*
X71985142Y58531047D01*
X72032761Y58483428D01*
X72080380Y58388190D01*
X72080380Y58102476D01*
X72032761Y58007238D01*
X71985142Y57959619D01*
%TO.C,J1*%
X77938380Y936666D02*
X78652666Y936666D01*
X78795523Y889047D01*
X78890761Y793809D01*
X78938380Y650952D01*
X78938380Y555714D01*
X78938380Y1936666D02*
X78938380Y1365238D01*
X78938380Y1650952D02*
X77938380Y1650952D01*
X78081238Y1555714D01*
X78176476Y1460476D01*
X78224095Y1365238D01*
%TD*%
M02*
