M48
; DRILL file {KiCad (5.1.10-1-10_14)} date Tuesday, August 31, 2021 at 11:42:03 PM
; FORMAT={-:-/ absolute / inch / decimal}
; #@! TF.CreationDate,2021-08-31T23:42:03+02:00
; #@! TF.GenerationSoftware,Kicad,Pcbnew,(5.1.10-1-10_14)
FMAT,2
INCH
T1C0.0118
T2C0.0157
T3C0.0276
T4C0.0300
T5C0.0315
T6C0.0354
T7C0.0394
T8C0.0906
%
G90
G05
T1
X0.3408Y0.5308
X0.45Y0.55
X0.72Y0.31
X0.91Y0.42
X0.95Y1.1
X0.95Y0.83
X0.9621Y1.308
X0.9885Y1.1
X0.995Y1.3325
X1.03Y1.1
X1.05Y1.35
X1.05Y0.83
X1.07Y1.1
X1.14Y1.3609
X1.15Y0.83
X1.1689Y0.4254
X1.2104Y0.4254
X1.2442Y0.4254
X1.25Y0.83
X1.2799Y0.4253
X1.32Y0.42
X1.5337Y0.4263
X1.7178Y1.5122
X1.7557Y1.0857
X1.7631Y1.4612
X1.7897Y1.5057
X1.8389Y1.5023
X1.8443Y1.0843
X1.8638Y1.4362
X1.8862Y1.49
X1.9Y1.54
X1.91Y1.46
X1.9354Y1.5
X1.99Y1.55
X1.99Y1.5
X1.99Y0.86
X2.08Y1.21
X2.12Y1.2
X2.1215Y1.2762
X2.31Y1.44
X2.32Y1.3246
X2.3257Y1.12
X2.3257Y1.0843
X2.36Y1.33
X2.54Y1.48
X2.57Y0.7475
X2.59Y1.03
X2.645Y1.0325
X2.78Y0.37
X2.88Y0.35
X2.9613Y0.3355
T2
X2.5325Y1.89
T3
X0.2Y0.69
X0.38Y1.81
X0.38Y1.61
X0.4Y0.69
X0.48Y1.81
X0.48Y1.61
X0.58Y1.81
X0.58Y1.61
X0.68Y1.81
X0.68Y1.61
X0.78Y1.81
X0.78Y1.61
X0.88Y1.81
X0.88Y1.61
X0.98Y1.81
X0.98Y1.61
X1.08Y1.81
X1.08Y1.61
X2.25Y1.89
X2.25Y1.69
X2.32Y1.2
X2.32Y1.0
X2.53Y1.95
X2.53Y1.75
T4
X2.8169Y2.1339
X2.8169Y1.8661
X2.9154Y2.1339
X2.9154Y2.0512
X2.9154Y1.9488
X2.9154Y1.8661
T5
X0.09Y1.54
X0.1Y1.4
X0.1Y0.8
X0.2Y1.4
X0.2Y0.8
X0.2869Y1.54
X0.3Y1.4
X0.3Y0.8
X0.4Y1.4
X0.4Y0.8
X0.5Y1.4
X0.5Y0.8
X0.6Y1.4
X0.6Y0.8
X0.7Y1.4
X0.7Y0.8
X0.8Y1.4
X0.8Y0.8
X0.9Y1.4
X0.9Y0.8
X1.0Y1.4
X1.0Y0.8
X1.1Y1.4
X1.1Y0.8
X1.2Y1.4
X1.2Y0.8
X1.3Y1.4
X1.3Y0.8
X1.4Y1.4
X1.4Y0.8
X1.5Y1.4
X1.5Y0.8
X1.6Y1.4
X1.6Y0.8
X1.7Y1.4
X1.7Y0.8
X1.8Y1.4
X1.8Y0.8
X1.9Y1.4
X1.9Y0.8
X2.0Y1.4
X2.0Y0.8
X2.1925Y1.44
X2.1925Y1.34
X2.1925Y1.24
X2.1925Y1.14
X2.1925Y1.04
X2.1925Y0.94
X2.1925Y0.84
X2.1925Y0.74
X2.2331Y1.57
X2.3625Y2.295
X2.3625Y2.195
X2.3625Y2.095
X2.3625Y1.995
X2.3625Y1.895
X2.3625Y1.795
X2.3625Y1.695
X2.43Y1.57
X2.4925Y1.44
X2.4925Y1.34
X2.4925Y1.24
X2.4925Y1.14
X2.4925Y1.04
X2.4925Y0.94
X2.4925Y0.84
X2.4925Y0.74
X2.52Y2.23
X2.52Y2.0331
X2.6625Y2.295
X2.6625Y2.195
X2.6625Y2.095
X2.6625Y1.995
X2.6625Y1.895
X2.6625Y1.795
X2.6625Y1.695
X2.89Y1.57
X3.0869Y1.57
T6
X0.1Y1.99
X0.2Y1.99
X0.3Y1.99
X0.4Y1.99
X0.5Y1.99
X0.6Y1.99
X0.7Y1.99
X0.8Y1.99
X0.9Y1.99
X1.0Y1.99
X1.1Y1.99
X1.2Y1.99
X1.3Y1.99
X1.4Y1.99
X1.5Y1.99
X1.6Y1.99
T7
X0.68Y0.26
X0.68Y0.16
X0.78Y0.26
X0.78Y0.16
X0.88Y0.26
X0.88Y0.16
X0.98Y0.26
X0.98Y0.16
X1.08Y0.26
X1.08Y0.16
X1.18Y0.26
X1.18Y0.16
X1.28Y0.26
X1.28Y0.16
X1.38Y0.26
X1.38Y0.16
X1.48Y0.26
X1.48Y0.16
X1.58Y0.26
X1.58Y0.16
X1.68Y0.26
X1.68Y0.16
X1.72Y2.11
X1.72Y2.01
X1.78Y0.26
X1.78Y0.16
X1.82Y2.11
X1.82Y2.01
X1.88Y0.26
X1.88Y0.16
X1.92Y2.11
X1.92Y2.01
X1.98Y0.26
X1.98Y0.16
X2.02Y2.11
X2.02Y2.01
X2.08Y0.26
X2.08Y0.16
X2.12Y2.11
X2.12Y2.01
X2.18Y0.26
X2.18Y0.16
X2.22Y2.11
X2.22Y2.01
X2.28Y0.26
X2.28Y0.16
X2.38Y0.26
X2.38Y0.16
X2.48Y0.26
X2.48Y0.16
X2.58Y0.26
X2.58Y0.16
X2.68Y0.26
X2.68Y0.16
X2.71Y1.44
X2.71Y1.34
X2.71Y1.24
X2.71Y1.14
X2.71Y1.04
X2.71Y0.94
X2.71Y0.84
X2.71Y0.74
X2.71Y0.64
X2.71Y0.54
X2.78Y0.26
X2.78Y0.16
X2.81Y1.44
X2.81Y1.34
X2.81Y1.24
X2.81Y1.14
X2.81Y1.04
X2.81Y0.94
X2.81Y0.84
X2.81Y0.74
X2.81Y0.64
X2.81Y0.54
X2.88Y0.26
X2.88Y0.16
X2.98Y0.26
X2.98Y0.16
X3.08Y0.26
X3.08Y0.16
T8
X3.0335Y2.2657
X3.0335Y1.7343
X3.065Y2.0
T0
M30
