%TF.GenerationSoftware,KiCad,Pcbnew,(5.1.6-0-10_14)*%
%TF.CreationDate,2021-03-04T16:26:44+01:00*%
%TF.ProjectId,io_board,696f5f62-6f61-4726-942e-6b696361645f,rev?*%
%TF.SameCoordinates,Original*%
%TF.FileFunction,Soldermask,Bot*%
%TF.FilePolarity,Negative*%
%FSLAX46Y46*%
G04 Gerber Fmt 4.6, Leading zero omitted, Abs format (unit mm)*
G04 Created by KiCad (PCBNEW (5.1.6-0-10_14)) date 2021-03-04 16:26:44*
%MOMM*%
%LPD*%
G01*
G04 APERTURE LIST*
%ADD10O,1.700000X1.700000*%
%ADD11R,1.700000X1.700000*%
%ADD12O,1.800000X1.800000*%
%ADD13R,1.800000X1.800000*%
%ADD14C,3.400000*%
%ADD15C,1.624000*%
G04 APERTURE END LIST*
%TO.C,C3*%
G36*
G01*
X62588544Y56107500D02*
X63903456Y56107500D01*
G75*
G02*
X64171000Y55839956I0J-267544D01*
G01*
X64171000Y54850044D01*
G75*
G02*
X63903456Y54582500I-267544J0D01*
G01*
X62588544Y54582500D01*
G75*
G02*
X62321000Y54850044I0J267544D01*
G01*
X62321000Y55839956D01*
G75*
G02*
X62588544Y56107500I267544J0D01*
G01*
G37*
G36*
G01*
X62588544Y59082500D02*
X63903456Y59082500D01*
G75*
G02*
X64171000Y58814956I0J-267544D01*
G01*
X64171000Y57825044D01*
G75*
G02*
X63903456Y57557500I-267544J0D01*
G01*
X62588544Y57557500D01*
G75*
G02*
X62321000Y57825044I0J267544D01*
G01*
X62321000Y58814956D01*
G75*
G02*
X62588544Y59082500I267544J0D01*
G01*
G37*
%TD*%
D10*
%TO.C,U1*%
X63309500Y36830000D03*
X55689500Y19050000D03*
X63309500Y34290000D03*
X55689500Y21590000D03*
X63309500Y31750000D03*
X55689500Y24130000D03*
X63309500Y29210000D03*
X55689500Y26670000D03*
X63309500Y26670000D03*
X55689500Y29210000D03*
X63309500Y24130000D03*
X55689500Y31750000D03*
X63309500Y21590000D03*
X55689500Y34290000D03*
X63309500Y19050000D03*
D11*
X55689500Y36830000D03*
%TD*%
D10*
%TO.C,U3*%
X65849500Y58293000D03*
X58229500Y43053000D03*
X65849500Y55753000D03*
X58229500Y45593000D03*
X65849500Y53213000D03*
X58229500Y48133000D03*
X65849500Y50673000D03*
X58229500Y50673000D03*
X65849500Y48133000D03*
X58229500Y53213000D03*
X65849500Y45593000D03*
X58229500Y55753000D03*
X65849500Y43053000D03*
D11*
X58229500Y58293000D03*
%TD*%
%TO.C,C2*%
G36*
G01*
X71220500Y45424956D02*
X71220500Y44110044D01*
G75*
G02*
X70952956Y43842500I-267544J0D01*
G01*
X69963044Y43842500D01*
G75*
G02*
X69695500Y44110044I0J267544D01*
G01*
X69695500Y45424956D01*
G75*
G02*
X69963044Y45692500I267544J0D01*
G01*
X70952956Y45692500D01*
G75*
G02*
X71220500Y45424956I0J-267544D01*
G01*
G37*
G36*
G01*
X74195500Y45424956D02*
X74195500Y44110044D01*
G75*
G02*
X73927956Y43842500I-267544J0D01*
G01*
X72938044Y43842500D01*
G75*
G02*
X72670500Y44110044I0J267544D01*
G01*
X72670500Y45424956D01*
G75*
G02*
X72938044Y45692500I267544J0D01*
G01*
X73927956Y45692500D01*
G75*
G02*
X74195500Y45424956I0J-267544D01*
G01*
G37*
%TD*%
%TO.C,R12*%
G36*
G01*
X17877262Y46628000D02*
X16920738Y46628000D01*
G75*
G02*
X16649000Y46899738I0J271738D01*
G01*
X16649000Y47606262D01*
G75*
G02*
X16920738Y47878000I271738J0D01*
G01*
X17877262Y47878000D01*
G75*
G02*
X18149000Y47606262I0J-271738D01*
G01*
X18149000Y46899738D01*
G75*
G02*
X17877262Y46628000I-271738J0D01*
G01*
G37*
G36*
G01*
X17877262Y44578000D02*
X16920738Y44578000D01*
G75*
G02*
X16649000Y44849738I0J271738D01*
G01*
X16649000Y45556262D01*
G75*
G02*
X16920738Y45828000I271738J0D01*
G01*
X17877262Y45828000D01*
G75*
G02*
X18149000Y45556262I0J-271738D01*
G01*
X18149000Y44849738D01*
G75*
G02*
X17877262Y44578000I-271738J0D01*
G01*
G37*
%TD*%
%TO.C,R11*%
G36*
G01*
X20798262Y46628000D02*
X19841738Y46628000D01*
G75*
G02*
X19570000Y46899738I0J271738D01*
G01*
X19570000Y47606262D01*
G75*
G02*
X19841738Y47878000I271738J0D01*
G01*
X20798262Y47878000D01*
G75*
G02*
X21070000Y47606262I0J-271738D01*
G01*
X21070000Y46899738D01*
G75*
G02*
X20798262Y46628000I-271738J0D01*
G01*
G37*
G36*
G01*
X20798262Y44578000D02*
X19841738Y44578000D01*
G75*
G02*
X19570000Y44849738I0J271738D01*
G01*
X19570000Y45556262D01*
G75*
G02*
X19841738Y45828000I271738J0D01*
G01*
X20798262Y45828000D01*
G75*
G02*
X21070000Y45556262I0J-271738D01*
G01*
X21070000Y44849738D01*
G75*
G02*
X20798262Y44578000I-271738J0D01*
G01*
G37*
%TD*%
%TO.C,R10*%
G36*
G01*
X23719262Y46628000D02*
X22762738Y46628000D01*
G75*
G02*
X22491000Y46899738I0J271738D01*
G01*
X22491000Y47606262D01*
G75*
G02*
X22762738Y47878000I271738J0D01*
G01*
X23719262Y47878000D01*
G75*
G02*
X23991000Y47606262I0J-271738D01*
G01*
X23991000Y46899738D01*
G75*
G02*
X23719262Y46628000I-271738J0D01*
G01*
G37*
G36*
G01*
X23719262Y44578000D02*
X22762738Y44578000D01*
G75*
G02*
X22491000Y44849738I0J271738D01*
G01*
X22491000Y45556262D01*
G75*
G02*
X22762738Y45828000I271738J0D01*
G01*
X23719262Y45828000D01*
G75*
G02*
X23991000Y45556262I0J-271738D01*
G01*
X23991000Y44849738D01*
G75*
G02*
X23719262Y44578000I-271738J0D01*
G01*
G37*
%TD*%
%TO.C,R9*%
G36*
G01*
X26640262Y46619000D02*
X25683738Y46619000D01*
G75*
G02*
X25412000Y46890738I0J271738D01*
G01*
X25412000Y47597262D01*
G75*
G02*
X25683738Y47869000I271738J0D01*
G01*
X26640262Y47869000D01*
G75*
G02*
X26912000Y47597262I0J-271738D01*
G01*
X26912000Y46890738D01*
G75*
G02*
X26640262Y46619000I-271738J0D01*
G01*
G37*
G36*
G01*
X26640262Y44569000D02*
X25683738Y44569000D01*
G75*
G02*
X25412000Y44840738I0J271738D01*
G01*
X25412000Y45547262D01*
G75*
G02*
X25683738Y45819000I271738J0D01*
G01*
X26640262Y45819000D01*
G75*
G02*
X26912000Y45547262I0J-271738D01*
G01*
X26912000Y44840738D01*
G75*
G02*
X26640262Y44569000I-271738J0D01*
G01*
G37*
%TD*%
%TO.C,R8*%
G36*
G01*
X29561262Y46637000D02*
X28604738Y46637000D01*
G75*
G02*
X28333000Y46908738I0J271738D01*
G01*
X28333000Y47615262D01*
G75*
G02*
X28604738Y47887000I271738J0D01*
G01*
X29561262Y47887000D01*
G75*
G02*
X29833000Y47615262I0J-271738D01*
G01*
X29833000Y46908738D01*
G75*
G02*
X29561262Y46637000I-271738J0D01*
G01*
G37*
G36*
G01*
X29561262Y44587000D02*
X28604738Y44587000D01*
G75*
G02*
X28333000Y44858738I0J271738D01*
G01*
X28333000Y45565262D01*
G75*
G02*
X28604738Y45837000I271738J0D01*
G01*
X29561262Y45837000D01*
G75*
G02*
X29833000Y45565262I0J-271738D01*
G01*
X29833000Y44858738D01*
G75*
G02*
X29561262Y44587000I-271738J0D01*
G01*
G37*
%TD*%
%TO.C,R7*%
G36*
G01*
X32482262Y46628000D02*
X31525738Y46628000D01*
G75*
G02*
X31254000Y46899738I0J271738D01*
G01*
X31254000Y47606262D01*
G75*
G02*
X31525738Y47878000I271738J0D01*
G01*
X32482262Y47878000D01*
G75*
G02*
X32754000Y47606262I0J-271738D01*
G01*
X32754000Y46899738D01*
G75*
G02*
X32482262Y46628000I-271738J0D01*
G01*
G37*
G36*
G01*
X32482262Y44578000D02*
X31525738Y44578000D01*
G75*
G02*
X31254000Y44849738I0J271738D01*
G01*
X31254000Y45556262D01*
G75*
G02*
X31525738Y45828000I271738J0D01*
G01*
X32482262Y45828000D01*
G75*
G02*
X32754000Y45556262I0J-271738D01*
G01*
X32754000Y44849738D01*
G75*
G02*
X32482262Y44578000I-271738J0D01*
G01*
G37*
%TD*%
%TO.C,R6*%
G36*
G01*
X35403262Y46628000D02*
X34446738Y46628000D01*
G75*
G02*
X34175000Y46899738I0J271738D01*
G01*
X34175000Y47606262D01*
G75*
G02*
X34446738Y47878000I271738J0D01*
G01*
X35403262Y47878000D01*
G75*
G02*
X35675000Y47606262I0J-271738D01*
G01*
X35675000Y46899738D01*
G75*
G02*
X35403262Y46628000I-271738J0D01*
G01*
G37*
G36*
G01*
X35403262Y44578000D02*
X34446738Y44578000D01*
G75*
G02*
X34175000Y44849738I0J271738D01*
G01*
X34175000Y45556262D01*
G75*
G02*
X34446738Y45828000I271738J0D01*
G01*
X35403262Y45828000D01*
G75*
G02*
X35675000Y45556262I0J-271738D01*
G01*
X35675000Y44849738D01*
G75*
G02*
X35403262Y44578000I-271738J0D01*
G01*
G37*
%TD*%
%TO.C,R5*%
G36*
G01*
X38324262Y46628000D02*
X37367738Y46628000D01*
G75*
G02*
X37096000Y46899738I0J271738D01*
G01*
X37096000Y47606262D01*
G75*
G02*
X37367738Y47878000I271738J0D01*
G01*
X38324262Y47878000D01*
G75*
G02*
X38596000Y47606262I0J-271738D01*
G01*
X38596000Y46899738D01*
G75*
G02*
X38324262Y46628000I-271738J0D01*
G01*
G37*
G36*
G01*
X38324262Y44578000D02*
X37367738Y44578000D01*
G75*
G02*
X37096000Y44849738I0J271738D01*
G01*
X37096000Y45556262D01*
G75*
G02*
X37367738Y45828000I271738J0D01*
G01*
X38324262Y45828000D01*
G75*
G02*
X38596000Y45556262I0J-271738D01*
G01*
X38596000Y44849738D01*
G75*
G02*
X38324262Y44578000I-271738J0D01*
G01*
G37*
%TD*%
D10*
%TO.C,U2*%
X50800000Y20320000D03*
X2540000Y35560000D03*
X48260000Y20320000D03*
X5080000Y35560000D03*
X45720000Y20320000D03*
X7620000Y35560000D03*
X43180000Y20320000D03*
X10160000Y35560000D03*
X40640000Y20320000D03*
X12700000Y35560000D03*
X38100000Y20320000D03*
X15240000Y35560000D03*
X35560000Y20320000D03*
X17780000Y35560000D03*
X33020000Y20320000D03*
X20320000Y35560000D03*
X30480000Y20320000D03*
X22860000Y35560000D03*
X27940000Y20320000D03*
X25400000Y35560000D03*
X25400000Y20320000D03*
X27940000Y35560000D03*
X22860000Y20320000D03*
X30480000Y35560000D03*
X20320000Y20320000D03*
X33020000Y35560000D03*
X17780000Y20320000D03*
X35560000Y35560000D03*
X15240000Y20320000D03*
X38100000Y35560000D03*
X12700000Y20320000D03*
X40640000Y35560000D03*
X10160000Y20320000D03*
X43180000Y35560000D03*
X7620000Y20320000D03*
X45720000Y35560000D03*
X5080000Y20320000D03*
X48260000Y35560000D03*
X2540000Y20320000D03*
D11*
X50800000Y35560000D03*
%TD*%
%TO.C,R4*%
G36*
G01*
X58390262Y23514000D02*
X57433738Y23514000D01*
G75*
G02*
X57162000Y23785738I0J271738D01*
G01*
X57162000Y24492262D01*
G75*
G02*
X57433738Y24764000I271738J0D01*
G01*
X58390262Y24764000D01*
G75*
G02*
X58662000Y24492262I0J-271738D01*
G01*
X58662000Y23785738D01*
G75*
G02*
X58390262Y23514000I-271738J0D01*
G01*
G37*
G36*
G01*
X58390262Y21464000D02*
X57433738Y21464000D01*
G75*
G02*
X57162000Y21735738I0J271738D01*
G01*
X57162000Y22442262D01*
G75*
G02*
X57433738Y22714000I271738J0D01*
G01*
X58390262Y22714000D01*
G75*
G02*
X58662000Y22442262I0J-271738D01*
G01*
X58662000Y21735738D01*
G75*
G02*
X58390262Y21464000I-271738J0D01*
G01*
G37*
%TD*%
%TO.C,R2*%
G36*
G01*
X69312262Y50438000D02*
X68355738Y50438000D01*
G75*
G02*
X68084000Y50709738I0J271738D01*
G01*
X68084000Y51416262D01*
G75*
G02*
X68355738Y51688000I271738J0D01*
G01*
X69312262Y51688000D01*
G75*
G02*
X69584000Y51416262I0J-271738D01*
G01*
X69584000Y50709738D01*
G75*
G02*
X69312262Y50438000I-271738J0D01*
G01*
G37*
G36*
G01*
X69312262Y48388000D02*
X68355738Y48388000D01*
G75*
G02*
X68084000Y48659738I0J271738D01*
G01*
X68084000Y49366262D01*
G75*
G02*
X68355738Y49638000I271738J0D01*
G01*
X69312262Y49638000D01*
G75*
G02*
X69584000Y49366262I0J-271738D01*
G01*
X69584000Y48659738D01*
G75*
G02*
X69312262Y48388000I-271738J0D01*
G01*
G37*
%TD*%
%TO.C,R1*%
G36*
G01*
X68165238Y56623000D02*
X69121762Y56623000D01*
G75*
G02*
X69393500Y56351262I0J-271738D01*
G01*
X69393500Y55644738D01*
G75*
G02*
X69121762Y55373000I-271738J0D01*
G01*
X68165238Y55373000D01*
G75*
G02*
X67893500Y55644738I0J271738D01*
G01*
X67893500Y56351262D01*
G75*
G02*
X68165238Y56623000I271738J0D01*
G01*
G37*
G36*
G01*
X68165238Y58673000D02*
X69121762Y58673000D01*
G75*
G02*
X69393500Y58401262I0J-271738D01*
G01*
X69393500Y57694738D01*
G75*
G02*
X69121762Y57423000I-271738J0D01*
G01*
X68165238Y57423000D01*
G75*
G02*
X67893500Y57694738I0J271738D01*
G01*
X67893500Y58401262D01*
G75*
G02*
X68165238Y58673000I271738J0D01*
G01*
G37*
%TD*%
D12*
%TO.C,J4*%
X71374000Y13970000D03*
X68834000Y13970000D03*
X71374000Y16510000D03*
X68834000Y16510000D03*
X71374000Y19050000D03*
X68834000Y19050000D03*
X71374000Y21590000D03*
X68834000Y21590000D03*
X71374000Y24130000D03*
X68834000Y24130000D03*
X71374000Y26670000D03*
X68834000Y26670000D03*
X71374000Y29210000D03*
X68834000Y29210000D03*
X71374000Y31750000D03*
X68834000Y31750000D03*
X71374000Y34290000D03*
X68834000Y34290000D03*
X71374000Y36830000D03*
D13*
X68834000Y36830000D03*
%TD*%
D14*
%TO.C,J3*%
X77342000Y50800000D03*
D15*
X73542000Y52100000D03*
X73542000Y49500000D03*
X71042000Y54200000D03*
X73542000Y54200000D03*
X71042000Y47400000D03*
X73542000Y47400000D03*
D14*
X76542000Y44050000D03*
X76542000Y57550000D03*
%TD*%
D12*
%TO.C,J2*%
X46609000Y52514500D03*
X46609000Y49974500D03*
X44069000Y52514500D03*
X44069000Y49974500D03*
X41529000Y52514500D03*
X41529000Y49974500D03*
X38989000Y52514500D03*
X38989000Y49974500D03*
X36449000Y52514500D03*
X36449000Y49974500D03*
X33909000Y52514500D03*
X33909000Y49974500D03*
X31369000Y52514500D03*
D13*
X31369000Y49974500D03*
%TD*%
%TO.C,C4*%
G36*
G01*
X4789000Y32108544D02*
X4789000Y33423456D01*
G75*
G02*
X5056544Y33691000I267544J0D01*
G01*
X6046456Y33691000D01*
G75*
G02*
X6314000Y33423456I0J-267544D01*
G01*
X6314000Y32108544D01*
G75*
G02*
X6046456Y31841000I-267544J0D01*
G01*
X5056544Y31841000D01*
G75*
G02*
X4789000Y32108544I0J267544D01*
G01*
G37*
G36*
G01*
X1814000Y32108544D02*
X1814000Y33423456D01*
G75*
G02*
X2081544Y33691000I267544J0D01*
G01*
X3071456Y33691000D01*
G75*
G02*
X3339000Y33423456I0J-267544D01*
G01*
X3339000Y32108544D01*
G75*
G02*
X3071456Y31841000I-267544J0D01*
G01*
X2081544Y31841000D01*
G75*
G02*
X1814000Y32108544I0J267544D01*
G01*
G37*
%TD*%
%TO.C,C1*%
G36*
G01*
X60997000Y40535456D02*
X60997000Y39220544D01*
G75*
G02*
X60729456Y38953000I-267544J0D01*
G01*
X59739544Y38953000D01*
G75*
G02*
X59472000Y39220544I0J267544D01*
G01*
X59472000Y40535456D01*
G75*
G02*
X59739544Y40803000I267544J0D01*
G01*
X60729456Y40803000D01*
G75*
G02*
X60997000Y40535456I0J-267544D01*
G01*
G37*
G36*
G01*
X63972000Y40535456D02*
X63972000Y39220544D01*
G75*
G02*
X63704456Y38953000I-267544J0D01*
G01*
X62714544Y38953000D01*
G75*
G02*
X62447000Y39220544I0J267544D01*
G01*
X62447000Y40535456D01*
G75*
G02*
X62714544Y40803000I267544J0D01*
G01*
X63704456Y40803000D01*
G75*
G02*
X63972000Y40535456I0J-267544D01*
G01*
G37*
%TD*%
D12*
%TO.C,J1*%
X17272000Y4064000D03*
X17272000Y6604000D03*
X19812000Y4064000D03*
X19812000Y6604000D03*
X22352000Y4064000D03*
X22352000Y6604000D03*
X24892000Y4064000D03*
X24892000Y6604000D03*
X27432000Y4064000D03*
X27432000Y6604000D03*
X29972000Y4064000D03*
X29972000Y6604000D03*
X32512000Y4064000D03*
X32512000Y6604000D03*
X35052000Y4064000D03*
X35052000Y6604000D03*
X37592000Y4064000D03*
X37592000Y6604000D03*
X40132000Y4064000D03*
X40132000Y6604000D03*
X42672000Y4064000D03*
X42672000Y6604000D03*
X45212000Y4064000D03*
X45212000Y6604000D03*
X47752000Y4064000D03*
X47752000Y6604000D03*
X50292000Y4064000D03*
X50292000Y6604000D03*
X52832000Y4064000D03*
X52832000Y6604000D03*
X55372000Y4064000D03*
X55372000Y6604000D03*
X57912000Y4064000D03*
X57912000Y6604000D03*
X60452000Y4064000D03*
X60452000Y6604000D03*
X62992000Y4064000D03*
X62992000Y6604000D03*
X65532000Y4064000D03*
X65532000Y6604000D03*
X68072000Y4064000D03*
X68072000Y6604000D03*
X70612000Y4064000D03*
X70612000Y6604000D03*
X73152000Y4064000D03*
X73152000Y6604000D03*
X75692000Y4064000D03*
X75692000Y6604000D03*
X78232000Y4064000D03*
D13*
X78232000Y6604000D03*
%TD*%
M02*
