G04 #@! TF.GenerationSoftware,KiCad,Pcbnew,(5.1.6-0-10_14)*
G04 #@! TF.CreationDate,2021-01-01T23:17:05+01:00*
G04 #@! TF.ProjectId,proc_board,70726f63-5f62-46f6-9172-642e6b696361,rev?*
G04 #@! TF.SameCoordinates,Original*
G04 #@! TF.FileFunction,Soldermask,Bot*
G04 #@! TF.FilePolarity,Negative*
%FSLAX46Y46*%
G04 Gerber Fmt 4.6, Leading zero omitted, Abs format (unit mm)*
G04 Created by KiCad (PCBNEW (5.1.6-0-10_14)) date 2021-01-01 23:17:05*
%MOMM*%
%LPD*%
G01*
G04 APERTURE LIST*
%ADD10O,1.700000X1.700000*%
%ADD11R,1.700000X1.700000*%
%ADD12O,1.800000X1.800000*%
%ADD13R,1.800000X1.800000*%
%ADD14O,1.540000X2.100000*%
%ADD15R,1.540000X2.100000*%
G04 APERTURE END LIST*
D10*
G04 #@! TO.C,U5*
X10414000Y33528000D03*
X2794000Y18288000D03*
X10414000Y30988000D03*
X2794000Y20828000D03*
X10414000Y28448000D03*
X2794000Y23368000D03*
X10414000Y25908000D03*
X2794000Y25908000D03*
X10414000Y23368000D03*
X2794000Y28448000D03*
X10414000Y20828000D03*
X2794000Y30988000D03*
X10414000Y18288000D03*
D11*
X2794000Y33528000D03*
G04 #@! TD*
D12*
G04 #@! TO.C,U6*
X78079001Y49276000D03*
X75539001Y49276000D03*
X72999001Y49276000D03*
X70459001Y49276000D03*
X67919001Y49276000D03*
X65379001Y49276000D03*
X62839001Y49276000D03*
X60299001Y49276000D03*
X57759001Y49276000D03*
X55219001Y49276000D03*
X52679001Y49276000D03*
X50139001Y49276000D03*
X47599001Y49276000D03*
D13*
X45059001Y49276000D03*
G04 #@! TD*
D14*
G04 #@! TO.C,U4*
X35433000Y56388000D03*
X35433000Y41148000D03*
X32893000Y56388000D03*
X32893000Y41148000D03*
X30353000Y56388000D03*
X30353000Y41148000D03*
X27813000Y56388000D03*
X27813000Y41148000D03*
X25273000Y56388000D03*
X25273000Y41148000D03*
X22733000Y56388000D03*
X22733000Y41148000D03*
X20193000Y56388000D03*
X20193000Y41148000D03*
X17653000Y56388000D03*
X17653000Y41148000D03*
X15113000Y56388000D03*
X15113000Y41148000D03*
X12573000Y56388000D03*
X12573000Y41148000D03*
X10033000Y56388000D03*
X10033000Y41148000D03*
X7493000Y56388000D03*
X7493000Y41148000D03*
X4953000Y56388000D03*
X4953000Y41148000D03*
X2413000Y56388000D03*
D15*
X2413000Y41148000D03*
G04 #@! TD*
D10*
G04 #@! TO.C,U3*
X45059001Y41453001D03*
X78079001Y33833001D03*
X47599001Y41453001D03*
X75539001Y33833001D03*
X50139001Y41453001D03*
X72999001Y33833001D03*
X52679001Y41453001D03*
X70459001Y33833001D03*
X55219001Y41453001D03*
X67919001Y33833001D03*
X57759001Y41453001D03*
X65379001Y33833001D03*
X60299001Y41453001D03*
X62839001Y33833001D03*
X62839001Y41453001D03*
X60299001Y33833001D03*
X65379001Y41453001D03*
X57759001Y33833001D03*
X67919001Y41453001D03*
X55219001Y33833001D03*
X70459001Y41453001D03*
X52679001Y33833001D03*
X72999001Y41453001D03*
X50139001Y33833001D03*
X75539001Y41453001D03*
X47599001Y33833001D03*
X78079001Y41453001D03*
D11*
X45059001Y33833001D03*
G04 #@! TD*
G04 #@! TO.C,C5*
G36*
G01*
X4154000Y52809544D02*
X4154000Y54124456D01*
G75*
G02*
X4421544Y54392000I267544J0D01*
G01*
X5411456Y54392000D01*
G75*
G02*
X5679000Y54124456I0J-267544D01*
G01*
X5679000Y52809544D01*
G75*
G02*
X5411456Y52542000I-267544J0D01*
G01*
X4421544Y52542000D01*
G75*
G02*
X4154000Y52809544I0J267544D01*
G01*
G37*
G36*
G01*
X1179000Y52809544D02*
X1179000Y54124456D01*
G75*
G02*
X1446544Y54392000I267544J0D01*
G01*
X2436456Y54392000D01*
G75*
G02*
X2704000Y54124456I0J-267544D01*
G01*
X2704000Y52809544D01*
G75*
G02*
X2436456Y52542000I-267544J0D01*
G01*
X1446544Y52542000D01*
G75*
G02*
X1179000Y52809544I0J267544D01*
G01*
G37*
G04 #@! TD*
G04 #@! TO.C,C2*
G36*
G01*
X7583000Y32997544D02*
X7583000Y34312456D01*
G75*
G02*
X7850544Y34580000I267544J0D01*
G01*
X8840456Y34580000D01*
G75*
G02*
X9108000Y34312456I0J-267544D01*
G01*
X9108000Y32997544D01*
G75*
G02*
X8840456Y32730000I-267544J0D01*
G01*
X7850544Y32730000D01*
G75*
G02*
X7583000Y32997544I0J267544D01*
G01*
G37*
G36*
G01*
X4608000Y32997544D02*
X4608000Y34312456D01*
G75*
G02*
X4875544Y34580000I267544J0D01*
G01*
X5865456Y34580000D01*
G75*
G02*
X6133000Y34312456I0J-267544D01*
G01*
X6133000Y32997544D01*
G75*
G02*
X5865456Y32730000I-267544J0D01*
G01*
X4875544Y32730000D01*
G75*
G02*
X4608000Y32997544I0J267544D01*
G01*
G37*
G04 #@! TD*
D10*
G04 #@! TO.C,U2*
X77978000Y14859000D03*
X29718000Y30099000D03*
X75438000Y14859000D03*
X32258000Y30099000D03*
X72898000Y14859000D03*
X34798000Y30099000D03*
X70358000Y14859000D03*
X37338000Y30099000D03*
X67818000Y14859000D03*
X39878000Y30099000D03*
X65278000Y14859000D03*
X42418000Y30099000D03*
X62738000Y14859000D03*
X44958000Y30099000D03*
X60198000Y14859000D03*
X47498000Y30099000D03*
X57658000Y14859000D03*
X50038000Y30099000D03*
X55118000Y14859000D03*
X52578000Y30099000D03*
X52578000Y14859000D03*
X55118000Y30099000D03*
X50038000Y14859000D03*
X57658000Y30099000D03*
X47498000Y14859000D03*
X60198000Y30099000D03*
X44958000Y14859000D03*
X62738000Y30099000D03*
X42418000Y14859000D03*
X65278000Y30099000D03*
X39878000Y14859000D03*
X67818000Y30099000D03*
X37338000Y14859000D03*
X70358000Y30099000D03*
X34798000Y14859000D03*
X72898000Y30099000D03*
X32258000Y14859000D03*
X75438000Y30099000D03*
X29718000Y14859000D03*
D11*
X77978000Y30099000D03*
G04 #@! TD*
D10*
G04 #@! TO.C,U1*
X21717000Y31369000D03*
X14097000Y16129000D03*
X21717000Y28829000D03*
X14097000Y18669000D03*
X21717000Y26289000D03*
X14097000Y21209000D03*
X21717000Y23749000D03*
X14097000Y23749000D03*
X21717000Y21209000D03*
X14097000Y26289000D03*
X21717000Y18669000D03*
X14097000Y28829000D03*
X21717000Y16129000D03*
D11*
X14097000Y31369000D03*
G04 #@! TD*
G04 #@! TO.C,C3*
G36*
G01*
X62775000Y23263456D02*
X62775000Y21948544D01*
G75*
G02*
X62507456Y21681000I-267544J0D01*
G01*
X61517544Y21681000D01*
G75*
G02*
X61250000Y21948544I0J267544D01*
G01*
X61250000Y23263456D01*
G75*
G02*
X61517544Y23531000I267544J0D01*
G01*
X62507456Y23531000D01*
G75*
G02*
X62775000Y23263456I0J-267544D01*
G01*
G37*
G36*
G01*
X65750000Y23263456D02*
X65750000Y21948544D01*
G75*
G02*
X65482456Y21681000I-267544J0D01*
G01*
X64492544Y21681000D01*
G75*
G02*
X64225000Y21948544I0J267544D01*
G01*
X64225000Y23263456D01*
G75*
G02*
X64492544Y23531000I267544J0D01*
G01*
X65482456Y23531000D01*
G75*
G02*
X65750000Y23263456I0J-267544D01*
G01*
G37*
G04 #@! TD*
D12*
G04 #@! TO.C,J1*
X17272000Y4064000D03*
X17272000Y6604000D03*
X19812000Y4064000D03*
X19812000Y6604000D03*
X22352000Y4064000D03*
X22352000Y6604000D03*
X24892000Y4064000D03*
X24892000Y6604000D03*
X27432000Y4064000D03*
X27432000Y6604000D03*
X29972000Y4064000D03*
X29972000Y6604000D03*
X32512000Y4064000D03*
X32512000Y6604000D03*
X35052000Y4064000D03*
X35052000Y6604000D03*
X37592000Y4064000D03*
X37592000Y6604000D03*
X40132000Y4064000D03*
X40132000Y6604000D03*
X42672000Y4064000D03*
X42672000Y6604000D03*
X45212000Y4064000D03*
X45212000Y6604000D03*
X47752000Y4064000D03*
X47752000Y6604000D03*
X50292000Y4064000D03*
X50292000Y6604000D03*
X52832000Y4064000D03*
X52832000Y6604000D03*
X55372000Y4064000D03*
X55372000Y6604000D03*
X57912000Y4064000D03*
X57912000Y6604000D03*
X60452000Y4064000D03*
X60452000Y6604000D03*
X62992000Y4064000D03*
X62992000Y6604000D03*
X65532000Y4064000D03*
X65532000Y6604000D03*
X68072000Y4064000D03*
X68072000Y6604000D03*
X70612000Y4064000D03*
X70612000Y6604000D03*
X73152000Y4064000D03*
X73152000Y6604000D03*
X75692000Y4064000D03*
X75692000Y6604000D03*
X78232000Y4064000D03*
D13*
X78232000Y6604000D03*
G04 #@! TD*
M02*
