G04 #@! TF.GenerationSoftware,KiCad,Pcbnew,(5.1.6-0-10_14)*
G04 #@! TF.CreationDate,2021-01-01T23:17:05+01:00*
G04 #@! TF.ProjectId,proc_board,70726f63-5f62-46f6-9172-642e6b696361,rev?*
G04 #@! TF.SameCoordinates,Original*
G04 #@! TF.FileFunction,Paste,Top*
G04 #@! TF.FilePolarity,Positive*
%FSLAX46Y46*%
G04 Gerber Fmt 4.6, Leading zero omitted, Abs format (unit mm)*
G04 Created by KiCad (PCBNEW (5.1.6-0-10_14)) date 2021-01-01 23:17:05*
%MOMM*%
%LPD*%
G01*
G04 APERTURE LIST*
G04 APERTURE END LIST*
G04 #@! TO.C,R1*
G36*
G01*
X24834001Y31565000D02*
X23933999Y31565000D01*
G75*
G02*
X23684000Y31814999I0J249999D01*
G01*
X23684000Y32465001D01*
G75*
G02*
X23933999Y32715000I249999J0D01*
G01*
X24834001Y32715000D01*
G75*
G02*
X25084000Y32465001I0J-249999D01*
G01*
X25084000Y31814999D01*
G75*
G02*
X24834001Y31565000I-249999J0D01*
G01*
G37*
G36*
G01*
X24834001Y29515000D02*
X23933999Y29515000D01*
G75*
G02*
X23684000Y29764999I0J249999D01*
G01*
X23684000Y30415001D01*
G75*
G02*
X23933999Y30665000I249999J0D01*
G01*
X24834001Y30665000D01*
G75*
G02*
X25084000Y30415001I0J-249999D01*
G01*
X25084000Y29764999D01*
G75*
G02*
X24834001Y29515000I-249999J0D01*
G01*
G37*
G04 #@! TD*
G04 #@! TO.C,C1*
G36*
G01*
X45834000Y44821000D02*
X45834000Y43571000D01*
G75*
G02*
X45584000Y43321000I-250000J0D01*
G01*
X44659000Y43321000D01*
G75*
G02*
X44409000Y43571000I0J250000D01*
G01*
X44409000Y44821000D01*
G75*
G02*
X44659000Y45071000I250000J0D01*
G01*
X45584000Y45071000D01*
G75*
G02*
X45834000Y44821000I0J-250000D01*
G01*
G37*
G36*
G01*
X48809000Y44821000D02*
X48809000Y43571000D01*
G75*
G02*
X48559000Y43321000I-250000J0D01*
G01*
X47634000Y43321000D01*
G75*
G02*
X47384000Y43571000I0J250000D01*
G01*
X47384000Y44821000D01*
G75*
G02*
X47634000Y45071000I250000J0D01*
G01*
X48559000Y45071000D01*
G75*
G02*
X48809000Y44821000I0J-250000D01*
G01*
G37*
G04 #@! TD*
G04 #@! TO.C,C4*
G36*
G01*
X20968000Y33665000D02*
X20968000Y34915000D01*
G75*
G02*
X21218000Y35165000I250000J0D01*
G01*
X22143000Y35165000D01*
G75*
G02*
X22393000Y34915000I0J-250000D01*
G01*
X22393000Y33665000D01*
G75*
G02*
X22143000Y33415000I-250000J0D01*
G01*
X21218000Y33415000D01*
G75*
G02*
X20968000Y33665000I0J250000D01*
G01*
G37*
G36*
G01*
X17993000Y33665000D02*
X17993000Y34915000D01*
G75*
G02*
X18243000Y35165000I250000J0D01*
G01*
X19168000Y35165000D01*
G75*
G02*
X19418000Y34915000I0J-250000D01*
G01*
X19418000Y33665000D01*
G75*
G02*
X19168000Y33415000I-250000J0D01*
G01*
X18243000Y33415000D01*
G75*
G02*
X17993000Y33665000I0J250000D01*
G01*
G37*
G04 #@! TD*
M02*
