G04 #@! TF.GenerationSoftware,KiCad,Pcbnew,(5.1.6-0-10_14)*
G04 #@! TF.CreationDate,2021-01-01T23:17:05+01:00*
G04 #@! TF.ProjectId,proc_board,70726f63-5f62-46f6-9172-642e6b696361,rev?*
G04 #@! TF.SameCoordinates,Original*
G04 #@! TF.FileFunction,Soldermask,Top*
G04 #@! TF.FilePolarity,Negative*
%FSLAX46Y46*%
G04 Gerber Fmt 4.6, Leading zero omitted, Abs format (unit mm)*
G04 Created by KiCad (PCBNEW (5.1.6-0-10_14)) date 2021-01-01 23:17:05*
%MOMM*%
%LPD*%
G01*
G04 APERTURE LIST*
%ADD10O,1.700000X1.700000*%
%ADD11R,1.700000X1.700000*%
%ADD12O,1.800000X1.800000*%
%ADD13R,1.800000X1.800000*%
%ADD14O,1.540000X2.100000*%
%ADD15R,1.540000X2.100000*%
G04 APERTURE END LIST*
D10*
G04 #@! TO.C,U5*
X10414000Y33528000D03*
X2794000Y18288000D03*
X10414000Y30988000D03*
X2794000Y20828000D03*
X10414000Y28448000D03*
X2794000Y23368000D03*
X10414000Y25908000D03*
X2794000Y25908000D03*
X10414000Y23368000D03*
X2794000Y28448000D03*
X10414000Y20828000D03*
X2794000Y30988000D03*
X10414000Y18288000D03*
D11*
X2794000Y33528000D03*
G04 #@! TD*
D12*
G04 #@! TO.C,U6*
X78079001Y49276000D03*
X75539001Y49276000D03*
X72999001Y49276000D03*
X70459001Y49276000D03*
X67919001Y49276000D03*
X65379001Y49276000D03*
X62839001Y49276000D03*
X60299001Y49276000D03*
X57759001Y49276000D03*
X55219001Y49276000D03*
X52679001Y49276000D03*
X50139001Y49276000D03*
X47599001Y49276000D03*
D13*
X45059001Y49276000D03*
G04 #@! TD*
D14*
G04 #@! TO.C,U4*
X35433000Y56388000D03*
X35433000Y41148000D03*
X32893000Y56388000D03*
X32893000Y41148000D03*
X30353000Y56388000D03*
X30353000Y41148000D03*
X27813000Y56388000D03*
X27813000Y41148000D03*
X25273000Y56388000D03*
X25273000Y41148000D03*
X22733000Y56388000D03*
X22733000Y41148000D03*
X20193000Y56388000D03*
X20193000Y41148000D03*
X17653000Y56388000D03*
X17653000Y41148000D03*
X15113000Y56388000D03*
X15113000Y41148000D03*
X12573000Y56388000D03*
X12573000Y41148000D03*
X10033000Y56388000D03*
X10033000Y41148000D03*
X7493000Y56388000D03*
X7493000Y41148000D03*
X4953000Y56388000D03*
X4953000Y41148000D03*
X2413000Y56388000D03*
D15*
X2413000Y41148000D03*
G04 #@! TD*
D10*
G04 #@! TO.C,U3*
X45059001Y41453001D03*
X78079001Y33833001D03*
X47599001Y41453001D03*
X75539001Y33833001D03*
X50139001Y41453001D03*
X72999001Y33833001D03*
X52679001Y41453001D03*
X70459001Y33833001D03*
X55219001Y41453001D03*
X67919001Y33833001D03*
X57759001Y41453001D03*
X65379001Y33833001D03*
X60299001Y41453001D03*
X62839001Y33833001D03*
X62839001Y41453001D03*
X60299001Y33833001D03*
X65379001Y41453001D03*
X57759001Y33833001D03*
X67919001Y41453001D03*
X55219001Y33833001D03*
X70459001Y41453001D03*
X52679001Y33833001D03*
X72999001Y41453001D03*
X50139001Y33833001D03*
X75539001Y41453001D03*
X47599001Y33833001D03*
X78079001Y41453001D03*
D11*
X45059001Y33833001D03*
G04 #@! TD*
G04 #@! TO.C,R1*
G36*
G01*
X24862262Y31515000D02*
X23905738Y31515000D01*
G75*
G02*
X23634000Y31786738I0J271738D01*
G01*
X23634000Y32493262D01*
G75*
G02*
X23905738Y32765000I271738J0D01*
G01*
X24862262Y32765000D01*
G75*
G02*
X25134000Y32493262I0J-271738D01*
G01*
X25134000Y31786738D01*
G75*
G02*
X24862262Y31515000I-271738J0D01*
G01*
G37*
G36*
G01*
X24862262Y29465000D02*
X23905738Y29465000D01*
G75*
G02*
X23634000Y29736738I0J271738D01*
G01*
X23634000Y30443262D01*
G75*
G02*
X23905738Y30715000I271738J0D01*
G01*
X24862262Y30715000D01*
G75*
G02*
X25134000Y30443262I0J-271738D01*
G01*
X25134000Y29736738D01*
G75*
G02*
X24862262Y29465000I-271738J0D01*
G01*
G37*
G04 #@! TD*
G04 #@! TO.C,C1*
G36*
G01*
X45884000Y44853456D02*
X45884000Y43538544D01*
G75*
G02*
X45616456Y43271000I-267544J0D01*
G01*
X44626544Y43271000D01*
G75*
G02*
X44359000Y43538544I0J267544D01*
G01*
X44359000Y44853456D01*
G75*
G02*
X44626544Y45121000I267544J0D01*
G01*
X45616456Y45121000D01*
G75*
G02*
X45884000Y44853456I0J-267544D01*
G01*
G37*
G36*
G01*
X48859000Y44853456D02*
X48859000Y43538544D01*
G75*
G02*
X48591456Y43271000I-267544J0D01*
G01*
X47601544Y43271000D01*
G75*
G02*
X47334000Y43538544I0J267544D01*
G01*
X47334000Y44853456D01*
G75*
G02*
X47601544Y45121000I267544J0D01*
G01*
X48591456Y45121000D01*
G75*
G02*
X48859000Y44853456I0J-267544D01*
G01*
G37*
G04 #@! TD*
D10*
G04 #@! TO.C,U2*
X77978000Y14859000D03*
X29718000Y30099000D03*
X75438000Y14859000D03*
X32258000Y30099000D03*
X72898000Y14859000D03*
X34798000Y30099000D03*
X70358000Y14859000D03*
X37338000Y30099000D03*
X67818000Y14859000D03*
X39878000Y30099000D03*
X65278000Y14859000D03*
X42418000Y30099000D03*
X62738000Y14859000D03*
X44958000Y30099000D03*
X60198000Y14859000D03*
X47498000Y30099000D03*
X57658000Y14859000D03*
X50038000Y30099000D03*
X55118000Y14859000D03*
X52578000Y30099000D03*
X52578000Y14859000D03*
X55118000Y30099000D03*
X50038000Y14859000D03*
X57658000Y30099000D03*
X47498000Y14859000D03*
X60198000Y30099000D03*
X44958000Y14859000D03*
X62738000Y30099000D03*
X42418000Y14859000D03*
X65278000Y30099000D03*
X39878000Y14859000D03*
X67818000Y30099000D03*
X37338000Y14859000D03*
X70358000Y30099000D03*
X34798000Y14859000D03*
X72898000Y30099000D03*
X32258000Y14859000D03*
X75438000Y30099000D03*
X29718000Y14859000D03*
D11*
X77978000Y30099000D03*
G04 #@! TD*
D10*
G04 #@! TO.C,U1*
X21717000Y31369000D03*
X14097000Y16129000D03*
X21717000Y28829000D03*
X14097000Y18669000D03*
X21717000Y26289000D03*
X14097000Y21209000D03*
X21717000Y23749000D03*
X14097000Y23749000D03*
X21717000Y21209000D03*
X14097000Y26289000D03*
X21717000Y18669000D03*
X14097000Y28829000D03*
X21717000Y16129000D03*
D11*
X14097000Y31369000D03*
G04 #@! TD*
G04 #@! TO.C,C4*
G36*
G01*
X20918000Y33632544D02*
X20918000Y34947456D01*
G75*
G02*
X21185544Y35215000I267544J0D01*
G01*
X22175456Y35215000D01*
G75*
G02*
X22443000Y34947456I0J-267544D01*
G01*
X22443000Y33632544D01*
G75*
G02*
X22175456Y33365000I-267544J0D01*
G01*
X21185544Y33365000D01*
G75*
G02*
X20918000Y33632544I0J267544D01*
G01*
G37*
G36*
G01*
X17943000Y33632544D02*
X17943000Y34947456D01*
G75*
G02*
X18210544Y35215000I267544J0D01*
G01*
X19200456Y35215000D01*
G75*
G02*
X19468000Y34947456I0J-267544D01*
G01*
X19468000Y33632544D01*
G75*
G02*
X19200456Y33365000I-267544J0D01*
G01*
X18210544Y33365000D01*
G75*
G02*
X17943000Y33632544I0J267544D01*
G01*
G37*
G04 #@! TD*
D12*
G04 #@! TO.C,J1*
X17272000Y4064000D03*
X17272000Y6604000D03*
X19812000Y4064000D03*
X19812000Y6604000D03*
X22352000Y4064000D03*
X22352000Y6604000D03*
X24892000Y4064000D03*
X24892000Y6604000D03*
X27432000Y4064000D03*
X27432000Y6604000D03*
X29972000Y4064000D03*
X29972000Y6604000D03*
X32512000Y4064000D03*
X32512000Y6604000D03*
X35052000Y4064000D03*
X35052000Y6604000D03*
X37592000Y4064000D03*
X37592000Y6604000D03*
X40132000Y4064000D03*
X40132000Y6604000D03*
X42672000Y4064000D03*
X42672000Y6604000D03*
X45212000Y4064000D03*
X45212000Y6604000D03*
X47752000Y4064000D03*
X47752000Y6604000D03*
X50292000Y4064000D03*
X50292000Y6604000D03*
X52832000Y4064000D03*
X52832000Y6604000D03*
X55372000Y4064000D03*
X55372000Y6604000D03*
X57912000Y4064000D03*
X57912000Y6604000D03*
X60452000Y4064000D03*
X60452000Y6604000D03*
X62992000Y4064000D03*
X62992000Y6604000D03*
X65532000Y4064000D03*
X65532000Y6604000D03*
X68072000Y4064000D03*
X68072000Y6604000D03*
X70612000Y4064000D03*
X70612000Y6604000D03*
X73152000Y4064000D03*
X73152000Y6604000D03*
X75692000Y4064000D03*
X75692000Y6604000D03*
X78232000Y4064000D03*
D13*
X78232000Y6604000D03*
G04 #@! TD*
M02*
