<svg height="13.758334mm" viewBox="0 0 232.08145 48.750003" width="65.498543mm" xmlns="http://www.w3.org/2000/svg"><path d="m186.21484 0c-3.55502 0-6.91696.71098732-10.01953 2.0683594-3.1672 1.357372-5.88187 3.1670334-8.27343 5.5585937-2.32693 2.3269235-4.20123 5.0419669-5.5586 8.1445309-1.35737 3.167202-2.06836 6.528963-2.06836 10.083985 0 3.490385.71099 6.785923 2.06836 9.953125 1.35737 3.167201 3.23167 5.881877 5.5586 8.273437 2.39156 2.326924 5.10623 4.201222 8.27343 5.558594 3.10257 1.357372 6.46451 2.068359 10.01953 2.068359 3.55503 0 6.91502-.646534 10.01758-2.003906l-10.01758-6.65625c-2.39156 0-4.58964-.452691-6.72265-1.292969-2.06838-.904914-3.87841-2.134081-5.42969-3.75-1.61592-1.551282-2.84313-3.361311-3.74805-5.429687-.90491-2.133013-1.35742-4.329143-1.35742-6.720703 0-2.391561.45251-4.589643 1.35742-6.722657.90492-2.068376 2.13231-3.878405 3.6836-5.429687 1.55128-1.615919 3.36112-2.845085 5.49414-3.75 2.06837-.8402779 4.33109-1.2910156 6.72265-1.2910156 4.65385 0 8.7266 1.6154506 12.15235 4.9765626l6.13867-6.0117189c-2.39156-2.3915603-5.17087-4.2656748-8.27344-5.6230469-3.10256-1.357372-6.46255-2.0039062-10.01758-2.0039062zm30.20118 0-22.36329 22.298828-3.62109 3.621094 3.62109 3.554687 22.36329 22.234375h12.15234l-25.85547-25.853515 25.85547-25.855469zm-170.910161.1640625v1.421875 38.5878905l8.597657-8.660156v-29.9277345-1.421875zm61.816411.0078125-25.855473 51.710937h9.566406l4.396485-8.662109 4.265624-8.533203 7.626958-15.189453 7.5625 15.189453h9.69531zm7.30078 0v13.056641l42.98437 38.654296v-.066406-.064453-51.580078h-8.5957v30.960937zm-114.62305.11914062 8.5976562 8.66015628h17.2578128c2.326931 0 4.329204.840923 6.009765 2.5214841 1.745199 1.680562 2.585938 3.749241 2.585938 6.076172 0 2.391568-.905376 4.395611-2.585938 6.076172-1.680561 1.680561-3.682834 2.519531-6.009765 2.519531h-17.2578128-8.5976562v25.855469h8.5976562v-17.193359h17.2578128c4.718499 0 8.789268-1.679893 12.15039-5.041016 3.42576-3.361123 5.042969-7.498298 5.042969-12.216797s-1.681846-8.7910371-5.042969-12.2167968c-3.361122-3.3611227-7.431891-5.04101558-12.15039-5.04101558zm54.103516 42.92187538-8.597657 8.660156h34.451172v-8.660156zm65.175784.072265 4.26562 8.597656h9.63086l-4.33008-8.597656z" transform="scale(.9375)"/><g stroke="#000" stroke-width=".643584" transform="matrix(0 -1 1 0 -120.21041 -135.26722)"><path d="m-183.8797 348.4046s.20595.48912.23169.51487l3.16644 3.14069c.15446.15446.36041.23169.54061.23169h2.80603c.20595 0 .4119-.10297.54062-.23169l3.19218-3.19218c.15446-.15446.23169-.36041.23169-.54061v-1.85353c0-.20594-.10298-.41189-.23169-.54061l-3.06347-3.11495c-.15446-.15446-.36041-.23169-.54061-.23169h-2.83177c-.20595 0-.4119.10297-.54061.23169l-1.93076 1.93076v-4.24767l3.44962-3.44961-1.10697-1.08122-3.68131 3.6813c-.15446.15446-.23169.36041-.23169.54061v8.18641zm1.57035-1.54461 2.78029-2.80603h2.18819l2.62582 2.65157v1.28717l-2.7288 2.75455h-2.18819l-2.67731-2.70306z"/><path d="m-160.60042 336.20223h-10.70926v6.25564h6.56457l2.62583 2.62583v2.60008l-2.65157 2.67732h-6.4616v1.5446h6.74477c.20595 0 .43764-.10297.54062-.23169l3.11495-3.11495c.15446-.15446.23169-.36041.23169-.54061v-3.24367c0-.20595-.10298-.43764-.23169-.54061l-3.08921-3.08921c-.15446-.15446-.36041-.23169-.54061-.23169h-5.32889v-3.16644h9.1904z"/><path d="m-153.38503 341.7628c-.43764 0-.7723.36041-.7723.7723v3.16644c0 .4119.33466.7723.7723.7723.41189 0 .7723-.3604.7723-.7723v-3.16644c0-.41189-.36041-.7723-.7723-.7723zm-3.83577-1.31291 2.7288-2.70306h2.21394l2.7288 2.70306v7.31112l-2.65157 2.62583h-2.34265l-2.67732-2.67731zm-1.28717-.84953c-.12871.10297-.23169.33466-.23169.54061v7.87748c0 .1802.0772.38615.23169.54061l3.1407 3.14069c.10297.12872.33466.23169.54061.23169h2.93475c.15446 0 .38615-.0772.54061-.23169l3.08921-3.0892c.12871-.10298.23169-.33467.23169-.54062v-7.92896c0-.18021-.0772-.4119-.23169-.54061l-3.16644-3.16644c-.12872-.12872-.33467-.23169-.54061-.23169h-2.80603c-.18021 0-.4119.0772-.54062.23169z"/><path d="m-144.65078 340.93901v-.51487l2.67732-2.67731h3.88725l1.10697 1.10697v2.62582l-9.03594 9.16465c-.15446.15446-.23169.36041-.23169.54062 0 .1802.0772.38615.23169.54061.15446.15446.36041.23169.54061.23169h10.01419v-1.54461h-8.13492l7.90323-8.08342c.12871-.12872.23169-.33467.23169-.54062v-3.24366c0-.18021-.0772-.38615-.23169-.54062l-1.57035-1.57034c-.12872-.12872-.33466-.23169-.54061-.23169h-4.47935c-.18021 0-.38615.0772-.54061.23169l-3.11496 3.14069c-.12871.12872-.23169.33467-.23169.54061v.82379z"/></g></svg>