M48
; DRILL file {KiCad 7.0.6-0} date 2023 July 30, Sunday 18:46:14
; FORMAT={-:-/ absolute / inch / decimal}
; #@! TF.CreationDate,2023-07-30T18:46:14+02:00
; #@! TF.GenerationSoftware,Kicad,Pcbnew,7.0.6-0
; #@! TF.FileFunction,MixedPlating,1,2
FMAT,2
INCH
; #@! TA.AperFunction,Plated,PTH,ViaDrill
T1C0.0157
; #@! TA.AperFunction,Plated,PTH,ComponentDrill
T2C0.0315
; #@! TA.AperFunction,Plated,PTH,ComponentDrill
T3C0.0394
; #@! TA.AperFunction,Plated,PTH,ComponentDrill
T4C0.0402
; #@! TA.AperFunction,Plated,PTH,ComponentDrill
T5C0.1260
; #@! TA.AperFunction,NonPlated,NPTH,ComponentDrill
T6C0.0591
; #@! TA.AperFunction,NonPlated,NPTH,ComponentDrill
T7C0.0709
%
G90
G05
T1
X3.8Y-4.92
X3.9Y-4.92
X3.9325Y-5.0125
X4.135Y-4.73
X4.1637Y-4.5113
X4.2Y-5.285
X4.22Y-5.505
X4.3Y-5.285
X4.35Y-4.915
X4.35Y-5.285
X4.3649Y-4.76
X4.3927Y-4.4615
X4.4215Y-5.21
X4.44Y-5.015
X4.45Y-5.25
X4.49Y-4.44
X4.585Y-5.485
X4.5855Y-5.5258
X4.6252Y-5.4848
X4.655Y-5.215
X4.685Y-4.915
X4.7625Y-5.1275
X4.78Y-5.37
X5.025Y-5.525
X5.135Y-5.28
X5.185Y-4.915
X5.185Y-5.28
X5.3843Y-5.5257
X5.5401Y-5.5635
X5.565Y-4.455
X5.5948Y-4.4848
X5.6171Y-5.6406
X5.655Y-5.6285
X5.69Y-4.1729
X5.7299Y-4.1734
T2
X3.5616Y-3.715
X3.69Y-5.0916
X3.69Y-5.2884
X3.7584Y-3.715
X3.805Y-4.8021
X3.8566Y-3.715
X3.86Y-5.46
X4.0019Y-4.8021
X4.0534Y-3.715
X4.36Y-5.46
X4.53Y-5.0866
X4.53Y-5.2834
X4.6866Y-4.7971
X4.8835Y-4.7971
X5.6854Y-4.7348
X5.6854Y-4.8348
X5.6854Y-4.9348
X5.6854Y-5.0348
X5.6854Y-5.1348
X5.6854Y-5.2348
X5.6854Y-5.3348
X5.765Y-4.53
X5.775Y-3.7443
X5.775Y-3.8443
X5.775Y-3.9743
X5.775Y-4.0743
X5.865Y-4.53
X5.93Y-3.7435
X5.93Y-3.8435
X5.93Y-3.9743
X5.93Y-4.0743
X5.93Y-4.205
X5.93Y-4.305
X5.9854Y-4.7348
X5.9854Y-4.8348
X5.9854Y-4.9348
X5.9854Y-5.0348
X5.9854Y-5.1348
X5.9854Y-5.2348
X5.9854Y-5.3348
X6.015Y-4.525
X6.085Y-3.7443
X6.085Y-3.8443
X6.085Y-3.9743
X6.085Y-4.0743
X6.085Y-4.2043
X6.085Y-4.3043
X6.115Y-4.525
X6.115Y-4.7166
X6.115Y-4.9134
T3
X4.16Y-5.705
X4.16Y-5.805
X4.26Y-5.705
X4.26Y-5.805
X4.36Y-5.705
X4.36Y-5.805
X4.46Y-5.705
X4.46Y-5.805
X4.56Y-5.705
X4.56Y-5.805
X4.66Y-5.705
X4.66Y-5.805
X4.76Y-5.705
X4.76Y-5.805
X4.86Y-5.705
X4.86Y-5.805
X4.96Y-5.705
X4.96Y-5.805
X5.06Y-5.705
X5.06Y-5.805
X5.16Y-5.705
X5.16Y-5.805
X5.26Y-5.705
X5.26Y-5.805
X5.36Y-5.705
X5.36Y-5.805
X5.46Y-5.705
X5.46Y-5.805
X5.56Y-5.705
X5.56Y-5.805
X5.66Y-5.705
X5.66Y-5.805
X5.76Y-5.705
X5.76Y-5.805
X5.86Y-5.705
X5.86Y-5.805
X5.96Y-5.705
X5.96Y-5.805
X6.06Y-5.705
X6.06Y-5.805
X6.16Y-5.705
X6.16Y-5.805
X6.26Y-5.705
X6.26Y-5.805
X6.3325Y-4.0957
X6.3325Y-4.1859
X6.3325Y-4.276
X6.3325Y-4.3662
X6.3325Y-4.4563
X6.36Y-5.705
X6.36Y-5.805
X6.4105Y-4.0506
X6.4105Y-4.1408
X6.4105Y-4.2309
X6.4105Y-4.3211
X6.4105Y-4.4113
X6.46Y-5.705
X6.46Y-5.805
X6.4885Y-4.0957
X6.4885Y-4.1859
X6.4885Y-4.276
X6.4885Y-4.3662
X6.4885Y-4.4563
X6.56Y-5.705
X6.56Y-5.805
T4
X3.61Y-3.895
X3.61Y-4.595
X3.71Y-3.895
X3.71Y-4.595
X3.81Y-3.895
X3.81Y-4.595
X3.91Y-3.895
X3.91Y-4.595
X4.01Y-3.895
X4.01Y-4.595
X4.11Y-3.895
X4.11Y-4.595
X4.21Y-3.895
X4.21Y-4.595
X4.31Y-3.895
X4.31Y-4.595
X4.41Y-3.895
X4.41Y-4.595
X4.51Y-3.895
X4.51Y-4.595
X4.61Y-3.895
X4.61Y-4.595
X4.71Y-3.895
X4.71Y-4.595
X4.81Y-3.895
X4.81Y-4.595
X4.91Y-3.895
X4.91Y-4.595
X5.01Y-3.895
X5.01Y-4.595
X5.11Y-3.895
X5.11Y-4.595
X5.21Y-3.895
X5.21Y-4.595
X5.31Y-3.895
X5.31Y-4.595
X5.41Y-3.895
X5.41Y-4.595
X5.5009Y-4.145
X5.5009Y-4.245
X5.5009Y-4.345
X5.51Y-3.895
X5.51Y-4.595
T5
X6.4133Y-3.7735
X6.4133Y-4.7577
T6
X3.7344Y-4.1495
X3.7344Y-4.3405
T7
X3.6151Y-4.1377
X3.6151Y-4.3523
T0
M30
