%TF.GenerationSoftware,KiCad,Pcbnew,7.0.6-0*%
%TF.CreationDate,2023-07-30T18:46:11+02:00*%
%TF.ProjectId,pico_vga,7069636f-5f76-4676-912e-6b696361645f,v1.0*%
%TF.SameCoordinates,Original*%
%TF.FileFunction,Soldermask,Bot*%
%TF.FilePolarity,Negative*%
%FSLAX46Y46*%
G04 Gerber Fmt 4.6, Leading zero omitted, Abs format (unit mm)*
G04 Created by KiCad (PCBNEW 7.0.6-0) date 2023-07-30 18:46:11*
%MOMM*%
%LPD*%
G01*
G04 APERTURE LIST*
G04 Aperture macros list*
%AMRoundRect*
0 Rectangle with rounded corners*
0 $1 Rounding radius*
0 $2 $3 $4 $5 $6 $7 $8 $9 X,Y pos of 4 corners*
0 Add a 4 corners polygon primitive as box body*
4,1,4,$2,$3,$4,$5,$6,$7,$8,$9,$2,$3,0*
0 Add four circle primitives for the rounded corners*
1,1,$1+$1,$2,$3*
1,1,$1+$1,$4,$5*
1,1,$1+$1,$6,$7*
1,1,$1+$1,$8,$9*
0 Add four rect primitives between the rounded corners*
20,1,$1+$1,$2,$3,$4,$5,0*
20,1,$1+$1,$4,$5,$6,$7,0*
20,1,$1+$1,$6,$7,$8,$9,0*
20,1,$1+$1,$8,$9,$2,$3,0*%
G04 Aperture macros list end*
%ADD10O,1.800000X1.800000*%
%ADD11RoundRect,0.050000X-0.850000X0.850000X-0.850000X-0.850000X0.850000X-0.850000X0.850000X0.850000X0*%
%ADD12O,1.700000X1.700000*%
%ADD13RoundRect,0.050000X-0.800000X-0.800000X0.800000X-0.800000X0.800000X0.800000X-0.800000X0.800000X0*%
%ADD14C,1.700000*%
%ADD15RoundRect,0.050000X0.850000X-0.850000X0.850000X0.850000X-0.850000X0.850000X-0.850000X-0.850000X0*%
%ADD16O,1.900000X1.900000*%
%ADD17O,1.600000X1.600000*%
%ADD18RoundRect,0.050000X0.800000X-0.800000X0.800000X0.800000X-0.800000X0.800000X-0.800000X-0.800000X0*%
%ADD19C,4.100000*%
G04 APERTURE END LIST*
D10*
%TO.C,J1*%
X105664000Y-147447000D03*
X105664000Y-144907000D03*
X108204000Y-147447000D03*
X108204000Y-144907000D03*
X110744000Y-147447000D03*
X110744000Y-144907000D03*
X113284000Y-147447000D03*
X113284000Y-144907000D03*
X115824000Y-147447000D03*
X115824000Y-144907000D03*
X118364000Y-147447000D03*
X118364000Y-144907000D03*
X120904000Y-147447000D03*
X120904000Y-144907000D03*
X123444000Y-147447000D03*
X123444000Y-144907000D03*
X125984000Y-147447000D03*
X125984000Y-144907000D03*
X128524000Y-147447000D03*
X128524000Y-144907000D03*
X131064000Y-147447000D03*
X131064000Y-144907000D03*
X133604000Y-147447000D03*
X133604000Y-144907000D03*
X136144000Y-147447000D03*
X136144000Y-144907000D03*
X138684000Y-147447000D03*
X138684000Y-144907000D03*
X141224000Y-147447000D03*
X141224000Y-144907000D03*
X143764000Y-147447000D03*
X143764000Y-144907000D03*
X146304000Y-147447000D03*
X146304000Y-144907000D03*
X148844000Y-147447000D03*
X148844000Y-144907000D03*
X151384000Y-147447000D03*
X151384000Y-144907000D03*
X153924000Y-147447000D03*
X153924000Y-144907000D03*
X156464000Y-147447000D03*
X156464000Y-144907000D03*
X159004000Y-147447000D03*
X159004000Y-144907000D03*
X161544000Y-147447000D03*
X161544000Y-144907000D03*
X164084000Y-147447000D03*
X164084000Y-144907000D03*
X166624000Y-147447000D03*
D11*
X166624000Y-144907000D03*
%TD*%
D12*
%TO.C,U1*%
X152029000Y-120264000D03*
X152029000Y-122804000D03*
X152029000Y-125344000D03*
X152029000Y-127884000D03*
X152029000Y-130424000D03*
X152029000Y-132964000D03*
X152029000Y-135504000D03*
X144409000Y-135504000D03*
X144409000Y-132964000D03*
X144409000Y-130424000D03*
X144409000Y-127884000D03*
X144409000Y-125344000D03*
X144409000Y-122804000D03*
D13*
X144409000Y-120264000D03*
%TD*%
D14*
%TO.C,C5*%
X124040000Y-121847000D03*
X119040000Y-121847000D03*
%TD*%
D12*
%TO.C,R1*%
X98044000Y-138684000D03*
D14*
X110744000Y-138684000D03*
%TD*%
D12*
%TO.C,R4*%
X150622000Y-106807000D03*
D14*
X150622000Y-109347000D03*
%TD*%
D12*
%TO.C,R9*%
X154559000Y-95104000D03*
D14*
X154559000Y-97644000D03*
%TD*%
D12*
%TO.C,R5*%
X154559000Y-106788000D03*
D14*
X154559000Y-109328000D03*
%TD*%
D12*
%TO.C,R8*%
X154559000Y-100946000D03*
D14*
X154559000Y-103486000D03*
%TD*%
D12*
%TO.C,R7*%
X150622000Y-100946000D03*
D14*
X150622000Y-103486000D03*
%TD*%
D10*
%TO.C,U3*%
X139724000Y-105283000D03*
D15*
X139724000Y-107823000D03*
D10*
X139724000Y-110363000D03*
X91694000Y-98933000D03*
X94234000Y-98933000D03*
D15*
X96774000Y-98933000D03*
D10*
X99314000Y-98933000D03*
X101854000Y-98933000D03*
X104394000Y-98933000D03*
X106934000Y-98933000D03*
D15*
X109474000Y-98933000D03*
D10*
X112014000Y-98933000D03*
X114554000Y-98933000D03*
X117094000Y-98933000D03*
X119634000Y-98933000D03*
D15*
X122174000Y-98933000D03*
D10*
X124714000Y-98933000D03*
X127254000Y-98933000D03*
X129794000Y-98933000D03*
X132334000Y-98933000D03*
D15*
X134874000Y-98933000D03*
D10*
X137414000Y-98933000D03*
X139954000Y-98933000D03*
X139954000Y-116713000D03*
X137414000Y-116713000D03*
D15*
X134874000Y-116713000D03*
D10*
X132334000Y-116713000D03*
X129794000Y-116713000D03*
X127254000Y-116713000D03*
X124714000Y-116713000D03*
D15*
X122174000Y-116713000D03*
D10*
X119634000Y-116713000D03*
X117094000Y-116713000D03*
X114554000Y-116713000D03*
X112014000Y-116713000D03*
D15*
X109474000Y-116713000D03*
D10*
X106934000Y-116713000D03*
X104394000Y-116713000D03*
X101854000Y-116713000D03*
X99314000Y-116713000D03*
D15*
X96774000Y-116713000D03*
D10*
X94234000Y-116713000D03*
X91694000Y-116713000D03*
D16*
X91824000Y-105098000D03*
D17*
X94854000Y-105398000D03*
X94854000Y-110248000D03*
D16*
X91824000Y-110548000D03*
%TD*%
D14*
%TO.C,J2*%
X164806669Y-113191000D03*
X164806669Y-110901000D03*
X164806669Y-108611000D03*
X164806669Y-106321000D03*
X164806669Y-104031000D03*
X162826669Y-112046000D03*
X162826669Y-109756000D03*
X162826669Y-107466000D03*
X162826669Y-105176000D03*
X162826669Y-102886000D03*
X160846669Y-113191000D03*
X160846669Y-110901000D03*
X160846669Y-108611000D03*
X160846669Y-106321000D03*
D18*
X160846669Y-104031000D03*
D19*
X162896669Y-95846000D03*
X162896669Y-120846000D03*
%TD*%
D12*
%TO.C,R10*%
X150622000Y-95085000D03*
D14*
X150622000Y-97625000D03*
%TD*%
D12*
%TO.C,R2*%
X155321000Y-114935000D03*
D14*
X152781000Y-114935000D03*
%TD*%
%TO.C,C7*%
X101648000Y-121974000D03*
X96648000Y-121974000D03*
%TD*%
%TO.C,C6*%
X95464000Y-94361000D03*
X90464000Y-94361000D03*
%TD*%
D12*
%TO.C,R3*%
X148971000Y-115062000D03*
D14*
X146431000Y-115062000D03*
%TD*%
%TO.C,C1*%
X93726000Y-129326000D03*
X93726000Y-134326000D03*
%TD*%
%TO.C,C3*%
X115062000Y-129199000D03*
X115062000Y-134199000D03*
%TD*%
%TO.C,C2*%
X155321000Y-124801000D03*
X155321000Y-119801000D03*
%TD*%
D12*
%TO.C,R6*%
X146685000Y-100946000D03*
D14*
X146685000Y-103486000D03*
%TD*%
D12*
%TO.C,R11*%
X146685000Y-95104000D03*
D14*
X146685000Y-97644000D03*
%TD*%
%TO.C,C4*%
X102957000Y-94361000D03*
X97957000Y-94361000D03*
%TD*%
M02*
