%TF.GenerationSoftware,KiCad,Pcbnew,7.0.6-0*%
%TF.CreationDate,2023-07-30T18:46:11+02:00*%
%TF.ProjectId,pico_vga,7069636f-5f76-4676-912e-6b696361645f,v1.0*%
%TF.SameCoordinates,Original*%
%TF.FileFunction,Paste,Top*%
%TF.FilePolarity,Positive*%
%FSLAX46Y46*%
G04 Gerber Fmt 4.6, Leading zero omitted, Abs format (unit mm)*
G04 Created by KiCad (PCBNEW 7.0.6-0) date 2023-07-30 18:46:11*
%MOMM*%
%LPD*%
G01*
G04 APERTURE LIST*
G04 Aperture macros list*
%AMRoundRect*
0 Rectangle with rounded corners*
0 $1 Rounding radius*
0 $2 $3 $4 $5 $6 $7 $8 $9 X,Y pos of 4 corners*
0 Add a 4 corners polygon primitive as box body*
4,1,4,$2,$3,$4,$5,$6,$7,$8,$9,$2,$3,0*
0 Add four circle primitives for the rounded corners*
1,1,$1+$1,$2,$3*
1,1,$1+$1,$4,$5*
1,1,$1+$1,$6,$7*
1,1,$1+$1,$8,$9*
0 Add four rect primitives between the rounded corners*
20,1,$1+$1,$2,$3,$4,$5,0*
20,1,$1+$1,$4,$5,$6,$7,0*
20,1,$1+$1,$6,$7,$8,$9,0*
20,1,$1+$1,$8,$9,$2,$3,0*%
G04 Aperture macros list end*
%ADD10RoundRect,0.137500X0.137500X-0.862500X0.137500X0.862500X-0.137500X0.862500X-0.137500X-0.862500X0*%
G04 APERTURE END LIST*
D10*
%TO.C,U2*%
X96521000Y-124944000D03*
X97791000Y-124944000D03*
X99061000Y-124944000D03*
X100331000Y-124944000D03*
X101601000Y-124944000D03*
X102871000Y-124944000D03*
X104141000Y-124944000D03*
X105411000Y-124944000D03*
X106681000Y-124944000D03*
X107951000Y-124944000D03*
X109221000Y-124944000D03*
X110491000Y-124944000D03*
X110491000Y-134244000D03*
X109221000Y-134244000D03*
X107951000Y-134244000D03*
X106681000Y-134244000D03*
X105411000Y-134244000D03*
X104141000Y-134244000D03*
X102871000Y-134244000D03*
X101601000Y-134244000D03*
X100331000Y-134244000D03*
X99061000Y-134244000D03*
X97791000Y-134244000D03*
X96521000Y-134244000D03*
%TD*%
%TO.C,U4*%
X117730000Y-124817000D03*
X119000000Y-124817000D03*
X120270000Y-124817000D03*
X121540000Y-124817000D03*
X122810000Y-124817000D03*
X124080000Y-124817000D03*
X125350000Y-124817000D03*
X126620000Y-124817000D03*
X127890000Y-124817000D03*
X129160000Y-124817000D03*
X130430000Y-124817000D03*
X131700000Y-124817000D03*
X131700000Y-134117000D03*
X130430000Y-134117000D03*
X129160000Y-134117000D03*
X127890000Y-134117000D03*
X126620000Y-134117000D03*
X125350000Y-134117000D03*
X124080000Y-134117000D03*
X122810000Y-134117000D03*
X121540000Y-134117000D03*
X120270000Y-134117000D03*
X119000000Y-134117000D03*
X117730000Y-134117000D03*
%TD*%
M02*
