%TF.GenerationSoftware,KiCad,Pcbnew,7.0.6-0*%
%TF.CreationDate,2023-07-30T18:46:11+02:00*%
%TF.ProjectId,pico_vga,7069636f-5f76-4676-912e-6b696361645f,v1.0*%
%TF.SameCoordinates,Original*%
%TF.FileFunction,Copper,L1,Top*%
%TF.FilePolarity,Positive*%
%FSLAX46Y46*%
G04 Gerber Fmt 4.6, Leading zero omitted, Abs format (unit mm)*
G04 Created by KiCad (PCBNEW 7.0.6-0) date 2023-07-30 18:46:11*
%MOMM*%
%LPD*%
G01*
G04 APERTURE LIST*
G04 Aperture macros list*
%AMRoundRect*
0 Rectangle with rounded corners*
0 $1 Rounding radius*
0 $2 $3 $4 $5 $6 $7 $8 $9 X,Y pos of 4 corners*
0 Add a 4 corners polygon primitive as box body*
4,1,4,$2,$3,$4,$5,$6,$7,$8,$9,$2,$3,0*
0 Add four circle primitives for the rounded corners*
1,1,$1+$1,$2,$3*
1,1,$1+$1,$4,$5*
1,1,$1+$1,$6,$7*
1,1,$1+$1,$8,$9*
0 Add four rect primitives between the rounded corners*
20,1,$1+$1,$2,$3,$4,$5,0*
20,1,$1+$1,$4,$5,$6,$7,0*
20,1,$1+$1,$6,$7,$8,$9,0*
20,1,$1+$1,$8,$9,$2,$3,0*%
G04 Aperture macros list end*
%TA.AperFunction,ComponentPad*%
%ADD10O,1.700000X1.700000*%
%TD*%
%TA.AperFunction,ComponentPad*%
%ADD11R,1.700000X1.700000*%
%TD*%
%TA.AperFunction,ComponentPad*%
%ADD12O,1.600000X1.600000*%
%TD*%
%TA.AperFunction,ComponentPad*%
%ADD13R,1.600000X1.600000*%
%TD*%
%TA.AperFunction,ComponentPad*%
%ADD14C,1.600000*%
%TD*%
%TA.AperFunction,SMDPad,CuDef*%
%ADD15R,3.500000X1.700000*%
%TD*%
%TA.AperFunction,SMDPad,CuDef*%
%ADD16R,1.700000X3.500000*%
%TD*%
%TA.AperFunction,SMDPad,CuDef*%
%ADD17RoundRect,0.137500X0.137500X-0.862500X0.137500X0.862500X-0.137500X0.862500X-0.137500X-0.862500X0*%
%TD*%
%TA.AperFunction,ComponentPad*%
%ADD18C,4.000000*%
%TD*%
%TA.AperFunction,ViaPad*%
%ADD19C,0.800000*%
%TD*%
%TA.AperFunction,Conductor*%
%ADD20C,0.250000*%
%TD*%
%TA.AperFunction,Conductor*%
%ADD21C,0.500000*%
%TD*%
G04 APERTURE END LIST*
D10*
%TO.P,J1,50,Pin_50*%
%TO.N,~{NMI}*%
X105664000Y-147447000D03*
%TO.P,J1,49,Pin_49*%
%TO.N,~{RESET}*%
X105664000Y-144907000D03*
%TO.P,J1,48,Pin_48*%
%TO.N,~{SLOT_IRQ}*%
X108204000Y-147447000D03*
%TO.P,J1,47,Pin_47*%
%TO.N,SYNC*%
X108204000Y-144907000D03*
%TO.P,J1,46,Pin_46*%
%TO.N,EX3*%
X110744000Y-147447000D03*
%TO.P,J1,45,Pin_45*%
%TO.N,~{IRQ}*%
X110744000Y-144907000D03*
%TO.P,J1,44,Pin_44*%
%TO.N,EX2*%
X113284000Y-147447000D03*
%TO.P,J1,43,Pin_43*%
%TO.N,R~{W}*%
X113284000Y-144907000D03*
%TO.P,J1,42,Pin_42*%
%TO.N,CLK_12M*%
X115824000Y-147447000D03*
%TO.P,J1,41,Pin_41*%
%TO.N,CLK*%
X115824000Y-144907000D03*
%TO.P,J1,40,Pin_40*%
%TO.N,LED4*%
X118364000Y-147447000D03*
%TO.P,J1,39,Pin_39*%
%TO.N,BE*%
X118364000Y-144907000D03*
%TO.P,J1,38,Pin_38*%
%TO.N,LED3*%
X120904000Y-147447000D03*
%TO.P,J1,37,Pin_37*%
%TO.N,RDY*%
X120904000Y-144907000D03*
%TO.P,J1,36,Pin_36*%
%TO.N,LED2*%
X123444000Y-147447000D03*
%TO.P,J1,35,Pin_35*%
%TO.N,A15*%
X123444000Y-144907000D03*
%TO.P,J1,34,Pin_34*%
%TO.N,LED1*%
X125984000Y-147447000D03*
%TO.P,J1,33,Pin_33*%
%TO.N,A14*%
X125984000Y-144907000D03*
%TO.P,J1,32,Pin_32*%
%TO.N,~{SLOT_SEL}*%
X128524000Y-147447000D03*
%TO.P,J1,31,Pin_31*%
%TO.N,A13*%
X128524000Y-144907000D03*
%TO.P,J1,30,Pin_30*%
%TO.N,~{INH}*%
X131064000Y-147447000D03*
%TO.P,J1,29,Pin_29*%
%TO.N,A12*%
X131064000Y-144907000D03*
%TO.P,J1,28,Pin_28*%
%TO.N,~{SSEL}*%
X133604000Y-147447000D03*
%TO.P,J1,27,Pin_27*%
%TO.N,A11*%
X133604000Y-144907000D03*
%TO.P,J1,26,Pin_26*%
%TO.N,GND*%
X136144000Y-147447000D03*
%TO.P,J1,25,Pin_25*%
%TO.N,+5V*%
X136144000Y-144907000D03*
%TO.P,J1,24,Pin_24*%
X138684000Y-147447000D03*
%TO.P,J1,23,Pin_23*%
%TO.N,GND*%
X138684000Y-144907000D03*
%TO.P,J1,22,Pin_22*%
%TO.N,~{SLOW}*%
X141224000Y-147447000D03*
%TO.P,J1,21,Pin_21*%
%TO.N,A10*%
X141224000Y-144907000D03*
%TO.P,J1,20,Pin_20*%
%TO.N,EX1*%
X143764000Y-147447000D03*
%TO.P,J1,19,Pin_19*%
%TO.N,A9*%
X143764000Y-144907000D03*
%TO.P,J1,18,Pin_18*%
%TO.N,EX0*%
X146304000Y-147447000D03*
%TO.P,J1,17,Pin_17*%
%TO.N,A8*%
X146304000Y-144907000D03*
%TO.P,J1,16,Pin_16*%
%TO.N,D7*%
X148844000Y-147447000D03*
%TO.P,J1,15,Pin_15*%
%TO.N,A7*%
X148844000Y-144907000D03*
%TO.P,J1,14,Pin_14*%
%TO.N,D6*%
X151384000Y-147447000D03*
%TO.P,J1,13,Pin_13*%
%TO.N,A6*%
X151384000Y-144907000D03*
%TO.P,J1,12,Pin_12*%
%TO.N,D5*%
X153924000Y-147447000D03*
%TO.P,J1,11,Pin_11*%
%TO.N,A5*%
X153924000Y-144907000D03*
%TO.P,J1,10,Pin_10*%
%TO.N,D4*%
X156464000Y-147447000D03*
%TO.P,J1,9,Pin_9*%
%TO.N,A4*%
X156464000Y-144907000D03*
%TO.P,J1,8,Pin_8*%
%TO.N,D3*%
X159004000Y-147447000D03*
%TO.P,J1,7,Pin_7*%
%TO.N,A3*%
X159004000Y-144907000D03*
%TO.P,J1,6,Pin_6*%
%TO.N,D2*%
X161544000Y-147447000D03*
%TO.P,J1,5,Pin_5*%
%TO.N,A2*%
X161544000Y-144907000D03*
%TO.P,J1,4,Pin_4*%
%TO.N,D1*%
X164084000Y-147447000D03*
%TO.P,J1,3,Pin_3*%
%TO.N,A1*%
X164084000Y-144907000D03*
%TO.P,J1,2,Pin_2*%
%TO.N,D0*%
X166624000Y-147447000D03*
D11*
%TO.P,J1,1,Pin_1*%
%TO.N,A0*%
X166624000Y-144907000D03*
%TD*%
D12*
%TO.P,U1,14,VCC*%
%TO.N,+5V*%
X152029000Y-120264000D03*
%TO.P,U1,13*%
%TO.N,GND*%
X152029000Y-122804000D03*
%TO.P,U1,12*%
X152029000Y-125344000D03*
%TO.P,U1,11*%
%TO.N,unconnected-(U1-Pad11)*%
X152029000Y-127884000D03*
%TO.P,U1,10*%
%TO.N,GND*%
X152029000Y-130424000D03*
%TO.P,U1,9*%
X152029000Y-132964000D03*
%TO.P,U1,8*%
%TO.N,unconnected-(U1-Pad8)*%
X152029000Y-135504000D03*
%TO.P,U1,7,GND*%
%TO.N,GND*%
X144409000Y-135504000D03*
%TO.P,U1,6*%
%TO.N,unconnected-(U1-Pad6)*%
X144409000Y-132964000D03*
%TO.P,U1,5*%
%TO.N,GND*%
X144409000Y-130424000D03*
%TO.P,U1,4*%
X144409000Y-127884000D03*
%TO.P,U1,3*%
%TO.N,Net-(U4-DIR)*%
X144409000Y-125344000D03*
%TO.P,U1,2*%
%TO.N,R~{W}*%
X144409000Y-122804000D03*
D13*
%TO.P,U1,1*%
X144409000Y-120264000D03*
%TD*%
D14*
%TO.P,C5,2*%
%TO.N,GND*%
X124040000Y-121847000D03*
%TO.P,C5,1*%
%TO.N,+3.3V*%
X119040000Y-121847000D03*
%TD*%
D12*
%TO.P,R1,2*%
%TO.N,Net-(U2-DIR)*%
X98044000Y-138684000D03*
D14*
%TO.P,R1,1*%
%TO.N,+5V*%
X110744000Y-138684000D03*
%TD*%
D12*
%TO.P,R4,2*%
%TO.N,/B*%
X150622000Y-106807000D03*
D14*
%TO.P,R4,1*%
%TO.N,/B0*%
X150622000Y-109347000D03*
%TD*%
D12*
%TO.P,R9,2*%
%TO.N,/R*%
X154559000Y-95104000D03*
D14*
%TO.P,R9,1*%
%TO.N,/R0*%
X154559000Y-97644000D03*
%TD*%
D12*
%TO.P,R5,2*%
%TO.N,/B*%
X154559000Y-106788000D03*
D14*
%TO.P,R5,1*%
%TO.N,/B1*%
X154559000Y-109328000D03*
%TD*%
D12*
%TO.P,R8,2*%
%TO.N,/G*%
X154559000Y-100946000D03*
D14*
%TO.P,R8,1*%
%TO.N,/G2*%
X154559000Y-103486000D03*
%TD*%
D12*
%TO.P,R7,2*%
%TO.N,/G*%
X150622000Y-100946000D03*
D14*
%TO.P,R7,1*%
%TO.N,/G1*%
X150622000Y-103486000D03*
%TD*%
D15*
%TO.P,U3,43,SWDIO*%
%TO.N,unconnected-(U3-SWDIO-Pad43)*%
X140624000Y-105283000D03*
D10*
X139724000Y-105283000D03*
D15*
%TO.P,U3,42,GND*%
%TO.N,GND*%
X140624000Y-107823000D03*
D11*
X139724000Y-107823000D03*
D15*
%TO.P,U3,41,SWCLK*%
%TO.N,unconnected-(U3-SWCLK-Pad41)*%
X140624000Y-110363000D03*
D10*
X139724000Y-110363000D03*
D16*
%TO.P,U3,40,VBUS*%
%TO.N,+3.3V*%
X91694000Y-98033000D03*
D10*
X91694000Y-98933000D03*
D16*
%TO.P,U3,39,VSYS*%
%TO.N,+5V*%
X94234000Y-98033000D03*
D10*
X94234000Y-98933000D03*
D16*
%TO.P,U3,38,GND*%
%TO.N,GND*%
X96774000Y-98033000D03*
D11*
X96774000Y-98933000D03*
D16*
%TO.P,U3,37,3V3_EN*%
%TO.N,unconnected-(U3-3V3_EN-Pad37)*%
X99314000Y-98033000D03*
D10*
X99314000Y-98933000D03*
D16*
%TO.P,U3,36,3V3*%
%TO.N,unconnected-(U3-3V3-Pad36)*%
X101854000Y-98033000D03*
D10*
X101854000Y-98933000D03*
D16*
%TO.P,U3,35,ADC_VREF*%
%TO.N,unconnected-(U3-ADC_VREF-Pad35)*%
X104394000Y-98033000D03*
D10*
X104394000Y-98933000D03*
D16*
%TO.P,U3,34,GPIO28_ADC2*%
%TO.N,~{SLOT_IRQ}*%
X106934000Y-98033000D03*
D10*
X106934000Y-98933000D03*
D16*
%TO.P,U3,33,AGND*%
%TO.N,unconnected-(U3-AGND-Pad33)*%
X109474000Y-98033000D03*
D11*
X109474000Y-98933000D03*
D16*
%TO.P,U3,32,GPIO27_ADC1*%
%TO.N,Net-(U2-B7)*%
X112014000Y-98033000D03*
D10*
X112014000Y-98933000D03*
D16*
%TO.P,U3,31,GPIO26_ADC0*%
%TO.N,/VSYNC*%
X114554000Y-98033000D03*
D10*
X114554000Y-98933000D03*
D16*
%TO.P,U3,30,RUN*%
%TO.N,unconnected-(U3-RUN-Pad30)*%
X117094000Y-98033000D03*
D10*
X117094000Y-98933000D03*
D16*
%TO.P,U3,29,GPIO22*%
%TO.N,/HSYNC*%
X119634000Y-98033000D03*
D10*
X119634000Y-98933000D03*
D16*
%TO.P,U3,28,GND*%
%TO.N,GND*%
X122174000Y-98033000D03*
D11*
X122174000Y-98933000D03*
D16*
%TO.P,U3,27,GPIO21*%
%TO.N,/B0*%
X124714000Y-98033000D03*
D10*
X124714000Y-98933000D03*
D16*
%TO.P,U3,26,GPIO20*%
%TO.N,/B1*%
X127254000Y-98033000D03*
D10*
X127254000Y-98933000D03*
D16*
%TO.P,U3,25,GPIO19*%
%TO.N,/G0*%
X129794000Y-98033000D03*
D10*
X129794000Y-98933000D03*
D16*
%TO.P,U3,24,GPIO18*%
%TO.N,/G1*%
X132334000Y-98033000D03*
D10*
X132334000Y-98933000D03*
D16*
%TO.P,U3,23,GND*%
%TO.N,GND*%
X134874000Y-98033000D03*
D11*
X134874000Y-98933000D03*
D16*
%TO.P,U3,22,GPIO17*%
%TO.N,/G2*%
X137414000Y-98033000D03*
D10*
X137414000Y-98933000D03*
D16*
%TO.P,U3,21,GPIO16*%
%TO.N,/R0*%
X139954000Y-98033000D03*
D10*
X139954000Y-98933000D03*
D16*
%TO.P,U3,20,GPIO15*%
%TO.N,/R1*%
X139954000Y-117613000D03*
D10*
X139954000Y-116713000D03*
D16*
%TO.P,U3,19,GPIO14*%
%TO.N,/R2*%
X137414000Y-117613000D03*
D10*
X137414000Y-116713000D03*
D16*
%TO.P,U3,18,GND*%
%TO.N,GND*%
X134874000Y-117613000D03*
D11*
X134874000Y-116713000D03*
D16*
%TO.P,U3,17,GPIO13*%
%TO.N,Net-(U2-B6)*%
X132334000Y-117613000D03*
D10*
X132334000Y-116713000D03*
D16*
%TO.P,U3,16,GPIO12*%
%TO.N,Net-(U2-B5)*%
X129794000Y-117613000D03*
D10*
X129794000Y-116713000D03*
D16*
%TO.P,U3,15,GPIO11*%
%TO.N,Net-(U3-GPIO11)*%
X127254000Y-117613000D03*
D10*
X127254000Y-116713000D03*
D16*
%TO.P,U3,14,GPIO10*%
%TO.N,Net-(U3-GPIO10)*%
X124714000Y-117613000D03*
D10*
X124714000Y-116713000D03*
D16*
%TO.P,U3,13,GND*%
%TO.N,GND*%
X122174000Y-117613000D03*
D11*
X122174000Y-116713000D03*
D16*
%TO.P,U3,12,GPIO9*%
%TO.N,Net-(U3-GPIO9)*%
X119634000Y-117613000D03*
D10*
X119634000Y-116713000D03*
D16*
%TO.P,U3,11,GPIO8*%
%TO.N,Net-(U3-GPIO8)*%
X117094000Y-117613000D03*
D10*
X117094000Y-116713000D03*
D16*
%TO.P,U3,10,GPIO7*%
%TO.N,Net-(U3-GPIO7)*%
X114554000Y-117613000D03*
D10*
X114554000Y-116713000D03*
D16*
%TO.P,U3,9,GPIO6*%
%TO.N,Net-(U3-GPIO6)*%
X112014000Y-117613000D03*
D10*
X112014000Y-116713000D03*
D16*
%TO.P,U3,8,GND*%
%TO.N,GND*%
X109474000Y-117613000D03*
D11*
X109474000Y-116713000D03*
D16*
%TO.P,U3,7,GPIO5*%
%TO.N,Net-(U3-GPIO5)*%
X106934000Y-117613000D03*
D10*
X106934000Y-116713000D03*
D16*
%TO.P,U3,6,GPIO4*%
%TO.N,Net-(U3-GPIO4)*%
X104394000Y-117613000D03*
D10*
X104394000Y-116713000D03*
D16*
%TO.P,U3,5,GPIO3*%
%TO.N,Net-(U2-B4)*%
X101854000Y-117613000D03*
D10*
X101854000Y-116713000D03*
D16*
%TO.P,U3,4,GPIO2*%
%TO.N,Net-(U2-B3)*%
X99314000Y-117613000D03*
D10*
X99314000Y-116713000D03*
D16*
%TO.P,U3,3,GND*%
%TO.N,GND*%
X96774000Y-117613000D03*
D11*
X96774000Y-116713000D03*
D16*
%TO.P,U3,2,GPIO1*%
%TO.N,Net-(U2-B2)*%
X94234000Y-117613000D03*
D10*
X94234000Y-116713000D03*
D16*
%TO.P,U3,1,GPIO0*%
%TO.N,Net-(U2-B1)*%
X91694000Y-117613000D03*
D10*
X91694000Y-116713000D03*
%TD*%
D17*
%TO.P,U2,24,VCCB*%
%TO.N,+3.3V*%
X96521000Y-124944000D03*
%TO.P,U2,23,VCCB*%
X97791000Y-124944000D03*
%TO.P,U2,22,~{OE}*%
%TO.N,~{SLOT_SEL}*%
X99061000Y-124944000D03*
%TO.P,U2,21,B1*%
%TO.N,Net-(U2-B1)*%
X100331000Y-124944000D03*
%TO.P,U2,20,B2*%
%TO.N,Net-(U2-B2)*%
X101601000Y-124944000D03*
%TO.P,U2,19,B3*%
%TO.N,Net-(U2-B3)*%
X102871000Y-124944000D03*
%TO.P,U2,18,B4*%
%TO.N,Net-(U2-B4)*%
X104141000Y-124944000D03*
%TO.P,U2,17,B5*%
%TO.N,Net-(U2-B5)*%
X105411000Y-124944000D03*
%TO.P,U2,16,B6*%
%TO.N,Net-(U2-B6)*%
X106681000Y-124944000D03*
%TO.P,U2,15,B7*%
%TO.N,Net-(U2-B7)*%
X107951000Y-124944000D03*
%TO.P,U2,14,B8*%
%TO.N,unconnected-(U2-B8-Pad14)*%
X109221000Y-124944000D03*
%TO.P,U2,13,GND*%
%TO.N,GND*%
X110491000Y-124944000D03*
%TO.P,U2,12,GND*%
X110491000Y-134244000D03*
%TO.P,U2,11,GND*%
X109221000Y-134244000D03*
%TO.P,U2,10,A8*%
%TO.N,unconnected-(U2-A8-Pad10)*%
X107951000Y-134244000D03*
%TO.P,U2,9,A7*%
%TO.N,R~{W}*%
X106681000Y-134244000D03*
%TO.P,U2,8,A6*%
%TO.N,CLK*%
X105411000Y-134244000D03*
%TO.P,U2,7,A5*%
%TO.N,~{SLOT_SEL}*%
X104141000Y-134244000D03*
%TO.P,U2,6,A4*%
%TO.N,A0*%
X102871000Y-134244000D03*
%TO.P,U2,5,A3*%
%TO.N,A1*%
X101601000Y-134244000D03*
%TO.P,U2,4,A2*%
%TO.N,A2*%
X100331000Y-134244000D03*
%TO.P,U2,3,A1*%
%TO.N,A3*%
X99061000Y-134244000D03*
%TO.P,U2,2,DIR*%
%TO.N,Net-(U2-DIR)*%
X97791000Y-134244000D03*
%TO.P,U2,1,VCCA*%
%TO.N,+5V*%
X96521000Y-134244000D03*
%TD*%
D14*
%TO.P,J2,15*%
%TO.N,unconnected-(J2-Pad15)*%
X164806669Y-113191000D03*
%TO.P,J2,14*%
%TO.N,Net-(J2-Pad14)*%
X164806669Y-110901000D03*
%TO.P,J2,13*%
%TO.N,Net-(J2-Pad13)*%
X164806669Y-108611000D03*
%TO.P,J2,12*%
%TO.N,unconnected-(J2-Pad12)*%
X164806669Y-106321000D03*
%TO.P,J2,11*%
%TO.N,unconnected-(J2-Pad11)*%
X164806669Y-104031000D03*
%TO.P,J2,10*%
%TO.N,unconnected-(J2-Pad10)*%
X162826669Y-112046000D03*
%TO.P,J2,9*%
%TO.N,unconnected-(J2-Pad9)*%
X162826669Y-109756000D03*
%TO.P,J2,8*%
%TO.N,GND*%
X162826669Y-107466000D03*
%TO.P,J2,7*%
X162826669Y-105176000D03*
%TO.P,J2,6*%
X162826669Y-102886000D03*
%TO.P,J2,5*%
X160846669Y-113191000D03*
%TO.P,J2,4*%
%TO.N,unconnected-(J2-Pad4)*%
X160846669Y-110901000D03*
%TO.P,J2,3*%
%TO.N,/B*%
X160846669Y-108611000D03*
%TO.P,J2,2*%
%TO.N,/G*%
X160846669Y-106321000D03*
D13*
%TO.P,J2,1*%
%TO.N,/R*%
X160846669Y-104031000D03*
D18*
%TO.P,J2,0*%
%TO.N,GND*%
X162896669Y-95846000D03*
X162896669Y-120846000D03*
%TD*%
D12*
%TO.P,R10,2*%
%TO.N,/R*%
X150622000Y-95085000D03*
D14*
%TO.P,R10,1*%
%TO.N,/R1*%
X150622000Y-97625000D03*
%TD*%
D12*
%TO.P,R2,2*%
%TO.N,Net-(J2-Pad14)*%
X155321000Y-114935000D03*
D14*
%TO.P,R2,1*%
%TO.N,/VSYNC*%
X152781000Y-114935000D03*
%TD*%
%TO.P,C7,2*%
%TO.N,GND*%
X101648000Y-121974000D03*
%TO.P,C7,1*%
%TO.N,+3.3V*%
X96648000Y-121974000D03*
%TD*%
%TO.P,C6,2*%
%TO.N,GND*%
X95464000Y-94361000D03*
%TO.P,C6,1*%
%TO.N,+3.3V*%
X90464000Y-94361000D03*
%TD*%
D12*
%TO.P,R3,2*%
%TO.N,Net-(J2-Pad13)*%
X148971000Y-115062000D03*
D14*
%TO.P,R3,1*%
%TO.N,/HSYNC*%
X146431000Y-115062000D03*
%TD*%
D17*
%TO.P,U4,24,VCCB*%
%TO.N,+3.3V*%
X117730000Y-124817000D03*
%TO.P,U4,23,VCCB*%
X119000000Y-124817000D03*
%TO.P,U4,22,~{OE}*%
%TO.N,~{SLOT_SEL}*%
X120270000Y-124817000D03*
%TO.P,U4,21,B1*%
%TO.N,Net-(U3-GPIO4)*%
X121540000Y-124817000D03*
%TO.P,U4,20,B2*%
%TO.N,Net-(U3-GPIO5)*%
X122810000Y-124817000D03*
%TO.P,U4,19,B3*%
%TO.N,Net-(U3-GPIO6)*%
X124080000Y-124817000D03*
%TO.P,U4,18,B4*%
%TO.N,Net-(U3-GPIO7)*%
X125350000Y-124817000D03*
%TO.P,U4,17,B5*%
%TO.N,Net-(U3-GPIO8)*%
X126620000Y-124817000D03*
%TO.P,U4,16,B6*%
%TO.N,Net-(U3-GPIO9)*%
X127890000Y-124817000D03*
%TO.P,U4,15,B7*%
%TO.N,Net-(U3-GPIO10)*%
X129160000Y-124817000D03*
%TO.P,U4,14,B8*%
%TO.N,Net-(U3-GPIO11)*%
X130430000Y-124817000D03*
%TO.P,U4,13,GND*%
%TO.N,GND*%
X131700000Y-124817000D03*
%TO.P,U4,12,GND*%
X131700000Y-134117000D03*
%TO.P,U4,11,GND*%
X130430000Y-134117000D03*
%TO.P,U4,10,A8*%
%TO.N,D0*%
X129160000Y-134117000D03*
%TO.P,U4,9,A7*%
%TO.N,D1*%
X127890000Y-134117000D03*
%TO.P,U4,8,A6*%
%TO.N,D2*%
X126620000Y-134117000D03*
%TO.P,U4,7,A5*%
%TO.N,D3*%
X125350000Y-134117000D03*
%TO.P,U4,6,A4*%
%TO.N,D4*%
X124080000Y-134117000D03*
%TO.P,U4,5,A3*%
%TO.N,D5*%
X122810000Y-134117000D03*
%TO.P,U4,4,A2*%
%TO.N,D6*%
X121540000Y-134117000D03*
%TO.P,U4,3,A1*%
%TO.N,D7*%
X120270000Y-134117000D03*
%TO.P,U4,2,DIR*%
%TO.N,Net-(U4-DIR)*%
X119000000Y-134117000D03*
%TO.P,U4,1,VCCA*%
%TO.N,+5V*%
X117730000Y-134117000D03*
%TD*%
D14*
%TO.P,C1,2*%
%TO.N,GND*%
X93726000Y-129326000D03*
%TO.P,C1,1*%
%TO.N,+5V*%
X93726000Y-134326000D03*
%TD*%
%TO.P,C3,2*%
%TO.N,GND*%
X115062000Y-129199000D03*
%TO.P,C3,1*%
%TO.N,+5V*%
X115062000Y-134199000D03*
%TD*%
%TO.P,C2,2*%
%TO.N,GND*%
X155321000Y-124801000D03*
%TO.P,C2,1*%
%TO.N,+5V*%
X155321000Y-119801000D03*
%TD*%
D12*
%TO.P,R6,2*%
%TO.N,/G*%
X146685000Y-100946000D03*
D14*
%TO.P,R6,1*%
%TO.N,/G0*%
X146685000Y-103486000D03*
%TD*%
D12*
%TO.P,R11,2*%
%TO.N,/R*%
X146685000Y-95104000D03*
D14*
%TO.P,R11,1*%
%TO.N,/R2*%
X146685000Y-97644000D03*
%TD*%
%TO.P,C4,2*%
%TO.N,GND*%
X102957000Y-94361000D03*
%TO.P,C4,1*%
%TO.N,+5V*%
X97957000Y-94361000D03*
%TD*%
D19*
%TO.N,~{SLOT_IRQ}*%
X116459000Y-139319000D03*
X113030000Y-133350000D03*
X112776000Y-127381000D03*
X114046000Y-112776000D03*
%TO.N,R~{W}*%
X106680000Y-134239000D03*
X107188000Y-139827000D03*
%TO.N,Net-(U2-B7)*%
X110867313Y-120904002D03*
X111574326Y-113321000D03*
%TO.N,/HSYNC*%
X142108346Y-113914346D03*
%TO.N,/VSYNC*%
X141351000Y-113157000D03*
%TO.N,/R2*%
X144526000Y-105991010D03*
%TO.N,/R1*%
X145538901Y-106003415D03*
%TO.N,GND*%
X109220000Y-134239000D03*
X131699000Y-134112000D03*
X130429000Y-134112000D03*
X110490000Y-134239000D03*
X110490000Y-124841000D03*
X131699000Y-124841000D03*
%TO.N,A3*%
X142673641Y-143270500D03*
%TO.N,A2*%
X143637000Y-142964500D03*
%TO.N,A1*%
X140718709Y-141313500D03*
%TO.N,A0*%
X136761992Y-140352008D03*
%TO.N,CLK*%
X117479657Y-139314343D03*
X112305000Y-132334000D03*
%TO.N,R~{W}*%
X118237000Y-132461000D03*
X116471209Y-140356515D03*
%TO.N,~{SLOT_SEL}*%
X127635000Y-140335000D03*
X99060000Y-124968000D03*
X99885500Y-127317500D03*
X120967500Y-130238500D03*
X121412000Y-136398000D03*
%TO.N,Net-(U2-B6)*%
X105759000Y-114586000D03*
X105029000Y-120142000D03*
%TO.N,+3.3V*%
X96520000Y-124968000D03*
X118999000Y-124841000D03*
%TD*%
D20*
%TO.N,~{SLOT_IRQ}*%
X114554000Y-144515299D02*
X117475000Y-141594299D01*
X108204000Y-147447000D02*
X109379000Y-146272000D01*
%TO.N,CLK*%
X118052000Y-142679000D02*
X118052000Y-139886686D01*
%TO.N,~{SLOT_IRQ}*%
X114554000Y-145488701D02*
X114554000Y-144515299D01*
X117475000Y-140335000D02*
X116459000Y-139319000D01*
X113770701Y-146272000D02*
X114554000Y-145488701D01*
%TO.N,CLK*%
X118052000Y-139886686D02*
X117479657Y-139314343D01*
X115824000Y-144907000D02*
X118052000Y-142679000D01*
%TO.N,~{SLOT_IRQ}*%
X109379000Y-146272000D02*
X113770701Y-146272000D01*
X117475000Y-141594299D02*
X117475000Y-140335000D01*
%TO.N,R~{W}*%
X116471209Y-141719791D02*
X116471209Y-140356515D01*
X113284000Y-144907000D02*
X116471209Y-141719791D01*
%TO.N,CLK*%
X105411000Y-134244000D02*
X105411000Y-133859926D01*
X106936926Y-132334000D02*
X112305000Y-132334000D01*
%TO.N,~{SLOT_IRQ}*%
X112776000Y-127381000D02*
X113030000Y-127635000D01*
%TO.N,CLK*%
X105411000Y-133859926D02*
X106936926Y-132334000D01*
%TO.N,~{SLOT_IRQ}*%
X113030000Y-127635000D02*
X113030000Y-133350000D01*
X106934000Y-111633000D02*
X109347000Y-114046000D01*
X109347000Y-114046000D02*
X112776000Y-114046000D01*
X112776000Y-114046000D02*
X114046000Y-112776000D01*
%TO.N,Net-(U2-B7)*%
X112014000Y-98933000D02*
X112014000Y-112881326D01*
%TO.N,~{SLOT_IRQ}*%
X106934000Y-98933000D02*
X106934000Y-111633000D01*
%TO.N,Net-(U2-B7)*%
X112014000Y-112881326D02*
X111574326Y-113321000D01*
%TO.N,Net-(U2-B6)*%
X130244000Y-114623000D02*
X105796000Y-114623000D01*
X132334000Y-116713000D02*
X130244000Y-114623000D01*
X105796000Y-114623000D02*
X105759000Y-114586000D01*
%TO.N,~{SLOT_SEL}*%
X120270000Y-124817000D02*
X120270000Y-129541000D01*
X120270000Y-129541000D02*
X120967500Y-130238500D01*
%TO.N,Net-(U4-DIR)*%
X119000000Y-134117000D02*
X119000000Y-133732926D01*
X119948926Y-132784000D02*
X136969000Y-132784000D01*
X119000000Y-133732926D02*
X119948926Y-132784000D01*
X136969000Y-132784000D02*
X144409000Y-125344000D01*
%TO.N,R~{W}*%
X118237000Y-132461000D02*
X118364000Y-132334000D01*
X118364000Y-132334000D02*
X135763000Y-132334000D01*
X135763000Y-132334000D02*
X143002000Y-125095000D01*
X143002000Y-125095000D02*
X143002000Y-121671000D01*
X143002000Y-121671000D02*
X144409000Y-120264000D01*
%TO.N,A2*%
X124265189Y-142044499D02*
X142716999Y-142044499D01*
%TO.N,A1*%
X101601000Y-134628074D02*
X102541926Y-135569000D01*
%TO.N,A3*%
X111378641Y-136917503D02*
X111390144Y-136906000D01*
%TO.N,A1*%
X107196263Y-136018501D02*
X107207766Y-136006998D01*
X108477766Y-136006998D02*
X108694234Y-136006998D01*
%TO.N,A2*%
X102159425Y-136456499D02*
X103428045Y-136456499D01*
X103428045Y-136456499D02*
X103439548Y-136468002D01*
%TO.N,A1*%
X103625737Y-136018501D02*
X104656263Y-136018501D01*
%TO.N,A2*%
X111203955Y-136456499D02*
X118677189Y-136456499D01*
%TO.N,A1*%
X104656263Y-136018501D02*
X104667766Y-136006998D01*
%TO.N,A3*%
X99061000Y-134244000D02*
X99061000Y-134628074D01*
%TO.N,A1*%
X104667766Y-136006998D02*
X104884234Y-136006998D01*
X104884234Y-136006998D02*
X104895737Y-136018501D01*
X101601000Y-134244000D02*
X101601000Y-134628074D01*
X109736263Y-136018501D02*
X109747766Y-136006998D01*
X102541926Y-135569000D02*
X103176236Y-135569000D01*
X105926263Y-136018501D02*
X105937766Y-136006998D01*
%TO.N,A2*%
X100331000Y-134628074D02*
X102159425Y-136456499D01*
%TO.N,A3*%
X124079000Y-142494000D02*
X141897141Y-142494000D01*
%TO.N,A1*%
X106165737Y-136018501D02*
X107196263Y-136018501D01*
X107424234Y-136006998D02*
X107435737Y-136018501D01*
X107435737Y-136018501D02*
X108466263Y-136018501D01*
X104895737Y-136018501D02*
X105926263Y-136018501D01*
X103176236Y-135569000D02*
X103625737Y-136018501D01*
X107207766Y-136006998D02*
X107424234Y-136006998D01*
X108466263Y-136018501D02*
X108477766Y-136006998D01*
X108694234Y-136006998D02*
X108705737Y-136018501D01*
X106154234Y-136006998D02*
X106165737Y-136018501D01*
X124365381Y-141509001D02*
X140523208Y-141509001D01*
%TO.N,A2*%
X111192452Y-136468002D02*
X111203955Y-136456499D01*
%TO.N,A3*%
X111390144Y-136906000D02*
X118491000Y-136906000D01*
%TO.N,A1*%
X109964234Y-136006998D02*
X109975737Y-136018501D01*
X108705737Y-136018501D02*
X109736263Y-136018501D01*
X109747766Y-136006998D02*
X109964234Y-136006998D01*
X109975737Y-136018501D02*
X111006263Y-136018501D01*
X111006263Y-136018501D02*
X111017766Y-136006998D01*
%TO.N,A3*%
X118491000Y-136906000D02*
X124079000Y-142494000D01*
%TO.N,A1*%
X111017766Y-136006998D02*
X118863378Y-136006998D01*
X140523208Y-141509001D02*
X140718709Y-141313500D01*
X105937766Y-136006998D02*
X106154234Y-136006998D01*
%TO.N,A3*%
X101350429Y-136917503D02*
X111378641Y-136917503D01*
%TO.N,A2*%
X118677189Y-136456499D02*
X124265189Y-142044499D01*
%TO.N,A1*%
X118863378Y-136006998D02*
X124365381Y-141509001D01*
%TO.N,A2*%
X142716999Y-142044499D02*
X143637000Y-142964500D01*
X100331000Y-134244000D02*
X100331000Y-134628074D01*
%TO.N,A3*%
X99061000Y-134628074D02*
X101350429Y-136917503D01*
X141897141Y-142494000D02*
X142673641Y-143270500D01*
%TO.N,A2*%
X103439548Y-136468002D02*
X111192452Y-136468002D01*
%TO.N,R~{W}*%
X113284000Y-144907000D02*
X108204000Y-139827000D01*
X108204000Y-139827000D02*
X107188000Y-139827000D01*
%TO.N,Net-(U3-GPIO5)*%
X113729984Y-120588000D02*
X112829984Y-119688000D01*
%TO.N,Net-(U2-B7)*%
X107951000Y-123778786D02*
X110825784Y-120904002D01*
X107951000Y-124944000D02*
X107951000Y-123778786D01*
%TO.N,Net-(U3-GPIO4)*%
X120528575Y-123421501D02*
X117960501Y-123421501D01*
%TO.N,Net-(U3-GPIO5)*%
X121348575Y-122971501D02*
X118146897Y-122971501D01*
X108299000Y-119688000D02*
X106934000Y-118323000D01*
X122810000Y-124432926D02*
X121348575Y-122971501D01*
%TO.N,Net-(U2-B7)*%
X110825784Y-120904002D02*
X110867313Y-120904002D01*
%TO.N,Net-(U3-GPIO4)*%
X112643588Y-120138000D02*
X106209000Y-120138000D01*
%TO.N,Net-(U3-GPIO5)*%
X115763396Y-120588000D02*
X113729984Y-120588000D01*
X118146897Y-122971501D02*
X115763396Y-120588000D01*
%TO.N,Net-(U3-GPIO4)*%
X121540000Y-124817000D02*
X121540000Y-124432926D01*
%TO.N,Net-(U3-GPIO5)*%
X122810000Y-124817000D02*
X122810000Y-124432926D01*
X112829984Y-119688000D02*
X108299000Y-119688000D01*
%TO.N,Net-(U3-GPIO4)*%
X115577000Y-121038000D02*
X113543588Y-121038000D01*
X113543588Y-121038000D02*
X112643588Y-120138000D01*
X106209000Y-120138000D02*
X104394000Y-118323000D01*
%TO.N,Net-(U3-GPIO5)*%
X106934000Y-118323000D02*
X106934000Y-116713000D01*
%TO.N,Net-(U3-GPIO4)*%
X104394000Y-118323000D02*
X104394000Y-116713000D01*
X121540000Y-124432926D02*
X120528575Y-123421501D01*
X117960501Y-123421501D02*
X115577000Y-121038000D01*
%TO.N,Net-(U3-GPIO6)*%
X120401089Y-121037501D02*
X120085588Y-120722000D01*
X115949792Y-120138000D02*
X113916380Y-120138000D01*
X116533792Y-120722000D02*
X115949792Y-120138000D01*
X113916380Y-120138000D02*
X112014000Y-118235620D01*
X124080000Y-124432926D02*
X120684575Y-121037501D01*
X120085588Y-120722000D02*
X116533792Y-120722000D01*
X124080000Y-124817000D02*
X124080000Y-124432926D01*
X120684575Y-121037501D02*
X120401089Y-121037501D01*
X112014000Y-118235620D02*
X112014000Y-116713000D01*
%TO.N,Net-(U3-GPIO7)*%
X125350000Y-124817000D02*
X125350000Y-121540000D01*
X114554000Y-118323000D02*
X114554000Y-116713000D01*
X124397501Y-120587501D02*
X120587485Y-120587501D01*
X116136188Y-119688000D02*
X115919000Y-119688000D01*
X120200483Y-120200499D02*
X116648687Y-120200499D01*
X116648687Y-120200499D02*
X116136188Y-119688000D01*
X115919000Y-119688000D02*
X114554000Y-118323000D01*
X120587485Y-120587501D02*
X120200483Y-120200499D01*
X125350000Y-121540000D02*
X124397501Y-120587501D01*
%TO.N,/HSYNC*%
X136965396Y-108135000D02*
X128836000Y-108135000D01*
X140875000Y-111538000D02*
X138549000Y-111538000D01*
X142108346Y-113914346D02*
X142108346Y-112771346D01*
X142108346Y-112771346D02*
X140875000Y-111538000D01*
X138549000Y-109718604D02*
X136965396Y-108135000D01*
X138549000Y-111538000D02*
X138549000Y-109718604D01*
X128836000Y-108135000D02*
X119634000Y-98933000D01*
%TO.N,/VSYNC*%
X141351000Y-113157000D02*
X140182000Y-111988000D01*
X138362604Y-111988000D02*
X134959604Y-108585000D01*
X140182000Y-111988000D02*
X138362604Y-111988000D01*
X134959604Y-108585000D02*
X124206000Y-108585000D01*
X124206000Y-108585000D02*
X114554000Y-98933000D01*
%TO.N,/R2*%
X144526000Y-112522000D02*
X144526000Y-105991010D01*
X138589000Y-115538000D02*
X141510000Y-115538000D01*
X137414000Y-116713000D02*
X138589000Y-115538000D01*
X141510000Y-115538000D02*
X144526000Y-112522000D01*
%TO.N,/R1*%
X139954000Y-116713000D02*
X141224000Y-116713000D01*
X145538901Y-112398099D02*
X145538901Y-106003415D01*
X141224000Y-116713000D02*
X145538901Y-112398099D01*
%TO.N,Net-(J2-Pad13)*%
X148971000Y-115062000D02*
X149969000Y-116060000D01*
X149969000Y-116060000D02*
X164229000Y-116060000D01*
X164229000Y-116060000D02*
X166381669Y-113907331D01*
X166381669Y-113907331D02*
X166381669Y-110186000D01*
X166381669Y-110186000D02*
X164806669Y-108611000D01*
%TO.N,Net-(J2-Pad14)*%
X155321000Y-114935000D02*
X164653660Y-114935000D01*
X165931669Y-113656991D02*
X165931669Y-112026000D01*
X164653660Y-114935000D02*
X165931669Y-113656991D01*
X165931669Y-112026000D02*
X164806669Y-110901000D01*
%TO.N,/R0*%
X154559000Y-97644000D02*
X153415000Y-96500000D01*
X153415000Y-96500000D02*
X142387000Y-96500000D01*
X142387000Y-96500000D02*
X139954000Y-98933000D01*
%TO.N,/B0*%
X143857000Y-105266000D02*
X140499000Y-101908000D01*
X140499000Y-101908000D02*
X127689000Y-101908000D01*
X146541000Y-105266000D02*
X143857000Y-105266000D01*
X127689000Y-101908000D02*
X124714000Y-98933000D01*
X150622000Y-109347000D02*
X146541000Y-105266000D01*
%TO.N,/B1*%
X153163000Y-107932000D02*
X150097396Y-107932000D01*
X146981396Y-104816000D02*
X144043396Y-104816000D01*
X144043396Y-104816000D02*
X140685396Y-101458000D01*
X150097396Y-107932000D02*
X146981396Y-104816000D01*
X154559000Y-109328000D02*
X153163000Y-107932000D01*
X140685396Y-101458000D02*
X129779000Y-101458000D01*
X129779000Y-101458000D02*
X127254000Y-98933000D01*
%TO.N,/G1*%
X133959000Y-100558000D02*
X132334000Y-98933000D01*
%TO.N,/G0*%
X131869000Y-101008000D02*
X129794000Y-98933000D01*
X146685000Y-103486000D02*
X143349792Y-103486000D01*
%TO.N,/G1*%
X150622000Y-103486000D02*
X149207000Y-102071000D01*
X149207000Y-102071000D02*
X142571188Y-102071000D01*
X142571188Y-102071000D02*
X141058188Y-100558000D01*
%TO.N,/G0*%
X143349792Y-103486000D02*
X140871792Y-101008000D01*
%TO.N,/G1*%
X141058188Y-100558000D02*
X133959000Y-100558000D01*
%TO.N,/G0*%
X140871792Y-101008000D02*
X131869000Y-101008000D01*
%TO.N,/R*%
X154559000Y-95104000D02*
X146685000Y-95104000D01*
%TO.N,/B*%
X154559000Y-106788000D02*
X150641000Y-106788000D01*
X150641000Y-106788000D02*
X150622000Y-106807000D01*
X160846669Y-108611000D02*
X156382000Y-108611000D01*
X156382000Y-108611000D02*
X154559000Y-106788000D01*
%TO.N,/G*%
X154559000Y-100946000D02*
X159934000Y-106321000D01*
X159934000Y-106321000D02*
X160846669Y-106321000D01*
%TO.N,/R*%
X154559000Y-95104000D02*
X160846669Y-101391669D01*
X160846669Y-101391669D02*
X160846669Y-104031000D01*
%TO.N,/G2*%
X154559000Y-103486000D02*
X154559000Y-103292009D01*
X154559000Y-103292009D02*
X150326991Y-99060000D01*
X150326991Y-99060000D02*
X142177000Y-99060000D01*
X141129000Y-100108000D02*
X138589000Y-100108000D01*
X142177000Y-99060000D02*
X141129000Y-100108000D01*
X138589000Y-100108000D02*
X137414000Y-98933000D01*
D21*
%TO.N,GND*%
X162826669Y-102886000D02*
X162826669Y-107466000D01*
D20*
%TO.N,D7*%
X136145678Y-138615499D02*
X124654097Y-138615499D01*
X148844000Y-147447000D02*
X147479000Y-146082000D01*
X147479000Y-146082000D02*
X147479000Y-144420299D01*
X147479000Y-144420299D02*
X142961208Y-139902507D01*
X120270000Y-135255310D02*
X120270000Y-134117000D01*
X137432686Y-139902507D02*
X136145678Y-138615499D01*
X120688190Y-135673500D02*
X120270000Y-135255310D01*
X121712098Y-135673500D02*
X120688190Y-135673500D01*
X124654097Y-138615499D02*
X121712098Y-135673500D01*
X142961208Y-139902507D02*
X137432686Y-139902507D01*
%TO.N,D6*%
X151384000Y-147447000D02*
X150019000Y-146082000D01*
X137618875Y-139453006D02*
X136331867Y-138165998D01*
X122659488Y-135639497D02*
X121540000Y-134520009D01*
X125821679Y-138165998D02*
X123295178Y-135639497D01*
X136331867Y-138165998D02*
X125821679Y-138165998D01*
X121540000Y-134520009D02*
X121540000Y-134117000D01*
X123295178Y-135639497D02*
X122659488Y-135639497D01*
X145051707Y-139453006D02*
X137618875Y-139453006D01*
X150019000Y-144420299D02*
X145051707Y-139453006D01*
X150019000Y-146082000D02*
X150019000Y-144420299D01*
%TO.N,D5*%
X122810000Y-134501074D02*
X122810000Y-134117000D01*
X126025423Y-137716497D02*
X122810000Y-134501074D01*
X136518056Y-137716497D02*
X126025423Y-137716497D01*
X137805064Y-139003505D02*
X136518056Y-137716497D01*
X147142206Y-139003505D02*
X137805064Y-139003505D01*
X152559000Y-144420299D02*
X147142206Y-139003505D01*
X152559000Y-146082000D02*
X152559000Y-144420299D01*
X153924000Y-147447000D02*
X152559000Y-146082000D01*
%TO.N,D4*%
X155099000Y-146082000D02*
X155099000Y-144420299D01*
X126845922Y-137266996D02*
X124080000Y-134501074D01*
X124080000Y-134501074D02*
X124080000Y-134117000D01*
X149232705Y-138554004D02*
X137991253Y-138554004D01*
X136704245Y-137266996D02*
X126845922Y-137266996D01*
X156464000Y-147447000D02*
X155099000Y-146082000D01*
X155099000Y-144420299D02*
X149232705Y-138554004D01*
X137991253Y-138554004D02*
X136704245Y-137266996D01*
%TO.N,D3*%
X127666421Y-136817495D02*
X125350000Y-134501074D01*
X138177442Y-138104503D02*
X136890434Y-136817495D01*
X157639000Y-144420299D02*
X151323204Y-138104503D01*
X136890434Y-136817495D02*
X127666421Y-136817495D01*
X151323204Y-138104503D02*
X138177442Y-138104503D01*
X159004000Y-147447000D02*
X157639000Y-146082000D01*
X157639000Y-146082000D02*
X157639000Y-144420299D01*
X125350000Y-134501074D02*
X125350000Y-134117000D01*
%TO.N,D2*%
X137173356Y-136367994D02*
X128486920Y-136367994D01*
X160179000Y-146082000D02*
X160179000Y-144420299D01*
X128486920Y-136367994D02*
X126620000Y-134501074D01*
X137177998Y-136372636D02*
X137173356Y-136367994D01*
X138363631Y-137655002D02*
X137177998Y-136469369D01*
X160179000Y-144420299D02*
X153413703Y-137655002D01*
X161544000Y-147447000D02*
X160179000Y-146082000D01*
X137177998Y-136469369D02*
X137177998Y-136372636D01*
X153413703Y-137655002D02*
X138363631Y-137655002D01*
X126620000Y-134501074D02*
X126620000Y-134117000D01*
%TO.N,D1*%
X137359545Y-135918493D02*
X129307419Y-135918493D01*
X155504202Y-137205501D02*
X138549820Y-137205501D01*
X137627499Y-136186447D02*
X137359545Y-135918493D01*
X162719000Y-146082000D02*
X162719000Y-144420299D01*
X137627499Y-136283180D02*
X137627499Y-136186447D01*
X129307419Y-135918493D02*
X127890000Y-134501074D01*
X164084000Y-147447000D02*
X162719000Y-146082000D01*
X127890000Y-134501074D02*
X127890000Y-134117000D01*
X162719000Y-144420299D02*
X155504202Y-137205501D01*
X138549820Y-137205501D02*
X137627499Y-136283180D01*
%TO.N,D0*%
X138736009Y-136756000D02*
X138077000Y-136096991D01*
X165449000Y-146272000D02*
X165449000Y-144610299D01*
X137545734Y-135468992D02*
X130127918Y-135468992D01*
X130127918Y-135468992D02*
X129160000Y-134501074D01*
X157594701Y-136756000D02*
X138736009Y-136756000D01*
X138077000Y-136096991D02*
X138077000Y-136000258D01*
X165449000Y-144610299D02*
X157594701Y-136756000D01*
X138077000Y-136000258D02*
X137545734Y-135468992D01*
X129160000Y-134501074D02*
X129160000Y-134117000D01*
X166624000Y-147447000D02*
X165449000Y-146272000D01*
%TO.N,A0*%
X107621926Y-135569000D02*
X108280074Y-135569000D01*
X107021577Y-135557497D02*
X107610423Y-135557497D01*
X105070423Y-135557497D02*
X105081926Y-135569000D01*
X106351926Y-135569000D02*
X107010074Y-135569000D01*
X105751577Y-135557497D02*
X106340423Y-135557497D01*
X105740074Y-135569000D02*
X105751577Y-135557497D01*
X110161926Y-135569000D02*
X110820074Y-135569000D01*
X124551570Y-141059500D02*
X127935098Y-141059500D01*
X119049567Y-135557497D02*
X124551570Y-141059500D01*
X105081926Y-135569000D02*
X105740074Y-135569000D01*
X104481577Y-135557497D02*
X105070423Y-135557497D01*
X107610423Y-135557497D02*
X107621926Y-135569000D01*
X109550074Y-135569000D02*
X109561577Y-135557497D01*
X109561577Y-135557497D02*
X110150423Y-135557497D01*
X110150423Y-135557497D02*
X110161926Y-135569000D01*
X104470074Y-135569000D02*
X104481577Y-135557497D01*
X128642590Y-140352008D02*
X136761992Y-140352008D01*
X102871000Y-134628074D02*
X103811926Y-135569000D01*
X108891926Y-135569000D02*
X109550074Y-135569000D01*
X127935098Y-141059500D02*
X128642590Y-140352008D01*
X107010074Y-135569000D02*
X107021577Y-135557497D01*
X102871000Y-134244000D02*
X102871000Y-134628074D01*
X110831577Y-135557497D02*
X119049567Y-135557497D01*
X108291577Y-135557497D02*
X108880423Y-135557497D01*
X110820074Y-135569000D02*
X110831577Y-135557497D01*
X106340423Y-135557497D02*
X106351926Y-135569000D01*
X108280074Y-135569000D02*
X108291577Y-135557497D01*
X103811926Y-135569000D02*
X104470074Y-135569000D01*
X108880423Y-135557497D02*
X108891926Y-135569000D01*
%TO.N,R~{W}*%
X144409000Y-120264000D02*
X144409000Y-122804000D01*
%TO.N,~{SLOT_SEL}*%
X105081926Y-132919000D02*
X105466000Y-132919000D01*
X104141000Y-131573000D02*
X99885500Y-127317500D01*
X105466000Y-132919000D02*
X112243000Y-126142000D01*
X104141000Y-134244000D02*
X104141000Y-133859926D01*
X112243000Y-126142000D02*
X119329074Y-126142000D01*
X120270000Y-125201074D02*
X120270000Y-124817000D01*
X121412000Y-136398000D02*
X125349000Y-140335000D01*
X125349000Y-140335000D02*
X127635000Y-140335000D01*
X104141000Y-134244000D02*
X104141000Y-131573000D01*
X104141000Y-133859926D02*
X105081926Y-132919000D01*
X119329074Y-126142000D02*
X120270000Y-125201074D01*
%TO.N,Net-(U2-DIR)*%
X97917000Y-138557000D02*
X97917000Y-134370000D01*
X97917000Y-134370000D02*
X97791000Y-134244000D01*
X98044000Y-138684000D02*
X97917000Y-138557000D01*
%TO.N,Net-(U2-B6)*%
X106681000Y-121794000D02*
X105029000Y-120142000D01*
X106681000Y-124944000D02*
X106681000Y-121794000D01*
%TO.N,Net-(U2-B5)*%
X103219000Y-119688000D02*
X103219000Y-115729000D01*
X128524000Y-115443000D02*
X129794000Y-116713000D01*
X103505000Y-115443000D02*
X128524000Y-115443000D01*
X105411000Y-124944000D02*
X105411000Y-121880000D01*
X105411000Y-121880000D02*
X103219000Y-119688000D01*
X103219000Y-115729000D02*
X103505000Y-115443000D01*
%TO.N,Net-(U2-B4)*%
X104141000Y-124944000D02*
X104141000Y-121245690D01*
X101854000Y-118958690D02*
X101854000Y-116713000D01*
X104141000Y-121245690D02*
X101854000Y-118958690D01*
%TO.N,Net-(U2-B3)*%
X99314000Y-121230991D02*
X99314000Y-116713000D01*
X101702009Y-123619000D02*
X99314000Y-121230991D01*
X101930074Y-123619000D02*
X101702009Y-123619000D01*
X102871000Y-124559926D02*
X101930074Y-123619000D01*
X102871000Y-124944000D02*
X102871000Y-124559926D01*
D21*
%TO.N,+3.3V*%
X97791000Y-125504850D02*
X98711649Y-126425499D01*
X90394000Y-100233000D02*
X90394000Y-119731000D01*
X90394000Y-119731000D02*
X92637000Y-121974000D01*
X91694000Y-98933000D02*
X91694000Y-95591000D01*
X98711649Y-126425499D02*
X111147033Y-126425499D01*
X91694000Y-98933000D02*
X90394000Y-100233000D01*
X118975000Y-124817000D02*
X118999000Y-124841000D01*
X97791000Y-124944000D02*
X97791000Y-125504850D01*
X97767000Y-124968000D02*
X97791000Y-124944000D01*
X91694000Y-95591000D02*
X90464000Y-94361000D01*
X96520000Y-124968000D02*
X97767000Y-124968000D01*
X112755532Y-124817000D02*
X117730000Y-124817000D01*
X111147033Y-126425499D02*
X112755532Y-124817000D01*
X92637000Y-121974000D02*
X96648000Y-121974000D01*
X117730000Y-124817000D02*
X118975000Y-124817000D01*
D20*
%TO.N,Net-(U2-B2)*%
X101601000Y-124944000D02*
X101601000Y-124559926D01*
X94234000Y-118323000D02*
X94234000Y-116713000D01*
X101601000Y-124559926D02*
X96729074Y-119688000D01*
X95599000Y-119688000D02*
X94234000Y-118323000D01*
X96729074Y-119688000D02*
X95599000Y-119688000D01*
%TO.N,Net-(U2-B1)*%
X100331000Y-124066009D02*
X96402492Y-120137501D01*
X100331000Y-124944000D02*
X100331000Y-124066009D01*
X93508501Y-120137501D02*
X91694000Y-118323000D01*
X96402492Y-120137501D02*
X93508501Y-120137501D01*
X91694000Y-118323000D02*
X91694000Y-116713000D01*
%TO.N,Net-(U3-GPIO8)*%
X124583191Y-120137501D02*
X120773881Y-120137501D01*
X126620000Y-122174310D02*
X124583191Y-120137501D01*
X120387378Y-119750998D02*
X118521998Y-119750998D01*
X118521998Y-119750998D02*
X117094000Y-118323000D01*
X120773881Y-120137501D02*
X120387378Y-119750998D01*
X126620000Y-124817000D02*
X126620000Y-122174310D01*
X117094000Y-118323000D02*
X117094000Y-116713000D01*
%TO.N,Net-(U3-GPIO9)*%
X120999000Y-119688000D02*
X119634000Y-118323000D01*
X127890000Y-124817000D02*
X127890000Y-122808620D01*
X124769380Y-119688000D02*
X120999000Y-119688000D01*
X119634000Y-118323000D02*
X119634000Y-116713000D01*
X127890000Y-122808620D02*
X124769380Y-119688000D01*
%TO.N,Net-(U3-GPIO10)*%
X129160000Y-124817000D02*
X129160000Y-123442930D01*
X124714000Y-118996930D02*
X124714000Y-116713000D01*
X129160000Y-123442930D02*
X124714000Y-118996930D01*
%TO.N,Net-(U3-GPIO11)*%
X130430000Y-121499000D02*
X127254000Y-118323000D01*
X127254000Y-118323000D02*
X127254000Y-116713000D01*
X130430000Y-124817000D02*
X130430000Y-121499000D01*
%TD*%
%TA.AperFunction,Conductor*%
%TO.N,+5V*%
G36*
X94488000Y-100291000D02*
G01*
X95132585Y-100291000D01*
X95132597Y-100290999D01*
X95193093Y-100284494D01*
X95329964Y-100233444D01*
X95329966Y-100233443D01*
X95428072Y-100160001D01*
X95494592Y-100135189D01*
X95563966Y-100150280D01*
X95579091Y-100160000D01*
X95677792Y-100233887D01*
X95677794Y-100233888D01*
X95677796Y-100233889D01*
X95736875Y-100255924D01*
X95814795Y-100284988D01*
X95814803Y-100284990D01*
X95875350Y-100291499D01*
X95875355Y-100291499D01*
X95875362Y-100291500D01*
X95875368Y-100291500D01*
X97672632Y-100291500D01*
X97672638Y-100291500D01*
X97672645Y-100291499D01*
X97672649Y-100291499D01*
X97733196Y-100284990D01*
X97733199Y-100284989D01*
X97733201Y-100284989D01*
X97870204Y-100233889D01*
X97968492Y-100160311D01*
X98035011Y-100135501D01*
X98104385Y-100150592D01*
X98119502Y-100160306D01*
X98217200Y-100233443D01*
X98217796Y-100233889D01*
X98354795Y-100284988D01*
X98354803Y-100284990D01*
X98415350Y-100291499D01*
X98415355Y-100291499D01*
X98415362Y-100291500D01*
X98415368Y-100291500D01*
X100212632Y-100291500D01*
X100212638Y-100291500D01*
X100212645Y-100291499D01*
X100212649Y-100291499D01*
X100273196Y-100284990D01*
X100273199Y-100284989D01*
X100273201Y-100284989D01*
X100410204Y-100233889D01*
X100508492Y-100160311D01*
X100575011Y-100135501D01*
X100644385Y-100150592D01*
X100659502Y-100160306D01*
X100757200Y-100233443D01*
X100757796Y-100233889D01*
X100894795Y-100284988D01*
X100894803Y-100284990D01*
X100955350Y-100291499D01*
X100955355Y-100291499D01*
X100955362Y-100291500D01*
X100955368Y-100291500D01*
X102752632Y-100291500D01*
X102752638Y-100291500D01*
X102752645Y-100291499D01*
X102752649Y-100291499D01*
X102813196Y-100284990D01*
X102813199Y-100284989D01*
X102813201Y-100284989D01*
X102950204Y-100233889D01*
X103048492Y-100160311D01*
X103115011Y-100135501D01*
X103184385Y-100150592D01*
X103199502Y-100160306D01*
X103297200Y-100233443D01*
X103297796Y-100233889D01*
X103434795Y-100284988D01*
X103434803Y-100284990D01*
X103495350Y-100291499D01*
X103495355Y-100291499D01*
X103495362Y-100291500D01*
X103495368Y-100291500D01*
X105292632Y-100291500D01*
X105292638Y-100291500D01*
X105292645Y-100291499D01*
X105292649Y-100291499D01*
X105353196Y-100284990D01*
X105353199Y-100284989D01*
X105353201Y-100284989D01*
X105490204Y-100233889D01*
X105588492Y-100160311D01*
X105655011Y-100135501D01*
X105724385Y-100150592D01*
X105739502Y-100160306D01*
X105837200Y-100233443D01*
X105837796Y-100233889D01*
X105974795Y-100284988D01*
X105974803Y-100284990D01*
X106035350Y-100291499D01*
X106035355Y-100291499D01*
X106035362Y-100291500D01*
X106174500Y-100291500D01*
X106242621Y-100311502D01*
X106289114Y-100365158D01*
X106300500Y-100417500D01*
X106300499Y-111549146D01*
X106298751Y-111564988D01*
X106299044Y-111565016D01*
X106298298Y-111572907D01*
X106300500Y-111642957D01*
X106300500Y-111672851D01*
X106300501Y-111672872D01*
X106301378Y-111679820D01*
X106301844Y-111685732D01*
X106303326Y-111732888D01*
X106303327Y-111732893D01*
X106308977Y-111752339D01*
X106312986Y-111771697D01*
X106315525Y-111791793D01*
X106315526Y-111791799D01*
X106332893Y-111835662D01*
X106334816Y-111841279D01*
X106347982Y-111886593D01*
X106358294Y-111904031D01*
X106366988Y-111921779D01*
X106374444Y-111940609D01*
X106374450Y-111940620D01*
X106402177Y-111978783D01*
X106405437Y-111983746D01*
X106429460Y-112024365D01*
X106443779Y-112038684D01*
X106456617Y-112053714D01*
X106462085Y-112061239D01*
X106468528Y-112070107D01*
X106496794Y-112093491D01*
X106504886Y-112100185D01*
X106509267Y-112104171D01*
X107346197Y-112941101D01*
X108179501Y-113774405D01*
X108213527Y-113836717D01*
X108208462Y-113907532D01*
X108165915Y-113964368D01*
X108099395Y-113989179D01*
X108090406Y-113989500D01*
X106500515Y-113989500D01*
X106432394Y-113969498D01*
X106406879Y-113947810D01*
X106370255Y-113907135D01*
X106215752Y-113794882D01*
X106041288Y-113717206D01*
X105854487Y-113677500D01*
X105663513Y-113677500D01*
X105476711Y-113717206D01*
X105302247Y-113794882D01*
X105147744Y-113907135D01*
X105019965Y-114049048D01*
X105019958Y-114049058D01*
X104924476Y-114214438D01*
X104924473Y-114214444D01*
X104920120Y-114227842D01*
X104865457Y-114396072D01*
X104845496Y-114586000D01*
X104854359Y-114670330D01*
X104841586Y-114740169D01*
X104793084Y-114792015D01*
X104729049Y-114809500D01*
X103588853Y-114809500D01*
X103573011Y-114807750D01*
X103572984Y-114808044D01*
X103565092Y-114807298D01*
X103565091Y-114807298D01*
X103495042Y-114809500D01*
X103465144Y-114809500D01*
X103465140Y-114809500D01*
X103465130Y-114809501D01*
X103458179Y-114810379D01*
X103452267Y-114810844D01*
X103405113Y-114812326D01*
X103405111Y-114812327D01*
X103385656Y-114817978D01*
X103366303Y-114821986D01*
X103346211Y-114824524D01*
X103346204Y-114824525D01*
X103346203Y-114824526D01*
X103346201Y-114824526D01*
X103346200Y-114824527D01*
X103302339Y-114841892D01*
X103296724Y-114843815D01*
X103251407Y-114856982D01*
X103233964Y-114867297D01*
X103216218Y-114875990D01*
X103197382Y-114883448D01*
X103159209Y-114911181D01*
X103154248Y-114914440D01*
X103113637Y-114938458D01*
X103099308Y-114952786D01*
X103084287Y-114965615D01*
X103067894Y-114977526D01*
X103067893Y-114977527D01*
X103037814Y-115013885D01*
X103033818Y-115018276D01*
X102830333Y-115221760D01*
X102817901Y-115231720D01*
X102818089Y-115231947D01*
X102811982Y-115236999D01*
X102764015Y-115288079D01*
X102742878Y-115309215D01*
X102740577Y-115311826D01*
X102680524Y-115349696D01*
X102646063Y-115354500D01*
X100955350Y-115354500D01*
X100894803Y-115361009D01*
X100894795Y-115361011D01*
X100757797Y-115412110D01*
X100757792Y-115412112D01*
X100659509Y-115485687D01*
X100592989Y-115510498D01*
X100523615Y-115495407D01*
X100508491Y-115485687D01*
X100410207Y-115412112D01*
X100410202Y-115412110D01*
X100273204Y-115361011D01*
X100273196Y-115361009D01*
X100212649Y-115354500D01*
X100212638Y-115354500D01*
X98415362Y-115354500D01*
X98415350Y-115354500D01*
X98354803Y-115361009D01*
X98354795Y-115361011D01*
X98217797Y-115412110D01*
X98217792Y-115412112D01*
X98119509Y-115485687D01*
X98052989Y-115510498D01*
X97983615Y-115495407D01*
X97968491Y-115485687D01*
X97870207Y-115412112D01*
X97870202Y-115412110D01*
X97733204Y-115361011D01*
X97733196Y-115361009D01*
X97672649Y-115354500D01*
X97672638Y-115354500D01*
X95875362Y-115354500D01*
X95875350Y-115354500D01*
X95814803Y-115361009D01*
X95814795Y-115361011D01*
X95677797Y-115412110D01*
X95677793Y-115412112D01*
X95579507Y-115485688D01*
X95512987Y-115510498D01*
X95443613Y-115495406D01*
X95428490Y-115485687D01*
X95330207Y-115412112D01*
X95330202Y-115412110D01*
X95193204Y-115361011D01*
X95193196Y-115361009D01*
X95132649Y-115354500D01*
X95132638Y-115354500D01*
X93335362Y-115354500D01*
X93335350Y-115354500D01*
X93274803Y-115361009D01*
X93274795Y-115361011D01*
X93137797Y-115412110D01*
X93137792Y-115412112D01*
X93039509Y-115485687D01*
X92972989Y-115510498D01*
X92903615Y-115495407D01*
X92888491Y-115485687D01*
X92790207Y-115412112D01*
X92790202Y-115412110D01*
X92653204Y-115361011D01*
X92653196Y-115361009D01*
X92592649Y-115354500D01*
X92592638Y-115354500D01*
X91278500Y-115354500D01*
X91210379Y-115334498D01*
X91163886Y-115280842D01*
X91152500Y-115228500D01*
X91152500Y-111983135D01*
X91172502Y-111915014D01*
X91226158Y-111868521D01*
X91296432Y-111858417D01*
X91319405Y-111863960D01*
X91360740Y-111878151D01*
X91467806Y-111915980D01*
X91468335Y-111916070D01*
X91473158Y-111917093D01*
X91477037Y-111918076D01*
X91477049Y-111918080D01*
X91530043Y-111926923D01*
X91589094Y-111936777D01*
X91611443Y-111940609D01*
X91704119Y-111956500D01*
X91704122Y-111956500D01*
X91940712Y-111956500D01*
X91997448Y-111947031D01*
X92002451Y-111946403D01*
X92062898Y-111941259D01*
X92115219Y-111927634D01*
X92120733Y-111926459D01*
X92122286Y-111926199D01*
X92170951Y-111918080D01*
X92228448Y-111898340D01*
X92233034Y-111896959D01*
X92258427Y-111890346D01*
X92294924Y-111880844D01*
X92341213Y-111859919D01*
X92346671Y-111857754D01*
X92391727Y-111842287D01*
X92448108Y-111811774D01*
X92452107Y-111809792D01*
X92513402Y-111782086D01*
X92552749Y-111755490D01*
X92558032Y-111752286D01*
X92597017Y-111731190D01*
X92650189Y-111689802D01*
X92653591Y-111687332D01*
X92712047Y-111647825D01*
X92743963Y-111617234D01*
X92748850Y-111613012D01*
X92781220Y-111587818D01*
X92829098Y-111535807D01*
X92831815Y-111533036D01*
X92885144Y-111481925D01*
X92909462Y-111449043D01*
X92913766Y-111443835D01*
X92925519Y-111431068D01*
X92939314Y-111416083D01*
X92979763Y-111354168D01*
X92981852Y-111351166D01*
X92990525Y-111339440D01*
X93027715Y-111289157D01*
X93044641Y-111255582D01*
X93048157Y-111249485D01*
X93054245Y-111240166D01*
X93066984Y-111220669D01*
X93098013Y-111149929D01*
X93099453Y-111146871D01*
X93108420Y-111129087D01*
X93135657Y-111075067D01*
X93145702Y-111042262D01*
X93148245Y-111035412D01*
X93160749Y-111006907D01*
X93180530Y-110928789D01*
X93181347Y-110925869D01*
X93205864Y-110845815D01*
X93209801Y-110815062D01*
X93211220Y-110807598D01*
X93218051Y-110780626D01*
X93225090Y-110695672D01*
X93236318Y-110607995D01*
X93235142Y-110580320D01*
X93235301Y-110572449D01*
X93236143Y-110562282D01*
X93237327Y-110548000D01*
X93230028Y-110459916D01*
X93226143Y-110368449D01*
X93221003Y-110344600D01*
X93219804Y-110336533D01*
X93218051Y-110315374D01*
X93200990Y-110248001D01*
X93590693Y-110248001D01*
X93592667Y-110270570D01*
X93592843Y-110278892D01*
X93591684Y-110304687D01*
X93591684Y-110304688D01*
X93602687Y-110385914D01*
X93603017Y-110388879D01*
X93609884Y-110467365D01*
X93609885Y-110467375D01*
X93616605Y-110492452D01*
X93618183Y-110500306D01*
X93622093Y-110529172D01*
X93622093Y-110529175D01*
X93646405Y-110603996D01*
X93647336Y-110607141D01*
X93651196Y-110621543D01*
X93666879Y-110680075D01*
X93679248Y-110706601D01*
X93682068Y-110713761D01*
X93692097Y-110744622D01*
X93727813Y-110810994D01*
X93729433Y-110814223D01*
X93759945Y-110879657D01*
X93778628Y-110906339D01*
X93782501Y-110912624D01*
X93799440Y-110944100D01*
X93799443Y-110944105D01*
X93844383Y-111000458D01*
X93846735Y-111003603D01*
X93886244Y-111060029D01*
X93886249Y-111060035D01*
X93886251Y-111060038D01*
X93911625Y-111085412D01*
X93916327Y-111090674D01*
X93940685Y-111121217D01*
X93940686Y-111121218D01*
X93973549Y-111149929D01*
X93992485Y-111166473D01*
X93995568Y-111169355D01*
X94041962Y-111215749D01*
X94074072Y-111238232D01*
X94079380Y-111242390D01*
X94101403Y-111261632D01*
X94111280Y-111270261D01*
X94111282Y-111270263D01*
X94167488Y-111303845D01*
X94171312Y-111306321D01*
X94215876Y-111337526D01*
X94222346Y-111342056D01*
X94260863Y-111360016D01*
X94266547Y-111363030D01*
X94303738Y-111385251D01*
X94305752Y-111386454D01*
X94321055Y-111392196D01*
X94363977Y-111408305D01*
X94368449Y-111410183D01*
X94381100Y-111416083D01*
X94421919Y-111435118D01*
X94421924Y-111435120D01*
X94466163Y-111446973D01*
X94471978Y-111448838D01*
X94517839Y-111466051D01*
X94575780Y-111476565D01*
X94580807Y-111477693D01*
X94634629Y-111492115D01*
X94676615Y-111495788D01*
X94683550Y-111496395D01*
X94689299Y-111497166D01*
X94729464Y-111504455D01*
X94740732Y-111506500D01*
X94740733Y-111506500D01*
X94796298Y-111506500D01*
X94801791Y-111506740D01*
X94821449Y-111508459D01*
X94854000Y-111511307D01*
X94887390Y-111508385D01*
X94907296Y-111506645D01*
X94910508Y-111506500D01*
X94910522Y-111506500D01*
X94965390Y-111501561D01*
X95073371Y-111492115D01*
X95073386Y-111492110D01*
X95073860Y-111492028D01*
X95079181Y-111491321D01*
X95079393Y-111491301D01*
X95079622Y-111491281D01*
X95171038Y-111466051D01*
X95184336Y-111462381D01*
X95208172Y-111455993D01*
X95286076Y-111435120D01*
X95286091Y-111435112D01*
X95292994Y-111432601D01*
X95297772Y-111431074D01*
X95297993Y-111431014D01*
X95393019Y-111385251D01*
X95485654Y-111342056D01*
X95485656Y-111342054D01*
X95490419Y-111339305D01*
X95490497Y-111339440D01*
X95501346Y-111333084D01*
X95502093Y-111332725D01*
X95584868Y-111272585D01*
X95666038Y-111215749D01*
X95666839Y-111214947D01*
X95681891Y-111202093D01*
X95685363Y-111199571D01*
X95753902Y-111127884D01*
X95821749Y-111060038D01*
X95824395Y-111056258D01*
X95836532Y-111041460D01*
X95841912Y-111035834D01*
X95894809Y-110955697D01*
X95927247Y-110909372D01*
X95948054Y-110879657D01*
X95948054Y-110879656D01*
X95948056Y-110879654D01*
X95951470Y-110872330D01*
X95960507Y-110856168D01*
X95966709Y-110846774D01*
X96003216Y-110761360D01*
X96041120Y-110680076D01*
X96044108Y-110668923D01*
X96049952Y-110652016D01*
X96055743Y-110638470D01*
X96075711Y-110550978D01*
X96098115Y-110467371D01*
X96099161Y-110455415D01*
X96099801Y-110448097D01*
X96101143Y-110439553D01*
X96101948Y-110436025D01*
X96106151Y-110417615D01*
X96110036Y-110331105D01*
X96114969Y-110274723D01*
X96117307Y-110248004D01*
X96115438Y-110226646D01*
X96115331Y-110225423D01*
X96115156Y-110217102D01*
X96116315Y-110191309D01*
X96105309Y-110110074D01*
X96104983Y-110107134D01*
X96101442Y-110066664D01*
X96098115Y-110028629D01*
X96091392Y-110003541D01*
X96089817Y-109995702D01*
X96085906Y-109966825D01*
X96061591Y-109891993D01*
X96060659Y-109888846D01*
X96060624Y-109888716D01*
X96041120Y-109815924D01*
X96041118Y-109815921D01*
X96041117Y-109815916D01*
X96031944Y-109796246D01*
X96028745Y-109789386D01*
X96025932Y-109782246D01*
X96015903Y-109751379D01*
X95980169Y-109684974D01*
X95978581Y-109681810D01*
X95948056Y-109616347D01*
X95929370Y-109589661D01*
X95925495Y-109583374D01*
X95921036Y-109575087D01*
X95908556Y-109551894D01*
X95863604Y-109495527D01*
X95861270Y-109492404D01*
X95821749Y-109435962D01*
X95796373Y-109410586D01*
X95791670Y-109405323D01*
X95767317Y-109374785D01*
X95756585Y-109365409D01*
X95715510Y-109329522D01*
X95712430Y-109326643D01*
X95666038Y-109280251D01*
X95666037Y-109280250D01*
X95666036Y-109280249D01*
X95666034Y-109280247D01*
X95633931Y-109257770D01*
X95628617Y-109253607D01*
X95596718Y-109225737D01*
X95592845Y-109223423D01*
X95540514Y-109192156D01*
X95536690Y-109189680D01*
X95485658Y-109153946D01*
X95485652Y-109153943D01*
X95447136Y-109135982D01*
X95441460Y-109132974D01*
X95403996Y-109110590D01*
X95402254Y-109109549D01*
X95402252Y-109109548D01*
X95402250Y-109109547D01*
X95386586Y-109103668D01*
X95344030Y-109087695D01*
X95339542Y-109085810D01*
X95286079Y-109060881D01*
X95286065Y-109060876D01*
X95241841Y-109049026D01*
X95236007Y-109047155D01*
X95190161Y-109029948D01*
X95132231Y-109019435D01*
X95127175Y-109018301D01*
X95073370Y-109003884D01*
X95024451Y-108999604D01*
X95018691Y-108998831D01*
X94967270Y-108989500D01*
X94967267Y-108989500D01*
X94911702Y-108989500D01*
X94906209Y-108989260D01*
X94866579Y-108985793D01*
X94854000Y-108984693D01*
X94853999Y-108984693D01*
X94853998Y-108984693D01*
X94800722Y-108989353D01*
X94797496Y-108989499D01*
X94797485Y-108989500D01*
X94797478Y-108989500D01*
X94749566Y-108993811D01*
X94742608Y-108994438D01*
X94634612Y-109003886D01*
X94634086Y-109003979D01*
X94628838Y-109004677D01*
X94628387Y-109004717D01*
X94628381Y-109004718D01*
X94523663Y-109033618D01*
X94421930Y-109060877D01*
X94414994Y-109063402D01*
X94410217Y-109064928D01*
X94410007Y-109064985D01*
X94314963Y-109110755D01*
X94222353Y-109153940D01*
X94217589Y-109156691D01*
X94217512Y-109156559D01*
X94206690Y-109162897D01*
X94205914Y-109163270D01*
X94205900Y-109163279D01*
X94167765Y-109190986D01*
X94123119Y-109223423D01*
X94093019Y-109244500D01*
X94041958Y-109280253D01*
X94041138Y-109281073D01*
X94026133Y-109293888D01*
X94022645Y-109296422D01*
X94022634Y-109296431D01*
X93954097Y-109368115D01*
X93886250Y-109435962D01*
X93883597Y-109439751D01*
X93871477Y-109454528D01*
X93866088Y-109460164D01*
X93866086Y-109460168D01*
X93813183Y-109540313D01*
X93759944Y-109616345D01*
X93756519Y-109623689D01*
X93747495Y-109639825D01*
X93741291Y-109649225D01*
X93741288Y-109649230D01*
X93704781Y-109734644D01*
X93666881Y-109815921D01*
X93666880Y-109815924D01*
X93663889Y-109827084D01*
X93658049Y-109843977D01*
X93652257Y-109857529D01*
X93632288Y-109945021D01*
X93609884Y-110028632D01*
X93609884Y-110028634D01*
X93608198Y-110047905D01*
X93606857Y-110056436D01*
X93601850Y-110078381D01*
X93601848Y-110078389D01*
X93598805Y-110146143D01*
X93597963Y-110164894D01*
X93592668Y-110225429D01*
X93590693Y-110248001D01*
X93200990Y-110248001D01*
X93195582Y-110226646D01*
X93175630Y-110134068D01*
X93167762Y-110114491D01*
X93165148Y-110106469D01*
X93160749Y-110089093D01*
X93122714Y-110002383D01*
X93086233Y-109911596D01*
X93083055Y-109906435D01*
X93076909Y-109896453D01*
X93072855Y-109888716D01*
X93066984Y-109875331D01*
X93013475Y-109793429D01*
X92986053Y-109748893D01*
X92960524Y-109707431D01*
X92953933Y-109699942D01*
X92943038Y-109685617D01*
X92940529Y-109681777D01*
X92939314Y-109679917D01*
X92870920Y-109605622D01*
X92802119Y-109527449D01*
X92797044Y-109523352D01*
X92783488Y-109510646D01*
X92781220Y-109508182D01*
X92699051Y-109444227D01*
X92615580Y-109376827D01*
X92615573Y-109376823D01*
X92612888Y-109375323D01*
X92597933Y-109365409D01*
X92597024Y-109364815D01*
X92597017Y-109364810D01*
X92502653Y-109313743D01*
X92488472Y-109305821D01*
X92406264Y-109259897D01*
X92402468Y-109258181D01*
X92396600Y-109255576D01*
X92396500Y-109255806D01*
X92391735Y-109253716D01*
X92391728Y-109253713D01*
X92391727Y-109253713D01*
X92287259Y-109217848D01*
X92282419Y-109216138D01*
X92180187Y-109180017D01*
X92180183Y-109180016D01*
X92179654Y-109179926D01*
X92174860Y-109178909D01*
X92170955Y-109177920D01*
X92058904Y-109159222D01*
X92048651Y-109157464D01*
X91943881Y-109139500D01*
X91940712Y-109139500D01*
X91707288Y-109139500D01*
X91650567Y-109148963D01*
X91645543Y-109149595D01*
X91585104Y-109154740D01*
X91585100Y-109154741D01*
X91532773Y-109168366D01*
X91527265Y-109169540D01*
X91477061Y-109177917D01*
X91477048Y-109177920D01*
X91419551Y-109197658D01*
X91414972Y-109199038D01*
X91353072Y-109215157D01*
X91353070Y-109215158D01*
X91330394Y-109225407D01*
X91260081Y-109235236D01*
X91195616Y-109205491D01*
X91157466Y-109145615D01*
X91152500Y-109110590D01*
X91152500Y-106533135D01*
X91172502Y-106465014D01*
X91226158Y-106418521D01*
X91296432Y-106408417D01*
X91319405Y-106413960D01*
X91360740Y-106428151D01*
X91467806Y-106465980D01*
X91468335Y-106466070D01*
X91473158Y-106467093D01*
X91477037Y-106468076D01*
X91477049Y-106468080D01*
X91530043Y-106476923D01*
X91589094Y-106486777D01*
X91615228Y-106491258D01*
X91704119Y-106506500D01*
X91704122Y-106506500D01*
X91940712Y-106506500D01*
X91997448Y-106497031D01*
X92002451Y-106496403D01*
X92062898Y-106491259D01*
X92115219Y-106477634D01*
X92120733Y-106476459D01*
X92122286Y-106476199D01*
X92170951Y-106468080D01*
X92228448Y-106448340D01*
X92233034Y-106446959D01*
X92258427Y-106440346D01*
X92294924Y-106430844D01*
X92341213Y-106409919D01*
X92346671Y-106407754D01*
X92391727Y-106392287D01*
X92448108Y-106361774D01*
X92452107Y-106359792D01*
X92513402Y-106332086D01*
X92552749Y-106305490D01*
X92558032Y-106302286D01*
X92597017Y-106281190D01*
X92650189Y-106239802D01*
X92653591Y-106237332D01*
X92712047Y-106197825D01*
X92743963Y-106167234D01*
X92748850Y-106163012D01*
X92781220Y-106137818D01*
X92829098Y-106085807D01*
X92831815Y-106083036D01*
X92885144Y-106031925D01*
X92909462Y-105999043D01*
X92913766Y-105993835D01*
X92916367Y-105991010D01*
X92939314Y-105966083D01*
X92979763Y-105904168D01*
X92981852Y-105901166D01*
X92986693Y-105894621D01*
X93027715Y-105839157D01*
X93044641Y-105805582D01*
X93048157Y-105799485D01*
X93053513Y-105791285D01*
X93066984Y-105770669D01*
X93098013Y-105699929D01*
X93099453Y-105696871D01*
X93135657Y-105625067D01*
X93145702Y-105592262D01*
X93148245Y-105585412D01*
X93153814Y-105572716D01*
X93160749Y-105556907D01*
X93180530Y-105478789D01*
X93181347Y-105475869D01*
X93205195Y-105398001D01*
X93590693Y-105398001D01*
X93592667Y-105420570D01*
X93592843Y-105428892D01*
X93591684Y-105454687D01*
X93591684Y-105454688D01*
X93602687Y-105535914D01*
X93603017Y-105538879D01*
X93609884Y-105617365D01*
X93609885Y-105617375D01*
X93616605Y-105642452D01*
X93618183Y-105650306D01*
X93622093Y-105679172D01*
X93622093Y-105679175D01*
X93628837Y-105699929D01*
X93644537Y-105748249D01*
X93646405Y-105753996D01*
X93647336Y-105757141D01*
X93650962Y-105770671D01*
X93666879Y-105830075D01*
X93679248Y-105856601D01*
X93682068Y-105863761D01*
X93692097Y-105894622D01*
X93727813Y-105960994D01*
X93729433Y-105964223D01*
X93759945Y-106029657D01*
X93778628Y-106056339D01*
X93782501Y-106062624D01*
X93799440Y-106094100D01*
X93799443Y-106094105D01*
X93844383Y-106150458D01*
X93846735Y-106153603D01*
X93886244Y-106210029D01*
X93886249Y-106210035D01*
X93886251Y-106210038D01*
X93911625Y-106235412D01*
X93916327Y-106240674D01*
X93940685Y-106271217D01*
X93940686Y-106271218D01*
X93992485Y-106316473D01*
X93995568Y-106319355D01*
X94041962Y-106365749D01*
X94074072Y-106388232D01*
X94079380Y-106392390D01*
X94104071Y-106413963D01*
X94111280Y-106420261D01*
X94111282Y-106420263D01*
X94167488Y-106453845D01*
X94171312Y-106456321D01*
X94215876Y-106487526D01*
X94222346Y-106492056D01*
X94260863Y-106510016D01*
X94266547Y-106513030D01*
X94303738Y-106535251D01*
X94305752Y-106536454D01*
X94316150Y-106540356D01*
X94363977Y-106558305D01*
X94368454Y-106560186D01*
X94421919Y-106585118D01*
X94421924Y-106585120D01*
X94466163Y-106596973D01*
X94471978Y-106598838D01*
X94517839Y-106616051D01*
X94575780Y-106626565D01*
X94580807Y-106627693D01*
X94634629Y-106642115D01*
X94676615Y-106645788D01*
X94683550Y-106646395D01*
X94689299Y-106647166D01*
X94729464Y-106654455D01*
X94740732Y-106656500D01*
X94740733Y-106656500D01*
X94796298Y-106656500D01*
X94801791Y-106656740D01*
X94821449Y-106658459D01*
X94854000Y-106661307D01*
X94887390Y-106658385D01*
X94907296Y-106656645D01*
X94910508Y-106656500D01*
X94910522Y-106656500D01*
X94965390Y-106651561D01*
X95073371Y-106642115D01*
X95073386Y-106642110D01*
X95073860Y-106642028D01*
X95079181Y-106641321D01*
X95079393Y-106641301D01*
X95079622Y-106641281D01*
X95171038Y-106616051D01*
X95184336Y-106612381D01*
X95208172Y-106605993D01*
X95286076Y-106585120D01*
X95286091Y-106585112D01*
X95292994Y-106582601D01*
X95297772Y-106581074D01*
X95297993Y-106581014D01*
X95393019Y-106535251D01*
X95485654Y-106492056D01*
X95485656Y-106492054D01*
X95490419Y-106489305D01*
X95490497Y-106489440D01*
X95501346Y-106483084D01*
X95502093Y-106482725D01*
X95584868Y-106422585D01*
X95646818Y-106379207D01*
X95666027Y-106365757D01*
X95666028Y-106365755D01*
X95666038Y-106365749D01*
X95666839Y-106364947D01*
X95681891Y-106352093D01*
X95685363Y-106349571D01*
X95753902Y-106277884D01*
X95821749Y-106210038D01*
X95824395Y-106206258D01*
X95836532Y-106191460D01*
X95841912Y-106185834D01*
X95894809Y-106105697D01*
X95948056Y-106029654D01*
X95951470Y-106022330D01*
X95960507Y-106006168D01*
X95966709Y-105996774D01*
X96003216Y-105911360D01*
X96041120Y-105830076D01*
X96044108Y-105818923D01*
X96049952Y-105802016D01*
X96055743Y-105788470D01*
X96075711Y-105700978D01*
X96098115Y-105617371D01*
X96099801Y-105598097D01*
X96101143Y-105589553D01*
X96104986Y-105572717D01*
X96106151Y-105567615D01*
X96110036Y-105481105D01*
X96114969Y-105424723D01*
X96117307Y-105398004D01*
X96117115Y-105395815D01*
X96115331Y-105375423D01*
X96115156Y-105367102D01*
X96116315Y-105341309D01*
X96105309Y-105260074D01*
X96104983Y-105257134D01*
X96099801Y-105197905D01*
X96098115Y-105178629D01*
X96091392Y-105153541D01*
X96089817Y-105145702D01*
X96085906Y-105116825D01*
X96061591Y-105041993D01*
X96060659Y-105038846D01*
X96060217Y-105037198D01*
X96041120Y-104965924D01*
X96041118Y-104965921D01*
X96041117Y-104965916D01*
X96028747Y-104939391D01*
X96025932Y-104932246D01*
X96015903Y-104901379D01*
X95980169Y-104834974D01*
X95978581Y-104831810D01*
X95948056Y-104766347D01*
X95929370Y-104739661D01*
X95925495Y-104733374D01*
X95921029Y-104725074D01*
X95908556Y-104701894D01*
X95863604Y-104645527D01*
X95861270Y-104642404D01*
X95821749Y-104585962D01*
X95796373Y-104560586D01*
X95791670Y-104555323D01*
X95767317Y-104524785D01*
X95746824Y-104506881D01*
X95715510Y-104479522D01*
X95712430Y-104476643D01*
X95666038Y-104430251D01*
X95666037Y-104430250D01*
X95666036Y-104430249D01*
X95666034Y-104430247D01*
X95633931Y-104407770D01*
X95628617Y-104403607D01*
X95596718Y-104375737D01*
X95592845Y-104373423D01*
X95540514Y-104342156D01*
X95536690Y-104339680D01*
X95485658Y-104303946D01*
X95485652Y-104303943D01*
X95447136Y-104285982D01*
X95441460Y-104282974D01*
X95404272Y-104260755D01*
X95402254Y-104259549D01*
X95402252Y-104259548D01*
X95402250Y-104259547D01*
X95386586Y-104253668D01*
X95344030Y-104237695D01*
X95339542Y-104235810D01*
X95286079Y-104210881D01*
X95286065Y-104210876D01*
X95241841Y-104199026D01*
X95236007Y-104197155D01*
X95190161Y-104179948D01*
X95132231Y-104169435D01*
X95127175Y-104168301D01*
X95073370Y-104153884D01*
X95024451Y-104149604D01*
X95018691Y-104148831D01*
X94967270Y-104139500D01*
X94967267Y-104139500D01*
X94911702Y-104139500D01*
X94906209Y-104139260D01*
X94866579Y-104135793D01*
X94854000Y-104134693D01*
X94853999Y-104134693D01*
X94853998Y-104134693D01*
X94800722Y-104139353D01*
X94797496Y-104139499D01*
X94797485Y-104139500D01*
X94797478Y-104139500D01*
X94749566Y-104143811D01*
X94742608Y-104144438D01*
X94634612Y-104153886D01*
X94634086Y-104153979D01*
X94628838Y-104154677D01*
X94628387Y-104154717D01*
X94628381Y-104154718D01*
X94523663Y-104183618D01*
X94421930Y-104210877D01*
X94414994Y-104213402D01*
X94410217Y-104214928D01*
X94410007Y-104214985D01*
X94314963Y-104260755D01*
X94222353Y-104303940D01*
X94217589Y-104306691D01*
X94217512Y-104306559D01*
X94206690Y-104312897D01*
X94205914Y-104313270D01*
X94205900Y-104313279D01*
X94169563Y-104339680D01*
X94123119Y-104373423D01*
X94107497Y-104384362D01*
X94041958Y-104430253D01*
X94041138Y-104431073D01*
X94026133Y-104443888D01*
X94022645Y-104446422D01*
X94022634Y-104446431D01*
X93954097Y-104518115D01*
X93886250Y-104585962D01*
X93883597Y-104589751D01*
X93871477Y-104604528D01*
X93866088Y-104610164D01*
X93866086Y-104610168D01*
X93813183Y-104690313D01*
X93759944Y-104766345D01*
X93756519Y-104773689D01*
X93747495Y-104789825D01*
X93741291Y-104799225D01*
X93741288Y-104799230D01*
X93704781Y-104884644D01*
X93666881Y-104965921D01*
X93666880Y-104965924D01*
X93663889Y-104977084D01*
X93658049Y-104993977D01*
X93652257Y-105007529D01*
X93632288Y-105095021D01*
X93609884Y-105178632D01*
X93609884Y-105178634D01*
X93608198Y-105197905D01*
X93606857Y-105206436D01*
X93601850Y-105228381D01*
X93601848Y-105228389D01*
X93597967Y-105314801D01*
X93597963Y-105314894D01*
X93590885Y-105395811D01*
X93590693Y-105398001D01*
X93205195Y-105398001D01*
X93205864Y-105395815D01*
X93209801Y-105365062D01*
X93211220Y-105357598D01*
X93218051Y-105330626D01*
X93225090Y-105245672D01*
X93236318Y-105157995D01*
X93235142Y-105130320D01*
X93235301Y-105122449D01*
X93235862Y-105115674D01*
X93237327Y-105098000D01*
X93230028Y-105009916D01*
X93226143Y-104918449D01*
X93221003Y-104894600D01*
X93219804Y-104886533D01*
X93218051Y-104865374D01*
X93195582Y-104776646D01*
X93175630Y-104684068D01*
X93167762Y-104664491D01*
X93165148Y-104656469D01*
X93160749Y-104639093D01*
X93122714Y-104552383D01*
X93086233Y-104461596D01*
X93076909Y-104446453D01*
X93072855Y-104438716D01*
X93066984Y-104425331D01*
X93013475Y-104343429D01*
X92991951Y-104308472D01*
X92960524Y-104257431D01*
X92953933Y-104249942D01*
X92943038Y-104235617D01*
X92939314Y-104229917D01*
X92870920Y-104155622D01*
X92802119Y-104077449D01*
X92797044Y-104073352D01*
X92783488Y-104060646D01*
X92781220Y-104058182D01*
X92699051Y-103994227D01*
X92615580Y-103926827D01*
X92615573Y-103926823D01*
X92612888Y-103925323D01*
X92597933Y-103915409D01*
X92597024Y-103914815D01*
X92597017Y-103914810D01*
X92502653Y-103863743D01*
X92406260Y-103809895D01*
X92406258Y-103809894D01*
X92402468Y-103808181D01*
X92396600Y-103805576D01*
X92396500Y-103805806D01*
X92391735Y-103803716D01*
X92391728Y-103803713D01*
X92391727Y-103803713D01*
X92287259Y-103767848D01*
X92180187Y-103730017D01*
X92180183Y-103730016D01*
X92179654Y-103729926D01*
X92174860Y-103728909D01*
X92170955Y-103727920D01*
X92058904Y-103709222D01*
X91943881Y-103689500D01*
X91940712Y-103689500D01*
X91707288Y-103689500D01*
X91650567Y-103698963D01*
X91645543Y-103699595D01*
X91585104Y-103704740D01*
X91585100Y-103704741D01*
X91532773Y-103718366D01*
X91527265Y-103719540D01*
X91477061Y-103727917D01*
X91477048Y-103727920D01*
X91419551Y-103747658D01*
X91414972Y-103749038D01*
X91353072Y-103765157D01*
X91353070Y-103765158D01*
X91330394Y-103775407D01*
X91260081Y-103785236D01*
X91195616Y-103755491D01*
X91157466Y-103695615D01*
X91152500Y-103660590D01*
X91152500Y-100599371D01*
X91172502Y-100531250D01*
X91189405Y-100510275D01*
X91371277Y-100328404D01*
X91433589Y-100294379D01*
X91460372Y-100291500D01*
X92592632Y-100291500D01*
X92592638Y-100291500D01*
X92592645Y-100291499D01*
X92592649Y-100291499D01*
X92653196Y-100284990D01*
X92653199Y-100284989D01*
X92653201Y-100284989D01*
X92790204Y-100233889D01*
X92888907Y-100160000D01*
X92955426Y-100135189D01*
X93024800Y-100150280D01*
X93039925Y-100160000D01*
X93138034Y-100233444D01*
X93274906Y-100284494D01*
X93335402Y-100290999D01*
X93335415Y-100291000D01*
X93980000Y-100291000D01*
X93980000Y-99377668D01*
X94088839Y-99427373D01*
X94197527Y-99443000D01*
X94270473Y-99443000D01*
X94379161Y-99427373D01*
X94488000Y-99377668D01*
X94488000Y-100291000D01*
G37*
%TD.AperFunction*%
%TA.AperFunction,Conductor*%
G36*
X97571835Y-94486148D02*
G01*
X97629359Y-94599045D01*
X97718955Y-94688641D01*
X97831852Y-94746165D01*
X97917482Y-94759727D01*
X97229110Y-95448098D01*
X97229110Y-95448100D01*
X97300498Y-95498086D01*
X97300497Y-95498086D01*
X97378169Y-95534305D01*
X97431454Y-95581223D01*
X97450915Y-95649500D01*
X97430373Y-95717460D01*
X97376350Y-95763525D01*
X97324919Y-95774500D01*
X96097264Y-95774500D01*
X96029143Y-95754498D01*
X95982650Y-95700842D01*
X95972546Y-95630568D01*
X96002040Y-95565988D01*
X96044014Y-95534305D01*
X96052074Y-95530546D01*
X96120749Y-95498523D01*
X96308300Y-95367198D01*
X96470198Y-95205300D01*
X96601523Y-95017749D01*
X96601529Y-95017735D01*
X96601658Y-95017514D01*
X96601747Y-95017428D01*
X96604679Y-95013242D01*
X96605519Y-95013830D01*
X96653031Y-94968511D01*
X96722742Y-94955061D01*
X96788658Y-94981435D01*
X96816291Y-95013316D01*
X96816756Y-95012992D01*
X96819891Y-95017469D01*
X96819902Y-95017482D01*
X96819911Y-95017499D01*
X96869899Y-95088888D01*
X97558272Y-94400516D01*
X97571835Y-94486148D01*
G37*
%TD.AperFunction*%
%TA.AperFunction,Conductor*%
G36*
X167007058Y-91490634D02*
G01*
X167276096Y-91508269D01*
X167284249Y-91509341D01*
X167546671Y-91561539D01*
X167554628Y-91563671D01*
X167807978Y-91649673D01*
X167815588Y-91652824D01*
X168055558Y-91771164D01*
X168062676Y-91775274D01*
X168285137Y-91923918D01*
X168291675Y-91928934D01*
X168411243Y-92033792D01*
X168492827Y-92105339D01*
X168498658Y-92111170D01*
X168675063Y-92312322D01*
X168680081Y-92318862D01*
X168828722Y-92541318D01*
X168832837Y-92548446D01*
X168951171Y-92788403D01*
X168954328Y-92796025D01*
X169040326Y-93049366D01*
X169042461Y-93057334D01*
X169094655Y-93319732D01*
X169095731Y-93327911D01*
X169098953Y-93377060D01*
X169108105Y-93516697D01*
X169113365Y-93596936D01*
X169113500Y-93601058D01*
X169113500Y-151334500D01*
X169093498Y-151402621D01*
X169039842Y-151449114D01*
X168987500Y-151460500D01*
X102435107Y-151460500D01*
X102366986Y-151440498D01*
X102346012Y-151423595D01*
X88479405Y-137556987D01*
X88445379Y-137494675D01*
X88442500Y-137467892D01*
X88442500Y-134326000D01*
X92413004Y-134326000D01*
X92432951Y-134554002D01*
X92492186Y-134775068D01*
X92492188Y-134775073D01*
X92588913Y-134982501D01*
X92638899Y-135053888D01*
X93327272Y-134365516D01*
X93340835Y-134451148D01*
X93398359Y-134564045D01*
X93487955Y-134653641D01*
X93600852Y-134711165D01*
X93686482Y-134724727D01*
X92998110Y-135413098D01*
X92998110Y-135413100D01*
X93069498Y-135463086D01*
X93276926Y-135559811D01*
X93276931Y-135559813D01*
X93497999Y-135619048D01*
X93497995Y-135619048D01*
X93726000Y-135638995D01*
X93954002Y-135619048D01*
X94175068Y-135559813D01*
X94175073Y-135559811D01*
X94382497Y-135463088D01*
X94453888Y-135413099D01*
X94453888Y-135413097D01*
X93765518Y-134724727D01*
X93851148Y-134711165D01*
X93964045Y-134653641D01*
X94053641Y-134564045D01*
X94111165Y-134451148D01*
X94124727Y-134365518D01*
X94813097Y-135053888D01*
X94813099Y-135053888D01*
X94863088Y-134982497D01*
X94959811Y-134775073D01*
X94959813Y-134775068D01*
X95019048Y-134554002D01*
X95023947Y-134498000D01*
X95738000Y-134498000D01*
X95738000Y-135171689D01*
X95740879Y-135208274D01*
X95740881Y-135208286D01*
X95786382Y-135364900D01*
X95869399Y-135505274D01*
X95869405Y-135505281D01*
X95984718Y-135620594D01*
X95984725Y-135620600D01*
X96125103Y-135703619D01*
X96266999Y-135744843D01*
X96267000Y-135744843D01*
X96267000Y-134498000D01*
X95738000Y-134498000D01*
X95023947Y-134498000D01*
X95038995Y-134326000D01*
X95019048Y-134097997D01*
X94990110Y-133990000D01*
X95738000Y-133990000D01*
X96267000Y-133990000D01*
X96267000Y-132743156D01*
X96125100Y-132784382D01*
X95984725Y-132867399D01*
X95984718Y-132867405D01*
X95869405Y-132982718D01*
X95869399Y-132982725D01*
X95786382Y-133123099D01*
X95740881Y-133279713D01*
X95740879Y-133279725D01*
X95738000Y-133316311D01*
X95738000Y-133990000D01*
X94990110Y-133990000D01*
X94959813Y-133876931D01*
X94959811Y-133876926D01*
X94863086Y-133669498D01*
X94813100Y-133598110D01*
X94813098Y-133598110D01*
X94124727Y-134286481D01*
X94111165Y-134200852D01*
X94053641Y-134087955D01*
X93964045Y-133998359D01*
X93851148Y-133940835D01*
X93765517Y-133927272D01*
X94453888Y-133238899D01*
X94453888Y-133238898D01*
X94382501Y-133188913D01*
X94175073Y-133092188D01*
X94175068Y-133092186D01*
X93954000Y-133032951D01*
X93954004Y-133032951D01*
X93726000Y-133013004D01*
X93497997Y-133032951D01*
X93276931Y-133092186D01*
X93276926Y-133092188D01*
X93069500Y-133188913D01*
X92998109Y-133238900D01*
X93686481Y-133927272D01*
X93600852Y-133940835D01*
X93487955Y-133998359D01*
X93398359Y-134087955D01*
X93340835Y-134200852D01*
X93327272Y-134286481D01*
X92638900Y-133598109D01*
X92588913Y-133669500D01*
X92492188Y-133876926D01*
X92492186Y-133876931D01*
X92432951Y-134097997D01*
X92413004Y-134326000D01*
X88442500Y-134326000D01*
X88442500Y-129326000D01*
X92412502Y-129326000D01*
X92432457Y-129554087D01*
X92455716Y-129640889D01*
X92491715Y-129775240D01*
X92491717Y-129775246D01*
X92544850Y-129889191D01*
X92588477Y-129982749D01*
X92719802Y-130170300D01*
X92881700Y-130332198D01*
X93069251Y-130463523D01*
X93276757Y-130560284D01*
X93497913Y-130619543D01*
X93726000Y-130639498D01*
X93954087Y-130619543D01*
X94175243Y-130560284D01*
X94382749Y-130463523D01*
X94570300Y-130332198D01*
X94732198Y-130170300D01*
X94863523Y-129982749D01*
X94960284Y-129775243D01*
X95019543Y-129554087D01*
X95039498Y-129326000D01*
X95019543Y-129097913D01*
X94960284Y-128876757D01*
X94863523Y-128669251D01*
X94732198Y-128481700D01*
X94570300Y-128319802D01*
X94382749Y-128188477D01*
X94378065Y-128186293D01*
X94175246Y-128091717D01*
X94175240Y-128091715D01*
X94056378Y-128059866D01*
X93954087Y-128032457D01*
X93726000Y-128012502D01*
X93725999Y-128012502D01*
X93497913Y-128032457D01*
X93276759Y-128091715D01*
X93276753Y-128091717D01*
X93069250Y-128188477D01*
X92881703Y-128319799D01*
X92881697Y-128319804D01*
X92719804Y-128481697D01*
X92719799Y-128481703D01*
X92588477Y-128669250D01*
X92491717Y-128876753D01*
X92491715Y-128876759D01*
X92466487Y-128970913D01*
X92432457Y-129097913D01*
X92412502Y-129326000D01*
X88442500Y-129326000D01*
X88442500Y-94361000D01*
X89150502Y-94361000D01*
X89170457Y-94589087D01*
X89179809Y-94623990D01*
X89229715Y-94810240D01*
X89229717Y-94810246D01*
X89297245Y-94955061D01*
X89326477Y-95017749D01*
X89457802Y-95205300D01*
X89619700Y-95367198D01*
X89807251Y-95498523D01*
X90014757Y-95595284D01*
X90235913Y-95654543D01*
X90443762Y-95672727D01*
X90509878Y-95698589D01*
X90551517Y-95756093D01*
X90555458Y-95826980D01*
X90520449Y-95888745D01*
X90508290Y-95899113D01*
X90480738Y-95919738D01*
X90393112Y-96036792D01*
X90393110Y-96036797D01*
X90342011Y-96173795D01*
X90342009Y-96173803D01*
X90335500Y-96234350D01*
X90335499Y-96234367D01*
X90335499Y-98874202D01*
X90335284Y-98879405D01*
X90330844Y-98933000D01*
X90332874Y-98957498D01*
X90335284Y-98986592D01*
X90335499Y-98991796D01*
X90335499Y-99166628D01*
X90315497Y-99234749D01*
X90298594Y-99255724D01*
X89903222Y-99651095D01*
X89889373Y-99663063D01*
X89869948Y-99677525D01*
X89869944Y-99677529D01*
X89836007Y-99717971D01*
X89832300Y-99722017D01*
X89826421Y-99727897D01*
X89826412Y-99727907D01*
X89805863Y-99753896D01*
X89760066Y-99808477D01*
X89755965Y-99813364D01*
X89751935Y-99819491D01*
X89751880Y-99819455D01*
X89747825Y-99825820D01*
X89747882Y-99825855D01*
X89744028Y-99832101D01*
X89711220Y-99902458D01*
X89676391Y-99971812D01*
X89673882Y-99978707D01*
X89673820Y-99978684D01*
X89671343Y-99985810D01*
X89671404Y-99985831D01*
X89669097Y-99992790D01*
X89653392Y-100068849D01*
X89635500Y-100144345D01*
X89634648Y-100151634D01*
X89634581Y-100151626D01*
X89633814Y-100159126D01*
X89633881Y-100159132D01*
X89633241Y-100166442D01*
X89635500Y-100244079D01*
X89635500Y-119666559D01*
X89634170Y-119684819D01*
X89630659Y-119708786D01*
X89630659Y-119708794D01*
X89635260Y-119761372D01*
X89635500Y-119766866D01*
X89635500Y-119775182D01*
X89639347Y-119808094D01*
X89646112Y-119885419D01*
X89647596Y-119892606D01*
X89647531Y-119892619D01*
X89649165Y-119899989D01*
X89649229Y-119899975D01*
X89650921Y-119907116D01*
X89670835Y-119961827D01*
X89677473Y-119980065D01*
X89687393Y-120010000D01*
X89701885Y-120053736D01*
X89704987Y-120060388D01*
X89704926Y-120060416D01*
X89708211Y-120067202D01*
X89708270Y-120067173D01*
X89711560Y-120073724D01*
X89754233Y-120138605D01*
X89794967Y-120204648D01*
X89799522Y-120210408D01*
X89799468Y-120210450D01*
X89804228Y-120216292D01*
X89804279Y-120216250D01*
X89808993Y-120221868D01*
X89865482Y-120275163D01*
X92055092Y-122464773D01*
X92067065Y-122478627D01*
X92081530Y-122498057D01*
X92121975Y-122531994D01*
X92126021Y-122535702D01*
X92131899Y-122541580D01*
X92149230Y-122555284D01*
X92157897Y-122562137D01*
X92166138Y-122569052D01*
X92217360Y-122612032D01*
X92217366Y-122612035D01*
X92223495Y-122616067D01*
X92223457Y-122616123D01*
X92229806Y-122620168D01*
X92229842Y-122620111D01*
X92236091Y-122623965D01*
X92236094Y-122623967D01*
X92306459Y-122656779D01*
X92375812Y-122691609D01*
X92375814Y-122691609D01*
X92382711Y-122694120D01*
X92382687Y-122694184D01*
X92389803Y-122696658D01*
X92389825Y-122696594D01*
X92396794Y-122698903D01*
X92472836Y-122714604D01*
X92548344Y-122732500D01*
X92548350Y-122732500D01*
X92555633Y-122733352D01*
X92555625Y-122733418D01*
X92563124Y-122734184D01*
X92563130Y-122734118D01*
X92570433Y-122734756D01*
X92570442Y-122734758D01*
X92648061Y-122732500D01*
X95516132Y-122732500D01*
X95584253Y-122752502D01*
X95619344Y-122786228D01*
X95631788Y-122803999D01*
X95641802Y-122818300D01*
X95803700Y-122980198D01*
X95991251Y-123111523D01*
X96198757Y-123208284D01*
X96216055Y-123212919D01*
X96217981Y-123213435D01*
X96278604Y-123250387D01*
X96309625Y-123314248D01*
X96301197Y-123384742D01*
X96255994Y-123439489D01*
X96220524Y-123456138D01*
X96204656Y-123460749D01*
X96124903Y-123483919D01*
X95984410Y-123567006D01*
X95869006Y-123682410D01*
X95785919Y-123822904D01*
X95740384Y-123979634D01*
X95740382Y-123979646D01*
X95737500Y-124016266D01*
X95737500Y-124472568D01*
X95720620Y-124535567D01*
X95685472Y-124596444D01*
X95685470Y-124596449D01*
X95626457Y-124778071D01*
X95606496Y-124968000D01*
X95626457Y-125157927D01*
X95685475Y-125339561D01*
X95720618Y-125400429D01*
X95737500Y-125463430D01*
X95737500Y-125871730D01*
X95740383Y-125908360D01*
X95785919Y-126065096D01*
X95869003Y-126205585D01*
X95869004Y-126205586D01*
X95869006Y-126205589D01*
X95984410Y-126320993D01*
X95984412Y-126320994D01*
X95984415Y-126320997D01*
X96124904Y-126404081D01*
X96281640Y-126449617D01*
X96303618Y-126451346D01*
X96318266Y-126452500D01*
X96318270Y-126452500D01*
X96723734Y-126452500D01*
X96737050Y-126451451D01*
X96760360Y-126449617D01*
X96917096Y-126404081D01*
X97057585Y-126320997D01*
X97066902Y-126311680D01*
X97129213Y-126277652D01*
X97200029Y-126282715D01*
X97245098Y-126311680D01*
X97254415Y-126320997D01*
X97394904Y-126404081D01*
X97551640Y-126449617D01*
X97573618Y-126451346D01*
X97588266Y-126452500D01*
X97588270Y-126452500D01*
X97613779Y-126452500D01*
X97681900Y-126472502D01*
X97702874Y-126489405D01*
X98129741Y-126916272D01*
X98141714Y-126930126D01*
X98156180Y-126949557D01*
X98173988Y-126964500D01*
X98196624Y-126983493D01*
X98200670Y-126987201D01*
X98206548Y-126993079D01*
X98232545Y-127013635D01*
X98292009Y-127063531D01*
X98292015Y-127063534D01*
X98298144Y-127067566D01*
X98298106Y-127067622D01*
X98304462Y-127071671D01*
X98304498Y-127071614D01*
X98310738Y-127075462D01*
X98310743Y-127075466D01*
X98381102Y-127108274D01*
X98450461Y-127143108D01*
X98450468Y-127143109D01*
X98457356Y-127145617D01*
X98457333Y-127145679D01*
X98464459Y-127148156D01*
X98464480Y-127148094D01*
X98471437Y-127150398D01*
X98471442Y-127150401D01*
X98547471Y-127166099D01*
X98585232Y-127175049D01*
X98622992Y-127183999D01*
X98630281Y-127184851D01*
X98630273Y-127184917D01*
X98637771Y-127185683D01*
X98637777Y-127185617D01*
X98645084Y-127186255D01*
X98645091Y-127186257D01*
X98722694Y-127183999D01*
X98846090Y-127183999D01*
X98914211Y-127204001D01*
X98960704Y-127257657D01*
X98969407Y-127310897D01*
X98971996Y-127310897D01*
X98971996Y-127317498D01*
X98991957Y-127507427D01*
X99012593Y-127570937D01*
X99050973Y-127689056D01*
X99076035Y-127732465D01*
X99146458Y-127854441D01*
X99146465Y-127854451D01*
X99274244Y-127996364D01*
X99274247Y-127996366D01*
X99428748Y-128108618D01*
X99603212Y-128186294D01*
X99790013Y-128226000D01*
X99845906Y-128226000D01*
X99914027Y-128246002D01*
X99935001Y-128262905D01*
X103470595Y-131798499D01*
X103504621Y-131860811D01*
X103507500Y-131887594D01*
X103507500Y-132705191D01*
X103487498Y-132773312D01*
X103433842Y-132819805D01*
X103363568Y-132829909D01*
X103317363Y-132813646D01*
X103267096Y-132783919D01*
X103110365Y-132738384D01*
X103110361Y-132738383D01*
X103110360Y-132738383D01*
X103110358Y-132738382D01*
X103110353Y-132738382D01*
X103073734Y-132735500D01*
X103073730Y-132735500D01*
X102668270Y-132735500D01*
X102668266Y-132735500D01*
X102631646Y-132738382D01*
X102631634Y-132738384D01*
X102474904Y-132783919D01*
X102334410Y-132867006D01*
X102325091Y-132876325D01*
X102262778Y-132910348D01*
X102191963Y-132905281D01*
X102146901Y-132876319D01*
X102137588Y-132867006D01*
X102137585Y-132867003D01*
X101997096Y-132783919D01*
X101935823Y-132766117D01*
X101840365Y-132738384D01*
X101840361Y-132738383D01*
X101840360Y-132738383D01*
X101840358Y-132738382D01*
X101840353Y-132738382D01*
X101803734Y-132735500D01*
X101803730Y-132735500D01*
X101398270Y-132735500D01*
X101398266Y-132735500D01*
X101361646Y-132738382D01*
X101361634Y-132738384D01*
X101204902Y-132783919D01*
X101064415Y-132867001D01*
X101064410Y-132867005D01*
X101055092Y-132876324D01*
X100992779Y-132910347D01*
X100921964Y-132905280D01*
X100876908Y-132876324D01*
X100867589Y-132867005D01*
X100867584Y-132867001D01*
X100727097Y-132783919D01*
X100570365Y-132738384D01*
X100570361Y-132738383D01*
X100570360Y-132738383D01*
X100570358Y-132738382D01*
X100570353Y-132738382D01*
X100533734Y-132735500D01*
X100533730Y-132735500D01*
X100128270Y-132735500D01*
X100128266Y-132735500D01*
X100091646Y-132738382D01*
X100091634Y-132738384D01*
X99934904Y-132783919D01*
X99794410Y-132867006D01*
X99794409Y-132867007D01*
X99785095Y-132876322D01*
X99722783Y-132910348D01*
X99651968Y-132905283D01*
X99606905Y-132876322D01*
X99597589Y-132867006D01*
X99597586Y-132867004D01*
X99597585Y-132867003D01*
X99457096Y-132783919D01*
X99395823Y-132766117D01*
X99300365Y-132738384D01*
X99300361Y-132738383D01*
X99300360Y-132738383D01*
X99300358Y-132738382D01*
X99300353Y-132738382D01*
X99263734Y-132735500D01*
X99263730Y-132735500D01*
X98858270Y-132735500D01*
X98858266Y-132735500D01*
X98821646Y-132738382D01*
X98821634Y-132738384D01*
X98664902Y-132783919D01*
X98524415Y-132867001D01*
X98524410Y-132867005D01*
X98515092Y-132876324D01*
X98452779Y-132910347D01*
X98381964Y-132905280D01*
X98336908Y-132876324D01*
X98327589Y-132867005D01*
X98327584Y-132867001D01*
X98187097Y-132783919D01*
X98030365Y-132738384D01*
X98030361Y-132738383D01*
X98030360Y-132738383D01*
X98030358Y-132738382D01*
X98030353Y-132738382D01*
X97993734Y-132735500D01*
X97993730Y-132735500D01*
X97588270Y-132735500D01*
X97588266Y-132735500D01*
X97551646Y-132738382D01*
X97551634Y-132738384D01*
X97394902Y-132783919D01*
X97254415Y-132867001D01*
X97254415Y-132867002D01*
X97244739Y-132876678D01*
X97182425Y-132910701D01*
X97111610Y-132905634D01*
X97066551Y-132876675D01*
X97057281Y-132867405D01*
X97057274Y-132867399D01*
X96916899Y-132784382D01*
X96775000Y-132743156D01*
X96775000Y-135744843D01*
X96916896Y-135703619D01*
X97057274Y-135620600D01*
X97057279Y-135620596D01*
X97066548Y-135611327D01*
X97128859Y-135577299D01*
X97199675Y-135582362D01*
X97244717Y-135611300D01*
X97246571Y-135613153D01*
X97280613Y-135675456D01*
X97283500Y-135702272D01*
X97283500Y-137553533D01*
X97263498Y-137621654D01*
X97229772Y-137656745D01*
X97199699Y-137677802D01*
X97199697Y-137677804D01*
X97037799Y-137839703D01*
X96906477Y-138027250D01*
X96809717Y-138234753D01*
X96809715Y-138234759D01*
X96763873Y-138405843D01*
X96750457Y-138455913D01*
X96730502Y-138684000D01*
X96750457Y-138912087D01*
X96759931Y-138947444D01*
X96809715Y-139133240D01*
X96809717Y-139133246D01*
X96906477Y-139340749D01*
X97024237Y-139508928D01*
X97037802Y-139528300D01*
X97199700Y-139690198D01*
X97387251Y-139821523D01*
X97594757Y-139918284D01*
X97815913Y-139977543D01*
X98044000Y-139997498D01*
X98272087Y-139977543D01*
X98493243Y-139918284D01*
X98700749Y-139821523D01*
X98888300Y-139690198D01*
X99050198Y-139528300D01*
X99181523Y-139340749D01*
X99278284Y-139133243D01*
X99337543Y-138912087D01*
X99357498Y-138684000D01*
X99337543Y-138455913D01*
X99278284Y-138234757D01*
X99181523Y-138027251D01*
X99050198Y-137839700D01*
X98888300Y-137677802D01*
X98808113Y-137621654D01*
X98700747Y-137546475D01*
X98623249Y-137510337D01*
X98569965Y-137463420D01*
X98550500Y-137396143D01*
X98550500Y-135838659D01*
X98570502Y-135770538D01*
X98624158Y-135724045D01*
X98694432Y-135713941D01*
X98711638Y-135717658D01*
X98821640Y-135749617D01*
X98843618Y-135751346D01*
X98858266Y-135752500D01*
X99237332Y-135752500D01*
X99305453Y-135772502D01*
X99326427Y-135789405D01*
X100843182Y-137306160D01*
X100853149Y-137318600D01*
X100853376Y-137318413D01*
X100858428Y-137324520D01*
X100858429Y-137324521D01*
X100909524Y-137372502D01*
X100930660Y-137393638D01*
X100936199Y-137397934D01*
X100940711Y-137401788D01*
X100975107Y-137434088D01*
X100975111Y-137434091D01*
X100992859Y-137443848D01*
X101009386Y-137454704D01*
X101020622Y-137463420D01*
X101025389Y-137467117D01*
X101068688Y-137485854D01*
X101074014Y-137488463D01*
X101115364Y-137511196D01*
X101115367Y-137511197D01*
X101115369Y-137511198D01*
X101134991Y-137516236D01*
X101153692Y-137522638D01*
X101166243Y-137528070D01*
X101172281Y-137530683D01*
X101172282Y-137530683D01*
X101172284Y-137530684D01*
X101218906Y-137538067D01*
X101224691Y-137539266D01*
X101270399Y-137551003D01*
X101290653Y-137551003D01*
X101310363Y-137552554D01*
X101312570Y-137552903D01*
X101330372Y-137555723D01*
X101364299Y-137552515D01*
X101377346Y-137551283D01*
X101383279Y-137551003D01*
X109918022Y-137551003D01*
X109986143Y-137571005D01*
X110007117Y-137587908D01*
X110704481Y-138285272D01*
X110618852Y-138298835D01*
X110505955Y-138356359D01*
X110416359Y-138445955D01*
X110358835Y-138558852D01*
X110345272Y-138644482D01*
X109656899Y-137956109D01*
X109606913Y-138027500D01*
X109510188Y-138234926D01*
X109510186Y-138234931D01*
X109450951Y-138455997D01*
X109431004Y-138684000D01*
X109450951Y-138912002D01*
X109510186Y-139133068D01*
X109510188Y-139133073D01*
X109606913Y-139340501D01*
X109656899Y-139411888D01*
X110345272Y-138723515D01*
X110358835Y-138809148D01*
X110416359Y-138922045D01*
X110505955Y-139011641D01*
X110618852Y-139069165D01*
X110704482Y-139082727D01*
X110016110Y-139771098D01*
X110016110Y-139771100D01*
X110087498Y-139821086D01*
X110294926Y-139917811D01*
X110294931Y-139917813D01*
X110515999Y-139977048D01*
X110515995Y-139977048D01*
X110744000Y-139996995D01*
X110972002Y-139977048D01*
X111193068Y-139917813D01*
X111193073Y-139917811D01*
X111400497Y-139821088D01*
X111471888Y-139771099D01*
X111471888Y-139771097D01*
X110783518Y-139082727D01*
X110869148Y-139069165D01*
X110982045Y-139011641D01*
X111071641Y-138922045D01*
X111129165Y-138809148D01*
X111142727Y-138723518D01*
X111831097Y-139411888D01*
X111831099Y-139411888D01*
X111881088Y-139340497D01*
X111977811Y-139133073D01*
X111977813Y-139133068D01*
X112037048Y-138912002D01*
X112056995Y-138684000D01*
X112037048Y-138455997D01*
X111977813Y-138234931D01*
X111977811Y-138234926D01*
X111881086Y-138027498D01*
X111831100Y-137956110D01*
X111831098Y-137956110D01*
X111142727Y-138644481D01*
X111129165Y-138558852D01*
X111071641Y-138445955D01*
X110982045Y-138356359D01*
X110869148Y-138298835D01*
X110783517Y-138285272D01*
X111492383Y-137576405D01*
X111554696Y-137542380D01*
X111581479Y-137539500D01*
X118176406Y-137539500D01*
X118244527Y-137559502D01*
X118265501Y-137576405D01*
X123571753Y-142882657D01*
X123581720Y-142895097D01*
X123581947Y-142894910D01*
X123586999Y-142901017D01*
X123638095Y-142948999D01*
X123659225Y-142970130D01*
X123664768Y-142974430D01*
X123669281Y-142978285D01*
X123703679Y-143010586D01*
X123703680Y-143010586D01*
X123703682Y-143010588D01*
X123721429Y-143020344D01*
X123737959Y-143031202D01*
X123753959Y-143043613D01*
X123778702Y-143054320D01*
X123797251Y-143062347D01*
X123802585Y-143064959D01*
X123843940Y-143087695D01*
X123863562Y-143092733D01*
X123882263Y-143099135D01*
X123900855Y-143107181D01*
X123947470Y-143114563D01*
X123953242Y-143115758D01*
X123998970Y-143127500D01*
X124019231Y-143127500D01*
X124038939Y-143129050D01*
X124058943Y-143132219D01*
X124092459Y-143129051D01*
X124105910Y-143127780D01*
X124111842Y-143127500D01*
X141582546Y-143127500D01*
X141650667Y-143147502D01*
X141671642Y-143164405D01*
X141726519Y-143219283D01*
X141760544Y-143281596D01*
X141762733Y-143295207D01*
X141780789Y-143466995D01*
X141779410Y-143467139D01*
X141774563Y-143530613D01*
X141731742Y-143587242D01*
X141665103Y-143611732D01*
X141615809Y-143605184D01*
X141558639Y-143585557D01*
X141558630Y-143585555D01*
X141481029Y-143572606D01*
X141336569Y-143548500D01*
X141111431Y-143548500D01*
X140966971Y-143572606D01*
X140889369Y-143585555D01*
X140889360Y-143585557D01*
X140676428Y-143658656D01*
X140676426Y-143658658D01*
X140478432Y-143765807D01*
X140478426Y-143765810D01*
X140478424Y-143765811D01*
X140300762Y-143904091D01*
X140148279Y-144069729D01*
X140059483Y-144205643D01*
X140005479Y-144251731D01*
X139935131Y-144261306D01*
X139870774Y-144231329D01*
X139848517Y-144205643D01*
X139759720Y-144069729D01*
X139643570Y-143943559D01*
X139607240Y-143904094D01*
X139607239Y-143904093D01*
X139607237Y-143904091D01*
X139487367Y-143810792D01*
X139429576Y-143765811D01*
X139231574Y-143658658D01*
X139231572Y-143658657D01*
X139231571Y-143658656D01*
X139018639Y-143585557D01*
X139018630Y-143585555D01*
X138941029Y-143572606D01*
X138796569Y-143548500D01*
X138571431Y-143548500D01*
X138426971Y-143572606D01*
X138349369Y-143585555D01*
X138349360Y-143585557D01*
X138136428Y-143658656D01*
X138136426Y-143658658D01*
X137938432Y-143765807D01*
X137938426Y-143765810D01*
X137938424Y-143765811D01*
X137760762Y-143904091D01*
X137608279Y-144069729D01*
X137519183Y-144206101D01*
X137465179Y-144252189D01*
X137394831Y-144261764D01*
X137330474Y-144231786D01*
X137308217Y-144206100D01*
X137219327Y-144070044D01*
X137066902Y-143904465D01*
X136889301Y-143766232D01*
X136889300Y-143766231D01*
X136691371Y-143659117D01*
X136691369Y-143659116D01*
X136478512Y-143586043D01*
X136478501Y-143586040D01*
X136398000Y-143572606D01*
X136398000Y-144473325D01*
X136286315Y-144422320D01*
X136179763Y-144407000D01*
X136108237Y-144407000D01*
X136001685Y-144422320D01*
X135890000Y-144473325D01*
X135890000Y-143572607D01*
X135889999Y-143572606D01*
X135809498Y-143586040D01*
X135809487Y-143586043D01*
X135596630Y-143659116D01*
X135596628Y-143659117D01*
X135398699Y-143766231D01*
X135398698Y-143766232D01*
X135221097Y-143904465D01*
X135068670Y-144070045D01*
X134979780Y-144206101D01*
X134925776Y-144252189D01*
X134855428Y-144261764D01*
X134791071Y-144231786D01*
X134768816Y-144206101D01*
X134725169Y-144139294D01*
X134679724Y-144069734D01*
X134679720Y-144069729D01*
X134563570Y-143943558D01*
X134527240Y-143904094D01*
X134527239Y-143904093D01*
X134527237Y-143904091D01*
X134407367Y-143810792D01*
X134349576Y-143765811D01*
X134151574Y-143658658D01*
X134151572Y-143658657D01*
X134151571Y-143658656D01*
X133938639Y-143585557D01*
X133938630Y-143585555D01*
X133861029Y-143572606D01*
X133716569Y-143548500D01*
X133491431Y-143548500D01*
X133346971Y-143572606D01*
X133269369Y-143585555D01*
X133269360Y-143585557D01*
X133056428Y-143658656D01*
X133056426Y-143658658D01*
X132858432Y-143765807D01*
X132858426Y-143765810D01*
X132858424Y-143765811D01*
X132680762Y-143904091D01*
X132528279Y-144069729D01*
X132439483Y-144205643D01*
X132385479Y-144251731D01*
X132315131Y-144261306D01*
X132250774Y-144231329D01*
X132228517Y-144205643D01*
X132139720Y-144069729D01*
X132023570Y-143943559D01*
X131987240Y-143904094D01*
X131987239Y-143904093D01*
X131987237Y-143904091D01*
X131867367Y-143810792D01*
X131809576Y-143765811D01*
X131611574Y-143658658D01*
X131611572Y-143658657D01*
X131611571Y-143658656D01*
X131398639Y-143585557D01*
X131398630Y-143585555D01*
X131321029Y-143572606D01*
X131176569Y-143548500D01*
X130951431Y-143548500D01*
X130806971Y-143572606D01*
X130729369Y-143585555D01*
X130729360Y-143585557D01*
X130516428Y-143658656D01*
X130516426Y-143658658D01*
X130318432Y-143765807D01*
X130318426Y-143765810D01*
X130318424Y-143765811D01*
X130140762Y-143904091D01*
X129988279Y-144069729D01*
X129899483Y-144205643D01*
X129845479Y-144251731D01*
X129775131Y-144261306D01*
X129710774Y-144231329D01*
X129688517Y-144205643D01*
X129599720Y-144069729D01*
X129483570Y-143943559D01*
X129447240Y-143904094D01*
X129447239Y-143904093D01*
X129447237Y-143904091D01*
X129327367Y-143810792D01*
X129269576Y-143765811D01*
X129071574Y-143658658D01*
X129071572Y-143658657D01*
X129071571Y-143658656D01*
X128858639Y-143585557D01*
X128858630Y-143585555D01*
X128781029Y-143572606D01*
X128636569Y-143548500D01*
X128411431Y-143548500D01*
X128266971Y-143572606D01*
X128189369Y-143585555D01*
X128189360Y-143585557D01*
X127976428Y-143658656D01*
X127976426Y-143658658D01*
X127778432Y-143765807D01*
X127778426Y-143765810D01*
X127778424Y-143765811D01*
X127600762Y-143904091D01*
X127448279Y-144069729D01*
X127359483Y-144205643D01*
X127305479Y-144251731D01*
X127235131Y-144261306D01*
X127170774Y-144231329D01*
X127148517Y-144205643D01*
X127059720Y-144069729D01*
X126943570Y-143943559D01*
X126907240Y-143904094D01*
X126907239Y-143904093D01*
X126907237Y-143904091D01*
X126787367Y-143810792D01*
X126729576Y-143765811D01*
X126531574Y-143658658D01*
X126531572Y-143658657D01*
X126531571Y-143658656D01*
X126318639Y-143585557D01*
X126318630Y-143585555D01*
X126241029Y-143572606D01*
X126096569Y-143548500D01*
X125871431Y-143548500D01*
X125726971Y-143572606D01*
X125649369Y-143585555D01*
X125649360Y-143585557D01*
X125436428Y-143658656D01*
X125436426Y-143658658D01*
X125238432Y-143765807D01*
X125238426Y-143765810D01*
X125238424Y-143765811D01*
X125060762Y-143904091D01*
X124908279Y-144069729D01*
X124908279Y-144069730D01*
X124819482Y-144205643D01*
X124765478Y-144251731D01*
X124695130Y-144261306D01*
X124630773Y-144231328D01*
X124608516Y-144205642D01*
X124519724Y-144069734D01*
X124519720Y-144069729D01*
X124403570Y-143943559D01*
X124367240Y-143904094D01*
X124367239Y-143904093D01*
X124367237Y-143904091D01*
X124247367Y-143810792D01*
X124189576Y-143765811D01*
X123991574Y-143658658D01*
X123991572Y-143658657D01*
X123991571Y-143658656D01*
X123778639Y-143585557D01*
X123778630Y-143585555D01*
X123701029Y-143572606D01*
X123556569Y-143548500D01*
X123331431Y-143548500D01*
X123186971Y-143572606D01*
X123109369Y-143585555D01*
X123109360Y-143585557D01*
X122896428Y-143658656D01*
X122896426Y-143658658D01*
X122698432Y-143765807D01*
X122698426Y-143765810D01*
X122698424Y-143765811D01*
X122520762Y-143904091D01*
X122368279Y-144069729D01*
X122279483Y-144205643D01*
X122225479Y-144251731D01*
X122155131Y-144261306D01*
X122090774Y-144231329D01*
X122068517Y-144205643D01*
X121979720Y-144069729D01*
X121863570Y-143943559D01*
X121827240Y-143904094D01*
X121827239Y-143904093D01*
X121827237Y-143904091D01*
X121707367Y-143810792D01*
X121649576Y-143765811D01*
X121451574Y-143658658D01*
X121451572Y-143658657D01*
X121451571Y-143658656D01*
X121238639Y-143585557D01*
X121238630Y-143585555D01*
X121161029Y-143572606D01*
X121016569Y-143548500D01*
X120791431Y-143548500D01*
X120646971Y-143572606D01*
X120569369Y-143585555D01*
X120569360Y-143585557D01*
X120356428Y-143658656D01*
X120356426Y-143658658D01*
X120158432Y-143765807D01*
X120158426Y-143765810D01*
X120158424Y-143765811D01*
X119980762Y-143904091D01*
X119828279Y-144069729D01*
X119739483Y-144205643D01*
X119685479Y-144251731D01*
X119615131Y-144261306D01*
X119550774Y-144231329D01*
X119528517Y-144205643D01*
X119439720Y-144069729D01*
X119323570Y-143943559D01*
X119287240Y-143904094D01*
X119287239Y-143904093D01*
X119287237Y-143904091D01*
X119167367Y-143810792D01*
X119109576Y-143765811D01*
X118911574Y-143658658D01*
X118911572Y-143658657D01*
X118911571Y-143658656D01*
X118698639Y-143585557D01*
X118698630Y-143585555D01*
X118621029Y-143572606D01*
X118476569Y-143548500D01*
X118382594Y-143548500D01*
X118314473Y-143528498D01*
X118267980Y-143474842D01*
X118257876Y-143404568D01*
X118287370Y-143339988D01*
X118293484Y-143333419D01*
X118440664Y-143186239D01*
X118453093Y-143176284D01*
X118452905Y-143176057D01*
X118459016Y-143171001D01*
X118459015Y-143171001D01*
X118459018Y-143171000D01*
X118506983Y-143119920D01*
X118528135Y-143098770D01*
X118532447Y-143093210D01*
X118536273Y-143088730D01*
X118568586Y-143054321D01*
X118578346Y-143036565D01*
X118589195Y-143020050D01*
X118601614Y-143004041D01*
X118620363Y-142960710D01*
X118622953Y-142955423D01*
X118645695Y-142914060D01*
X118650733Y-142894434D01*
X118657137Y-142875732D01*
X118665180Y-142857147D01*
X118665179Y-142857147D01*
X118665181Y-142857145D01*
X118672561Y-142810547D01*
X118673762Y-142804740D01*
X118685500Y-142759030D01*
X118685500Y-142738774D01*
X118687051Y-142719063D01*
X118690220Y-142699057D01*
X118685778Y-142652069D01*
X118685500Y-142646170D01*
X118685500Y-139970541D01*
X118687249Y-139954700D01*
X118686956Y-139954673D01*
X118687701Y-139946780D01*
X118687702Y-139946777D01*
X118685500Y-139876727D01*
X118685500Y-139846830D01*
X118684619Y-139839864D01*
X118684155Y-139833968D01*
X118682673Y-139786796D01*
X118677022Y-139767349D01*
X118673012Y-139747986D01*
X118671187Y-139733535D01*
X118670474Y-139727889D01*
X118653099Y-139684006D01*
X118651179Y-139678397D01*
X118638018Y-139633093D01*
X118627705Y-139615655D01*
X118619010Y-139597908D01*
X118611552Y-139579069D01*
X118583821Y-139540901D01*
X118580562Y-139535941D01*
X118576043Y-139528300D01*
X118556542Y-139495323D01*
X118556541Y-139495321D01*
X118542218Y-139480998D01*
X118529377Y-139465965D01*
X118517471Y-139449578D01*
X118489574Y-139426500D01*
X118481108Y-139419496D01*
X118476736Y-139415517D01*
X118426778Y-139365559D01*
X118392752Y-139303247D01*
X118390565Y-139289649D01*
X118373199Y-139124415D01*
X118314184Y-138942787D01*
X118218697Y-138777399D01*
X118218695Y-138777397D01*
X118218691Y-138777391D01*
X118090912Y-138635478D01*
X117936409Y-138523225D01*
X117761945Y-138445549D01*
X117575144Y-138405843D01*
X117384170Y-138405843D01*
X117197368Y-138445549D01*
X117173902Y-138455997D01*
X117022905Y-138523225D01*
X117022903Y-138523225D01*
X117016873Y-138525911D01*
X117015797Y-138523495D01*
X116958207Y-138537423D01*
X116913047Y-138526677D01*
X116741290Y-138450206D01*
X116554487Y-138410500D01*
X116363513Y-138410500D01*
X116176711Y-138450206D01*
X116002247Y-138527882D01*
X115847744Y-138640135D01*
X115719965Y-138782048D01*
X115719958Y-138782058D01*
X115624476Y-138947438D01*
X115624473Y-138947445D01*
X115565457Y-139129072D01*
X115545496Y-139318999D01*
X115565457Y-139508927D01*
X115588248Y-139579067D01*
X115624473Y-139690556D01*
X115677571Y-139782525D01*
X115679191Y-139785330D01*
X115695929Y-139854325D01*
X115679192Y-139911328D01*
X115669466Y-139928173D01*
X115636681Y-139984960D01*
X115636679Y-139984964D01*
X115577666Y-140166586D01*
X115557705Y-140356515D01*
X115577666Y-140546442D01*
X115583523Y-140564466D01*
X115636682Y-140728071D01*
X115636685Y-140728076D01*
X115713714Y-140861495D01*
X115732169Y-140893459D01*
X115805346Y-140974730D01*
X115836062Y-141038735D01*
X115837709Y-141059039D01*
X115837709Y-141405195D01*
X115817707Y-141473316D01*
X115800804Y-141494290D01*
X113741793Y-143553300D01*
X113679481Y-143587326D01*
X113623781Y-143586382D01*
X113623776Y-143586414D01*
X113623563Y-143586378D01*
X113621759Y-143586348D01*
X113618643Y-143585558D01*
X113618635Y-143585556D01*
X113396569Y-143548500D01*
X113171431Y-143548500D01*
X113044664Y-143569653D01*
X112949356Y-143585557D01*
X112946227Y-143586350D01*
X112944905Y-143586300D01*
X112944224Y-143586414D01*
X112944200Y-143586273D01*
X112875281Y-143583681D01*
X112826204Y-143553300D01*
X110791054Y-141518150D01*
X108711244Y-139438339D01*
X108701279Y-139425901D01*
X108701052Y-139426090D01*
X108696001Y-139419984D01*
X108696000Y-139419982D01*
X108644921Y-139372016D01*
X108638464Y-139365559D01*
X108623777Y-139350871D01*
X108623772Y-139350866D01*
X108618225Y-139346563D01*
X108613717Y-139342712D01*
X108579325Y-139310417D01*
X108579319Y-139310413D01*
X108561563Y-139300651D01*
X108545047Y-139289802D01*
X108529041Y-139277386D01*
X108490918Y-139260889D01*
X108485740Y-139258648D01*
X108480408Y-139256036D01*
X108439061Y-139233305D01*
X108419436Y-139228266D01*
X108400736Y-139221864D01*
X108382145Y-139213819D01*
X108382143Y-139213818D01*
X108382142Y-139213818D01*
X108335542Y-139206437D01*
X108329729Y-139205233D01*
X108284030Y-139193500D01*
X108263776Y-139193500D01*
X108244066Y-139191949D01*
X108224057Y-139188780D01*
X108224056Y-139188780D01*
X108177083Y-139193220D01*
X108171150Y-139193500D01*
X107896200Y-139193500D01*
X107828079Y-139173498D01*
X107802563Y-139151810D01*
X107799252Y-139148133D01*
X107644752Y-139035882D01*
X107470288Y-138958206D01*
X107283487Y-138918500D01*
X107092513Y-138918500D01*
X106905711Y-138958206D01*
X106731247Y-139035882D01*
X106576744Y-139148135D01*
X106448965Y-139290048D01*
X106448958Y-139290058D01*
X106356859Y-139449579D01*
X106353473Y-139455444D01*
X106349976Y-139466206D01*
X106294457Y-139637072D01*
X106274496Y-139826999D01*
X106294457Y-140016927D01*
X106317065Y-140086506D01*
X106353473Y-140198556D01*
X106353476Y-140198561D01*
X106448958Y-140363941D01*
X106448965Y-140363951D01*
X106576744Y-140505864D01*
X106576747Y-140505866D01*
X106731248Y-140618118D01*
X106905712Y-140695794D01*
X107092513Y-140735500D01*
X107283487Y-140735500D01*
X107470288Y-140695794D01*
X107644752Y-140618118D01*
X107799253Y-140505866D01*
X107799255Y-140505864D01*
X107799344Y-140505766D01*
X107799410Y-140505725D01*
X107804163Y-140501446D01*
X107804945Y-140502314D01*
X107859789Y-140468525D01*
X107930773Y-140469876D01*
X107982076Y-140500980D01*
X110814501Y-143333405D01*
X110848527Y-143395717D01*
X110843462Y-143466532D01*
X110800915Y-143523368D01*
X110734395Y-143548179D01*
X110725406Y-143548500D01*
X110631431Y-143548500D01*
X110486971Y-143572606D01*
X110409369Y-143585555D01*
X110409360Y-143585557D01*
X110196428Y-143658656D01*
X110196426Y-143658658D01*
X109998432Y-143765807D01*
X109998426Y-143765810D01*
X109998424Y-143765811D01*
X109820762Y-143904091D01*
X109668279Y-144069729D01*
X109579483Y-144205643D01*
X109525479Y-144251731D01*
X109455131Y-144261306D01*
X109390774Y-144231329D01*
X109368517Y-144205643D01*
X109279720Y-144069729D01*
X109163570Y-143943558D01*
X109127240Y-143904094D01*
X109127239Y-143904093D01*
X109127237Y-143904091D01*
X109007367Y-143810792D01*
X108949576Y-143765811D01*
X108751574Y-143658658D01*
X108751572Y-143658657D01*
X108751571Y-143658656D01*
X108538639Y-143585557D01*
X108538630Y-143585555D01*
X108461029Y-143572606D01*
X108316569Y-143548500D01*
X108091431Y-143548500D01*
X107946971Y-143572606D01*
X107869369Y-143585555D01*
X107869360Y-143585557D01*
X107656428Y-143658656D01*
X107656426Y-143658658D01*
X107458432Y-143765807D01*
X107458426Y-143765810D01*
X107458424Y-143765811D01*
X107280762Y-143904091D01*
X107128279Y-144069729D01*
X107039483Y-144205643D01*
X106985479Y-144251731D01*
X106915131Y-144261306D01*
X106850774Y-144231329D01*
X106828517Y-144205643D01*
X106739720Y-144069729D01*
X106623570Y-143943558D01*
X106587240Y-143904094D01*
X106587239Y-143904093D01*
X106587237Y-143904091D01*
X106467367Y-143810792D01*
X106409576Y-143765811D01*
X106211574Y-143658658D01*
X106211572Y-143658657D01*
X106211571Y-143658656D01*
X105998639Y-143585557D01*
X105998630Y-143585555D01*
X105921029Y-143572606D01*
X105776569Y-143548500D01*
X105551431Y-143548500D01*
X105406971Y-143572606D01*
X105329369Y-143585555D01*
X105329360Y-143585557D01*
X105116428Y-143658656D01*
X105116426Y-143658658D01*
X104918432Y-143765807D01*
X104918426Y-143765810D01*
X104918424Y-143765811D01*
X104740762Y-143904091D01*
X104588279Y-144069729D01*
X104588275Y-144069734D01*
X104465141Y-144258206D01*
X104374703Y-144464386D01*
X104374702Y-144464387D01*
X104319437Y-144682624D01*
X104319436Y-144682630D01*
X104319436Y-144682632D01*
X104300844Y-144907000D01*
X104318232Y-145116844D01*
X104319437Y-145131375D01*
X104374702Y-145349612D01*
X104374703Y-145349613D01*
X104465141Y-145555793D01*
X104588275Y-145744265D01*
X104588279Y-145744270D01*
X104740762Y-145909908D01*
X104795331Y-145952381D01*
X104918424Y-146048189D01*
X104951153Y-146065901D01*
X104951680Y-146066186D01*
X105002071Y-146116200D01*
X105017423Y-146185516D01*
X104992862Y-146252129D01*
X104951680Y-146287813D01*
X104918426Y-146305810D01*
X104918424Y-146305811D01*
X104740762Y-146444091D01*
X104588279Y-146609729D01*
X104588275Y-146609734D01*
X104465141Y-146798206D01*
X104374703Y-147004386D01*
X104374702Y-147004387D01*
X104319437Y-147222624D01*
X104319436Y-147222630D01*
X104319436Y-147222632D01*
X104300844Y-147447000D01*
X104318232Y-147656844D01*
X104319437Y-147671375D01*
X104374702Y-147889612D01*
X104374703Y-147889613D01*
X104465141Y-148095793D01*
X104588275Y-148284265D01*
X104588279Y-148284270D01*
X104740762Y-148449908D01*
X104795331Y-148492381D01*
X104918424Y-148588189D01*
X105116426Y-148695342D01*
X105116427Y-148695342D01*
X105116428Y-148695343D01*
X105228227Y-148733723D01*
X105329365Y-148768444D01*
X105551431Y-148805500D01*
X105551435Y-148805500D01*
X105776565Y-148805500D01*
X105776569Y-148805500D01*
X105998635Y-148768444D01*
X106211574Y-148695342D01*
X106409576Y-148588189D01*
X106587240Y-148449906D01*
X106739722Y-148284268D01*
X106828519Y-148148353D01*
X106882518Y-148102268D01*
X106952866Y-148092692D01*
X107017224Y-148122668D01*
X107039482Y-148148356D01*
X107128275Y-148284265D01*
X107128279Y-148284270D01*
X107280762Y-148449908D01*
X107335331Y-148492381D01*
X107458424Y-148588189D01*
X107656426Y-148695342D01*
X107656427Y-148695342D01*
X107656428Y-148695343D01*
X107768227Y-148733723D01*
X107869365Y-148768444D01*
X108091431Y-148805500D01*
X108091435Y-148805500D01*
X108316565Y-148805500D01*
X108316569Y-148805500D01*
X108538635Y-148768444D01*
X108751574Y-148695342D01*
X108949576Y-148588189D01*
X109127240Y-148449906D01*
X109279722Y-148284268D01*
X109279927Y-148283955D01*
X109368517Y-148148357D01*
X109422520Y-148102268D01*
X109492868Y-148092693D01*
X109557226Y-148122670D01*
X109579483Y-148148357D01*
X109668275Y-148284265D01*
X109668279Y-148284270D01*
X109820762Y-148449908D01*
X109875331Y-148492381D01*
X109998424Y-148588189D01*
X110196426Y-148695342D01*
X110196427Y-148695342D01*
X110196428Y-148695343D01*
X110308227Y-148733723D01*
X110409365Y-148768444D01*
X110631431Y-148805500D01*
X110631435Y-148805500D01*
X110856565Y-148805500D01*
X110856569Y-148805500D01*
X111078635Y-148768444D01*
X111291574Y-148695342D01*
X111489576Y-148588189D01*
X111667240Y-148449906D01*
X111819722Y-148284268D01*
X111819927Y-148283955D01*
X111825115Y-148276012D01*
X111908518Y-148148354D01*
X111962520Y-148102268D01*
X112032868Y-148092692D01*
X112097225Y-148122669D01*
X112119480Y-148148353D01*
X112152607Y-148199058D01*
X112208275Y-148284265D01*
X112208279Y-148284270D01*
X112360762Y-148449908D01*
X112415331Y-148492381D01*
X112538424Y-148588189D01*
X112736426Y-148695342D01*
X112736427Y-148695342D01*
X112736428Y-148695343D01*
X112848227Y-148733723D01*
X112949365Y-148768444D01*
X113171431Y-148805500D01*
X113171435Y-148805500D01*
X113396565Y-148805500D01*
X113396569Y-148805500D01*
X113618635Y-148768444D01*
X113831574Y-148695342D01*
X114029576Y-148588189D01*
X114207240Y-148449906D01*
X114359722Y-148284268D01*
X114359927Y-148283955D01*
X114365115Y-148276012D01*
X114448518Y-148148354D01*
X114502520Y-148102268D01*
X114572868Y-148092692D01*
X114637225Y-148122669D01*
X114659480Y-148148353D01*
X114692607Y-148199058D01*
X114748275Y-148284265D01*
X114748279Y-148284270D01*
X114900762Y-148449908D01*
X114955331Y-148492381D01*
X115078424Y-148588189D01*
X115276426Y-148695342D01*
X115276427Y-148695342D01*
X115276428Y-148695343D01*
X115388227Y-148733723D01*
X115489365Y-148768444D01*
X115711431Y-148805500D01*
X115711435Y-148805500D01*
X115936565Y-148805500D01*
X115936569Y-148805500D01*
X116158635Y-148768444D01*
X116371574Y-148695342D01*
X116569576Y-148588189D01*
X116747240Y-148449906D01*
X116899722Y-148284268D01*
X116899927Y-148283955D01*
X116905115Y-148276012D01*
X116988518Y-148148354D01*
X117042520Y-148102268D01*
X117112868Y-148092692D01*
X117177225Y-148122669D01*
X117199480Y-148148353D01*
X117232607Y-148199058D01*
X117288275Y-148284265D01*
X117288279Y-148284270D01*
X117440762Y-148449908D01*
X117495331Y-148492381D01*
X117618424Y-148588189D01*
X117816426Y-148695342D01*
X117816427Y-148695342D01*
X117816428Y-148695343D01*
X117928227Y-148733723D01*
X118029365Y-148768444D01*
X118251431Y-148805500D01*
X118251435Y-148805500D01*
X118476565Y-148805500D01*
X118476569Y-148805500D01*
X118698635Y-148768444D01*
X118911574Y-148695342D01*
X119109576Y-148588189D01*
X119287240Y-148449906D01*
X119439722Y-148284268D01*
X119439927Y-148283955D01*
X119528517Y-148148357D01*
X119582520Y-148102268D01*
X119652868Y-148092693D01*
X119717226Y-148122670D01*
X119739483Y-148148357D01*
X119828275Y-148284265D01*
X119828279Y-148284270D01*
X119980762Y-148449908D01*
X120035331Y-148492381D01*
X120158424Y-148588189D01*
X120356426Y-148695342D01*
X120356427Y-148695342D01*
X120356428Y-148695343D01*
X120468227Y-148733723D01*
X120569365Y-148768444D01*
X120791431Y-148805500D01*
X120791435Y-148805500D01*
X121016565Y-148805500D01*
X121016569Y-148805500D01*
X121238635Y-148768444D01*
X121451574Y-148695342D01*
X121649576Y-148588189D01*
X121827240Y-148449906D01*
X121979722Y-148284268D01*
X121979927Y-148283955D01*
X121985115Y-148276012D01*
X122068518Y-148148354D01*
X122122520Y-148102268D01*
X122192868Y-148092692D01*
X122257225Y-148122669D01*
X122279480Y-148148353D01*
X122312607Y-148199058D01*
X122368275Y-148284265D01*
X122368279Y-148284270D01*
X122520762Y-148449908D01*
X122575331Y-148492381D01*
X122698424Y-148588189D01*
X122896426Y-148695342D01*
X122896427Y-148695342D01*
X122896428Y-148695343D01*
X123008227Y-148733723D01*
X123109365Y-148768444D01*
X123331431Y-148805500D01*
X123331435Y-148805500D01*
X123556565Y-148805500D01*
X123556569Y-148805500D01*
X123778635Y-148768444D01*
X123991574Y-148695342D01*
X124189576Y-148588189D01*
X124367240Y-148449906D01*
X124519722Y-148284268D01*
X124519927Y-148283955D01*
X124525115Y-148276012D01*
X124608518Y-148148354D01*
X124662520Y-148102268D01*
X124732868Y-148092692D01*
X124797225Y-148122669D01*
X124819480Y-148148353D01*
X124852607Y-148199058D01*
X124908275Y-148284265D01*
X124908279Y-148284270D01*
X125060762Y-148449908D01*
X125115331Y-148492381D01*
X125238424Y-148588189D01*
X125436426Y-148695342D01*
X125436427Y-148695342D01*
X125436428Y-148695343D01*
X125548227Y-148733723D01*
X125649365Y-148768444D01*
X125871431Y-148805500D01*
X125871435Y-148805500D01*
X126096565Y-148805500D01*
X126096569Y-148805500D01*
X126318635Y-148768444D01*
X126531574Y-148695342D01*
X126729576Y-148588189D01*
X126907240Y-148449906D01*
X127059722Y-148284268D01*
X127148519Y-148148353D01*
X127202518Y-148102268D01*
X127272866Y-148092692D01*
X127337224Y-148122668D01*
X127359482Y-148148356D01*
X127448275Y-148284265D01*
X127448279Y-148284270D01*
X127600762Y-148449908D01*
X127655331Y-148492381D01*
X127778424Y-148588189D01*
X127976426Y-148695342D01*
X127976427Y-148695342D01*
X127976428Y-148695343D01*
X128088227Y-148733723D01*
X128189365Y-148768444D01*
X128411431Y-148805500D01*
X128411435Y-148805500D01*
X128636565Y-148805500D01*
X128636569Y-148805500D01*
X128858635Y-148768444D01*
X129071574Y-148695342D01*
X129269576Y-148588189D01*
X129447240Y-148449906D01*
X129599722Y-148284268D01*
X129599927Y-148283955D01*
X129688517Y-148148357D01*
X129742520Y-148102268D01*
X129812868Y-148092693D01*
X129877226Y-148122670D01*
X129899483Y-148148357D01*
X129988275Y-148284265D01*
X129988279Y-148284270D01*
X130140762Y-148449908D01*
X130195331Y-148492381D01*
X130318424Y-148588189D01*
X130516426Y-148695342D01*
X130516427Y-148695342D01*
X130516428Y-148695343D01*
X130628227Y-148733723D01*
X130729365Y-148768444D01*
X130951431Y-148805500D01*
X130951435Y-148805500D01*
X131176565Y-148805500D01*
X131176569Y-148805500D01*
X131398635Y-148768444D01*
X131611574Y-148695342D01*
X131809576Y-148588189D01*
X131987240Y-148449906D01*
X132139722Y-148284268D01*
X132139927Y-148283955D01*
X132228517Y-148148357D01*
X132282520Y-148102268D01*
X132352868Y-148092693D01*
X132417226Y-148122670D01*
X132439483Y-148148357D01*
X132528275Y-148284265D01*
X132528279Y-148284270D01*
X132680762Y-148449908D01*
X132735331Y-148492381D01*
X132858424Y-148588189D01*
X133056426Y-148695342D01*
X133056427Y-148695342D01*
X133056428Y-148695343D01*
X133168227Y-148733723D01*
X133269365Y-148768444D01*
X133491431Y-148805500D01*
X133491435Y-148805500D01*
X133716565Y-148805500D01*
X133716569Y-148805500D01*
X133938635Y-148768444D01*
X134151574Y-148695342D01*
X134349576Y-148588189D01*
X134527240Y-148449906D01*
X134679722Y-148284268D01*
X134679927Y-148283955D01*
X134685115Y-148276012D01*
X134768518Y-148148354D01*
X134822520Y-148102268D01*
X134892868Y-148092692D01*
X134957225Y-148122669D01*
X134979480Y-148148353D01*
X135012607Y-148199058D01*
X135068275Y-148284265D01*
X135068279Y-148284270D01*
X135220762Y-148449908D01*
X135275331Y-148492381D01*
X135398424Y-148588189D01*
X135596426Y-148695342D01*
X135596427Y-148695342D01*
X135596428Y-148695343D01*
X135708227Y-148733723D01*
X135809365Y-148768444D01*
X136031431Y-148805500D01*
X136031435Y-148805500D01*
X136256565Y-148805500D01*
X136256569Y-148805500D01*
X136478635Y-148768444D01*
X136691574Y-148695342D01*
X136889576Y-148588189D01*
X137067240Y-148449906D01*
X137219722Y-148284268D01*
X137219927Y-148283955D01*
X137308517Y-148148357D01*
X137308816Y-148147898D01*
X137362819Y-148101810D01*
X137433167Y-148092235D01*
X137497524Y-148122212D01*
X137519782Y-148147898D01*
X137608674Y-148283958D01*
X137761097Y-148449534D01*
X137938698Y-148587767D01*
X137938699Y-148587768D01*
X138136628Y-148694882D01*
X138136630Y-148694883D01*
X138349483Y-148767955D01*
X138349492Y-148767957D01*
X138430000Y-148781391D01*
X138430000Y-147880674D01*
X138541685Y-147931680D01*
X138648237Y-147947000D01*
X138719763Y-147947000D01*
X138826315Y-147931680D01*
X138938000Y-147880674D01*
X138938000Y-148781390D01*
X139018507Y-148767957D01*
X139018516Y-148767955D01*
X139231369Y-148694883D01*
X139231371Y-148694882D01*
X139429300Y-148587768D01*
X139429301Y-148587767D01*
X139606902Y-148449534D01*
X139759327Y-148283955D01*
X139848217Y-148147899D01*
X139902220Y-148101810D01*
X139972568Y-148092235D01*
X140036925Y-148122212D01*
X140059183Y-148147898D01*
X140148279Y-148284270D01*
X140300762Y-148449908D01*
X140355331Y-148492381D01*
X140478424Y-148588189D01*
X140676426Y-148695342D01*
X140676427Y-148695342D01*
X140676428Y-148695343D01*
X140788227Y-148733723D01*
X140889365Y-148768444D01*
X141111431Y-148805500D01*
X141111435Y-148805500D01*
X141336565Y-148805500D01*
X141336569Y-148805500D01*
X141558635Y-148768444D01*
X141771574Y-148695342D01*
X141969576Y-148588189D01*
X142147240Y-148449906D01*
X142299722Y-148284268D01*
X142299927Y-148283955D01*
X142305115Y-148276012D01*
X142388518Y-148148354D01*
X142442520Y-148102268D01*
X142512868Y-148092692D01*
X142577225Y-148122669D01*
X142599480Y-148148353D01*
X142632607Y-148199058D01*
X142688275Y-148284265D01*
X142688279Y-148284270D01*
X142840762Y-148449908D01*
X142895331Y-148492381D01*
X143018424Y-148588189D01*
X143216426Y-148695342D01*
X143216427Y-148695342D01*
X143216428Y-148695343D01*
X143328227Y-148733723D01*
X143429365Y-148768444D01*
X143651431Y-148805500D01*
X143651435Y-148805500D01*
X143876565Y-148805500D01*
X143876569Y-148805500D01*
X144098635Y-148768444D01*
X144311574Y-148695342D01*
X144509576Y-148588189D01*
X144687240Y-148449906D01*
X144839722Y-148284268D01*
X144839927Y-148283955D01*
X144845115Y-148276012D01*
X144928518Y-148148354D01*
X144982520Y-148102268D01*
X145052868Y-148092692D01*
X145117225Y-148122669D01*
X145139480Y-148148353D01*
X145172607Y-148199058D01*
X145228275Y-148284265D01*
X145228279Y-148284270D01*
X145380762Y-148449908D01*
X145435331Y-148492381D01*
X145558424Y-148588189D01*
X145756426Y-148695342D01*
X145756427Y-148695342D01*
X145756428Y-148695343D01*
X145868227Y-148733723D01*
X145969365Y-148768444D01*
X146191431Y-148805500D01*
X146191435Y-148805500D01*
X146416565Y-148805500D01*
X146416569Y-148805500D01*
X146638635Y-148768444D01*
X146851574Y-148695342D01*
X147049576Y-148588189D01*
X147227240Y-148449906D01*
X147379722Y-148284268D01*
X147379927Y-148283955D01*
X147385115Y-148276012D01*
X147468518Y-148148354D01*
X147522520Y-148102268D01*
X147592868Y-148092692D01*
X147657225Y-148122669D01*
X147679480Y-148148353D01*
X147712607Y-148199058D01*
X147768275Y-148284265D01*
X147768279Y-148284270D01*
X147920762Y-148449908D01*
X147975331Y-148492381D01*
X148098424Y-148588189D01*
X148296426Y-148695342D01*
X148296427Y-148695342D01*
X148296428Y-148695343D01*
X148408227Y-148733723D01*
X148509365Y-148768444D01*
X148731431Y-148805500D01*
X148731435Y-148805500D01*
X148956565Y-148805500D01*
X148956569Y-148805500D01*
X149178635Y-148768444D01*
X149391574Y-148695342D01*
X149589576Y-148588189D01*
X149767240Y-148449906D01*
X149919722Y-148284268D01*
X149919927Y-148283955D01*
X149925115Y-148276012D01*
X150008518Y-148148354D01*
X150062520Y-148102268D01*
X150132868Y-148092692D01*
X150197225Y-148122669D01*
X150219480Y-148148353D01*
X150252607Y-148199058D01*
X150308275Y-148284265D01*
X150308279Y-148284270D01*
X150460762Y-148449908D01*
X150515331Y-148492381D01*
X150638424Y-148588189D01*
X150836426Y-148695342D01*
X150836427Y-148695342D01*
X150836428Y-148695343D01*
X150948227Y-148733723D01*
X151049365Y-148768444D01*
X151271431Y-148805500D01*
X151271435Y-148805500D01*
X151496565Y-148805500D01*
X151496569Y-148805500D01*
X151718635Y-148768444D01*
X151931574Y-148695342D01*
X152129576Y-148588189D01*
X152307240Y-148449906D01*
X152459722Y-148284268D01*
X152459927Y-148283955D01*
X152548517Y-148148357D01*
X152602520Y-148102268D01*
X152672868Y-148092693D01*
X152737226Y-148122670D01*
X152759483Y-148148357D01*
X152848275Y-148284265D01*
X152848279Y-148284270D01*
X153000762Y-148449908D01*
X153055331Y-148492381D01*
X153178424Y-148588189D01*
X153376426Y-148695342D01*
X153376427Y-148695342D01*
X153376428Y-148695343D01*
X153488227Y-148733723D01*
X153589365Y-148768444D01*
X153811431Y-148805500D01*
X153811435Y-148805500D01*
X154036565Y-148805500D01*
X154036569Y-148805500D01*
X154258635Y-148768444D01*
X154471574Y-148695342D01*
X154669576Y-148588189D01*
X154847240Y-148449906D01*
X154999722Y-148284268D01*
X154999927Y-148283955D01*
X155005115Y-148276012D01*
X155088518Y-148148354D01*
X155142520Y-148102268D01*
X155212868Y-148092692D01*
X155277225Y-148122669D01*
X155299480Y-148148353D01*
X155332607Y-148199058D01*
X155388275Y-148284265D01*
X155388279Y-148284270D01*
X155540762Y-148449908D01*
X155595331Y-148492381D01*
X155718424Y-148588189D01*
X155916426Y-148695342D01*
X155916427Y-148695342D01*
X155916428Y-148695343D01*
X156028227Y-148733723D01*
X156129365Y-148768444D01*
X156351431Y-148805500D01*
X156351435Y-148805500D01*
X156576565Y-148805500D01*
X156576569Y-148805500D01*
X156798635Y-148768444D01*
X157011574Y-148695342D01*
X157209576Y-148588189D01*
X157387240Y-148449906D01*
X157539722Y-148284268D01*
X157539927Y-148283955D01*
X157545115Y-148276012D01*
X157628518Y-148148354D01*
X157682520Y-148102268D01*
X157752868Y-148092692D01*
X157817225Y-148122669D01*
X157839480Y-148148353D01*
X157872607Y-148199058D01*
X157928275Y-148284265D01*
X157928279Y-148284270D01*
X158080762Y-148449908D01*
X158135331Y-148492381D01*
X158258424Y-148588189D01*
X158456426Y-148695342D01*
X158456427Y-148695342D01*
X158456428Y-148695343D01*
X158568227Y-148733723D01*
X158669365Y-148768444D01*
X158891431Y-148805500D01*
X158891435Y-148805500D01*
X159116565Y-148805500D01*
X159116569Y-148805500D01*
X159338635Y-148768444D01*
X159551574Y-148695342D01*
X159749576Y-148588189D01*
X159927240Y-148449906D01*
X160079722Y-148284268D01*
X160079927Y-148283955D01*
X160085115Y-148276012D01*
X160168518Y-148148354D01*
X160222520Y-148102268D01*
X160292868Y-148092692D01*
X160357225Y-148122669D01*
X160379480Y-148148353D01*
X160412607Y-148199058D01*
X160468275Y-148284265D01*
X160468279Y-148284270D01*
X160620762Y-148449908D01*
X160675331Y-148492381D01*
X160798424Y-148588189D01*
X160996426Y-148695342D01*
X160996427Y-148695342D01*
X160996428Y-148695343D01*
X161108227Y-148733723D01*
X161209365Y-148768444D01*
X161431431Y-148805500D01*
X161431435Y-148805500D01*
X161656565Y-148805500D01*
X161656569Y-148805500D01*
X161878635Y-148768444D01*
X162091574Y-148695342D01*
X162289576Y-148588189D01*
X162467240Y-148449906D01*
X162619722Y-148284268D01*
X162619927Y-148283955D01*
X162625115Y-148276012D01*
X162708518Y-148148354D01*
X162762520Y-148102268D01*
X162832868Y-148092692D01*
X162897225Y-148122669D01*
X162919480Y-148148353D01*
X162952607Y-148199058D01*
X163008275Y-148284265D01*
X163008279Y-148284270D01*
X163160762Y-148449908D01*
X163215331Y-148492381D01*
X163338424Y-148588189D01*
X163536426Y-148695342D01*
X163536427Y-148695342D01*
X163536428Y-148695343D01*
X163648227Y-148733723D01*
X163749365Y-148768444D01*
X163971431Y-148805500D01*
X163971435Y-148805500D01*
X164196565Y-148805500D01*
X164196569Y-148805500D01*
X164418635Y-148768444D01*
X164631574Y-148695342D01*
X164829576Y-148588189D01*
X165007240Y-148449906D01*
X165159722Y-148284268D01*
X165159927Y-148283955D01*
X165165115Y-148276012D01*
X165248518Y-148148354D01*
X165302520Y-148102268D01*
X165372868Y-148092692D01*
X165437225Y-148122669D01*
X165459480Y-148148353D01*
X165492607Y-148199058D01*
X165548275Y-148284265D01*
X165548279Y-148284270D01*
X165700762Y-148449908D01*
X165755331Y-148492381D01*
X165878424Y-148588189D01*
X166076426Y-148695342D01*
X166076427Y-148695342D01*
X166076428Y-148695343D01*
X166188227Y-148733723D01*
X166289365Y-148768444D01*
X166511431Y-148805500D01*
X166511435Y-148805500D01*
X166736565Y-148805500D01*
X166736569Y-148805500D01*
X166958635Y-148768444D01*
X167171574Y-148695342D01*
X167369576Y-148588189D01*
X167547240Y-148449906D01*
X167699722Y-148284268D01*
X167699927Y-148283955D01*
X167706441Y-148273983D01*
X167822860Y-148095791D01*
X167913296Y-147889616D01*
X167968564Y-147671368D01*
X167987156Y-147447000D01*
X167968564Y-147222632D01*
X167966125Y-147213002D01*
X167913297Y-147004387D01*
X167913296Y-147004386D01*
X167913296Y-147004384D01*
X167822860Y-146798209D01*
X167805597Y-146771786D01*
X167699724Y-146609734D01*
X167699719Y-146609729D01*
X167556524Y-146454179D01*
X167525103Y-146390514D01*
X167533090Y-146319968D01*
X167577948Y-146264939D01*
X167605183Y-146250789D01*
X167720204Y-146207889D01*
X167727994Y-146202058D01*
X167837261Y-146120261D01*
X167924887Y-146003207D01*
X167924887Y-146003206D01*
X167924889Y-146003204D01*
X167975989Y-145866201D01*
X167982500Y-145805638D01*
X167982500Y-144008362D01*
X167982499Y-144008350D01*
X167975990Y-143947803D01*
X167975988Y-143947795D01*
X167924889Y-143810797D01*
X167924887Y-143810792D01*
X167837261Y-143693738D01*
X167720207Y-143606112D01*
X167720202Y-143606110D01*
X167583204Y-143555011D01*
X167583196Y-143555009D01*
X167522649Y-143548500D01*
X167522638Y-143548500D01*
X165725362Y-143548500D01*
X165725350Y-143548500D01*
X165664803Y-143555009D01*
X165664795Y-143555011D01*
X165527796Y-143606110D01*
X165527794Y-143606111D01*
X165508205Y-143620775D01*
X165441684Y-143645583D01*
X165372310Y-143630489D01*
X165343605Y-143608999D01*
X158101945Y-136367339D01*
X158091980Y-136354901D01*
X158091753Y-136355090D01*
X158086702Y-136348984D01*
X158086701Y-136348982D01*
X158035622Y-136301016D01*
X158014478Y-136279871D01*
X158014473Y-136279866D01*
X158008926Y-136275563D01*
X158004418Y-136271712D01*
X157970026Y-136239417D01*
X157970020Y-136239413D01*
X157952264Y-136229651D01*
X157935748Y-136218802D01*
X157919742Y-136206386D01*
X157888990Y-136193078D01*
X157876441Y-136187648D01*
X157871109Y-136185036D01*
X157829762Y-136162305D01*
X157810137Y-136157266D01*
X157791437Y-136150864D01*
X157772846Y-136142819D01*
X157772844Y-136142818D01*
X157772843Y-136142818D01*
X157726243Y-136135437D01*
X157720430Y-136134233D01*
X157674731Y-136122500D01*
X157654477Y-136122500D01*
X157634767Y-136120949D01*
X157614758Y-136117780D01*
X157614757Y-136117780D01*
X157567784Y-136122220D01*
X157561851Y-136122500D01*
X153381626Y-136122500D01*
X153313505Y-136102498D01*
X153267012Y-136048842D01*
X153256908Y-135978568D01*
X153261927Y-135958575D01*
X153261860Y-135958557D01*
X153263002Y-135954292D01*
X153263227Y-135953399D01*
X153263284Y-135953242D01*
X153322543Y-135732087D01*
X153342498Y-135504000D01*
X153322543Y-135275913D01*
X153263284Y-135054757D01*
X153166523Y-134847251D01*
X153035198Y-134659700D01*
X152873300Y-134497802D01*
X152832329Y-134469114D01*
X152774938Y-134428928D01*
X152685749Y-134366477D01*
X152646543Y-134348195D01*
X152593258Y-134301279D01*
X152573796Y-134233002D01*
X152594337Y-134165042D01*
X152646543Y-134119805D01*
X152648997Y-134118660D01*
X152685749Y-134101523D01*
X152873300Y-133970198D01*
X153035198Y-133808300D01*
X153166523Y-133620749D01*
X153263284Y-133413243D01*
X153322543Y-133192087D01*
X153342498Y-132964000D01*
X153322543Y-132735913D01*
X153263284Y-132514757D01*
X153166523Y-132307251D01*
X153035198Y-132119700D01*
X152873300Y-131957802D01*
X152685749Y-131826477D01*
X152646543Y-131808195D01*
X152593258Y-131761279D01*
X152573796Y-131693002D01*
X152594337Y-131625042D01*
X152646543Y-131579805D01*
X152648997Y-131578660D01*
X152685749Y-131561523D01*
X152873300Y-131430198D01*
X153035198Y-131268300D01*
X153166523Y-131080749D01*
X153263284Y-130873243D01*
X153322543Y-130652087D01*
X153342498Y-130424000D01*
X153322543Y-130195913D01*
X153263284Y-129974757D01*
X153166523Y-129767251D01*
X153035198Y-129579700D01*
X152873300Y-129417802D01*
X152685749Y-129286477D01*
X152646543Y-129268195D01*
X152593258Y-129221279D01*
X152573796Y-129153002D01*
X152594337Y-129085042D01*
X152646543Y-129039805D01*
X152648997Y-129038660D01*
X152685749Y-129021523D01*
X152873300Y-128890198D01*
X153035198Y-128728300D01*
X153166523Y-128540749D01*
X153263284Y-128333243D01*
X153322543Y-128112087D01*
X153342498Y-127884000D01*
X153322543Y-127655913D01*
X153263284Y-127434757D01*
X153166523Y-127227251D01*
X153035198Y-127039700D01*
X152873300Y-126877802D01*
X152685749Y-126746477D01*
X152676169Y-126742010D01*
X152646543Y-126728195D01*
X152593258Y-126681279D01*
X152573796Y-126613002D01*
X152594337Y-126545042D01*
X152646543Y-126499805D01*
X152648997Y-126498660D01*
X152685749Y-126481523D01*
X152873300Y-126350198D01*
X153035198Y-126188300D01*
X153166523Y-126000749D01*
X153263284Y-125793243D01*
X153322543Y-125572087D01*
X153342498Y-125344000D01*
X153322543Y-125115913D01*
X153263284Y-124894757D01*
X153219565Y-124801000D01*
X154007502Y-124801000D01*
X154027457Y-125029087D01*
X154050722Y-125115913D01*
X154086715Y-125250240D01*
X154086717Y-125250246D01*
X154183477Y-125457749D01*
X154263537Y-125572087D01*
X154314802Y-125645300D01*
X154476700Y-125807198D01*
X154664251Y-125938523D01*
X154871757Y-126035284D01*
X155092913Y-126094543D01*
X155321000Y-126114498D01*
X155549087Y-126094543D01*
X155770243Y-126035284D01*
X155977749Y-125938523D01*
X156165300Y-125807198D01*
X156327198Y-125645300D01*
X156458523Y-125457749D01*
X156555284Y-125250243D01*
X156614543Y-125029087D01*
X156634498Y-124801000D01*
X156614543Y-124572913D01*
X156555284Y-124351757D01*
X156458523Y-124144251D01*
X156327198Y-123956700D01*
X156165300Y-123794802D01*
X155977749Y-123663477D01*
X155977748Y-123663476D01*
X155770246Y-123566717D01*
X155770240Y-123566715D01*
X155632878Y-123529909D01*
X155549087Y-123507457D01*
X155321000Y-123487502D01*
X155320999Y-123487502D01*
X155092913Y-123507457D01*
X154871759Y-123566715D01*
X154871753Y-123566717D01*
X154664250Y-123663477D01*
X154476703Y-123794799D01*
X154476697Y-123794804D01*
X154314804Y-123956697D01*
X154314799Y-123956703D01*
X154183477Y-124144250D01*
X154086717Y-124351753D01*
X154086715Y-124351759D01*
X154047074Y-124499703D01*
X154027457Y-124572913D01*
X154007502Y-124801000D01*
X153219565Y-124801000D01*
X153166523Y-124687251D01*
X153035198Y-124499700D01*
X152873300Y-124337802D01*
X152802500Y-124288227D01*
X152685747Y-124206475D01*
X152646541Y-124188193D01*
X152593256Y-124141276D01*
X152573796Y-124072998D01*
X152594338Y-124005039D01*
X152646542Y-123959805D01*
X152685749Y-123941523D01*
X152873300Y-123810198D01*
X153035198Y-123648300D01*
X153166523Y-123460749D01*
X153263284Y-123253243D01*
X153322543Y-123032087D01*
X153342498Y-122804000D01*
X153322543Y-122575913D01*
X153263284Y-122354757D01*
X153166523Y-122147251D01*
X153035198Y-121959700D01*
X152873300Y-121797802D01*
X152873291Y-121797796D01*
X152685749Y-121666477D01*
X152645951Y-121647919D01*
X152592666Y-121601002D01*
X152573205Y-121532725D01*
X152593747Y-121464765D01*
X152645951Y-121419529D01*
X152685498Y-121401087D01*
X152872974Y-121269815D01*
X152872980Y-121269810D01*
X153034810Y-121107980D01*
X153034815Y-121107974D01*
X153166087Y-120920498D01*
X153262811Y-120713073D01*
X153262813Y-120713068D01*
X153315082Y-120518000D01*
X152340686Y-120518000D01*
X152356641Y-120502045D01*
X152414165Y-120389148D01*
X152433986Y-120264000D01*
X152414165Y-120138852D01*
X152356641Y-120025955D01*
X152340686Y-120010000D01*
X153315082Y-120010000D01*
X153262813Y-119814931D01*
X153262811Y-119814926D01*
X153256317Y-119800999D01*
X154008004Y-119800999D01*
X154027951Y-120029002D01*
X154087186Y-120250068D01*
X154087188Y-120250073D01*
X154183913Y-120457501D01*
X154233899Y-120528888D01*
X154922272Y-119840516D01*
X154935835Y-119926148D01*
X154993359Y-120039045D01*
X155082955Y-120128641D01*
X155195852Y-120186165D01*
X155281482Y-120199727D01*
X154593110Y-120888098D01*
X154593110Y-120888100D01*
X154664498Y-120938086D01*
X154871926Y-121034811D01*
X154871931Y-121034813D01*
X155092999Y-121094048D01*
X155092995Y-121094048D01*
X155321000Y-121113995D01*
X155549002Y-121094048D01*
X155770068Y-121034813D01*
X155770073Y-121034811D01*
X155977497Y-120938088D01*
X156048888Y-120888099D01*
X156048888Y-120888097D01*
X156006797Y-120846006D01*
X160383209Y-120846006D01*
X160403026Y-121161007D01*
X160403028Y-121161024D01*
X160462173Y-121471067D01*
X160462176Y-121471080D01*
X160559708Y-121771254D01*
X160559713Y-121771267D01*
X160596483Y-121849407D01*
X160694107Y-122056869D01*
X160694109Y-122056872D01*
X160694112Y-122056878D01*
X160863231Y-122323368D01*
X161064432Y-122566578D01*
X161064435Y-122566580D01*
X161064436Y-122566582D01*
X161294529Y-122782654D01*
X161549890Y-122968184D01*
X161826490Y-123120247D01*
X162119967Y-123236443D01*
X162425694Y-123314940D01*
X162425702Y-123314941D01*
X162425701Y-123314941D01*
X162585580Y-123335138D01*
X162738848Y-123354500D01*
X162738852Y-123354500D01*
X163054486Y-123354500D01*
X163054490Y-123354500D01*
X163367644Y-123314940D01*
X163673371Y-123236443D01*
X163966848Y-123120247D01*
X164243448Y-122968184D01*
X164498809Y-122782654D01*
X164728902Y-122566582D01*
X164930101Y-122323375D01*
X164930103Y-122323370D01*
X164930106Y-122323368D01*
X165099225Y-122056878D01*
X165099231Y-122056869D01*
X165233625Y-121771266D01*
X165331164Y-121471072D01*
X165390310Y-121161020D01*
X165392280Y-121129703D01*
X165410129Y-120846006D01*
X165410129Y-120845993D01*
X165390311Y-120530992D01*
X165390309Y-120530975D01*
X165363254Y-120389148D01*
X165331164Y-120220928D01*
X165283337Y-120073732D01*
X165233629Y-119920745D01*
X165233624Y-119920732D01*
X165223863Y-119899989D01*
X165099231Y-119635131D01*
X165099225Y-119635121D01*
X164930106Y-119368631D01*
X164728905Y-119125421D01*
X164702621Y-119100739D01*
X164498809Y-118909346D01*
X164498808Y-118909345D01*
X164243450Y-118723817D01*
X164134485Y-118663913D01*
X163966848Y-118571753D01*
X163673371Y-118455557D01*
X163367644Y-118377060D01*
X163367639Y-118377059D01*
X163367634Y-118377058D01*
X163367636Y-118377058D01*
X163054504Y-118337501D01*
X163054493Y-118337500D01*
X163054490Y-118337500D01*
X162738848Y-118337500D01*
X162738845Y-118337500D01*
X162738833Y-118337501D01*
X162425702Y-118377058D01*
X162119970Y-118455556D01*
X162119968Y-118455556D01*
X162119967Y-118455557D01*
X161987635Y-118507951D01*
X161826490Y-118571753D01*
X161549887Y-118723817D01*
X161294530Y-118909345D01*
X161294529Y-118909345D01*
X161064432Y-119125421D01*
X160863231Y-119368631D01*
X160694112Y-119635121D01*
X160694105Y-119635135D01*
X160559713Y-119920732D01*
X160559708Y-119920745D01*
X160462176Y-120220919D01*
X160462173Y-120220932D01*
X160403028Y-120530975D01*
X160403026Y-120530992D01*
X160383209Y-120845993D01*
X160383209Y-120846006D01*
X156006797Y-120846006D01*
X155360518Y-120199727D01*
X155446148Y-120186165D01*
X155559045Y-120128641D01*
X155648641Y-120039045D01*
X155706165Y-119926148D01*
X155719727Y-119840518D01*
X156408097Y-120528888D01*
X156408099Y-120528888D01*
X156458088Y-120457497D01*
X156554811Y-120250073D01*
X156554813Y-120250068D01*
X156614048Y-120029002D01*
X156633995Y-119800999D01*
X156614048Y-119572997D01*
X156554813Y-119351931D01*
X156554811Y-119351926D01*
X156458086Y-119144498D01*
X156408100Y-119073110D01*
X156408098Y-119073110D01*
X155719727Y-119761481D01*
X155706165Y-119675852D01*
X155648641Y-119562955D01*
X155559045Y-119473359D01*
X155446148Y-119415835D01*
X155360517Y-119402272D01*
X156048888Y-118713899D01*
X156048888Y-118713898D01*
X155977501Y-118663913D01*
X155770073Y-118567188D01*
X155770068Y-118567186D01*
X155549000Y-118507951D01*
X155549004Y-118507951D01*
X155321000Y-118488004D01*
X155092997Y-118507951D01*
X154871931Y-118567186D01*
X154871926Y-118567188D01*
X154664500Y-118663913D01*
X154593109Y-118713900D01*
X155281481Y-119402272D01*
X155195852Y-119415835D01*
X155082955Y-119473359D01*
X154993359Y-119562955D01*
X154935835Y-119675852D01*
X154922272Y-119761481D01*
X154233900Y-119073109D01*
X154183913Y-119144500D01*
X154087188Y-119351926D01*
X154087186Y-119351931D01*
X154027951Y-119572997D01*
X154008004Y-119800999D01*
X153256317Y-119800999D01*
X153166087Y-119607501D01*
X153034815Y-119420025D01*
X153034810Y-119420019D01*
X152872980Y-119258189D01*
X152872974Y-119258184D01*
X152685498Y-119126912D01*
X152478073Y-119030188D01*
X152478071Y-119030187D01*
X152283000Y-118977917D01*
X152283000Y-119952314D01*
X152267045Y-119936359D01*
X152154148Y-119878835D01*
X152060481Y-119864000D01*
X151997519Y-119864000D01*
X151903852Y-119878835D01*
X151790955Y-119936359D01*
X151775000Y-119952313D01*
X151775000Y-118977917D01*
X151774999Y-118977917D01*
X151579928Y-119030187D01*
X151579926Y-119030188D01*
X151372501Y-119126912D01*
X151185025Y-119258184D01*
X151185019Y-119258189D01*
X151023189Y-119420019D01*
X151023184Y-119420025D01*
X150891912Y-119607501D01*
X150795188Y-119814926D01*
X150795186Y-119814931D01*
X150742917Y-120010000D01*
X151717314Y-120010000D01*
X151701359Y-120025955D01*
X151643835Y-120138852D01*
X151624014Y-120264000D01*
X151643835Y-120389148D01*
X151701359Y-120502045D01*
X151717314Y-120518000D01*
X150742918Y-120518000D01*
X150795186Y-120713068D01*
X150795188Y-120713073D01*
X150891912Y-120920498D01*
X151023184Y-121107974D01*
X151023189Y-121107980D01*
X151185019Y-121269810D01*
X151185025Y-121269815D01*
X151372503Y-121401089D01*
X151412049Y-121419530D01*
X151465334Y-121466447D01*
X151484794Y-121534724D01*
X151464252Y-121602684D01*
X151412049Y-121647918D01*
X151372252Y-121666475D01*
X151184703Y-121797799D01*
X151184697Y-121797804D01*
X151022804Y-121959697D01*
X151022799Y-121959703D01*
X150891477Y-122147250D01*
X150794717Y-122354753D01*
X150794715Y-122354759D01*
X150739149Y-122562136D01*
X150735457Y-122575913D01*
X150715502Y-122804000D01*
X150735457Y-123032087D01*
X150753269Y-123098562D01*
X150794715Y-123253240D01*
X150794717Y-123253246D01*
X150891477Y-123460749D01*
X150996227Y-123610348D01*
X151022802Y-123648300D01*
X151184700Y-123810198D01*
X151372251Y-123941523D01*
X151404792Y-123956697D01*
X151411457Y-123959805D01*
X151464742Y-124006722D01*
X151484203Y-124074999D01*
X151463661Y-124142959D01*
X151411457Y-124188195D01*
X151372250Y-124206477D01*
X151184703Y-124337799D01*
X151184697Y-124337804D01*
X151022804Y-124499697D01*
X151022799Y-124499703D01*
X150891477Y-124687250D01*
X150794717Y-124894753D01*
X150794716Y-124894757D01*
X150735457Y-125115913D01*
X150715502Y-125344000D01*
X150735457Y-125572087D01*
X150755075Y-125645300D01*
X150794715Y-125793240D01*
X150794717Y-125793246D01*
X150891477Y-126000749D01*
X150996440Y-126150652D01*
X151022802Y-126188300D01*
X151184700Y-126350198D01*
X151372251Y-126481523D01*
X151407359Y-126497894D01*
X151411457Y-126499805D01*
X151464742Y-126546722D01*
X151484203Y-126614999D01*
X151463661Y-126682959D01*
X151411457Y-126728195D01*
X151372250Y-126746477D01*
X151184703Y-126877799D01*
X151184697Y-126877804D01*
X151022804Y-127039697D01*
X151022799Y-127039703D01*
X150891477Y-127227250D01*
X150794717Y-127434753D01*
X150794715Y-127434759D01*
X150763271Y-127552109D01*
X150735457Y-127655913D01*
X150715502Y-127884000D01*
X150735457Y-128112087D01*
X150755341Y-128186293D01*
X150794715Y-128333240D01*
X150794717Y-128333246D01*
X150891477Y-128540749D01*
X150981454Y-128669250D01*
X151022802Y-128728300D01*
X151184700Y-128890198D01*
X151372251Y-129021523D01*
X151407359Y-129037894D01*
X151411457Y-129039805D01*
X151464742Y-129086722D01*
X151484203Y-129154999D01*
X151463661Y-129222959D01*
X151411457Y-129268195D01*
X151372250Y-129286477D01*
X151184703Y-129417799D01*
X151184697Y-129417804D01*
X151022804Y-129579697D01*
X151022799Y-129579703D01*
X150891477Y-129767250D01*
X150794717Y-129974753D01*
X150794715Y-129974759D01*
X150785760Y-130008180D01*
X150735457Y-130195913D01*
X150715502Y-130424000D01*
X150723244Y-130512497D01*
X150735457Y-130652086D01*
X150794715Y-130873240D01*
X150794717Y-130873246D01*
X150891477Y-131080749D01*
X150906225Y-131101812D01*
X151022802Y-131268300D01*
X151184700Y-131430198D01*
X151372251Y-131561523D01*
X151407359Y-131577894D01*
X151411457Y-131579805D01*
X151464742Y-131626722D01*
X151484203Y-131694999D01*
X151463661Y-131762959D01*
X151411457Y-131808195D01*
X151372250Y-131826477D01*
X151184703Y-131957799D01*
X151184697Y-131957804D01*
X151022804Y-132119697D01*
X151022799Y-132119703D01*
X150891477Y-132307250D01*
X150794717Y-132514753D01*
X150794715Y-132514759D01*
X150760839Y-132641185D01*
X150735457Y-132735913D01*
X150715502Y-132964000D01*
X150735457Y-133192087D01*
X150758940Y-133279725D01*
X150794715Y-133413240D01*
X150794717Y-133413246D01*
X150891477Y-133620749D01*
X150979901Y-133747032D01*
X151022802Y-133808300D01*
X151184700Y-133970198D01*
X151372251Y-134101523D01*
X151407359Y-134117894D01*
X151411457Y-134119805D01*
X151464742Y-134166722D01*
X151484203Y-134234999D01*
X151463661Y-134302959D01*
X151411457Y-134348195D01*
X151372250Y-134366477D01*
X151184703Y-134497799D01*
X151184697Y-134497804D01*
X151022804Y-134659697D01*
X151022799Y-134659703D01*
X150891477Y-134847250D01*
X150794717Y-135054753D01*
X150794715Y-135054759D01*
X150735457Y-135275913D01*
X150719082Y-135463086D01*
X150715502Y-135504000D01*
X150735457Y-135732087D01*
X150740927Y-135752500D01*
X150794715Y-135953242D01*
X150794773Y-135953399D01*
X150794777Y-135953472D01*
X150796140Y-135958557D01*
X150795118Y-135958830D01*
X150799280Y-136024253D01*
X150764764Y-136086295D01*
X150702186Y-136119828D01*
X150676374Y-136122500D01*
X145761626Y-136122500D01*
X145693505Y-136102498D01*
X145647012Y-136048842D01*
X145636908Y-135978568D01*
X145641927Y-135958575D01*
X145641860Y-135958557D01*
X145643002Y-135954292D01*
X145643227Y-135953399D01*
X145643284Y-135953242D01*
X145702543Y-135732087D01*
X145722498Y-135504000D01*
X145702543Y-135275913D01*
X145643284Y-135054757D01*
X145546523Y-134847251D01*
X145415198Y-134659700D01*
X145253300Y-134497802D01*
X145212329Y-134469114D01*
X145154938Y-134428928D01*
X145065749Y-134366477D01*
X145026543Y-134348195D01*
X144973258Y-134301279D01*
X144953796Y-134233002D01*
X144974337Y-134165042D01*
X145026543Y-134119805D01*
X145028997Y-134118660D01*
X145065749Y-134101523D01*
X145253300Y-133970198D01*
X145415198Y-133808300D01*
X145546523Y-133620749D01*
X145643284Y-133413243D01*
X145702543Y-133192087D01*
X145722498Y-132964000D01*
X145702543Y-132735913D01*
X145643284Y-132514757D01*
X145546523Y-132307251D01*
X145415198Y-132119700D01*
X145253300Y-131957802D01*
X145065749Y-131826477D01*
X145026543Y-131808195D01*
X144973258Y-131761279D01*
X144953796Y-131693002D01*
X144974337Y-131625042D01*
X145026543Y-131579805D01*
X145028997Y-131578660D01*
X145065749Y-131561523D01*
X145253300Y-131430198D01*
X145415198Y-131268300D01*
X145546523Y-131080749D01*
X145643284Y-130873243D01*
X145702543Y-130652087D01*
X145722498Y-130424000D01*
X145702543Y-130195913D01*
X145643284Y-129974757D01*
X145546523Y-129767251D01*
X145415198Y-129579700D01*
X145253300Y-129417802D01*
X145065749Y-129286477D01*
X145026543Y-129268195D01*
X144973258Y-129221279D01*
X144953796Y-129153002D01*
X144974337Y-129085042D01*
X145026543Y-129039805D01*
X145028997Y-129038660D01*
X145065749Y-129021523D01*
X145253300Y-128890198D01*
X145415198Y-128728300D01*
X145546523Y-128540749D01*
X145643284Y-128333243D01*
X145702543Y-128112087D01*
X145722498Y-127884000D01*
X145702543Y-127655913D01*
X145643284Y-127434757D01*
X145546523Y-127227251D01*
X145415198Y-127039700D01*
X145253300Y-126877802D01*
X145065749Y-126746477D01*
X145056169Y-126742010D01*
X145026543Y-126728195D01*
X144973258Y-126681279D01*
X144953796Y-126613002D01*
X144974337Y-126545042D01*
X145026543Y-126499805D01*
X145028997Y-126498660D01*
X145065749Y-126481523D01*
X145253300Y-126350198D01*
X145415198Y-126188300D01*
X145546523Y-126000749D01*
X145643284Y-125793243D01*
X145702543Y-125572087D01*
X145722498Y-125344000D01*
X145702543Y-125115913D01*
X145643284Y-124894757D01*
X145546523Y-124687251D01*
X145415198Y-124499700D01*
X145253300Y-124337802D01*
X145065749Y-124206477D01*
X145026543Y-124188195D01*
X144973258Y-124141279D01*
X144953796Y-124073002D01*
X144974337Y-124005042D01*
X145026543Y-123959805D01*
X145033195Y-123956703D01*
X145065749Y-123941523D01*
X145253300Y-123810198D01*
X145415198Y-123648300D01*
X145546523Y-123460749D01*
X145643284Y-123253243D01*
X145702543Y-123032087D01*
X145722498Y-122804000D01*
X145702543Y-122575913D01*
X145643284Y-122354757D01*
X145546523Y-122147251D01*
X145415198Y-121959700D01*
X145253300Y-121797802D01*
X145253295Y-121797799D01*
X145253292Y-121797796D01*
X145249995Y-121795487D01*
X145205669Y-121740028D01*
X145198363Y-121669409D01*
X145230396Y-121606049D01*
X145291599Y-121570067D01*
X145308801Y-121566999D01*
X145318201Y-121565989D01*
X145322612Y-121564344D01*
X145348773Y-121554586D01*
X145455204Y-121514889D01*
X145461125Y-121510457D01*
X145572261Y-121427261D01*
X145659887Y-121310207D01*
X145659887Y-121310206D01*
X145659889Y-121310204D01*
X145710989Y-121173201D01*
X145712005Y-121163758D01*
X145717499Y-121112649D01*
X145717500Y-121112632D01*
X145717500Y-119415367D01*
X145717499Y-119415350D01*
X145710990Y-119354803D01*
X145710988Y-119354795D01*
X145659889Y-119217797D01*
X145659887Y-119217792D01*
X145572261Y-119100738D01*
X145455207Y-119013112D01*
X145455202Y-119013110D01*
X145318204Y-118962011D01*
X145318196Y-118962009D01*
X145257649Y-118955500D01*
X145257638Y-118955500D01*
X143560362Y-118955500D01*
X143560350Y-118955500D01*
X143499803Y-118962009D01*
X143499795Y-118962011D01*
X143362797Y-119013110D01*
X143362792Y-119013112D01*
X143245738Y-119100738D01*
X143158112Y-119217792D01*
X143158110Y-119217797D01*
X143107011Y-119354795D01*
X143107009Y-119354803D01*
X143100500Y-119415350D01*
X143100500Y-120624404D01*
X143080498Y-120692525D01*
X143063599Y-120713494D01*
X142833916Y-120943178D01*
X142613336Y-121163758D01*
X142600901Y-121173721D01*
X142601089Y-121173948D01*
X142594980Y-121179001D01*
X142547016Y-121230078D01*
X142525866Y-121251227D01*
X142521560Y-121256777D01*
X142517714Y-121261279D01*
X142485417Y-121295674D01*
X142485411Y-121295683D01*
X142475651Y-121313435D01*
X142464803Y-121329950D01*
X142452386Y-121345958D01*
X142433645Y-121389264D01*
X142431034Y-121394594D01*
X142408305Y-121435939D01*
X142408303Y-121435944D01*
X142403267Y-121455559D01*
X142396864Y-121474262D01*
X142388819Y-121492852D01*
X142381437Y-121539456D01*
X142380233Y-121545268D01*
X142368500Y-121590968D01*
X142368500Y-121611223D01*
X142366949Y-121630933D01*
X142363780Y-121650942D01*
X142363780Y-121650943D01*
X142368220Y-121697917D01*
X142368500Y-121703850D01*
X142368500Y-124780405D01*
X142348498Y-124848526D01*
X142331595Y-124869500D01*
X135537500Y-131663595D01*
X135475188Y-131697621D01*
X135448405Y-131700500D01*
X118776835Y-131700500D01*
X118708714Y-131680498D01*
X118702774Y-131676436D01*
X118693756Y-131669884D01*
X118668883Y-131658810D01*
X118519288Y-131592206D01*
X118332487Y-131552500D01*
X118141513Y-131552500D01*
X117954711Y-131592206D01*
X117780247Y-131669882D01*
X117625744Y-131782135D01*
X117497965Y-131924048D01*
X117497958Y-131924058D01*
X117402476Y-132089438D01*
X117402473Y-132089445D01*
X117343457Y-132271072D01*
X117323496Y-132460999D01*
X117335094Y-132571347D01*
X117322322Y-132641185D01*
X117273924Y-132692970D01*
X117193722Y-132740402D01*
X117193718Y-132740405D01*
X117078405Y-132855718D01*
X117078399Y-132855725D01*
X116995382Y-132996099D01*
X116949881Y-133152713D01*
X116949879Y-133152725D01*
X116947000Y-133189311D01*
X116947000Y-133863000D01*
X117858000Y-133863000D01*
X117926121Y-133883002D01*
X117972614Y-133936658D01*
X117984000Y-133989000D01*
X117984000Y-134245000D01*
X117963998Y-134313121D01*
X117910342Y-134359614D01*
X117858000Y-134371000D01*
X116947000Y-134371000D01*
X116947000Y-134797997D01*
X116926998Y-134866118D01*
X116873342Y-134912611D01*
X116821000Y-134923997D01*
X116364927Y-134923997D01*
X116296806Y-134903995D01*
X116250313Y-134850339D01*
X116240209Y-134780065D01*
X116250732Y-134744747D01*
X116295811Y-134648073D01*
X116295813Y-134648068D01*
X116355048Y-134427002D01*
X116374995Y-134198999D01*
X116355048Y-133970997D01*
X116295813Y-133749931D01*
X116295811Y-133749926D01*
X116199086Y-133542498D01*
X116149100Y-133471110D01*
X116149097Y-133471110D01*
X115460726Y-134159480D01*
X115447165Y-134073852D01*
X115389641Y-133960955D01*
X115300045Y-133871359D01*
X115187148Y-133813835D01*
X115101517Y-133800272D01*
X115789888Y-133111899D01*
X115789888Y-133111898D01*
X115718501Y-133061913D01*
X115511073Y-132965188D01*
X115511068Y-132965186D01*
X115290000Y-132905951D01*
X115290004Y-132905951D01*
X115062000Y-132886004D01*
X114833997Y-132905951D01*
X114612931Y-132965186D01*
X114612926Y-132965188D01*
X114405500Y-133061913D01*
X114334109Y-133111900D01*
X115022481Y-133800272D01*
X114936852Y-133813835D01*
X114823955Y-133871359D01*
X114734359Y-133960955D01*
X114676835Y-134073852D01*
X114663272Y-134159482D01*
X113977468Y-133473677D01*
X113943442Y-133411365D01*
X113941253Y-133371414D01*
X113943504Y-133350000D01*
X113923542Y-133160072D01*
X113864527Y-132978444D01*
X113793671Y-132855718D01*
X113769042Y-132813059D01*
X113769041Y-132813058D01*
X113769040Y-132813056D01*
X113695863Y-132731784D01*
X113665146Y-132667776D01*
X113663500Y-132647474D01*
X113663500Y-129864431D01*
X113683502Y-129796310D01*
X113737158Y-129749817D01*
X113807432Y-129739713D01*
X113872012Y-129769207D01*
X113903695Y-129811182D01*
X113921151Y-129848617D01*
X113924477Y-129855749D01*
X114055802Y-130043300D01*
X114217700Y-130205198D01*
X114405251Y-130336523D01*
X114612757Y-130433284D01*
X114833913Y-130492543D01*
X115062000Y-130512498D01*
X115290087Y-130492543D01*
X115511243Y-130433284D01*
X115718749Y-130336523D01*
X115906300Y-130205198D01*
X116068198Y-130043300D01*
X116199523Y-129855749D01*
X116296284Y-129648243D01*
X116355543Y-129427087D01*
X116375498Y-129199000D01*
X116355543Y-128970913D01*
X116296284Y-128749757D01*
X116199523Y-128542251D01*
X116068198Y-128354700D01*
X115906300Y-128192802D01*
X115900123Y-128188477D01*
X115718749Y-128061477D01*
X115511246Y-127964717D01*
X115511240Y-127964715D01*
X115417771Y-127939670D01*
X115290087Y-127905457D01*
X115062000Y-127885502D01*
X114833913Y-127905457D01*
X114612759Y-127964715D01*
X114612753Y-127964717D01*
X114405250Y-128061477D01*
X114217703Y-128192799D01*
X114217697Y-128192804D01*
X114055804Y-128354697D01*
X114055799Y-128354703D01*
X113924477Y-128542250D01*
X113903695Y-128586818D01*
X113856778Y-128640103D01*
X113788500Y-128659564D01*
X113720540Y-128639022D01*
X113674475Y-128584999D01*
X113663500Y-128533568D01*
X113663500Y-127718855D01*
X113665249Y-127703014D01*
X113664956Y-127702987D01*
X113665702Y-127695090D01*
X113663500Y-127625041D01*
X113663500Y-127609480D01*
X113668569Y-127577480D01*
X113668168Y-127577395D01*
X113669540Y-127570937D01*
X113669540Y-127570932D01*
X113669542Y-127570928D01*
X113689504Y-127381000D01*
X113669542Y-127191072D01*
X113610527Y-127009444D01*
X113584579Y-126964500D01*
X113567841Y-126895504D01*
X113591062Y-126828412D01*
X113646869Y-126784525D01*
X113693698Y-126775500D01*
X119245221Y-126775500D01*
X119261062Y-126777249D01*
X119261090Y-126776956D01*
X119268976Y-126777700D01*
X119268983Y-126777702D01*
X119339032Y-126775500D01*
X119368930Y-126775500D01*
X119375892Y-126774619D01*
X119381793Y-126774154D01*
X119428963Y-126772673D01*
X119448421Y-126767019D01*
X119467762Y-126763013D01*
X119487871Y-126760474D01*
X119487874Y-126760472D01*
X119494712Y-126759609D01*
X119564802Y-126770918D01*
X119617652Y-126818325D01*
X119636500Y-126884616D01*
X119636500Y-129457146D01*
X119634751Y-129472988D01*
X119635044Y-129473016D01*
X119634298Y-129480907D01*
X119636500Y-129550957D01*
X119636500Y-129580851D01*
X119636501Y-129580872D01*
X119637378Y-129587820D01*
X119637844Y-129593732D01*
X119639326Y-129640888D01*
X119639327Y-129640893D01*
X119644977Y-129660339D01*
X119648986Y-129679697D01*
X119651525Y-129699793D01*
X119651526Y-129699799D01*
X119668893Y-129743662D01*
X119670816Y-129749279D01*
X119683982Y-129794593D01*
X119694294Y-129812031D01*
X119702988Y-129829779D01*
X119710444Y-129848609D01*
X119710450Y-129848620D01*
X119738177Y-129886783D01*
X119741437Y-129891746D01*
X119765460Y-129932365D01*
X119779779Y-129946684D01*
X119792617Y-129961714D01*
X119804526Y-129978104D01*
X119804530Y-129978109D01*
X119840880Y-130008180D01*
X119845273Y-130012177D01*
X120020378Y-130187283D01*
X120054403Y-130249595D01*
X120056592Y-130263207D01*
X120073957Y-130428427D01*
X120085361Y-130463523D01*
X120132973Y-130610056D01*
X120132976Y-130610061D01*
X120228458Y-130775441D01*
X120228465Y-130775451D01*
X120356244Y-130917364D01*
X120356247Y-130917366D01*
X120510748Y-131029618D01*
X120685212Y-131107294D01*
X120872013Y-131147000D01*
X121062987Y-131147000D01*
X121249788Y-131107294D01*
X121424252Y-131029618D01*
X121578753Y-130917366D01*
X121618479Y-130873246D01*
X121706534Y-130775451D01*
X121706535Y-130775449D01*
X121706540Y-130775444D01*
X121802027Y-130610056D01*
X121861042Y-130428428D01*
X121881004Y-130238500D01*
X121861042Y-130048572D01*
X121802027Y-129866944D01*
X121706540Y-129701556D01*
X121706538Y-129701554D01*
X121706534Y-129701548D01*
X121578755Y-129559635D01*
X121424252Y-129447382D01*
X121249788Y-129369706D01*
X121062987Y-129330000D01*
X121029500Y-129330000D01*
X120961379Y-129309998D01*
X120914886Y-129256342D01*
X120903500Y-129204000D01*
X120903500Y-126355807D01*
X120923502Y-126287686D01*
X120977158Y-126241193D01*
X121047432Y-126231089D01*
X121093634Y-126247352D01*
X121143904Y-126277081D01*
X121300640Y-126322617D01*
X121322617Y-126324346D01*
X121337266Y-126325500D01*
X121337270Y-126325500D01*
X121742734Y-126325500D01*
X121756050Y-126324451D01*
X121779360Y-126322617D01*
X121936096Y-126277081D01*
X122076585Y-126193997D01*
X122085900Y-126184681D01*
X122148212Y-126150653D01*
X122219028Y-126155716D01*
X122264091Y-126184675D01*
X122273410Y-126193994D01*
X122273415Y-126193998D01*
X122413902Y-126277080D01*
X122413904Y-126277081D01*
X122570640Y-126322617D01*
X122592617Y-126324346D01*
X122607266Y-126325500D01*
X122607270Y-126325500D01*
X123012734Y-126325500D01*
X123026049Y-126324451D01*
X123049360Y-126322617D01*
X123206096Y-126277081D01*
X123346585Y-126193997D01*
X123355902Y-126184679D01*
X123418213Y-126150652D01*
X123489029Y-126155715D01*
X123534098Y-126184680D01*
X123543415Y-126193997D01*
X123683904Y-126277081D01*
X123840640Y-126322617D01*
X123862617Y-126324346D01*
X123877266Y-126325500D01*
X123877270Y-126325500D01*
X124282734Y-126325500D01*
X124296050Y-126324451D01*
X124319360Y-126322617D01*
X124476096Y-126277081D01*
X124616585Y-126193997D01*
X124625900Y-126184681D01*
X124688212Y-126150653D01*
X124759028Y-126155716D01*
X124804091Y-126184675D01*
X124813410Y-126193994D01*
X124813415Y-126193998D01*
X124953902Y-126277080D01*
X124953904Y-126277081D01*
X125110640Y-126322617D01*
X125132617Y-126324346D01*
X125147266Y-126325500D01*
X125147270Y-126325500D01*
X125552734Y-126325500D01*
X125566049Y-126324451D01*
X125589360Y-126322617D01*
X125746096Y-126277081D01*
X125886585Y-126193997D01*
X125895902Y-126184680D01*
X125958213Y-126150652D01*
X126029029Y-126155715D01*
X126074098Y-126184680D01*
X126083415Y-126193997D01*
X126223904Y-126277081D01*
X126380640Y-126322617D01*
X126402617Y-126324346D01*
X126417266Y-126325500D01*
X126417270Y-126325500D01*
X126822734Y-126325500D01*
X126836050Y-126324451D01*
X126859360Y-126322617D01*
X127016096Y-126277081D01*
X127156585Y-126193997D01*
X127165900Y-126184681D01*
X127228212Y-126150653D01*
X127299028Y-126155716D01*
X127344091Y-126184675D01*
X127353410Y-126193994D01*
X127353415Y-126193998D01*
X127493902Y-126277080D01*
X127493904Y-126277081D01*
X127650640Y-126322617D01*
X127672617Y-126324346D01*
X127687266Y-126325500D01*
X127687270Y-126325500D01*
X128092734Y-126325500D01*
X128106049Y-126324451D01*
X128129360Y-126322617D01*
X128286096Y-126277081D01*
X128426585Y-126193997D01*
X128435901Y-126184680D01*
X128498213Y-126150652D01*
X128569029Y-126155715D01*
X128614098Y-126184680D01*
X128623415Y-126193997D01*
X128763904Y-126277081D01*
X128920640Y-126322617D01*
X128942617Y-126324346D01*
X128957266Y-126325500D01*
X128957270Y-126325500D01*
X129362734Y-126325500D01*
X129376050Y-126324451D01*
X129399360Y-126322617D01*
X129556096Y-126277081D01*
X129696585Y-126193997D01*
X129705900Y-126184681D01*
X129768212Y-126150653D01*
X129839028Y-126155716D01*
X129884091Y-126184675D01*
X129893410Y-126193994D01*
X129893415Y-126193998D01*
X130033902Y-126277080D01*
X130033904Y-126277081D01*
X130190640Y-126322617D01*
X130212617Y-126324346D01*
X130227266Y-126325500D01*
X130227270Y-126325500D01*
X130632734Y-126325500D01*
X130646049Y-126324451D01*
X130669360Y-126322617D01*
X130826096Y-126277081D01*
X130966585Y-126193997D01*
X130975900Y-126184681D01*
X131038208Y-126150653D01*
X131109024Y-126155713D01*
X131154094Y-126184677D01*
X131163410Y-126193993D01*
X131163412Y-126193994D01*
X131163415Y-126193997D01*
X131303904Y-126277081D01*
X131460640Y-126322617D01*
X131482617Y-126324346D01*
X131497266Y-126325500D01*
X131497270Y-126325500D01*
X131902734Y-126325500D01*
X131916050Y-126324451D01*
X131939360Y-126322617D01*
X132096096Y-126277081D01*
X132236585Y-126193997D01*
X132351997Y-126078585D01*
X132435081Y-125938096D01*
X132480617Y-125781360D01*
X132483500Y-125744730D01*
X132483500Y-125332965D01*
X132500382Y-125269965D01*
X132533524Y-125212561D01*
X132533523Y-125212561D01*
X132533527Y-125212556D01*
X132592542Y-125030928D01*
X132612504Y-124841000D01*
X132592542Y-124651072D01*
X132574792Y-124596444D01*
X132533529Y-124469449D01*
X132533526Y-124469442D01*
X132500380Y-124412032D01*
X132483500Y-124349035D01*
X132483500Y-123889270D01*
X132480617Y-123852640D01*
X132435081Y-123695904D01*
X132351997Y-123555415D01*
X132351994Y-123555412D01*
X132351993Y-123555410D01*
X132236589Y-123440006D01*
X132236586Y-123440004D01*
X132236585Y-123440003D01*
X132096096Y-123356919D01*
X132030508Y-123337864D01*
X131939365Y-123311384D01*
X131939361Y-123311383D01*
X131939360Y-123311383D01*
X131939358Y-123311382D01*
X131939353Y-123311382D01*
X131902734Y-123308500D01*
X131902730Y-123308500D01*
X131497270Y-123308500D01*
X131497266Y-123308500D01*
X131460646Y-123311382D01*
X131460634Y-123311384D01*
X131303903Y-123356919D01*
X131253637Y-123386646D01*
X131184821Y-123404104D01*
X131117490Y-123381586D01*
X131073022Y-123326241D01*
X131063500Y-123278191D01*
X131063500Y-121582855D01*
X131065249Y-121567014D01*
X131064956Y-121566987D01*
X131065701Y-121559094D01*
X131065702Y-121559091D01*
X131063500Y-121489041D01*
X131063500Y-121459144D01*
X131062619Y-121452178D01*
X131062155Y-121446282D01*
X131060673Y-121399110D01*
X131055022Y-121379663D01*
X131051012Y-121360300D01*
X131050582Y-121356893D01*
X131048474Y-121340203D01*
X131031099Y-121296320D01*
X131029179Y-121290711D01*
X131016018Y-121245407D01*
X131005705Y-121227969D01*
X130997010Y-121210222D01*
X130989552Y-121191383D01*
X130961821Y-121153215D01*
X130958562Y-121148255D01*
X130934541Y-121107635D01*
X130920218Y-121093312D01*
X130907377Y-121078279D01*
X130895471Y-121061892D01*
X130888029Y-121055735D01*
X130859108Y-121031810D01*
X130854736Y-121027831D01*
X129913500Y-120086595D01*
X129879474Y-120024283D01*
X129884539Y-119953468D01*
X129927086Y-119896632D01*
X129993606Y-119871821D01*
X130002595Y-119871500D01*
X130692632Y-119871500D01*
X130692638Y-119871500D01*
X130692645Y-119871499D01*
X130692649Y-119871499D01*
X130753196Y-119864990D01*
X130753199Y-119864989D01*
X130753201Y-119864989D01*
X130890204Y-119813889D01*
X130988492Y-119740311D01*
X131055011Y-119715501D01*
X131124385Y-119730592D01*
X131139502Y-119740306D01*
X131220580Y-119801001D01*
X131237796Y-119813889D01*
X131374795Y-119864988D01*
X131374803Y-119864990D01*
X131435350Y-119871499D01*
X131435355Y-119871499D01*
X131435362Y-119871500D01*
X131435368Y-119871500D01*
X133232632Y-119871500D01*
X133232638Y-119871500D01*
X133232645Y-119871499D01*
X133232649Y-119871499D01*
X133293196Y-119864990D01*
X133293199Y-119864989D01*
X133293201Y-119864989D01*
X133430204Y-119813889D01*
X133528492Y-119740311D01*
X133595011Y-119715501D01*
X133664385Y-119730592D01*
X133679502Y-119740306D01*
X133760580Y-119801001D01*
X133777796Y-119813889D01*
X133914795Y-119864988D01*
X133914803Y-119864990D01*
X133975350Y-119871499D01*
X133975355Y-119871499D01*
X133975362Y-119871500D01*
X133975368Y-119871500D01*
X135772632Y-119871500D01*
X135772638Y-119871500D01*
X135772645Y-119871499D01*
X135772649Y-119871499D01*
X135833196Y-119864990D01*
X135833199Y-119864989D01*
X135833201Y-119864989D01*
X135970204Y-119813889D01*
X136068492Y-119740311D01*
X136135011Y-119715501D01*
X136204385Y-119730592D01*
X136219502Y-119740306D01*
X136300580Y-119801001D01*
X136317796Y-119813889D01*
X136454795Y-119864988D01*
X136454803Y-119864990D01*
X136515350Y-119871499D01*
X136515355Y-119871499D01*
X136515362Y-119871500D01*
X136515368Y-119871500D01*
X138312632Y-119871500D01*
X138312638Y-119871500D01*
X138312645Y-119871499D01*
X138312649Y-119871499D01*
X138373196Y-119864990D01*
X138373199Y-119864989D01*
X138373201Y-119864989D01*
X138510204Y-119813889D01*
X138608492Y-119740311D01*
X138675011Y-119715501D01*
X138744385Y-119730592D01*
X138759502Y-119740306D01*
X138840580Y-119801001D01*
X138857796Y-119813889D01*
X138994795Y-119864988D01*
X138994803Y-119864990D01*
X139055350Y-119871499D01*
X139055355Y-119871499D01*
X139055362Y-119871500D01*
X139055368Y-119871500D01*
X140852632Y-119871500D01*
X140852638Y-119871500D01*
X140852645Y-119871499D01*
X140852649Y-119871499D01*
X140913196Y-119864990D01*
X140913199Y-119864989D01*
X140913201Y-119864989D01*
X141050204Y-119813889D01*
X141057946Y-119808094D01*
X141167261Y-119726261D01*
X141254887Y-119609207D01*
X141254887Y-119609206D01*
X141254889Y-119609204D01*
X141305989Y-119472201D01*
X141309259Y-119441790D01*
X141312499Y-119411649D01*
X141312500Y-119411632D01*
X141312500Y-117444935D01*
X141332502Y-117376814D01*
X141386158Y-117330321D01*
X141392094Y-117327792D01*
X141426685Y-117314096D01*
X141432261Y-117312187D01*
X141477593Y-117299018D01*
X141495024Y-117288708D01*
X141512780Y-117280009D01*
X141531617Y-117272552D01*
X141569786Y-117244818D01*
X141574744Y-117241562D01*
X141615362Y-117217542D01*
X141629685Y-117203218D01*
X141644724Y-117190374D01*
X141661107Y-117178472D01*
X141691193Y-117142103D01*
X141695161Y-117137741D01*
X145927558Y-112905344D01*
X145939993Y-112895383D01*
X145939806Y-112895156D01*
X145945910Y-112890104D01*
X145945919Y-112890099D01*
X145993900Y-112839003D01*
X146015036Y-112817868D01*
X146019338Y-112812320D01*
X146023168Y-112807834D01*
X146055487Y-112773420D01*
X146065246Y-112755666D01*
X146076105Y-112739137D01*
X146087418Y-112724553D01*
X146088515Y-112723139D01*
X146107255Y-112679831D01*
X146109866Y-112674503D01*
X146111542Y-112671455D01*
X146132596Y-112633159D01*
X146137634Y-112613534D01*
X146144039Y-112594829D01*
X146147543Y-112586732D01*
X146152082Y-112576244D01*
X146158733Y-112534250D01*
X146159462Y-112529646D01*
X146160663Y-112523839D01*
X146172401Y-112478129D01*
X146172401Y-112457873D01*
X146173952Y-112438162D01*
X146174706Y-112433402D01*
X146177121Y-112418156D01*
X146174374Y-112389097D01*
X146172681Y-112371179D01*
X146172401Y-112365247D01*
X146172401Y-106705939D01*
X146192403Y-106637818D01*
X146204759Y-106621635D01*
X146277941Y-106540359D01*
X146373428Y-106374971D01*
X146403237Y-106283227D01*
X146443310Y-106224622D01*
X146508707Y-106196985D01*
X146578664Y-106209092D01*
X146612165Y-106233069D01*
X149312847Y-108933751D01*
X149346873Y-108996063D01*
X149345459Y-109055456D01*
X149328458Y-109118907D01*
X149328457Y-109118910D01*
X149328457Y-109118913D01*
X149308502Y-109347000D01*
X149317909Y-109454528D01*
X149328457Y-109575086D01*
X149387715Y-109796240D01*
X149387717Y-109796246D01*
X149484477Y-110003749D01*
X149584182Y-110146143D01*
X149615802Y-110191300D01*
X149777700Y-110353198D01*
X149965251Y-110484523D01*
X150172757Y-110581284D01*
X150393913Y-110640543D01*
X150622000Y-110660498D01*
X150850087Y-110640543D01*
X151071243Y-110581284D01*
X151278749Y-110484523D01*
X151466300Y-110353198D01*
X151628198Y-110191300D01*
X151759523Y-110003749D01*
X151856284Y-109796243D01*
X151915543Y-109575087D01*
X151935498Y-109347000D01*
X151915543Y-109118913D01*
X151856284Y-108897757D01*
X151784935Y-108744749D01*
X151774275Y-108674558D01*
X151803255Y-108609745D01*
X151862675Y-108570889D01*
X151899131Y-108565500D01*
X152848406Y-108565500D01*
X152916527Y-108585502D01*
X152937501Y-108602405D01*
X153249847Y-108914751D01*
X153283873Y-108977063D01*
X153282459Y-109036456D01*
X153265458Y-109099907D01*
X153265457Y-109099910D01*
X153265457Y-109099913D01*
X153245502Y-109328000D01*
X153265457Y-109556087D01*
X153290414Y-109649226D01*
X153324715Y-109777240D01*
X153324717Y-109777246D01*
X153421477Y-109984749D01*
X153534486Y-110146143D01*
X153552802Y-110172300D01*
X153714700Y-110334198D01*
X153902251Y-110465523D01*
X154109757Y-110562284D01*
X154330913Y-110621543D01*
X154559000Y-110641498D01*
X154787087Y-110621543D01*
X155008243Y-110562284D01*
X155215749Y-110465523D01*
X155403300Y-110334198D01*
X155565198Y-110172300D01*
X155696523Y-109984749D01*
X155793284Y-109777243D01*
X155852543Y-109556087D01*
X155872498Y-109328000D01*
X155868357Y-109280672D01*
X155882346Y-109211069D01*
X155931746Y-109160076D01*
X156000872Y-109143886D01*
X156049205Y-109158564D01*
X156049682Y-109157464D01*
X156100251Y-109179347D01*
X156105585Y-109181959D01*
X156146940Y-109204695D01*
X156166562Y-109209733D01*
X156185263Y-109216135D01*
X156194311Y-109220051D01*
X156203852Y-109224180D01*
X156203853Y-109224180D01*
X156203855Y-109224181D01*
X156250477Y-109231564D01*
X156256262Y-109232763D01*
X156301970Y-109244500D01*
X156322224Y-109244500D01*
X156341934Y-109246051D01*
X156344141Y-109246400D01*
X156361943Y-109249220D01*
X156395870Y-109246012D01*
X156408917Y-109244780D01*
X156414850Y-109244500D01*
X159627275Y-109244500D01*
X159695396Y-109264502D01*
X159730488Y-109298229D01*
X159835080Y-109447601D01*
X159840471Y-109455300D01*
X160002369Y-109617198D01*
X160002372Y-109617200D01*
X160053195Y-109652787D01*
X160097523Y-109708244D01*
X160104832Y-109778864D01*
X160072801Y-109842224D01*
X160053195Y-109859213D01*
X160002372Y-109894799D01*
X160002366Y-109894804D01*
X159840473Y-110056697D01*
X159840468Y-110056703D01*
X159709146Y-110244250D01*
X159612386Y-110451753D01*
X159612384Y-110451759D01*
X159553126Y-110672913D01*
X159535039Y-110879654D01*
X159533171Y-110901000D01*
X159552438Y-111121217D01*
X159553126Y-111129086D01*
X159612384Y-111350240D01*
X159612386Y-111350246D01*
X159709146Y-111557749D01*
X159831783Y-111732893D01*
X159840471Y-111745300D01*
X160002369Y-111907198D01*
X160022796Y-111921501D01*
X160053195Y-111942787D01*
X160097523Y-111998244D01*
X160104832Y-112068864D01*
X160072801Y-112132224D01*
X160053195Y-112149213D01*
X160002372Y-112184799D01*
X160002366Y-112184804D01*
X159840473Y-112346697D01*
X159840468Y-112346703D01*
X159709146Y-112534250D01*
X159612386Y-112741753D01*
X159612384Y-112741759D01*
X159569613Y-112901383D01*
X159553126Y-112962913D01*
X159533171Y-113191000D01*
X159553126Y-113419087D01*
X159562713Y-113454866D01*
X159612384Y-113640240D01*
X159612386Y-113640246D01*
X159709146Y-113847749D01*
X159840468Y-114035296D01*
X159840473Y-114035302D01*
X159891576Y-114086405D01*
X159925602Y-114148717D01*
X159920537Y-114219532D01*
X159877990Y-114276368D01*
X159811470Y-114301179D01*
X159802481Y-114301500D01*
X156540394Y-114301500D01*
X156472273Y-114281498D01*
X156437181Y-114247771D01*
X156328800Y-114092988D01*
X156327198Y-114090700D01*
X156165300Y-113928802D01*
X156159123Y-113924477D01*
X155977749Y-113797477D01*
X155770246Y-113700717D01*
X155770240Y-113700715D01*
X155676771Y-113675670D01*
X155549087Y-113641457D01*
X155321000Y-113621502D01*
X155320999Y-113621502D01*
X155092913Y-113641457D01*
X154871759Y-113700715D01*
X154871753Y-113700717D01*
X154664250Y-113797477D01*
X154476703Y-113928799D01*
X154476697Y-113928804D01*
X154314804Y-114090697D01*
X154314799Y-114090703D01*
X154183477Y-114278250D01*
X154165195Y-114317457D01*
X154118278Y-114370742D01*
X154050001Y-114390203D01*
X153982041Y-114369661D01*
X153936805Y-114317457D01*
X153922093Y-114285907D01*
X153918523Y-114278251D01*
X153787198Y-114090700D01*
X153625300Y-113928802D01*
X153619123Y-113924477D01*
X153437749Y-113797477D01*
X153230246Y-113700717D01*
X153230240Y-113700715D01*
X153136771Y-113675670D01*
X153009087Y-113641457D01*
X152781000Y-113621502D01*
X152780999Y-113621502D01*
X152552913Y-113641457D01*
X152331759Y-113700715D01*
X152331753Y-113700717D01*
X152124250Y-113797477D01*
X151936703Y-113928799D01*
X151936697Y-113928804D01*
X151774804Y-114090697D01*
X151774799Y-114090703D01*
X151643477Y-114278250D01*
X151546717Y-114485753D01*
X151546715Y-114485759D01*
X151511000Y-114619049D01*
X151487457Y-114706913D01*
X151467502Y-114935000D01*
X151487457Y-115163087D01*
X151505908Y-115231947D01*
X151515539Y-115267889D01*
X151513849Y-115338866D01*
X151474055Y-115397661D01*
X151408790Y-115425609D01*
X151393832Y-115426500D01*
X150390113Y-115426500D01*
X150321992Y-115406498D01*
X150275499Y-115352842D01*
X150264592Y-115289521D01*
X150284498Y-115062000D01*
X150264543Y-114833913D01*
X150205284Y-114612757D01*
X150108523Y-114405251D01*
X149977198Y-114217700D01*
X149815300Y-114055802D01*
X149815244Y-114055763D01*
X149627749Y-113924477D01*
X149420246Y-113827717D01*
X149420240Y-113827715D01*
X149297706Y-113794882D01*
X149199087Y-113768457D01*
X148971000Y-113748502D01*
X148742913Y-113768457D01*
X148521759Y-113827715D01*
X148521753Y-113827717D01*
X148314250Y-113924477D01*
X148126703Y-114055799D01*
X148126697Y-114055804D01*
X147964804Y-114217697D01*
X147964799Y-114217703D01*
X147833477Y-114405250D01*
X147815195Y-114444457D01*
X147768278Y-114497742D01*
X147700001Y-114517203D01*
X147632041Y-114496661D01*
X147586805Y-114444457D01*
X147584894Y-114440359D01*
X147568523Y-114405251D01*
X147437198Y-114217700D01*
X147275300Y-114055802D01*
X147275244Y-114055763D01*
X147087749Y-113924477D01*
X146880246Y-113827717D01*
X146880240Y-113827715D01*
X146757706Y-113794882D01*
X146659087Y-113768457D01*
X146431000Y-113748502D01*
X146202913Y-113768457D01*
X145981759Y-113827715D01*
X145981753Y-113827717D01*
X145774250Y-113924477D01*
X145586703Y-114055799D01*
X145586697Y-114055804D01*
X145424804Y-114217697D01*
X145424799Y-114217703D01*
X145293477Y-114405250D01*
X145196717Y-114612753D01*
X145196715Y-114612759D01*
X145144467Y-114807750D01*
X145137457Y-114833913D01*
X145117502Y-115062000D01*
X145137457Y-115290087D01*
X145153429Y-115349696D01*
X145196715Y-115511240D01*
X145196717Y-115511246D01*
X145241273Y-115606796D01*
X145293477Y-115718749D01*
X145424802Y-115906300D01*
X145586700Y-116068198D01*
X145774251Y-116199523D01*
X145981757Y-116296284D01*
X146202913Y-116355543D01*
X146431000Y-116375498D01*
X146659087Y-116355543D01*
X146880243Y-116296284D01*
X147087749Y-116199523D01*
X147275300Y-116068198D01*
X147437198Y-115906300D01*
X147568523Y-115718749D01*
X147586804Y-115679543D01*
X147633721Y-115626258D01*
X147701998Y-115606796D01*
X147769958Y-115627337D01*
X147815195Y-115679543D01*
X147833477Y-115718749D01*
X147964802Y-115906300D01*
X148126700Y-116068198D01*
X148314251Y-116199523D01*
X148521757Y-116296284D01*
X148742913Y-116355543D01*
X148971000Y-116375498D01*
X149199087Y-116355543D01*
X149262541Y-116338540D01*
X149333516Y-116340228D01*
X149384247Y-116371151D01*
X149461753Y-116448657D01*
X149471720Y-116461097D01*
X149471947Y-116460910D01*
X149476999Y-116467017D01*
X149528095Y-116514999D01*
X149549225Y-116536130D01*
X149554768Y-116540430D01*
X149559281Y-116544285D01*
X149593679Y-116576586D01*
X149593680Y-116576586D01*
X149593682Y-116576588D01*
X149611429Y-116586344D01*
X149627959Y-116597202D01*
X149643959Y-116609613D01*
X149666925Y-116619551D01*
X149687251Y-116628347D01*
X149692585Y-116630959D01*
X149733940Y-116653695D01*
X149753562Y-116658733D01*
X149772263Y-116665135D01*
X149784814Y-116670567D01*
X149790852Y-116673180D01*
X149790853Y-116673180D01*
X149790855Y-116673181D01*
X149837477Y-116680564D01*
X149843262Y-116681763D01*
X149888970Y-116693500D01*
X149909224Y-116693500D01*
X149928934Y-116695051D01*
X149931141Y-116695400D01*
X149948943Y-116698220D01*
X149983472Y-116694956D01*
X149995917Y-116693780D01*
X150001850Y-116693500D01*
X164145147Y-116693500D01*
X164160988Y-116695249D01*
X164161016Y-116694956D01*
X164168902Y-116695700D01*
X164168909Y-116695702D01*
X164238958Y-116693500D01*
X164268856Y-116693500D01*
X164275818Y-116692619D01*
X164281719Y-116692154D01*
X164328889Y-116690673D01*
X164348347Y-116685019D01*
X164367694Y-116681013D01*
X164387797Y-116678474D01*
X164431679Y-116661099D01*
X164437274Y-116659183D01*
X164465816Y-116650891D01*
X164482591Y-116646019D01*
X164482595Y-116646017D01*
X164500026Y-116635708D01*
X164517780Y-116627009D01*
X164536617Y-116619552D01*
X164574786Y-116591818D01*
X164579744Y-116588562D01*
X164620362Y-116564542D01*
X164634685Y-116550218D01*
X164649724Y-116537374D01*
X164651431Y-116536134D01*
X164666107Y-116525472D01*
X164696193Y-116489103D01*
X164700161Y-116484741D01*
X166770326Y-114414576D01*
X166782761Y-114404615D01*
X166782574Y-114404388D01*
X166788678Y-114399336D01*
X166788687Y-114399331D01*
X166836668Y-114348235D01*
X166857804Y-114327100D01*
X166862106Y-114321552D01*
X166865936Y-114317066D01*
X166898255Y-114282652D01*
X166908008Y-114264909D01*
X166918862Y-114248382D01*
X166931283Y-114232372D01*
X166950028Y-114189050D01*
X166952627Y-114183746D01*
X166975364Y-114142391D01*
X166980402Y-114122765D01*
X166986806Y-114104063D01*
X166992589Y-114090700D01*
X166994850Y-114085476D01*
X167002230Y-114038878D01*
X167003431Y-114033071D01*
X167015169Y-113987361D01*
X167015169Y-113967105D01*
X167016720Y-113947394D01*
X167019889Y-113927388D01*
X167017298Y-113899982D01*
X167015449Y-113880411D01*
X167015169Y-113874479D01*
X167015169Y-110269849D01*
X167016918Y-110254012D01*
X167016624Y-110253985D01*
X167017370Y-110246092D01*
X167015169Y-110176059D01*
X167015169Y-110146151D01*
X167015169Y-110146144D01*
X167014289Y-110139185D01*
X167013824Y-110133280D01*
X167012342Y-110086110D01*
X167006691Y-110066663D01*
X167002681Y-110047300D01*
X167000900Y-110033197D01*
X167000143Y-110027203D01*
X166982768Y-109983320D01*
X166980848Y-109977711D01*
X166967687Y-109932407D01*
X166957374Y-109914969D01*
X166948679Y-109897222D01*
X166941221Y-109878383D01*
X166913490Y-109840215D01*
X166910231Y-109835255D01*
X166898799Y-109815924D01*
X166886211Y-109794637D01*
X166886210Y-109794635D01*
X166871887Y-109780312D01*
X166859046Y-109765279D01*
X166847140Y-109748892D01*
X166829917Y-109734644D01*
X166810777Y-109718810D01*
X166806405Y-109714831D01*
X166115820Y-109024246D01*
X166081794Y-108961934D01*
X166083208Y-108902541D01*
X166100212Y-108839087D01*
X166120167Y-108611000D01*
X166100212Y-108382913D01*
X166040953Y-108161757D01*
X165944192Y-107954251D01*
X165812867Y-107766700D01*
X165650969Y-107604802D01*
X165600141Y-107569212D01*
X165555814Y-107513757D01*
X165548505Y-107443137D01*
X165580535Y-107379777D01*
X165600137Y-107362790D01*
X165650969Y-107327198D01*
X165812867Y-107165300D01*
X165944192Y-106977749D01*
X166040953Y-106770243D01*
X166100212Y-106549087D01*
X166120167Y-106321000D01*
X166100212Y-106092913D01*
X166040953Y-105871757D01*
X165944192Y-105664251D01*
X165812867Y-105476700D01*
X165650969Y-105314802D01*
X165600141Y-105279212D01*
X165555814Y-105223757D01*
X165548505Y-105153137D01*
X165580535Y-105089777D01*
X165600137Y-105072790D01*
X165650969Y-105037198D01*
X165812867Y-104875300D01*
X165944192Y-104687749D01*
X166040953Y-104480243D01*
X166100212Y-104259087D01*
X166120167Y-104031000D01*
X166100212Y-103802913D01*
X166040953Y-103581757D01*
X165944192Y-103374251D01*
X165812867Y-103186700D01*
X165650969Y-103024802D01*
X165463418Y-102893477D01*
X165442558Y-102883750D01*
X165255915Y-102796717D01*
X165255909Y-102796715D01*
X165162440Y-102771670D01*
X165034756Y-102737457D01*
X164806669Y-102717502D01*
X164578582Y-102737457D01*
X164357428Y-102796715D01*
X164357417Y-102796719D01*
X164304263Y-102821505D01*
X164234071Y-102832166D01*
X164169258Y-102803185D01*
X164130403Y-102743765D01*
X164125495Y-102718302D01*
X164120212Y-102657913D01*
X164060953Y-102436757D01*
X163964192Y-102229251D01*
X163832867Y-102041700D01*
X163670969Y-101879802D01*
X163543134Y-101790291D01*
X163483418Y-101748477D01*
X163275915Y-101651717D01*
X163275909Y-101651715D01*
X163146978Y-101617168D01*
X163054756Y-101592457D01*
X162826669Y-101572502D01*
X162598582Y-101592457D01*
X162377428Y-101651715D01*
X162377422Y-101651717D01*
X162169919Y-101748477D01*
X161982372Y-101879799D01*
X161982366Y-101879804D01*
X161820473Y-102041697D01*
X161820468Y-102041703D01*
X161709382Y-102200350D01*
X161653925Y-102244678D01*
X161583305Y-102251987D01*
X161519945Y-102219956D01*
X161483960Y-102158755D01*
X161480169Y-102128079D01*
X161480169Y-101475523D01*
X161481918Y-101459681D01*
X161481625Y-101459654D01*
X161482369Y-101451768D01*
X161482371Y-101451761D01*
X161480169Y-101381697D01*
X161480169Y-101351813D01*
X161479289Y-101344851D01*
X161478825Y-101338962D01*
X161477343Y-101291780D01*
X161471686Y-101272311D01*
X161467681Y-101252967D01*
X161465143Y-101232872D01*
X161447769Y-101188991D01*
X161445850Y-101183385D01*
X161443148Y-101174086D01*
X161432687Y-101138076D01*
X161432686Y-101138075D01*
X161422375Y-101120639D01*
X161413679Y-101102890D01*
X161406221Y-101084052D01*
X161378481Y-101045872D01*
X161375233Y-101040927D01*
X161351211Y-101000307D01*
X161336883Y-100985979D01*
X161324053Y-100970958D01*
X161312141Y-100954562D01*
X161312138Y-100954560D01*
X161312138Y-100954559D01*
X161275776Y-100924477D01*
X161271395Y-100920491D01*
X156196911Y-95846006D01*
X160383209Y-95846006D01*
X160403026Y-96161007D01*
X160403028Y-96161024D01*
X160462173Y-96471067D01*
X160462176Y-96471080D01*
X160559708Y-96771254D01*
X160559713Y-96771266D01*
X160694107Y-97056869D01*
X160694109Y-97056872D01*
X160694112Y-97056878D01*
X160863231Y-97323368D01*
X161064432Y-97566578D01*
X161064435Y-97566580D01*
X161064436Y-97566582D01*
X161294529Y-97782654D01*
X161549890Y-97968184D01*
X161826490Y-98120247D01*
X162119967Y-98236443D01*
X162425694Y-98314940D01*
X162425702Y-98314941D01*
X162425701Y-98314941D01*
X162589798Y-98335670D01*
X162738848Y-98354500D01*
X162738852Y-98354500D01*
X163054486Y-98354500D01*
X163054490Y-98354500D01*
X163367644Y-98314940D01*
X163673371Y-98236443D01*
X163966848Y-98120247D01*
X164243448Y-97968184D01*
X164498809Y-97782654D01*
X164728902Y-97566582D01*
X164930101Y-97323375D01*
X164930103Y-97323370D01*
X164930106Y-97323368D01*
X165099225Y-97056878D01*
X165099231Y-97056869D01*
X165233625Y-96771266D01*
X165331164Y-96471072D01*
X165390310Y-96161020D01*
X165395837Y-96073172D01*
X165410129Y-95846006D01*
X165410129Y-95845993D01*
X165390311Y-95530992D01*
X165390309Y-95530975D01*
X165387053Y-95513905D01*
X165331164Y-95220928D01*
X165294945Y-95109457D01*
X165233629Y-94920745D01*
X165233624Y-94920732D01*
X165212534Y-94875913D01*
X165099231Y-94635131D01*
X165092161Y-94623990D01*
X164930106Y-94368631D01*
X164728905Y-94125421D01*
X164498808Y-93909345D01*
X164243450Y-93723817D01*
X164078455Y-93633110D01*
X163966848Y-93571753D01*
X163673371Y-93455557D01*
X163367644Y-93377060D01*
X163367639Y-93377059D01*
X163367634Y-93377058D01*
X163367636Y-93377058D01*
X163054504Y-93337501D01*
X163054493Y-93337500D01*
X163054490Y-93337500D01*
X162738848Y-93337500D01*
X162738845Y-93337500D01*
X162738833Y-93337501D01*
X162425702Y-93377058D01*
X162119970Y-93455556D01*
X162119968Y-93455556D01*
X162119967Y-93455557D01*
X161965538Y-93516700D01*
X161826490Y-93571753D01*
X161549887Y-93723817D01*
X161294530Y-93909345D01*
X161294529Y-93909345D01*
X161064432Y-94125421D01*
X160863231Y-94368631D01*
X160694112Y-94635121D01*
X160694105Y-94635135D01*
X160559713Y-94920732D01*
X160559708Y-94920745D01*
X160462176Y-95220919D01*
X160462173Y-95220932D01*
X160403028Y-95530975D01*
X160403026Y-95530992D01*
X160383209Y-95845993D01*
X160383209Y-95846006D01*
X156196911Y-95846006D01*
X155868151Y-95517246D01*
X155834125Y-95454934D01*
X155835539Y-95395541D01*
X155852543Y-95332087D01*
X155872498Y-95104000D01*
X155852543Y-94875913D01*
X155793284Y-94654757D01*
X155696523Y-94447251D01*
X155565198Y-94259700D01*
X155403300Y-94097802D01*
X155376165Y-94078802D01*
X155215749Y-93966477D01*
X155008246Y-93869717D01*
X155008240Y-93869715D01*
X154914771Y-93844670D01*
X154787087Y-93810457D01*
X154559000Y-93790502D01*
X154330913Y-93810457D01*
X154109759Y-93869715D01*
X154109753Y-93869717D01*
X153902250Y-93966477D01*
X153714703Y-94097799D01*
X153714697Y-94097804D01*
X153552804Y-94259697D01*
X153552799Y-94259703D01*
X153442819Y-94416771D01*
X153387362Y-94461099D01*
X153339606Y-94470500D01*
X151854698Y-94470500D01*
X151786577Y-94450498D01*
X151751485Y-94416771D01*
X151628200Y-94240703D01*
X151628195Y-94240697D01*
X151466302Y-94078804D01*
X151466296Y-94078799D01*
X151278749Y-93947477D01*
X151071246Y-93850717D01*
X151071240Y-93850715D01*
X150920995Y-93810457D01*
X150850087Y-93791457D01*
X150622000Y-93771502D01*
X150393913Y-93791457D01*
X150172759Y-93850715D01*
X150172753Y-93850717D01*
X149965250Y-93947477D01*
X149777703Y-94078799D01*
X149777697Y-94078804D01*
X149615804Y-94240697D01*
X149615799Y-94240703D01*
X149492515Y-94416771D01*
X149437058Y-94461099D01*
X149389302Y-94470500D01*
X147904394Y-94470500D01*
X147836273Y-94450498D01*
X147801181Y-94416771D01*
X147691200Y-94259703D01*
X147691195Y-94259697D01*
X147529302Y-94097804D01*
X147529296Y-94097799D01*
X147341749Y-93966477D01*
X147134246Y-93869717D01*
X147134240Y-93869715D01*
X147040771Y-93844670D01*
X146913087Y-93810457D01*
X146685000Y-93790502D01*
X146684999Y-93790502D01*
X146456913Y-93810457D01*
X146235759Y-93869715D01*
X146235753Y-93869717D01*
X146028250Y-93966477D01*
X145840703Y-94097799D01*
X145840697Y-94097804D01*
X145678804Y-94259697D01*
X145678799Y-94259703D01*
X145547477Y-94447250D01*
X145450717Y-94654753D01*
X145450715Y-94654759D01*
X145391456Y-94875912D01*
X145391457Y-94875913D01*
X145371502Y-95104000D01*
X145391457Y-95332087D01*
X145394096Y-95341934D01*
X145450715Y-95553240D01*
X145450717Y-95553246D01*
X145513204Y-95687250D01*
X145523865Y-95757442D01*
X145494885Y-95822255D01*
X145435465Y-95861111D01*
X145399009Y-95866500D01*
X142470854Y-95866500D01*
X142455012Y-95864750D01*
X142454985Y-95865044D01*
X142447092Y-95864297D01*
X142377029Y-95866500D01*
X142347144Y-95866500D01*
X142347140Y-95866500D01*
X142347129Y-95866501D01*
X142340190Y-95867377D01*
X142334277Y-95867843D01*
X142287111Y-95869325D01*
X142267650Y-95874979D01*
X142248304Y-95878985D01*
X142228204Y-95881525D01*
X142228203Y-95881525D01*
X142184335Y-95898893D01*
X142178720Y-95900815D01*
X142133413Y-95913978D01*
X142133404Y-95913982D01*
X142115962Y-95924297D01*
X142098215Y-95932991D01*
X142079383Y-95940447D01*
X142079381Y-95940448D01*
X142041214Y-95968178D01*
X142036254Y-95971436D01*
X141995636Y-95995459D01*
X141995633Y-95995461D01*
X141981312Y-96009783D01*
X141966283Y-96022619D01*
X141949893Y-96034527D01*
X141919808Y-96070892D01*
X141915812Y-96075282D01*
X141527593Y-96463501D01*
X141465283Y-96497525D01*
X141394468Y-96492461D01*
X141337632Y-96449914D01*
X141312821Y-96383394D01*
X141312500Y-96374405D01*
X141312500Y-96234367D01*
X141312499Y-96234350D01*
X141305990Y-96173803D01*
X141305988Y-96173795D01*
X141254889Y-96036797D01*
X141254887Y-96036792D01*
X141167261Y-95919738D01*
X141050207Y-95832112D01*
X141050202Y-95832110D01*
X140913204Y-95781011D01*
X140913196Y-95781009D01*
X140852649Y-95774500D01*
X140852638Y-95774500D01*
X139055362Y-95774500D01*
X139055350Y-95774500D01*
X138994803Y-95781009D01*
X138994795Y-95781011D01*
X138857797Y-95832110D01*
X138857792Y-95832112D01*
X138759509Y-95905687D01*
X138692989Y-95930498D01*
X138623615Y-95915407D01*
X138608491Y-95905687D01*
X138510207Y-95832112D01*
X138510202Y-95832110D01*
X138373204Y-95781011D01*
X138373196Y-95781009D01*
X138312649Y-95774500D01*
X138312638Y-95774500D01*
X136515362Y-95774500D01*
X136515350Y-95774500D01*
X136454803Y-95781009D01*
X136454795Y-95781011D01*
X136317797Y-95832110D01*
X136317792Y-95832112D01*
X136219509Y-95905687D01*
X136152989Y-95930498D01*
X136083615Y-95915407D01*
X136068491Y-95905687D01*
X135970207Y-95832112D01*
X135970202Y-95832110D01*
X135833204Y-95781011D01*
X135833196Y-95781009D01*
X135772649Y-95774500D01*
X135772638Y-95774500D01*
X133975362Y-95774500D01*
X133975350Y-95774500D01*
X133914803Y-95781009D01*
X133914795Y-95781011D01*
X133777797Y-95832110D01*
X133777792Y-95832112D01*
X133679509Y-95905687D01*
X133612989Y-95930498D01*
X133543615Y-95915407D01*
X133528491Y-95905687D01*
X133430207Y-95832112D01*
X133430202Y-95832110D01*
X133293204Y-95781011D01*
X133293196Y-95781009D01*
X133232649Y-95774500D01*
X133232638Y-95774500D01*
X131435362Y-95774500D01*
X131435350Y-95774500D01*
X131374803Y-95781009D01*
X131374795Y-95781011D01*
X131237797Y-95832110D01*
X131237792Y-95832112D01*
X131139509Y-95905687D01*
X131072989Y-95930498D01*
X131003615Y-95915407D01*
X130988491Y-95905687D01*
X130890207Y-95832112D01*
X130890202Y-95832110D01*
X130753204Y-95781011D01*
X130753196Y-95781009D01*
X130692649Y-95774500D01*
X130692638Y-95774500D01*
X128895362Y-95774500D01*
X128895350Y-95774500D01*
X128834803Y-95781009D01*
X128834795Y-95781011D01*
X128697797Y-95832110D01*
X128697793Y-95832112D01*
X128599507Y-95905688D01*
X128532987Y-95930498D01*
X128463613Y-95915406D01*
X128448490Y-95905687D01*
X128350207Y-95832112D01*
X128350202Y-95832110D01*
X128213204Y-95781011D01*
X128213196Y-95781009D01*
X128152649Y-95774500D01*
X128152638Y-95774500D01*
X126355362Y-95774500D01*
X126355350Y-95774500D01*
X126294803Y-95781009D01*
X126294795Y-95781011D01*
X126157797Y-95832110D01*
X126157792Y-95832112D01*
X126059509Y-95905687D01*
X125992989Y-95930498D01*
X125923615Y-95915407D01*
X125908491Y-95905687D01*
X125810207Y-95832112D01*
X125810202Y-95832110D01*
X125673204Y-95781011D01*
X125673196Y-95781009D01*
X125612649Y-95774500D01*
X125612638Y-95774500D01*
X123815362Y-95774500D01*
X123815350Y-95774500D01*
X123754803Y-95781009D01*
X123754795Y-95781011D01*
X123617797Y-95832110D01*
X123617792Y-95832112D01*
X123519509Y-95905687D01*
X123452989Y-95930498D01*
X123383615Y-95915407D01*
X123368491Y-95905687D01*
X123270207Y-95832112D01*
X123270202Y-95832110D01*
X123133204Y-95781011D01*
X123133196Y-95781009D01*
X123072649Y-95774500D01*
X123072638Y-95774500D01*
X121275362Y-95774500D01*
X121275350Y-95774500D01*
X121214803Y-95781009D01*
X121214795Y-95781011D01*
X121077797Y-95832110D01*
X121077792Y-95832112D01*
X120979509Y-95905687D01*
X120912989Y-95930498D01*
X120843615Y-95915407D01*
X120828491Y-95905687D01*
X120730207Y-95832112D01*
X120730202Y-95832110D01*
X120593204Y-95781011D01*
X120593196Y-95781009D01*
X120532649Y-95774500D01*
X120532638Y-95774500D01*
X118735362Y-95774500D01*
X118735350Y-95774500D01*
X118674803Y-95781009D01*
X118674795Y-95781011D01*
X118537797Y-95832110D01*
X118537793Y-95832112D01*
X118439507Y-95905688D01*
X118372987Y-95930498D01*
X118303613Y-95915406D01*
X118288490Y-95905687D01*
X118190207Y-95832112D01*
X118190202Y-95832110D01*
X118053204Y-95781011D01*
X118053196Y-95781009D01*
X117992649Y-95774500D01*
X117992638Y-95774500D01*
X116195362Y-95774500D01*
X116195350Y-95774500D01*
X116134803Y-95781009D01*
X116134795Y-95781011D01*
X115997797Y-95832110D01*
X115997792Y-95832112D01*
X115899509Y-95905687D01*
X115832989Y-95930498D01*
X115763615Y-95915407D01*
X115748491Y-95905687D01*
X115650207Y-95832112D01*
X115650202Y-95832110D01*
X115513204Y-95781011D01*
X115513196Y-95781009D01*
X115452649Y-95774500D01*
X115452638Y-95774500D01*
X113655362Y-95774500D01*
X113655350Y-95774500D01*
X113594803Y-95781009D01*
X113594795Y-95781011D01*
X113457797Y-95832110D01*
X113457793Y-95832112D01*
X113359507Y-95905688D01*
X113292987Y-95930498D01*
X113223613Y-95915406D01*
X113208490Y-95905687D01*
X113110207Y-95832112D01*
X113110202Y-95832110D01*
X112973204Y-95781011D01*
X112973196Y-95781009D01*
X112912649Y-95774500D01*
X112912638Y-95774500D01*
X111115362Y-95774500D01*
X111115350Y-95774500D01*
X111054803Y-95781009D01*
X111054795Y-95781011D01*
X110917797Y-95832110D01*
X110917792Y-95832112D01*
X110819509Y-95905687D01*
X110752989Y-95930498D01*
X110683615Y-95915407D01*
X110668491Y-95905687D01*
X110570207Y-95832112D01*
X110570202Y-95832110D01*
X110433204Y-95781011D01*
X110433196Y-95781009D01*
X110372649Y-95774500D01*
X110372638Y-95774500D01*
X108575362Y-95774500D01*
X108575350Y-95774500D01*
X108514803Y-95781009D01*
X108514795Y-95781011D01*
X108377797Y-95832110D01*
X108377792Y-95832112D01*
X108279509Y-95905687D01*
X108212989Y-95930498D01*
X108143615Y-95915407D01*
X108128491Y-95905687D01*
X108030207Y-95832112D01*
X108030202Y-95832110D01*
X107893204Y-95781011D01*
X107893196Y-95781009D01*
X107832649Y-95774500D01*
X107832638Y-95774500D01*
X106035362Y-95774500D01*
X106035350Y-95774500D01*
X105974803Y-95781009D01*
X105974795Y-95781011D01*
X105837797Y-95832110D01*
X105837792Y-95832112D01*
X105739509Y-95905687D01*
X105672989Y-95930498D01*
X105603615Y-95915407D01*
X105588491Y-95905687D01*
X105490207Y-95832112D01*
X105490202Y-95832110D01*
X105353204Y-95781011D01*
X105353196Y-95781009D01*
X105292649Y-95774500D01*
X105292638Y-95774500D01*
X103590264Y-95774500D01*
X103522143Y-95754498D01*
X103475650Y-95700842D01*
X103465546Y-95630568D01*
X103495040Y-95565988D01*
X103537014Y-95534305D01*
X103545074Y-95530546D01*
X103613749Y-95498523D01*
X103801300Y-95367198D01*
X103963198Y-95205300D01*
X104094523Y-95017749D01*
X104191284Y-94810243D01*
X104250543Y-94589087D01*
X104270498Y-94361000D01*
X104250543Y-94132913D01*
X104191284Y-93911757D01*
X104094523Y-93704251D01*
X103963198Y-93516700D01*
X103801300Y-93354802D01*
X103776590Y-93337500D01*
X103613749Y-93223477D01*
X103406246Y-93126717D01*
X103406240Y-93126715D01*
X103312771Y-93101670D01*
X103185087Y-93067457D01*
X102957000Y-93047502D01*
X102956999Y-93047502D01*
X102728913Y-93067457D01*
X102507759Y-93126715D01*
X102507753Y-93126717D01*
X102300250Y-93223477D01*
X102112703Y-93354799D01*
X102112697Y-93354804D01*
X101950804Y-93516697D01*
X101950799Y-93516703D01*
X101819477Y-93704250D01*
X101722717Y-93911753D01*
X101722715Y-93911759D01*
X101672866Y-94097799D01*
X101663457Y-94132913D01*
X101643502Y-94361000D01*
X101663457Y-94589087D01*
X101672809Y-94623990D01*
X101722715Y-94810240D01*
X101722717Y-94810246D01*
X101790245Y-94955061D01*
X101819477Y-95017749D01*
X101950802Y-95205300D01*
X102112700Y-95367198D01*
X102300251Y-95498523D01*
X102340403Y-95517246D01*
X102376986Y-95534305D01*
X102430271Y-95581222D01*
X102449732Y-95649499D01*
X102429190Y-95717459D01*
X102375168Y-95763525D01*
X102323736Y-95774500D01*
X100955350Y-95774500D01*
X100894803Y-95781009D01*
X100894795Y-95781011D01*
X100757797Y-95832110D01*
X100757792Y-95832112D01*
X100659509Y-95905687D01*
X100592989Y-95930498D01*
X100523615Y-95915407D01*
X100508491Y-95905687D01*
X100410207Y-95832112D01*
X100410202Y-95832110D01*
X100273204Y-95781011D01*
X100273196Y-95781009D01*
X100212649Y-95774500D01*
X100212638Y-95774500D01*
X98589081Y-95774500D01*
X98520960Y-95754498D01*
X98474467Y-95700842D01*
X98464363Y-95630568D01*
X98493857Y-95565988D01*
X98535831Y-95534305D01*
X98613497Y-95498088D01*
X98684888Y-95448099D01*
X98684888Y-95448097D01*
X97996518Y-94759727D01*
X98082148Y-94746165D01*
X98195045Y-94688641D01*
X98284641Y-94599045D01*
X98342165Y-94486148D01*
X98355727Y-94400518D01*
X99044097Y-95088888D01*
X99044099Y-95088888D01*
X99094088Y-95017497D01*
X99190811Y-94810073D01*
X99190813Y-94810068D01*
X99250048Y-94589002D01*
X99269995Y-94361000D01*
X99250048Y-94132997D01*
X99190813Y-93911931D01*
X99190811Y-93911926D01*
X99094086Y-93704498D01*
X99044100Y-93633110D01*
X99044098Y-93633110D01*
X98355727Y-94321481D01*
X98342165Y-94235852D01*
X98284641Y-94122955D01*
X98195045Y-94033359D01*
X98082148Y-93975835D01*
X97996517Y-93962272D01*
X98684888Y-93273899D01*
X98684888Y-93273898D01*
X98613501Y-93223913D01*
X98406073Y-93127188D01*
X98406068Y-93127186D01*
X98185000Y-93067951D01*
X98185004Y-93067951D01*
X97957000Y-93048004D01*
X97728997Y-93067951D01*
X97507931Y-93127186D01*
X97507926Y-93127188D01*
X97300500Y-93223913D01*
X97229109Y-93273900D01*
X97917481Y-93962272D01*
X97831852Y-93975835D01*
X97718955Y-94033359D01*
X97629359Y-94122955D01*
X97571835Y-94235852D01*
X97558272Y-94321481D01*
X96869900Y-93633109D01*
X96819910Y-93704503D01*
X96819902Y-93704519D01*
X96819896Y-93704524D01*
X96816757Y-93709008D01*
X96815855Y-93708376D01*
X96768513Y-93753506D01*
X96698798Y-93766934D01*
X96632890Y-93740539D01*
X96605098Y-93708464D01*
X96604679Y-93708758D01*
X96601840Y-93704704D01*
X96601673Y-93704511D01*
X96601521Y-93704248D01*
X96470200Y-93516703D01*
X96470195Y-93516697D01*
X96308302Y-93354804D01*
X96308296Y-93354799D01*
X96120749Y-93223477D01*
X95913246Y-93126717D01*
X95913240Y-93126715D01*
X95819771Y-93101670D01*
X95692087Y-93067457D01*
X95464000Y-93047502D01*
X95235913Y-93067457D01*
X95014759Y-93126715D01*
X95014753Y-93126717D01*
X94807250Y-93223477D01*
X94619703Y-93354799D01*
X94619697Y-93354804D01*
X94457804Y-93516697D01*
X94457799Y-93516703D01*
X94326477Y-93704250D01*
X94229717Y-93911753D01*
X94229715Y-93911759D01*
X94179866Y-94097799D01*
X94170457Y-94132913D01*
X94150502Y-94361000D01*
X94170457Y-94589087D01*
X94179809Y-94623990D01*
X94229715Y-94810240D01*
X94229717Y-94810246D01*
X94297245Y-94955061D01*
X94326477Y-95017749D01*
X94457802Y-95205300D01*
X94619700Y-95367198D01*
X94619703Y-95367200D01*
X94807252Y-95498524D01*
X94885058Y-95534805D01*
X94938344Y-95581722D01*
X94957805Y-95649999D01*
X94937264Y-95717959D01*
X94883241Y-95764025D01*
X94831809Y-95775000D01*
X94488000Y-95775000D01*
X94488000Y-98488331D01*
X94379161Y-98438627D01*
X94270473Y-98423000D01*
X94197527Y-98423000D01*
X94088839Y-98438627D01*
X93980000Y-98488331D01*
X93980000Y-95775000D01*
X93335402Y-95775000D01*
X93274906Y-95781505D01*
X93138035Y-95832555D01*
X93039924Y-95906000D01*
X92973404Y-95930810D01*
X92904030Y-95915718D01*
X92888907Y-95905999D01*
X92790207Y-95832112D01*
X92790202Y-95832110D01*
X92653204Y-95781011D01*
X92653196Y-95781009D01*
X92592649Y-95774500D01*
X92592638Y-95774500D01*
X92579517Y-95774500D01*
X92511396Y-95754498D01*
X92464903Y-95700842D01*
X92454799Y-95630568D01*
X92454847Y-95630243D01*
X92457340Y-95613217D01*
X92457341Y-95613211D01*
X92454542Y-95581222D01*
X92452740Y-95560614D01*
X92452500Y-95555121D01*
X92452500Y-95546819D01*
X92448652Y-95513905D01*
X92448652Y-95513904D01*
X92441887Y-95436574D01*
X92441885Y-95436570D01*
X92440403Y-95429388D01*
X92440469Y-95429374D01*
X92438837Y-95422012D01*
X92438772Y-95422028D01*
X92437080Y-95414890D01*
X92410526Y-95341934D01*
X92407263Y-95332086D01*
X92386114Y-95268262D01*
X92386109Y-95268255D01*
X92383012Y-95261611D01*
X92383074Y-95261581D01*
X92379788Y-95254795D01*
X92379728Y-95254826D01*
X92376433Y-95248265D01*
X92333766Y-95183394D01*
X92293031Y-95117351D01*
X92293030Y-95117349D01*
X92293027Y-95117346D01*
X92288478Y-95111592D01*
X92288531Y-95111549D01*
X92283766Y-95105700D01*
X92283715Y-95105744D01*
X92278998Y-95100122D01*
X92222518Y-95046837D01*
X92051594Y-94875913D01*
X91799668Y-94623987D01*
X91765645Y-94561677D01*
X91763245Y-94523912D01*
X91771614Y-94428251D01*
X91777498Y-94361000D01*
X91757543Y-94132913D01*
X91698284Y-93911757D01*
X91601523Y-93704251D01*
X91470198Y-93516700D01*
X91308300Y-93354802D01*
X91283590Y-93337500D01*
X91120749Y-93223477D01*
X90913246Y-93126717D01*
X90913240Y-93126715D01*
X90819771Y-93101670D01*
X90692087Y-93067457D01*
X90464000Y-93047502D01*
X90235913Y-93067457D01*
X90014759Y-93126715D01*
X90014753Y-93126717D01*
X89807250Y-93223477D01*
X89619703Y-93354799D01*
X89619697Y-93354804D01*
X89457804Y-93516697D01*
X89457799Y-93516703D01*
X89326477Y-93704250D01*
X89229717Y-93911753D01*
X89229715Y-93911759D01*
X89179866Y-94097799D01*
X89170457Y-94132913D01*
X89150502Y-94361000D01*
X88442500Y-94361000D01*
X88442500Y-93601058D01*
X88442635Y-93596937D01*
X88447894Y-93516700D01*
X88460269Y-93327901D01*
X88461341Y-93319752D01*
X88513540Y-93057324D01*
X88515670Y-93049374D01*
X88601674Y-92796015D01*
X88604822Y-92788416D01*
X88723168Y-92548434D01*
X88727270Y-92541329D01*
X88875924Y-92318853D01*
X88880928Y-92312331D01*
X89057349Y-92111161D01*
X89063161Y-92105349D01*
X89264331Y-91928928D01*
X89270853Y-91923924D01*
X89493329Y-91775270D01*
X89500434Y-91771168D01*
X89740416Y-91652822D01*
X89748015Y-91649674D01*
X90001374Y-91563670D01*
X90009324Y-91561540D01*
X90271750Y-91509341D01*
X90279901Y-91508269D01*
X90548941Y-91490634D01*
X90553060Y-91490500D01*
X90567408Y-91490500D01*
X166988592Y-91490500D01*
X167002940Y-91490500D01*
X167007058Y-91490634D01*
G37*
%TD.AperFunction*%
%TD*%
M02*
