G04 #@! TF.GenerationSoftware,KiCad,Pcbnew,(5.1.6-0-10_14)*
G04 #@! TF.CreationDate,2021-03-09T17:02:30+01:00*
G04 #@! TF.ProjectId,cpu_backplane,6370755f-6261-4636-9b70-6c616e652e6b,rev?*
G04 #@! TF.SameCoordinates,Original*
G04 #@! TF.FileFunction,Paste,Bot*
G04 #@! TF.FilePolarity,Positive*
%FSLAX46Y46*%
G04 Gerber Fmt 4.6, Leading zero omitted, Abs format (unit mm)*
G04 Created by KiCad (PCBNEW (5.1.6-0-10_14)) date 2021-03-09 17:02:30*
%MOMM*%
%LPD*%
G01*
G04 APERTURE LIST*
G04 APERTURE END LIST*
G04 #@! TO.C,R23*
G36*
G01*
X137154500Y-72003499D02*
X137154500Y-72903501D01*
G75*
G02*
X136904501Y-73153500I-249999J0D01*
G01*
X136254499Y-73153500D01*
G75*
G02*
X136004500Y-72903501I0J249999D01*
G01*
X136004500Y-72003499D01*
G75*
G02*
X136254499Y-71753500I249999J0D01*
G01*
X136904501Y-71753500D01*
G75*
G02*
X137154500Y-72003499I0J-249999D01*
G01*
G37*
G36*
G01*
X139204500Y-72003499D02*
X139204500Y-72903501D01*
G75*
G02*
X138954501Y-73153500I-249999J0D01*
G01*
X138304499Y-73153500D01*
G75*
G02*
X138054500Y-72903501I0J249999D01*
G01*
X138054500Y-72003499D01*
G75*
G02*
X138304499Y-71753500I249999J0D01*
G01*
X138954501Y-71753500D01*
G75*
G02*
X139204500Y-72003499I0J-249999D01*
G01*
G37*
G04 #@! TD*
G04 #@! TO.C,R22*
G36*
G01*
X138741999Y-48710000D02*
X139642001Y-48710000D01*
G75*
G02*
X139892000Y-48959999I0J-249999D01*
G01*
X139892000Y-49610001D01*
G75*
G02*
X139642001Y-49860000I-249999J0D01*
G01*
X138741999Y-49860000D01*
G75*
G02*
X138492000Y-49610001I0J249999D01*
G01*
X138492000Y-48959999D01*
G75*
G02*
X138741999Y-48710000I249999J0D01*
G01*
G37*
G36*
G01*
X138741999Y-46660000D02*
X139642001Y-46660000D01*
G75*
G02*
X139892000Y-46909999I0J-249999D01*
G01*
X139892000Y-47560001D01*
G75*
G02*
X139642001Y-47810000I-249999J0D01*
G01*
X138741999Y-47810000D01*
G75*
G02*
X138492000Y-47560001I0J249999D01*
G01*
X138492000Y-46909999D01*
G75*
G02*
X138741999Y-46660000I249999J0D01*
G01*
G37*
G04 #@! TD*
G04 #@! TO.C,R21*
G36*
G01*
X126041999Y-48710000D02*
X126942001Y-48710000D01*
G75*
G02*
X127192000Y-48959999I0J-249999D01*
G01*
X127192000Y-49610001D01*
G75*
G02*
X126942001Y-49860000I-249999J0D01*
G01*
X126041999Y-49860000D01*
G75*
G02*
X125792000Y-49610001I0J249999D01*
G01*
X125792000Y-48959999D01*
G75*
G02*
X126041999Y-48710000I249999J0D01*
G01*
G37*
G36*
G01*
X126041999Y-46660000D02*
X126942001Y-46660000D01*
G75*
G02*
X127192000Y-46909999I0J-249999D01*
G01*
X127192000Y-47560001D01*
G75*
G02*
X126942001Y-47810000I-249999J0D01*
G01*
X126041999Y-47810000D01*
G75*
G02*
X125792000Y-47560001I0J249999D01*
G01*
X125792000Y-46909999D01*
G75*
G02*
X126041999Y-46660000I249999J0D01*
G01*
G37*
G04 #@! TD*
G04 #@! TO.C,R20*
G36*
G01*
X147951500Y-86365501D02*
X147951500Y-85465499D01*
G75*
G02*
X148201499Y-85215500I249999J0D01*
G01*
X148851501Y-85215500D01*
G75*
G02*
X149101500Y-85465499I0J-249999D01*
G01*
X149101500Y-86365501D01*
G75*
G02*
X148851501Y-86615500I-249999J0D01*
G01*
X148201499Y-86615500D01*
G75*
G02*
X147951500Y-86365501I0J249999D01*
G01*
G37*
G36*
G01*
X145901500Y-86365501D02*
X145901500Y-85465499D01*
G75*
G02*
X146151499Y-85215500I249999J0D01*
G01*
X146801501Y-85215500D01*
G75*
G02*
X147051500Y-85465499I0J-249999D01*
G01*
X147051500Y-86365501D01*
G75*
G02*
X146801501Y-86615500I-249999J0D01*
G01*
X146151499Y-86615500D01*
G75*
G02*
X145901500Y-86365501I0J249999D01*
G01*
G37*
G04 #@! TD*
G04 #@! TO.C,R19*
G36*
G01*
X147897000Y-89032501D02*
X147897000Y-88132499D01*
G75*
G02*
X148146999Y-87882500I249999J0D01*
G01*
X148797001Y-87882500D01*
G75*
G02*
X149047000Y-88132499I0J-249999D01*
G01*
X149047000Y-89032501D01*
G75*
G02*
X148797001Y-89282500I-249999J0D01*
G01*
X148146999Y-89282500D01*
G75*
G02*
X147897000Y-89032501I0J249999D01*
G01*
G37*
G36*
G01*
X145847000Y-89032501D02*
X145847000Y-88132499D01*
G75*
G02*
X146096999Y-87882500I249999J0D01*
G01*
X146747001Y-87882500D01*
G75*
G02*
X146997000Y-88132499I0J-249999D01*
G01*
X146997000Y-89032501D01*
G75*
G02*
X146747001Y-89282500I-249999J0D01*
G01*
X146096999Y-89282500D01*
G75*
G02*
X145847000Y-89032501I0J249999D01*
G01*
G37*
G04 #@! TD*
G04 #@! TO.C,C16*
G36*
G01*
X104063500Y-93990000D02*
X104063500Y-95240000D01*
G75*
G02*
X103813500Y-95490000I-250000J0D01*
G01*
X102888500Y-95490000D01*
G75*
G02*
X102638500Y-95240000I0J250000D01*
G01*
X102638500Y-93990000D01*
G75*
G02*
X102888500Y-93740000I250000J0D01*
G01*
X103813500Y-93740000D01*
G75*
G02*
X104063500Y-93990000I0J-250000D01*
G01*
G37*
G36*
G01*
X107038500Y-93990000D02*
X107038500Y-95240000D01*
G75*
G02*
X106788500Y-95490000I-250000J0D01*
G01*
X105863500Y-95490000D01*
G75*
G02*
X105613500Y-95240000I0J250000D01*
G01*
X105613500Y-93990000D01*
G75*
G02*
X105863500Y-93740000I250000J0D01*
G01*
X106788500Y-93740000D01*
G75*
G02*
X107038500Y-93990000I0J-250000D01*
G01*
G37*
G04 #@! TD*
G04 #@! TO.C,C15*
G36*
G01*
X124637500Y-40650000D02*
X124637500Y-41900000D01*
G75*
G02*
X124387500Y-42150000I-250000J0D01*
G01*
X123462500Y-42150000D01*
G75*
G02*
X123212500Y-41900000I0J250000D01*
G01*
X123212500Y-40650000D01*
G75*
G02*
X123462500Y-40400000I250000J0D01*
G01*
X124387500Y-40400000D01*
G75*
G02*
X124637500Y-40650000I0J-250000D01*
G01*
G37*
G36*
G01*
X127612500Y-40650000D02*
X127612500Y-41900000D01*
G75*
G02*
X127362500Y-42150000I-250000J0D01*
G01*
X126437500Y-42150000D01*
G75*
G02*
X126187500Y-41900000I0J250000D01*
G01*
X126187500Y-40650000D01*
G75*
G02*
X126437500Y-40400000I250000J0D01*
G01*
X127362500Y-40400000D01*
G75*
G02*
X127612500Y-40650000I0J-250000D01*
G01*
G37*
G04 #@! TD*
G04 #@! TO.C,C12*
G36*
G01*
X106222500Y-20076000D02*
X106222500Y-21326000D01*
G75*
G02*
X105972500Y-21576000I-250000J0D01*
G01*
X105047500Y-21576000D01*
G75*
G02*
X104797500Y-21326000I0J250000D01*
G01*
X104797500Y-20076000D01*
G75*
G02*
X105047500Y-19826000I250000J0D01*
G01*
X105972500Y-19826000D01*
G75*
G02*
X106222500Y-20076000I0J-250000D01*
G01*
G37*
G36*
G01*
X109197500Y-20076000D02*
X109197500Y-21326000D01*
G75*
G02*
X108947500Y-21576000I-250000J0D01*
G01*
X108022500Y-21576000D01*
G75*
G02*
X107772500Y-21326000I0J250000D01*
G01*
X107772500Y-20076000D01*
G75*
G02*
X108022500Y-19826000I250000J0D01*
G01*
X108947500Y-19826000D01*
G75*
G02*
X109197500Y-20076000I0J-250000D01*
G01*
G37*
G04 #@! TD*
G04 #@! TO.C,C9*
G36*
G01*
X126819500Y-35763500D02*
X128069500Y-35763500D01*
G75*
G02*
X128319500Y-36013500I0J-250000D01*
G01*
X128319500Y-36938500D01*
G75*
G02*
X128069500Y-37188500I-250000J0D01*
G01*
X126819500Y-37188500D01*
G75*
G02*
X126569500Y-36938500I0J250000D01*
G01*
X126569500Y-36013500D01*
G75*
G02*
X126819500Y-35763500I250000J0D01*
G01*
G37*
G36*
G01*
X126819500Y-32788500D02*
X128069500Y-32788500D01*
G75*
G02*
X128319500Y-33038500I0J-250000D01*
G01*
X128319500Y-33963500D01*
G75*
G02*
X128069500Y-34213500I-250000J0D01*
G01*
X126819500Y-34213500D01*
G75*
G02*
X126569500Y-33963500I0J250000D01*
G01*
X126569500Y-33038500D01*
G75*
G02*
X126819500Y-32788500I250000J0D01*
G01*
G37*
G04 #@! TD*
G04 #@! TO.C,C5*
G36*
G01*
X139687000Y-76972000D02*
X139687000Y-78222000D01*
G75*
G02*
X139437000Y-78472000I-250000J0D01*
G01*
X138512000Y-78472000D01*
G75*
G02*
X138262000Y-78222000I0J250000D01*
G01*
X138262000Y-76972000D01*
G75*
G02*
X138512000Y-76722000I250000J0D01*
G01*
X139437000Y-76722000D01*
G75*
G02*
X139687000Y-76972000I0J-250000D01*
G01*
G37*
G36*
G01*
X142662000Y-76972000D02*
X142662000Y-78222000D01*
G75*
G02*
X142412000Y-78472000I-250000J0D01*
G01*
X141487000Y-78472000D01*
G75*
G02*
X141237000Y-78222000I0J250000D01*
G01*
X141237000Y-76972000D01*
G75*
G02*
X141487000Y-76722000I250000J0D01*
G01*
X142412000Y-76722000D01*
G75*
G02*
X142662000Y-76972000I0J-250000D01*
G01*
G37*
G04 #@! TD*
G04 #@! TO.C,C2*
G36*
G01*
X17853500Y-87135000D02*
X19103500Y-87135000D01*
G75*
G02*
X19353500Y-87385000I0J-250000D01*
G01*
X19353500Y-88310000D01*
G75*
G02*
X19103500Y-88560000I-250000J0D01*
G01*
X17853500Y-88560000D01*
G75*
G02*
X17603500Y-88310000I0J250000D01*
G01*
X17603500Y-87385000D01*
G75*
G02*
X17853500Y-87135000I250000J0D01*
G01*
G37*
G36*
G01*
X17853500Y-84160000D02*
X19103500Y-84160000D01*
G75*
G02*
X19353500Y-84410000I0J-250000D01*
G01*
X19353500Y-85335000D01*
G75*
G02*
X19103500Y-85585000I-250000J0D01*
G01*
X17853500Y-85585000D01*
G75*
G02*
X17603500Y-85335000I0J250000D01*
G01*
X17603500Y-84410000D01*
G75*
G02*
X17853500Y-84160000I250000J0D01*
G01*
G37*
G04 #@! TD*
G04 #@! TO.C,C5*
G36*
G01*
X56401000Y-73777000D02*
X56401000Y-72527000D01*
G75*
G02*
X56651000Y-72277000I250000J0D01*
G01*
X57576000Y-72277000D01*
G75*
G02*
X57826000Y-72527000I0J-250000D01*
G01*
X57826000Y-73777000D01*
G75*
G02*
X57576000Y-74027000I-250000J0D01*
G01*
X56651000Y-74027000D01*
G75*
G02*
X56401000Y-73777000I0J250000D01*
G01*
G37*
G36*
G01*
X53426000Y-73777000D02*
X53426000Y-72527000D01*
G75*
G02*
X53676000Y-72277000I250000J0D01*
G01*
X54601000Y-72277000D01*
G75*
G02*
X54851000Y-72527000I0J-250000D01*
G01*
X54851000Y-73777000D01*
G75*
G02*
X54601000Y-74027000I-250000J0D01*
G01*
X53676000Y-74027000D01*
G75*
G02*
X53426000Y-73777000I0J250000D01*
G01*
G37*
G04 #@! TD*
G04 #@! TO.C,C4*
G36*
G01*
X71641000Y-75872500D02*
X71641000Y-74622500D01*
G75*
G02*
X71891000Y-74372500I250000J0D01*
G01*
X72816000Y-74372500D01*
G75*
G02*
X73066000Y-74622500I0J-250000D01*
G01*
X73066000Y-75872500D01*
G75*
G02*
X72816000Y-76122500I-250000J0D01*
G01*
X71891000Y-76122500D01*
G75*
G02*
X71641000Y-75872500I0J250000D01*
G01*
G37*
G36*
G01*
X68666000Y-75872500D02*
X68666000Y-74622500D01*
G75*
G02*
X68916000Y-74372500I250000J0D01*
G01*
X69841000Y-74372500D01*
G75*
G02*
X70091000Y-74622500I0J-250000D01*
G01*
X70091000Y-75872500D01*
G75*
G02*
X69841000Y-76122500I-250000J0D01*
G01*
X68916000Y-76122500D01*
G75*
G02*
X68666000Y-75872500I0J250000D01*
G01*
G37*
G04 #@! TD*
G04 #@! TO.C,R14*
G36*
G01*
X89477000Y-39439001D02*
X89477000Y-38538999D01*
G75*
G02*
X89726999Y-38289000I249999J0D01*
G01*
X90377001Y-38289000D01*
G75*
G02*
X90627000Y-38538999I0J-249999D01*
G01*
X90627000Y-39439001D01*
G75*
G02*
X90377001Y-39689000I-249999J0D01*
G01*
X89726999Y-39689000D01*
G75*
G02*
X89477000Y-39439001I0J249999D01*
G01*
G37*
G36*
G01*
X87427000Y-39439001D02*
X87427000Y-38538999D01*
G75*
G02*
X87676999Y-38289000I249999J0D01*
G01*
X88327001Y-38289000D01*
G75*
G02*
X88577000Y-38538999I0J-249999D01*
G01*
X88577000Y-39439001D01*
G75*
G02*
X88327001Y-39689000I-249999J0D01*
G01*
X87676999Y-39689000D01*
G75*
G02*
X87427000Y-39439001I0J249999D01*
G01*
G37*
G04 #@! TD*
G04 #@! TO.C,C14*
G36*
G01*
X95237000Y-93990000D02*
X95237000Y-95240000D01*
G75*
G02*
X94987000Y-95490000I-250000J0D01*
G01*
X94062000Y-95490000D01*
G75*
G02*
X93812000Y-95240000I0J250000D01*
G01*
X93812000Y-93990000D01*
G75*
G02*
X94062000Y-93740000I250000J0D01*
G01*
X94987000Y-93740000D01*
G75*
G02*
X95237000Y-93990000I0J-250000D01*
G01*
G37*
G36*
G01*
X98212000Y-93990000D02*
X98212000Y-95240000D01*
G75*
G02*
X97962000Y-95490000I-250000J0D01*
G01*
X97037000Y-95490000D01*
G75*
G02*
X96787000Y-95240000I0J250000D01*
G01*
X96787000Y-93990000D01*
G75*
G02*
X97037000Y-93740000I250000J0D01*
G01*
X97962000Y-93740000D01*
G75*
G02*
X98212000Y-93990000I0J-250000D01*
G01*
G37*
G04 #@! TD*
G04 #@! TO.C,R13*
G36*
G01*
X59112999Y-87318000D02*
X60013001Y-87318000D01*
G75*
G02*
X60263000Y-87567999I0J-249999D01*
G01*
X60263000Y-88218001D01*
G75*
G02*
X60013001Y-88468000I-249999J0D01*
G01*
X59112999Y-88468000D01*
G75*
G02*
X58863000Y-88218001I0J249999D01*
G01*
X58863000Y-87567999D01*
G75*
G02*
X59112999Y-87318000I249999J0D01*
G01*
G37*
G36*
G01*
X59112999Y-85268000D02*
X60013001Y-85268000D01*
G75*
G02*
X60263000Y-85517999I0J-249999D01*
G01*
X60263000Y-86168001D01*
G75*
G02*
X60013001Y-86418000I-249999J0D01*
G01*
X59112999Y-86418000D01*
G75*
G02*
X58863000Y-86168001I0J249999D01*
G01*
X58863000Y-85517999D01*
G75*
G02*
X59112999Y-85268000I249999J0D01*
G01*
G37*
G04 #@! TD*
G04 #@! TO.C,R12*
G36*
G01*
X54032999Y-87318000D02*
X54933001Y-87318000D01*
G75*
G02*
X55183000Y-87567999I0J-249999D01*
G01*
X55183000Y-88218001D01*
G75*
G02*
X54933001Y-88468000I-249999J0D01*
G01*
X54032999Y-88468000D01*
G75*
G02*
X53783000Y-88218001I0J249999D01*
G01*
X53783000Y-87567999D01*
G75*
G02*
X54032999Y-87318000I249999J0D01*
G01*
G37*
G36*
G01*
X54032999Y-85268000D02*
X54933001Y-85268000D01*
G75*
G02*
X55183000Y-85517999I0J-249999D01*
G01*
X55183000Y-86168001D01*
G75*
G02*
X54933001Y-86418000I-249999J0D01*
G01*
X54032999Y-86418000D01*
G75*
G02*
X53783000Y-86168001I0J249999D01*
G01*
X53783000Y-85517999D01*
G75*
G02*
X54032999Y-85268000I249999J0D01*
G01*
G37*
G04 #@! TD*
G04 #@! TO.C,R11*
G36*
G01*
X48952999Y-87318000D02*
X49853001Y-87318000D01*
G75*
G02*
X50103000Y-87567999I0J-249999D01*
G01*
X50103000Y-88218001D01*
G75*
G02*
X49853001Y-88468000I-249999J0D01*
G01*
X48952999Y-88468000D01*
G75*
G02*
X48703000Y-88218001I0J249999D01*
G01*
X48703000Y-87567999D01*
G75*
G02*
X48952999Y-87318000I249999J0D01*
G01*
G37*
G36*
G01*
X48952999Y-85268000D02*
X49853001Y-85268000D01*
G75*
G02*
X50103000Y-85517999I0J-249999D01*
G01*
X50103000Y-86168001D01*
G75*
G02*
X49853001Y-86418000I-249999J0D01*
G01*
X48952999Y-86418000D01*
G75*
G02*
X48703000Y-86168001I0J249999D01*
G01*
X48703000Y-85517999D01*
G75*
G02*
X48952999Y-85268000I249999J0D01*
G01*
G37*
G04 #@! TD*
G04 #@! TO.C,R10*
G36*
G01*
X43872999Y-87318000D02*
X44773001Y-87318000D01*
G75*
G02*
X45023000Y-87567999I0J-249999D01*
G01*
X45023000Y-88218001D01*
G75*
G02*
X44773001Y-88468000I-249999J0D01*
G01*
X43872999Y-88468000D01*
G75*
G02*
X43623000Y-88218001I0J249999D01*
G01*
X43623000Y-87567999D01*
G75*
G02*
X43872999Y-87318000I249999J0D01*
G01*
G37*
G36*
G01*
X43872999Y-85268000D02*
X44773001Y-85268000D01*
G75*
G02*
X45023000Y-85517999I0J-249999D01*
G01*
X45023000Y-86168001D01*
G75*
G02*
X44773001Y-86418000I-249999J0D01*
G01*
X43872999Y-86418000D01*
G75*
G02*
X43623000Y-86168001I0J249999D01*
G01*
X43623000Y-85517999D01*
G75*
G02*
X43872999Y-85268000I249999J0D01*
G01*
G37*
G04 #@! TD*
G04 #@! TO.C,R8*
G36*
G01*
X89477000Y-52139001D02*
X89477000Y-51238999D01*
G75*
G02*
X89726999Y-50989000I249999J0D01*
G01*
X90377001Y-50989000D01*
G75*
G02*
X90627000Y-51238999I0J-249999D01*
G01*
X90627000Y-52139001D01*
G75*
G02*
X90377001Y-52389000I-249999J0D01*
G01*
X89726999Y-52389000D01*
G75*
G02*
X89477000Y-52139001I0J249999D01*
G01*
G37*
G36*
G01*
X87427000Y-52139001D02*
X87427000Y-51238999D01*
G75*
G02*
X87676999Y-50989000I249999J0D01*
G01*
X88327001Y-50989000D01*
G75*
G02*
X88577000Y-51238999I0J-249999D01*
G01*
X88577000Y-52139001D01*
G75*
G02*
X88327001Y-52389000I-249999J0D01*
G01*
X87676999Y-52389000D01*
G75*
G02*
X87427000Y-52139001I0J249999D01*
G01*
G37*
G04 #@! TD*
G04 #@! TO.C,R7*
G36*
G01*
X89477000Y-64839001D02*
X89477000Y-63938999D01*
G75*
G02*
X89726999Y-63689000I249999J0D01*
G01*
X90377001Y-63689000D01*
G75*
G02*
X90627000Y-63938999I0J-249999D01*
G01*
X90627000Y-64839001D01*
G75*
G02*
X90377001Y-65089000I-249999J0D01*
G01*
X89726999Y-65089000D01*
G75*
G02*
X89477000Y-64839001I0J249999D01*
G01*
G37*
G36*
G01*
X87427000Y-64839001D02*
X87427000Y-63938999D01*
G75*
G02*
X87676999Y-63689000I249999J0D01*
G01*
X88327001Y-63689000D01*
G75*
G02*
X88577000Y-63938999I0J-249999D01*
G01*
X88577000Y-64839001D01*
G75*
G02*
X88327001Y-65089000I-249999J0D01*
G01*
X87676999Y-65089000D01*
G75*
G02*
X87427000Y-64839001I0J249999D01*
G01*
G37*
G04 #@! TD*
G04 #@! TO.C,R6*
G36*
G01*
X128581999Y-48710000D02*
X129482001Y-48710000D01*
G75*
G02*
X129732000Y-48959999I0J-249999D01*
G01*
X129732000Y-49610001D01*
G75*
G02*
X129482001Y-49860000I-249999J0D01*
G01*
X128581999Y-49860000D01*
G75*
G02*
X128332000Y-49610001I0J249999D01*
G01*
X128332000Y-48959999D01*
G75*
G02*
X128581999Y-48710000I249999J0D01*
G01*
G37*
G36*
G01*
X128581999Y-46660000D02*
X129482001Y-46660000D01*
G75*
G02*
X129732000Y-46909999I0J-249999D01*
G01*
X129732000Y-47560001D01*
G75*
G02*
X129482001Y-47810000I-249999J0D01*
G01*
X128581999Y-47810000D01*
G75*
G02*
X128332000Y-47560001I0J249999D01*
G01*
X128332000Y-46909999D01*
G75*
G02*
X128581999Y-46660000I249999J0D01*
G01*
G37*
G04 #@! TD*
G04 #@! TO.C,R5*
G36*
G01*
X131121999Y-48710000D02*
X132022001Y-48710000D01*
G75*
G02*
X132272000Y-48959999I0J-249999D01*
G01*
X132272000Y-49610001D01*
G75*
G02*
X132022001Y-49860000I-249999J0D01*
G01*
X131121999Y-49860000D01*
G75*
G02*
X130872000Y-49610001I0J249999D01*
G01*
X130872000Y-48959999D01*
G75*
G02*
X131121999Y-48710000I249999J0D01*
G01*
G37*
G36*
G01*
X131121999Y-46660000D02*
X132022001Y-46660000D01*
G75*
G02*
X132272000Y-46909999I0J-249999D01*
G01*
X132272000Y-47560001D01*
G75*
G02*
X132022001Y-47810000I-249999J0D01*
G01*
X131121999Y-47810000D01*
G75*
G02*
X130872000Y-47560001I0J249999D01*
G01*
X130872000Y-46909999D01*
G75*
G02*
X131121999Y-46660000I249999J0D01*
G01*
G37*
G04 #@! TD*
G04 #@! TO.C,R4*
G36*
G01*
X133661999Y-48710000D02*
X134562001Y-48710000D01*
G75*
G02*
X134812000Y-48959999I0J-249999D01*
G01*
X134812000Y-49610001D01*
G75*
G02*
X134562001Y-49860000I-249999J0D01*
G01*
X133661999Y-49860000D01*
G75*
G02*
X133412000Y-49610001I0J249999D01*
G01*
X133412000Y-48959999D01*
G75*
G02*
X133661999Y-48710000I249999J0D01*
G01*
G37*
G36*
G01*
X133661999Y-46660000D02*
X134562001Y-46660000D01*
G75*
G02*
X134812000Y-46909999I0J-249999D01*
G01*
X134812000Y-47560001D01*
G75*
G02*
X134562001Y-47810000I-249999J0D01*
G01*
X133661999Y-47810000D01*
G75*
G02*
X133412000Y-47560001I0J249999D01*
G01*
X133412000Y-46909999D01*
G75*
G02*
X133661999Y-46660000I249999J0D01*
G01*
G37*
G04 #@! TD*
G04 #@! TO.C,R3*
G36*
G01*
X136201999Y-48710000D02*
X137102001Y-48710000D01*
G75*
G02*
X137352000Y-48959999I0J-249999D01*
G01*
X137352000Y-49610001D01*
G75*
G02*
X137102001Y-49860000I-249999J0D01*
G01*
X136201999Y-49860000D01*
G75*
G02*
X135952000Y-49610001I0J249999D01*
G01*
X135952000Y-48959999D01*
G75*
G02*
X136201999Y-48710000I249999J0D01*
G01*
G37*
G36*
G01*
X136201999Y-46660000D02*
X137102001Y-46660000D01*
G75*
G02*
X137352000Y-46909999I0J-249999D01*
G01*
X137352000Y-47560001D01*
G75*
G02*
X137102001Y-47810000I-249999J0D01*
G01*
X136201999Y-47810000D01*
G75*
G02*
X135952000Y-47560001I0J249999D01*
G01*
X135952000Y-46909999D01*
G75*
G02*
X136201999Y-46660000I249999J0D01*
G01*
G37*
G04 #@! TD*
G04 #@! TO.C,R1*
G36*
G01*
X89477000Y-49599001D02*
X89477000Y-48698999D01*
G75*
G02*
X89726999Y-48449000I249999J0D01*
G01*
X90377001Y-48449000D01*
G75*
G02*
X90627000Y-48698999I0J-249999D01*
G01*
X90627000Y-49599001D01*
G75*
G02*
X90377001Y-49849000I-249999J0D01*
G01*
X89726999Y-49849000D01*
G75*
G02*
X89477000Y-49599001I0J249999D01*
G01*
G37*
G36*
G01*
X87427000Y-49599001D02*
X87427000Y-48698999D01*
G75*
G02*
X87676999Y-48449000I249999J0D01*
G01*
X88327001Y-48449000D01*
G75*
G02*
X88577000Y-48698999I0J-249999D01*
G01*
X88577000Y-49599001D01*
G75*
G02*
X88327001Y-49849000I-249999J0D01*
G01*
X87676999Y-49849000D01*
G75*
G02*
X87427000Y-49599001I0J249999D01*
G01*
G37*
G04 #@! TD*
M02*
