M48
; DRILL file {KiCad (5.1.6-0-10_14)} date Monday, March 08, 2021 at 10:49:56 PM
; FORMAT={-:-/ absolute / inch / decimal}
; #@! TF.CreationDate,2021-03-08T22:49:56+01:00
; #@! TF.GenerationSoftware,Kicad,Pcbnew,(5.1.6-0-10_14)
FMAT,2
INCH
T1C0.0118
T2C0.0157
T3C0.0236
T4C0.0315
T5C0.0335
T6C0.0394
T7C0.0433
T8C0.1260
%
G90
G05
T1
X0.7777Y-1.6667
X0.87Y-2.6025
X0.985Y-1.675
X1.48Y-1.6
X1.48Y-1.665
X1.5215Y-2.7247
X1.5575Y-2.735
X1.5825Y-2.7625
X1.5875Y-2.5963
X1.6055Y-2.7308
X1.685Y-1.85
X1.6925Y-1.7054
X1.9675Y-2.7175
X2.1218Y-2.6622
X2.1307Y-2.632
X2.1527Y-2.1813
X2.1529Y-2.6543
X2.1646Y-1.7054
X2.1646Y-1.85
X2.1796Y-2.1246
X2.1913Y-1.1814
X2.195Y-1.67
X2.2Y-2.58
X2.475Y-2.98
X2.5075Y-3.3075
X2.5424Y-3.3076
X2.5546Y-3.05
X2.5855Y-3.3159
X2.5964Y-3.2863
X2.612Y-3.259
X2.639Y-3.239
X2.795Y-3.455
X2.825Y-1.3436
X2.9325Y-2.59
X2.99Y-3.43
X3.3022Y-1.695
X3.325Y-1.4754
X3.3354Y-3.2825
X3.3414Y-3.3986
X3.4671Y-1.1325
X3.595Y-1.4675
X3.7012Y-2.5738
X3.7025Y-2.5
X3.7718Y-1.5856
X3.7725Y-2.88
X3.7925Y-1.48
X3.7932Y-3.7807
X3.8025Y-1.165
X3.8061Y-2.5305
X3.8086Y-2.8788
X3.811Y-0.9823
X3.8152Y-1.2
X3.8175Y-0.21
X3.823Y-2.1664
X3.8275Y-2.29
X3.8298Y-2.2375
X3.8331Y-0.9514
X3.8423Y-1.8771
X3.8489Y-0.874
X3.861Y-0.9367
X3.8699Y-1.5052
X3.8775Y-2.1325
X3.8875Y-1.8875
X3.8963Y-0.9024
X3.8975Y-0.625
X3.9002Y-1.6998
X3.905Y-0.8721
X3.9154Y-0.8109
X3.9154Y-0.8424
X3.9322Y-1.7337
X3.9325Y-0.735
X3.935Y-1.3775
X3.935Y-1.64
X3.9482Y-1.5871
X3.9882Y-2.2343
X4.0193Y-1.8768
X4.0234Y-2.2084
X4.035Y-2.5325
X4.038Y-2.1766
X4.0677Y-2.9258
X4.07Y-2.1775
X4.0748Y-2.9677
X4.0825Y-2.5484
X4.11Y-2.1775
X4.1125Y-1.9853
X4.1125Y-3.0225
X4.1138Y-1.6867
X4.114Y-1.5994
X4.115Y-2.5759
X4.1179Y-1.7954
X4.1315Y-2.0353
X4.1363Y-2.0977
X4.1368Y-1.5566
X4.1368Y-1.9071
X4.1368Y-1.94
X4.1415Y-2.0664
X4.1417Y-2.5888
X4.1525Y-1.415
X4.1536Y-1.6605
X4.1627Y-2.1154
X4.1684Y-2.6019
X4.1686Y-1.4925
X4.1738Y-1.3362
X4.1875Y-1.25
X4.1944Y-2.1089
X4.1971Y-2.613
X4.2039Y-3.0079
X4.2075Y-1.17
X4.2191Y-2.1254
X4.2287Y-1.0913
X4.235Y-3.0325
X4.2403Y-2.7026
X4.2517Y-2.1254
X4.2577Y-2.0963
X4.2625Y-3.765
X4.2646Y-2.6799
X4.3125Y-2.6991
X4.3566Y-2.6825
X4.4043Y-2.6825
X4.405Y-2.2025
X4.4294Y-2.144
X4.4298Y-1.8455
X4.445Y-2.0825
X4.4587Y-2.0547
X4.47Y-2.6991
X4.4905Y-1.9137
X4.4909Y-2.1337
X4.4968Y-1.0277
X4.5056Y-2.1786
X4.5215Y-2.1131
X4.5263Y-2.1423
X4.5383Y-1.1265
X4.5399Y-2.6978
X4.5502Y-2.1614
X4.5509Y-2.1927
X4.5599Y-1.2074
X4.56Y-2.65
X4.5786Y-1.2911
X4.5806Y-2.194
X4.594Y-1.3858
X4.6237Y-1.4885
X4.625Y-2.6991
X4.6262Y-2.184
X4.6266Y-1.709
X4.6375Y-1.7922
X4.6625Y-2.6991
X4.7144Y-1.0881
X4.7225Y-2.9975
X4.7229Y-1.5125
X4.73Y-1.8025
X4.7348Y-1.6005
X4.7377Y-1.7323
X4.7466Y-1.4853
X4.7525Y-1.86
X4.7529Y-1.6774
X4.7661Y-1.8086
X4.7825Y-1.48
X4.7991Y-1.635
X4.8Y-0.9375
X4.8031Y-1.2157
X4.8106Y-1.282
X4.8109Y-1.4476
X4.8149Y-0.8949
X4.8253Y-1.0575
X4.8292Y-3.7396
X4.8325Y-0.7625
X4.8325Y-0.8125
X4.833Y-1.5973
X4.835Y-1.7566
X4.8365Y-2.711
X4.84Y-0.855
X4.8534Y-0.9229
X4.8555Y-1.6775
X4.88Y-1.5725
X4.895Y-2.1425
X4.93Y-1.7594
X4.9637Y-1.7965
X4.975Y-0.615
X5.02Y-3.7
X5.1775Y-3.7525
X5.23Y-3.5975
X5.2761Y-3.6236
X5.3225Y-1.69
X5.4Y-0.615
X5.4975Y-1.4953
X5.7293Y-2.9518
X5.7305Y-2.633
X5.7305Y-1.8905
T2
X0.33Y-1.2264
X0.7Y-1.3436
X0.7275Y-3.3425
X1.04Y-1.2264
X1.22Y-3.45
X1.41Y-1.3486
X1.745Y-1.2264
X1.745Y-3.38
X1.945Y-3.38
X2.12Y-1.3486
X2.135Y-2.865
X2.145Y-3.38
X2.345Y-3.38
X2.455Y-1.2314
X2.62Y-3.645
X2.62Y-3.795
X2.825Y-1.3436
X3.035Y-3.0025
X3.4125Y-3.0025
X3.465Y-1.39
X3.465Y-2.7175
X3.535Y-1.3436
X3.545Y-1.935
X3.5454Y-2.035
X3.5454Y-2.535
X3.8386Y-3.725
X4.0689Y-3.725
X4.155Y-0.125
X5.0175Y-1.435
X5.03Y-1.8596
X5.3304Y-1.8596
X5.765Y-3.3825
X5.7675Y-3.4875
T4
X4.07Y-0.1325
X4.07Y-0.2325
X4.07Y-0.3325
X4.07Y-0.4325
X4.07Y-0.5325
X4.07Y-0.6325
X4.07Y-0.7325
X4.07Y-0.8325
X4.07Y-0.9325
X4.07Y-1.0325
X4.07Y-1.1325
X4.07Y-1.2325
X4.07Y-1.3325
X4.07Y-1.4325
X4.07Y-1.5325
X4.07Y-1.6325
X4.07Y-1.7325
X4.07Y-1.8325
X4.07Y-1.9325
X4.07Y-2.0325
X4.67Y-0.1325
X4.67Y-0.2325
X4.67Y-0.3325
X4.67Y-0.4325
X4.67Y-0.5325
X4.67Y-0.6325
X4.67Y-0.7325
X4.67Y-0.8325
X4.67Y-0.9325
X4.67Y-1.0325
X4.67Y-1.1325
X4.67Y-1.2325
X4.67Y-1.3325
X4.67Y-1.4325
X4.67Y-1.5325
X4.67Y-1.6325
X4.67Y-1.7325
X4.67Y-1.8325
X4.67Y-1.9325
X4.67Y-2.0325
X5.22Y-0.135
X5.22Y-0.235
X5.22Y-0.335
X5.22Y-0.435
X5.22Y-0.535
X5.22Y-0.635
X5.22Y-0.735
X5.22Y-0.835
X5.22Y-0.935
X5.22Y-1.035
X5.22Y-1.135
X5.22Y-1.235
X5.22Y-1.335
X5.22Y-1.435
X5.52Y-0.135
X5.52Y-0.235
X5.52Y-0.335
X5.52Y-0.435
X5.52Y-0.535
X5.52Y-0.635
X5.52Y-0.735
X5.52Y-0.835
X5.52Y-0.935
X5.52Y-1.035
X5.52Y-1.135
X5.52Y-1.235
X5.52Y-1.335
X5.52Y-1.435
X4.92Y-0.135
X4.92Y-0.235
X4.92Y-0.335
X4.92Y-0.435
X4.92Y-0.535
X4.92Y-0.635
X4.92Y-0.735
X4.92Y-0.835
X4.92Y-0.935
X4.92Y-1.035
X4.92Y-1.135
X4.92Y-1.235
X4.92Y-1.335
X4.92Y-1.435
X5.52Y-0.135
X5.52Y-0.235
X5.52Y-0.335
X5.52Y-0.435
X5.52Y-0.535
X5.52Y-0.635
X5.52Y-0.735
X5.52Y-0.835
X5.52Y-0.935
X5.52Y-1.035
X5.52Y-1.135
X5.52Y-1.235
X5.52Y-1.335
X5.52Y-1.435
X0.6175Y-3.35
X0.6175Y-3.4484
X4.07Y-3.225
X4.07Y-3.825
X4.17Y-3.225
X4.17Y-3.825
X4.27Y-3.225
X4.27Y-3.825
X4.37Y-3.225
X4.37Y-3.825
X4.47Y-3.225
X4.47Y-3.825
X4.57Y-3.225
X4.57Y-3.825
X4.67Y-3.225
X4.67Y-3.825
X4.77Y-3.225
X4.77Y-3.825
X4.87Y-3.225
X4.87Y-3.825
X4.97Y-3.225
X4.97Y-3.825
X5.07Y-3.225
X5.07Y-3.825
X5.17Y-3.225
X5.17Y-3.825
X5.27Y-3.225
X5.27Y-3.825
X5.37Y-3.225
X5.37Y-3.825
X2.73Y-2.8625
X2.73Y-3.1625
X3.03Y-2.8625
X3.03Y-3.1625
X0.965Y-3.645
X0.965Y-3.771
X1.0634Y-3.645
X1.0634Y-3.771
X1.1619Y-3.645
X1.1619Y-3.771
X2.745Y-3.525
X2.745Y-3.825
X2.845Y-3.525
X2.845Y-3.825
X2.945Y-3.525
X2.945Y-3.825
X3.045Y-3.525
X3.045Y-3.825
X3.145Y-3.525
X3.145Y-3.825
X3.245Y-3.525
X3.245Y-3.825
X3.345Y-3.525
X3.345Y-3.825
X3.445Y-3.525
X3.445Y-3.825
X3.545Y-3.525
X3.545Y-3.825
X3.645Y-3.525
X3.645Y-3.825
X3.745Y-3.525
X3.745Y-3.825
X3.845Y-3.525
X3.845Y-3.825
X4.88Y-1.735
X4.88Y-2.035
X4.98Y-1.735
X4.98Y-2.035
X5.08Y-1.735
X5.08Y-2.035
X5.18Y-1.735
X5.18Y-2.035
X5.28Y-1.735
X5.28Y-2.035
X5.38Y-1.735
X5.38Y-2.035
X5.48Y-1.735
X5.48Y-2.035
X5.58Y-1.735
X5.58Y-2.035
X5.68Y-1.735
X5.68Y-2.035
X5.78Y-1.735
X5.78Y-2.035
T5
X0.1651Y-3.3241
X0.1651Y-3.5209
T6
X0.8204Y-0.135
X0.8204Y-0.235
X0.8204Y-0.335
X0.8204Y-0.435
X0.8204Y-0.535
X0.8204Y-0.635
X0.8204Y-0.735
X0.8204Y-0.835
X0.8204Y-0.935
X0.8204Y-1.035
X0.8204Y-1.135
X0.8204Y-1.235
X0.8204Y-1.335
X0.8204Y-1.435
X0.8204Y-1.535
X0.8204Y-1.635
X0.8204Y-1.735
X0.8204Y-1.835
X0.8204Y-1.935
X0.8204Y-2.035
X0.8204Y-2.135
X0.8204Y-2.235
X0.8204Y-2.335
X0.8204Y-2.435
X0.8204Y-2.535
X0.9204Y-0.135
X0.9204Y-0.235
X0.9204Y-0.335
X0.9204Y-0.435
X0.9204Y-0.535
X0.9204Y-0.635
X0.9204Y-0.735
X0.9204Y-0.835
X0.9204Y-0.935
X0.9204Y-1.035
X0.9204Y-1.135
X0.9204Y-1.235
X0.9204Y-1.335
X0.9204Y-1.435
X0.9204Y-1.535
X0.9204Y-1.635
X0.9204Y-1.735
X0.9204Y-1.835
X0.9204Y-1.935
X0.9204Y-2.035
X0.9204Y-2.135
X0.9204Y-2.235
X0.9204Y-2.335
X0.9204Y-2.435
X0.9204Y-2.535
X1.8675Y-2.8325
X1.8675Y-2.9325
X1.9675Y-2.8325
X1.9675Y-2.9325
X0.1117Y-0.135
X0.1117Y-0.235
X0.1117Y-0.335
X0.1117Y-0.435
X0.1117Y-0.535
X0.1117Y-0.635
X0.1117Y-0.735
X0.1117Y-0.835
X0.1117Y-0.935
X0.1117Y-1.035
X0.1117Y-1.135
X0.1117Y-1.235
X0.1117Y-1.335
X0.1117Y-1.435
X0.1117Y-1.535
X0.1117Y-1.635
X0.1117Y-1.735
X0.1117Y-1.835
X0.1117Y-1.935
X0.1117Y-2.035
X0.1117Y-2.135
X0.1117Y-2.235
X0.1117Y-2.335
X0.1117Y-2.435
X0.1117Y-2.535
X0.2117Y-0.135
X0.2117Y-0.235
X0.2117Y-0.335
X0.2117Y-0.435
X0.2117Y-0.535
X0.2117Y-0.635
X0.2117Y-0.735
X0.2117Y-0.835
X0.2117Y-0.935
X0.2117Y-1.035
X0.2117Y-1.135
X0.2117Y-1.235
X0.2117Y-1.335
X0.2117Y-1.435
X0.2117Y-1.535
X0.2117Y-1.635
X0.2117Y-1.735
X0.2117Y-1.835
X0.2117Y-1.935
X0.2117Y-2.035
X0.2117Y-2.135
X0.2117Y-2.235
X0.2117Y-2.335
X0.2117Y-2.435
X0.2117Y-2.535
X2.2377Y-0.135
X2.2377Y-0.235
X2.2377Y-0.335
X2.2377Y-0.435
X2.2377Y-0.535
X2.2377Y-0.635
X2.2377Y-0.735
X2.2377Y-0.835
X2.2377Y-0.935
X2.2377Y-1.035
X2.2377Y-1.135
X2.2377Y-1.235
X2.2377Y-1.335
X2.2377Y-1.435
X2.2377Y-1.535
X2.2377Y-1.635
X2.2377Y-1.735
X2.2377Y-1.835
X2.2377Y-1.935
X2.2377Y-2.035
X2.2377Y-2.135
X2.2377Y-2.235
X2.2377Y-2.335
X2.2377Y-2.435
X2.2377Y-2.535
X2.3377Y-0.135
X2.3377Y-0.235
X2.3377Y-0.335
X2.3377Y-0.435
X2.3377Y-0.535
X2.3377Y-0.635
X2.3377Y-0.735
X2.3377Y-0.835
X2.3377Y-0.935
X2.3377Y-1.035
X2.3377Y-1.135
X2.3377Y-1.235
X2.3377Y-1.335
X2.3377Y-1.435
X2.3377Y-1.535
X2.3377Y-1.635
X2.3377Y-1.735
X2.3377Y-1.835
X2.3377Y-1.935
X2.3377Y-2.035
X2.3377Y-2.135
X2.3377Y-2.235
X2.3377Y-2.335
X2.3377Y-2.435
X2.3377Y-2.535
X2.9463Y-0.135
X2.9463Y-0.235
X2.9463Y-0.335
X2.9463Y-0.435
X2.9463Y-0.535
X2.9463Y-0.635
X2.9463Y-0.735
X2.9463Y-0.835
X2.9463Y-0.935
X2.9463Y-1.035
X2.9463Y-1.135
X2.9463Y-1.235
X2.9463Y-1.335
X2.9463Y-1.435
X2.9463Y-1.535
X2.9463Y-1.635
X2.9463Y-1.735
X2.9463Y-1.835
X2.9463Y-1.935
X2.9463Y-2.035
X2.9463Y-2.135
X2.9463Y-2.235
X2.9463Y-2.335
X2.9463Y-2.435
X2.9463Y-2.535
X3.0463Y-0.135
X3.0463Y-0.235
X3.0463Y-0.335
X3.0463Y-0.435
X3.0463Y-0.535
X3.0463Y-0.635
X3.0463Y-0.735
X3.0463Y-0.835
X3.0463Y-0.935
X3.0463Y-1.035
X3.0463Y-1.135
X3.0463Y-1.235
X3.0463Y-1.335
X3.0463Y-1.435
X3.0463Y-1.535
X3.0463Y-1.635
X3.0463Y-1.735
X3.0463Y-1.835
X3.0463Y-1.935
X3.0463Y-2.035
X3.0463Y-2.135
X3.0463Y-2.235
X3.0463Y-2.335
X3.0463Y-2.435
X3.0463Y-2.535
X4.17Y-2.3575
X4.17Y-2.9575
X4.27Y-2.3575
X4.27Y-2.9575
X4.37Y-2.3575
X4.37Y-2.9575
X4.47Y-2.3575
X4.47Y-2.9575
X4.57Y-2.3575
X4.57Y-2.9575
X4.67Y-2.3575
X4.67Y-2.9575
X4.77Y-2.3575
X4.77Y-2.9575
X4.87Y-2.3575
X4.87Y-2.9575
X4.97Y-2.3575
X4.97Y-2.9575
X5.07Y-2.3575
X5.07Y-2.9575
X5.17Y-2.3575
X5.17Y-2.9575
X5.27Y-2.3575
X5.27Y-2.9575
X5.37Y-2.3575
X5.37Y-2.9575
X5.47Y-2.3575
X5.47Y-2.9575
X3.655Y-0.135
X3.655Y-0.235
X3.655Y-0.335
X3.655Y-0.435
X3.655Y-0.535
X3.655Y-0.635
X3.655Y-0.735
X3.655Y-0.835
X3.655Y-0.935
X3.655Y-1.035
X3.655Y-1.135
X3.655Y-1.235
X3.655Y-1.335
X3.655Y-1.435
X3.655Y-1.535
X3.655Y-1.635
X3.655Y-1.735
X3.655Y-1.835
X3.655Y-1.935
X3.655Y-2.035
X3.655Y-2.135
X3.655Y-2.235
X3.655Y-2.335
X3.655Y-2.435
X3.655Y-2.535
X3.755Y-0.135
X3.755Y-0.235
X3.755Y-0.335
X3.755Y-0.435
X3.755Y-0.535
X3.755Y-0.635
X3.755Y-0.735
X3.755Y-0.835
X3.755Y-0.935
X3.755Y-1.035
X3.755Y-1.135
X3.755Y-1.235
X3.755Y-1.335
X3.755Y-1.435
X3.755Y-1.535
X3.755Y-1.635
X3.755Y-1.735
X3.755Y-1.835
X3.755Y-1.935
X3.755Y-2.035
X3.755Y-2.135
X3.755Y-2.235
X3.755Y-2.335
X3.755Y-2.435
X3.755Y-2.535
X1.529Y-0.135
X1.529Y-0.235
X1.529Y-0.335
X1.529Y-0.435
X1.529Y-0.535
X1.529Y-0.635
X1.529Y-0.735
X1.529Y-0.835
X1.529Y-0.935
X1.529Y-1.035
X1.529Y-1.135
X1.529Y-1.235
X1.529Y-1.335
X1.529Y-1.435
X1.529Y-1.535
X1.529Y-1.635
X1.529Y-1.735
X1.529Y-1.835
X1.529Y-1.935
X1.529Y-2.035
X1.529Y-2.135
X1.529Y-2.235
X1.529Y-2.335
X1.529Y-2.435
X1.529Y-2.535
X1.629Y-0.135
X1.629Y-0.235
X1.629Y-0.335
X1.629Y-0.435
X1.629Y-0.535
X1.629Y-0.635
X1.629Y-0.735
X1.629Y-0.835
X1.629Y-0.935
X1.629Y-1.035
X1.629Y-1.135
X1.629Y-1.235
X1.629Y-1.335
X1.629Y-1.435
X1.629Y-1.535
X1.629Y-1.635
X1.629Y-1.735
X1.629Y-1.835
X1.629Y-1.935
X1.629Y-2.035
X1.629Y-2.135
X1.629Y-2.235
X1.629Y-2.335
X1.629Y-2.435
X1.629Y-2.535
X5.5275Y-3.2825
X5.5275Y-3.3825
X5.5275Y-3.4825
X5.5275Y-3.5825
X5.5275Y-3.6825
X5.5275Y-3.7825
T7
X1.6791Y-3.5978
X1.6791Y-3.775
X1.935Y-3.5978
X1.935Y-3.775
X2.1391Y-3.5978
X2.1391Y-3.775
X2.395Y-3.5978
X2.395Y-3.775
T8
X3.785Y-3.28
X0.425Y-0.15
X0.16Y-3.7775
X5.7375Y-3.775
X3.4125Y-0.15
X5.7375Y-0.16
T3
G00X0.045Y-3.2847
M15
G01X0.0726Y-3.2847
M16
G05
G00X0.0726Y-3.5603
M15
G01X0.045Y-3.5603
M16
G05
T0
M30
