G04 #@! TF.GenerationSoftware,KiCad,Pcbnew,(5.1.10-1-10_14)*
G04 #@! TF.CreationDate,2021-08-29T22:53:43+02:00*
G04 #@! TF.ProjectId,cpu_backplane,6370755f-6261-4636-9b70-6c616e652e6b,rev?*
G04 #@! TF.SameCoordinates,Original*
G04 #@! TF.FileFunction,Soldermask,Top*
G04 #@! TF.FilePolarity,Negative*
%FSLAX46Y46*%
G04 Gerber Fmt 4.6, Leading zero omitted, Abs format (unit mm)*
G04 Created by KiCad (PCBNEW (5.1.10-1-10_14)) date 2021-08-29 22:53:43*
%MOMM*%
%LPD*%
G01*
G04 APERTURE LIST*
%ADD10O,1.400000X1.400000*%
%ADD11C,1.400000*%
%ADD12C,1.600000*%
%ADD13O,1.600000X1.600000*%
%ADD14R,1.600000X1.600000*%
%ADD15O,1.700000X1.700000*%
%ADD16R,1.700000X1.700000*%
%ADD17C,1.800000*%
%ADD18R,1.800000X1.800000*%
%ADD19O,1.440000X2.000000*%
%ADD20R,1.440000X2.000000*%
%ADD21C,6.400000*%
%ADD22R,1.900000X1.200000*%
%ADD23O,1.900000X1.200000*%
%ADD24R,1.900000X1.500000*%
%ADD25C,1.450000*%
%ADD26R,1.350000X0.400000*%
%ADD27C,2.000000*%
%ADD28R,1.400000X1.000000*%
%ADD29R,1.400000X1.200000*%
G04 APERTURE END LIST*
D10*
G04 #@! TO.C,R27*
X115824000Y-8382000D03*
D11*
X110744000Y-8382000D03*
G04 #@! TD*
D12*
G04 #@! TO.C,C5*
X83566000Y-34210000D03*
X83566000Y-29210000D03*
G04 #@! TD*
D13*
G04 #@! TO.C,U7*
X132588000Y-36576000D03*
X140208000Y-3556000D03*
X132588000Y-34036000D03*
X140208000Y-6096000D03*
X132588000Y-31496000D03*
X140208000Y-8636000D03*
X132588000Y-28956000D03*
X140208000Y-11176000D03*
X132588000Y-26416000D03*
X140208000Y-13716000D03*
X132588000Y-23876000D03*
X140208000Y-16256000D03*
X132588000Y-21336000D03*
X140208000Y-18796000D03*
X132588000Y-18796000D03*
X140208000Y-21336000D03*
X132588000Y-16256000D03*
X140208000Y-23876000D03*
X132588000Y-13716000D03*
X140208000Y-26416000D03*
X132588000Y-11176000D03*
X140208000Y-28956000D03*
X132588000Y-8636000D03*
X140208000Y-31496000D03*
X132588000Y-6096000D03*
X140208000Y-34036000D03*
X132588000Y-3556000D03*
D14*
X140208000Y-36576000D03*
G04 #@! TD*
D15*
G04 #@! TO.C,J4*
X124968000Y-3556000D03*
X124968000Y-6096000D03*
X124968000Y-8636000D03*
X124968000Y-11176000D03*
X124968000Y-13716000D03*
X124968000Y-16256000D03*
X124968000Y-18796000D03*
X124968000Y-21336000D03*
X124968000Y-23876000D03*
X124968000Y-26416000D03*
X124968000Y-28956000D03*
X124968000Y-31496000D03*
X124968000Y-34036000D03*
D16*
X124968000Y-36576000D03*
G04 #@! TD*
D17*
G04 #@! TO.C,LED4*
X50038000Y-82042000D03*
D18*
X50038000Y-84582000D03*
G04 #@! TD*
D17*
G04 #@! TO.C,LED3*
X45466000Y-82042000D03*
D18*
X45466000Y-84582000D03*
G04 #@! TD*
D17*
G04 #@! TO.C,LED2*
X40894000Y-82042000D03*
D18*
X40894000Y-84582000D03*
G04 #@! TD*
D17*
G04 #@! TO.C,LED1*
X36322000Y-82042000D03*
D18*
X36322000Y-84582000D03*
G04 #@! TD*
D17*
G04 #@! TO.C,D1*
X23876000Y-86360000D03*
D18*
X26416000Y-86360000D03*
G04 #@! TD*
D12*
G04 #@! TO.C,C17*
X91106000Y-69596000D03*
X86106000Y-69596000D03*
G04 #@! TD*
D17*
G04 #@! TO.C,LED6*
X143510000Y-85344000D03*
D18*
X146050000Y-85344000D03*
G04 #@! TD*
D17*
G04 #@! TO.C,LED5*
X143510000Y-89916000D03*
D18*
X146050000Y-89916000D03*
G04 #@! TD*
D10*
G04 #@! TO.C,R26*
X131064000Y-92456000D03*
D11*
X125984000Y-92456000D03*
G04 #@! TD*
D10*
G04 #@! TO.C,R25*
X105918000Y-94234000D03*
D11*
X105918000Y-89154000D03*
G04 #@! TD*
D10*
G04 #@! TO.C,R24*
X116078000Y-84836000D03*
D11*
X116078000Y-89916000D03*
G04 #@! TD*
D12*
G04 #@! TO.C,X3*
X92710000Y-81280000D03*
X92710000Y-73660000D03*
X85090000Y-73660000D03*
D14*
X85090000Y-81280000D03*
G04 #@! TD*
D10*
G04 #@! TO.C,R20*
X148336000Y-81788000D03*
D11*
X143256000Y-81788000D03*
G04 #@! TD*
D10*
G04 #@! TO.C,R19*
X148336000Y-85344000D03*
D11*
X148336000Y-90424000D03*
G04 #@! TD*
D13*
G04 #@! TO.C,U5*
X123952000Y-44069000D03*
X146812000Y-51689000D03*
X126492000Y-44069000D03*
X144272000Y-51689000D03*
X129032000Y-44069000D03*
X141732000Y-51689000D03*
X131572000Y-44069000D03*
X139192000Y-51689000D03*
X134112000Y-44069000D03*
X136652000Y-51689000D03*
X136652000Y-44069000D03*
X134112000Y-51689000D03*
X139192000Y-44069000D03*
X131572000Y-51689000D03*
X141732000Y-44069000D03*
X129032000Y-51689000D03*
X144272000Y-44069000D03*
X126492000Y-51689000D03*
X146812000Y-44069000D03*
D14*
X123952000Y-51689000D03*
G04 #@! TD*
D13*
G04 #@! TO.C,U1*
X42926000Y-69850000D03*
X60706000Y-77470000D03*
X45466000Y-69850000D03*
X58166000Y-77470000D03*
X48006000Y-69850000D03*
X55626000Y-77470000D03*
X50546000Y-69850000D03*
X53086000Y-77470000D03*
X53086000Y-69850000D03*
X50546000Y-77470000D03*
X55626000Y-69850000D03*
X48006000Y-77470000D03*
X58166000Y-69850000D03*
X45466000Y-77470000D03*
X60706000Y-69850000D03*
D14*
X42926000Y-77470000D03*
G04 #@! TD*
D10*
G04 #@! TO.C,R23*
X131826000Y-84582000D03*
D11*
X131826000Y-89662000D03*
G04 #@! TD*
D10*
G04 #@! TO.C,R22*
X143256000Y-40894000D03*
D11*
X148336000Y-40894000D03*
G04 #@! TD*
D10*
G04 #@! TO.C,R21*
X143256000Y-29464000D03*
D11*
X148336000Y-29464000D03*
G04 #@! TD*
D10*
G04 #@! TO.C,R18*
X36131500Y-74866500D03*
D11*
X31051500Y-74866500D03*
G04 #@! TD*
D10*
G04 #@! TO.C,R17*
X36131500Y-77089000D03*
D11*
X31051500Y-77089000D03*
G04 #@! TD*
D10*
G04 #@! TO.C,R16*
X62738000Y-85598000D03*
D11*
X62738000Y-80518000D03*
G04 #@! TD*
D10*
G04 #@! TO.C,R15*
X134112000Y-89662000D03*
D11*
X134112000Y-84582000D03*
G04 #@! TD*
D10*
G04 #@! TO.C,R14*
X89662000Y-37846000D03*
D11*
X89662000Y-42926000D03*
G04 #@! TD*
D10*
G04 #@! TO.C,R13*
X53594000Y-80518000D03*
D11*
X53594000Y-85598000D03*
G04 #@! TD*
D10*
G04 #@! TO.C,R12*
X55880000Y-80518000D03*
D11*
X55880000Y-85598000D03*
G04 #@! TD*
D10*
G04 #@! TO.C,R11*
X58166000Y-80518000D03*
D11*
X58166000Y-85598000D03*
G04 #@! TD*
D10*
G04 #@! TO.C,R10*
X60452000Y-80518000D03*
D11*
X60452000Y-85598000D03*
G04 #@! TD*
D10*
G04 #@! TO.C,R9*
X29210000Y-82804000D03*
D11*
X29210000Y-87884000D03*
G04 #@! TD*
D10*
G04 #@! TO.C,R8*
X89662000Y-52324000D03*
D11*
X89662000Y-57404000D03*
G04 #@! TD*
D10*
G04 #@! TO.C,R6*
X143256000Y-31750000D03*
D11*
X148336000Y-31750000D03*
G04 #@! TD*
D10*
G04 #@! TO.C,R5*
X143256000Y-34036000D03*
D11*
X148336000Y-34036000D03*
G04 #@! TD*
D10*
G04 #@! TO.C,R4*
X143256000Y-36322000D03*
D11*
X148336000Y-36322000D03*
G04 #@! TD*
D10*
G04 #@! TO.C,R3*
X143256000Y-38608000D03*
D11*
X148336000Y-38608000D03*
G04 #@! TD*
D10*
G04 #@! TO.C,R2*
X67564000Y-29972000D03*
D11*
X67564000Y-35052000D03*
G04 #@! TD*
D10*
G04 #@! TO.C,R1*
X89662000Y-45212000D03*
D11*
X89662000Y-50292000D03*
G04 #@! TD*
D13*
G04 #@! TO.C,D8*
X97028000Y-69088000D03*
D14*
X97028000Y-76708000D03*
G04 #@! TD*
D13*
G04 #@! TO.C,D7*
X35306000Y-28702000D03*
D14*
X27686000Y-28702000D03*
G04 #@! TD*
D13*
G04 #@! TO.C,D6*
X52578000Y-29210000D03*
D14*
X44958000Y-29210000D03*
G04 #@! TD*
D13*
G04 #@! TO.C,D5*
X10922000Y-27432000D03*
D14*
X10922000Y-35052000D03*
G04 #@! TD*
D13*
G04 #@! TO.C,D4*
X71628000Y-26670000D03*
D14*
X64008000Y-26670000D03*
G04 #@! TD*
D13*
G04 #@! TO.C,D3*
X89662000Y-26670000D03*
D14*
X82042000Y-26670000D03*
G04 #@! TD*
D13*
G04 #@! TO.C,D2*
X13716000Y-27432000D03*
D14*
X13716000Y-35052000D03*
G04 #@! TD*
D12*
G04 #@! TO.C,C16*
X97456000Y-94488000D03*
X92456000Y-94488000D03*
G04 #@! TD*
G04 #@! TO.C,C15*
X124540000Y-41148000D03*
X129540000Y-41148000D03*
G04 #@! TD*
G04 #@! TO.C,C14*
X103378000Y-89234000D03*
X103378000Y-94234000D03*
G04 #@! TD*
G04 #@! TO.C,C12*
X105998000Y-21082000D03*
X110998000Y-21082000D03*
G04 #@! TD*
G04 #@! TO.C,C11*
X71374000Y-30306000D03*
X71374000Y-35306000D03*
G04 #@! TD*
G04 #@! TO.C,C10*
X26416000Y-31068000D03*
X26416000Y-36068000D03*
G04 #@! TD*
G04 #@! TO.C,C9*
X128778000Y-36496000D03*
X128778000Y-31496000D03*
G04 #@! TD*
G04 #@! TO.C,C8*
X17780000Y-36242000D03*
X17780000Y-31242000D03*
G04 #@! TD*
G04 #@! TO.C,C7*
X8382000Y-29544000D03*
X8382000Y-34544000D03*
G04 #@! TD*
G04 #@! TO.C,C6*
X44450000Y-36750000D03*
X44450000Y-31750000D03*
G04 #@! TD*
G04 #@! TO.C,C4*
X75358000Y-69342000D03*
X70358000Y-69342000D03*
G04 #@! TD*
G04 #@! TO.C,C3*
X62484000Y-35226000D03*
X62484000Y-30226000D03*
G04 #@! TD*
G04 #@! TO.C,C2*
X18970000Y-95250000D03*
X13970000Y-95250000D03*
G04 #@! TD*
G04 #@! TO.C,C1*
X89662000Y-29036000D03*
X89662000Y-34036000D03*
G04 #@! TD*
D15*
G04 #@! TO.C,SLOT0*
X92837000Y-64389000D03*
X95377000Y-64389000D03*
X92837000Y-61849000D03*
X95377000Y-61849000D03*
X92837000Y-59309000D03*
X95377000Y-59309000D03*
X92837000Y-56769000D03*
X95377000Y-56769000D03*
X92837000Y-54229000D03*
X95377000Y-54229000D03*
X92837000Y-51689000D03*
X95377000Y-51689000D03*
X92837000Y-49149000D03*
X95377000Y-49149000D03*
X92837000Y-46609000D03*
X95377000Y-46609000D03*
X92837000Y-44069000D03*
X95377000Y-44069000D03*
X92837000Y-41529000D03*
X95377000Y-41529000D03*
X92837000Y-38989000D03*
X95377000Y-38989000D03*
X92837000Y-36449000D03*
X95377000Y-36449000D03*
X92837000Y-33909000D03*
X95377000Y-33909000D03*
X92837000Y-31369000D03*
X95377000Y-31369000D03*
X92837000Y-28829000D03*
X95377000Y-28829000D03*
X92837000Y-26289000D03*
X95377000Y-26289000D03*
X92837000Y-23749000D03*
X95377000Y-23749000D03*
X92837000Y-21209000D03*
X95377000Y-21209000D03*
X92837000Y-18669000D03*
X95377000Y-18669000D03*
X92837000Y-16129000D03*
X95377000Y-16129000D03*
X92837000Y-13589000D03*
X95377000Y-13589000D03*
X92837000Y-11049000D03*
X95377000Y-11049000D03*
X92837000Y-8509000D03*
X95377000Y-8509000D03*
X92837000Y-5969000D03*
X95377000Y-5969000D03*
X92837000Y-3429000D03*
D16*
X95377000Y-3429000D03*
G04 #@! TD*
D15*
G04 #@! TO.C,J3*
X139954000Y-96075500D03*
X139954000Y-93535500D03*
X139954000Y-90995500D03*
X139954000Y-88455500D03*
X139954000Y-85915500D03*
D16*
X139954000Y-83375500D03*
G04 #@! TD*
D19*
G04 #@! TO.C,U8*
X105918000Y-75120500D03*
X105918000Y-59880500D03*
X108458000Y-75120500D03*
X108458000Y-59880500D03*
X110998000Y-75120500D03*
X110998000Y-59880500D03*
X113538000Y-75120500D03*
X113538000Y-59880500D03*
X116078000Y-75120500D03*
X116078000Y-59880500D03*
X118618000Y-75120500D03*
X118618000Y-59880500D03*
X121158000Y-75120500D03*
X121158000Y-59880500D03*
X123698000Y-75120500D03*
X123698000Y-59880500D03*
X126238000Y-75120500D03*
X126238000Y-59880500D03*
X128778000Y-75120500D03*
X128778000Y-59880500D03*
X131318000Y-75120500D03*
X131318000Y-59880500D03*
X133858000Y-75120500D03*
X133858000Y-59880500D03*
X136398000Y-75120500D03*
X136398000Y-59880500D03*
X138938000Y-75120500D03*
D20*
X138938000Y-59880500D03*
G04 #@! TD*
D21*
G04 #@! TO.C,H6*
X145732500Y-4064000D03*
G04 #@! TD*
G04 #@! TO.C,H5*
X145732500Y-95885000D03*
G04 #@! TD*
D13*
G04 #@! TO.C,U9*
X136398000Y-97155000D03*
X103378000Y-81915000D03*
X133858000Y-97155000D03*
X105918000Y-81915000D03*
X131318000Y-97155000D03*
X108458000Y-81915000D03*
X128778000Y-97155000D03*
X110998000Y-81915000D03*
X126238000Y-97155000D03*
X113538000Y-81915000D03*
X123698000Y-97155000D03*
X116078000Y-81915000D03*
X121158000Y-97155000D03*
X118618000Y-81915000D03*
X118618000Y-97155000D03*
X121158000Y-81915000D03*
X116078000Y-97155000D03*
X123698000Y-81915000D03*
X113538000Y-97155000D03*
X126238000Y-81915000D03*
X110998000Y-97155000D03*
X128778000Y-81915000D03*
X108458000Y-97155000D03*
X131318000Y-81915000D03*
X105918000Y-97155000D03*
X133858000Y-81915000D03*
X103378000Y-97155000D03*
D14*
X136398000Y-81915000D03*
G04 #@! TD*
D13*
G04 #@! TO.C,U6*
X118618000Y-3365500D03*
X103378000Y-51625500D03*
X118618000Y-5905500D03*
X103378000Y-49085500D03*
X118618000Y-8445500D03*
X103378000Y-46545500D03*
X118618000Y-10985500D03*
X103378000Y-44005500D03*
X118618000Y-13525500D03*
X103378000Y-41465500D03*
X118618000Y-16065500D03*
X103378000Y-38925500D03*
X118618000Y-18605500D03*
X103378000Y-36385500D03*
X118618000Y-21145500D03*
X103378000Y-33845500D03*
X118618000Y-23685500D03*
X103378000Y-31305500D03*
X118618000Y-26225500D03*
X103378000Y-28765500D03*
X118618000Y-28765500D03*
X103378000Y-26225500D03*
X118618000Y-31305500D03*
X103378000Y-23685500D03*
X118618000Y-33845500D03*
X103378000Y-21145500D03*
X118618000Y-36385500D03*
X103378000Y-18605500D03*
X118618000Y-38925500D03*
X103378000Y-16065500D03*
X118618000Y-41465500D03*
X103378000Y-13525500D03*
X118618000Y-44005500D03*
X103378000Y-10985500D03*
X118618000Y-46545500D03*
X103378000Y-8445500D03*
X118618000Y-49085500D03*
X103378000Y-5905500D03*
X118618000Y-51625500D03*
D14*
X103378000Y-3365500D03*
G04 #@! TD*
D21*
G04 #@! TO.C,H3*
X10795000Y-3810000D03*
G04 #@! TD*
G04 #@! TO.C,H2*
X4064000Y-95948500D03*
G04 #@! TD*
G04 #@! TO.C,H1*
X86677500Y-3810000D03*
G04 #@! TD*
D15*
G04 #@! TO.C,J2*
X32766000Y-71628000D03*
X32766000Y-69088000D03*
X35306000Y-71628000D03*
D16*
X35306000Y-69088000D03*
G04 #@! TD*
D12*
G04 #@! TO.C,X1*
X76962000Y-81280000D03*
X76962000Y-73660000D03*
X69342000Y-73660000D03*
D14*
X69342000Y-81280000D03*
G04 #@! TD*
D22*
G04 #@! TO.C,J1*
X1493000Y-84031500D03*
X1493000Y-89831500D03*
D23*
X1493000Y-90431500D03*
X1493000Y-83431500D03*
D24*
X1493000Y-85931500D03*
D25*
X4193000Y-89431500D03*
D26*
X4193000Y-86931500D03*
X4193000Y-87581500D03*
X4193000Y-88231500D03*
X4193000Y-85631500D03*
X4193000Y-86281500D03*
D25*
X4193000Y-84431500D03*
D24*
X1493000Y-87931500D03*
G04 #@! TD*
D13*
G04 #@! TO.C,U4*
X97663000Y-97155000D03*
X69723000Y-89535000D03*
X95123000Y-97155000D03*
X72263000Y-89535000D03*
X92583000Y-97155000D03*
X74803000Y-89535000D03*
X90043000Y-97155000D03*
X77343000Y-89535000D03*
X87503000Y-97155000D03*
X79883000Y-89535000D03*
X84963000Y-97155000D03*
X82423000Y-89535000D03*
X82423000Y-97155000D03*
X84963000Y-89535000D03*
X79883000Y-97155000D03*
X87503000Y-89535000D03*
X77343000Y-97155000D03*
X90043000Y-89535000D03*
X74803000Y-97155000D03*
X92583000Y-89535000D03*
X72263000Y-97155000D03*
X95123000Y-89535000D03*
X69723000Y-97155000D03*
D14*
X97663000Y-89535000D03*
G04 #@! TD*
D27*
G04 #@! TO.C,RESET1*
X54333000Y-95885000D03*
X54333000Y-91385000D03*
X60833000Y-95885000D03*
X60833000Y-91385000D03*
G04 #@! TD*
G04 #@! TO.C,NMI1*
X39855000Y-95885000D03*
X39855000Y-91385000D03*
X46355000Y-95885000D03*
X46355000Y-91385000D03*
G04 #@! TD*
D28*
G04 #@! TO.C,U3*
X64305000Y-96581000D03*
X64305000Y-94681000D03*
X66505000Y-94681000D03*
D29*
X66505000Y-96401000D03*
G04 #@! TD*
D28*
G04 #@! TO.C,U2*
X64305000Y-92644000D03*
X64305000Y-90744000D03*
X66505000Y-90744000D03*
D29*
X66505000Y-92464000D03*
G04 #@! TD*
D12*
G04 #@! TO.C,C13*
X15684500Y-87590000D03*
D14*
X15684500Y-85090000D03*
G04 #@! TD*
D12*
G04 #@! TO.C,SW1*
X28876000Y-95783000D03*
X26376000Y-95783000D03*
X23876000Y-95783000D03*
X28876000Y-92583000D03*
X26376000Y-92583000D03*
D14*
X23876000Y-92583000D03*
G04 #@! TD*
D15*
G04 #@! TO.C,SLOT5*
X2837000Y-64389000D03*
X5377000Y-64389000D03*
X2837000Y-61849000D03*
X5377000Y-61849000D03*
X2837000Y-59309000D03*
X5377000Y-59309000D03*
X2837000Y-56769000D03*
X5377000Y-56769000D03*
X2837000Y-54229000D03*
X5377000Y-54229000D03*
X2837000Y-51689000D03*
X5377000Y-51689000D03*
X2837000Y-49149000D03*
X5377000Y-49149000D03*
X2837000Y-46609000D03*
X5377000Y-46609000D03*
X2837000Y-44069000D03*
X5377000Y-44069000D03*
X2837000Y-41529000D03*
X5377000Y-41529000D03*
X2837000Y-38989000D03*
X5377000Y-38989000D03*
X2837000Y-36449000D03*
X5377000Y-36449000D03*
X2837000Y-33909000D03*
X5377000Y-33909000D03*
X2837000Y-31369000D03*
X5377000Y-31369000D03*
X2837000Y-28829000D03*
X5377000Y-28829000D03*
X2837000Y-26289000D03*
X5377000Y-26289000D03*
X2837000Y-23749000D03*
X5377000Y-23749000D03*
X2837000Y-21209000D03*
X5377000Y-21209000D03*
X2837000Y-18669000D03*
X5377000Y-18669000D03*
X2837000Y-16129000D03*
X5377000Y-16129000D03*
X2837000Y-13589000D03*
X5377000Y-13589000D03*
X2837000Y-11049000D03*
X5377000Y-11049000D03*
X2837000Y-8509000D03*
X5377000Y-8509000D03*
X2837000Y-5969000D03*
X5377000Y-5969000D03*
X2837000Y-3429000D03*
D16*
X5377000Y-3429000D03*
G04 #@! TD*
D15*
G04 #@! TO.C,SLOT4*
X20837000Y-64389000D03*
X23377000Y-64389000D03*
X20837000Y-61849000D03*
X23377000Y-61849000D03*
X20837000Y-59309000D03*
X23377000Y-59309000D03*
X20837000Y-56769000D03*
X23377000Y-56769000D03*
X20837000Y-54229000D03*
X23377000Y-54229000D03*
X20837000Y-51689000D03*
X23377000Y-51689000D03*
X20837000Y-49149000D03*
X23377000Y-49149000D03*
X20837000Y-46609000D03*
X23377000Y-46609000D03*
X20837000Y-44069000D03*
X23377000Y-44069000D03*
X20837000Y-41529000D03*
X23377000Y-41529000D03*
X20837000Y-38989000D03*
X23377000Y-38989000D03*
X20837000Y-36449000D03*
X23377000Y-36449000D03*
X20837000Y-33909000D03*
X23377000Y-33909000D03*
X20837000Y-31369000D03*
X23377000Y-31369000D03*
X20837000Y-28829000D03*
X23377000Y-28829000D03*
X20837000Y-26289000D03*
X23377000Y-26289000D03*
X20837000Y-23749000D03*
X23377000Y-23749000D03*
X20837000Y-21209000D03*
X23377000Y-21209000D03*
X20837000Y-18669000D03*
X23377000Y-18669000D03*
X20837000Y-16129000D03*
X23377000Y-16129000D03*
X20837000Y-13589000D03*
X23377000Y-13589000D03*
X20837000Y-11049000D03*
X23377000Y-11049000D03*
X20837000Y-8509000D03*
X23377000Y-8509000D03*
X20837000Y-5969000D03*
X23377000Y-5969000D03*
X20837000Y-3429000D03*
D16*
X23377000Y-3429000D03*
G04 #@! TD*
D15*
G04 #@! TO.C,SLOT3*
X38837000Y-64389000D03*
X41377000Y-64389000D03*
X38837000Y-61849000D03*
X41377000Y-61849000D03*
X38837000Y-59309000D03*
X41377000Y-59309000D03*
X38837000Y-56769000D03*
X41377000Y-56769000D03*
X38837000Y-54229000D03*
X41377000Y-54229000D03*
X38837000Y-51689000D03*
X41377000Y-51689000D03*
X38837000Y-49149000D03*
X41377000Y-49149000D03*
X38837000Y-46609000D03*
X41377000Y-46609000D03*
X38837000Y-44069000D03*
X41377000Y-44069000D03*
X38837000Y-41529000D03*
X41377000Y-41529000D03*
X38837000Y-38989000D03*
X41377000Y-38989000D03*
X38837000Y-36449000D03*
X41377000Y-36449000D03*
X38837000Y-33909000D03*
X41377000Y-33909000D03*
X38837000Y-31369000D03*
X41377000Y-31369000D03*
X38837000Y-28829000D03*
X41377000Y-28829000D03*
X38837000Y-26289000D03*
X41377000Y-26289000D03*
X38837000Y-23749000D03*
X41377000Y-23749000D03*
X38837000Y-21209000D03*
X41377000Y-21209000D03*
X38837000Y-18669000D03*
X41377000Y-18669000D03*
X38837000Y-16129000D03*
X41377000Y-16129000D03*
X38837000Y-13589000D03*
X41377000Y-13589000D03*
X38837000Y-11049000D03*
X41377000Y-11049000D03*
X38837000Y-8509000D03*
X41377000Y-8509000D03*
X38837000Y-5969000D03*
X41377000Y-5969000D03*
X38837000Y-3429000D03*
D16*
X41377000Y-3429000D03*
G04 #@! TD*
D15*
G04 #@! TO.C,SLOT2*
X56837000Y-64389000D03*
X59377000Y-64389000D03*
X56837000Y-61849000D03*
X59377000Y-61849000D03*
X56837000Y-59309000D03*
X59377000Y-59309000D03*
X56837000Y-56769000D03*
X59377000Y-56769000D03*
X56837000Y-54229000D03*
X59377000Y-54229000D03*
X56837000Y-51689000D03*
X59377000Y-51689000D03*
X56837000Y-49149000D03*
X59377000Y-49149000D03*
X56837000Y-46609000D03*
X59377000Y-46609000D03*
X56837000Y-44069000D03*
X59377000Y-44069000D03*
X56837000Y-41529000D03*
X59377000Y-41529000D03*
X56837000Y-38989000D03*
X59377000Y-38989000D03*
X56837000Y-36449000D03*
X59377000Y-36449000D03*
X56837000Y-33909000D03*
X59377000Y-33909000D03*
X56837000Y-31369000D03*
X59377000Y-31369000D03*
X56837000Y-28829000D03*
X59377000Y-28829000D03*
X56837000Y-26289000D03*
X59377000Y-26289000D03*
X56837000Y-23749000D03*
X59377000Y-23749000D03*
X56837000Y-21209000D03*
X59377000Y-21209000D03*
X56837000Y-18669000D03*
X59377000Y-18669000D03*
X56837000Y-16129000D03*
X59377000Y-16129000D03*
X56837000Y-13589000D03*
X59377000Y-13589000D03*
X56837000Y-11049000D03*
X59377000Y-11049000D03*
X56837000Y-8509000D03*
X59377000Y-8509000D03*
X56837000Y-5969000D03*
X59377000Y-5969000D03*
X56837000Y-3429000D03*
D16*
X59377000Y-3429000D03*
G04 #@! TD*
D15*
G04 #@! TO.C,SLOT1*
X74837000Y-64389000D03*
X77377000Y-64389000D03*
X74837000Y-61849000D03*
X77377000Y-61849000D03*
X74837000Y-59309000D03*
X77377000Y-59309000D03*
X74837000Y-56769000D03*
X77377000Y-56769000D03*
X74837000Y-54229000D03*
X77377000Y-54229000D03*
X74837000Y-51689000D03*
X77377000Y-51689000D03*
X74837000Y-49149000D03*
X77377000Y-49149000D03*
X74837000Y-46609000D03*
X77377000Y-46609000D03*
X74837000Y-44069000D03*
X77377000Y-44069000D03*
X74837000Y-41529000D03*
X77377000Y-41529000D03*
X74837000Y-38989000D03*
X77377000Y-38989000D03*
X74837000Y-36449000D03*
X77377000Y-36449000D03*
X74837000Y-33909000D03*
X77377000Y-33909000D03*
X74837000Y-31369000D03*
X77377000Y-31369000D03*
X74837000Y-28829000D03*
X77377000Y-28829000D03*
X74837000Y-26289000D03*
X77377000Y-26289000D03*
X74837000Y-23749000D03*
X77377000Y-23749000D03*
X74837000Y-21209000D03*
X77377000Y-21209000D03*
X74837000Y-18669000D03*
X77377000Y-18669000D03*
X74837000Y-16129000D03*
X77377000Y-16129000D03*
X74837000Y-13589000D03*
X77377000Y-13589000D03*
X74837000Y-11049000D03*
X77377000Y-11049000D03*
X74837000Y-8509000D03*
X77377000Y-8509000D03*
X74837000Y-5969000D03*
X77377000Y-5969000D03*
X74837000Y-3429000D03*
D16*
X77377000Y-3429000D03*
G04 #@! TD*
M02*
