%TF.GenerationSoftware,KiCad,Pcbnew,(5.1.6-0-10_14)*%
%TF.CreationDate,2021-03-04T16:35:38+01:00*%
%TF.ProjectId,lcd_board,6c63645f-626f-4617-9264-2e6b69636164,rev?*%
%TF.SameCoordinates,Original*%
%TF.FileFunction,Soldermask,Top*%
%TF.FilePolarity,Negative*%
%FSLAX46Y46*%
G04 Gerber Fmt 4.6, Leading zero omitted, Abs format (unit mm)*
G04 Created by KiCad (PCBNEW (5.1.6-0-10_14)) date 2021-03-04 16:35:38*
%MOMM*%
%LPD*%
G01*
G04 APERTURE LIST*
%ADD10C,1.720000*%
%ADD11O,1.700000X1.700000*%
%ADD12R,1.700000X1.700000*%
%ADD13O,1.800000X1.800000*%
%ADD14R,1.800000X1.800000*%
G04 APERTURE END LIST*
%TO.C,C5*%
G36*
G01*
X5360500Y46205544D02*
X5360500Y47520456D01*
G75*
G02*
X5628044Y47788000I267544J0D01*
G01*
X6617956Y47788000D01*
G75*
G02*
X6885500Y47520456I0J-267544D01*
G01*
X6885500Y46205544D01*
G75*
G02*
X6617956Y45938000I-267544J0D01*
G01*
X5628044Y45938000D01*
G75*
G02*
X5360500Y46205544I0J267544D01*
G01*
G37*
G36*
G01*
X2385500Y46205544D02*
X2385500Y47520456D01*
G75*
G02*
X2653044Y47788000I267544J0D01*
G01*
X3642956Y47788000D01*
G75*
G02*
X3910500Y47520456I0J-267544D01*
G01*
X3910500Y46205544D01*
G75*
G02*
X3642956Y45938000I-267544J0D01*
G01*
X2653044Y45938000D01*
G75*
G02*
X2385500Y46205544I0J267544D01*
G01*
G37*
%TD*%
D10*
%TO.C,RV1*%
X76962000Y52451000D03*
X74462000Y57451000D03*
X71962000Y52451000D03*
%TD*%
D11*
%TO.C,U4*%
X25908000Y31242000D03*
X8128000Y38862000D03*
X23368000Y31242000D03*
X10668000Y38862000D03*
X20828000Y31242000D03*
X13208000Y38862000D03*
X18288000Y31242000D03*
X15748000Y38862000D03*
X15748000Y31242000D03*
X18288000Y38862000D03*
X13208000Y31242000D03*
X20828000Y38862000D03*
X10668000Y31242000D03*
X23368000Y38862000D03*
X8128000Y31242000D03*
D12*
X25908000Y38862000D03*
%TD*%
D11*
%TO.C,U3*%
X51816000Y30861000D03*
X34036000Y38481000D03*
X49276000Y30861000D03*
X36576000Y38481000D03*
X46736000Y30861000D03*
X39116000Y38481000D03*
X44196000Y30861000D03*
X41656000Y38481000D03*
X41656000Y30861000D03*
X44196000Y38481000D03*
X39116000Y30861000D03*
X46736000Y38481000D03*
X36576000Y30861000D03*
X49276000Y38481000D03*
X34036000Y30861000D03*
D12*
X51816000Y38481000D03*
%TD*%
D11*
%TO.C,U2*%
X75755500Y30734000D03*
X57975500Y38354000D03*
X73215500Y30734000D03*
X60515500Y38354000D03*
X70675500Y30734000D03*
X63055500Y38354000D03*
X68135500Y30734000D03*
X65595500Y38354000D03*
X65595500Y30734000D03*
X68135500Y38354000D03*
X63055500Y30734000D03*
X70675500Y38354000D03*
X60515500Y30734000D03*
X73215500Y38354000D03*
X57975500Y30734000D03*
D12*
X75755500Y38354000D03*
%TD*%
D11*
%TO.C,U1*%
X29591000Y14414500D03*
X14351000Y22034500D03*
X27051000Y14414500D03*
X16891000Y22034500D03*
X24511000Y14414500D03*
X19431000Y22034500D03*
X21971000Y14414500D03*
X21971000Y22034500D03*
X19431000Y14414500D03*
X24511000Y22034500D03*
X16891000Y14414500D03*
X27051000Y22034500D03*
X14351000Y14414500D03*
D12*
X29591000Y22034500D03*
%TD*%
%TO.C,R1*%
G36*
G01*
X39795500Y47595262D02*
X39795500Y46638738D01*
G75*
G02*
X39523762Y46367000I-271738J0D01*
G01*
X38817238Y46367000D01*
G75*
G02*
X38545500Y46638738I0J271738D01*
G01*
X38545500Y47595262D01*
G75*
G02*
X38817238Y47867000I271738J0D01*
G01*
X39523762Y47867000D01*
G75*
G02*
X39795500Y47595262I0J-271738D01*
G01*
G37*
G36*
G01*
X41845500Y47595262D02*
X41845500Y46638738D01*
G75*
G02*
X41573762Y46367000I-271738J0D01*
G01*
X40867238Y46367000D01*
G75*
G02*
X40595500Y46638738I0J271738D01*
G01*
X40595500Y47595262D01*
G75*
G02*
X40867238Y47867000I271738J0D01*
G01*
X41573762Y47867000D01*
G75*
G02*
X41845500Y47595262I0J-271738D01*
G01*
G37*
%TD*%
D13*
%TO.C,J2*%
X3302000Y49911000D03*
X5842000Y49911000D03*
X8382000Y49911000D03*
X10922000Y49911000D03*
X13462000Y49911000D03*
X16002000Y49911000D03*
X18542000Y49911000D03*
X21082000Y49911000D03*
X23622000Y49911000D03*
X26162000Y49911000D03*
X28702000Y49911000D03*
X31242000Y49911000D03*
X33782000Y49911000D03*
X36322000Y49911000D03*
X38862000Y49911000D03*
D14*
X41402000Y49911000D03*
%TD*%
%TO.C,C4*%
G36*
G01*
X51207500Y27346044D02*
X51207500Y28660956D01*
G75*
G02*
X51475044Y28928500I267544J0D01*
G01*
X52464956Y28928500D01*
G75*
G02*
X52732500Y28660956I0J-267544D01*
G01*
X52732500Y27346044D01*
G75*
G02*
X52464956Y27078500I-267544J0D01*
G01*
X51475044Y27078500D01*
G75*
G02*
X51207500Y27346044I0J267544D01*
G01*
G37*
G36*
G01*
X48232500Y27346044D02*
X48232500Y28660956D01*
G75*
G02*
X48500044Y28928500I267544J0D01*
G01*
X49489956Y28928500D01*
G75*
G02*
X49757500Y28660956I0J-267544D01*
G01*
X49757500Y27346044D01*
G75*
G02*
X49489956Y27078500I-267544J0D01*
G01*
X48500044Y27078500D01*
G75*
G02*
X48232500Y27346044I0J267544D01*
G01*
G37*
%TD*%
%TO.C,C3*%
G36*
G01*
X75020000Y27219044D02*
X75020000Y28533956D01*
G75*
G02*
X75287544Y28801500I267544J0D01*
G01*
X76277456Y28801500D01*
G75*
G02*
X76545000Y28533956I0J-267544D01*
G01*
X76545000Y27219044D01*
G75*
G02*
X76277456Y26951500I-267544J0D01*
G01*
X75287544Y26951500D01*
G75*
G02*
X75020000Y27219044I0J267544D01*
G01*
G37*
G36*
G01*
X72045000Y27219044D02*
X72045000Y28533956D01*
G75*
G02*
X72312544Y28801500I267544J0D01*
G01*
X73302456Y28801500D01*
G75*
G02*
X73570000Y28533956I0J-267544D01*
G01*
X73570000Y27219044D01*
G75*
G02*
X73302456Y26951500I-267544J0D01*
G01*
X72312544Y26951500D01*
G75*
G02*
X72045000Y27219044I0J267544D01*
G01*
G37*
%TD*%
%TO.C,C2*%
G36*
G01*
X28235044Y32041000D02*
X29549956Y32041000D01*
G75*
G02*
X29817500Y31773456I0J-267544D01*
G01*
X29817500Y30783544D01*
G75*
G02*
X29549956Y30516000I-267544J0D01*
G01*
X28235044Y30516000D01*
G75*
G02*
X27967500Y30783544I0J267544D01*
G01*
X27967500Y31773456D01*
G75*
G02*
X28235044Y32041000I267544J0D01*
G01*
G37*
G36*
G01*
X28235044Y35016000D02*
X29549956Y35016000D01*
G75*
G02*
X29817500Y34748456I0J-267544D01*
G01*
X29817500Y33758544D01*
G75*
G02*
X29549956Y33491000I-267544J0D01*
G01*
X28235044Y33491000D01*
G75*
G02*
X27967500Y33758544I0J267544D01*
G01*
X27967500Y34748456D01*
G75*
G02*
X28235044Y35016000I267544J0D01*
G01*
G37*
%TD*%
%TO.C,C1*%
G36*
G01*
X28982500Y10963044D02*
X28982500Y12277956D01*
G75*
G02*
X29250044Y12545500I267544J0D01*
G01*
X30239956Y12545500D01*
G75*
G02*
X30507500Y12277956I0J-267544D01*
G01*
X30507500Y10963044D01*
G75*
G02*
X30239956Y10695500I-267544J0D01*
G01*
X29250044Y10695500D01*
G75*
G02*
X28982500Y10963044I0J267544D01*
G01*
G37*
G36*
G01*
X26007500Y10963044D02*
X26007500Y12277956D01*
G75*
G02*
X26275044Y12545500I267544J0D01*
G01*
X27264956Y12545500D01*
G75*
G02*
X27532500Y12277956I0J-267544D01*
G01*
X27532500Y10963044D01*
G75*
G02*
X27264956Y10695500I-267544J0D01*
G01*
X26275044Y10695500D01*
G75*
G02*
X26007500Y10963044I0J267544D01*
G01*
G37*
%TD*%
D13*
%TO.C,J1*%
X17272000Y4064000D03*
X17272000Y6604000D03*
X19812000Y4064000D03*
X19812000Y6604000D03*
X22352000Y4064000D03*
X22352000Y6604000D03*
X24892000Y4064000D03*
X24892000Y6604000D03*
X27432000Y4064000D03*
X27432000Y6604000D03*
X29972000Y4064000D03*
X29972000Y6604000D03*
X32512000Y4064000D03*
X32512000Y6604000D03*
X35052000Y4064000D03*
X35052000Y6604000D03*
X37592000Y4064000D03*
X37592000Y6604000D03*
X40132000Y4064000D03*
X40132000Y6604000D03*
X42672000Y4064000D03*
X42672000Y6604000D03*
X45212000Y4064000D03*
X45212000Y6604000D03*
X47752000Y4064000D03*
X47752000Y6604000D03*
X50292000Y4064000D03*
X50292000Y6604000D03*
X52832000Y4064000D03*
X52832000Y6604000D03*
X55372000Y4064000D03*
X55372000Y6604000D03*
X57912000Y4064000D03*
X57912000Y6604000D03*
X60452000Y4064000D03*
X60452000Y6604000D03*
X62992000Y4064000D03*
X62992000Y6604000D03*
X65532000Y4064000D03*
X65532000Y6604000D03*
X68072000Y4064000D03*
X68072000Y6604000D03*
X70612000Y4064000D03*
X70612000Y6604000D03*
X73152000Y4064000D03*
X73152000Y6604000D03*
X75692000Y4064000D03*
X75692000Y6604000D03*
X78232000Y4064000D03*
D14*
X78232000Y6604000D03*
%TD*%
M02*
