%TF.GenerationSoftware,KiCad,Pcbnew,(5.1.10-1-10_14)*%
%TF.CreationDate,2021-08-31T00:19:26+02:00*%
%TF.ProjectId,lcd_board,6c63645f-626f-4617-9264-2e6b69636164,rev?*%
%TF.SameCoordinates,Original*%
%TF.FileFunction,Legend,Top*%
%TF.FilePolarity,Positive*%
%FSLAX46Y46*%
G04 Gerber Fmt 4.6, Leading zero omitted, Abs format (unit mm)*
G04 Created by KiCad (PCBNEW (5.1.10-1-10_14)) date 2021-08-31 00:19:26*
%MOMM*%
%LPD*%
G01*
G04 APERTURE LIST*
%ADD10C,0.300000*%
%ADD11C,0.010000*%
%ADD12C,0.120000*%
%ADD13C,0.150000*%
G04 APERTURE END LIST*
D10*
X45276880Y49323738D02*
X44324500Y49323738D01*
X44324500Y51323738D01*
X47086404Y49514214D02*
X46991166Y49418976D01*
X46705452Y49323738D01*
X46514976Y49323738D01*
X46229261Y49418976D01*
X46038785Y49609452D01*
X45943547Y49799928D01*
X45848309Y50180880D01*
X45848309Y50466595D01*
X45943547Y50847547D01*
X46038785Y51038023D01*
X46229261Y51228500D01*
X46514976Y51323738D01*
X46705452Y51323738D01*
X46991166Y51228500D01*
X47086404Y51133261D01*
X47943547Y49323738D02*
X47943547Y51323738D01*
X48419738Y51323738D01*
X48705452Y51228500D01*
X48895928Y51038023D01*
X48991166Y50847547D01*
X49086404Y50466595D01*
X49086404Y50180880D01*
X48991166Y49799928D01*
X48895928Y49609452D01*
X48705452Y49418976D01*
X48419738Y49323738D01*
X47943547Y49323738D01*
X52134023Y50371357D02*
X52419738Y50276119D01*
X52514976Y50180880D01*
X52610214Y49990404D01*
X52610214Y49704690D01*
X52514976Y49514214D01*
X52419738Y49418976D01*
X52229261Y49323738D01*
X51467357Y49323738D01*
X51467357Y51323738D01*
X52134023Y51323738D01*
X52324500Y51228500D01*
X52419738Y51133261D01*
X52514976Y50942785D01*
X52514976Y50752309D01*
X52419738Y50561833D01*
X52324500Y50466595D01*
X52134023Y50371357D01*
X51467357Y50371357D01*
X53848309Y51323738D02*
X54229261Y51323738D01*
X54419738Y51228500D01*
X54610214Y51038023D01*
X54705452Y50657071D01*
X54705452Y49990404D01*
X54610214Y49609452D01*
X54419738Y49418976D01*
X54229261Y49323738D01*
X53848309Y49323738D01*
X53657833Y49418976D01*
X53467357Y49609452D01*
X53372119Y49990404D01*
X53372119Y50657071D01*
X53467357Y51038023D01*
X53657833Y51228500D01*
X53848309Y51323738D01*
X55467357Y49895166D02*
X56419738Y49895166D01*
X55276880Y49323738D02*
X55943547Y51323738D01*
X56610214Y49323738D01*
X58419738Y49323738D02*
X57753071Y50276119D01*
X57276880Y49323738D02*
X57276880Y51323738D01*
X58038785Y51323738D01*
X58229261Y51228500D01*
X58324500Y51133261D01*
X58419738Y50942785D01*
X58419738Y50657071D01*
X58324500Y50466595D01*
X58229261Y50371357D01*
X58038785Y50276119D01*
X57276880Y50276119D01*
X59276880Y49323738D02*
X59276880Y51323738D01*
X59753071Y51323738D01*
X60038785Y51228500D01*
X60229261Y51038023D01*
X60324500Y50847547D01*
X60419738Y50466595D01*
X60419738Y50180880D01*
X60324500Y49799928D01*
X60229261Y49609452D01*
X60038785Y49418976D01*
X59753071Y49323738D01*
X59276880Y49323738D01*
X62514976Y51323738D02*
X63181642Y49323738D01*
X63848309Y51323738D01*
X65562595Y49323738D02*
X64419738Y49323738D01*
X64991166Y49323738D02*
X64991166Y51323738D01*
X64800690Y51038023D01*
X64610214Y50847547D01*
X64419738Y50752309D01*
X66419738Y49514214D02*
X66514976Y49418976D01*
X66419738Y49323738D01*
X66324499Y49418976D01*
X66419738Y49514214D01*
X66419738Y49323738D01*
X67753071Y51323738D02*
X67943547Y51323738D01*
X68134023Y51228500D01*
X68229261Y51133261D01*
X68324500Y50942785D01*
X68419738Y50561833D01*
X68419738Y50085642D01*
X68324500Y49704690D01*
X68229261Y49514214D01*
X68134023Y49418976D01*
X67943547Y49323738D01*
X67753071Y49323738D01*
X67562595Y49418976D01*
X67467357Y49514214D01*
X67372119Y49704690D01*
X67276880Y50085642D01*
X67276880Y50561833D01*
X67372119Y50942785D01*
X67467357Y51133261D01*
X67562595Y51228500D01*
X67753071Y51323738D01*
D11*
%TO.C,G\u002A\u002A\u002A*%
G36*
X45569291Y58594562D02*
G01*
X45829399Y58594525D01*
X46059908Y58594367D01*
X46262968Y58593981D01*
X46440730Y58593259D01*
X46595346Y58592093D01*
X46728965Y58590375D01*
X46843740Y58587999D01*
X46941820Y58584856D01*
X47025356Y58580840D01*
X47096500Y58575841D01*
X47157401Y58569753D01*
X47210211Y58562469D01*
X47257081Y58553880D01*
X47300162Y58543879D01*
X47341603Y58532358D01*
X47383557Y58519211D01*
X47428173Y58504328D01*
X47437716Y58501096D01*
X47645999Y58414185D01*
X47842309Y58300043D01*
X48023772Y58161668D01*
X48187511Y58002059D01*
X48330652Y57824214D01*
X48450320Y57631132D01*
X48543637Y57425811D01*
X48583354Y57306466D01*
X48634202Y57077642D01*
X48656357Y56844746D01*
X48650171Y56612007D01*
X48615995Y56383651D01*
X48554183Y56163907D01*
X48472095Y55970761D01*
X48356638Y55775222D01*
X48215567Y55593794D01*
X48052646Y55429771D01*
X47871636Y55286447D01*
X47676302Y55167116D01*
X47470406Y55075071D01*
X47434035Y55062173D01*
X47383847Y55045436D01*
X47336695Y55030990D01*
X47289890Y55018668D01*
X47240744Y55008300D01*
X47186569Y54999719D01*
X47124677Y54992757D01*
X47052378Y54987245D01*
X46966985Y54983014D01*
X46865810Y54979897D01*
X46746163Y54977725D01*
X46605357Y54976331D01*
X46440703Y54975545D01*
X46249513Y54975199D01*
X46043358Y54975125D01*
X45037375Y54975125D01*
X45037375Y53165375D01*
X44132500Y53165375D01*
X44132500Y55879038D01*
X47013812Y55887938D01*
X47118145Y55923422D01*
X47266280Y55989991D01*
X47403578Y56083673D01*
X47524810Y56200332D01*
X47610388Y56313026D01*
X47684764Y56455771D01*
X47730522Y56608644D01*
X47747458Y56767604D01*
X47735368Y56928607D01*
X47694045Y57087611D01*
X47654466Y57181750D01*
X47604925Y57262971D01*
X47535011Y57350190D01*
X47452575Y57435541D01*
X47365469Y57511158D01*
X47281545Y57569171D01*
X47251937Y57585054D01*
X47213489Y57603672D01*
X47179006Y57619661D01*
X47145830Y57633238D01*
X47111303Y57644618D01*
X47072768Y57654016D01*
X47027567Y57661648D01*
X46973043Y57667730D01*
X46906538Y57672478D01*
X46825394Y57676106D01*
X46726953Y57678831D01*
X46608559Y57680869D01*
X46467552Y57682434D01*
X46301277Y57683742D01*
X46107074Y57685010D01*
X46012521Y57685608D01*
X45027105Y57691874D01*
X44575938Y58143250D01*
X44124772Y58594625D01*
X45569291Y58594562D01*
G37*
X45569291Y58594562D02*
X45829399Y58594525D01*
X46059908Y58594367D01*
X46262968Y58593981D01*
X46440730Y58593259D01*
X46595346Y58592093D01*
X46728965Y58590375D01*
X46843740Y58587999D01*
X46941820Y58584856D01*
X47025356Y58580840D01*
X47096500Y58575841D01*
X47157401Y58569753D01*
X47210211Y58562469D01*
X47257081Y58553880D01*
X47300162Y58543879D01*
X47341603Y58532358D01*
X47383557Y58519211D01*
X47428173Y58504328D01*
X47437716Y58501096D01*
X47645999Y58414185D01*
X47842309Y58300043D01*
X48023772Y58161668D01*
X48187511Y58002059D01*
X48330652Y57824214D01*
X48450320Y57631132D01*
X48543637Y57425811D01*
X48583354Y57306466D01*
X48634202Y57077642D01*
X48656357Y56844746D01*
X48650171Y56612007D01*
X48615995Y56383651D01*
X48554183Y56163907D01*
X48472095Y55970761D01*
X48356638Y55775222D01*
X48215567Y55593794D01*
X48052646Y55429771D01*
X47871636Y55286447D01*
X47676302Y55167116D01*
X47470406Y55075071D01*
X47434035Y55062173D01*
X47383847Y55045436D01*
X47336695Y55030990D01*
X47289890Y55018668D01*
X47240744Y55008300D01*
X47186569Y54999719D01*
X47124677Y54992757D01*
X47052378Y54987245D01*
X46966985Y54983014D01*
X46865810Y54979897D01*
X46746163Y54977725D01*
X46605357Y54976331D01*
X46440703Y54975545D01*
X46249513Y54975199D01*
X46043358Y54975125D01*
X45037375Y54975125D01*
X45037375Y53165375D01*
X44132500Y53165375D01*
X44132500Y55879038D01*
X47013812Y55887938D01*
X47118145Y55923422D01*
X47266280Y55989991D01*
X47403578Y56083673D01*
X47524810Y56200332D01*
X47610388Y56313026D01*
X47684764Y56455771D01*
X47730522Y56608644D01*
X47747458Y56767604D01*
X47735368Y56928607D01*
X47694045Y57087611D01*
X47654466Y57181750D01*
X47604925Y57262971D01*
X47535011Y57350190D01*
X47452575Y57435541D01*
X47365469Y57511158D01*
X47281545Y57569171D01*
X47251937Y57585054D01*
X47213489Y57603672D01*
X47179006Y57619661D01*
X47145830Y57633238D01*
X47111303Y57644618D01*
X47072768Y57654016D01*
X47027567Y57661648D01*
X46973043Y57667730D01*
X46906538Y57672478D01*
X46825394Y57676106D01*
X46726953Y57678831D01*
X46608559Y57680869D01*
X46467552Y57682434D01*
X46301277Y57683742D01*
X46107074Y57685010D01*
X46012521Y57685608D01*
X45027105Y57691874D01*
X44575938Y58143250D01*
X44124772Y58594625D01*
X45569291Y58594562D01*
G36*
X53054250Y53165375D02*
G01*
X49432119Y53165375D01*
X49873966Y53617538D01*
X50315812Y54069700D01*
X53054250Y54070250D01*
X53054250Y53165375D01*
G37*
X53054250Y53165375D02*
X49432119Y53165375D01*
X49873966Y53617538D01*
X50315812Y54069700D01*
X53054250Y54070250D01*
X53054250Y53165375D01*
G36*
X57579731Y56800727D02*
G01*
X57691783Y56576823D01*
X57799840Y56360748D01*
X57903055Y56154205D01*
X58000581Y55958894D01*
X58091570Y55776517D01*
X58175177Y55608775D01*
X58250554Y55457369D01*
X58316855Y55324000D01*
X58373232Y55210369D01*
X58418838Y55118177D01*
X58452827Y55049126D01*
X58474353Y55004917D01*
X58482567Y54987251D01*
X58482624Y54987032D01*
X58467594Y54984141D01*
X58424562Y54981503D01*
X58357278Y54979207D01*
X58269489Y54977340D01*
X58164944Y54975990D01*
X58047391Y54975245D01*
X57975478Y54975125D01*
X57467457Y54975125D01*
X57074647Y55760938D01*
X57001281Y55907418D01*
X56932088Y56045012D01*
X56868372Y56171163D01*
X56811440Y56283312D01*
X56762596Y56378902D01*
X56723144Y56455376D01*
X56694391Y56510176D01*
X56677642Y56540744D01*
X56673824Y56546410D01*
X56665822Y56532460D01*
X56644491Y56491861D01*
X56610711Y56426354D01*
X56565365Y56337682D01*
X56509335Y56227588D01*
X56443503Y56097812D01*
X56368751Y55950098D01*
X56285960Y55786187D01*
X56196013Y55607822D01*
X56099792Y55416745D01*
X55998178Y55214698D01*
X55892053Y55003422D01*
X55817937Y54855722D01*
X54970063Y53165375D01*
X53959106Y53165375D01*
X55318410Y55883946D01*
X56677714Y58602516D01*
X57579731Y56800727D01*
G37*
X57579731Y56800727D02*
X57691783Y56576823D01*
X57799840Y56360748D01*
X57903055Y56154205D01*
X58000581Y55958894D01*
X58091570Y55776517D01*
X58175177Y55608775D01*
X58250554Y55457369D01*
X58316855Y55324000D01*
X58373232Y55210369D01*
X58418838Y55118177D01*
X58452827Y55049126D01*
X58474353Y55004917D01*
X58482567Y54987251D01*
X58482624Y54987032D01*
X58467594Y54984141D01*
X58424562Y54981503D01*
X58357278Y54979207D01*
X58269489Y54977340D01*
X58164944Y54975990D01*
X58047391Y54975245D01*
X57975478Y54975125D01*
X57467457Y54975125D01*
X57074647Y55760938D01*
X57001281Y55907418D01*
X56932088Y56045012D01*
X56868372Y56171163D01*
X56811440Y56283312D01*
X56762596Y56378902D01*
X56723144Y56455376D01*
X56694391Y56510176D01*
X56677642Y56540744D01*
X56673824Y56546410D01*
X56665822Y56532460D01*
X56644491Y56491861D01*
X56610711Y56426354D01*
X56565365Y56337682D01*
X56509335Y56227588D01*
X56443503Y56097812D01*
X56368751Y55950098D01*
X56285960Y55786187D01*
X56196013Y55607822D01*
X56099792Y55416745D01*
X55998178Y55214698D01*
X55892053Y55003422D01*
X55817937Y54855722D01*
X54970063Y53165375D01*
X53959106Y53165375D01*
X55318410Y55883946D01*
X56677714Y58602516D01*
X57579731Y56800727D01*
G36*
X59162321Y53628220D02*
G01*
X59217940Y53519140D01*
X59268592Y53419185D01*
X59312536Y53331839D01*
X59348031Y53260588D01*
X59373334Y53208917D01*
X59386706Y53180310D01*
X59388375Y53175783D01*
X59373128Y53173246D01*
X59329904Y53170933D01*
X59262472Y53168921D01*
X59174605Y53167288D01*
X59070074Y53166112D01*
X58952649Y53165472D01*
X58884214Y53165375D01*
X58380053Y53165375D01*
X58154000Y53617813D01*
X57927947Y54070250D01*
X58936267Y54070250D01*
X59162321Y53628220D01*
G37*
X59162321Y53628220D02*
X59217940Y53519140D01*
X59268592Y53419185D01*
X59312536Y53331839D01*
X59348031Y53260588D01*
X59373334Y53208917D01*
X59386706Y53180310D01*
X59388375Y53175783D01*
X59373128Y53173246D01*
X59329904Y53170933D01*
X59262472Y53168921D01*
X59174605Y53167288D01*
X59070074Y53166112D01*
X58952649Y53165472D01*
X58884214Y53165375D01*
X58380053Y53165375D01*
X58154000Y53617813D01*
X57927947Y54070250D01*
X58936267Y54070250D01*
X59162321Y53628220D01*
G36*
X57471468Y58567469D02*
G01*
X57487205Y58553255D01*
X57525229Y58519008D01*
X57584213Y58465920D01*
X57662832Y58395183D01*
X57759760Y58307990D01*
X57873671Y58205534D01*
X58003239Y58089006D01*
X58147138Y57959599D01*
X58304044Y57818505D01*
X58472628Y57666917D01*
X58651567Y57506027D01*
X58839534Y57337027D01*
X59035203Y57161109D01*
X59237249Y56979467D01*
X59277250Y56943506D01*
X61047312Y55352235D01*
X61051356Y56973430D01*
X61055399Y58594625D01*
X61960125Y58594625D01*
X61960125Y55880000D01*
X61960102Y55589003D01*
X61960035Y55306688D01*
X61959926Y55034683D01*
X61959779Y54774611D01*
X61959594Y54528098D01*
X61959375Y54296768D01*
X61959123Y54082248D01*
X61958842Y53886162D01*
X61958533Y53710135D01*
X61958200Y53555792D01*
X61957843Y53424759D01*
X61957467Y53318660D01*
X61957072Y53239121D01*
X61956662Y53187766D01*
X61956239Y53166221D01*
X61956156Y53165632D01*
X61944112Y53176086D01*
X61909719Y53206637D01*
X61854238Y53256154D01*
X61778929Y53323506D01*
X61685053Y53407561D01*
X61573871Y53507190D01*
X61446644Y53621261D01*
X61304634Y53748642D01*
X61149100Y53888204D01*
X60981304Y54038816D01*
X60802506Y54199345D01*
X60613969Y54368663D01*
X60416951Y54545636D01*
X60212716Y54729135D01*
X60086875Y54842220D01*
X59871442Y55035817D01*
X59657938Y55227666D01*
X59447996Y55416297D01*
X59243253Y55600242D01*
X59045344Y55778031D01*
X58855906Y55948195D01*
X58676572Y56109266D01*
X58508979Y56259776D01*
X58354763Y56398253D01*
X58215559Y56523231D01*
X58093003Y56633240D01*
X57988730Y56726812D01*
X57904375Y56802476D01*
X57841575Y56858765D01*
X57829035Y56869995D01*
X57436509Y57221438D01*
X57436129Y57910799D01*
X57435750Y58600159D01*
X57471468Y58567469D01*
G37*
X57471468Y58567469D02*
X57487205Y58553255D01*
X57525229Y58519008D01*
X57584213Y58465920D01*
X57662832Y58395183D01*
X57759760Y58307990D01*
X57873671Y58205534D01*
X58003239Y58089006D01*
X58147138Y57959599D01*
X58304044Y57818505D01*
X58472628Y57666917D01*
X58651567Y57506027D01*
X58839534Y57337027D01*
X59035203Y57161109D01*
X59237249Y56979467D01*
X59277250Y56943506D01*
X61047312Y55352235D01*
X61051356Y56973430D01*
X61055399Y58594625D01*
X61960125Y58594625D01*
X61960125Y55880000D01*
X61960102Y55589003D01*
X61960035Y55306688D01*
X61959926Y55034683D01*
X61959779Y54774611D01*
X61959594Y54528098D01*
X61959375Y54296768D01*
X61959123Y54082248D01*
X61958842Y53886162D01*
X61958533Y53710135D01*
X61958200Y53555792D01*
X61957843Y53424759D01*
X61957467Y53318660D01*
X61957072Y53239121D01*
X61956662Y53187766D01*
X61956239Y53166221D01*
X61956156Y53165632D01*
X61944112Y53176086D01*
X61909719Y53206637D01*
X61854238Y53256154D01*
X61778929Y53323506D01*
X61685053Y53407561D01*
X61573871Y53507190D01*
X61446644Y53621261D01*
X61304634Y53748642D01*
X61149100Y53888204D01*
X60981304Y54038816D01*
X60802506Y54199345D01*
X60613969Y54368663D01*
X60416951Y54545636D01*
X60212716Y54729135D01*
X60086875Y54842220D01*
X59871442Y55035817D01*
X59657938Y55227666D01*
X59447996Y55416297D01*
X59243253Y55600242D01*
X59045344Y55778031D01*
X58855906Y55948195D01*
X58676572Y56109266D01*
X58508979Y56259776D01*
X58354763Y56398253D01*
X58215559Y56523231D01*
X58093003Y56633240D01*
X57988730Y56726812D01*
X57904375Y56802476D01*
X57841575Y56858765D01*
X57829035Y56869995D01*
X57436509Y57221438D01*
X57436129Y57910799D01*
X57435750Y58600159D01*
X57471468Y58567469D01*
G36*
X65915318Y58585742D02*
G01*
X66051525Y58578154D01*
X66168123Y58565496D01*
X66206687Y58559127D01*
X66488769Y58490718D01*
X66762499Y58393094D01*
X67024471Y58267935D01*
X67271280Y58116922D01*
X67499522Y57941736D01*
X67553219Y57894417D01*
X67661502Y57796315D01*
X67584969Y57717927D01*
X67550090Y57683020D01*
X67496991Y57630916D01*
X67430475Y57566280D01*
X67355347Y57493776D01*
X67276411Y57418068D01*
X67258604Y57401057D01*
X67008772Y57162576D01*
X66925229Y57238201D01*
X66753222Y57373146D01*
X66561673Y57485888D01*
X66355646Y57574285D01*
X66140208Y57636198D01*
X65920423Y57669485D01*
X65901093Y57670970D01*
X65646994Y57674935D01*
X65405785Y57650112D01*
X65177779Y57596610D01*
X64963290Y57514541D01*
X64762632Y57404016D01*
X64576119Y57265145D01*
X64468570Y57165706D01*
X64307717Y56983255D01*
X64172403Y56783882D01*
X64064311Y56570472D01*
X63985122Y56345909D01*
X63980450Y56328903D01*
X63965310Y56270104D01*
X63954314Y56218432D01*
X63946811Y56166887D01*
X63942147Y56108469D01*
X63939672Y56036177D01*
X63938733Y55943009D01*
X63938634Y55880000D01*
X63939005Y55772291D01*
X63940550Y55689325D01*
X63943924Y55624104D01*
X63949777Y55569626D01*
X63958762Y55518890D01*
X63971531Y55464895D01*
X63980450Y55431098D01*
X64026860Y55287609D01*
X64088887Y55137810D01*
X64160653Y54994641D01*
X64231552Y54877958D01*
X64332639Y54746543D01*
X64455603Y54614730D01*
X64592275Y54489946D01*
X64734487Y54379619D01*
X64874070Y54291177D01*
X64881125Y54287304D01*
X65019495Y54221701D01*
X65171960Y54166154D01*
X65328915Y54123290D01*
X65480756Y54095739D01*
X65616440Y54086125D01*
X65719705Y54086125D01*
X66245622Y53737849D01*
X66360969Y53661203D01*
X66467737Y53589757D01*
X66563082Y53525450D01*
X66644160Y53470224D01*
X66708128Y53426018D01*
X66752142Y53394775D01*
X66773359Y53378433D01*
X66774863Y53376693D01*
X66762250Y53365887D01*
X66724405Y53348895D01*
X66666841Y53327455D01*
X66595071Y53303305D01*
X66514608Y53278182D01*
X66430966Y53253824D01*
X66349658Y53231968D01*
X66276196Y53214351D01*
X66230500Y53205133D01*
X66150149Y53194128D01*
X66047527Y53185032D01*
X65930383Y53178062D01*
X65806468Y53173430D01*
X65683534Y53171353D01*
X65569331Y53172046D01*
X65471611Y53175723D01*
X65401334Y53182143D01*
X65194319Y53217822D01*
X65000226Y53267012D01*
X64808984Y53332877D01*
X64610523Y53418580D01*
X64539812Y53452701D01*
X64279078Y53598419D01*
X64040227Y53767051D01*
X63823644Y53958213D01*
X63629714Y54171525D01*
X63458821Y54406604D01*
X63311349Y54663070D01*
X63302101Y54681438D01*
X63182457Y54952986D01*
X63094353Y55225367D01*
X63037581Y55499528D01*
X63011931Y55776419D01*
X63013211Y55991125D01*
X63042320Y56287436D01*
X63100709Y56571483D01*
X63188394Y56843301D01*
X63305389Y57102923D01*
X63451709Y57350380D01*
X63627368Y57585707D01*
X63805895Y57782448D01*
X64022702Y57979418D01*
X64258729Y58151792D01*
X64511716Y58298355D01*
X64779404Y58417893D01*
X65059533Y58509191D01*
X65234627Y58550311D01*
X65342673Y58566925D01*
X65473179Y58578852D01*
X65617732Y58586015D01*
X65767916Y58588337D01*
X65915318Y58585742D01*
G37*
X65915318Y58585742D02*
X66051525Y58578154D01*
X66168123Y58565496D01*
X66206687Y58559127D01*
X66488769Y58490718D01*
X66762499Y58393094D01*
X67024471Y58267935D01*
X67271280Y58116922D01*
X67499522Y57941736D01*
X67553219Y57894417D01*
X67661502Y57796315D01*
X67584969Y57717927D01*
X67550090Y57683020D01*
X67496991Y57630916D01*
X67430475Y57566280D01*
X67355347Y57493776D01*
X67276411Y57418068D01*
X67258604Y57401057D01*
X67008772Y57162576D01*
X66925229Y57238201D01*
X66753222Y57373146D01*
X66561673Y57485888D01*
X66355646Y57574285D01*
X66140208Y57636198D01*
X65920423Y57669485D01*
X65901093Y57670970D01*
X65646994Y57674935D01*
X65405785Y57650112D01*
X65177779Y57596610D01*
X64963290Y57514541D01*
X64762632Y57404016D01*
X64576119Y57265145D01*
X64468570Y57165706D01*
X64307717Y56983255D01*
X64172403Y56783882D01*
X64064311Y56570472D01*
X63985122Y56345909D01*
X63980450Y56328903D01*
X63965310Y56270104D01*
X63954314Y56218432D01*
X63946811Y56166887D01*
X63942147Y56108469D01*
X63939672Y56036177D01*
X63938733Y55943009D01*
X63938634Y55880000D01*
X63939005Y55772291D01*
X63940550Y55689325D01*
X63943924Y55624104D01*
X63949777Y55569626D01*
X63958762Y55518890D01*
X63971531Y55464895D01*
X63980450Y55431098D01*
X64026860Y55287609D01*
X64088887Y55137810D01*
X64160653Y54994641D01*
X64231552Y54877958D01*
X64332639Y54746543D01*
X64455603Y54614730D01*
X64592275Y54489946D01*
X64734487Y54379619D01*
X64874070Y54291177D01*
X64881125Y54287304D01*
X65019495Y54221701D01*
X65171960Y54166154D01*
X65328915Y54123290D01*
X65480756Y54095739D01*
X65616440Y54086125D01*
X65719705Y54086125D01*
X66245622Y53737849D01*
X66360969Y53661203D01*
X66467737Y53589757D01*
X66563082Y53525450D01*
X66644160Y53470224D01*
X66708128Y53426018D01*
X66752142Y53394775D01*
X66773359Y53378433D01*
X66774863Y53376693D01*
X66762250Y53365887D01*
X66724405Y53348895D01*
X66666841Y53327455D01*
X66595071Y53303305D01*
X66514608Y53278182D01*
X66430966Y53253824D01*
X66349658Y53231968D01*
X66276196Y53214351D01*
X66230500Y53205133D01*
X66150149Y53194128D01*
X66047527Y53185032D01*
X65930383Y53178062D01*
X65806468Y53173430D01*
X65683534Y53171353D01*
X65569331Y53172046D01*
X65471611Y53175723D01*
X65401334Y53182143D01*
X65194319Y53217822D01*
X65000226Y53267012D01*
X64808984Y53332877D01*
X64610523Y53418580D01*
X64539812Y53452701D01*
X64279078Y53598419D01*
X64040227Y53767051D01*
X63823644Y53958213D01*
X63629714Y54171525D01*
X63458821Y54406604D01*
X63311349Y54663070D01*
X63302101Y54681438D01*
X63182457Y54952986D01*
X63094353Y55225367D01*
X63037581Y55499528D01*
X63011931Y55776419D01*
X63013211Y55991125D01*
X63042320Y56287436D01*
X63100709Y56571483D01*
X63188394Y56843301D01*
X63305389Y57102923D01*
X63451709Y57350380D01*
X63627368Y57585707D01*
X63805895Y57782448D01*
X64022702Y57979418D01*
X64258729Y58151792D01*
X64511716Y58298355D01*
X64779404Y58417893D01*
X65059533Y58509191D01*
X65234627Y58550311D01*
X65342673Y58566925D01*
X65473179Y58578852D01*
X65617732Y58586015D01*
X65767916Y58588337D01*
X65915318Y58585742D01*
G36*
X68834000Y57237313D02*
G01*
X67476757Y55880000D01*
X68834000Y54522688D01*
X70191242Y53165375D01*
X69548340Y53165388D01*
X68905437Y53165400D01*
X67548125Y54510794D01*
X67374999Y54682499D01*
X67208202Y54848122D01*
X67049117Y55006280D01*
X66899128Y55155587D01*
X66759620Y55294660D01*
X66631975Y55422115D01*
X66517579Y55536567D01*
X66417814Y55636632D01*
X66334066Y55720926D01*
X66267717Y55788064D01*
X66220152Y55836663D01*
X66192755Y55865338D01*
X66186280Y55872911D01*
X66196760Y55885998D01*
X66228457Y55920020D01*
X66280001Y55973597D01*
X66350023Y56045352D01*
X66437153Y56133903D01*
X66540022Y56237873D01*
X66657261Y56355882D01*
X66787499Y56486552D01*
X66929368Y56628502D01*
X67081497Y56780354D01*
X67242517Y56940730D01*
X67411059Y57108248D01*
X67545999Y57242130D01*
X68910250Y58594625D01*
X70191242Y58594625D01*
X68834000Y57237313D01*
G37*
X68834000Y57237313D02*
X67476757Y55880000D01*
X68834000Y54522688D01*
X70191242Y53165375D01*
X69548340Y53165388D01*
X68905437Y53165400D01*
X67548125Y54510794D01*
X67374999Y54682499D01*
X67208202Y54848122D01*
X67049117Y55006280D01*
X66899128Y55155587D01*
X66759620Y55294660D01*
X66631975Y55422115D01*
X66517579Y55536567D01*
X66417814Y55636632D01*
X66334066Y55720926D01*
X66267717Y55788064D01*
X66220152Y55836663D01*
X66192755Y55865338D01*
X66186280Y55872911D01*
X66196760Y55885998D01*
X66228457Y55920020D01*
X66280001Y55973597D01*
X66350023Y56045352D01*
X66437153Y56133903D01*
X66540022Y56237873D01*
X66657261Y56355882D01*
X66787499Y56486552D01*
X66929368Y56628502D01*
X67081497Y56780354D01*
X67242517Y56940730D01*
X67411059Y57108248D01*
X67545999Y57242130D01*
X68910250Y58594625D01*
X70191242Y58594625D01*
X68834000Y57237313D01*
G36*
X50339625Y55315341D02*
G01*
X49893787Y54859483D01*
X49796228Y54760090D01*
X49705328Y54668169D01*
X49623520Y54586130D01*
X49553239Y54516385D01*
X49496919Y54461343D01*
X49456994Y54423414D01*
X49435899Y54405009D01*
X49433412Y54403625D01*
X49431388Y54419291D01*
X49429483Y54465449D01*
X49427706Y54540842D01*
X49426066Y54644213D01*
X49424571Y54774304D01*
X49423230Y54929859D01*
X49422052Y55109620D01*
X49421046Y55312329D01*
X49420220Y55536730D01*
X49419583Y55781565D01*
X49419144Y56045576D01*
X49418911Y56327507D01*
X49418875Y56499125D01*
X49418875Y58594625D01*
X50339625Y58594625D01*
X50339625Y55315341D01*
G37*
X50339625Y55315341D02*
X49893787Y54859483D01*
X49796228Y54760090D01*
X49705328Y54668169D01*
X49623520Y54586130D01*
X49553239Y54516385D01*
X49496919Y54461343D01*
X49456994Y54423414D01*
X49435899Y54405009D01*
X49433412Y54403625D01*
X49431388Y54419291D01*
X49429483Y54465449D01*
X49427706Y54540842D01*
X49426066Y54644213D01*
X49424571Y54774304D01*
X49423230Y54929859D01*
X49422052Y55109620D01*
X49421046Y55312329D01*
X49420220Y55536730D01*
X49419583Y55781565D01*
X49419144Y56045576D01*
X49418911Y56327507D01*
X49418875Y56499125D01*
X49418875Y58594625D01*
X50339625Y58594625D01*
X50339625Y55315341D01*
D12*
%TO.C,R1*%
X41544000Y46070000D02*
X37704000Y46070000D01*
X41544000Y47910000D02*
X37704000Y47910000D01*
%TO.C,C5*%
X2770000Y47933000D02*
X7310000Y47933000D01*
X2770000Y45793000D02*
X7310000Y45793000D01*
X2770000Y47933000D02*
X2770000Y47918000D01*
X2770000Y45808000D02*
X2770000Y45793000D01*
X7310000Y47933000D02*
X7310000Y47918000D01*
X7310000Y45808000D02*
X7310000Y45793000D01*
%TO.C,C4*%
X55934000Y35330000D02*
X55934000Y30790000D01*
X53794000Y35330000D02*
X53794000Y30790000D01*
X55934000Y35330000D02*
X55919000Y35330000D01*
X53809000Y35330000D02*
X53794000Y35330000D01*
X55934000Y30790000D02*
X55919000Y30790000D01*
X53809000Y30790000D02*
X53794000Y30790000D01*
%TO.C,C3*%
X70842000Y28756000D02*
X75382000Y28756000D01*
X70842000Y26616000D02*
X75382000Y26616000D01*
X70842000Y28756000D02*
X70842000Y28741000D01*
X70842000Y26631000D02*
X70842000Y26616000D01*
X75382000Y28756000D02*
X75382000Y28741000D01*
X75382000Y26631000D02*
X75382000Y26616000D01*
%TO.C,C2*%
X30026000Y35584000D02*
X30026000Y31044000D01*
X27886000Y35584000D02*
X27886000Y31044000D01*
X30026000Y35584000D02*
X30011000Y35584000D01*
X27901000Y35584000D02*
X27886000Y35584000D01*
X30026000Y31044000D02*
X30011000Y31044000D01*
X27901000Y31044000D02*
X27886000Y31044000D01*
%TO.C,C1*%
X24868000Y12500000D02*
X29408000Y12500000D01*
X24868000Y10360000D02*
X29408000Y10360000D01*
X24868000Y12500000D02*
X24868000Y12485000D01*
X24868000Y10375000D02*
X24868000Y10360000D01*
X29408000Y12500000D02*
X29408000Y12485000D01*
X29408000Y10375000D02*
X29408000Y10360000D01*
%TO.C,RV1*%
X77732075Y55007863D02*
G75*
G02*
X77376000Y53466000I-3270075J-56863D01*
G01*
X75947202Y52037613D02*
G75*
G02*
X72978000Y52037000I-1485202J2913387D01*
G01*
X71548171Y53467032D02*
G75*
G02*
X73398000Y58043000I2913829J1483968D01*
G01*
X75526608Y58042846D02*
G75*
G02*
X77732000Y54951000I-1064608J-3091846D01*
G01*
%TO.C,U4*%
X27298000Y29912000D02*
X27298000Y40192000D01*
X6738000Y29912000D02*
X27298000Y29912000D01*
X6738000Y40192000D02*
X6738000Y29912000D01*
X27298000Y40192000D02*
X6738000Y40192000D01*
X27238000Y32402000D02*
X27238000Y34052000D01*
X6798000Y32402000D02*
X27238000Y32402000D01*
X6798000Y37702000D02*
X6798000Y32402000D01*
X27238000Y37702000D02*
X6798000Y37702000D01*
X27238000Y36052000D02*
X27238000Y37702000D01*
X27238000Y34052000D02*
G75*
G02*
X27238000Y36052000I0J1000000D01*
G01*
%TO.C,U3*%
X53206000Y29531000D02*
X53206000Y39811000D01*
X32646000Y29531000D02*
X53206000Y29531000D01*
X32646000Y39811000D02*
X32646000Y29531000D01*
X53206000Y39811000D02*
X32646000Y39811000D01*
X53146000Y32021000D02*
X53146000Y33671000D01*
X32706000Y32021000D02*
X53146000Y32021000D01*
X32706000Y37321000D02*
X32706000Y32021000D01*
X53146000Y37321000D02*
X32706000Y37321000D01*
X53146000Y35671000D02*
X53146000Y37321000D01*
X53146000Y33671000D02*
G75*
G02*
X53146000Y35671000I0J1000000D01*
G01*
%TO.C,U2*%
X77145500Y29404000D02*
X77145500Y39684000D01*
X56585500Y29404000D02*
X77145500Y29404000D01*
X56585500Y39684000D02*
X56585500Y29404000D01*
X77145500Y39684000D02*
X56585500Y39684000D01*
X77085500Y31894000D02*
X77085500Y33544000D01*
X56645500Y31894000D02*
X77085500Y31894000D01*
X56645500Y37194000D02*
X56645500Y31894000D01*
X77085500Y37194000D02*
X56645500Y37194000D01*
X77085500Y35544000D02*
X77085500Y37194000D01*
X77085500Y33544000D02*
G75*
G02*
X77085500Y35544000I0J1000000D01*
G01*
%TO.C,U1*%
X30981000Y13084500D02*
X30981000Y23364500D01*
X12961000Y13084500D02*
X30981000Y13084500D01*
X12961000Y23364500D02*
X12961000Y13084500D01*
X30981000Y23364500D02*
X12961000Y23364500D01*
X30921000Y15574500D02*
X30921000Y17224500D01*
X13021000Y15574500D02*
X30921000Y15574500D01*
X13021000Y20874500D02*
X13021000Y15574500D01*
X30921000Y20874500D02*
X13021000Y20874500D01*
X30921000Y19224500D02*
X30921000Y20874500D01*
X30921000Y17224500D02*
G75*
G02*
X30921000Y19224500I0J1000000D01*
G01*
%TO.C,J2*%
X42732000Y49911000D02*
X42732000Y48801000D01*
X42732000Y48801000D02*
X41402000Y48801000D01*
X42732000Y60001000D02*
X1972000Y60001000D01*
X1972000Y60001000D02*
X1972000Y51371000D01*
X42732000Y51371000D02*
X1972000Y51371000D01*
X42732000Y60001000D02*
X42732000Y51371000D01*
X4572000Y60001000D02*
X4572000Y51371000D01*
X7112000Y60001000D02*
X7112000Y51371000D01*
X9652000Y60001000D02*
X9652000Y51371000D01*
X12192000Y60001000D02*
X12192000Y51371000D01*
X14732000Y60001000D02*
X14732000Y51371000D01*
X17272000Y60001000D02*
X17272000Y51371000D01*
X19812000Y60001000D02*
X19812000Y51371000D01*
X22352000Y60001000D02*
X22352000Y51371000D01*
X24892000Y60001000D02*
X24892000Y51371000D01*
X27432000Y60001000D02*
X27432000Y51371000D01*
X29972000Y60001000D02*
X29972000Y51371000D01*
X32512000Y60001000D02*
X32512000Y51371000D01*
X35052000Y60001000D02*
X35052000Y51371000D01*
X37592000Y60001000D02*
X37592000Y51371000D01*
X40132000Y60001000D02*
X40132000Y51371000D01*
X2942000Y51371000D02*
X2942000Y50961000D01*
X3662000Y51371000D02*
X3662000Y50961000D01*
X5482000Y51371000D02*
X5482000Y50961000D01*
X6202000Y51371000D02*
X6202000Y50961000D01*
X8022000Y51371000D02*
X8022000Y50961000D01*
X8742000Y51371000D02*
X8742000Y50961000D01*
X10562000Y51371000D02*
X10562000Y50961000D01*
X11282000Y51371000D02*
X11282000Y50961000D01*
X13102000Y51371000D02*
X13102000Y50961000D01*
X13822000Y51371000D02*
X13822000Y50961000D01*
X15642000Y51371000D02*
X15642000Y50961000D01*
X16362000Y51371000D02*
X16362000Y50961000D01*
X18182000Y51371000D02*
X18182000Y50961000D01*
X18902000Y51371000D02*
X18902000Y50961000D01*
X20722000Y51371000D02*
X20722000Y50961000D01*
X21442000Y51371000D02*
X21442000Y50961000D01*
X23262000Y51371000D02*
X23262000Y50961000D01*
X23982000Y51371000D02*
X23982000Y50961000D01*
X25802000Y51371000D02*
X25802000Y50961000D01*
X26522000Y51371000D02*
X26522000Y50961000D01*
X28342000Y51371000D02*
X28342000Y50961000D01*
X29062000Y51371000D02*
X29062000Y50961000D01*
X30882000Y51371000D02*
X30882000Y50961000D01*
X31602000Y51371000D02*
X31602000Y50961000D01*
X33422000Y51371000D02*
X33422000Y50961000D01*
X34142000Y51371000D02*
X34142000Y50961000D01*
X35962000Y51371000D02*
X35962000Y50961000D01*
X36682000Y51371000D02*
X36682000Y50961000D01*
X38502000Y51371000D02*
X38502000Y50961000D01*
X39222000Y51371000D02*
X39222000Y50961000D01*
X41042000Y51371000D02*
X41042000Y51021000D01*
X41762000Y51371000D02*
X41762000Y51021000D01*
X40250100Y60001000D02*
X40250100Y51371000D01*
X40368195Y60001000D02*
X40368195Y51371000D01*
X40486290Y60001000D02*
X40486290Y51371000D01*
X40604385Y60001000D02*
X40604385Y51371000D01*
X40722480Y60001000D02*
X40722480Y51371000D01*
X40840575Y60001000D02*
X40840575Y51371000D01*
X40958670Y60001000D02*
X40958670Y51371000D01*
X41076765Y60001000D02*
X41076765Y51371000D01*
X41194860Y60001000D02*
X41194860Y51371000D01*
X41312955Y60001000D02*
X41312955Y51371000D01*
X41431050Y60001000D02*
X41431050Y51371000D01*
X41549145Y60001000D02*
X41549145Y51371000D01*
X41667240Y60001000D02*
X41667240Y51371000D01*
X41785335Y60001000D02*
X41785335Y51371000D01*
X41903430Y60001000D02*
X41903430Y51371000D01*
X42021525Y60001000D02*
X42021525Y51371000D01*
X42139620Y60001000D02*
X42139620Y51371000D01*
X42257715Y60001000D02*
X42257715Y51371000D01*
X42375810Y60001000D02*
X42375810Y51371000D01*
X42493905Y60001000D02*
X42493905Y51371000D01*
X42612000Y60001000D02*
X42612000Y51371000D01*
%TO.C,J1*%
X79562000Y2624000D02*
X15942000Y2624000D01*
X15942000Y2624000D02*
X15942000Y-36000D01*
X15942000Y-36000D02*
X79562000Y-36000D01*
X79562000Y-36000D02*
X79562000Y2624000D01*
X78612000Y-36000D02*
X78612000Y-6036000D01*
X78612000Y-6036000D02*
X77852000Y-6036000D01*
X77852000Y-6036000D02*
X77852000Y-36000D01*
X78552000Y-36000D02*
X78552000Y-6036000D01*
X78432000Y-36000D02*
X78432000Y-6036000D01*
X78312000Y-36000D02*
X78312000Y-6036000D01*
X78192000Y-36000D02*
X78192000Y-6036000D01*
X78072000Y-36000D02*
X78072000Y-6036000D01*
X77952000Y-36000D02*
X77952000Y-6036000D01*
X78612000Y3021071D02*
X78612000Y2624000D01*
X77852000Y3021071D02*
X77852000Y2624000D01*
X78612000Y5494000D02*
X78612000Y5106929D01*
X77852000Y5494000D02*
X77852000Y5106929D01*
X76962000Y2624000D02*
X76962000Y-36000D01*
X76072000Y-36000D02*
X76072000Y-6036000D01*
X76072000Y-6036000D02*
X75312000Y-6036000D01*
X75312000Y-6036000D02*
X75312000Y-36000D01*
X76072000Y3021071D02*
X76072000Y2624000D01*
X75312000Y3021071D02*
X75312000Y2624000D01*
X76072000Y5561071D02*
X76072000Y5106929D01*
X75312000Y5561071D02*
X75312000Y5106929D01*
X74422000Y2624000D02*
X74422000Y-36000D01*
X73532000Y-36000D02*
X73532000Y-6036000D01*
X73532000Y-6036000D02*
X72772000Y-6036000D01*
X72772000Y-6036000D02*
X72772000Y-36000D01*
X73532000Y3021071D02*
X73532000Y2624000D01*
X72772000Y3021071D02*
X72772000Y2624000D01*
X73532000Y5561071D02*
X73532000Y5106929D01*
X72772000Y5561071D02*
X72772000Y5106929D01*
X71882000Y2624000D02*
X71882000Y-36000D01*
X70992000Y-36000D02*
X70992000Y-6036000D01*
X70992000Y-6036000D02*
X70232000Y-6036000D01*
X70232000Y-6036000D02*
X70232000Y-36000D01*
X70992000Y3021071D02*
X70992000Y2624000D01*
X70232000Y3021071D02*
X70232000Y2624000D01*
X70992000Y5561071D02*
X70992000Y5106929D01*
X70232000Y5561071D02*
X70232000Y5106929D01*
X69342000Y2624000D02*
X69342000Y-36000D01*
X68452000Y-36000D02*
X68452000Y-6036000D01*
X68452000Y-6036000D02*
X67692000Y-6036000D01*
X67692000Y-6036000D02*
X67692000Y-36000D01*
X68452000Y3021071D02*
X68452000Y2624000D01*
X67692000Y3021071D02*
X67692000Y2624000D01*
X68452000Y5561071D02*
X68452000Y5106929D01*
X67692000Y5561071D02*
X67692000Y5106929D01*
X66802000Y2624000D02*
X66802000Y-36000D01*
X65912000Y-36000D02*
X65912000Y-6036000D01*
X65912000Y-6036000D02*
X65152000Y-6036000D01*
X65152000Y-6036000D02*
X65152000Y-36000D01*
X65912000Y3021071D02*
X65912000Y2624000D01*
X65152000Y3021071D02*
X65152000Y2624000D01*
X65912000Y5561071D02*
X65912000Y5106929D01*
X65152000Y5561071D02*
X65152000Y5106929D01*
X64262000Y2624000D02*
X64262000Y-36000D01*
X63372000Y-36000D02*
X63372000Y-6036000D01*
X63372000Y-6036000D02*
X62612000Y-6036000D01*
X62612000Y-6036000D02*
X62612000Y-36000D01*
X63372000Y3021071D02*
X63372000Y2624000D01*
X62612000Y3021071D02*
X62612000Y2624000D01*
X63372000Y5561071D02*
X63372000Y5106929D01*
X62612000Y5561071D02*
X62612000Y5106929D01*
X61722000Y2624000D02*
X61722000Y-36000D01*
X60832000Y-36000D02*
X60832000Y-6036000D01*
X60832000Y-6036000D02*
X60072000Y-6036000D01*
X60072000Y-6036000D02*
X60072000Y-36000D01*
X60832000Y3021071D02*
X60832000Y2624000D01*
X60072000Y3021071D02*
X60072000Y2624000D01*
X60832000Y5561071D02*
X60832000Y5106929D01*
X60072000Y5561071D02*
X60072000Y5106929D01*
X59182000Y2624000D02*
X59182000Y-36000D01*
X58292000Y-36000D02*
X58292000Y-6036000D01*
X58292000Y-6036000D02*
X57532000Y-6036000D01*
X57532000Y-6036000D02*
X57532000Y-36000D01*
X58292000Y3021071D02*
X58292000Y2624000D01*
X57532000Y3021071D02*
X57532000Y2624000D01*
X58292000Y5561071D02*
X58292000Y5106929D01*
X57532000Y5561071D02*
X57532000Y5106929D01*
X56642000Y2624000D02*
X56642000Y-36000D01*
X55752000Y-36000D02*
X55752000Y-6036000D01*
X55752000Y-6036000D02*
X54992000Y-6036000D01*
X54992000Y-6036000D02*
X54992000Y-36000D01*
X55752000Y3021071D02*
X55752000Y2624000D01*
X54992000Y3021071D02*
X54992000Y2624000D01*
X55752000Y5561071D02*
X55752000Y5106929D01*
X54992000Y5561071D02*
X54992000Y5106929D01*
X54102000Y2624000D02*
X54102000Y-36000D01*
X53212000Y-36000D02*
X53212000Y-6036000D01*
X53212000Y-6036000D02*
X52452000Y-6036000D01*
X52452000Y-6036000D02*
X52452000Y-36000D01*
X53212000Y3021071D02*
X53212000Y2624000D01*
X52452000Y3021071D02*
X52452000Y2624000D01*
X53212000Y5561071D02*
X53212000Y5106929D01*
X52452000Y5561071D02*
X52452000Y5106929D01*
X51562000Y2624000D02*
X51562000Y-36000D01*
X50672000Y-36000D02*
X50672000Y-6036000D01*
X50672000Y-6036000D02*
X49912000Y-6036000D01*
X49912000Y-6036000D02*
X49912000Y-36000D01*
X50672000Y3021071D02*
X50672000Y2624000D01*
X49912000Y3021071D02*
X49912000Y2624000D01*
X50672000Y5561071D02*
X50672000Y5106929D01*
X49912000Y5561071D02*
X49912000Y5106929D01*
X49022000Y2624000D02*
X49022000Y-36000D01*
X48132000Y-36000D02*
X48132000Y-6036000D01*
X48132000Y-6036000D02*
X47372000Y-6036000D01*
X47372000Y-6036000D02*
X47372000Y-36000D01*
X48132000Y3021071D02*
X48132000Y2624000D01*
X47372000Y3021071D02*
X47372000Y2624000D01*
X48132000Y5561071D02*
X48132000Y5106929D01*
X47372000Y5561071D02*
X47372000Y5106929D01*
X46482000Y2624000D02*
X46482000Y-36000D01*
X45592000Y-36000D02*
X45592000Y-6036000D01*
X45592000Y-6036000D02*
X44832000Y-6036000D01*
X44832000Y-6036000D02*
X44832000Y-36000D01*
X45592000Y3021071D02*
X45592000Y2624000D01*
X44832000Y3021071D02*
X44832000Y2624000D01*
X45592000Y5561071D02*
X45592000Y5106929D01*
X44832000Y5561071D02*
X44832000Y5106929D01*
X43942000Y2624000D02*
X43942000Y-36000D01*
X43052000Y-36000D02*
X43052000Y-6036000D01*
X43052000Y-6036000D02*
X42292000Y-6036000D01*
X42292000Y-6036000D02*
X42292000Y-36000D01*
X43052000Y3021071D02*
X43052000Y2624000D01*
X42292000Y3021071D02*
X42292000Y2624000D01*
X43052000Y5561071D02*
X43052000Y5106929D01*
X42292000Y5561071D02*
X42292000Y5106929D01*
X41402000Y2624000D02*
X41402000Y-36000D01*
X40512000Y-36000D02*
X40512000Y-6036000D01*
X40512000Y-6036000D02*
X39752000Y-6036000D01*
X39752000Y-6036000D02*
X39752000Y-36000D01*
X40512000Y3021071D02*
X40512000Y2624000D01*
X39752000Y3021071D02*
X39752000Y2624000D01*
X40512000Y5561071D02*
X40512000Y5106929D01*
X39752000Y5561071D02*
X39752000Y5106929D01*
X38862000Y2624000D02*
X38862000Y-36000D01*
X37972000Y-36000D02*
X37972000Y-6036000D01*
X37972000Y-6036000D02*
X37212000Y-6036000D01*
X37212000Y-6036000D02*
X37212000Y-36000D01*
X37972000Y3021071D02*
X37972000Y2624000D01*
X37212000Y3021071D02*
X37212000Y2624000D01*
X37972000Y5561071D02*
X37972000Y5106929D01*
X37212000Y5561071D02*
X37212000Y5106929D01*
X36322000Y2624000D02*
X36322000Y-36000D01*
X35432000Y-36000D02*
X35432000Y-6036000D01*
X35432000Y-6036000D02*
X34672000Y-6036000D01*
X34672000Y-6036000D02*
X34672000Y-36000D01*
X35432000Y3021071D02*
X35432000Y2624000D01*
X34672000Y3021071D02*
X34672000Y2624000D01*
X35432000Y5561071D02*
X35432000Y5106929D01*
X34672000Y5561071D02*
X34672000Y5106929D01*
X33782000Y2624000D02*
X33782000Y-36000D01*
X32892000Y-36000D02*
X32892000Y-6036000D01*
X32892000Y-6036000D02*
X32132000Y-6036000D01*
X32132000Y-6036000D02*
X32132000Y-36000D01*
X32892000Y3021071D02*
X32892000Y2624000D01*
X32132000Y3021071D02*
X32132000Y2624000D01*
X32892000Y5561071D02*
X32892000Y5106929D01*
X32132000Y5561071D02*
X32132000Y5106929D01*
X31242000Y2624000D02*
X31242000Y-36000D01*
X30352000Y-36000D02*
X30352000Y-6036000D01*
X30352000Y-6036000D02*
X29592000Y-6036000D01*
X29592000Y-6036000D02*
X29592000Y-36000D01*
X30352000Y3021071D02*
X30352000Y2624000D01*
X29592000Y3021071D02*
X29592000Y2624000D01*
X30352000Y5561071D02*
X30352000Y5106929D01*
X29592000Y5561071D02*
X29592000Y5106929D01*
X28702000Y2624000D02*
X28702000Y-36000D01*
X27812000Y-36000D02*
X27812000Y-6036000D01*
X27812000Y-6036000D02*
X27052000Y-6036000D01*
X27052000Y-6036000D02*
X27052000Y-36000D01*
X27812000Y3021071D02*
X27812000Y2624000D01*
X27052000Y3021071D02*
X27052000Y2624000D01*
X27812000Y5561071D02*
X27812000Y5106929D01*
X27052000Y5561071D02*
X27052000Y5106929D01*
X26162000Y2624000D02*
X26162000Y-36000D01*
X25272000Y-36000D02*
X25272000Y-6036000D01*
X25272000Y-6036000D02*
X24512000Y-6036000D01*
X24512000Y-6036000D02*
X24512000Y-36000D01*
X25272000Y3021071D02*
X25272000Y2624000D01*
X24512000Y3021071D02*
X24512000Y2624000D01*
X25272000Y5561071D02*
X25272000Y5106929D01*
X24512000Y5561071D02*
X24512000Y5106929D01*
X23622000Y2624000D02*
X23622000Y-36000D01*
X22732000Y-36000D02*
X22732000Y-6036000D01*
X22732000Y-6036000D02*
X21972000Y-6036000D01*
X21972000Y-6036000D02*
X21972000Y-36000D01*
X22732000Y3021071D02*
X22732000Y2624000D01*
X21972000Y3021071D02*
X21972000Y2624000D01*
X22732000Y5561071D02*
X22732000Y5106929D01*
X21972000Y5561071D02*
X21972000Y5106929D01*
X21082000Y2624000D02*
X21082000Y-36000D01*
X20192000Y-36000D02*
X20192000Y-6036000D01*
X20192000Y-6036000D02*
X19432000Y-6036000D01*
X19432000Y-6036000D02*
X19432000Y-36000D01*
X20192000Y3021071D02*
X20192000Y2624000D01*
X19432000Y3021071D02*
X19432000Y2624000D01*
X20192000Y5561071D02*
X20192000Y5106929D01*
X19432000Y5561071D02*
X19432000Y5106929D01*
X18542000Y2624000D02*
X18542000Y-36000D01*
X17652000Y-36000D02*
X17652000Y-6036000D01*
X17652000Y-6036000D02*
X16892000Y-6036000D01*
X16892000Y-6036000D02*
X16892000Y-36000D01*
X17652000Y3021071D02*
X17652000Y2624000D01*
X16892000Y3021071D02*
X16892000Y2624000D01*
X17652000Y5561071D02*
X17652000Y5106929D01*
X16892000Y5561071D02*
X16892000Y5106929D01*
X78232000Y7874000D02*
X79502000Y7874000D01*
X79502000Y7874000D02*
X79502000Y6604000D01*
%TO.C,R1*%
D13*
X39457333Y44617619D02*
X39124000Y45093809D01*
X38885904Y44617619D02*
X38885904Y45617619D01*
X39266857Y45617619D01*
X39362095Y45570000D01*
X39409714Y45522380D01*
X39457333Y45427142D01*
X39457333Y45284285D01*
X39409714Y45189047D01*
X39362095Y45141428D01*
X39266857Y45093809D01*
X38885904Y45093809D01*
X40409714Y44617619D02*
X39838285Y44617619D01*
X40124000Y44617619D02*
X40124000Y45617619D01*
X40028761Y45474761D01*
X39933523Y45379523D01*
X39838285Y45331904D01*
%TO.C,C5*%
X4873333Y48705857D02*
X4825714Y48658238D01*
X4682857Y48610619D01*
X4587619Y48610619D01*
X4444761Y48658238D01*
X4349523Y48753476D01*
X4301904Y48848714D01*
X4254285Y49039190D01*
X4254285Y49182047D01*
X4301904Y49372523D01*
X4349523Y49467761D01*
X4444761Y49563000D01*
X4587619Y49610619D01*
X4682857Y49610619D01*
X4825714Y49563000D01*
X4873333Y49515380D01*
X5778095Y49610619D02*
X5301904Y49610619D01*
X5254285Y49134428D01*
X5301904Y49182047D01*
X5397142Y49229666D01*
X5635238Y49229666D01*
X5730476Y49182047D01*
X5778095Y49134428D01*
X5825714Y49039190D01*
X5825714Y48801095D01*
X5778095Y48705857D01*
X5730476Y48658238D01*
X5635238Y48610619D01*
X5397142Y48610619D01*
X5301904Y48658238D01*
X5254285Y48705857D01*
%TO.C,C4*%
X57421142Y32893333D02*
X57468761Y32845714D01*
X57516380Y32702857D01*
X57516380Y32607619D01*
X57468761Y32464761D01*
X57373523Y32369523D01*
X57278285Y32321904D01*
X57087809Y32274285D01*
X56944952Y32274285D01*
X56754476Y32321904D01*
X56659238Y32369523D01*
X56564000Y32464761D01*
X56516380Y32607619D01*
X56516380Y32702857D01*
X56564000Y32845714D01*
X56611619Y32893333D01*
X56849714Y33750476D02*
X57516380Y33750476D01*
X56468761Y33512380D02*
X57183047Y33274285D01*
X57183047Y33893333D01*
%TO.C,C3*%
X72945333Y29528857D02*
X72897714Y29481238D01*
X72754857Y29433619D01*
X72659619Y29433619D01*
X72516761Y29481238D01*
X72421523Y29576476D01*
X72373904Y29671714D01*
X72326285Y29862190D01*
X72326285Y30005047D01*
X72373904Y30195523D01*
X72421523Y30290761D01*
X72516761Y30386000D01*
X72659619Y30433619D01*
X72754857Y30433619D01*
X72897714Y30386000D01*
X72945333Y30338380D01*
X73278666Y30433619D02*
X73897714Y30433619D01*
X73564380Y30052666D01*
X73707238Y30052666D01*
X73802476Y30005047D01*
X73850095Y29957428D01*
X73897714Y29862190D01*
X73897714Y29624095D01*
X73850095Y29528857D01*
X73802476Y29481238D01*
X73707238Y29433619D01*
X73421523Y29433619D01*
X73326285Y29481238D01*
X73278666Y29528857D01*
%TO.C,C2*%
X31513142Y33147333D02*
X31560761Y33099714D01*
X31608380Y32956857D01*
X31608380Y32861619D01*
X31560761Y32718761D01*
X31465523Y32623523D01*
X31370285Y32575904D01*
X31179809Y32528285D01*
X31036952Y32528285D01*
X30846476Y32575904D01*
X30751238Y32623523D01*
X30656000Y32718761D01*
X30608380Y32861619D01*
X30608380Y32956857D01*
X30656000Y33099714D01*
X30703619Y33147333D01*
X30703619Y33528285D02*
X30656000Y33575904D01*
X30608380Y33671142D01*
X30608380Y33909238D01*
X30656000Y34004476D01*
X30703619Y34052095D01*
X30798857Y34099714D01*
X30894095Y34099714D01*
X31036952Y34052095D01*
X31608380Y33480666D01*
X31608380Y34099714D01*
%TO.C,C1*%
X26971333Y13272857D02*
X26923714Y13225238D01*
X26780857Y13177619D01*
X26685619Y13177619D01*
X26542761Y13225238D01*
X26447523Y13320476D01*
X26399904Y13415714D01*
X26352285Y13606190D01*
X26352285Y13749047D01*
X26399904Y13939523D01*
X26447523Y14034761D01*
X26542761Y14130000D01*
X26685619Y14177619D01*
X26780857Y14177619D01*
X26923714Y14130000D01*
X26971333Y14082380D01*
X27923714Y13177619D02*
X27352285Y13177619D01*
X27638000Y13177619D02*
X27638000Y14177619D01*
X27542761Y14034761D01*
X27447523Y13939523D01*
X27352285Y13891904D01*
%TO.C,RV1*%
X70354380Y54355761D02*
X69878190Y54022428D01*
X70354380Y53784333D02*
X69354380Y53784333D01*
X69354380Y54165285D01*
X69402000Y54260523D01*
X69449619Y54308142D01*
X69544857Y54355761D01*
X69687714Y54355761D01*
X69782952Y54308142D01*
X69830571Y54260523D01*
X69878190Y54165285D01*
X69878190Y53784333D01*
X69354380Y54641476D02*
X70354380Y54974809D01*
X69354380Y55308142D01*
X70354380Y56165285D02*
X70354380Y55593857D01*
X70354380Y55879571D02*
X69354380Y55879571D01*
X69497238Y55784333D01*
X69592476Y55689095D01*
X69640095Y55593857D01*
%TO.C,U4*%
X27690380Y34290095D02*
X28499904Y34290095D01*
X28595142Y34337714D01*
X28642761Y34385333D01*
X28690380Y34480571D01*
X28690380Y34671047D01*
X28642761Y34766285D01*
X28595142Y34813904D01*
X28499904Y34861523D01*
X27690380Y34861523D01*
X28023714Y35766285D02*
X28690380Y35766285D01*
X27642761Y35528190D02*
X28357047Y35290095D01*
X28357047Y35909142D01*
%TO.C,U3*%
X53598380Y33909095D02*
X54407904Y33909095D01*
X54503142Y33956714D01*
X54550761Y34004333D01*
X54598380Y34099571D01*
X54598380Y34290047D01*
X54550761Y34385285D01*
X54503142Y34432904D01*
X54407904Y34480523D01*
X53598380Y34480523D01*
X53598380Y34861476D02*
X53598380Y35480523D01*
X53979333Y35147190D01*
X53979333Y35290047D01*
X54026952Y35385285D01*
X54074571Y35432904D01*
X54169809Y35480523D01*
X54407904Y35480523D01*
X54503142Y35432904D01*
X54550761Y35385285D01*
X54598380Y35290047D01*
X54598380Y35004333D01*
X54550761Y34909095D01*
X54503142Y34861476D01*
%TO.C,U2*%
X77537880Y33782095D02*
X78347404Y33782095D01*
X78442642Y33829714D01*
X78490261Y33877333D01*
X78537880Y33972571D01*
X78537880Y34163047D01*
X78490261Y34258285D01*
X78442642Y34305904D01*
X78347404Y34353523D01*
X77537880Y34353523D01*
X77633119Y34782095D02*
X77585500Y34829714D01*
X77537880Y34924952D01*
X77537880Y35163047D01*
X77585500Y35258285D01*
X77633119Y35305904D01*
X77728357Y35353523D01*
X77823595Y35353523D01*
X77966452Y35305904D01*
X78537880Y34734476D01*
X78537880Y35353523D01*
%TO.C,U1*%
X31373380Y17462595D02*
X32182904Y17462595D01*
X32278142Y17510214D01*
X32325761Y17557833D01*
X32373380Y17653071D01*
X32373380Y17843547D01*
X32325761Y17938785D01*
X32278142Y17986404D01*
X32182904Y18034023D01*
X31373380Y18034023D01*
X32373380Y19034023D02*
X32373380Y18462595D01*
X32373380Y18748309D02*
X31373380Y18748309D01*
X31516238Y18653071D01*
X31611476Y18557833D01*
X31659095Y18462595D01*
%TO.C,J2*%
X38568380Y54276666D02*
X39282666Y54276666D01*
X39425523Y54229047D01*
X39520761Y54133809D01*
X39568380Y53990952D01*
X39568380Y53895714D01*
X38663619Y54705238D02*
X38616000Y54752857D01*
X38568380Y54848095D01*
X38568380Y55086190D01*
X38616000Y55181428D01*
X38663619Y55229047D01*
X38758857Y55276666D01*
X38854095Y55276666D01*
X38996952Y55229047D01*
X39568380Y54657619D01*
X39568380Y55276666D01*
%TO.C,J1*%
X79954380Y615666D02*
X80668666Y615666D01*
X80811523Y568047D01*
X80906761Y472809D01*
X80954380Y329952D01*
X80954380Y234714D01*
X80954380Y1615666D02*
X80954380Y1044238D01*
X80954380Y1329952D02*
X79954380Y1329952D01*
X80097238Y1234714D01*
X80192476Y1139476D01*
X80240095Y1044238D01*
%TD*%
M02*
