%TF.GenerationSoftware,KiCad,Pcbnew,(5.1.6-0-10_14)*%
%TF.CreationDate,2021-03-04T16:35:38+01:00*%
%TF.ProjectId,lcd_board,6c63645f-626f-4617-9264-2e6b69636164,rev?*%
%TF.SameCoordinates,Original*%
%TF.FileFunction,Paste,Top*%
%TF.FilePolarity,Positive*%
%FSLAX46Y46*%
G04 Gerber Fmt 4.6, Leading zero omitted, Abs format (unit mm)*
G04 Created by KiCad (PCBNEW (5.1.6-0-10_14)) date 2021-03-04 16:35:38*
%MOMM*%
%LPD*%
G01*
G04 APERTURE LIST*
G04 APERTURE END LIST*
%TO.C,C5*%
G36*
G01*
X5410500Y46238000D02*
X5410500Y47488000D01*
G75*
G02*
X5660500Y47738000I250000J0D01*
G01*
X6585500Y47738000D01*
G75*
G02*
X6835500Y47488000I0J-250000D01*
G01*
X6835500Y46238000D01*
G75*
G02*
X6585500Y45988000I-250000J0D01*
G01*
X5660500Y45988000D01*
G75*
G02*
X5410500Y46238000I0J250000D01*
G01*
G37*
G36*
G01*
X2435500Y46238000D02*
X2435500Y47488000D01*
G75*
G02*
X2685500Y47738000I250000J0D01*
G01*
X3610500Y47738000D01*
G75*
G02*
X3860500Y47488000I0J-250000D01*
G01*
X3860500Y46238000D01*
G75*
G02*
X3610500Y45988000I-250000J0D01*
G01*
X2685500Y45988000D01*
G75*
G02*
X2435500Y46238000I0J250000D01*
G01*
G37*
%TD*%
%TO.C,R1*%
G36*
G01*
X39745500Y47567001D02*
X39745500Y46666999D01*
G75*
G02*
X39495501Y46417000I-249999J0D01*
G01*
X38845499Y46417000D01*
G75*
G02*
X38595500Y46666999I0J249999D01*
G01*
X38595500Y47567001D01*
G75*
G02*
X38845499Y47817000I249999J0D01*
G01*
X39495501Y47817000D01*
G75*
G02*
X39745500Y47567001I0J-249999D01*
G01*
G37*
G36*
G01*
X41795500Y47567001D02*
X41795500Y46666999D01*
G75*
G02*
X41545501Y46417000I-249999J0D01*
G01*
X40895499Y46417000D01*
G75*
G02*
X40645500Y46666999I0J249999D01*
G01*
X40645500Y47567001D01*
G75*
G02*
X40895499Y47817000I249999J0D01*
G01*
X41545501Y47817000D01*
G75*
G02*
X41795500Y47567001I0J-249999D01*
G01*
G37*
%TD*%
%TO.C,C4*%
G36*
G01*
X51257500Y27378500D02*
X51257500Y28628500D01*
G75*
G02*
X51507500Y28878500I250000J0D01*
G01*
X52432500Y28878500D01*
G75*
G02*
X52682500Y28628500I0J-250000D01*
G01*
X52682500Y27378500D01*
G75*
G02*
X52432500Y27128500I-250000J0D01*
G01*
X51507500Y27128500D01*
G75*
G02*
X51257500Y27378500I0J250000D01*
G01*
G37*
G36*
G01*
X48282500Y27378500D02*
X48282500Y28628500D01*
G75*
G02*
X48532500Y28878500I250000J0D01*
G01*
X49457500Y28878500D01*
G75*
G02*
X49707500Y28628500I0J-250000D01*
G01*
X49707500Y27378500D01*
G75*
G02*
X49457500Y27128500I-250000J0D01*
G01*
X48532500Y27128500D01*
G75*
G02*
X48282500Y27378500I0J250000D01*
G01*
G37*
%TD*%
%TO.C,C3*%
G36*
G01*
X75070000Y27251500D02*
X75070000Y28501500D01*
G75*
G02*
X75320000Y28751500I250000J0D01*
G01*
X76245000Y28751500D01*
G75*
G02*
X76495000Y28501500I0J-250000D01*
G01*
X76495000Y27251500D01*
G75*
G02*
X76245000Y27001500I-250000J0D01*
G01*
X75320000Y27001500D01*
G75*
G02*
X75070000Y27251500I0J250000D01*
G01*
G37*
G36*
G01*
X72095000Y27251500D02*
X72095000Y28501500D01*
G75*
G02*
X72345000Y28751500I250000J0D01*
G01*
X73270000Y28751500D01*
G75*
G02*
X73520000Y28501500I0J-250000D01*
G01*
X73520000Y27251500D01*
G75*
G02*
X73270000Y27001500I-250000J0D01*
G01*
X72345000Y27001500D01*
G75*
G02*
X72095000Y27251500I0J250000D01*
G01*
G37*
%TD*%
%TO.C,C2*%
G36*
G01*
X28267500Y31991000D02*
X29517500Y31991000D01*
G75*
G02*
X29767500Y31741000I0J-250000D01*
G01*
X29767500Y30816000D01*
G75*
G02*
X29517500Y30566000I-250000J0D01*
G01*
X28267500Y30566000D01*
G75*
G02*
X28017500Y30816000I0J250000D01*
G01*
X28017500Y31741000D01*
G75*
G02*
X28267500Y31991000I250000J0D01*
G01*
G37*
G36*
G01*
X28267500Y34966000D02*
X29517500Y34966000D01*
G75*
G02*
X29767500Y34716000I0J-250000D01*
G01*
X29767500Y33791000D01*
G75*
G02*
X29517500Y33541000I-250000J0D01*
G01*
X28267500Y33541000D01*
G75*
G02*
X28017500Y33791000I0J250000D01*
G01*
X28017500Y34716000D01*
G75*
G02*
X28267500Y34966000I250000J0D01*
G01*
G37*
%TD*%
%TO.C,C1*%
G36*
G01*
X29032500Y10995500D02*
X29032500Y12245500D01*
G75*
G02*
X29282500Y12495500I250000J0D01*
G01*
X30207500Y12495500D01*
G75*
G02*
X30457500Y12245500I0J-250000D01*
G01*
X30457500Y10995500D01*
G75*
G02*
X30207500Y10745500I-250000J0D01*
G01*
X29282500Y10745500D01*
G75*
G02*
X29032500Y10995500I0J250000D01*
G01*
G37*
G36*
G01*
X26057500Y10995500D02*
X26057500Y12245500D01*
G75*
G02*
X26307500Y12495500I250000J0D01*
G01*
X27232500Y12495500D01*
G75*
G02*
X27482500Y12245500I0J-250000D01*
G01*
X27482500Y10995500D01*
G75*
G02*
X27232500Y10745500I-250000J0D01*
G01*
X26307500Y10745500D01*
G75*
G02*
X26057500Y10995500I0J250000D01*
G01*
G37*
%TD*%
M02*
