%TF.GenerationSoftware,KiCad,Pcbnew,(5.1.10-1-10_14)*%
%TF.CreationDate,2021-08-31T00:19:26+02:00*%
%TF.ProjectId,lcd_board,6c63645f-626f-4617-9264-2e6b69636164,rev?*%
%TF.SameCoordinates,Original*%
%TF.FileFunction,Legend,Bot*%
%TF.FilePolarity,Positive*%
%FSLAX46Y46*%
G04 Gerber Fmt 4.6, Leading zero omitted, Abs format (unit mm)*
G04 Created by KiCad (PCBNEW (5.1.10-1-10_14)) date 2021-08-31 00:19:26*
%MOMM*%
%LPD*%
G01*
G04 APERTURE LIST*
%ADD10C,0.300000*%
%ADD11C,0.010000*%
G04 APERTURE END LIST*
D10*
X76389119Y41513238D02*
X77341500Y41513238D01*
X77341500Y43513238D01*
X74579595Y41703714D02*
X74674833Y41608476D01*
X74960547Y41513238D01*
X75151023Y41513238D01*
X75436738Y41608476D01*
X75627214Y41798952D01*
X75722452Y41989428D01*
X75817690Y42370380D01*
X75817690Y42656095D01*
X75722452Y43037047D01*
X75627214Y43227523D01*
X75436738Y43418000D01*
X75151023Y43513238D01*
X74960547Y43513238D01*
X74674833Y43418000D01*
X74579595Y43322761D01*
X73722452Y41513238D02*
X73722452Y43513238D01*
X73246261Y43513238D01*
X72960547Y43418000D01*
X72770071Y43227523D01*
X72674833Y43037047D01*
X72579595Y42656095D01*
X72579595Y42370380D01*
X72674833Y41989428D01*
X72770071Y41798952D01*
X72960547Y41608476D01*
X73246261Y41513238D01*
X73722452Y41513238D01*
X69531976Y42560857D02*
X69246261Y42465619D01*
X69151023Y42370380D01*
X69055785Y42179904D01*
X69055785Y41894190D01*
X69151023Y41703714D01*
X69246261Y41608476D01*
X69436738Y41513238D01*
X70198642Y41513238D01*
X70198642Y43513238D01*
X69531976Y43513238D01*
X69341500Y43418000D01*
X69246261Y43322761D01*
X69151023Y43132285D01*
X69151023Y42941809D01*
X69246261Y42751333D01*
X69341500Y42656095D01*
X69531976Y42560857D01*
X70198642Y42560857D01*
X67817690Y43513238D02*
X67436738Y43513238D01*
X67246261Y43418000D01*
X67055785Y43227523D01*
X66960547Y42846571D01*
X66960547Y42179904D01*
X67055785Y41798952D01*
X67246261Y41608476D01*
X67436738Y41513238D01*
X67817690Y41513238D01*
X68008166Y41608476D01*
X68198642Y41798952D01*
X68293880Y42179904D01*
X68293880Y42846571D01*
X68198642Y43227523D01*
X68008166Y43418000D01*
X67817690Y43513238D01*
X66198642Y42084666D02*
X65246261Y42084666D01*
X66389119Y41513238D02*
X65722452Y43513238D01*
X65055785Y41513238D01*
X63246261Y41513238D02*
X63912928Y42465619D01*
X64389119Y41513238D02*
X64389119Y43513238D01*
X63627214Y43513238D01*
X63436738Y43418000D01*
X63341500Y43322761D01*
X63246261Y43132285D01*
X63246261Y42846571D01*
X63341500Y42656095D01*
X63436738Y42560857D01*
X63627214Y42465619D01*
X64389119Y42465619D01*
X62389119Y41513238D02*
X62389119Y43513238D01*
X61912928Y43513238D01*
X61627214Y43418000D01*
X61436738Y43227523D01*
X61341500Y43037047D01*
X61246261Y42656095D01*
X61246261Y42370380D01*
X61341500Y41989428D01*
X61436738Y41798952D01*
X61627214Y41608476D01*
X61912928Y41513238D01*
X62389119Y41513238D01*
X59151023Y43513238D02*
X58484357Y41513238D01*
X57817690Y43513238D01*
X56103404Y41513238D02*
X57246261Y41513238D01*
X56674833Y41513238D02*
X56674833Y43513238D01*
X56865309Y43227523D01*
X57055785Y43037047D01*
X57246261Y42941809D01*
X55246261Y41703714D02*
X55151023Y41608476D01*
X55246261Y41513238D01*
X55341500Y41608476D01*
X55246261Y41703714D01*
X55246261Y41513238D01*
X53912928Y43513238D02*
X53722452Y43513238D01*
X53531976Y43418000D01*
X53436738Y43322761D01*
X53341500Y43132285D01*
X53246261Y42751333D01*
X53246261Y42275142D01*
X53341500Y41894190D01*
X53436738Y41703714D01*
X53531976Y41608476D01*
X53722452Y41513238D01*
X53912928Y41513238D01*
X54103404Y41608476D01*
X54198642Y41703714D01*
X54293880Y41894190D01*
X54389119Y42275142D01*
X54389119Y42751333D01*
X54293880Y43132285D01*
X54198642Y43322761D01*
X54103404Y43418000D01*
X53912928Y43513238D01*
D11*
%TO.C,G\u002A\u002A\u002A*%
G36*
X76096709Y50212562D02*
G01*
X75836601Y50212525D01*
X75606092Y50212367D01*
X75403032Y50211981D01*
X75225270Y50211259D01*
X75070654Y50210093D01*
X74937035Y50208375D01*
X74822260Y50205999D01*
X74724180Y50202856D01*
X74640644Y50198840D01*
X74569500Y50193841D01*
X74508599Y50187753D01*
X74455789Y50180469D01*
X74408919Y50171880D01*
X74365838Y50161879D01*
X74324397Y50150358D01*
X74282443Y50137211D01*
X74237827Y50122328D01*
X74228284Y50119096D01*
X74020001Y50032185D01*
X73823691Y49918043D01*
X73642228Y49779668D01*
X73478489Y49620059D01*
X73335348Y49442214D01*
X73215680Y49249132D01*
X73122363Y49043811D01*
X73082646Y48924466D01*
X73031798Y48695642D01*
X73009643Y48462746D01*
X73015829Y48230007D01*
X73050005Y48001651D01*
X73111817Y47781907D01*
X73193905Y47588761D01*
X73309362Y47393222D01*
X73450433Y47211794D01*
X73613354Y47047771D01*
X73794364Y46904447D01*
X73989698Y46785116D01*
X74195594Y46693071D01*
X74231965Y46680173D01*
X74282153Y46663436D01*
X74329305Y46648990D01*
X74376110Y46636668D01*
X74425256Y46626300D01*
X74479431Y46617719D01*
X74541323Y46610757D01*
X74613622Y46605245D01*
X74699015Y46601014D01*
X74800190Y46597897D01*
X74919837Y46595725D01*
X75060643Y46594331D01*
X75225297Y46593545D01*
X75416487Y46593199D01*
X75622642Y46593125D01*
X76628625Y46593125D01*
X76628625Y44783375D01*
X77533500Y44783375D01*
X77533500Y47497038D01*
X74652188Y47505938D01*
X74547855Y47541422D01*
X74399720Y47607991D01*
X74262422Y47701673D01*
X74141190Y47818332D01*
X74055612Y47931026D01*
X73981236Y48073771D01*
X73935478Y48226644D01*
X73918542Y48385604D01*
X73930632Y48546607D01*
X73971955Y48705611D01*
X74011534Y48799750D01*
X74061075Y48880971D01*
X74130989Y48968190D01*
X74213425Y49053541D01*
X74300531Y49129158D01*
X74384455Y49187171D01*
X74414063Y49203054D01*
X74452511Y49221672D01*
X74486994Y49237661D01*
X74520170Y49251238D01*
X74554697Y49262618D01*
X74593232Y49272016D01*
X74638433Y49279648D01*
X74692957Y49285730D01*
X74759462Y49290478D01*
X74840606Y49294106D01*
X74939047Y49296831D01*
X75057441Y49298869D01*
X75198448Y49300434D01*
X75364723Y49301742D01*
X75558926Y49303010D01*
X75653479Y49303608D01*
X76638895Y49309874D01*
X77090062Y49761250D01*
X77541228Y50212625D01*
X76096709Y50212562D01*
G37*
X76096709Y50212562D02*
X75836601Y50212525D01*
X75606092Y50212367D01*
X75403032Y50211981D01*
X75225270Y50211259D01*
X75070654Y50210093D01*
X74937035Y50208375D01*
X74822260Y50205999D01*
X74724180Y50202856D01*
X74640644Y50198840D01*
X74569500Y50193841D01*
X74508599Y50187753D01*
X74455789Y50180469D01*
X74408919Y50171880D01*
X74365838Y50161879D01*
X74324397Y50150358D01*
X74282443Y50137211D01*
X74237827Y50122328D01*
X74228284Y50119096D01*
X74020001Y50032185D01*
X73823691Y49918043D01*
X73642228Y49779668D01*
X73478489Y49620059D01*
X73335348Y49442214D01*
X73215680Y49249132D01*
X73122363Y49043811D01*
X73082646Y48924466D01*
X73031798Y48695642D01*
X73009643Y48462746D01*
X73015829Y48230007D01*
X73050005Y48001651D01*
X73111817Y47781907D01*
X73193905Y47588761D01*
X73309362Y47393222D01*
X73450433Y47211794D01*
X73613354Y47047771D01*
X73794364Y46904447D01*
X73989698Y46785116D01*
X74195594Y46693071D01*
X74231965Y46680173D01*
X74282153Y46663436D01*
X74329305Y46648990D01*
X74376110Y46636668D01*
X74425256Y46626300D01*
X74479431Y46617719D01*
X74541323Y46610757D01*
X74613622Y46605245D01*
X74699015Y46601014D01*
X74800190Y46597897D01*
X74919837Y46595725D01*
X75060643Y46594331D01*
X75225297Y46593545D01*
X75416487Y46593199D01*
X75622642Y46593125D01*
X76628625Y46593125D01*
X76628625Y44783375D01*
X77533500Y44783375D01*
X77533500Y47497038D01*
X74652188Y47505938D01*
X74547855Y47541422D01*
X74399720Y47607991D01*
X74262422Y47701673D01*
X74141190Y47818332D01*
X74055612Y47931026D01*
X73981236Y48073771D01*
X73935478Y48226644D01*
X73918542Y48385604D01*
X73930632Y48546607D01*
X73971955Y48705611D01*
X74011534Y48799750D01*
X74061075Y48880971D01*
X74130989Y48968190D01*
X74213425Y49053541D01*
X74300531Y49129158D01*
X74384455Y49187171D01*
X74414063Y49203054D01*
X74452511Y49221672D01*
X74486994Y49237661D01*
X74520170Y49251238D01*
X74554697Y49262618D01*
X74593232Y49272016D01*
X74638433Y49279648D01*
X74692957Y49285730D01*
X74759462Y49290478D01*
X74840606Y49294106D01*
X74939047Y49296831D01*
X75057441Y49298869D01*
X75198448Y49300434D01*
X75364723Y49301742D01*
X75558926Y49303010D01*
X75653479Y49303608D01*
X76638895Y49309874D01*
X77090062Y49761250D01*
X77541228Y50212625D01*
X76096709Y50212562D01*
G36*
X68611750Y44783375D02*
G01*
X72233881Y44783375D01*
X71792034Y45235538D01*
X71350188Y45687700D01*
X68611750Y45688250D01*
X68611750Y44783375D01*
G37*
X68611750Y44783375D02*
X72233881Y44783375D01*
X71792034Y45235538D01*
X71350188Y45687700D01*
X68611750Y45688250D01*
X68611750Y44783375D01*
G36*
X64086269Y48418727D02*
G01*
X63974217Y48194823D01*
X63866160Y47978748D01*
X63762945Y47772205D01*
X63665419Y47576894D01*
X63574430Y47394517D01*
X63490823Y47226775D01*
X63415446Y47075369D01*
X63349145Y46942000D01*
X63292768Y46828369D01*
X63247162Y46736177D01*
X63213173Y46667126D01*
X63191647Y46622917D01*
X63183433Y46605251D01*
X63183376Y46605032D01*
X63198406Y46602141D01*
X63241438Y46599503D01*
X63308722Y46597207D01*
X63396511Y46595340D01*
X63501056Y46593990D01*
X63618609Y46593245D01*
X63690522Y46593125D01*
X64198543Y46593125D01*
X64591353Y47378938D01*
X64664719Y47525418D01*
X64733912Y47663012D01*
X64797628Y47789163D01*
X64854560Y47901312D01*
X64903404Y47996902D01*
X64942856Y48073376D01*
X64971609Y48128176D01*
X64988358Y48158744D01*
X64992176Y48164410D01*
X65000178Y48150460D01*
X65021509Y48109861D01*
X65055289Y48044354D01*
X65100635Y47955682D01*
X65156665Y47845588D01*
X65222497Y47715812D01*
X65297249Y47568098D01*
X65380040Y47404187D01*
X65469987Y47225822D01*
X65566208Y47034745D01*
X65667822Y46832698D01*
X65773947Y46621422D01*
X65848063Y46473722D01*
X66695937Y44783375D01*
X67706894Y44783375D01*
X66347590Y47501946D01*
X64988286Y50220516D01*
X64086269Y48418727D01*
G37*
X64086269Y48418727D02*
X63974217Y48194823D01*
X63866160Y47978748D01*
X63762945Y47772205D01*
X63665419Y47576894D01*
X63574430Y47394517D01*
X63490823Y47226775D01*
X63415446Y47075369D01*
X63349145Y46942000D01*
X63292768Y46828369D01*
X63247162Y46736177D01*
X63213173Y46667126D01*
X63191647Y46622917D01*
X63183433Y46605251D01*
X63183376Y46605032D01*
X63198406Y46602141D01*
X63241438Y46599503D01*
X63308722Y46597207D01*
X63396511Y46595340D01*
X63501056Y46593990D01*
X63618609Y46593245D01*
X63690522Y46593125D01*
X64198543Y46593125D01*
X64591353Y47378938D01*
X64664719Y47525418D01*
X64733912Y47663012D01*
X64797628Y47789163D01*
X64854560Y47901312D01*
X64903404Y47996902D01*
X64942856Y48073376D01*
X64971609Y48128176D01*
X64988358Y48158744D01*
X64992176Y48164410D01*
X65000178Y48150460D01*
X65021509Y48109861D01*
X65055289Y48044354D01*
X65100635Y47955682D01*
X65156665Y47845588D01*
X65222497Y47715812D01*
X65297249Y47568098D01*
X65380040Y47404187D01*
X65469987Y47225822D01*
X65566208Y47034745D01*
X65667822Y46832698D01*
X65773947Y46621422D01*
X65848063Y46473722D01*
X66695937Y44783375D01*
X67706894Y44783375D01*
X66347590Y47501946D01*
X64988286Y50220516D01*
X64086269Y48418727D01*
G36*
X62503679Y45246220D02*
G01*
X62448060Y45137140D01*
X62397408Y45037185D01*
X62353464Y44949839D01*
X62317969Y44878588D01*
X62292666Y44826917D01*
X62279294Y44798310D01*
X62277625Y44793783D01*
X62292872Y44791246D01*
X62336096Y44788933D01*
X62403528Y44786921D01*
X62491395Y44785288D01*
X62595926Y44784112D01*
X62713351Y44783472D01*
X62781786Y44783375D01*
X63285947Y44783375D01*
X63512000Y45235813D01*
X63738053Y45688250D01*
X62729733Y45688250D01*
X62503679Y45246220D01*
G37*
X62503679Y45246220D02*
X62448060Y45137140D01*
X62397408Y45037185D01*
X62353464Y44949839D01*
X62317969Y44878588D01*
X62292666Y44826917D01*
X62279294Y44798310D01*
X62277625Y44793783D01*
X62292872Y44791246D01*
X62336096Y44788933D01*
X62403528Y44786921D01*
X62491395Y44785288D01*
X62595926Y44784112D01*
X62713351Y44783472D01*
X62781786Y44783375D01*
X63285947Y44783375D01*
X63512000Y45235813D01*
X63738053Y45688250D01*
X62729733Y45688250D01*
X62503679Y45246220D01*
G36*
X64194532Y50185469D02*
G01*
X64178795Y50171255D01*
X64140771Y50137008D01*
X64081787Y50083920D01*
X64003168Y50013183D01*
X63906240Y49925990D01*
X63792329Y49823534D01*
X63662761Y49707006D01*
X63518862Y49577599D01*
X63361956Y49436505D01*
X63193372Y49284917D01*
X63014433Y49124027D01*
X62826466Y48955027D01*
X62630797Y48779109D01*
X62428751Y48597467D01*
X62388750Y48561506D01*
X60618688Y46970235D01*
X60614644Y48591430D01*
X60610601Y50212625D01*
X59705875Y50212625D01*
X59705875Y47498000D01*
X59705898Y47207003D01*
X59705965Y46924688D01*
X59706074Y46652683D01*
X59706221Y46392611D01*
X59706406Y46146098D01*
X59706625Y45914768D01*
X59706877Y45700248D01*
X59707158Y45504162D01*
X59707467Y45328135D01*
X59707800Y45173792D01*
X59708157Y45042759D01*
X59708533Y44936660D01*
X59708928Y44857121D01*
X59709338Y44805766D01*
X59709761Y44784221D01*
X59709844Y44783632D01*
X59721888Y44794086D01*
X59756281Y44824637D01*
X59811762Y44874154D01*
X59887071Y44941506D01*
X59980947Y45025561D01*
X60092129Y45125190D01*
X60219356Y45239261D01*
X60361366Y45366642D01*
X60516900Y45506204D01*
X60684696Y45656816D01*
X60863494Y45817345D01*
X61052031Y45986663D01*
X61249049Y46163636D01*
X61453284Y46347135D01*
X61579125Y46460220D01*
X61794558Y46653817D01*
X62008062Y46845666D01*
X62218004Y47034297D01*
X62422747Y47218242D01*
X62620656Y47396031D01*
X62810094Y47566195D01*
X62989428Y47727266D01*
X63157021Y47877776D01*
X63311237Y48016253D01*
X63450441Y48141231D01*
X63572997Y48251240D01*
X63677270Y48344812D01*
X63761625Y48420476D01*
X63824425Y48476765D01*
X63836965Y48487995D01*
X64229491Y48839438D01*
X64229871Y49528799D01*
X64230250Y50218159D01*
X64194532Y50185469D01*
G37*
X64194532Y50185469D02*
X64178795Y50171255D01*
X64140771Y50137008D01*
X64081787Y50083920D01*
X64003168Y50013183D01*
X63906240Y49925990D01*
X63792329Y49823534D01*
X63662761Y49707006D01*
X63518862Y49577599D01*
X63361956Y49436505D01*
X63193372Y49284917D01*
X63014433Y49124027D01*
X62826466Y48955027D01*
X62630797Y48779109D01*
X62428751Y48597467D01*
X62388750Y48561506D01*
X60618688Y46970235D01*
X60614644Y48591430D01*
X60610601Y50212625D01*
X59705875Y50212625D01*
X59705875Y47498000D01*
X59705898Y47207003D01*
X59705965Y46924688D01*
X59706074Y46652683D01*
X59706221Y46392611D01*
X59706406Y46146098D01*
X59706625Y45914768D01*
X59706877Y45700248D01*
X59707158Y45504162D01*
X59707467Y45328135D01*
X59707800Y45173792D01*
X59708157Y45042759D01*
X59708533Y44936660D01*
X59708928Y44857121D01*
X59709338Y44805766D01*
X59709761Y44784221D01*
X59709844Y44783632D01*
X59721888Y44794086D01*
X59756281Y44824637D01*
X59811762Y44874154D01*
X59887071Y44941506D01*
X59980947Y45025561D01*
X60092129Y45125190D01*
X60219356Y45239261D01*
X60361366Y45366642D01*
X60516900Y45506204D01*
X60684696Y45656816D01*
X60863494Y45817345D01*
X61052031Y45986663D01*
X61249049Y46163636D01*
X61453284Y46347135D01*
X61579125Y46460220D01*
X61794558Y46653817D01*
X62008062Y46845666D01*
X62218004Y47034297D01*
X62422747Y47218242D01*
X62620656Y47396031D01*
X62810094Y47566195D01*
X62989428Y47727266D01*
X63157021Y47877776D01*
X63311237Y48016253D01*
X63450441Y48141231D01*
X63572997Y48251240D01*
X63677270Y48344812D01*
X63761625Y48420476D01*
X63824425Y48476765D01*
X63836965Y48487995D01*
X64229491Y48839438D01*
X64229871Y49528799D01*
X64230250Y50218159D01*
X64194532Y50185469D01*
G36*
X55750682Y50203742D02*
G01*
X55614475Y50196154D01*
X55497877Y50183496D01*
X55459313Y50177127D01*
X55177231Y50108718D01*
X54903501Y50011094D01*
X54641529Y49885935D01*
X54394720Y49734922D01*
X54166478Y49559736D01*
X54112781Y49512417D01*
X54004498Y49414315D01*
X54081031Y49335927D01*
X54115910Y49301020D01*
X54169009Y49248916D01*
X54235525Y49184280D01*
X54310653Y49111776D01*
X54389589Y49036068D01*
X54407396Y49019057D01*
X54657228Y48780576D01*
X54740771Y48856201D01*
X54912778Y48991146D01*
X55104327Y49103888D01*
X55310354Y49192285D01*
X55525792Y49254198D01*
X55745577Y49287485D01*
X55764907Y49288970D01*
X56019006Y49292935D01*
X56260215Y49268112D01*
X56488221Y49214610D01*
X56702710Y49132541D01*
X56903368Y49022016D01*
X57089881Y48883145D01*
X57197430Y48783706D01*
X57358283Y48601255D01*
X57493597Y48401882D01*
X57601689Y48188472D01*
X57680878Y47963909D01*
X57685550Y47946903D01*
X57700690Y47888104D01*
X57711686Y47836432D01*
X57719189Y47784887D01*
X57723853Y47726469D01*
X57726328Y47654177D01*
X57727267Y47561009D01*
X57727366Y47498000D01*
X57726995Y47390291D01*
X57725450Y47307325D01*
X57722076Y47242104D01*
X57716223Y47187626D01*
X57707238Y47136890D01*
X57694469Y47082895D01*
X57685550Y47049098D01*
X57639140Y46905609D01*
X57577113Y46755810D01*
X57505347Y46612641D01*
X57434448Y46495958D01*
X57333361Y46364543D01*
X57210397Y46232730D01*
X57073725Y46107946D01*
X56931513Y45997619D01*
X56791930Y45909177D01*
X56784875Y45905304D01*
X56646505Y45839701D01*
X56494040Y45784154D01*
X56337085Y45741290D01*
X56185244Y45713739D01*
X56049560Y45704125D01*
X55946295Y45704125D01*
X55420378Y45355849D01*
X55305031Y45279203D01*
X55198263Y45207757D01*
X55102918Y45143450D01*
X55021840Y45088224D01*
X54957872Y45044018D01*
X54913858Y45012775D01*
X54892641Y44996433D01*
X54891137Y44994693D01*
X54903750Y44983887D01*
X54941595Y44966895D01*
X54999159Y44945455D01*
X55070929Y44921305D01*
X55151392Y44896182D01*
X55235034Y44871824D01*
X55316342Y44849968D01*
X55389804Y44832351D01*
X55435500Y44823133D01*
X55515851Y44812128D01*
X55618473Y44803032D01*
X55735617Y44796062D01*
X55859532Y44791430D01*
X55982466Y44789353D01*
X56096669Y44790046D01*
X56194389Y44793723D01*
X56264666Y44800143D01*
X56471681Y44835822D01*
X56665774Y44885012D01*
X56857016Y44950877D01*
X57055477Y45036580D01*
X57126188Y45070701D01*
X57386922Y45216419D01*
X57625773Y45385051D01*
X57842356Y45576213D01*
X58036286Y45789525D01*
X58207179Y46024604D01*
X58354651Y46281070D01*
X58363899Y46299438D01*
X58483543Y46570986D01*
X58571647Y46843367D01*
X58628419Y47117528D01*
X58654069Y47394419D01*
X58652789Y47609125D01*
X58623680Y47905436D01*
X58565291Y48189483D01*
X58477606Y48461301D01*
X58360611Y48720923D01*
X58214291Y48968380D01*
X58038632Y49203707D01*
X57860105Y49400448D01*
X57643298Y49597418D01*
X57407271Y49769792D01*
X57154284Y49916355D01*
X56886596Y50035893D01*
X56606467Y50127191D01*
X56431373Y50168311D01*
X56323327Y50184925D01*
X56192821Y50196852D01*
X56048268Y50204015D01*
X55898084Y50206337D01*
X55750682Y50203742D01*
G37*
X55750682Y50203742D02*
X55614475Y50196154D01*
X55497877Y50183496D01*
X55459313Y50177127D01*
X55177231Y50108718D01*
X54903501Y50011094D01*
X54641529Y49885935D01*
X54394720Y49734922D01*
X54166478Y49559736D01*
X54112781Y49512417D01*
X54004498Y49414315D01*
X54081031Y49335927D01*
X54115910Y49301020D01*
X54169009Y49248916D01*
X54235525Y49184280D01*
X54310653Y49111776D01*
X54389589Y49036068D01*
X54407396Y49019057D01*
X54657228Y48780576D01*
X54740771Y48856201D01*
X54912778Y48991146D01*
X55104327Y49103888D01*
X55310354Y49192285D01*
X55525792Y49254198D01*
X55745577Y49287485D01*
X55764907Y49288970D01*
X56019006Y49292935D01*
X56260215Y49268112D01*
X56488221Y49214610D01*
X56702710Y49132541D01*
X56903368Y49022016D01*
X57089881Y48883145D01*
X57197430Y48783706D01*
X57358283Y48601255D01*
X57493597Y48401882D01*
X57601689Y48188472D01*
X57680878Y47963909D01*
X57685550Y47946903D01*
X57700690Y47888104D01*
X57711686Y47836432D01*
X57719189Y47784887D01*
X57723853Y47726469D01*
X57726328Y47654177D01*
X57727267Y47561009D01*
X57727366Y47498000D01*
X57726995Y47390291D01*
X57725450Y47307325D01*
X57722076Y47242104D01*
X57716223Y47187626D01*
X57707238Y47136890D01*
X57694469Y47082895D01*
X57685550Y47049098D01*
X57639140Y46905609D01*
X57577113Y46755810D01*
X57505347Y46612641D01*
X57434448Y46495958D01*
X57333361Y46364543D01*
X57210397Y46232730D01*
X57073725Y46107946D01*
X56931513Y45997619D01*
X56791930Y45909177D01*
X56784875Y45905304D01*
X56646505Y45839701D01*
X56494040Y45784154D01*
X56337085Y45741290D01*
X56185244Y45713739D01*
X56049560Y45704125D01*
X55946295Y45704125D01*
X55420378Y45355849D01*
X55305031Y45279203D01*
X55198263Y45207757D01*
X55102918Y45143450D01*
X55021840Y45088224D01*
X54957872Y45044018D01*
X54913858Y45012775D01*
X54892641Y44996433D01*
X54891137Y44994693D01*
X54903750Y44983887D01*
X54941595Y44966895D01*
X54999159Y44945455D01*
X55070929Y44921305D01*
X55151392Y44896182D01*
X55235034Y44871824D01*
X55316342Y44849968D01*
X55389804Y44832351D01*
X55435500Y44823133D01*
X55515851Y44812128D01*
X55618473Y44803032D01*
X55735617Y44796062D01*
X55859532Y44791430D01*
X55982466Y44789353D01*
X56096669Y44790046D01*
X56194389Y44793723D01*
X56264666Y44800143D01*
X56471681Y44835822D01*
X56665774Y44885012D01*
X56857016Y44950877D01*
X57055477Y45036580D01*
X57126188Y45070701D01*
X57386922Y45216419D01*
X57625773Y45385051D01*
X57842356Y45576213D01*
X58036286Y45789525D01*
X58207179Y46024604D01*
X58354651Y46281070D01*
X58363899Y46299438D01*
X58483543Y46570986D01*
X58571647Y46843367D01*
X58628419Y47117528D01*
X58654069Y47394419D01*
X58652789Y47609125D01*
X58623680Y47905436D01*
X58565291Y48189483D01*
X58477606Y48461301D01*
X58360611Y48720923D01*
X58214291Y48968380D01*
X58038632Y49203707D01*
X57860105Y49400448D01*
X57643298Y49597418D01*
X57407271Y49769792D01*
X57154284Y49916355D01*
X56886596Y50035893D01*
X56606467Y50127191D01*
X56431373Y50168311D01*
X56323327Y50184925D01*
X56192821Y50196852D01*
X56048268Y50204015D01*
X55898084Y50206337D01*
X55750682Y50203742D01*
G36*
X52832000Y48855313D02*
G01*
X54189243Y47498000D01*
X52832000Y46140688D01*
X51474758Y44783375D01*
X52117660Y44783388D01*
X52760563Y44783400D01*
X54117875Y46128794D01*
X54291001Y46300499D01*
X54457798Y46466122D01*
X54616883Y46624280D01*
X54766872Y46773587D01*
X54906380Y46912660D01*
X55034025Y47040115D01*
X55148421Y47154567D01*
X55248186Y47254632D01*
X55331934Y47338926D01*
X55398283Y47406064D01*
X55445848Y47454663D01*
X55473245Y47483338D01*
X55479720Y47490911D01*
X55469240Y47503998D01*
X55437543Y47538020D01*
X55385999Y47591597D01*
X55315977Y47663352D01*
X55228847Y47751903D01*
X55125978Y47855873D01*
X55008739Y47973882D01*
X54878501Y48104552D01*
X54736632Y48246502D01*
X54584503Y48398354D01*
X54423483Y48558730D01*
X54254941Y48726248D01*
X54120001Y48860130D01*
X52755750Y50212625D01*
X51474758Y50212625D01*
X52832000Y48855313D01*
G37*
X52832000Y48855313D02*
X54189243Y47498000D01*
X52832000Y46140688D01*
X51474758Y44783375D01*
X52117660Y44783388D01*
X52760563Y44783400D01*
X54117875Y46128794D01*
X54291001Y46300499D01*
X54457798Y46466122D01*
X54616883Y46624280D01*
X54766872Y46773587D01*
X54906380Y46912660D01*
X55034025Y47040115D01*
X55148421Y47154567D01*
X55248186Y47254632D01*
X55331934Y47338926D01*
X55398283Y47406064D01*
X55445848Y47454663D01*
X55473245Y47483338D01*
X55479720Y47490911D01*
X55469240Y47503998D01*
X55437543Y47538020D01*
X55385999Y47591597D01*
X55315977Y47663352D01*
X55228847Y47751903D01*
X55125978Y47855873D01*
X55008739Y47973882D01*
X54878501Y48104552D01*
X54736632Y48246502D01*
X54584503Y48398354D01*
X54423483Y48558730D01*
X54254941Y48726248D01*
X54120001Y48860130D01*
X52755750Y50212625D01*
X51474758Y50212625D01*
X52832000Y48855313D01*
G36*
X71326375Y46933341D02*
G01*
X71772213Y46477483D01*
X71869772Y46378090D01*
X71960672Y46286169D01*
X72042480Y46204130D01*
X72112761Y46134385D01*
X72169081Y46079343D01*
X72209006Y46041414D01*
X72230101Y46023009D01*
X72232588Y46021625D01*
X72234612Y46037291D01*
X72236517Y46083449D01*
X72238294Y46158842D01*
X72239934Y46262213D01*
X72241429Y46392304D01*
X72242770Y46547859D01*
X72243948Y46727620D01*
X72244954Y46930329D01*
X72245780Y47154730D01*
X72246417Y47399565D01*
X72246856Y47663576D01*
X72247089Y47945507D01*
X72247125Y48117125D01*
X72247125Y50212625D01*
X71326375Y50212625D01*
X71326375Y46933341D01*
G37*
X71326375Y46933341D02*
X71772213Y46477483D01*
X71869772Y46378090D01*
X71960672Y46286169D01*
X72042480Y46204130D01*
X72112761Y46134385D01*
X72169081Y46079343D01*
X72209006Y46041414D01*
X72230101Y46023009D01*
X72232588Y46021625D01*
X72234612Y46037291D01*
X72236517Y46083449D01*
X72238294Y46158842D01*
X72239934Y46262213D01*
X72241429Y46392304D01*
X72242770Y46547859D01*
X72243948Y46727620D01*
X72244954Y46930329D01*
X72245780Y47154730D01*
X72246417Y47399565D01*
X72246856Y47663576D01*
X72247089Y47945507D01*
X72247125Y48117125D01*
X72247125Y50212625D01*
X71326375Y50212625D01*
X71326375Y46933341D01*
%TD*%
M02*
