M48
; DRILL file {KiCad (5.1.6-0-10_14)} date Thursday, March 04, 2021 at 04:35:43 PM
; FORMAT={-:-/ absolute / inch / decimal}
; #@! TF.CreationDate,2021-03-04T16:35:43+01:00
; #@! TF.GenerationSoftware,Kicad,Pcbnew,(5.1.6-0-10_14)
FMAT,2
INCH
T1C0.0118
T2C0.0157
T3C0.0315
T4C0.0354
T5C0.0394
%
G90
G05
T1
X0.855Y1.81
X0.8924Y1.7926
X0.9349Y1.7876
X0.965Y1.7725
X0.9975Y1.7525
X1.0425Y1.7375
X1.1245Y1.8582
X1.2275Y1.8725
X1.325Y1.89
X1.53Y0.455
X2.775Y1.0625
X2.98Y0.485
X3.08Y0.485
T2
X1.02Y1.33
X1.1375Y1.35
T3
X2.2825Y1.51
X2.2825Y1.21
X2.3825Y1.51
X2.3825Y1.21
X2.4825Y1.51
X2.4825Y1.21
X2.5825Y1.51
X2.5825Y1.21
X2.6825Y1.51
X2.6825Y1.21
X2.7825Y1.51
X2.7825Y1.21
X2.8825Y1.51
X2.8825Y1.21
X2.9825Y1.51
X2.9825Y1.21
X0.32Y1.53
X0.32Y1.23
X0.42Y1.53
X0.42Y1.23
X0.52Y1.53
X0.52Y1.23
X0.62Y1.53
X0.62Y1.23
X0.72Y1.53
X0.72Y1.23
X0.82Y1.53
X0.82Y1.23
X0.92Y1.53
X0.92Y1.23
X1.02Y1.53
X1.02Y1.23
X0.565Y0.8675
X0.565Y0.5675
X0.665Y0.8675
X0.665Y0.5675
X0.765Y0.8675
X0.765Y0.5675
X0.865Y0.8675
X0.865Y0.5675
X0.965Y0.8675
X0.965Y0.5675
X1.065Y0.8675
X1.065Y0.5675
X1.165Y0.8675
X1.165Y0.5675
X1.34Y1.515
X1.34Y1.215
X1.44Y1.515
X1.44Y1.215
X1.54Y1.515
X1.54Y1.215
X1.64Y1.515
X1.64Y1.215
X1.74Y1.515
X1.74Y1.215
X1.84Y1.515
X1.84Y1.215
X1.94Y1.515
X1.94Y1.215
X2.04Y1.515
X2.04Y1.215
T4
X2.8331Y2.065
X2.9316Y2.2619
X3.03Y2.065
T5
X0.13Y1.965
X0.23Y1.965
X0.33Y1.965
X0.43Y1.965
X0.53Y1.965
X0.63Y1.965
X0.73Y1.965
X0.83Y1.965
X0.93Y1.965
X1.03Y1.965
X1.13Y1.965
X1.23Y1.965
X1.33Y1.965
X1.43Y1.965
X1.53Y1.965
X1.63Y1.965
X0.68Y0.26
X0.68Y0.16
X0.78Y0.26
X0.78Y0.16
X0.88Y0.26
X0.88Y0.16
X0.98Y0.26
X0.98Y0.16
X1.08Y0.26
X1.08Y0.16
X1.18Y0.26
X1.18Y0.16
X1.28Y0.26
X1.28Y0.16
X1.38Y0.26
X1.38Y0.16
X1.48Y0.26
X1.48Y0.16
X1.58Y0.26
X1.58Y0.16
X1.68Y0.26
X1.68Y0.16
X1.78Y0.26
X1.78Y0.16
X1.88Y0.26
X1.88Y0.16
X1.98Y0.26
X1.98Y0.16
X2.08Y0.26
X2.08Y0.16
X2.18Y0.26
X2.18Y0.16
X2.28Y0.26
X2.28Y0.16
X2.38Y0.26
X2.38Y0.16
X2.48Y0.26
X2.48Y0.16
X2.58Y0.26
X2.58Y0.16
X2.68Y0.26
X2.68Y0.16
X2.78Y0.26
X2.78Y0.16
X2.88Y0.26
X2.88Y0.16
X2.98Y0.26
X2.98Y0.16
X3.08Y0.26
X3.08Y0.16
T0
M30
